<svg width="19" height="29" viewBox="0 0 19 29" fill="none" xmlns="http://www.w3.org/2000/svg">
<path d="M6.21478 12.0882H9.09754C10.021 12.0882 10.7823 11.9267 11.3813 11.6039C11.9803 11.2681 12.4233 10.8032 12.7103 10.2091C13.0099 9.60209 13.1596 8.89824 13.1596 8.09753C13.1596 7.3743 13.0223 6.73503 12.7478 6.17969C12.4857 5.61145 12.0801 5.17234 11.531 4.86239C10.9819 4.53952 10.2893 4.37809 9.4532 4.37809C8.79179 4.37809 8.1803 4.51369 7.61872 4.7849C7.05714 5.05611 6.60788 5.4371 6.27094 5.92786C5.93399 6.41862 5.76552 7.01269 5.76552 7.71009H0.355665C0.355665 6.16032 0.755008 4.81073 1.55369 3.66132C2.36486 2.51191 3.45057 1.61434 4.81084 0.968604C6.1711 0.322868 7.66864 0 9.30345 0C11.1504 0 12.7665 0.309953 14.1517 0.92986C15.5369 1.53685 16.6164 2.43442 17.3901 3.62258C18.1639 4.81073 18.5507 6.28301 18.5507 8.03941C18.5507 8.93053 18.3511 9.79581 17.9517 10.6353C17.5524 11.4618 16.9783 12.2109 16.2296 12.8824C15.4933 13.5411 14.5947 14.0706 13.534 14.4709C12.4732 14.8584 11.2814 15.0521 9.95862 15.0521H6.21478V12.0882ZM6.21478 16.3307V13.4442H9.95862C11.4437 13.4442 12.7478 13.6186 13.8709 13.9673C14.9941 14.316 15.9363 14.8196 16.6975 15.4783C17.4588 16.124 18.0328 16.8925 18.4197 17.7836C18.8066 18.6618 19 19.6368 19 20.7088C19 22.0261 18.7567 23.2013 18.27 24.2345C17.7833 25.2547 17.0969 26.12 16.2108 26.8303C15.3373 27.5406 14.314 28.0831 13.1409 28.4576C11.9678 28.8192 10.6887 29 9.30345 29C8.15534 29 7.02594 28.8386 5.91527 28.5157C4.81708 28.1799 3.81872 27.6827 2.9202 27.024C2.03415 26.3525 1.32282 25.513 0.786207 24.5057C0.262069 23.4854 0 22.2779 0 20.8831H5.40985C5.40985 21.6063 5.58456 22.2521 5.93399 22.8203C6.28342 23.3886 6.76388 23.8341 7.37537 24.157C7.99934 24.4798 8.69195 24.6413 9.4532 24.6413C10.3143 24.6413 11.0506 24.4798 11.6621 24.157C12.286 23.8212 12.7603 23.3563 13.0847 22.7622C13.4217 22.1552 13.5901 21.4513 13.5901 20.6506C13.5901 19.6175 13.4092 18.7909 13.0473 18.171C12.6854 17.5382 12.1675 17.0733 11.4936 16.7762C10.8197 16.4792 10.021 16.3307 9.09754 16.3307H6.21478Z" fill="url(#paint0_linear_1103_8127)"/>
<defs>
<linearGradient id="paint0_linear_1103_8127" x1="0" y1="29" x2="19" y2="29" gradientUnits="userSpaceOnUse">
<stop stop-color="#DFAA23"/>
<stop offset="0.479167" stop-color="#FBF08D"/>
<stop offset="1" stop-color="#DFAA23"/>
</linearGradient>
</defs>
</svg>
