<svg width="20" height="28" viewBox="0 0 20 28" fill="none" xmlns="http://www.w3.org/2000/svg">
<path d="M20 23.7346V28H0.565854V24.3602L9.7561 14.7867C10.6797 13.7883 11.4081 12.91 11.9415 12.1517C12.4748 11.3807 12.8585 10.6919 13.0927 10.0853C13.3398 9.46603 13.4634 8.87836 13.4634 8.32227C13.4634 7.48815 13.3203 6.77409 13.0341 6.18009C12.748 5.57346 12.3252 5.10584 11.7659 4.77725C11.2195 4.44866 10.5431 4.28436 9.73659 4.28436C8.87805 4.28436 8.13659 4.48657 7.5122 4.891C6.90081 5.29542 6.43252 5.85782 6.10732 6.5782C5.79512 7.29858 5.63902 8.11374 5.63902 9.0237H0C0 7.38073 0.403252 5.87678 1.20976 4.51185C2.01626 3.13428 3.15447 2.04107 4.62439 1.23223C6.09431 0.410742 7.8374 0 9.85366 0C11.8439 0 13.522 0.315956 14.8878 0.947867C16.2667 1.56714 17.3073 2.46445 18.0098 3.63981C18.7252 4.80253 19.0829 6.19273 19.0829 7.81043C19.0829 8.72038 18.9333 9.61137 18.6341 10.4834C18.335 11.3428 17.9057 12.2022 17.3463 13.0616C16.8 13.9084 16.1366 14.7678 15.3561 15.6398C14.5756 16.5118 13.7106 17.4155 12.761 18.3507L7.82439 23.7346H20Z" fill="url(#paint0_linear_1103_8126)"/>
<defs>
<linearGradient id="paint0_linear_1103_8126" x1="0" y1="28" x2="20" y2="28" gradientUnits="userSpaceOnUse">
<stop stop-color="#DFAA23"/>
<stop offset="0.479167" stop-color="#FBF08D"/>
<stop offset="1" stop-color="#DFAA23"/>
</linearGradient>
</defs>
</svg>
