<svg width="277" height="52" viewBox="0 0 277 52" fill="none" xmlns="http://www.w3.org/2000/svg">
<path d="M17.2363 22.2891V51H7.78809V22.2891H0.488281V13.9883H24.4873V22.2891H17.2363ZM65.7227 32.4941C65.7227 37.9303 63.8184 42.5039 60.0098 46.2148C56.2174 49.877 51.5951 51.708 46.1426 51.708C40.8366 51.708 36.2874 49.9095 32.4951 46.3125C28.6214 42.6667 26.6846 38.2152 26.6846 32.958C26.6846 30.1585 27.1647 27.5218 28.125 25.0479C28.6296 23.7295 29.4352 22.346 30.542 20.8975C34.3831 15.8356 39.5996 13.3047 46.1914 13.3047C51.6276 13.3047 56.2337 15.1439 60.0098 18.8223C63.8184 22.5169 65.7227 27.0742 65.7227 32.4941ZM56.2744 32.543C56.2744 29.5645 55.363 27.0254 53.54 24.9258C51.6032 22.7122 49.1699 21.6055 46.2402 21.6055C43.278 21.6055 40.8366 22.6797 38.916 24.8281C37.0605 26.8952 36.1328 29.418 36.1328 32.3965C36.1328 35.4401 37.0687 38.0117 38.9404 40.1113C40.8773 42.3086 43.3431 43.4072 46.3379 43.4072C49.2188 43.4072 51.6195 42.3005 53.54 40.0869C55.363 37.9873 56.2744 35.4727 56.2744 32.543ZM94.6777 51L92.8711 45.6533H80.0293L78.0762 51H67.9199L82.7637 13.9883H90.21L104.932 51H94.6777ZM86.5723 25.5117H86.4258L82.6172 38.1582H90.3809L86.5723 25.5117ZM90.4785 12.2061L78.125 6.81055L80.6641 0.951172L92.7734 7.34766L90.4785 12.2061ZM131.714 51L117.627 28.4902L117.505 28.5391L117.773 51H108.716V13.9883H116.87L131.177 37.2549L131.274 37.1572L130.859 13.9883H139.917V51H131.714ZM183.643 51V36.2051H171.533V51H162.085V13.9883H171.533V27.9043H183.643V13.9883H193.091V51H183.643ZM223.633 51L221.826 45.6533H208.984L207.031 51H196.875L211.719 13.9883H219.165L233.887 51H223.633ZM215.527 25.5117H215.381L211.572 38.1582H219.336L215.527 25.5117ZM219.434 12.2061L207.08 6.81055L209.619 0.951172L221.729 7.34766L219.434 12.2061ZM268.018 51L268.311 23.29L268.213 23.1924L260.327 51H254.077L246.167 23.1924L246.069 23.29L246.362 51H237.671V13.9883H249.829L257.178 38.3535H257.275L264.526 13.9883H276.709V51H268.018Z" fill="url(#paint0_linear_615_5595)"/>
<defs>
<linearGradient id="paint0_linear_615_5595" x1="281" y1="28" x2="0" y2="28" gradientUnits="userSpaceOnUse">
<stop stop-color="#FF1F1F"/>
<stop offset="0.5" stop-color="#FF6969" stop-opacity="0.932292"/>
<stop offset="1" stop-color="#FF1F1F"/>
</linearGradient>
</defs>
</svg>
