<svg width="709" height="69" viewBox="0 0 709 69" fill="none" xmlns="http://www.w3.org/2000/svg">
<path d="M6.99219 6.50586L3.27246 24H1.34277L5.0625 6.50586H0.644531L1.0127 4.75391H11.7529L11.3848 6.50586H6.99219ZM17.6436 11.3428C14.8844 11.5628 13.2214 13.0101 12.6543 15.6846L10.8896 24H9.07422L12.0957 9.78125H13.9111L13.4795 11.8379H13.5303C14.0804 10.9831 14.749 10.3652 15.5361 9.98438C16.1709 9.67969 17.0088 9.48926 18.0498 9.41309L17.6436 11.3428ZM32.6748 16.8779C32.2432 18.9176 31.1387 20.6696 29.3613 22.1338C27.584 23.6064 25.6755 24.3428 23.6357 24.3428C21.6299 24.3428 20.0472 23.6149 18.8877 22.1592C17.7282 20.7035 17.36 18.9769 17.7832 16.9795C18.2233 14.9144 19.3193 13.1413 21.0713 11.6602C22.8402 10.1621 24.7529 9.41309 26.8096 9.41309C28.8324 9.41309 30.4235 10.1494 31.583 11.6221C32.7425 13.0947 33.1064 14.8467 32.6748 16.8779ZM30.8721 16.8018C31.2021 15.2445 30.944 13.8988 30.0977 12.7646C29.2344 11.6221 28.0283 11.0508 26.4795 11.0508C24.8883 11.0508 23.4242 11.6432 22.0869 12.8281C20.7751 13.9792 19.9499 15.3545 19.6113 16.9541C19.2728 18.5114 19.5309 19.8571 20.3857 20.9912C21.2406 22.1338 22.4466 22.7051 24.0039 22.7051C25.612 22.7051 27.0846 22.1211 28.4219 20.9531C29.7083 19.8105 30.5251 18.4268 30.8721 16.8018ZM31.1768 4.46191L26.6191 1.68164L27.7871 0.120117L32.3574 2.96387L31.1768 4.46191ZM29.5518 7.38184L27.7236 5.49023L25.0322 7.38184H22.6582L27.1143 4.13184H28.8281L31.8623 7.38184H29.5518ZM44.6211 24L46.2842 16.1797C46.445 15.418 46.4915 14.7155 46.4238 14.0723C46.3561 13.319 46.1318 12.7181 45.751 12.2695C45.0654 11.457 44.126 11.0508 42.9326 11.0508C41.7308 11.0508 40.6094 11.457 39.5684 12.2695C39.0098 12.7096 38.54 13.2936 38.1592 14.0215C37.8291 14.6478 37.5879 15.3206 37.4355 16.04L35.7471 24H33.9316L36.9531 9.78125H38.7686L38.3877 11.5967H38.4385C39.6826 10.141 41.2949 9.41309 43.2754 9.41309C45.2643 9.41309 46.682 10.0479 47.5283 11.3174C48.3408 12.5361 48.5312 14.1569 48.0996 16.1797L46.4365 24H44.6211ZM64.3369 21.7656C64.2184 22.3073 64.1042 22.7686 63.9941 23.1494C63.8587 23.6403 63.7106 24.0846 63.5498 24.4824C63.152 25.4303 62.6146 26.2555 61.9375 26.958C60.2363 28.71 58.167 29.5859 55.7295 29.5859C53.986 29.5859 52.5641 29.1374 51.4639 28.2402C50.3213 27.3177 49.6865 26.027 49.5596 24.3682H51.4893C51.9294 26.7549 53.4486 27.9482 56.0469 27.9482C57.638 27.9482 59.0049 27.4616 60.1475 26.4883C61.2646 25.5319 61.9925 24.2539 62.3311 22.6543L62.5977 21.3975H62.5469C61.8444 22.3454 60.9134 23.0817 59.7539 23.6064C58.679 24.0973 57.5703 24.3428 56.4277 24.3428C54.3626 24.3428 52.763 23.6276 51.6289 22.1973C50.4779 20.7585 50.1224 19.0107 50.5625 16.9541C51.0026 14.8805 52.0986 13.1074 53.8506 11.6348C55.611 10.1536 57.528 9.41309 59.6016 9.41309C62.0052 9.41309 63.6302 10.3822 64.4766 12.3203H64.5273L65.0605 9.78125H66.876L64.3369 21.7656ZM63.6514 16.9033C63.9899 15.3206 63.7402 13.9538 62.9023 12.8027C62.0475 11.6348 60.833 11.0508 59.2588 11.0508C57.6761 11.0508 56.2161 11.6348 54.8789 12.8027C53.5586 13.9368 52.7292 15.3037 52.3906 16.9033C52.0521 18.486 52.3018 19.8402 53.1396 20.9658C53.986 22.1253 55.2005 22.7051 56.7832 22.7051C58.3405 22.7051 59.7962 22.1253 61.1504 20.9658C62.4792 19.8317 63.3128 18.4775 63.6514 16.9033ZM83.0752 11.3428C80.3161 11.5628 78.653 13.0101 78.0859 15.6846L76.3213 24H74.5059L77.5273 9.78125H79.3428L78.9111 11.8379H78.9619C79.512 10.9831 80.1807 10.3652 80.9678 9.98438C81.6025 9.67969 82.4404 9.48926 83.4814 9.41309L83.0752 11.3428ZM94.958 24L95.4912 21.499H95.4404C93.7816 23.3949 91.7334 24.3428 89.2959 24.3428C87.1546 24.3428 85.5 23.6276 84.332 22.1973C83.1556 20.7669 82.7959 18.9854 83.2529 16.8525C83.7015 14.7367 84.8271 12.9635 86.6299 11.5332C88.4072 10.1198 90.3538 9.41309 92.4697 9.41309C94.9495 9.41309 96.5915 10.3652 97.3955 12.2695H97.4463L97.9795 9.78125H99.8076L96.7861 24H94.958ZM96.583 16.9033C96.9215 15.3037 96.6676 13.9326 95.8213 12.79C94.958 11.6305 93.7266 11.0508 92.127 11.0508C90.4427 11.0508 88.932 11.6094 87.5947 12.7266C86.2575 13.8438 85.4069 15.2445 85.043 16.9287C84.696 18.5876 84.9583 19.9671 85.8301 21.0674C86.7103 22.1592 87.984 22.7051 89.6514 22.7051C91.251 22.7051 92.7236 22.1338 94.0693 20.9912C95.4066 19.8656 96.2445 18.5029 96.583 16.9033ZM98.2207 5.07129C97.6706 6.01074 96.9173 6.70898 95.9609 7.16602C95.1315 7.55534 94.1751 7.75 93.0918 7.75C92.0169 7.75 91.1494 7.55534 90.4893 7.16602C89.7275 6.71745 89.279 6.01921 89.1436 5.07129H90.832C91.2467 5.86686 92.1058 6.26465 93.4092 6.26465C93.9847 6.26465 94.5306 6.17578 95.0469 5.99805C95.6393 5.79492 96.1344 5.486 96.5322 5.07129H98.2207ZM110.764 24L112.427 16.1797C112.588 15.418 112.634 14.7155 112.566 14.0723C112.499 13.319 112.274 12.7181 111.894 12.2695C111.208 11.457 110.269 11.0508 109.075 11.0508C107.873 11.0508 106.752 11.457 105.711 12.2695C105.152 12.7096 104.683 13.2936 104.302 14.0215C103.972 14.6478 103.73 15.3206 103.578 16.04L101.89 24H100.074L103.096 9.78125H104.911L104.53 11.5967H104.581C105.825 10.141 107.438 9.41309 109.418 9.41309C111.407 9.41309 112.825 10.0479 113.671 11.3174C114.483 12.5361 114.674 14.1569 114.242 16.1797L112.579 24H110.764ZM130.479 21.7656C130.361 22.3073 130.247 22.7686 130.137 23.1494C130.001 23.6403 129.853 24.0846 129.692 24.4824C129.295 25.4303 128.757 26.2555 128.08 26.958C126.379 28.71 124.31 29.5859 121.872 29.5859C120.129 29.5859 118.707 29.1374 117.606 28.2402C116.464 27.3177 115.829 26.027 115.702 24.3682H117.632C118.072 26.7549 119.591 27.9482 122.189 27.9482C123.781 27.9482 125.147 27.4616 126.29 26.4883C127.407 25.5319 128.135 24.2539 128.474 22.6543L128.74 21.3975H128.689C127.987 22.3454 127.056 23.0817 125.896 23.6064C124.822 24.0973 123.713 24.3428 122.57 24.3428C120.505 24.3428 118.906 23.6276 117.771 22.1973C116.62 20.7585 116.265 19.0107 116.705 16.9541C117.145 14.8805 118.241 13.1074 119.993 11.6348C121.754 10.1536 123.671 9.41309 125.744 9.41309C128.148 9.41309 129.773 10.3822 130.619 12.3203H130.67L131.203 9.78125H133.019L130.479 21.7656ZM129.794 16.9033C130.132 15.3206 129.883 13.9538 129.045 12.8027C128.19 11.6348 126.976 11.0508 125.401 11.0508C123.819 11.0508 122.359 11.6348 121.021 12.8027C119.701 13.9368 118.872 15.3037 118.533 16.9033C118.195 18.486 118.444 19.8402 119.282 20.9658C120.129 22.1253 121.343 22.7051 122.926 22.7051C124.483 22.7051 125.939 22.1253 127.293 20.9658C128.622 19.8317 129.455 18.4775 129.794 16.9033ZM149.269 20.001C148.651 22.8955 146.852 24.3428 143.873 24.3428C142.604 24.3428 141.647 23.9281 141.004 23.0986C140.361 22.2692 140.174 21.2197 140.445 19.9502L140.483 19.7852H142.299C141.918 21.7318 142.561 22.7051 144.229 22.7051C145.997 22.7051 147.06 21.8545 147.415 20.1533C147.593 19.3239 147.394 18.6637 146.818 18.1729C146.59 17.9782 146.272 17.7878 145.866 17.6016L144.762 17.1318C144.296 16.9372 143.928 16.7637 143.657 16.6113C143.276 16.3913 142.976 16.1543 142.756 15.9004C142.197 15.2741 142.032 14.4277 142.261 13.3613C142.506 12.2018 143.094 11.2539 144.025 10.5176C144.939 9.78125 145.98 9.41309 147.148 9.41309C148.24 9.41309 149.082 9.78548 149.675 10.5303C150.259 11.2751 150.432 12.1934 150.195 13.2852H148.38C148.608 11.7956 148.058 11.0508 146.729 11.0508C145.291 11.0508 144.419 11.7617 144.114 13.1836C143.962 13.8945 144.186 14.4616 144.787 14.8848C145.016 15.0456 145.333 15.2106 145.739 15.3799L146.006 15.4941C146.074 15.5195 146.171 15.5576 146.298 15.6084L146.856 15.8369C147.305 16.0316 147.669 16.2178 147.948 16.3955C148.329 16.624 148.625 16.8822 148.837 17.1699C149.379 17.8724 149.522 18.8161 149.269 20.001ZM163.881 4.55078C163.796 4.9401 163.597 5.32096 163.284 5.69336C163.2 5.78646 163.077 5.90495 162.916 6.04883L162.713 6.22656L162.078 6.73438C161.951 6.85286 161.828 6.97982 161.71 7.11523C161.507 7.34375 161.338 7.71191 161.202 8.21973H159.59L159.666 7.87695C159.759 7.44531 159.966 7.02637 160.288 6.62012C160.381 6.50163 160.529 6.34928 160.732 6.16309C160.817 6.08691 160.948 5.97689 161.126 5.83301L161.545 5.50293C161.68 5.38444 161.807 5.26595 161.926 5.14746C162.104 4.96126 162.214 4.75391 162.256 4.52539C162.332 4.16992 162.281 3.89062 162.104 3.6875C161.909 3.45898 161.676 3.34473 161.405 3.34473C161.016 3.34473 160.665 3.52246 160.352 3.87793C160.242 4.00488 160.157 4.14876 160.098 4.30957C160.064 4.40267 160 4.66081 159.907 5.08398H158.27L158.371 4.58887C158.515 3.90332 158.93 3.29395 159.615 2.76074C160.242 2.27832 160.94 2.03711 161.71 2.03711C162.497 2.03711 163.085 2.27409 163.475 2.74805C163.889 3.26432 164.025 3.86523 163.881 4.55078ZM165.671 11.8887L163.094 24H161.38L161.85 21.791H161.799C161.223 22.6289 160.457 23.2721 159.501 23.7207C158.629 24.1354 157.698 24.3428 156.708 24.3428C154.575 24.3428 153.094 23.6318 152.265 22.21C151.926 21.6175 151.748 20.8939 151.731 20.0391C151.715 19.3451 151.803 18.541 151.998 17.627L153.661 9.78125H155.477L153.813 17.6016C153.475 19.1927 153.53 20.4115 153.979 21.2578C154.495 22.2227 155.519 22.7051 157.051 22.7051C158.253 22.7051 159.34 22.32 160.313 21.5498C161.007 20.9997 161.549 20.348 161.938 19.5947C162.252 18.9938 162.506 18.2279 162.7 17.2969L164.3 9.78125H166.115L166.026 10.2002C166.052 10.1833 166.077 10.1663 166.103 10.1494C166.458 9.90397 166.695 9.60352 166.813 9.24805H166.039L166.534 6.96289H168.769L168.261 9.32422C168.117 9.73893 167.943 10.0859 167.74 10.3652C167.546 10.6361 167.326 10.8646 167.08 11.0508C166.843 11.237 166.636 11.3851 166.458 11.4951C166.28 11.5967 166.022 11.7321 165.684 11.9014L165.671 11.8887ZM186.301 24L186.834 21.499H186.783C185.107 23.3949 183.059 24.3428 180.639 24.3428C178.497 24.3428 176.843 23.6276 175.675 22.1973C174.498 20.7669 174.139 18.9854 174.596 16.8525C175.044 14.7367 176.17 12.9635 177.973 11.5332C179.75 10.1198 181.697 9.41309 183.812 9.41309C186.225 9.41309 187.871 10.3483 188.751 12.2188H188.802L190.389 4.75391H192.217L188.129 24H186.301ZM187.926 16.9033C188.264 15.3037 188.01 13.9326 187.164 12.79C186.301 11.6305 185.069 11.0508 183.47 11.0508C181.785 11.0508 180.275 11.6094 178.938 12.7266C177.6 13.8438 176.75 15.2445 176.386 16.9287C176.039 18.5876 176.301 19.9671 177.173 21.0674C178.053 22.1592 179.327 22.7051 180.994 22.7051C182.594 22.7051 184.066 22.1338 185.412 20.9912C186.749 19.8656 187.587 18.5029 187.926 16.9033ZM202.208 24L202.678 21.791H202.627C202.051 22.6289 201.285 23.2721 200.329 23.7207C199.457 24.1354 198.526 24.3428 197.536 24.3428C195.403 24.3428 193.922 23.6318 193.093 22.21C192.754 21.6175 192.576 20.8939 192.56 20.0391C192.543 19.3451 192.632 18.541 192.826 17.627L194.489 9.78125H196.305L194.642 17.6016C194.303 19.1927 194.358 20.4115 194.807 21.2578C195.323 22.2227 196.347 22.7051 197.879 22.7051C199.081 22.7051 200.168 22.32 201.142 21.5498C201.836 20.9997 202.377 20.348 202.767 19.5947C203.08 18.9938 203.334 18.2279 203.528 17.2969L205.128 9.78125H206.943L203.922 24H202.208ZM196.381 28.8877L197.079 25.5996H199.009L198.311 28.8877H196.381ZM218.064 24L219.728 16.1797C219.888 15.418 219.935 14.7155 219.867 14.0723C219.799 13.319 219.575 12.7181 219.194 12.2695C218.509 11.457 217.569 11.0508 216.376 11.0508C215.174 11.0508 214.053 11.457 213.012 12.2695C212.453 12.7096 211.983 13.2936 211.603 14.0215C211.272 14.6478 211.031 15.3206 210.879 16.04L209.19 24H207.375L210.396 9.78125H212.212L211.831 11.5967H211.882C213.126 10.141 214.738 9.41309 216.719 9.41309C218.708 9.41309 220.125 10.0479 220.972 11.3174C221.784 12.5361 221.975 14.1569 221.543 16.1797L219.88 24H218.064ZM237.78 21.7656C237.662 22.3073 237.548 22.7686 237.438 23.1494C237.302 23.6403 237.154 24.0846 236.993 24.4824C236.595 25.4303 236.058 26.2555 235.381 26.958C233.68 28.71 231.61 29.5859 229.173 29.5859C227.429 29.5859 226.007 29.1374 224.907 28.2402C223.765 27.3177 223.13 26.027 223.003 24.3682H224.933C225.373 26.7549 226.892 27.9482 229.49 27.9482C231.081 27.9482 232.448 27.4616 233.591 26.4883C234.708 25.5319 235.436 24.2539 235.774 22.6543L236.041 21.3975H235.99C235.288 22.3454 234.357 23.0817 233.197 23.6064C232.122 24.0973 231.014 24.3428 229.871 24.3428C227.806 24.3428 226.206 23.6276 225.072 22.1973C223.921 20.7585 223.566 19.0107 224.006 16.9541C224.446 14.8805 225.542 13.1074 227.294 11.6348C229.054 10.1536 230.971 9.41309 233.045 9.41309C235.449 9.41309 237.074 10.3822 237.92 12.3203H237.971L238.504 9.78125H240.319L237.78 21.7656ZM237.095 16.9033C237.433 15.3206 237.184 13.9538 236.346 12.8027C235.491 11.6348 234.276 11.0508 232.702 11.0508C231.119 11.0508 229.66 11.6348 228.322 12.8027C227.002 13.9368 226.173 15.3037 225.834 16.9033C225.495 18.486 225.745 19.8402 226.583 20.9658C227.429 22.1253 228.644 22.7051 230.227 22.7051C231.784 22.7051 233.24 22.1253 234.594 20.9658C235.923 19.8317 236.756 18.4775 237.095 16.9033ZM254.449 24H252.443L249.46 9.78125H251.415L253.891 21.7402L261.521 9.78125H263.476L254.449 24ZM262.346 24L265.367 9.78125H267.183L264.161 24H262.346ZM271.601 6.82324C270.543 7.50033 269.62 7.83887 268.833 7.83887C268.486 7.83887 268.135 7.78385 267.779 7.67383C267.551 7.59766 267.267 7.47493 266.929 7.30566L266.129 6.9375C265.824 6.82747 265.541 6.77246 265.278 6.77246C264.669 6.77246 264.034 7.0306 263.374 7.54688L262.739 6.25195C263.67 5.52409 264.648 5.16016 265.672 5.16016C266.01 5.16016 266.349 5.21517 266.688 5.3252C266.908 5.40137 267.191 5.52409 267.538 5.69336C267.547 5.70182 267.576 5.71875 267.627 5.74414C267.669 5.76107 267.703 5.77799 267.729 5.79492C267.805 5.82878 267.868 5.8584 267.919 5.88379L268.3 6.06152C268.604 6.17155 268.888 6.22656 269.15 6.22656C269.421 6.22656 269.717 6.15039 270.039 5.99805L270.712 5.66797L270.928 5.55371L271.601 6.82324ZM278.24 24L279.903 16.1797C280.064 15.418 280.111 14.7155 280.043 14.0723C279.975 13.319 279.751 12.7181 279.37 12.2695C278.685 11.457 277.745 11.0508 276.552 11.0508C275.35 11.0508 274.229 11.457 273.188 12.2695C272.629 12.7096 272.159 13.2936 271.778 14.0215C271.448 14.6478 271.207 15.3206 271.055 16.04L269.366 24H267.551L270.572 9.78125H272.388L272.007 11.5967H272.058C273.302 10.141 274.914 9.41309 276.895 9.41309C278.883 9.41309 280.301 10.0479 281.147 11.3174C281.96 12.5361 282.15 14.1569 281.719 16.1797L280.056 24H278.24ZM294.021 24L295.684 16.1797C295.844 15.418 295.891 14.7155 295.823 14.0723C295.756 13.319 295.531 12.7181 295.15 12.2695C294.465 11.457 293.525 11.0508 292.332 11.0508C291.13 11.0508 290.009 11.457 288.968 12.2695C288.409 12.7096 287.939 13.2936 287.559 14.0215C287.229 14.6478 286.987 15.3206 286.835 16.04L285.146 24H283.331L287.419 4.75391H289.234L287.787 11.5967H287.838C289.082 10.141 290.694 9.41309 292.675 9.41309C294.664 9.41309 296.081 10.0479 296.928 11.3174C297.74 12.5361 297.931 14.1569 297.499 16.1797L295.836 24H294.021ZM313 24H310.994L308.011 9.78125H309.966L312.441 21.7402L320.071 9.78125H322.026L313 24ZM324.286 8.04199L324.984 4.75391H326.8L326.102 8.04199H324.286ZM320.896 24L323.918 9.78125H325.733L322.712 24H320.896ZM341.577 17.5508H328.628C328.399 18.9473 328.729 20.1576 329.618 21.1816C330.498 22.1973 331.641 22.7051 333.046 22.7051C334.163 22.7051 335.251 22.4089 336.309 21.8164C337.409 21.1986 338.259 20.3734 338.86 19.3408H340.79C339.944 20.8304 338.78 22.0365 337.299 22.959C335.818 23.8815 334.294 24.3428 332.729 24.3428C330.68 24.3428 329.085 23.6107 327.942 22.1465C326.808 20.6992 326.457 18.9515 326.889 16.9033C327.329 14.8636 328.425 13.1074 330.177 11.6348C331.946 10.1536 333.846 9.41309 335.877 9.41309C337.942 9.41309 339.542 10.1706 340.676 11.6855C341.801 13.1836 342.144 14.9652 341.704 17.0303L341.577 17.5508ZM340.079 15.9131C340.138 14.5081 339.753 13.3486 338.924 12.4346C338.086 11.512 336.96 11.0508 335.547 11.0508C334.142 11.0508 332.822 11.512 331.586 12.4346C330.367 13.3486 329.495 14.5081 328.971 15.9131H340.079ZM343.304 2.8877C342.246 3.56478 341.323 3.90332 340.536 3.90332C340.189 3.90332 339.842 3.84831 339.495 3.73828C339.267 3.66211 338.979 3.53939 338.632 3.37012L337.832 3.00195C337.536 2.89193 337.257 2.83691 336.994 2.83691C336.385 2.83691 335.75 3.09505 335.09 3.61133L334.455 2.31641C335.395 1.58854 336.372 1.22461 337.388 1.22461C337.726 1.22461 338.065 1.27962 338.403 1.38965C338.623 1.46582 338.903 1.58854 339.241 1.75781C339.267 1.76628 339.3 1.7832 339.343 1.80859C339.385 1.82552 339.415 1.84245 339.432 1.85938C339.508 1.89323 339.576 1.92285 339.635 1.94824L340.028 2.12598C340.316 2.236 340.591 2.29102 340.854 2.29102C341.124 2.29102 341.429 2.21484 341.768 2.0625L342.415 1.73242L342.631 1.61816L343.304 2.8877ZM338.67 7.38184L336.842 5.49023L334.15 7.38184H331.776L336.232 4.13184H337.946L340.98 7.38184H338.67ZM353.701 24L355.364 16.1797C355.525 15.418 355.572 14.7155 355.504 14.0723C355.436 13.319 355.212 12.7181 354.831 12.2695C354.146 11.457 353.206 11.0508 352.013 11.0508C350.811 11.0508 349.689 11.457 348.648 12.2695C348.09 12.7096 347.62 13.2936 347.239 14.0215C346.909 14.6478 346.668 15.3206 346.516 16.04L344.827 24H343.012L346.033 9.78125H347.849L347.468 11.5967H347.519C348.763 10.141 350.375 9.41309 352.355 9.41309C354.344 9.41309 355.762 10.0479 356.608 11.3174C357.421 12.5361 357.611 14.1569 357.18 16.1797L355.517 24H353.701ZM359.109 25.7393H357.18L360.531 20.7246H362.461L359.109 25.7393ZM388.271 19.8105C386.095 22.832 383.417 24.3428 380.234 24.3428C378.118 24.3428 376.472 23.6318 375.296 22.21C374.103 20.7712 373.73 19.0023 374.179 16.9033C374.619 14.8213 375.749 13.0482 377.568 11.584C379.371 10.1367 381.318 9.41309 383.408 9.41309C384.974 9.41309 386.307 9.82357 387.407 10.6445C388.524 11.4909 389.218 12.6335 389.489 14.0723H387.483C386.857 12.0579 385.401 11.0508 383.116 11.0508C381.483 11.0508 379.98 11.6094 378.609 12.7266C377.221 13.8438 376.354 15.2191 376.007 16.8525C375.651 18.5029 375.922 19.891 376.819 21.0166C377.716 22.1423 378.99 22.7051 380.641 22.7051C382.985 22.7051 384.86 21.7402 386.265 19.8105H388.271ZM405.917 16.8779C405.485 18.9176 404.381 20.6696 402.604 22.1338C400.826 23.6064 398.918 24.3428 396.878 24.3428C394.872 24.3428 393.289 23.6149 392.13 22.1592C390.97 20.7035 390.602 18.9769 391.025 16.9795C391.465 14.9144 392.562 13.1413 394.313 11.6602C396.082 10.1621 397.995 9.41309 400.052 9.41309C402.075 9.41309 403.666 10.1494 404.825 11.6221C405.985 13.0947 406.349 14.8467 405.917 16.8779ZM404.114 16.8018C404.444 15.2445 404.186 13.8988 403.34 12.7646C402.477 11.6221 401.271 11.0508 399.722 11.0508C398.131 11.0508 396.666 11.6432 395.329 12.8281C394.017 13.9792 393.192 15.3545 392.854 16.9541C392.515 18.5114 392.773 19.8571 393.628 20.9912C394.483 22.1338 395.689 22.7051 397.246 22.7051C398.854 22.7051 400.327 22.1211 401.664 20.9531C402.951 19.8105 403.767 18.4268 404.114 16.8018ZM399.163 7.90234L398.63 6.4043L404.406 3.56055L404.914 5.12207L399.163 7.90234ZM422.954 11.3428C420.195 11.5628 418.532 13.0101 417.965 15.6846L416.2 24H414.385L417.406 9.78125H419.222L418.79 11.8379H418.841C419.391 10.9831 420.06 10.3652 420.847 9.98438C421.481 9.67969 422.319 9.48926 423.36 9.41309L422.954 11.3428ZM434.837 24L435.37 21.499H435.319C433.66 23.3949 431.612 24.3428 429.175 24.3428C427.034 24.3428 425.379 23.6276 424.211 22.1973C423.035 20.7669 422.675 18.9854 423.132 16.8525C423.58 14.7367 424.706 12.9635 426.509 11.5332C428.286 10.1198 430.233 9.41309 432.349 9.41309C434.828 9.41309 436.47 10.3652 437.274 12.2695H437.325L437.858 9.78125H439.687L436.665 24H434.837ZM436.462 16.9033C436.8 15.3037 436.547 13.9326 435.7 12.79C434.837 11.6305 433.605 11.0508 432.006 11.0508C430.322 11.0508 428.811 11.6094 427.474 12.7266C426.136 13.8438 425.286 15.2445 424.922 16.9287C424.575 18.5876 424.837 19.9671 425.709 21.0674C426.589 22.1592 427.863 22.7051 429.53 22.7051C431.13 22.7051 432.603 22.1338 433.948 20.9912C435.285 19.8656 436.123 18.5029 436.462 16.9033ZM438.1 5.07129C437.549 6.01074 436.796 6.70898 435.84 7.16602C435.01 7.55534 434.054 7.75 432.971 7.75C431.896 7.75 431.028 7.55534 430.368 7.16602C429.606 6.71745 429.158 6.01921 429.022 5.07129H430.711C431.126 5.86686 431.985 6.26465 433.288 6.26465C433.864 6.26465 434.41 6.17578 434.926 5.99805C435.518 5.79492 436.013 5.486 436.411 5.07129H438.1ZM450.643 24L452.306 16.1797C452.466 15.418 452.513 14.7155 452.445 14.0723C452.378 13.319 452.153 12.7181 451.772 12.2695C451.087 11.457 450.147 11.0508 448.954 11.0508C447.752 11.0508 446.631 11.457 445.59 12.2695C445.031 12.7096 444.562 13.2936 444.181 14.0215C443.851 14.6478 443.609 15.3206 443.457 16.04L441.769 24H439.953L442.975 9.78125H444.79L444.409 11.5967H444.46C445.704 10.141 447.316 9.41309 449.297 9.41309C451.286 9.41309 452.703 10.0479 453.55 11.3174C454.362 12.5361 454.553 14.1569 454.121 16.1797L452.458 24H450.643ZM470.358 21.7656C470.24 22.3073 470.126 22.7686 470.016 23.1494C469.88 23.6403 469.732 24.0846 469.571 24.4824C469.174 25.4303 468.636 26.2555 467.959 26.958C466.258 28.71 464.188 29.5859 461.751 29.5859C460.007 29.5859 458.586 29.1374 457.485 28.2402C456.343 27.3177 455.708 26.027 455.581 24.3682H457.511C457.951 26.7549 459.47 27.9482 462.068 27.9482C463.66 27.9482 465.026 27.4616 466.169 26.4883C467.286 25.5319 468.014 24.2539 468.353 22.6543L468.619 21.3975H468.568C467.866 22.3454 466.935 23.0817 465.775 23.6064C464.701 24.0973 463.592 24.3428 462.449 24.3428C460.384 24.3428 458.785 23.6276 457.65 22.1973C456.499 20.7585 456.144 19.0107 456.584 16.9541C457.024 14.8805 458.12 13.1074 459.872 11.6348C461.632 10.1536 463.549 9.41309 465.623 9.41309C468.027 9.41309 469.652 10.3822 470.498 12.3203H470.549L471.082 9.78125H472.897L470.358 21.7656ZM469.673 16.9033C470.011 15.3206 469.762 13.9538 468.924 12.8027C468.069 11.6348 466.854 11.0508 465.28 11.0508C463.698 11.0508 462.238 11.6348 460.9 12.8027C459.58 13.9368 458.751 15.3037 458.412 16.9033C458.074 18.486 458.323 19.8402 459.161 20.9658C460.007 22.1253 461.222 22.7051 462.805 22.7051C464.362 22.7051 465.818 22.1253 467.172 20.9658C468.501 19.8317 469.334 18.4775 469.673 16.9033ZM486.685 11.4189L484.006 24H482.19L484.869 11.4189H481.873L482.216 9.78125H485.212L486.291 4.75391H488.106L487.027 9.78125H490.43L490.087 11.4189H486.685ZM501.97 24L502.503 21.499H502.452C500.793 23.3949 498.745 24.3428 496.308 24.3428C494.166 24.3428 492.512 23.6276 491.344 22.1973C490.167 20.7669 489.808 18.9854 490.265 16.8525C490.713 14.7367 491.839 12.9635 493.642 11.5332C495.419 10.1198 497.366 9.41309 499.481 9.41309C501.961 9.41309 503.603 10.3652 504.407 12.2695H504.458L504.991 9.78125H506.819L503.798 24H501.97ZM503.595 16.9033C503.933 15.3037 503.679 13.9326 502.833 12.79C501.97 11.6305 500.738 11.0508 499.139 11.0508C497.454 11.0508 495.944 11.6094 494.606 12.7266C493.269 13.8438 492.419 15.2445 492.055 16.9287C491.708 18.5876 491.97 19.9671 492.842 21.0674C493.722 22.1592 494.996 22.7051 496.663 22.7051C498.263 22.7051 499.735 22.1338 501.081 20.9912C502.418 19.8656 503.256 18.5029 503.595 16.9033ZM494.264 28.8877L494.962 25.5996H496.892L496.193 28.8877H494.264ZM526.243 24L527.995 15.7607C528.291 14.3812 528.232 13.2809 527.817 12.46C527.343 11.5205 526.446 11.0508 525.126 11.0508C523.806 11.0508 522.71 11.5205 521.838 12.46C521.076 13.2809 520.547 14.3812 520.251 15.7607L518.499 24H516.684L518.436 15.7607C518.732 14.3812 518.668 13.2809 518.245 12.46C517.78 11.5205 516.887 11.0508 515.566 11.0508C514.238 11.0508 513.137 11.5205 512.266 12.46C511.504 13.2809 510.975 14.3812 510.679 15.7607L508.927 24H507.111L510.133 9.78125H511.948L511.605 11.4189C512.731 10.0817 514.166 9.41309 515.909 9.41309C518.076 9.41309 519.477 10.3229 520.111 12.1426C521.635 10.3229 523.421 9.41309 525.469 9.41309C527.246 9.41309 528.528 10.0013 529.315 11.1777C530.069 12.2949 530.255 13.7507 529.874 15.5449L528.071 24H526.243ZM551.329 24L551.862 21.499H551.812C550.153 23.3949 548.104 24.3428 545.667 24.3428C543.526 24.3428 541.871 23.6276 540.703 22.1973C539.527 20.7669 539.167 18.9854 539.624 16.8525C540.073 14.7367 541.198 12.9635 543.001 11.5332C544.778 10.1198 546.725 9.41309 548.841 9.41309C551.321 9.41309 552.963 10.3652 553.767 12.2695H553.817L554.351 9.78125H556.179L553.157 24H551.329ZM552.954 16.9033C553.293 15.3037 553.039 13.9326 552.192 12.79C551.329 11.6305 550.098 11.0508 548.498 11.0508C546.814 11.0508 545.303 11.6094 543.966 12.7266C542.629 13.8438 541.778 15.2445 541.414 16.9287C541.067 18.5876 541.329 19.9671 542.201 21.0674C543.081 22.1592 544.355 22.7051 546.022 22.7051C547.622 22.7051 549.095 22.1338 550.44 20.9912C551.778 19.8656 552.616 18.5029 552.954 16.9033ZM554.592 5.07129C554.042 6.01074 553.288 6.70898 552.332 7.16602C551.503 7.55534 550.546 7.75 549.463 7.75C548.388 7.75 547.521 7.55534 546.86 7.16602C546.099 6.71745 545.65 6.01921 545.515 5.07129H547.203C547.618 5.86686 548.477 6.26465 549.78 6.26465C550.356 6.26465 550.902 6.17578 551.418 5.99805C552.01 5.79492 552.506 5.486 552.903 5.07129H554.592ZM567.135 24L568.798 16.1797C568.959 15.418 569.005 14.7155 568.938 14.0723C568.87 13.319 568.646 12.7181 568.265 12.2695C567.579 11.457 566.64 11.0508 565.446 11.0508C564.244 11.0508 563.123 11.457 562.082 12.2695C561.523 12.7096 561.054 13.2936 560.673 14.0215C560.343 14.6478 560.102 15.3206 559.949 16.04L558.261 24H556.445L559.467 9.78125H561.282L560.901 11.5967H560.952C562.196 10.141 563.809 9.41309 565.789 9.41309C567.778 9.41309 569.196 10.0479 570.042 11.3174C570.854 12.5361 571.045 14.1569 570.613 16.1797L568.95 24H567.135ZM590.215 24L591.878 16.1797C592.039 15.418 592.085 14.7155 592.018 14.0723C591.95 13.319 591.726 12.7181 591.345 12.2695C590.659 11.457 589.72 11.0508 588.526 11.0508C587.325 11.0508 586.203 11.457 585.162 12.2695C584.604 12.7096 584.134 13.2936 583.753 14.0215C583.423 14.6478 583.182 15.3206 583.029 16.04L581.341 24H579.525L582.547 9.78125H584.362L583.981 11.5967H584.032C585.276 10.141 586.889 9.41309 588.869 9.41309C590.858 9.41309 592.276 10.0479 593.122 11.3174C593.935 12.5361 594.125 14.1569 593.693 16.1797L592.03 24H590.215ZM605.995 24L607.658 16.1797C607.819 15.418 607.866 14.7155 607.798 14.0723C607.73 13.319 607.506 12.7181 607.125 12.2695C606.439 11.457 605.5 11.0508 604.307 11.0508C603.105 11.0508 601.983 11.457 600.942 12.2695C600.384 12.7096 599.914 13.2936 599.533 14.0215C599.203 14.6478 598.962 15.3206 598.81 16.04L597.121 24H595.306L599.394 4.75391H601.209L599.762 11.5967H599.812C601.057 10.141 602.669 9.41309 604.649 9.41309C606.638 9.41309 608.056 10.0479 608.902 11.3174C609.715 12.5361 609.905 14.1569 609.474 16.1797L607.811 24H605.995ZM623.896 24L624.429 21.499H624.378C622.719 23.3949 620.671 24.3428 618.233 24.3428C616.092 24.3428 614.438 23.6276 613.27 22.1973C612.093 20.7669 611.733 18.9854 612.19 16.8525C612.639 14.7367 613.765 12.9635 615.567 11.5332C617.345 10.1198 619.291 9.41309 621.407 9.41309C623.887 9.41309 625.529 10.3652 626.333 12.2695H626.384L626.917 9.78125H628.745L625.724 24H623.896ZM625.521 16.9033C625.859 15.3037 625.605 13.9326 624.759 12.79C623.896 11.6305 622.664 11.0508 621.064 11.0508C619.38 11.0508 617.869 11.6094 616.532 12.7266C615.195 13.8438 614.344 15.2445 613.98 16.9287C613.633 18.5876 613.896 19.9671 614.768 21.0674C615.648 22.1592 616.922 22.7051 618.589 22.7051C620.188 22.7051 621.661 22.1338 623.007 20.9912C624.344 19.8656 625.182 18.5029 625.521 16.9033ZM632.401 8.04199L633.1 4.75391H634.915L634.217 8.04199H632.401ZM629.012 24L632.033 9.78125H633.849L630.827 24H629.012ZM653.971 24L654.504 21.499H654.453C652.777 23.3949 650.729 24.3428 648.309 24.3428C646.167 24.3428 644.513 23.6276 643.345 22.1973C642.168 20.7669 641.809 18.9854 642.266 16.8525C642.714 14.7367 643.84 12.9635 645.643 11.5332C647.42 10.1198 649.367 9.41309 651.482 9.41309C653.895 9.41309 655.541 10.3483 656.421 12.2188H656.472L658.059 4.75391H659.887L655.799 24H653.971ZM655.596 16.9033C655.934 15.3037 655.68 13.9326 654.834 12.79C653.971 11.6305 652.739 11.0508 651.14 11.0508C649.455 11.0508 647.945 11.6094 646.607 12.7266C645.27 13.8438 644.42 15.2445 644.056 16.9287C643.709 18.5876 643.971 19.9671 644.843 21.0674C645.723 22.1592 646.997 22.7051 648.664 22.7051C650.264 22.7051 651.736 22.1338 653.082 20.9912C654.419 19.8656 655.257 18.5029 655.596 16.9033ZM661.093 6.70898L660.725 8.48633H652.803L653.171 6.70898H661.093ZM674.169 11.8887L671.592 24H669.878L670.348 21.791H670.297C669.721 22.6289 668.955 23.2721 667.999 23.7207C667.127 24.1354 666.196 24.3428 665.206 24.3428C663.073 24.3428 661.592 23.6318 660.763 22.21C660.424 21.6175 660.246 20.8939 660.229 20.0391C660.213 19.3451 660.301 18.541 660.496 17.627L662.159 9.78125H663.975L662.312 17.6016C661.973 19.1927 662.028 20.4115 662.477 21.2578C662.993 22.2227 664.017 22.7051 665.549 22.7051C666.751 22.7051 667.838 22.32 668.812 21.5498C669.506 20.9997 670.047 20.348 670.437 19.5947C670.75 18.9938 671.004 18.2279 671.198 17.2969L672.798 9.78125H674.613L674.524 10.2002C674.55 10.1833 674.575 10.1663 674.601 10.1494C674.956 9.90397 675.193 9.60352 675.312 9.24805H674.537L675.032 6.96289H677.267L676.759 9.32422C676.615 9.73893 676.441 10.0859 676.238 10.3652C676.044 10.6361 675.824 10.8646 675.578 11.0508C675.341 11.237 675.134 11.3851 674.956 11.4951C674.778 11.5967 674.52 11.7321 674.182 11.9014L674.169 11.8887ZM689.022 16.8018C689.353 15.2445 689.094 13.8988 688.248 12.7646C687.385 11.6221 686.179 11.0508 684.63 11.0508C683.039 11.0508 681.575 11.6432 680.237 12.8281C678.925 13.9792 678.1 15.3545 677.762 16.9541C677.423 18.5114 677.681 19.8571 678.536 20.9912C679.391 22.1338 680.597 22.7051 682.154 22.7051C683.762 22.7051 685.235 22.1211 686.572 20.9531C687.859 19.8105 688.675 18.4268 689.022 16.8018ZM679.882 28.8877L680.58 25.5996H682.51L681.812 28.8877H679.882ZM689.848 11.7871C690.914 13.2259 691.24 14.9229 690.825 16.8779C690.394 18.9176 689.289 20.6696 687.512 22.1338C685.734 23.6064 683.826 24.3428 681.786 24.3428C679.78 24.3428 678.198 23.6149 677.038 22.1592C675.879 20.7035 675.51 18.9769 675.934 16.9795C676.374 14.9144 677.47 13.1413 679.222 11.6602C680.991 10.1621 682.903 9.41309 684.96 9.41309C686.551 9.41309 687.871 9.86589 688.921 10.7715C689.056 10.7122 689.162 10.6657 689.238 10.6318C689.416 10.5557 689.683 10.3949 690.038 10.1494C690.402 9.90397 690.643 9.60352 690.762 9.24805H689.987L690.47 6.96289H692.704L692.196 9.32422C692.052 9.73893 691.879 10.0859 691.676 10.3652C691.481 10.6361 691.265 10.8646 691.028 11.0508C690.791 11.237 690.584 11.3809 690.406 11.4824C690.262 11.5671 690.076 11.6686 689.848 11.7871ZM707.05 19.8105C704.875 22.832 702.196 24.3428 699.014 24.3428C696.898 24.3428 695.252 23.6318 694.075 22.21C692.882 20.7712 692.509 19.0023 692.958 16.9033C693.398 14.8213 694.528 13.0482 696.348 11.584C698.15 10.1367 700.097 9.41309 702.188 9.41309C703.753 9.41309 705.086 9.82357 706.187 10.6445C707.304 11.4909 707.998 12.6335 708.269 14.0723H706.263C705.636 12.0579 704.181 11.0508 701.896 11.0508C700.262 11.0508 698.76 11.6094 697.389 12.7266C696.001 13.8438 695.133 15.2191 694.786 16.8525C694.431 18.5029 694.701 19.891 695.599 21.0166C696.496 22.1423 697.77 22.7051 699.42 22.7051C701.764 22.7051 703.639 21.7402 705.044 19.8105H707.05ZM236.193 50.4189L233.515 63H231.699L234.378 50.4189H231.382L231.725 48.7812H234.721L235.8 43.7539H237.615L236.536 48.7812H239.938L239.596 50.4189H236.193ZM247.416 50.3428C244.657 50.5628 242.994 52.0101 242.427 54.6846L240.662 63H238.847L241.868 48.7812H243.684L243.252 50.8379H243.303C243.853 49.9831 244.521 49.3652 245.309 48.9844C245.943 48.6797 246.781 48.4893 247.822 48.4131L247.416 50.3428ZM262.447 55.8779C262.016 57.9176 260.911 59.6696 259.134 61.1338C257.356 62.6064 255.448 63.3428 253.408 63.3428C251.402 63.3428 249.82 62.6149 248.66 61.1592C247.501 59.7035 247.132 57.9769 247.556 55.9795C247.996 53.9144 249.092 52.1413 250.844 50.6602C252.613 49.1621 254.525 48.4131 256.582 48.4131C258.605 48.4131 260.196 49.1494 261.355 50.6221C262.515 52.0947 262.879 53.8467 262.447 55.8779ZM260.645 55.8018C260.975 54.2445 260.716 52.8988 259.87 51.7646C259.007 50.6221 257.801 50.0508 256.252 50.0508C254.661 50.0508 253.197 50.6432 251.859 51.8281C250.548 52.9792 249.722 54.3545 249.384 55.9541C249.045 57.5114 249.303 58.8571 250.158 59.9912C251.013 61.1338 252.219 61.7051 253.776 61.7051C255.384 61.7051 256.857 61.1211 258.194 59.9531C259.481 58.8105 260.298 57.4268 260.645 55.8018ZM274.394 63L276.057 55.1797C276.217 54.418 276.264 53.7155 276.196 53.0723C276.129 52.319 275.904 51.7181 275.523 51.2695C274.838 50.457 273.898 50.0508 272.705 50.0508C271.503 50.0508 270.382 50.457 269.341 51.2695C268.782 51.7096 268.312 52.2936 267.932 53.0215C267.602 53.6478 267.36 54.3206 267.208 55.04L265.52 63H263.704L266.726 48.7812H268.541L268.16 50.5967H268.211C269.455 49.141 271.067 48.4131 273.048 48.4131C275.037 48.4131 276.454 49.0479 277.301 50.3174C278.113 51.5361 278.304 53.1569 277.872 55.1797L276.209 63H274.394ZM294.109 60.7656C293.991 61.3073 293.877 61.7686 293.767 62.1494C293.631 62.6403 293.483 63.0846 293.322 63.4824C292.924 64.4303 292.387 65.2555 291.71 65.958C290.009 67.71 287.939 68.5859 285.502 68.5859C283.758 68.5859 282.337 68.1374 281.236 67.2402C280.094 66.3177 279.459 65.027 279.332 63.3682H281.262C281.702 65.7549 283.221 66.9482 285.819 66.9482C287.41 66.9482 288.777 66.4616 289.92 65.4883C291.037 64.5319 291.765 63.2539 292.104 61.6543L292.37 60.3975H292.319C291.617 61.3454 290.686 62.0817 289.526 62.6064C288.451 63.0973 287.343 63.3428 286.2 63.3428C284.135 63.3428 282.535 62.6276 281.401 61.1973C280.25 59.7585 279.895 58.0107 280.335 55.9541C280.775 53.8805 281.871 52.1074 283.623 50.6348C285.383 49.1536 287.3 48.4131 289.374 48.4131C291.778 48.4131 293.403 49.3822 294.249 51.3203H294.3L294.833 48.7812H296.648L294.109 60.7656ZM293.424 55.9033C293.762 54.3206 293.513 52.9538 292.675 51.8027C291.82 50.6348 290.605 50.0508 289.031 50.0508C287.449 50.0508 285.989 50.6348 284.651 51.8027C283.331 52.9368 282.502 54.3037 282.163 55.9033C281.825 57.486 282.074 58.8402 282.912 59.9658C283.758 61.1253 284.973 61.7051 286.556 61.7051C288.113 61.7051 289.569 61.1253 290.923 59.9658C292.252 58.8317 293.085 57.4775 293.424 55.9033ZM310.778 63H308.772L305.789 48.7812H307.744L310.22 60.7402L317.85 48.7812H319.805L310.778 63ZM334.455 55.8779C334.023 57.9176 332.919 59.6696 331.142 61.1338C329.364 62.6064 327.456 63.3428 325.416 63.3428C323.41 63.3428 321.827 62.6149 320.668 61.1592C319.508 59.7035 319.14 57.9769 319.563 55.9795C320.004 53.9144 321.1 52.1413 322.852 50.6602C324.62 49.1621 326.533 48.4131 328.59 48.4131C330.613 48.4131 332.204 49.1494 333.363 50.6221C334.523 52.0947 334.887 53.8467 334.455 55.8779ZM332.652 55.8018C332.982 54.2445 332.724 52.8988 331.878 51.7646C331.015 50.6221 329.809 50.0508 328.26 50.0508C326.669 50.0508 325.204 50.6432 323.867 51.8281C322.555 52.9792 321.73 54.3545 321.392 55.9541C321.053 57.5114 321.311 58.8571 322.166 59.9912C323.021 61.1338 324.227 61.7051 325.784 61.7051C327.392 61.7051 328.865 61.1211 330.202 59.9531C331.489 58.8105 332.305 57.4268 332.652 55.8018ZM330.951 46.9023L326.406 44.1221L327.574 42.5605L332.132 45.4043L330.951 46.9023ZM346.401 63L348.064 55.1797C348.225 54.418 348.272 53.7155 348.204 53.0723C348.136 52.319 347.912 51.7181 347.531 51.2695C346.846 50.457 345.906 50.0508 344.713 50.0508C343.511 50.0508 342.39 50.457 341.349 51.2695C340.79 51.7096 340.32 52.2936 339.939 53.0215C339.609 53.6478 339.368 54.3206 339.216 55.04L337.527 63H335.712L338.733 48.7812H340.549L340.168 50.5967H340.219C341.463 49.141 343.075 48.4131 345.056 48.4131C347.045 48.4131 348.462 49.0479 349.309 50.3174C350.121 51.5361 350.312 53.1569 349.88 55.1797L348.217 63H346.401ZM366.117 60.7656C365.999 61.3073 365.884 61.7686 365.774 62.1494C365.639 62.6403 365.491 63.0846 365.33 63.4824C364.932 64.4303 364.395 65.2555 363.718 65.958C362.017 67.71 359.947 68.5859 357.51 68.5859C355.766 68.5859 354.344 68.1374 353.244 67.2402C352.102 66.3177 351.467 65.027 351.34 63.3682H353.27C353.71 65.7549 355.229 66.9482 357.827 66.9482C359.418 66.9482 360.785 66.4616 361.928 65.4883C363.045 64.5319 363.773 63.2539 364.111 61.6543L364.378 60.3975H364.327C363.625 61.3454 362.694 62.0817 361.534 62.6064C360.459 63.0973 359.351 63.3428 358.208 63.3428C356.143 63.3428 354.543 62.6276 353.409 61.1973C352.258 59.7585 351.903 58.0107 352.343 55.9541C352.783 53.8805 353.879 52.1074 355.631 50.6348C357.391 49.1536 359.308 48.4131 361.382 48.4131C363.785 48.4131 365.41 49.3822 366.257 51.3203H366.308L366.841 48.7812H368.656L366.117 60.7656ZM365.432 55.9033C365.77 54.3206 365.521 52.9538 364.683 51.8027C363.828 50.6348 362.613 50.0508 361.039 50.0508C359.456 50.0508 357.996 50.6348 356.659 51.8027C355.339 52.9368 354.509 54.3037 354.171 55.9033C353.832 57.486 354.082 58.8402 354.92 59.9658C355.766 61.1253 356.981 61.7051 358.563 61.7051C360.121 61.7051 361.576 61.1253 362.931 59.9658C364.259 58.8317 365.093 57.4775 365.432 55.9033ZM381.402 63L385.122 45.5059H381.821L382.189 43.7539H387.42L383.332 63H381.402ZM404.127 55.9795C403.958 56.7751 403.729 57.5241 403.441 58.2266C403.103 59.0475 402.701 59.7542 402.235 60.3467C400.636 62.3441 398.596 63.3428 396.116 63.3428C393.636 63.3428 392.02 62.3441 391.267 60.3467C391.055 59.7542 390.953 59.0475 390.962 58.2266C390.97 57.5241 391.059 56.7751 391.229 55.9795L392.422 50.3682C392.727 48.9548 393.217 47.7741 393.895 46.8262C395.528 44.5579 397.678 43.4238 400.344 43.4238C403.01 43.4238 404.673 44.5579 405.333 46.8262C405.629 47.7741 405.625 48.9548 405.32 50.3682L404.127 55.9795ZM403.302 50.7998C403.437 50.1735 403.509 49.543 403.518 48.9082C403.518 48.1719 403.429 47.5837 403.251 47.1436C402.701 45.8232 401.609 45.1631 399.976 45.1631C398.342 45.1631 396.971 45.8232 395.862 47.1436C395.49 47.5837 395.156 48.1719 394.859 48.9082C394.597 49.543 394.398 50.1735 394.263 50.7998L393.222 55.7002C393.069 56.4196 392.976 57.0798 392.942 57.6807C392.892 58.4762 392.955 59.0983 393.133 59.5469C393.666 60.9095 394.783 61.5908 396.484 61.5908C398.186 61.5908 399.599 60.9095 400.725 59.5469C401.089 59.0983 401.414 58.4762 401.702 57.6807C401.922 57.0798 402.108 56.4196 402.261 55.7002L403.302 50.7998ZM422.979 63L424.643 55.1797C424.803 54.418 424.85 53.7155 424.782 53.0723C424.715 52.319 424.49 51.7181 424.109 51.2695C423.424 50.457 422.484 50.0508 421.291 50.0508C420.089 50.0508 418.968 50.457 417.927 51.2695C417.368 51.7096 416.898 52.2936 416.518 53.0215C416.188 53.6478 415.946 54.3206 415.794 55.04L414.105 63H412.29L415.312 48.7812H417.127L416.746 50.5967H416.797C418.041 49.141 419.653 48.4131 421.634 48.4131C423.623 48.4131 425.04 49.0479 425.887 50.3174C426.699 51.5361 426.89 53.1569 426.458 55.1797L424.795 63H422.979ZM442.695 60.7656C442.577 61.3073 442.463 61.7686 442.353 62.1494C442.217 62.6403 442.069 63.0846 441.908 63.4824C441.51 64.4303 440.973 65.2555 440.296 65.958C438.595 67.71 436.525 68.5859 434.088 68.5859C432.344 68.5859 430.923 68.1374 429.822 67.2402C428.68 66.3177 428.045 65.027 427.918 63.3682H429.848C430.288 65.7549 431.807 66.9482 434.405 66.9482C435.996 66.9482 437.363 66.4616 438.506 65.4883C439.623 64.5319 440.351 63.2539 440.689 61.6543L440.956 60.3975H440.905C440.203 61.3454 439.272 62.0817 438.112 62.6064C437.037 63.0973 435.929 63.3428 434.786 63.3428C432.721 63.3428 431.121 62.6276 429.987 61.1973C428.836 59.7585 428.481 58.0107 428.921 55.9541C429.361 53.8805 430.457 52.1074 432.209 50.6348C433.969 49.1536 435.886 48.4131 437.96 48.4131C440.364 48.4131 441.989 49.3822 442.835 51.3203H442.886L443.419 48.7812H445.234L442.695 60.7656ZM442.01 55.9033C442.348 54.3206 442.099 52.9538 441.261 51.8027C440.406 50.6348 439.191 50.0508 437.617 50.0508C436.035 50.0508 434.575 50.6348 433.237 51.8027C431.917 52.9368 431.088 54.3037 430.749 55.9033C430.41 57.486 430.66 58.8402 431.498 59.9658C432.344 61.1253 433.559 61.7051 435.142 61.7051C436.699 61.7051 438.155 61.1253 439.509 59.9658C440.838 58.8317 441.671 57.4775 442.01 55.9033ZM458.285 63L458.818 60.499H458.768C457.109 62.3949 455.061 63.3428 452.623 63.3428C450.482 63.3428 448.827 62.6276 447.659 61.1973C446.483 59.7669 446.123 57.9854 446.58 55.8525C447.029 53.7367 448.154 51.9635 449.957 50.5332C451.734 49.1198 453.681 48.4131 455.797 48.4131C458.277 48.4131 459.919 49.3652 460.723 51.2695H460.773L461.307 48.7812H463.135L460.113 63H458.285ZM459.91 55.9033C460.249 54.3037 459.995 52.9326 459.148 51.79C458.285 50.6305 457.054 50.0508 455.454 50.0508C453.77 50.0508 452.259 50.6094 450.922 51.7266C449.585 52.8438 448.734 54.2445 448.37 55.9287C448.023 57.5876 448.285 58.9671 449.157 60.0674C450.037 61.1592 451.311 61.7051 452.979 61.7051C454.578 61.7051 456.051 61.1338 457.396 59.9912C458.734 58.8656 459.572 57.5029 459.91 55.9033ZM458.298 46.9023L453.753 44.1221L454.908 42.5605L459.479 45.4043L458.298 46.9023ZM465.991 67.9893H464.1L467.718 62.5303L465.115 48.7812H467.045L469.152 60.1182L476.401 48.7812H478.318L465.991 67.9893Z" fill="#2B2B2B"/>
</svg>
