<svg width="60" height="70" viewBox="0 0 60 70" fill="none" xmlns="http://www.w3.org/2000/svg">
<path d="M14.211 18.8352C14.7508 18.6748 15.0582 18.1074 14.898 17.5677C14.7377 17.0279 14.1704 16.7204 13.6305 16.8807C11.786 17.4286 10.1454 18.4258 8.88606 19.7641C5.38004 23.49 6.00407 28.5041 6.16486 29.4713C6.24778 29.9702 6.67974 30.3237 7.1692 30.3237C7.7901 30.3237 8.27848 29.7535 8.17613 29.1371C8.04306 28.3361 7.52342 24.1873 10.3709 21.1612C11.6503 19.8016 13.1653 19.1457 14.211 18.8352ZM36.8558 13.6401C35.5456 14.9502 35.53 17.1464 36.8556 18.4593L39.5015 21.1055C40.2945 21.8981 41.3501 22.3346 42.4738 22.3346C43.5976 22.3346 44.6533 21.8979 45.4464 21.1051L52.9043 13.6471C54.2671 12.2956 54.194 9.99535 52.7859 8.71467C51.4389 7.48932 49.3532 7.55973 48.0373 8.87547L42.4738 14.439L41.6752 13.6406C40.3679 12.3198 38.167 12.329 36.8558 13.6401ZM42.4738 16.7022C42.8738 16.7022 43.2498 16.5465 43.5324 16.2637L49.4789 10.3172C50.0143 9.78167 50.8823 9.7394 51.4136 10.2227C51.9826 10.7402 52.0113 11.6629 51.4626 12.2053L44.0047 19.6633C43.5968 20.0712 43.0531 20.2958 42.4737 20.2958C41.8945 20.2958 41.3508 20.0712 40.943 19.6637L38.2974 17.0179C37.7682 16.4939 37.7707 15.6085 38.2974 15.082C38.8245 14.5552 39.7088 14.5523 40.2334 15.082L41.4152 16.2639C41.6979 16.5465 42.0738 16.7022 42.4735 16.7022H42.4738ZM45.8431 0.00168201C45.2801 -0.0301242 44.7969 0.392871 44.7614 0.95478C44.7259 1.51669 45.1524 2.00099 45.7143 2.0366C52.5765 2.4706 57.9518 8.20102 57.9518 15.0822C57.9518 22.4275 51.944 28.1541 44.88 28.1541C37.6723 28.1541 31.8083 22.2901 31.8083 15.0822C31.8083 9.2793 35.7059 4.11025 41.2866 2.51233C41.8279 2.35738 42.141 1.79302 41.9861 1.25177C41.8311 0.710661 41.2666 0.396813 40.7254 0.55231C34.9716 2.19971 30.7686 7.13225 29.9269 12.9388C29.0614 13.5348 28.1459 14.2074 27.2835 14.6395C25.8752 15.345 24.681 15.4088 23.291 14.8533C22.2553 14.4386 21.3981 13.8245 20.4906 13.1742C18.9992 12.1058 17.4571 11.001 15.127 10.8302C12.3381 10.6273 9.19392 11.5505 6.50087 13.3637C2.90188 15.7867 0.565889 20.1998 0.0919222 25.4715C-0.125012 27.8767 0.0424463 30.1599 0.589812 32.2575C0.97801 33.7474 1.65246 35.1279 2.30463 36.463C2.90147 37.6845 3.46501 38.8385 3.8233 40.0617C4.53582 42.4949 4.44556 44.9116 4.34987 47.47C4.31467 48.413 4.27824 49.3882 4.28381 50.3721C4.3144 55.9918 4.35245 62.9857 8.834 67.0264C10.6211 68.6378 13.4687 70.3249 15.7953 69.2309C17.5133 68.4233 17.7819 66.6192 18.1538 64.1224C18.3465 62.8281 18.5864 61.217 19.0684 59.3161C19.1792 58.879 19.2905 58.4018 19.4083 57.8967C19.5702 57.2029 19.8153 56.2137 18.8134 55.9777C17.8319 55.7465 17.5918 56.7088 17.4228 57.4334C17.3071 57.929 17.1979 58.397 17.0919 58.8152C16.5848 60.8155 16.3365 62.4826 16.1371 63.8223C15.8044 66.0556 15.6279 67.0568 14.9281 67.3859C13.7952 67.9178 11.6463 66.8182 10.1995 65.5126C6.38628 62.0746 6.35108 55.5797 6.32267 50.3608C6.31723 49.4209 6.35298 48.4679 6.38737 47.5463C6.48483 44.9377 6.58568 42.2403 5.78006 39.4889C5.37297 38.0994 4.74446 36.8127 4.13661 35.5683C3.50048 34.266 2.89957 33.0361 2.56261 31.7432C2.07492 29.8737 1.92676 27.8253 2.12262 25.6546C2.54141 20.9969 4.55226 17.1337 7.63964 15.0552C9.96149 13.4921 12.6361 12.6934 14.9786 12.8639C16.7362 12.9927 17.9258 13.8451 19.3034 14.8319C20.2695 15.524 21.2686 16.2397 22.5339 16.7464C24.4678 17.5195 26.2673 17.4292 28.1972 16.4625C28.7449 16.1878 29.2685 15.8617 29.7765 15.5209C30.0096 23.6508 36.6951 30.1928 44.8803 30.1928C45.9995 30.1928 47.0902 30.0694 48.1407 29.8375C47.842 31.827 47.2277 33.6972 46.3354 35.3122C43.9405 39.6493 43.9903 43.6876 44.0429 47.9631C44.0524 48.7408 44.0625 49.5451 44.058 50.3659C44.0282 55.583 43.9912 62.0756 40.1795 65.5128C38.733 66.8182 36.5839 67.9179 35.4516 67.3859C34.7514 67.0567 34.5748 66.0555 34.2422 63.822C34.0428 62.4825 33.7945 60.8154 33.2875 58.8154C32.4306 55.4352 31.0357 48.908 27.3845 46.9908C26.1652 46.3506 24.8397 46.2953 23.4447 46.8255C21.5437 47.5477 20.0801 49.2595 18.9702 52.0585C18.7628 52.5819 19.0188 53.1744 19.5422 53.3818C20.0657 53.5898 20.6581 53.3334 20.8657 52.81C21.7526 50.5731 22.8332 49.239 24.1692 48.7313C25.0062 48.4131 25.748 48.4341 26.437 48.796C29.1977 50.2459 30.5798 56.4303 31.3113 59.316C31.7932 61.2169 32.0331 62.8279 32.2258 64.1221C32.5977 66.619 32.8663 68.4232 34.5845 69.2309C36.9411 70.339 39.7728 68.6249 41.5453 67.0265C46.0251 62.9872 46.0649 55.9954 46.097 50.3719C46.1015 49.5379 46.0914 48.7245 46.0817 47.9379C46.0304 43.766 45.9859 40.163 48.1202 36.2978C49.2702 34.2166 50.0094 31.7736 50.2758 29.1961C55.9512 27.0193 59.9912 21.5139 59.9912 15.0819C59.9907 7.12762 53.7763 0.503649 45.8431 0.00168201ZM7.76564 32.1554C7.20441 32.199 6.78468 32.6896 6.82831 33.2508C6.87411 33.8402 6.96817 34.4297 7.10763 35.0029C7.22099 35.4691 7.63801 35.7816 8.09729 35.7816C8.74388 35.7816 9.24286 35.1546 9.08858 34.5209C8.97495 34.0537 8.89843 33.5734 8.86105 33.093C8.81728 32.5314 8.32578 32.1104 7.76564 32.1554Z" fill="white"/>
</svg>
