<svg width="134" height="134" viewBox="0 0 134 134" fill="none" xmlns="http://www.w3.org/2000/svg">
<circle cx="67" cy="67" r="66.5" fill="white" stroke="#025899"/>
<path d="M96.1113 55.3237C95.3061 55.2821 94.6573 55.856 94.6022 56.6342C93.0527 78.6194 86.4962 105.172 80.7237 105.18C79.3517 104.605 78.0149 97.017 77.1312 91.9959C75.2607 81.3769 73.326 70.3968 67.2416 70.3754C62.1455 70.3965 60.1607 80.3242 58.0576 90.8351C57.0248 95.9962 55.2966 104.634 53.8162 105.172C49.4009 105.172 41.5806 84.3579 39.8246 55.6041C39.7781 54.825 39.1135 54.2292 38.3282 54.2793C37.5478 54.3267 36.9547 54.9969 37.0027 55.7764C37.4869 63.7199 39.1963 76.6321 41.9192 87.5727C45.3393 101.318 49.2315 107.999 53.8162 107.999C57.3359 107.999 58.7079 101.998 60.83 91.3899C62.1901 84.5917 64.4648 73.215 67.2416 73.2029C70.9514 73.2156 72.995 84.8123 74.3465 92.4857C75.9921 101.828 77.0788 107.999 80.6782 107.999C91.5883 107.999 96.6604 67.6405 97.4217 56.8335C97.477 56.0548 96.8902 55.379 96.1113 55.3237Z" fill="#025899"/>
<path d="M80.6788 26C78.122 26 75.7002 27.1473 73.3589 28.2563C71.2036 29.2777 69.1685 30.2414 67.2478 30.2414C65.3272 30.2414 63.2921 29.278 61.1368 28.2563C58.7953 27.1473 56.3735 26 53.8167 26C44.3152 26 37.3482 35.8641 36.8758 49.9872C36.8497 50.7675 37.4611 51.4216 38.2416 51.4476C38.2565 51.4483 38.2735 51.4483 38.2897 51.4483C39.0474 51.4483 39.676 50.846 39.7006 50.0818C40.1134 37.7663 46.0507 28.8275 53.8167 28.8275C55.7373 28.8275 57.7725 29.7909 59.9277 30.8126C62.269 31.9218 64.6908 33.0689 67.2476 33.0689C69.8045 33.0689 72.2263 31.9216 74.5675 30.8126C76.7228 29.7911 78.758 28.8275 80.6786 28.8275C88.3866 28.8275 94.1816 37.3244 94.7698 49.4902C94.8087 50.2699 95.4909 50.8502 96.2514 50.834C97.0296 50.7959 97.6319 50.1334 97.5944 49.3531C96.9288 35.6032 89.973 26 80.6788 26Z" fill="#025899"/>
<path d="M83.5014 41.5984H50.9842C50.2285 41.5984 49.6172 42.2112 49.6172 42.9654V62.7585C49.6172 63.5133 50.2294 64.1255 50.9842 64.1255H83.5014C84.2563 64.1255 84.8685 63.5127 84.8685 62.7585V42.9654C84.8685 42.2106 84.2563 41.5984 83.5014 41.5984ZM82.135 61.3914H52.3513V44.3325H82.135V61.3914Z" fill="#025899"/>
<path d="M50.9878 48.6672H28.3671C27.6114 48.6672 27 49.28 27 50.0343V55.6895C27 56.4444 27.6122 57.0566 28.3671 57.0566H50.9878C51.7427 57.0566 52.3549 56.4438 52.3549 55.6895V50.0343C52.3549 49.2794 51.7427 48.6672 50.9878 48.6672ZM49.6214 54.3225H29.7341V51.4009H49.6212V54.3225H49.6214Z" fill="#025899"/>
<path d="M106.121 48.6672H83.4999C82.7442 48.6672 82.1328 49.28 82.1328 50.0343V55.6895C82.1328 56.4444 82.745 57.0566 83.4999 57.0566H106.121C106.875 57.0566 107.488 56.4438 107.488 55.6895V50.0343C107.488 49.2794 106.875 48.6672 106.121 48.6672ZM104.754 54.3225H84.8671V51.4009H104.754V54.3225Z" fill="#025899"/>
<path d="M62.2998 45.793H58.0584C57.2772 45.793 56.6445 46.4263 56.6445 47.2068V58.5171C56.6445 59.2975 57.2772 59.931 58.0584 59.931H62.2998C63.0809 59.931 63.7136 59.2977 63.7136 58.5171V47.2068C63.7136 46.4265 63.0809 45.793 62.2998 45.793ZM60.8859 57.1034H59.472V48.6207H60.8859V57.1034Z" fill="#025899"/>
<path d="M75.0185 45.793H70.7771C69.996 45.793 69.3633 46.4263 69.3633 47.2068V58.5171C69.3633 59.2975 69.996 59.931 70.7771 59.931H75.0185C75.7997 59.931 76.4324 59.2977 76.4324 58.5171V47.2068C76.4324 46.4265 75.7997 45.793 75.0185 45.793ZM73.6047 57.1034H72.1908V48.6207H73.6047V57.1034Z" fill="#025899"/>
<path d="M83.506 51.4485H75.0232C74.2421 51.4485 73.6094 52.0818 73.6094 52.8623C73.6094 53.6429 74.2421 54.2762 75.0232 54.2762H83.506C84.2872 54.2762 84.9199 53.6429 84.9199 52.8623C84.9199 52.0818 84.2872 51.4485 83.506 51.4485Z" fill="#025899"/>
<path d="M70.7755 51.4485H62.2928C61.5116 51.4485 60.8789 52.0818 60.8789 52.8623C60.8789 53.6429 61.5116 54.2762 62.2928 54.2762H70.7755C71.5567 54.2762 72.1894 53.6429 72.1894 52.8623C72.1894 52.0818 71.5567 51.4485 70.7755 51.4485Z" fill="#025899"/>
<path d="M56.6433 51.4485H50.9881C50.2069 51.4485 49.5742 52.0818 49.5742 52.8623C49.5742 53.6429 50.2069 54.2762 50.9881 54.2762H56.6433C57.4245 54.2762 58.0572 53.6429 58.0572 52.8623C58.0572 52.0818 57.4245 51.4485 56.6433 51.4485Z" fill="#025899"/>
</svg>
