<svg width="790" height="100" viewBox="0 0 790 100" fill="none" xmlns="http://www.w3.org/2000/svg">
<path d="M352.3 38.6221C350.175 37.4283 348.545 35.7867 347.34 33.6974C346.136 31.6081 345.569 29.2204 345.569 26.6088C345.569 23.9972 346.136 21.6094 347.34 19.5202C348.545 17.4309 350.175 15.7893 352.3 14.5954C354.426 13.4016 356.764 12.8046 359.386 12.8046C361.654 12.8046 363.779 13.2523 365.622 14.0731C367.464 14.8939 369.023 16.1624 370.227 17.804L365.692 22.1318C364.063 20.0425 362.079 18.9978 359.74 18.9978C358.394 18.9978 357.19 19.2963 356.127 19.9679C355.064 20.5648 354.213 21.4602 353.647 22.6541C353.08 23.7733 352.796 25.1164 352.796 26.6088C352.796 28.1011 353.08 29.4442 353.647 30.5635C354.213 31.6827 355.064 32.5782 356.127 33.2497C357.19 33.8466 358.394 34.2197 359.74 34.2197C362.079 34.2197 364.063 33.1751 365.692 31.0858L370.227 35.4136C369.023 37.0552 367.464 38.249 365.622 39.1445C363.779 39.9652 361.724 40.413 359.386 40.413C356.764 40.3383 354.426 39.7414 352.3 38.6221Z" fill="black"/>
<path d="M375.967 37.1297C373.912 34.9658 372.85 31.9812 372.85 28.0265V13.3269H379.935V27.8026C379.935 32.0558 381.494 34.1451 384.683 34.1451C387.871 34.1451 389.43 32.0558 389.43 27.8026V13.3269H396.445V28.0265C396.445 31.9812 395.382 34.9658 393.327 37.1297C391.273 39.2936 388.367 40.3383 384.612 40.3383C380.927 40.3383 378.022 39.2936 375.967 37.1297ZM383.974 9.37218C384.612 9.07371 385.108 8.70063 385.321 8.32754C385.604 7.95446 385.746 7.58137 385.746 7.13366C385.746 6.68596 385.604 6.31288 385.321 6.01441C385.037 5.71594 384.612 5.64132 384.187 5.64132C383.478 5.64132 382.77 5.86517 382.132 6.38749L380.715 3.55204C381.282 3.10434 381.919 2.73126 382.628 2.50741C383.337 2.28356 384.116 2.13432 384.895 2.13432C386.313 2.13432 387.446 2.5074 388.297 3.32819C389.147 4.14898 389.643 5.19362 389.643 6.46212C389.643 8.70063 388.438 10.3422 386.1 11.4615L383.974 9.37218Z" fill="black"/>
<path d="M417.632 34.6674H407.003L405.019 39.816H397.792L408.916 13.3269H415.931L427.056 39.816H419.687L417.632 34.6674ZM415.577 29.1457L412.317 20.6394L409.058 29.1457H415.577Z" fill="black"/>
<path d="M463.405 13.3269V39.816H457.524L446.4 25.7133V39.816H439.456V13.3269H445.337L456.461 27.4295V13.3269H463.405Z" fill="black"/>
<path d="M492.315 13.3269V39.816H485.229V29.5188H475.522V39.816H468.436V13.3269H475.522V23.251H485.229V13.3269H492.315Z" fill="black"/>
<path d="M514.211 34.6674H503.582L501.598 39.816H494.371L505.495 13.3269H512.51L523.635 39.816H516.266L514.211 34.6674ZM512.156 29.1457L508.896 20.6394L505.637 29.1457H512.156Z" fill="black"/>
<path d="M545.742 30.1903L543.05 33.175V39.816H536.035V13.3269H543.05V24.3702L552.757 13.3269H560.622L550.348 25.0418L561.189 39.816H552.899L545.742 30.1903Z" fill="black"/>
<path d="M586.982 13.3269V39.816H579.896V29.5188H570.188V39.816H563.103V13.3269H570.188V23.251H579.896V13.3269H586.982Z" fill="black"/>
<path d="M597.539 38.5475C595.413 37.3536 593.784 35.712 592.579 33.6227C591.375 31.5334 590.737 29.1457 590.737 26.5341C590.737 23.9225 591.375 21.5347 592.579 19.4455C593.784 17.3562 595.484 15.7146 597.539 14.5207C599.665 13.3269 602.074 12.7299 604.696 12.7299C607.388 12.7299 609.727 13.3269 611.852 14.5207C613.978 15.7146 615.608 17.3562 616.812 19.4455C618.017 21.5347 618.655 23.9225 618.655 26.5341C618.655 29.1457 618.017 31.5334 616.812 33.6227C615.608 35.712 613.907 37.3536 611.852 38.5475C609.727 39.7413 607.318 40.3383 604.696 40.3383C602.074 40.3383 599.665 39.7413 597.539 38.5475ZM608.168 33.175C609.231 32.5781 610.01 31.6827 610.577 30.4888C611.144 29.3695 611.498 28.0264 611.498 26.5341C611.498 25.0417 611.215 23.6986 610.577 22.5794C610.01 21.4601 609.16 20.5647 608.168 19.8932C607.105 19.2962 605.971 18.9231 604.696 18.9231C603.42 18.9231 602.287 19.2216 601.224 19.8932C600.161 20.4901 599.381 21.3855 598.815 22.5794C598.248 23.6986 597.893 25.0417 597.893 26.5341C597.893 28.0264 598.177 29.3695 598.815 30.4888C599.381 31.6081 600.232 32.5035 601.224 33.175C602.287 33.7719 603.42 34.145 604.696 34.145C605.971 34.145 607.105 33.8466 608.168 33.175Z" fill="black"/>
<path d="M638.92 34.6674H628.292L626.308 39.816H619.08L630.205 13.3269H637.22L648.344 39.816H640.975L638.92 34.6674ZM636.795 29.1457L633.535 20.6394L630.276 29.1457H636.795Z" fill="black"/>
<path d="M660.744 13.3269H667.83V39.816H660.744V13.3269Z" fill="black"/>
<path d="M672.151 26.3102H682.638V31.8318H672.151V26.3102Z" fill="black"/>
<path d="M686.819 13.3268H698.723C701.487 13.3268 703.896 13.8491 706.022 14.9683C708.148 16.0876 709.777 17.5799 710.982 19.5946C712.186 21.6093 712.753 23.9224 712.753 26.6086C712.753 29.2948 712.186 31.608 710.982 33.6226C709.777 35.6373 708.148 37.1296 706.022 38.2489C703.896 39.3681 701.416 39.8904 698.723 39.8904H686.819V13.3268ZM698.44 33.8465C700.566 33.8465 702.337 33.1749 703.613 31.9064C704.888 30.6379 705.597 28.8471 705.597 26.6086C705.597 24.3701 704.959 22.5793 703.613 21.3108C702.337 20.0423 700.566 19.3707 698.44 19.3707H693.976V33.9211H698.44V33.8465Z" fill="black"/>
<path d="M736.703 34.0703V39.8904H716.509V13.4014H736.207V19.2215H723.524V23.6985H734.719V29.2948H723.524V34.1449H736.703V34.0703Z" fill="black"/>
<path d="M764.55 13.3268V39.8158H758.668L747.544 25.7132V39.8158H740.6V13.3268H746.481L757.605 27.4294V13.3268H764.55Z" fill="black"/>
<path d="M774.967 19.2961H767.243V13.3268H789.776V19.2961H782.123V39.8158H775.038V19.2961H774.967Z" fill="black"/>
<path d="M352.3 38.6221C350.175 37.4283 348.545 35.7867 347.34 33.6974C346.136 31.6081 345.569 29.2204 345.569 26.6088C345.569 23.9972 346.136 21.6094 347.34 19.5202C348.545 17.4309 350.175 15.7893 352.3 14.5954C354.426 13.4016 356.764 12.8046 359.386 12.8046C361.654 12.8046 363.779 13.2523 365.622 14.0731C367.464 14.8939 369.023 16.1624 370.227 17.804L365.692 22.1318C364.063 20.0425 362.079 18.9978 359.74 18.9978C358.394 18.9978 357.19 19.2963 356.127 19.9679C355.064 20.5648 354.213 21.4602 353.647 22.6541C353.08 23.7733 352.796 25.1164 352.796 26.6088C352.796 28.1011 353.08 29.4442 353.647 30.5635C354.213 31.6827 355.064 32.5782 356.127 33.2497C357.19 33.8466 358.394 34.2197 359.74 34.2197C362.079 34.2197 364.063 33.1751 365.692 31.0858L370.227 35.4136C369.023 37.0552 367.464 38.249 365.622 39.1445C363.779 39.9652 361.724 40.413 359.386 40.413C356.764 40.3383 354.426 39.7414 352.3 38.6221Z" fill="#025899"/>
<path d="M375.967 37.1297C373.912 34.9658 372.85 31.9812 372.85 28.0265V13.3269H379.935V27.8026C379.935 32.0558 381.494 34.1451 384.683 34.1451C387.871 34.1451 389.43 32.0558 389.43 27.8026V13.3269H396.445V28.0265C396.445 31.9812 395.382 34.9658 393.327 37.1297C391.273 39.2936 388.367 40.3383 384.612 40.3383C380.927 40.3383 378.022 39.2936 375.967 37.1297ZM383.974 9.37218C384.612 9.07371 385.108 8.70063 385.321 8.32754C385.604 7.95446 385.746 7.58137 385.746 7.13366C385.746 6.68596 385.604 6.31288 385.321 6.01441C385.037 5.71594 384.612 5.64132 384.187 5.64132C383.478 5.64132 382.77 5.86517 382.132 6.38749L380.715 3.55204C381.282 3.10434 381.919 2.73126 382.628 2.50741C383.337 2.28356 384.116 2.13432 384.895 2.13432C386.313 2.13432 387.446 2.5074 388.297 3.32819C389.147 4.14898 389.643 5.19362 389.643 6.46212C389.643 8.70063 388.438 10.3422 386.1 11.4615L383.974 9.37218Z" fill="#025899"/>
<path d="M417.632 34.6674H407.003L405.019 39.816H397.792L408.916 13.3269H415.931L427.056 39.816H419.687L417.632 34.6674ZM415.577 29.1457L412.317 20.6394L409.058 29.1457H415.577Z" fill="#025899"/>
<path d="M463.405 13.3269V39.816H457.524L446.4 25.7133V39.816H439.456V13.3269H445.337L456.461 27.4295V13.3269H463.405Z" fill="#025899"/>
<path d="M492.315 13.3269V39.816H485.229V29.5188H475.522V39.816H468.436V13.3269H475.522V23.251H485.229V13.3269H492.315Z" fill="#025899"/>
<path d="M514.211 34.6674H503.582L501.598 39.816H494.371L505.495 13.3269H512.51L523.635 39.816H516.266L514.211 34.6674ZM512.156 29.1457L508.896 20.6394L505.637 29.1457H512.156Z" fill="#025899"/>
<path d="M545.742 30.1903L543.05 33.175V39.816H536.035V13.3269H543.05V24.3702L552.757 13.3269H560.622L550.348 25.0418L561.189 39.816H552.899L545.742 30.1903Z" fill="#025899"/>
<path d="M586.982 13.3269V39.816H579.896V29.5188H570.188V39.816H563.103V13.3269H570.188V23.251H579.896V13.3269H586.982Z" fill="#025899"/>
<path d="M597.539 38.5475C595.413 37.3536 593.784 35.712 592.579 33.6227C591.375 31.5334 590.737 29.1457 590.737 26.5341C590.737 23.9225 591.375 21.5347 592.579 19.4455C593.784 17.3562 595.484 15.7146 597.539 14.5207C599.665 13.3269 602.074 12.7299 604.696 12.7299C607.388 12.7299 609.727 13.3269 611.852 14.5207C613.978 15.7146 615.608 17.3562 616.812 19.4455C618.017 21.5347 618.655 23.9225 618.655 26.5341C618.655 29.1457 618.017 31.5334 616.812 33.6227C615.608 35.712 613.907 37.3536 611.852 38.5475C609.727 39.7413 607.318 40.3383 604.696 40.3383C602.074 40.3383 599.665 39.7413 597.539 38.5475ZM608.168 33.175C609.231 32.5781 610.01 31.6827 610.577 30.4888C611.144 29.3695 611.498 28.0264 611.498 26.5341C611.498 25.0417 611.215 23.6986 610.577 22.5794C610.01 21.4601 609.16 20.5647 608.168 19.8932C607.105 19.2962 605.971 18.9231 604.696 18.9231C603.42 18.9231 602.287 19.2216 601.224 19.8932C600.161 20.4901 599.381 21.3855 598.815 22.5794C598.248 23.6986 597.893 25.0417 597.893 26.5341C597.893 28.0264 598.177 29.3695 598.815 30.4888C599.381 31.6081 600.232 32.5035 601.224 33.175C602.287 33.7719 603.42 34.145 604.696 34.145C605.971 34.145 607.105 33.8466 608.168 33.175Z" fill="#025899"/>
<path d="M638.92 34.6674H628.292L626.308 39.816H619.08L630.205 13.3269H637.22L648.344 39.816H640.975L638.92 34.6674ZM636.795 29.1457L633.535 20.6394L630.276 29.1457H636.795Z" fill="#025899"/>
<path d="M660.744 13.3269H667.83V39.816H660.744V13.3269Z" fill="#025899"/>
<path d="M672.151 26.3102H682.638V31.8318H672.151V26.3102Z" fill="#025899"/>
<path d="M686.819 13.3268H698.723C701.487 13.3268 703.896 13.8491 706.022 14.9683C708.148 16.0876 709.777 17.5799 710.982 19.5946C712.186 21.6093 712.753 23.9224 712.753 26.6086C712.753 29.2948 712.186 31.608 710.982 33.6226C709.777 35.6373 708.148 37.1296 706.022 38.2489C703.896 39.3681 701.416 39.8904 698.723 39.8904H686.819V13.3268ZM698.44 33.8465C700.566 33.8465 702.337 33.1749 703.613 31.9064C704.888 30.6379 705.597 28.8471 705.597 26.6086C705.597 24.3701 704.959 22.5793 703.613 21.3108C702.337 20.0423 700.566 19.3707 698.44 19.3707H693.976V33.9211H698.44V33.8465Z" fill="#025899"/>
<path d="M736.703 34.0703V39.8904H716.509V13.4014H736.207V19.2215H723.524V23.6985H734.719V29.2948H723.524V34.1449H736.703V34.0703Z" fill="#025899"/>
<path d="M764.55 13.3268V39.8158H758.668L747.544 25.7132V39.8158H740.6V13.3268H746.481L757.605 27.4294V13.3268H764.55Z" fill="#025899"/>
<path d="M774.967 19.2961H767.243V13.3268H789.776V19.2961H782.123V39.8158H775.038V19.2961H774.967Z" fill="#025899"/>
<path d="M436.307 91.0202L426.599 66.2474H429.15L437.44 87.9609L445.731 66.2474H448.282L438.503 91.0948H436.307V91.0202Z" fill="#025899"/>
<path d="M462.524 65.7997C465.925 65.7997 468.83 67.0682 471.31 69.5305C473.79 71.9929 474.995 74.9776 474.995 78.5592C474.995 82.1408 473.79 85.2001 471.31 87.7371C468.83 90.2741 465.925 91.5426 462.524 91.5426C459.193 91.5426 456.288 90.3487 453.808 87.8864C451.328 85.3494 450.053 82.3647 450.053 78.8577C450.053 75.2761 451.257 72.2168 453.737 69.6798C456.147 67.0682 459.123 65.7997 462.524 65.7997ZM462.524 68.1874C459.76 68.1874 457.351 69.2321 455.367 71.2467C453.383 73.2614 452.391 75.7984 452.391 78.7085C452.391 81.5439 453.383 84.0063 455.438 86.0209C457.493 88.0356 459.831 89.0802 462.524 89.0802C465.287 89.0802 467.696 88.0356 469.609 86.0209C471.523 84.0063 472.585 81.4693 472.585 78.5592C472.585 75.7238 471.593 73.2614 469.609 71.2467C467.625 69.2321 465.287 68.1874 462.524 68.1874ZM458.91 62.1435L465.075 58.2634L466.208 60.2034L460.044 64.0089L458.91 62.1435ZM470.105 69.4559V65.2028H472.656V69.4559H470.105Z" fill="#025899"/>
<path d="M478.821 91.0202V66.2474H481.16V91.0948H478.821V91.0202Z" fill="#025899"/>
<path d="M494.835 91.0202V66.2474H500.362C501.496 66.2474 502.417 66.322 503.125 66.4712C504.046 66.6204 504.968 66.9935 505.676 67.5159C506.527 68.1128 507.164 68.8589 507.66 69.829C508.156 70.799 508.44 71.769 508.44 72.8883C508.44 73.9329 508.227 74.903 507.802 75.7237C507.377 76.5445 506.739 77.2907 505.889 77.8876C507.093 78.41 508.085 79.2307 508.723 80.35C509.432 81.4692 509.786 82.7377 509.786 84.1555C509.786 85.3493 509.503 86.394 509.007 87.4386C508.51 88.4086 507.802 89.2294 506.881 89.8264C505.96 90.4233 504.897 90.7964 503.763 91.0202C503.409 91.0949 502.984 91.0948 502.417 91.1695C501.85 91.2441 501.141 91.2441 500.433 91.2441H494.835V91.0202ZM497.244 76.843H499.795H500.362C501.212 76.843 501.921 76.7684 502.558 76.6938C503.196 76.6191 503.763 76.3953 504.33 76.0968C504.897 75.7984 505.322 75.276 505.676 74.6791C506.031 74.0075 506.172 73.336 506.172 72.6644C506.172 71.9929 506.031 71.3959 505.676 70.7244C505.322 70.1274 504.897 69.6051 504.33 69.232C503.763 68.859 503.125 68.6351 502.204 68.5605C501.708 68.4859 500.929 68.4859 500.008 68.4859H497.244V76.843ZM497.244 88.7817H500.149H500.787C502.062 88.7817 502.984 88.7071 503.55 88.6325C504.117 88.4833 504.684 88.334 505.109 88.0356C505.747 87.6625 506.314 87.1401 506.739 86.394C507.164 85.6478 507.377 84.827 507.377 84.0808C507.377 83.5585 507.306 83.0362 507.164 82.5885C507.023 82.1408 506.81 81.6931 506.597 81.32C506.101 80.4992 505.393 79.9769 504.401 79.6038C503.763 79.38 503.125 79.2307 502.417 79.1561C502.133 79.1561 501.708 79.1561 501.07 79.0815C500.433 79.0815 499.937 79.0815 499.653 79.0815H497.173V88.7817H497.244Z" fill="#025899"/>
<path d="M513.187 91.0203V66.2474H526.083V68.4859H515.525V77.44H525.728V79.6785H515.525V88.7818H526.083V91.0203H513.187ZM513.683 64.0089L518.288 59.7557H520.343L524.949 64.0089H522.115L519.351 61.5465L516.588 64.0089H513.683ZM518.217 97.512V93.2588H520.556V97.512H518.217Z" fill="#025899"/>
<path d="M530.264 91.0202V66.2474H533.453L546.632 86.8417V66.2474H548.971V91.0948H546.632L532.602 69.232V91.0948H530.264V91.0202Z" fill="#025899"/>
<path d="M553.86 91.0202V66.2474H556.198V77.1415H568.457V66.2474H570.795V91.0948H568.457V79.4546H556.198V91.0948H553.86V91.0202Z" fill="#025899"/>
<path d="M584.47 91.0202V66.2474H587.658L600.838 86.8417V66.2474H603.176V91.0948H600.838L586.879 69.232V91.0948H584.47V91.0202Z" fill="#025899"/>
<path d="M608.137 91.0202V66.2474H610.475V77.1415H622.733V66.2474H625.072V91.0948H622.733V79.4546H610.475V91.0948H608.137V91.0202Z" fill="#025899"/>
<path d="M627.834 91.0203L638.038 66.1728H640.66L650.792 91.0203H648.241L644.84 82.6632H633.857L630.456 91.0203H627.834ZM633.645 64.0089L638.251 59.7557H640.305L644.911 64.0089H642.077L639.313 61.5465L636.479 64.0089H633.645ZM634.708 80.4993H643.848L639.313 69.0828L634.708 80.4993Z" fill="#025899"/>
<path d="M653.485 91.0202V66.2474H656.674L669.853 86.8417V66.2474H672.192V91.0948H669.853L655.824 69.232V91.0948H653.485V91.0202Z" fill="#025899"/>
<path d="M300.7 45.5163H144.813V99.2407H300.7V45.5163Z" fill="#025899"/>
<path d="M17.552 97.5244C16.3474 97.5244 15.4262 96.5544 15.4262 95.2859V30.4437H2.38843C1.18385 30.4437 0.262695 29.4736 0.262695 28.2051V9.47625C0.262695 8.20776 1.18385 7.23774 2.38843 7.23774H40.5807C41.7853 7.23774 42.7065 8.20776 42.7065 9.47625V95.3605C42.7065 96.629 41.7853 97.599 40.5807 97.599H17.552V97.5244Z" fill="#025899"/>
<path d="M88.8348 99.2407C81.4656 99.2407 74.805 97.3753 69.0655 93.6444C63.3261 89.9136 58.7203 84.3919 55.5317 77.3033C52.3431 70.2893 50.7134 61.8575 50.7134 52.3812C50.7134 42.9048 52.3431 34.4731 55.5317 27.4591C58.7912 20.3704 63.3261 14.8488 69.0655 11.1179C74.805 7.38706 81.4656 5.52163 88.8348 5.52163C96.1332 5.52163 102.723 7.38706 108.462 11.1179C114.202 14.8488 118.808 20.3704 121.996 27.4591C125.185 34.4731 126.815 42.9048 126.815 52.3812C126.815 61.8575 125.185 70.2893 121.996 77.3033C118.737 84.3919 114.202 89.9136 108.462 93.6444C102.723 97.3753 96.1332 99.2407 88.8348 99.2407ZM88.8348 29.8468C85.6462 29.8468 83.1662 31.4138 81.253 34.6969C79.1982 38.2785 78.1353 44.2479 78.1353 52.3812C78.1353 60.5144 79.1982 66.4838 81.253 70.0654C83.1662 73.3486 85.6462 74.9155 88.8348 74.9155C91.9525 74.9155 94.3617 73.3486 96.2749 70.0654C98.3297 66.4838 99.3926 60.5144 99.3926 52.3812C99.3926 44.2479 98.3297 38.2785 96.2749 34.6969C94.4326 31.4138 91.9525 29.8468 88.8348 29.8468Z" fill="#025899"/>
<path d="M40.6518 9.47628V95.3606H17.623V28.2052H2.45947V9.47628H40.6518Z" fill="url(#paint0_linear_438_3417)"/>
<path d="M70.1995 91.779C64.7434 88.272 60.492 83.1234 57.4451 76.4079C54.3982 69.6923 52.8394 61.6337 52.8394 52.4558C52.8394 43.2033 54.3982 35.2192 57.4451 28.5037C60.492 21.7882 64.7434 16.6396 70.1995 13.1326C75.6555 9.62557 81.8201 7.83476 88.8351 7.83476C95.7791 7.83476 101.944 9.62557 107.329 13.1326C112.785 16.6396 117.036 21.7882 120.083 28.5037C123.13 35.2192 124.689 43.2779 124.689 52.4558C124.689 61.7083 123.13 69.6923 120.083 76.4079C117.036 83.1234 112.785 88.272 107.329 91.779C101.873 95.286 95.7083 97.0768 88.8351 97.0768C81.891 97.0022 75.6555 95.286 70.1995 91.779ZM98.1174 71.1847C100.385 67.23 101.519 60.9621 101.519 52.3812C101.519 43.8002 100.385 37.5324 98.1174 33.5777C95.85 29.623 92.7322 27.6083 88.8351 27.6083C84.867 27.6083 81.7493 29.623 79.4819 33.5777C77.2144 37.5324 76.0807 43.8002 76.0807 52.3812C76.0807 60.9621 77.2144 67.23 79.4819 71.1847C81.7493 75.1394 84.867 77.154 88.8351 77.154C92.7322 77.154 95.85 75.1394 98.1174 71.1847Z" fill="url(#paint1_linear_438_3417)"/>
<path d="M178.045 18.2065H175.424C174.573 16.7888 173.369 15.6695 171.881 14.8487C170.393 14.0279 168.834 13.6549 167.204 13.6549C164.582 13.6549 162.244 14.6995 160.331 16.8634C158.347 19.0273 157.426 21.4897 157.426 24.3251C157.426 27.3098 158.418 29.8468 160.402 32.0107C162.386 34.1746 164.724 35.2192 167.417 35.2192C169.046 35.2192 170.534 34.7715 171.952 33.9507C173.369 33.1299 174.573 31.9361 175.565 30.5183H178.187C177.195 32.6822 175.636 34.3984 173.723 35.6669C171.739 37.01 169.684 37.607 167.417 37.607C163.945 37.607 161.039 36.3385 158.63 33.7269C156.221 31.1899 155.017 27.9813 155.017 24.1759C155.017 20.5196 156.221 17.4603 158.559 14.8487C160.969 12.3118 163.803 10.9686 167.133 10.9686C168.409 10.9686 169.613 11.1179 170.747 11.491C171.881 11.8641 172.944 12.3864 173.936 13.1325C174.786 13.7295 175.565 14.401 176.274 15.2218C177.195 16.3411 177.762 17.3111 178.045 18.2065Z" fill="#025899"/>
<path d="M179.888 37.2339L190.091 11.5656H192.713L202.846 37.2339H200.295L196.894 28.6529H185.84L182.439 37.2339H179.888ZM186.761 26.3398H195.902L191.367 14.5503L186.761 26.3398Z" fill="#025899"/>
<path d="M205.537 37.2339V11.5656H209.151L217.725 33.4284L226.298 11.5656H229.912V37.2339H227.645V14.4011L218.788 37.2339H216.803L207.946 14.4011V37.2339H205.537Z" fill="#025899"/>
<path d="M243.659 37.2339V11.5656H245.997V26.3398L256.909 11.5656H259.885L250.603 24.1013L259.885 37.2339H256.98L249.115 26.116L246.068 30.2199V37.2339H243.659Z" fill="#025899"/>
<path d="M262.507 37.2339V11.5657H275.403V13.8788H264.846V23.1313H275.049V25.4444H264.846V34.9208H275.403V37.2339H262.507ZM263.003 9.25252L267.609 4.85011H269.664L274.27 9.25252H271.435L268.672 6.71554L265.908 9.25252H263.003ZM272.357 4.02933L278.521 0L279.655 2.01466L273.49 5.96937L272.357 4.02933Z" fill="#025899"/>
<path d="M282.843 37.2339V13.8788H277.458V11.5656H290.567V13.8788H285.182V37.2339H282.843Z" fill="#025899"/>
<path d="M190.586 59.4698L177.478 91.6298H168.975L155.937 59.4698H165.29L173.581 80.4373L182.013 59.4698H190.586Z" fill="black"/>
<path d="M211.844 85.3619H198.948L196.539 91.6298H187.752L201.215 59.4698H209.718L223.252 91.6298H214.182L211.844 85.3619ZM195.618 49.9188H203.908L209.718 56.9328H203.766L195.618 49.9188ZM209.293 78.721L205.396 68.4239L201.499 78.721H209.293Z" fill="black"/>
<path d="M254.641 59.4698V91.6298H247.555L234.092 74.4679V91.6298H225.66V59.4698H232.746L246.209 76.6318V59.4698H254.641Z" fill="black"/>
<path d="M281.214 74.9156H288.867V88.1974C287.095 89.5405 285.111 90.5106 282.844 91.2567C280.576 92.0029 278.309 92.3014 276.041 92.3014C272.853 92.3014 269.948 91.5552 267.397 90.1375C264.846 88.7197 262.862 86.7051 261.374 84.1681C259.886 81.6311 259.177 78.7211 259.177 75.5125C259.177 72.304 259.886 69.3939 261.374 66.8569C262.862 64.32 264.846 62.3053 267.468 60.8876C270.089 59.4698 272.994 58.7237 276.254 58.7237C279.088 58.7237 281.639 59.246 283.907 60.216C286.174 61.2607 288.087 62.6784 289.575 64.5438L284.048 69.767C281.993 67.3793 279.513 66.1854 276.608 66.1854C273.986 66.1854 271.861 67.0062 270.302 68.7224C268.672 70.3639 267.893 72.6025 267.893 75.4379C267.893 77.2287 268.247 78.7957 268.956 80.2134C269.664 81.6311 270.727 82.6758 272.002 83.4965C273.278 84.2427 274.837 84.6904 276.467 84.6904C278.096 84.6904 279.655 84.3173 281.143 83.6458V74.9156H281.214Z" fill="black"/>
<path d="M190.586 59.4698L177.478 91.6298H168.975L155.937 59.4698H165.29L173.581 80.4373L182.013 59.4698H190.586Z" fill="url(#paint2_linear_438_3417)"/>
<path d="M211.844 85.3619H198.948L196.539 91.6298H187.752L201.215 59.4698H209.718L223.252 91.6298H214.182L211.844 85.3619ZM195.618 49.9188H203.908L209.718 56.9328H203.766L195.618 49.9188ZM209.293 78.721L205.396 68.4239L201.499 78.721H209.293Z" fill="url(#paint3_linear_438_3417)"/>
<path d="M254.641 59.4698V91.6298H247.555L234.092 74.4679V91.6298H225.66V59.4698H232.746L246.209 76.6318V59.4698H254.641Z" fill="url(#paint4_linear_438_3417)"/>
<path d="M281.214 74.9156H288.867V88.1974C287.095 89.5405 285.111 90.5106 282.844 91.2567C280.576 92.0029 278.309 92.3014 276.041 92.3014C272.853 92.3014 269.948 91.5552 267.397 90.1375C264.846 88.7197 262.862 86.7051 261.374 84.1681C259.886 81.6311 259.177 78.7211 259.177 75.5125C259.177 72.304 259.886 69.3939 261.374 66.8569C262.862 64.32 264.846 62.3053 267.468 60.8876C270.089 59.4698 272.994 58.7237 276.254 58.7237C279.088 58.7237 281.639 59.246 283.907 60.216C286.174 61.2607 288.087 62.6784 289.575 64.5438L284.048 69.767C281.993 67.3793 279.513 66.1854 276.608 66.1854C273.986 66.1854 271.861 67.0062 270.302 68.7224C268.672 70.3639 267.893 72.6025 267.893 75.4379C267.893 77.2287 268.247 78.7957 268.956 80.2134C269.664 81.6311 270.727 82.6758 272.002 83.4965C273.278 84.2427 274.837 84.6904 276.467 84.6904C278.096 84.6904 279.655 84.3173 281.143 83.6458V74.9156H281.214Z" fill="url(#paint5_linear_438_3417)"/>
<rect x="322.417" y="11.2018" width="1.15758" height="87.7676" fill="#025899"/>
<defs>
<linearGradient id="paint0_linear_438_3417" x1="2.4244" y1="52.3772" x2="40.6315" y2="52.3772" gradientUnits="userSpaceOnUse">
<stop stop-color="#DFAA23"/>
<stop offset="0.521" stop-color="#FBF08D"/>
<stop offset="1" stop-color="#DFAA23"/>
</linearGradient>
<linearGradient id="paint1_linear_438_3417" x1="52.8625" y1="52.3773" x2="124.734" y2="52.3773" gradientUnits="userSpaceOnUse">
<stop stop-color="#DFAA23"/>
<stop offset="0.521" stop-color="#FBF08D"/>
<stop offset="1" stop-color="#DFAA23"/>
</linearGradient>
<linearGradient id="paint2_linear_438_3417" x1="155.994" y1="71.0939" x2="289.561" y2="71.0939" gradientUnits="userSpaceOnUse">
<stop stop-color="#DFAA23"/>
<stop offset="0.521" stop-color="#FBF08D"/>
<stop offset="1" stop-color="#DFAA23"/>
</linearGradient>
<linearGradient id="paint3_linear_438_3417" x1="155.994" y1="71.0939" x2="289.561" y2="71.0939" gradientUnits="userSpaceOnUse">
<stop stop-color="#DFAA23"/>
<stop offset="0.521" stop-color="#FBF08D"/>
<stop offset="1" stop-color="#DFAA23"/>
</linearGradient>
<linearGradient id="paint4_linear_438_3417" x1="155.993" y1="71.0939" x2="289.56" y2="71.0939" gradientUnits="userSpaceOnUse">
<stop stop-color="#DFAA23"/>
<stop offset="0.521" stop-color="#FBF08D"/>
<stop offset="1" stop-color="#DFAA23"/>
</linearGradient>
<linearGradient id="paint5_linear_438_3417" x1="155.994" y1="71.0939" x2="289.561" y2="71.0939" gradientUnits="userSpaceOnUse">
<stop stop-color="#DFAA23"/>
<stop offset="0.521" stop-color="#FBF08D"/>
<stop offset="1" stop-color="#DFAA23"/>
</linearGradient>
</defs>
</svg>
