<svg width="134" height="134" viewBox="0 0 134 134" fill="none" xmlns="http://www.w3.org/2000/svg">
<circle cx="67" cy="67" r="66.5" fill="white" stroke="#025899"/>
<path d="M98.7259 74.523C98.7259 78.0013 98.4714 80.8858 98.7259 83.7703C99.6592 93.866 91.2602 102.859 84.1338 104.386C80.91 105.065 77.6013 104.98 74.2926 104.98C70.1355 104.98 65.9785 104.98 61.8214 104.725C58.9369 104.556 57.6643 103.113 57.6643 100.144C57.6643 90.0483 57.6643 79.8678 57.6643 69.772C57.6643 68.8388 57.4098 67.7359 58.9369 67.7359C60.5488 67.7359 60.2943 68.9237 60.2943 69.9417C60.2943 79.2739 60.2943 88.6909 60.3792 98.0231C60.3792 102.265 60.464 102.265 64.7908 102.265C69.4568 102.265 74.1229 102.18 78.789 102.265C80.91 102.35 82.0977 101.501 82.7764 99.4653C83.2854 97.7686 83.9641 96.0718 84.3035 94.2054C85.1519 89.3696 86.4244 88.1819 91.345 88.0122C91.5995 88.0122 91.854 88.0122 92.1086 88.0122C95.7566 87.8425 95.7566 87.8425 95.7566 84.1945C95.7566 78.2558 95.6718 72.2323 95.8414 66.2937C95.9263 64.1727 95.1627 63.6637 93.1266 63.6637C82.437 63.7485 71.8323 63.6637 61.1427 63.7486C57.6644 63.7486 57.6643 63.7485 57.6643 60.1854C57.6643 58.6583 57.7492 57.0463 57.6643 55.5193C57.5795 54.1619 58.1734 53.7377 59.5308 53.7377C71.9171 53.7377 84.3035 53.7377 96.6898 53.6528C97.8775 53.6528 98.8108 53.8225 98.7259 55.2648C98.1321 63.5789 101.441 71.0446 103.647 78.7649C105.258 84.6187 107.125 90.3877 108.822 96.1567C109.585 98.7866 108.652 100.399 105.852 100.568C103.222 100.823 100.508 100.738 97.7927 100.823C96.9443 100.823 95.8414 100.908 95.9263 99.5502C96.0111 98.4473 96.9443 98.3624 97.8776 98.2776C100.168 98.1928 102.374 98.1928 104.665 98.1079C105.852 98.1079 106.531 97.5989 106.107 96.3263C103.986 89.2848 101.95 82.2432 99.8288 75.2017C99.6591 75.1168 99.4895 75.1168 98.7259 74.523ZM78.28 60.8641V60.7792C83.3703 60.7792 88.4605 60.6944 93.5508 60.7792C95.2476 60.7792 95.9263 60.4399 95.8414 58.6583C95.7566 57.1312 95.7566 56.0283 93.6357 56.1131C89.3938 56.198 85.1519 56.1131 80.91 56.0283C74.8016 56.0283 68.6085 56.0283 62.5001 55.9435C60.5488 55.9435 60.2095 56.8767 60.2095 58.5734C60.2943 60.2702 60.7185 61.0337 62.6698 60.9489C67.9298 60.7792 73.1049 60.8641 78.28 60.8641ZM85.4912 100.568C89.9876 99.0411 92.4479 95.6476 94.5689 91.8299C94.7385 91.4906 94.8234 91.0664 94.3992 90.6422C92.8721 89.4545 88.1212 90.8967 87.6122 92.7631C87.0183 95.3931 86.6789 98.1079 85.4912 100.568Z" fill="#025899"/>
<path d="M26.3597 49.4959C26.4446 53.9923 27.3778 58.3191 29.9229 62.0519C33.9952 68.0754 35.7768 74.8625 36.7948 81.9888C37.728 88.691 40.4428 94.7994 44.1757 100.399C44.8544 101.417 45.5331 102.52 47.0602 102.011C48.4176 101.586 48.4176 100.399 48.5024 99.211C48.8418 94.1207 48.3328 88.9456 50.0295 84.025C50.5385 82.5827 50.7931 80.9708 51.9808 79.8679C52.6595 79.1892 53.5927 78.8498 54.2714 79.6982C55.035 80.5466 54.2714 80.9708 53.6776 81.5647C51.1324 84.025 51.3021 87.4185 50.8779 90.4726C50.4537 93.5268 50.6234 96.6658 50.5386 99.8048C50.4537 101.926 49.775 103.538 47.5692 104.132C45.3634 104.725 43.6667 103.792 42.4789 101.926C38.0674 94.7145 34.7587 86.9943 33.8255 78.5105C33.3165 74.0141 32.0439 69.9419 29.7533 66.0393C26.9536 61.4581 24.4933 56.6223 24.0691 51.1078C23.4753 42.9634 26.6143 32.0193 37.1342 29.4741C40.2732 28.7106 43.4122 29.1348 46.3815 29.8983C52.2353 31.4254 57.9195 31.5951 63.7733 29.8135C66.7426 28.9651 69.8816 28.6258 73.0206 29.559C77.7715 30.9164 81.5044 33.3767 83.5405 38.0428C84.9828 41.3515 85.7463 44.745 86.0857 48.3082C86.1705 49.1565 86.3402 50.2594 84.9828 50.2594C83.8799 50.2594 83.9647 49.2414 83.9647 48.5627C83.795 46.0175 83.3709 43.5572 82.6073 41.1818C80.3167 34.2251 74.378 30.4922 67.1668 31.5951C64.7913 31.9344 62.331 32.189 59.9556 32.7828C54.1018 34.3099 48.5873 32.189 42.988 31.5951C35.098 30.7467 29.4987 34.3099 27.293 41.9453C26.7839 44.4905 26.3597 46.9508 26.3597 49.4959Z" fill="#025899"/>
<path d="M44.2606 36.7704C46.2968 37.1946 49.3509 37.7036 52.2354 38.2975C52.9989 38.4671 53.8473 38.8913 53.4231 39.9094C53.0838 40.7578 52.4051 40.5881 51.6416 40.4184C49.6054 39.9094 47.5693 39.4004 45.5332 39.061C39.8491 37.9581 36.7949 40.0791 35.692 45.7632C35.5223 46.6964 35.8617 48.2235 34.2498 47.969C32.8924 47.7145 33.4014 46.2722 33.5711 45.339C34.4194 39.9094 38.0675 36.6007 44.2606 36.7704Z" fill="#025899"/>
<path d="M72.5106 88.0971C75.2255 88.0971 77.8554 88.0971 80.5702 88.0971C81.5035 88.0971 82.4367 88.182 82.4367 89.3697C82.4367 90.4726 81.6731 90.8119 80.6551 90.8119C75.1406 90.8119 69.6262 90.7271 64.0268 90.7271C63.0936 90.7271 62.2452 90.5574 62.3301 89.2848C62.4149 88.0123 63.3482 88.0971 64.1965 88.0971C66.9962 88.0971 69.711 88.0971 72.5106 88.0971Z" fill="#025899"/>
<path d="M79.553 75.6259C79.553 77.6621 79.553 79.783 79.553 81.8191C79.553 82.7523 79.8924 83.7704 78.2805 83.8552C76.7534 83.8552 76.9231 82.922 76.9231 81.9888C76.9231 78.6801 76.9231 75.4563 77.0079 72.1476C77.0079 70.7902 76.923 69.6873 75.1414 69.9418C74.3779 70.0266 73.6992 69.857 73.6992 68.9237C73.6992 67.9905 74.4627 67.9057 75.1414 67.8208C75.2263 67.8208 75.3111 67.8208 75.396 67.8208C79.4682 66.9725 79.4682 66.9725 79.4682 71.1295C79.553 72.4869 79.553 74.014 79.553 75.6259Z" fill="#025899"/>
</svg>
