<svg width="134" height="134" viewBox="0 0 134 134" fill="none" xmlns="http://www.w3.org/2000/svg">
<circle cx="67" cy="67" r="66.5" fill="white" stroke="#025899"/>
<path d="M37.3683 40.4728C40.4225 40.4728 43.4766 40.4728 46.5308 40.4728C47.464 40.4728 48.3972 40.5576 48.4821 39.2002C48.4821 38.6063 48.8214 38.1821 49.5001 38.1821C50.094 38.1821 50.5182 38.5215 50.6878 39.1154C51.0272 40.2183 51.5362 40.8121 52.8088 40.6425C53.9965 40.4728 54.1662 39.7092 54.5055 38.776C54.76 37.9276 55.1843 37.0793 55.6933 36.3157C56.9659 34.5341 65.28 30.0377 67.5706 30.0377C72.4064 29.9529 77.1573 30.0377 81.9931 30.0377C83.605 30.0377 85.1321 30.4619 86.1501 31.6496C88.9498 34.8735 92.5978 37.0793 95.8216 39.6244C98.2819 41.5757 100.827 43.3573 103.372 45.2237C104.051 45.7327 104.39 46.2418 104.475 47.0901C105.408 64.7364 106.596 82.4676 107.953 100.114C108.038 100.962 108.547 102.065 106.935 102.15C105.493 102.235 105.663 101.047 105.663 100.284C104.984 89.5091 104.305 78.6499 103.542 67.8754C103.118 61.6823 102.609 55.5739 102.184 49.3808C102.1 47.7688 101.421 47.8537 100.233 48.2779C94.7188 50.3988 91.41 54.3862 90.5617 60.3249C89.5436 67.7906 89.6285 75.426 89.2043 82.9766C88.8649 89.0849 88.6952 95.1933 88.4407 101.302C88.3559 102.15 89.0346 103.847 87.253 103.677C85.5563 103.592 86.235 102.065 86.235 101.132C86.744 88.5759 87.3378 75.935 87.9317 63.379C88.0166 61.7671 87.7621 60.4945 86.4046 59.6462C86.235 59.5613 86.0653 59.3916 85.8956 59.1371C82.3324 53.8772 77.4118 52.3501 71.3035 53.1136C67.91 53.5378 64.6013 53.1985 61.8864 50.5685C61.2926 50.0595 60.3594 49.805 59.5958 49.5504C56.9658 48.6172 55.2691 46.7508 54.4207 44.1208C54.1662 43.2724 53.9117 42.5089 52.8088 42.5089C51.7907 42.5937 50.7727 42.7634 50.6878 44.036C50.603 44.7147 50.2637 45.1389 49.5001 45.1389C48.9063 45.1389 48.6517 44.7147 48.6517 44.2905C48.6517 42.5937 47.5489 42.6786 46.2763 42.6786C40.4225 42.6786 34.4838 42.6786 28.63 42.6786C28.2058 42.6786 27.6968 42.6786 27.2726 42.6786C26.4242 42.5937 26 42.1695 26 41.3212C26 40.4728 26.6787 40.3879 27.2726 40.3879C30.6661 40.3879 34.0596 40.4728 37.3683 40.4728ZM63.0742 41.3212C62.9894 42.7634 62.9893 44.2056 62.9893 45.6479C63.0742 49.2959 64.6013 50.7382 68.2493 50.823C71.8973 50.823 75.5454 50.823 79.1934 50.823C80.0418 50.823 80.8902 50.7382 81.4841 51.5017C83.1808 53.5378 85.4714 55.0649 86.9137 57.3555C87.8469 58.7129 88.4408 58.5433 88.9498 56.9313C90.4769 52.0107 93.7007 48.4475 98.4516 46.4963C99.8091 45.9024 99.8939 45.3934 98.7061 44.545C95.3126 42.0847 92.004 39.5396 88.6953 36.9944C87.3379 35.8915 86.8288 36.3157 86.4046 37.758C85.5563 40.5576 84.5382 43.3573 83.605 46.2418C83.2656 47.2598 82.8414 48.2779 81.5689 47.7688C80.2963 47.2598 81.0598 46.2418 81.3992 45.4782C82.5021 42.3392 83.6898 39.2002 84.7927 36.0612C85.7259 33.6009 85.3018 32.6677 82.5869 32.498C77.4118 32.1587 72.2367 32.1587 67.0616 32.4132C64.6861 32.5828 63.3287 34.0251 63.159 36.4006C62.9893 37.9276 63.0742 39.6244 63.0742 41.3212ZM60.7836 47.7688C60.7836 43.5269 60.7836 39.3699 60.7836 35.2128C57.6446 36.4006 56.2871 38.5215 56.2023 41.5757C56.1175 44.7995 58.0688 46.4963 60.7836 47.7688Z" fill="#025899"/>
<path d="M44.9164 55.6588C45.4254 55.7437 46.5283 55.8285 47.6312 55.9982C51.5338 56.7617 55.3515 56.7617 59.1692 55.9982C63.9201 55.065 68.3317 55.3195 71.4707 59.731C74.8642 64.5668 75.3732 69.7419 72.6584 74.8322C69.9436 79.8376 67.8226 84.9279 66.8046 90.6121C66.1259 94.5146 64.1746 97.9081 61.884 101.132C60.9508 102.489 59.7631 102.998 58.1512 102.489C56.5392 101.98 56.115 100.793 56.0302 99.3504C55.9454 96.5507 56.115 93.6662 55.2666 90.9514C54.9273 89.8485 54.7576 88.4063 53.4002 88.3214C51.7883 88.2366 51.7883 89.9334 51.4489 91.0363C50.6006 93.7511 50.7703 96.6356 50.5157 99.4352C50.4309 100.793 50.4309 102.065 48.7341 102.489C47.1222 102.914 45.7648 102.574 44.7467 101.132C41.8622 96.9749 39.9958 92.3937 39.1474 87.4731C38.4687 83.825 37.281 80.4315 35.2449 77.2925C32.5301 73.1355 31.6817 68.5542 33.0391 63.7184C34.7358 58.713 39.0626 55.4043 44.9164 55.6588ZM44.3225 57.7798C39.8261 57.7798 37.1113 59.731 35.7539 63.8881C34.142 68.8087 35.2449 73.2203 38.1294 77.2925C39.9958 80.0073 41.0987 82.9767 41.3532 86.2005C41.7774 90.9514 43.8135 95.1085 46.3587 99.0959C46.698 99.6897 47.207 100.453 47.8857 100.284C48.9038 100.029 48.4796 99.011 48.4796 98.3323C48.3948 95.1933 48.7341 92.0543 49.9219 89.1698C50.6006 87.5579 51.3641 86.0308 53.4002 86.0308C55.5211 86.1157 56.3695 87.5579 56.9634 89.3395C57.9815 92.224 58.236 95.1085 58.236 98.0778C58.236 98.8414 57.8118 100.029 58.8298 100.284C59.8479 100.538 60.3569 99.5201 60.8659 98.6717C62.3082 96.0417 64.005 93.4966 64.514 90.6121C65.6169 84.5037 67.653 78.8196 70.792 73.39C73.0826 69.3177 72.4888 64.6516 69.6043 60.8339C66.9743 57.3556 63.2414 57.3556 59.3389 58.204C55.3515 59.0523 51.3641 59.0523 47.2919 58.204C46.4435 57.9494 45.4254 57.9494 44.3225 57.7798Z" fill="#025899"/>
<path d="M39.5742 66.9421C39.6591 64.3122 41.6952 62.1064 44.4948 61.9367C46.4461 61.767 48.2277 62.4457 50.0941 62.7851C50.7729 62.8699 51.1122 63.4638 50.9425 64.1425C50.8577 64.9909 50.179 64.9909 49.5851 64.906C48.3974 64.7363 47.2096 64.397 46.0219 64.3122C43.2222 63.9728 42.3739 64.5667 41.6952 67.3663C41.5255 68.045 41.5255 68.8086 40.5074 68.7237C39.8287 68.5541 39.5742 68.1299 39.5742 66.9421Z" fill="#025899"/>
</svg>
