<svg width="134" height="134" viewBox="0 0 134 134" fill="none" xmlns="http://www.w3.org/2000/svg">
<circle cx="67" cy="67" r="66.5" fill="white" stroke="#025899"/>
<path d="M105.171 79.4103C99.336 77.8301 93.4144 76.62 87.4497 75.7801C87.5072 75.4527 87.5503 75.1395 87.5934 74.869C87.8953 72.7478 88.6139 71.011 89.4475 69.1318C89.6487 68.6905 89.6056 68.178 89.3325 67.7794C89.0594 67.3808 88.6139 67.1388 88.1252 67.1388H78.1649V64.2916C78.1649 62.7256 76.8713 61.4443 75.2903 61.4443H58.043C56.462 61.4443 55.1685 62.7256 55.1685 64.2916V67.1388H45.2081C44.7194 67.1388 44.2739 67.3808 44.0008 67.7794C43.7277 68.178 43.699 68.6905 43.8858 69.1318C44.7194 71.011 45.4381 72.7478 45.7399 74.869C45.783 75.1395 45.8261 75.4527 45.8836 75.7943C39.9189 76.6485 33.9974 77.8301 28.162 79.4103C26.3079 79.9086 25 81.6169 25 83.5388V102.729C25 105.078 26.9403 107 29.3118 107H104.022C106.393 107 108.333 105.078 108.333 102.729V83.5388C108.333 81.6169 107.04 79.9228 105.171 79.4103ZM58.0286 64.2916H75.276V67.1388H58.0286V64.2916ZM85.9549 69.986C85.4231 71.3669 84.9632 72.8048 84.7332 74.4704C83.2097 84.9766 79.6453 95.611 75.8078 95.611C73.1488 95.611 72.6889 92.9916 72.6745 87.112C72.6745 85.603 72.6745 84.1794 72.502 82.9693C71.7403 77.2322 68.8944 75.1252 66.681 75.0683C66.6523 75.0683 66.6236 75.0683 66.5804 75.0683C64.1946 75.0683 61.5068 77.4884 60.7882 82.9693C60.6301 84.1794 60.6157 85.603 60.6157 87.1263C60.6014 93.0058 60.1414 95.6252 57.4825 95.6252C53.6449 95.6252 50.0805 84.9909 48.557 74.4846C48.327 72.819 47.8815 71.3811 47.3353 70.0002H85.9549V69.986ZM105.459 102.729C105.459 103.512 104.812 104.153 104.022 104.153H29.2831C28.4926 104.153 27.8458 103.512 27.8458 102.729V83.5388C27.8458 82.8982 28.277 82.3287 28.895 82.1579C34.6441 80.5919 40.4795 79.4103 46.3436 78.5846C47.7377 85.9732 51.0578 98.4582 57.4968 98.4582C63.4759 98.4582 63.4903 91.9096 63.5047 87.1263C63.5047 85.7027 63.5047 84.3645 63.6484 83.3395C64.1946 79.1968 65.9193 77.9155 66.6092 77.9155C67.5578 77.944 69.1388 79.4103 69.6706 83.3395C69.7999 84.3645 69.8143 85.7027 69.8143 87.1263C69.8143 91.9096 69.8431 98.4582 75.8221 98.4582C82.2611 98.4582 85.5812 85.9732 86.9754 78.5846C92.8395 79.4245 98.6748 80.5919 104.424 82.1579C105.042 82.3287 105.473 82.8982 105.473 83.5388V102.729H105.459Z" fill="#025899"/>
<path d="M43.7315 57.2626C43.9631 57.7717 44.4841 58.1111 45.0486 58.1111H88.283C88.8619 58.1111 89.3685 57.7859 89.6001 57.2626L89.9475 56.5131C91.5976 52.9071 93.4647 48.8343 92.5239 41.6505C91.2502 31.9212 85.8803 27 76.5589 27C74.518 27 72.564 27.3535 70.5955 28.0889C68.077 29.0505 65.2835 29.0505 62.7216 28.0889C60.7676 27.3535 58.828 27 56.7727 27C47.4513 27 42.0814 31.9354 40.8077 41.6505C39.8669 48.8343 41.734 52.9212 43.3841 56.5131L43.7315 57.2626ZM43.6881 42.004C44.7736 33.6889 48.9422 29.8141 56.7872 29.8141C58.4807 29.8141 60.0873 30.1111 61.6939 30.7051C64.9217 31.9212 68.4534 31.9071 71.6377 30.7051C73.2877 30.097 74.8509 29.8 76.5589 29.8C84.4039 29.8 88.558 33.6747 89.658 41.9899C90.4975 48.3394 88.9777 51.7192 87.3421 55.2545H45.9894C44.3683 51.705 42.8486 48.3394 43.6736 41.9899L43.6881 42.004Z" fill="#025899"/>
</svg>
