<svg width="180" height="62" viewBox="0 0 180 62" fill="none" xmlns="http://www.w3.org/2000/svg">
<path d="M172.415 21.5654H167.67V14.5593H160.621V9.74186H167.67V2.6958H172.415V9.74186H179.491V14.5593H172.415V21.5654Z" fill="url(#paint0_linear_1197_7799)"/>
<path d="M60.9236 0C48.2439 0 37.9688 10.5834 37.9688 23.6626V38.3374C37.9688 51.3348 48.2439 62 60.9236 62C73.6034 62 83.7948 51.3348 83.7948 38.3374V23.6626C83.7948 10.5834 73.5195 0 60.9236 0ZM73.925 38.3511C73.925 45.7294 68.0953 51.7439 60.9236 51.7439C53.7519 51.7439 47.8524 45.7294 47.8524 38.3511V23.6762C47.8524 16.216 53.682 10.2015 60.9236 10.2015C68.1652 10.2015 73.925 16.216 73.925 23.6762V38.3511Z" fill="url(#paint1_linear_1197_7799)"/>
<path d="M109.447 0C96.7642 0 86.4922 10.5804 86.4922 23.6631V38.3369C86.4922 51.3244 96.7642 62 109.447 62C122.13 62 132.318 51.338 132.318 38.3369V23.6631C132.318 10.594 122.047 0 109.447 0ZM122.437 38.3369C122.437 45.7214 116.597 51.7324 109.447 51.7324C102.297 51.7324 96.3739 45.7214 96.3739 38.3369V23.6631C96.3739 16.2106 102.214 10.186 109.447 10.186C116.681 10.186 122.437 16.197 122.437 23.6631V38.3369Z" fill="url(#paint2_linear_1197_7799)"/>
<path d="M169.609 38.3453C169.609 45.7315 163.769 51.7437 156.619 51.7437C149.469 51.7437 143.546 45.7315 143.546 38.3453V23.6683C143.546 16.2277 149.358 10.2155 156.577 10.1882V0C143.922 0.0272049 133.664 10.5963 133.664 23.6547V38.3317C133.664 51.3221 143.936 62 156.619 62C169.302 62 179.49 51.3357 179.49 38.3317V25.8311H169.609V38.3317V38.3453Z" fill="url(#paint3_linear_1197_7799)"/>
<path d="M7.82683 62V10.5724H0V0H18.9729V62H7.82683Z" fill="url(#paint4_linear_1197_7799)"/>
<defs>
<linearGradient id="paint0_linear_1197_7799" x1="160.621" y1="21.5654" x2="179.491" y2="21.5654" gradientUnits="userSpaceOnUse">
<stop stop-color="#DFAA23"/>
<stop offset="0.479167" stop-color="#FBF08D"/>
<stop offset="1" stop-color="#DFAA23"/>
</linearGradient>
<linearGradient id="paint1_linear_1197_7799" x1="37.9688" y1="62" x2="83.7948" y2="62" gradientUnits="userSpaceOnUse">
<stop stop-color="#DFAA23"/>
<stop offset="0.479167" stop-color="#FBF08D"/>
<stop offset="1" stop-color="#DFAA23"/>
</linearGradient>
<linearGradient id="paint2_linear_1197_7799" x1="86.4922" y1="62" x2="132.318" y2="62" gradientUnits="userSpaceOnUse">
<stop stop-color="#DFAA23"/>
<stop offset="0.479167" stop-color="#FBF08D"/>
<stop offset="1" stop-color="#DFAA23"/>
</linearGradient>
<linearGradient id="paint3_linear_1197_7799" x1="133.664" y1="62" x2="179.49" y2="62" gradientUnits="userSpaceOnUse">
<stop stop-color="#DFAA23"/>
<stop offset="0.479167" stop-color="#FBF08D"/>
<stop offset="1" stop-color="#DFAA23"/>
</linearGradient>
<linearGradient id="paint4_linear_1197_7799" x1="0" y1="62" x2="18.9729" y2="62" gradientUnits="userSpaceOnUse">
<stop stop-color="#DFAA23"/>
<stop offset="0.479167" stop-color="#FBF08D"/>
<stop offset="1" stop-color="#DFAA23"/>
</linearGradient>
</defs>
</svg>
