<svg width="126" height="62" viewBox="0 0 126 62" fill="none" xmlns="http://www.w3.org/2000/svg">
<path d="M0.014017 11.6856V1.3479H16.1739V60.6522H5.55934V11.6719H0L0.014017 11.6856Z" fill="url(#paint0_linear_100_267)"/>
<path d="M20.2173 38.3384V23.6616C20.2173 10.5841 30.7861 0 43.8448 0C56.9036 0 67.3912 10.5841 67.3912 23.6616V38.3384C67.3912 51.3346 56.8224 62 43.8448 62C30.8673 62 20.2173 51.3346 20.2173 38.3384ZM30.3936 23.6616V38.3384C30.3936 45.7106 36.402 51.7276 43.8448 51.7276C51.2876 51.7276 57.2148 45.7106 57.2148 38.3384V23.6616C57.2148 16.2081 51.2064 10.191 43.8448 10.191C36.4832 10.191 30.3936 16.2081 30.3936 23.6616Z" fill="url(#paint1_linear_100_267)"/>
<path d="M125.095 14.7614C124.89 14.0106 124.549 13.3691 124.112 12.864C123.662 12.3453 123.129 11.9631 122.488 11.7037C121.874 11.458 121.15 11.3215 120.359 11.3215C118.667 11.3215 117.397 11.8676 116.579 12.9323C115.801 13.956 115.418 15.4576 115.418 17.4096C115.418 18.6381 115.623 19.6891 116.046 20.5491C116.469 21.4227 117.084 22.0916 117.848 22.5284C118.598 22.9516 119.458 23.17 120.414 23.17C121.942 23.17 123.17 22.6649 124.071 21.6821C124.958 20.7129 125.395 19.2387 125.395 17.3004C125.395 16.3448 125.299 15.4985 125.095 14.7887V14.7614ZM121.696 17.1365C121.696 18.3378 121.587 19.2114 121.355 19.7437C121.178 20.1533 120.905 20.3171 120.427 20.3171C119.949 20.3171 119.663 20.1396 119.485 19.7437C119.253 19.225 119.131 18.3651 119.131 17.1912C119.131 16.4131 119.185 15.7715 119.281 15.2938C119.363 14.8843 119.513 14.5839 119.704 14.3928C119.868 14.229 120.1 14.1471 120.441 14.1471C120.905 14.1471 121.191 14.3109 121.369 14.6932C121.601 15.1846 121.71 16.0036 121.71 17.1365H121.696Z" fill="url(#paint2_linear_100_267)"/>
<path d="M109.551 11.4169C110.438 10.4341 110.874 8.97353 110.874 7.03519C110.874 6.07967 110.779 5.24701 110.574 4.52355C110.37 3.78643 110.042 3.14487 109.605 2.62616C109.169 2.0938 108.623 1.68429 107.981 1.42493C107.367 1.17923 106.644 1.04272 105.838 1.04272C104.719 1.04272 103.778 1.28843 103.041 1.76619C102.29 2.2576 101.73 2.96742 101.403 3.90929C101.089 4.78291 100.939 5.87491 100.939 7.15804C100.939 8.37291 101.144 9.42399 101.553 10.2976C101.976 11.1849 102.577 11.8537 103.355 12.2906C104.105 12.7001 104.965 12.9185 105.893 12.9185C107.422 12.9185 108.65 12.4134 109.551 11.4306V11.4169ZM106.835 9.50589C106.671 9.90174 106.384 10.0792 105.893 10.0792C105.579 10.0792 105.347 9.9973 105.183 9.8335C104.992 9.6424 104.856 9.32843 104.774 8.90527C104.678 8.41386 104.638 7.75866 104.638 6.95329C104.638 6.14793 104.678 5.53365 104.774 5.04224C104.856 4.61908 104.992 4.31878 105.183 4.12768C105.347 3.96387 105.579 3.88198 105.893 3.88198C106.357 3.88198 106.644 4.04578 106.821 4.42798C106.985 4.76924 107.162 5.4654 107.162 6.89868C107.162 8.11355 107.053 8.98719 106.821 9.51955L106.835 9.50589Z" fill="url(#paint3_linear_100_267)"/>
<path d="M120.865 2.3124C120.865 1.88925 120.715 1.53435 120.442 1.26135C120.169 1.00199 119.814 0.865479 119.391 0.865479C118.831 0.865479 118.504 1.11119 118.326 1.3023C118.149 1.50705 117.944 1.79371 117.726 2.16227L105.852 21.3409C105.607 21.7094 105.484 22.0507 105.484 22.351C105.484 22.7878 105.675 23.1564 106.016 23.4157C106.33 23.6478 106.658 23.7706 106.985 23.7706C107.558 23.7706 108.063 23.4157 108.459 22.7469L120.264 3.70474C120.797 2.85842 120.865 2.51717 120.865 2.28512V2.3124Z" fill="url(#paint4_linear_100_267)"/>
<path d="M109.49 38.3384C109.49 45.7106 103.31 51.7276 95.7376 51.7276C88.1657 51.7276 81.9021 45.7106 81.9021 38.3384V23.6616C81.9021 16.2081 88.0822 10.191 95.7376 10.191C95.8072 10.191 95.8629 10.191 95.9325 10.191V0C95.9325 0 95.8072 0 95.7376 0C82.3058 0 71.4351 10.5841 71.4351 23.6616V38.3384C71.4351 51.3346 82.3058 62 95.7376 62C109.17 62 119.957 51.3346 119.957 38.3384V28.459H109.49V38.3384Z" fill="url(#paint5_linear_100_267)"/>
<defs>
<linearGradient id="paint0_linear_100_267" x1="0" y1="60.6522" x2="16.1739" y2="60.6522" gradientUnits="userSpaceOnUse">
<stop stop-color="#DFAA23"/>
<stop offset="0.479167" stop-color="#FBF08D"/>
<stop offset="1" stop-color="#DFAA23"/>
</linearGradient>
<linearGradient id="paint1_linear_100_267" x1="20.2173" y1="62" x2="67.3912" y2="62" gradientUnits="userSpaceOnUse">
<stop stop-color="#DFAA23"/>
<stop offset="0.479167" stop-color="#FBF08D"/>
<stop offset="1" stop-color="#DFAA23"/>
</linearGradient>
<linearGradient id="paint2_linear_100_267" x1="115.418" y1="23.17" x2="125.395" y2="23.17" gradientUnits="userSpaceOnUse">
<stop stop-color="#DFAA23"/>
<stop offset="0.479167" stop-color="#FBF08D"/>
<stop offset="1" stop-color="#DFAA23"/>
</linearGradient>
<linearGradient id="paint3_linear_100_267" x1="100.939" y1="12.9185" x2="110.874" y2="12.9185" gradientUnits="userSpaceOnUse">
<stop stop-color="#DFAA23"/>
<stop offset="0.479167" stop-color="#FBF08D"/>
<stop offset="1" stop-color="#DFAA23"/>
</linearGradient>
<linearGradient id="paint4_linear_100_267" x1="105.484" y1="23.7706" x2="120.865" y2="23.7706" gradientUnits="userSpaceOnUse">
<stop stop-color="#DFAA23"/>
<stop offset="0.479167" stop-color="#FBF08D"/>
<stop offset="1" stop-color="#DFAA23"/>
</linearGradient>
<linearGradient id="paint5_linear_100_267" x1="71.4351" y1="62" x2="119.957" y2="62" gradientUnits="userSpaceOnUse">
<stop stop-color="#DFAA23"/>
<stop offset="0.479167" stop-color="#FBF08D"/>
<stop offset="1" stop-color="#DFAA23"/>
</linearGradient>
</defs>
</svg>
