<svg width="225" height="57" viewBox="0 0 225 57" fill="none" xmlns="http://www.w3.org/2000/svg">
<path d="M225 0H0V56.3H225V0Z" fill="white"/>
<path d="M53.849 32.2001C54.1493 32.4001 54.4496 32.6001 54.8499 32.8001C55.2503 33.0001 55.5505 33.1001 55.9509 33.3001C56.3512 33.4001 56.7516 33.5001 57.0519 33.6001C57.4522 33.7001 57.7525 33.7001 58.0528 33.7001C58.8535 33.7001 59.454 33.5001 59.8544 33.2001C60.2547 32.9001 60.555 32.4001 60.555 31.7001C60.555 31.2001 60.4549 30.8001 60.1546 30.4001C59.9545 30.1001 59.454 29.7001 58.8535 29.4001C58.1528 29.0001 57.4522 28.7001 56.8517 28.4001C56.2512 28.1001 55.6506 27.7001 55.1502 27.2001C54.6497 26.8001 54.2494 26.3001 53.9491 25.7001C53.6488 25.1001 53.4487 24.5001 53.4487 23.7001C53.4487 23.1001 53.5488 22.6001 53.7489 22.2001C53.9491 21.7001 54.2494 21.3001 54.7498 21.0001C55.1502 20.7001 55.6506 20.4001 56.2512 20.2001C56.8517 20.0001 57.5523 19.9001 58.353 19.9001C59.2538 19.9001 59.9545 20.0001 60.6551 20.1001C61.3557 20.2001 62.0563 20.4001 62.7569 20.7001V23.1001C62.7569 23.3001 62.6569 23.4001 62.5568 23.4001C62.4567 23.5001 62.2565 23.4001 62.1564 23.3001C61.656 22.8001 61.0554 22.5001 60.4549 22.3001C59.8544 22.1001 59.2538 22.0001 58.6533 22.0001C57.9527 22.0001 57.4522 22.1001 57.0519 22.4001C56.6515 22.7001 56.4513 23.1001 56.4513 23.6001C56.4513 24.0001 56.5514 24.3001 56.6515 24.6001C56.7516 24.9001 56.9518 25.1001 57.252 25.3001C57.7525 25.7001 58.2529 26.0001 58.8535 26.3001C59.454 26.6001 59.9544 26.9001 60.4549 27.1001C60.9553 27.3001 61.3557 27.6001 61.7561 27.9001C62.1564 28.2001 62.4567 28.5001 62.7569 28.8001C63.0572 29.1001 63.2574 29.5001 63.3575 30.0001C63.4576 30.4001 63.5577 31.0001 63.5577 31.5001C63.5577 32.2001 63.4576 32.9001 63.1573 33.4001C62.857 33.9001 62.4567 34.3001 61.9562 34.7001C61.4558 35.0001 60.8553 35.3001 60.1546 35.4001C59.454 35.5001 58.7534 35.6001 57.9527 35.6001C57.3521 35.6001 56.7516 35.5001 56.1511 35.4001C55.5505 35.3001 54.95 35.1001 54.4496 34.9001C53.9491 34.7001 53.5488 34.5001 53.3486 34.2001C53.2485 34.3001 53.1484 34.0001 53.2485 33.8001L53.849 32.2001Z" fill="#77787B"/>
<path d="M77.5712 20.5001V35.4001H74.4684V28.8001H68.8634V35.4001H65.7607V22.4001C65.7607 22.1001 65.7607 21.8001 65.6606 21.6001C65.5605 21.4001 65.4604 21.2001 65.2602 21.0001C65.1602 20.9001 65.1602 20.7001 65.1602 20.6001C65.2602 20.5001 65.3603 20.4001 65.4604 20.4001H68.8634V26.4001H74.4684V20.4001H77.5712V20.5001Z" fill="#77787B"/>
<path d="M81.2724 35.4001V22.4001C81.2724 22.1001 81.2724 21.8001 81.1723 21.6001C81.0722 21.4001 80.9721 21.2001 80.772 21.0001C80.6719 20.9001 80.6719 20.7001 80.6719 20.6001C80.6719 20.5001 80.772 20.4001 80.9721 20.4001H84.3752V35.3001H81.2724V35.4001Z" fill="#77787B"/>
<path d="M87.8779 35.4001V22.4001C87.8779 22.1001 87.8779 21.8001 87.7778 21.6001C87.6777 21.4001 87.5776 21.2001 87.3774 21.0001C87.2773 20.9001 87.2773 20.7001 87.2773 20.6001C87.3774 20.5001 87.3774 20.4001 87.5776 20.4001H90.8805L95.3845 28.3001L96.8859 31.1001L96.6857 27.9001V20.4001H99.7885V35.3001H96.6857L92.0816 27.2001L90.6804 24.5001L90.8805 27.8001V35.3001H87.8779V35.4001Z" fill="#77787B"/>
<path d="M114.7 20.5001V35.4001H111.597V28.8001H105.992V35.4001H102.89V22.4001C102.89 22.1001 102.89 21.8001 102.79 21.6001C102.689 21.4001 102.589 21.2001 102.389 21.0001C102.289 20.9001 102.289 20.7001 102.289 20.6001C102.389 20.5001 102.389 20.4001 102.589 20.4001H105.992V26.4001H111.597V20.4001H114.7V20.5001Z" fill="#77787B"/>
<path d="M121.31 22.9C121.51 22.5 121.51 22.1 121.51 21.9C121.51 21.6 121.41 21.4 121.31 21.2C121.109 20.8 121.21 20.5 121.71 20.5H124.613L130.418 35.4H127.315L125.714 31.1H121.21L119.708 35.4H116.605L121.31 22.9ZM121.91 28.9H124.813L123.311 24.8L121.91 28.9Z" fill="#77787B"/>
<path d="M132.018 35.4001V22.4001C132.018 22.1001 132.019 21.8001 131.918 21.6001C131.818 21.4001 131.718 21.2001 131.518 21.0001C131.418 20.9001 131.418 20.7001 131.418 20.6001C131.418 20.5001 131.518 20.4001 131.718 20.4001H135.021L139.525 28.3001L141.027 31.1001L140.826 27.9001V20.4001H143.929V35.3001H140.826L136.222 27.2001L134.821 24.5001L135.021 27.8001V35.3001H132.018V35.4001Z" fill="#77787B"/>
<path d="M152.835 20.5H158.14C158.941 20.5 159.641 20.6 160.242 20.8C160.843 21 161.443 21.2 161.843 21.5C162.244 21.8 162.644 22.2 162.844 22.7C163.045 23.2 163.245 23.7 163.245 24.3C163.245 25.8 162.644 26.8 161.543 27.5C162.344 27.8 162.944 28.2 163.345 28.8C163.745 29.4 164.045 30.2 164.045 31.2C164.045 31.9 163.945 32.5 163.645 33.1C163.345 33.6 162.944 34.1 162.444 34.4C161.944 34.8 161.343 35 160.642 35.2C159.942 35.4 159.141 35.5 158.34 35.5H153.136V22.5C153.136 22.2 153.136 21.9 153.036 21.7C152.936 21.5 152.835 21.3 152.635 21.1C152.535 21 152.535 20.8 152.535 20.7C152.635 20.5 152.735 20.5 152.835 20.5ZM156.238 26.6H157.84C158.54 26.6 159.141 26.5 159.541 26.2C159.942 25.9 160.142 25.4 160.142 24.7C160.142 24 159.942 23.4 159.541 23.2C159.141 22.9 158.54 22.8 157.84 22.8H156.238V26.6ZM160.843 31C160.843 30.2 160.642 29.6 160.142 29.2C159.742 28.8 159.041 28.7 158.14 28.7H156.238V33.3H158.14C159.041 33.3 159.742 33.1 160.142 32.7C160.642 32.4 160.843 31.8 160.843 31Z" fill="#77787B"/>
<path d="M169.55 22.9C169.751 22.5 169.751 22.1 169.751 21.9C169.751 21.6 169.65 21.4 169.55 21.2C169.35 20.8 169.45 20.5 169.951 20.5H172.853L178.658 35.4H175.556L173.954 31.1H169.35L167.849 35.4H164.746L169.55 22.9ZM170.151 28.9H173.053L171.552 24.8L170.151 28.9Z" fill="#77787B"/>
<path d="M180.261 35.4001V22.4001C180.261 22.1001 180.261 21.8001 180.161 21.6001C180.061 21.4001 179.96 21.2001 179.76 21.0001C179.66 20.9001 179.66 20.7001 179.66 20.6001C179.76 20.5001 179.76 20.4001 179.96 20.4001H183.263L187.767 28.3001L189.269 31.1001L189.069 27.9001V20.4001H192.171V35.3001H189.069L184.464 27.2001L183.063 24.5001L183.263 27.8001V35.3001H180.261V35.4001Z" fill="#77787B"/>
<path d="M195.374 35.4001V22.4001C195.374 22.1001 195.374 21.8001 195.274 21.6001C195.174 21.4001 195.074 21.2001 194.874 21.0001C194.773 20.9001 194.773 20.7001 194.773 20.6001C194.874 20.5001 194.874 20.4001 195.074 20.4001H198.477V26.6001L203.581 20.4001H207.084L201.78 26.9001L207.485 35.3001H204.182L199.978 29.1001C199.778 28.8001 199.578 28.7001 199.478 28.5001C199.277 28.4001 199.077 28.3001 198.877 28.3001H198.577V35.2001H195.374V35.4001Z" fill="#77787B"/>
<mask id="mask0_1429_7918" style="mask-type:luminance" maskUnits="userSpaceOnUse" x="17" y="13" width="30" height="30">
<path d="M31.3282 13.8C23.4211 14.2 17.2156 20.9001 17.616 28.8001C18.0163 36.7001 24.7223 42.9 32.6293 42.5C40.5364 42.1 46.7419 35.4 46.3415 27.5C46.0413 19.8 39.6356 13.8 31.9287 13.8C31.7285 13.8 31.5284 13.8 31.3282 13.8Z" fill="white"/>
</mask>
<g mask="url(#mask0_1429_7918)">
<path d="M46.641 13.8H17.2148V42.9001H46.641V13.8Z" fill="url(#paint0_radial_1429_7918)"/>
</g>
<mask id="mask1_1429_7918" style="mask-type:luminance" maskUnits="userSpaceOnUse" x="20" y="15" width="22" height="27">
<path d="M20.7126 33.6001C21.2131 35.2001 22.1139 37.0001 23.6152 38.3001C25.3167 39.7001 27.1183 40.2001 28.7197 40.4001C30.0209 40.5001 31.1219 40.3001 31.0218 39.9001C31.0218 39.3001 29.1201 39.4001 27.5187 38.0001C28.6197 37.2001 29.02 36.6001 29.3203 36.1001C30.0209 35.2001 29.6205 35.0001 28.9199 35.1001C27.0182 35.3001 26.2175 35.5001 25.8172 35.5001C25.4168 35.5001 25.617 33.9001 25.5169 32.5001C25.4168 31.4001 24.9164 31.5001 24.516 31.9001C23.7153 32.6001 23.2148 33.8001 23.0147 33.7001C22.6143 33.4001 22.314 33.0001 21.8136 32.2001C21.4132 31.4001 20.9128 30.4001 20.7126 30.4001H20.6125C20.012 30.2001 20.2122 32.0001 20.7126 33.6001ZM32.7233 16.8001C32.423 17.4001 34.0245 18.4001 33.4239 20.0001C32.9235 21.2001 32.5231 22.0001 32.3229 23.5001C32.2229 24.2001 32.2229 24.8001 32.3229 25.3001C32.3229 25.3001 32.6232 26.6001 34.1245 26.9001C34.4248 26.9001 37.2273 27.0001 36.1263 24.2001C35.5258 23.0001 35.1254 21.6001 35.8261 21.4001C36.5267 21.1001 37.2273 21.6001 37.5276 22.6001C38.1281 24.6001 39.5293 25.1001 40.9306 24.0001C42.1317 23.1001 42.1317 21.3001 40.3301 20.9001C39.6294 20.7001 39.3292 20.7001 38.7286 20.0001C38.2282 19.2001 39.129 19.0001 39.8296 19.4001C40.8305 19.9001 41.6312 19.1001 41.1308 18.5001C40.5302 17.8001 39.2291 17.4001 38.028 17.3001C37.2273 17.2001 36.5267 17.2001 35.4257 17.2001C34.5249 17.1001 33.7242 16.6001 33.1237 16.6001C32.9235 16.5001 32.8234 16.6001 32.7233 16.8001ZM23.2148 21.0001C23.2148 21.0001 22.7144 24.8001 28.4195 29.7001C28.4195 29.7001 34.3247 34.8001 35.0253 35.4001C36.5267 36.8001 37.7277 39.6001 33.524 40.5001C33.524 40.5001 33.0236 40.6001 33.0236 40.9001C33.0236 41.2001 33.3238 41.3001 33.524 41.3001C35.4257 41.2001 36.927 40.8001 38.2282 39.9001C39.9297 38.7001 41.5311 35.3001 37.0271 31.5001C37.0271 31.5001 35.6259 30.2001 33.0236 27.9001C31.7224 26.6001 31.0218 26.0001 31.0218 26.0001C30.5213 25.6001 30.121 25.2001 29.7206 24.8001C26.4177 21.6001 25.617 18.8001 28.1192 17.1001C28.8198 16.6001 29.6205 16.5001 30.6214 16.5001C30.6214 16.5001 31.1219 16.5001 31.1219 16.1001C31.222 15.8001 31.0218 15.6001 30.6214 15.5001C30.3212 15.5001 30.0209 15.5001 29.8207 15.5001C26.9181 15.4001 23.5151 16.8001 23.2148 21.0001Z" fill="white"/>
</mask>
<g mask="url(#mask1_1429_7918)">
<path d="M42.1314 15.4001H20.0117V41.2001H42.1314V15.4001Z" fill="url(#paint1_radial_1429_7918)"/>
</g>
<defs>
<radialGradient id="paint0_radial_1429_7918" cx="0" cy="0" r="1" gradientUnits="userSpaceOnUse" gradientTransform="translate(34.2421 24.4177) scale(30.1328 30.1103)">
<stop stop-color="#00C0F3"/>
<stop offset="0.0632699" stop-color="#00B3EA"/>
<stop offset="0.1592" stop-color="#0097D6"/>
<stop offset="0.1687" stop-color="#0093D3"/>
<stop offset="0.2279" stop-color="#007FC5"/>
<stop offset="0.2953" stop-color="#0071BB"/>
<stop offset="0.3775" stop-color="#0068B5"/>
<stop offset="0.5163" stop-color="#0066B3"/>
<stop offset="1" stop-color="#0066B3"/>
</radialGradient>
<radialGradient id="paint1_radial_1429_7918" cx="0" cy="0" r="1" gradientUnits="userSpaceOnUse" gradientTransform="translate(33.6379 23.6184) scale(13.4051 13.395)">
<stop stop-color="white"/>
<stop offset="0.2228" stop-color="#F3E4CE"/>
<stop offset="0.5989" stop-color="#E0BA80"/>
<stop offset="0.8673" stop-color="#D4A050"/>
<stop offset="1" stop-color="#CF963D"/>
</radialGradient>
</defs>
</svg>
