<svg width="134" height="134" viewBox="0 0 134 134" fill="none" xmlns="http://www.w3.org/2000/svg">
<circle cx="67" cy="67" r="66.5" fill="white" stroke="#025899"/>
<path d="M64.2602 73.2827C64.0533 73.2829 63.8512 73.2199 63.681 73.1022C63.5107 72.9846 63.3804 72.8178 63.3075 72.6241C63.2345 72.4304 63.2224 72.2191 63.2727 72.0184C63.3229 71.8176 63.4333 71.637 63.5889 71.5006L64.6996 70.5268C65.2037 70.0856 65.8517 69.844 66.5216 69.8474C67.1915 69.8509 67.8369 70.0993 68.3363 70.5458L69.4138 71.5074C69.6077 71.6891 69.7228 71.9394 69.7345 72.2049C69.7461 72.4704 69.6535 72.7298 69.4763 72.9278C69.2991 73.1258 69.0514 73.2467 68.7863 73.2644C68.5212 73.2822 68.2597 73.1955 68.0576 73.023L66.9842 72.0607C66.8554 71.9455 66.6889 71.8814 66.5162 71.8806C66.3434 71.8797 66.1763 71.9421 66.0463 72.056L64.9356 73.0297C64.7492 73.1941 64.5088 73.2841 64.2602 73.2827Z" fill="#025899"/>
<path d="M66.4976 79.7352C66.2279 79.7352 65.9691 79.628 65.7784 79.4373C65.5876 79.2465 65.4805 78.9878 65.4805 78.718V74.3673C65.4805 74.0975 65.5876 73.8388 65.7784 73.648C65.9691 73.4573 66.2279 73.3501 66.4976 73.3501C66.7674 73.3501 67.0261 73.4573 67.2169 73.648C67.4076 73.8388 67.5148 74.0975 67.5148 74.3673V78.718C67.5148 78.9878 67.4076 79.2465 67.2169 79.4373C67.0261 79.628 66.7674 79.7352 66.4976 79.7352Z" fill="#025899"/>
<path d="M105.551 27.0309C99.6515 20.797 81.428 25.4224 71.3289 29.8023C69.8037 30.461 68.16 30.8007 66.4987 30.8007C64.8374 30.8007 63.1937 30.461 61.6685 29.8023C51.5694 25.4224 33.3472 20.797 27.4463 27.0309C23.0596 31.6671 22.7721 39.9869 26.7146 46.924C26.5919 50.1945 27.0394 53.7851 27.4605 54.79C28.3116 56.8393 33.038 57.8375 35.9471 57.8375C36.2319 57.8375 36.5004 57.828 36.7452 57.809C37.3099 57.7771 37.8664 57.6595 38.3958 57.4604C40.091 59.2276 44.6825 59.9749 47.7537 59.9749C48.1714 59.9749 48.5606 59.9606 48.9112 59.9342C49.7299 59.8966 50.5362 59.7198 51.2955 59.4114C51.8863 60.2138 52.7643 60.757 53.7461 60.9276C56.0786 61.3465 58.4443 61.5523 60.8141 61.5427C61.8652 61.5427 62.9 61.5027 63.8778 61.422C64.8398 61.3634 65.7581 60.9992 66.4987 60.3824C67.2389 60.9999 68.1568 61.3651 69.1189 61.4247C70.0974 61.5054 71.1315 61.5447 72.1833 61.5447C74.553 61.5546 76.9187 61.3489 79.2512 60.9303C80.2335 60.759 81.1115 60.2148 81.7019 59.4114C82.4616 59.7199 83.2684 59.8967 84.0875 59.9342C84.4381 59.9606 84.8273 59.9749 85.245 59.9749C88.3176 59.9749 92.9077 59.229 94.603 57.4604C95.1323 57.6595 95.6888 57.7771 96.2535 57.809C96.4983 57.828 96.7661 57.8375 97.0516 57.8375C99.9607 57.8375 104.687 56.8393 105.538 54.79C105.957 53.7824 106.404 50.1918 106.284 46.924C110.225 39.9869 109.938 31.6671 105.551 27.0309ZM32.3829 55.3759C30.3052 54.887 29.4318 54.2448 29.3348 54.0109C28.7442 52.5869 28.279 45.0063 29.4705 42.9631C30.2747 41.5886 31.8839 41.7303 32.5389 41.8551C33.708 42.1243 34.7807 42.7093 35.6401 43.5463C36.4995 44.3834 37.1126 45.4403 37.4125 46.6019C37.4926 46.9462 37.5116 47.302 37.4688 47.6529C37.1824 50.2968 37.2181 52.9658 37.5752 55.6011C36.9107 55.8513 34.8852 55.9659 32.385 55.3773L32.3829 55.3759ZM44.3774 57.6652C41.2289 57.1546 39.9018 56.2737 39.7533 55.9279C39.0691 54.3384 39.1268 45.7346 40.5671 43.0004C41.1096 41.9744 42.7648 41.5594 44.692 41.9683C47.3041 42.5223 50.0321 44.5255 50.4254 47.777C50.4478 47.9838 50.4498 48.1923 50.4315 48.3995C50.2453 51.2841 50.2573 54.1781 50.4675 57.061C50.4797 57.2251 50.5102 57.3791 50.5353 57.5357C49.8958 57.8836 47.5692 58.184 44.3794 57.6666L44.3774 57.6652ZM65.1275 58.8757C64.733 59.2182 64.226 59.4034 63.7035 59.3958C60.5026 59.6447 57.283 59.4887 54.1211 58.9313C53.6532 58.8441 53.2317 58.5927 52.9326 58.2223C52.6335 57.852 52.4764 57.387 52.4896 56.9112C52.3736 55.3515 52.0543 49.9212 52.8022 45.5867C52.9372 44.5276 53.4608 43.5563 54.2716 42.8615C55.0823 42.1667 56.1222 41.7979 57.1896 41.8266C58.8837 41.809 60.5353 42.357 61.8829 43.3838C63.2305 44.4106 64.1971 45.8576 64.6298 47.4956C65.7684 52.3427 65.6355 57.7758 65.1323 58.877L65.1275 58.8757ZM80.4962 56.9091C80.5094 57.3849 80.3523 57.8498 80.0532 58.22C79.7541 58.5902 79.3326 58.8415 78.8647 58.9286C75.7027 59.4866 72.4828 59.6427 69.2816 59.3931C68.7591 59.4005 68.2521 59.2151 67.8576 58.8723C67.3551 57.7717 67.2222 52.3387 68.354 47.4949C68.7789 45.8874 69.7181 44.4629 71.0281 43.4389C72.3381 42.4149 73.9472 41.8475 75.6098 41.8232H75.7908C76.8582 41.7945 77.8981 42.1633 78.7088 42.8581C79.5196 43.5529 80.0432 44.5242 80.1782 45.5833C80.9363 49.9226 80.6169 55.3515 80.501 56.9132L80.4962 56.9091ZM93.2366 55.9245C93.0881 56.271 91.7617 57.1519 88.6132 57.6625C85.4261 58.1806 83.0975 57.8788 82.458 57.5323C82.6761 54.489 82.7103 51.4354 82.5604 48.388C82.5432 48.1848 82.5455 47.9805 82.5672 47.7777C82.9585 44.5228 85.6865 42.519 88.3013 41.9643C90.2312 41.5574 91.8878 41.9704 92.4262 42.9963C93.8686 45.7359 93.9262 54.3398 93.2413 55.9286L93.2366 55.9245ZM103.659 54.0122C103.562 54.2462 102.689 54.8884 100.608 55.3773C98.1054 55.9672 96.0813 55.852 95.4126 55.6051C95.7697 52.9698 95.8055 50.3009 95.5191 47.657C95.4763 47.306 95.4953 46.9503 95.5754 46.6059C95.8753 45.4444 96.4884 44.3874 97.3478 43.5504C98.2072 42.7134 99.2799 42.1284 100.449 41.8591C101.103 41.7351 102.713 41.592 103.517 42.9665C104.716 45.0076 104.251 52.5903 103.659 54.0122Z" fill="#025899"/>
<path d="M106.149 87.6207C105.647 86.7748 104.929 86.0788 104.067 85.6051C103.205 85.1314 102.232 84.8973 101.249 84.9272C100.09 84.962 98.9497 85.2248 97.8923 85.7006C96.8349 86.1764 95.8816 86.8558 95.0868 87.7C94.1463 85.9905 92.175 85.0106 89.6619 85.0106C87.412 85.0307 85.2256 85.7591 83.4131 87.0924C82.9242 87.4581 82.4856 87.8865 82.1085 88.3666C81.4122 87.2866 80.4477 86.4058 79.3091 85.8101C78.1706 85.2144 76.897 84.9242 75.6128 84.9679C73.7738 85.0049 71.9738 85.5057 70.3799 86.4238C68.786 87.3419 67.4497 88.6476 66.495 90.2199C65.5398 88.648 64.2032 87.3427 62.6092 86.425C61.0152 85.5073 59.2154 85.0068 57.3764 84.9699C56.0928 84.9261 54.8198 85.2161 53.6817 85.8114C52.5437 86.4068 51.5795 87.2872 50.8835 88.3666C50.5055 87.8856 50.0662 87.4561 49.5768 87.089C47.764 85.7554 45.5771 85.0267 43.3266 85.0065C40.8176 85.0065 38.8457 85.9857 37.9018 87.6966C37.1073 86.8521 36.1541 86.1725 35.0968 85.6966C34.0395 85.2207 32.8987 84.9579 31.7398 84.9231C30.7563 84.8936 29.783 85.1283 28.9211 85.6027C28.0591 86.0771 27.3402 86.774 26.8391 87.6207C24.9356 90.862 25.75 99.5364 26.5129 101.375C27.766 104.379 33.8507 105.055 35.8837 105.055C36.6409 105.067 37.3966 104.985 38.1337 104.811C41.1011 107.158 47.6137 107.19 47.691 107.19C48.8015 107.221 49.9109 107.094 50.9859 106.814C51.6918 107.494 52.5828 107.95 53.5471 108.126C55.9361 108.554 58.3589 108.766 60.7859 108.757C61.8886 108.757 62.9559 108.715 63.9581 108.631C64.8492 108.56 65.7145 108.297 66.495 107.862C67.2752 108.297 68.1402 108.56 69.0311 108.632C70.0354 108.715 71.1027 108.758 72.2053 108.758C74.6287 108.766 77.0478 108.556 79.4333 108.129C80.4039 107.953 81.3006 107.494 82.0101 106.808C82.2154 106.87 82.4324 106.924 82.6611 106.971C83.5282 107.13 84.4086 107.205 85.2902 107.195C87.3645 107.195 92.3601 106.727 94.8386 104.807C95.5814 104.985 96.3434 105.068 97.1069 105.056C99.1412 105.056 105.225 104.377 106.476 101.38C107.24 99.5371 108.054 90.8627 106.149 87.6207ZM104.598 100.599C103.71 102.728 94.7722 103.99 94.3178 102.098C94.2785 102.245 94.231 102.39 94.1754 102.532C93.3278 104.485 86.3568 105.631 83.068 104.98C82.139 104.79 81.5015 104.464 81.3795 103.976V103.942C81.2529 104.497 80.9642 105.001 80.55 105.391C80.1358 105.781 79.6149 106.039 79.0536 106.132C75.8023 106.705 72.4918 106.864 69.2006 106.607C68.475 106.546 67.2816 106.254 66.9357 105.495C66.6984 104.98 66.2915 104.98 66.0542 105.495C65.7084 106.254 64.5149 106.546 63.7893 106.607C60.4981 106.864 57.1876 106.705 53.9364 106.132C53.3751 106.039 52.8541 105.781 52.4399 105.391C52.0257 105.001 51.737 104.497 51.6104 103.942V103.976C51.034 106.207 39.8995 105.034 38.8145 102.532C38.759 102.39 38.7114 102.245 38.6721 102.098C38.2178 103.99 29.2803 102.728 28.3919 100.599C27.7477 99.0461 27.1578 91.0987 28.5954 88.6507C30.5348 85.3347 36.4614 87.1656 38.1771 91.831C38.1984 91.8959 38.2409 91.9517 38.2978 91.9895C38.3547 92.0273 38.4226 92.0449 38.4907 92.0394C38.5588 92.0339 38.6231 92.0057 38.6732 91.9593C38.7233 91.9129 38.7563 91.851 38.767 91.7836C38.9156 90.7262 39.2171 89.696 39.6621 88.7253C40.8353 86.4943 45.3311 86.474 48.3623 88.7253C49.766 89.7696 50.478 91.6208 51.0815 93.3907C51.1012 93.4526 51.1419 93.5056 51.1966 93.5406C51.2513 93.5756 51.3165 93.5904 51.3809 93.5823C51.4454 93.5743 51.505 93.5439 51.5494 93.4965C51.5938 93.4491 51.6202 93.3877 51.624 93.3229C51.6715 92.6583 51.7325 92.0141 51.8003 91.614C53.0616 84.3244 63.9385 86.2434 65.6202 93.4653C65.7626 94.062 65.8847 94.6791 65.9932 95.2962C66.0128 95.4151 66.074 95.5232 66.1659 95.6012C66.2578 95.6792 66.3744 95.722 66.495 95.722C66.6155 95.722 66.7321 95.6792 66.824 95.6012C66.9159 95.5232 66.9771 95.4151 66.9968 95.2962C67.1053 94.6791 67.2273 94.062 67.3697 93.4653C69.0514 86.2434 79.9283 84.3244 81.1896 91.614C81.2235 91.8039 81.2506 92.0548 81.2845 92.3328V92.4074C81.3185 92.6922 81.3456 93.0042 81.3659 93.3229C81.3698 93.3877 81.3962 93.4491 81.4406 93.4965C81.485 93.5439 81.5445 93.5743 81.609 93.5823C81.6734 93.5904 81.7386 93.5756 81.7933 93.5406C81.848 93.5056 81.8887 93.4526 81.9084 93.3907C82.0644 92.9431 82.2203 92.4888 82.3967 92.048C82.8213 90.7567 83.5932 89.6072 84.6276 88.7253C87.6588 86.474 92.1547 86.4943 93.3278 88.7253C93.7728 89.696 94.0743 90.7262 94.2229 91.7836C94.2336 91.851 94.2666 91.9129 94.3167 91.9593C94.3669 92.0057 94.4311 92.0339 94.4992 92.0394C94.5673 92.0449 94.6352 92.0273 94.6921 91.9895C94.749 91.9517 94.7915 91.8959 94.8129 91.831C96.5285 87.1656 102.455 85.3347 104.395 88.6507C105.832 91.096 105.242 99.0434 104.598 100.596V100.599Z" fill="#025899"/>
</svg>
