<svg width="134" height="134" viewBox="0 0 134 134" fill="none" xmlns="http://www.w3.org/2000/svg">
<circle cx="67" cy="67" r="66.5" fill="white" stroke="#025899"/>
<path d="M113.973 74.8636H113.231C113.152 74.0259 113.059 73.2259 112.952 72.4662C113.397 71.5239 113.683 70.4723 113.759 69.3564L114.979 51.6973C115.143 49.2975 114.343 46.9595 112.781 45.2825C111.412 43.8104 109.602 43 107.686 43H23.3148C21.3981 43 19.5888 43.8104 18.2193 45.2825C16.658 46.9595 15.8573 49.2975 16.021 51.6973L17.2413 69.3564C17.3271 70.6082 17.6729 71.7772 18.2193 72.8014C18.1294 73.4607 18.05 74.1481 17.9818 74.8644H17.0279C16.4606 74.8644 16.0009 75.3251 16.0009 75.8935C16.0009 76.4619 16.4606 76.9226 17.0279 76.9226H17.8197C17.6721 79.3288 17.6416 82.0302 17.7652 85.0627C17.7756 85.3304 17.8903 85.5829 18.0853 85.7662C18.2867 85.9599 20.2459 87.6909 26.646 89.1927C26.6749 89.1991 26.7077 89.2055 26.7382 89.2096C26.9252 89.2361 29.1805 89.5408 31.9003 89.5408C34.5022 89.5408 37.5317 89.261 39.5656 88.1845C40.9063 88.8735 44.499 90.3287 51.8193 90.996C51.8498 90.9976 51.8803 91 51.9132 91C52.3264 91 61.6035 90.967 65.6728 88.203C67.0424 88.8984 70.6367 90.3351 77.8936 90.996C77.9241 90.9976 77.9554 91 77.9859 91C78.4007 91 87.7356 90.967 91.7864 88.1765C93.8171 89.1887 96.7648 89.4564 99.3049 89.4564C102.022 89.4564 104.28 89.1517 104.467 89.1252C104.497 89.1211 104.529 89.1147 104.559 89.1091C110.957 87.604 112.919 85.8731 113.12 85.6818C113.315 85.4969 113.428 85.246 113.441 84.9783C113.563 81.9803 113.533 79.3087 113.389 76.9226H113.973C114.54 76.9226 115 76.4619 115 75.8935C115 75.3251 114.54 74.8636 113.973 74.8636ZM107.192 74.7052V73.32C107.192 72.6865 106.679 72.1719 106.047 72.1719H105.751C105.116 72.1719 104.603 72.6865 104.603 73.32V74.5943H99.56V73.32C99.56 72.6865 99.0466 72.1719 98.4143 72.1719H98.1183C97.4837 72.1719 96.9702 72.6865 96.9702 73.32V74.8636H93.3293C93.3333 74.8314 93.3373 74.7985 93.3413 74.7655C94.325 66.9775 96.3195 61.8257 99.1188 59.8495C100.68 58.7489 102.501 58.6339 104.691 59.4982C104.701 59.5022 104.697 59.4998 104.708 59.5038C104.765 59.5287 109.146 61.3996 110.822 72.1044C110.958 72.9654 111.075 73.8852 111.17 74.8636H107.192V74.7052ZM83.7433 74.7655V73.32C83.7433 72.6865 83.2298 72.1719 82.5952 72.1719H82.3015C81.6661 72.1719 81.1526 72.6865 81.1526 73.32V74.5943H76.1109V73.32C76.1109 72.6865 75.5974 72.1719 74.9628 72.1719H74.6667C74.0345 72.1719 73.521 72.6865 73.521 73.32V74.8636H67.3216C67.3264 74.8314 67.3296 74.7977 67.3344 74.7655C68.5876 65.2297 71.2802 60.5023 73.6373 58.1596C75.8951 55.9181 77.8254 55.8771 77.9594 55.8771H77.9859C80.2372 55.8771 82.1491 56.7189 83.8291 58.4482C87.3376 62.058 89.0457 68.7631 89.8761 74.7647C89.8801 74.7977 89.8842 74.8306 89.889 74.8636H83.7433V74.7655ZM57.3913 74.7655V73.32C57.3913 72.6865 56.8755 72.1719 56.2432 72.1719H55.9472C55.315 72.1719 54.7991 72.6865 54.7991 73.32V74.5943H49.759V73.32C49.759 72.6865 49.2439 72.1719 48.6109 72.1719H48.3148C47.6802 72.1719 47.1667 72.6865 47.1667 73.32V74.8636H41.2472C41.252 74.8314 41.2553 74.7977 41.2601 74.7655C42.5149 65.2297 45.2074 60.5023 47.5654 58.1596C49.8223 55.9181 51.7535 55.8771 51.8851 55.8771H51.914C54.1628 55.8771 56.0748 56.7189 57.7572 58.4482C61.2649 62.058 62.9738 68.7631 63.8018 74.7647C63.8058 74.7977 63.8098 74.8306 63.8147 74.8636H57.3913V74.7655ZM34.235 74.7655V73.32C34.235 72.6865 33.7216 72.1719 33.0869 72.1719H32.7917C32.1587 72.1719 31.6436 72.6865 31.6436 73.32V74.5943H26.6026V73.32C26.6026 72.6865 26.0876 72.1719 25.4545 72.1719H25.1593C24.5247 72.1719 24.0112 72.6865 24.0112 73.32V74.8636H20.0446C20.1312 73.9905 20.2355 73.1616 20.355 72.3818C21.9982 61.574 26.3836 59.6357 26.4959 59.5898C26.5024 59.5858 26.5088 59.5842 26.5144 59.5818C28.7039 58.7175 30.5259 58.8325 32.0872 59.9339C34.8761 61.8996 36.8666 67.0241 37.8527 74.7655C37.8567 74.7977 37.8607 74.8314 37.8647 74.8636H34.235V74.7655ZM18.0709 51.555C17.9457 49.722 18.5458 47.9476 19.7204 46.6862C20.6976 45.6362 21.9757 45.0582 23.3148 45.0582H107.686C109.025 45.0582 110.302 45.6362 111.28 46.6862C112.455 47.9476 113.057 49.722 112.929 51.555L111.851 67.1809C109.608 59.3679 105.853 57.7383 105.436 57.5799C102.596 56.4624 100.074 56.6594 97.9353 58.166C94.3723 60.6816 92.5382 66.6004 91.5995 72.4276C90.3872 65.2482 88.2715 60.0722 85.3022 57.0139C83.2434 54.8963 80.7835 53.819 77.9883 53.819C77.6633 53.8174 75.0919 53.8897 72.3127 56.579C68.6285 60.1478 66.6171 66.2137 65.5741 72.713C64.3682 65.3864 62.2381 60.1116 59.2294 57.0139C57.1691 54.8963 54.7084 53.819 51.9156 53.819C51.5866 53.8174 49.0176 53.8897 46.2408 56.579C42.6336 60.0698 40.6311 65.954 39.5696 72.2933C38.6229 66.5385 36.7904 60.7347 33.2699 58.2528C31.1317 56.7438 28.61 56.546 25.769 57.6643C25.3438 57.8267 21.4125 59.5303 19.1949 67.8458L18.0709 51.555ZM27.0672 87.1779C22.5791 86.1183 20.5091 84.963 19.7982 84.4919C19.6972 81.666 19.7357 79.1544 19.8777 76.9217H24.0112V78.4654C24.0112 79.0997 24.5247 79.6142 25.1593 79.6142H25.4545C26.0876 79.6142 26.6026 79.0997 26.6026 78.4654V77.1919H31.6436V78.4654C31.6436 79.0997 32.1587 79.6142 32.7917 79.6142H33.0869C33.7216 79.6142 34.235 79.0997 34.235 78.4654V76.9217H38.0917C38.4239 80.3298 38.4953 83.4025 38.5009 85.2332C38.4953 85.6367 38.4905 86.0339 38.4905 86.427C35.5356 87.9104 29.3698 87.4907 27.0672 87.1779ZM40.5556 86.3796C40.5597 86.0291 40.5637 85.5563 40.5597 84.9815C40.6078 82.0012 40.765 79.3256 41.0081 76.9217H47.1667V78.4654C47.1667 79.0997 47.6802 79.6142 48.3148 79.6142H48.6109C49.2439 79.6142 49.759 79.0997 49.759 78.4654V77.1919H54.7991V78.4654C54.7991 79.0997 55.315 79.6142 55.9472 79.6142H56.2432C56.8755 79.6142 57.3913 79.0997 57.3913 78.4654V76.9217H64.0666C64.4862 80.7615 64.5632 84.0867 64.5696 85.7702C64.5672 86.005 64.5656 86.2373 64.5656 86.4697C61.7335 88.4747 54.6266 88.9354 51.9589 88.9418C44.9876 88.3019 41.6644 86.9368 40.5556 86.3796ZM90.6439 86.468C87.8118 88.4747 80.7009 88.9354 78.0308 88.9418C71.0523 88.3019 67.7283 86.9327 66.6259 86.3772C66.6276 86.1593 66.63 85.8852 66.6259 85.5644V85.5563C66.6621 82.3437 66.8249 79.4792 67.0825 76.9226H73.521V78.4662C73.521 79.0997 74.0345 79.6142 74.6667 79.6142H74.9628C75.5974 79.6142 76.1109 79.0997 76.1109 78.4662V77.1919H81.1534V78.4662C81.1534 79.0997 81.6669 79.6142 82.3015 79.6142H82.5952C83.2298 79.6142 83.7433 79.0997 83.7433 78.4662V76.9226H90.1417C90.5348 80.534 90.6263 83.6895 90.6423 85.451C90.6423 85.5314 90.6439 85.6102 90.6439 85.6858C90.6464 85.8176 90.6464 85.9406 90.6464 86.054V86.0974C90.6464 86.2373 90.6439 86.3611 90.6439 86.468ZM111.407 84.4059C110.686 84.8834 108.614 86.0379 104.138 87.0935C101.832 87.4063 95.6576 87.8259 92.7059 86.3378C92.6882 84.9558 92.6898 81.2133 93.1038 76.9217H96.9702V78.4654C96.9702 79.0997 97.4837 79.6142 98.1183 79.6142H98.4143C99.0466 79.6142 99.56 79.0997 99.56 78.4654V77.1919H104.603V78.4654C104.603 79.0997 105.116 79.6142 105.751 79.6142H106.047C106.679 79.6142 107.192 79.0997 107.192 78.4654V76.9217H111.334C111.471 79.1319 111.507 81.6153 111.407 84.4059Z" fill="#025899"/>
</svg>
