<svg width="134" height="134" viewBox="0 0 134 134" fill="none" xmlns="http://www.w3.org/2000/svg">
<circle cx="67" cy="67" r="66.5" fill="white" stroke="#025899"/>
<path d="M79.8524 54.7497C79.7765 54.7497 79.7006 54.7497 79.6247 54.7497C79.0935 54.4461 78.5622 54.0667 78.031 53.6113C77.8792 53.5354 77.8033 53.3836 77.6515 53.3078C69.5311 46.3257 61.3347 39.3436 53.2902 32.5133C52.7589 32.058 52.3036 31.5267 52 30.9955C53.2902 29.0982 56.3259 25.3036 60.8035 25.3036C61.1071 25.3036 61.3347 25.3036 61.6383 25.3795H61.7142C64.5222 25.3795 66.799 27.2009 68.9239 29.0223C69.3034 29.3258 69.7588 29.7053 70.1382 30.0089C70.2141 30.0848 70.29 30.0848 70.4418 30.0848C70.5936 30.0848 70.6695 30.0089 70.8212 29.933C72.1114 28.4151 73.5534 26.6696 75.0712 25H75.223C80.6113 25 85.9997 25 91.3121 25C91.388 25 91.4639 25 91.5398 25C92.1469 25 92.6782 25.1518 93.2853 25.3795C93.2094 26.442 93.0576 26.8973 92.3746 26.8973H92.2987C90.8568 26.9732 89.3389 27.0491 87.5175 27.0491C86.455 27.0491 85.3925 27.0491 84.2542 27.0491C83.1917 27.0491 82.0533 27.0491 80.9908 27.0491C79.1694 27.0491 77.6515 27.0491 76.2096 27.2009C76.1337 27.2009 76.0578 27.2009 75.9819 27.2768C74.9953 27.9598 74.2364 28.9464 73.5534 29.8571C73.1739 30.3883 72.7185 30.9196 72.2632 31.3749C72.1873 31.4508 72.1114 31.6026 72.1114 31.6785C72.1114 31.8303 72.1873 31.9062 72.2632 31.9821C72.9462 32.5892 73.6292 33.1963 74.3123 33.8035C74.3882 33.8794 74.54 33.9553 74.6159 33.9553C74.7676 33.9553 74.8435 33.8794 74.9194 33.8035C75.2989 33.424 75.6024 32.9687 75.906 32.5892C76.6649 31.6026 77.4239 30.6919 78.3346 30.0089C78.9417 30.0089 79.5488 30.0089 80.156 30.0089C82.6604 30.0089 85.1649 30.0848 87.897 30.3124C87.897 30.9196 87.897 31.4508 87.897 31.9821C87.0622 32.058 86.1515 32.058 85.089 32.058C84.1783 32.058 83.2676 32.058 82.3568 31.9821C81.4461 31.9821 80.5354 31.9062 79.6247 31.9062C79.4729 31.9062 79.3212 31.9062 79.1694 31.9062C79.0176 31.9062 78.9417 31.9821 78.8658 32.058C78.031 33.0446 77.1962 34.0312 76.3614 34.9419C76.2096 35.0937 76.2096 35.3972 76.3614 35.549C77.1203 36.3079 77.9551 36.991 78.7899 37.674C80.3837 39.04 81.9015 40.2543 83.0399 41.9239C85.0131 45.2632 84.4818 49.8926 81.7497 52.9283C81.5979 53.0801 81.3702 53.3836 81.1426 53.6113C80.9908 54.1426 80.4595 54.7497 79.8524 54.7497ZM61.183 27.2768C58.4508 27.2768 56.0982 28.6428 55.0357 30.7678C54.9598 30.9196 54.9598 31.1473 55.1116 31.299C59.6651 35.3972 64.4463 39.4195 68.9998 43.29C72.415 46.1739 75.906 49.1337 79.3212 52.0935C79.3971 52.1694 79.5488 52.1694 79.6247 52.1694C79.7006 52.1694 79.8524 52.0935 79.9283 52.0176C81.4461 50.6515 82.3569 48.6024 82.4327 46.4016C82.4327 44.4284 81.7497 42.607 80.3078 41.2409C77.4239 38.7365 74.4641 36.232 71.6561 33.8035C69.6829 32.1339 67.7097 30.4642 65.7365 28.7187C64.5981 27.8839 62.9285 27.2768 61.183 27.2768Z" fill="#025899"/>
<path d="M91.312 107.419C85.9996 107.419 80.4594 107.419 73.1738 107.419C69.8345 107.419 56.4775 107.419 53.1383 107.419C50.1026 107.419 47.0669 107.419 43.9553 107.419C43.8794 107.419 43.7277 107.419 43.5759 107.419C42.6652 107.419 42.3616 107.267 42.3616 106.963C42.058 104.004 41.9821 100.285 44.4107 98.16C46.308 96.1868 48.8883 95.8832 51.3169 95.8832C52.0758 95.8832 52.7588 95.8832 53.5177 95.9591C54.2008 95.9591 54.9597 96.035 55.6427 96.035C56.0222 96.035 56.3258 96.035 56.7052 96.035C56.857 96.035 57.0088 95.9591 57.0847 95.8073C57.1606 95.6555 57.1606 95.5037 57.0847 95.3519C56.0222 93.7582 54.8838 92.0886 53.8972 90.419L53.1383 89.2047C52.5311 88.1422 51.5445 87.3833 50.6338 86.7002C49.799 86.0931 48.9642 85.486 48.433 84.6511C44.9419 79.4905 41.375 74.178 37.9599 69.0933C35.3036 65.1469 32.6474 61.2005 29.9912 57.2541C29.8394 57.0264 29.6876 56.7987 29.5358 56.5711C28.701 55.2809 27.8662 53.9907 28.018 52.4729C28.2457 49.6649 31.2055 47.7676 33.7858 47.7676C34.6965 47.7676 35.9108 47.9953 36.9733 49.0577C40.0089 52.1693 41.9062 55.888 42.2857 59.5309C42.2857 59.6826 42.3616 59.7585 42.4375 59.8344C46.6116 62.7183 50.8615 66.0576 54.1249 70.2316C54.2008 70.3834 54.3526 70.3834 54.5043 70.3834C54.5802 70.3834 54.6561 70.3834 54.6561 70.3834C55.415 70.0799 56.174 69.6245 56.857 69.1692C58.1472 68.3343 59.4373 67.5754 60.8793 67.5754C60.9552 67.5754 61.0311 67.5754 61.107 67.5754C62.3971 67.5754 63.6114 67.5754 64.9016 67.5754C66.2676 67.5754 67.7096 67.5754 69.0756 67.5754C70.4417 67.5754 71.8836 67.5754 73.2497 67.5754C76.4372 67.5754 78.9416 67.5754 81.2184 67.6513C81.3702 67.879 81.6737 68.562 81.6737 68.562C81.2943 69.0933 80.9148 69.4727 80.5353 69.4727H80.4594H80.3836C78.1827 69.4727 75.7541 69.4727 73.022 69.4727C70.0622 69.4727 67.1783 69.4727 64.2185 69.4727H62.1694C62.0177 69.4727 61.8659 69.4727 61.7141 69.4727C60.1204 69.4727 58.8302 70.2316 57.54 70.9906C56.9329 71.37 56.4016 71.6736 55.7945 71.9772C55.5668 72.0531 55.4909 72.2807 55.5668 72.5084C56.0222 74.0263 56.4016 75.62 56.3258 77.2896C56.3258 77.4414 56.4016 77.5932 56.4775 77.6691C56.5534 77.745 56.7052 77.8209 56.7811 77.8209H56.857C60.4239 77.2896 63.9909 76.6825 67.4819 76.0753C72.7184 75.1646 78.1827 74.2539 83.4951 73.495C85.9237 74.1021 88.2763 75.0128 90.629 75.8477C92.0709 76.3789 93.5888 76.986 95.1066 77.5173C96.1691 77.9726 97.3075 78.3521 98.4459 78.7316C100.267 79.3387 102.165 80.0217 103.834 81.0842C104.897 82.3744 105.58 84.4235 104.593 86.169C103.91 87.6868 102.316 88.6734 100.647 88.6734C100.191 88.6734 99.736 88.5975 99.3566 88.4458C95.2584 87.0797 91.0843 85.6377 87.0621 84.2717L85.9996 83.8922C85.8478 83.8163 85.696 83.8163 85.5442 83.7404C85.013 83.5887 84.4058 83.361 83.7987 83.361C83.571 83.361 83.2675 83.361 83.0398 83.4369C81.9773 83.6645 80.9907 83.8163 79.9282 84.044C77.3479 84.5753 74.6158 85.0306 71.9595 85.6377C71.8077 85.6377 71.656 85.7895 71.656 85.9413C71.656 86.0931 71.656 86.2449 71.7319 86.3967C72.6426 87.6109 73.4774 88.8252 74.3881 90.0395C75.7541 91.8609 77.1202 93.7582 78.4104 95.6555C78.4863 95.8073 78.638 95.8832 78.7898 95.8832C80.6112 95.8832 82.5085 95.9591 84.7853 95.9591C86.6067 95.9591 88.4281 95.9591 90.2495 95.9591C91.6156 95.9591 93.0575 95.9591 94.4236 95.9591C97.0039 95.9591 99.4325 97.2492 100.723 99.2224C101.709 100.588 101.937 102.258 102.013 103.928C101.482 104.155 100.874 104.307 100.343 104.383C100.04 102.713 99.2807 99.0707 96.0932 98.0841H96.0173C94.0441 97.9323 91.9951 97.8564 89.2629 97.8564C87.9728 97.8564 86.7585 97.8564 85.4683 97.8564C84.1782 97.8564 82.9639 97.8564 81.6737 97.8564C80.08 97.8564 78.7898 97.8564 77.5755 97.7805C76.1336 95.9591 74.7675 93.9859 73.4015 92.0886C72.1113 90.2672 70.7453 88.4458 69.3792 86.6244C69.3033 86.5485 69.1515 86.4726 68.9997 86.4726C68.9997 86.4726 68.9997 86.4726 68.9238 86.4726C66.5712 86.7002 64.2185 87.2315 61.8659 87.6868C59.8927 88.0663 57.8436 88.5216 55.8704 88.7493C55.7186 88.7493 55.5668 88.9011 55.4909 88.977C55.4151 89.1288 55.4151 89.2806 55.4909 89.4324C56.0222 90.2672 56.5534 91.0261 57.0847 91.8609C57.9195 93.1511 58.8302 94.5171 59.665 95.8073C59.7409 95.9591 59.8927 96.035 60.0445 96.035C60.5757 96.035 61.1828 96.035 61.7141 96.035C62.473 96.035 63.156 96.035 63.915 96.035C64.598 96.035 65.3569 96.035 66.0399 96.035C67.5578 96.035 68.6962 96.1109 69.7587 96.1868C70.214 96.3385 70.4417 96.7939 70.4417 97.2492C70.4417 97.401 70.3658 98.0082 69.8345 98.0082C67.8614 98.0841 65.6605 98.0841 63.0043 98.0841C61.6382 98.0841 60.2721 98.0841 58.9061 98.0841C57.54 98.0841 56.174 98.0841 54.8079 98.0841C52.8347 98.0841 51.241 98.0841 49.7231 98.0841C47.6741 98.0841 45.7767 99.2224 44.866 100.968C44.183 102.03 44.183 103.245 44.183 104.459C44.183 104.687 44.183 104.99 44.183 105.218C44.183 105.37 44.2589 105.446 44.3348 105.521C44.4107 105.597 44.5625 105.673 44.6384 105.673C52.9865 105.673 61.3346 105.673 69.6069 105.673C77.8032 105.673 85.2407 105.673 92.2227 105.749H92.2986C92.3745 105.749 92.4504 105.749 92.4504 105.749C92.6022 105.749 92.754 105.825 92.8299 105.977C93.0575 106.28 93.1334 106.812 92.9817 107.267C92.6022 107.646 91.995 107.722 91.3879 107.722C91.5397 107.343 91.3879 107.343 91.312 107.419ZM99.5843 86.2449C99.8878 86.3967 100.267 86.4726 100.571 86.4726C101.33 86.4726 102.089 86.169 102.544 85.5619C102.924 85.1065 103.075 84.4994 102.999 83.8922C103.151 82.5262 101.709 81.919 100.874 81.6155L100.723 81.5396C98.5977 80.7048 96.3968 79.9458 94.2718 79.1869C91.5397 78.2003 88.6558 77.1378 85.9237 76.0753C85.696 75.9994 85.5442 75.9236 85.3165 75.8477C84.6335 75.62 83.9505 75.3164 83.1157 75.3164C82.888 75.3164 82.6603 75.3164 82.4326 75.3923C78.3345 76.0753 74.1604 76.7584 69.9863 77.4414C65.281 78.2003 60.4239 79.0351 55.6427 79.7941C54.6561 79.8699 53.9731 80.553 53.366 81.1601C52.8347 81.7672 52.3035 82.2226 51.6204 82.2226C51.5445 82.2226 51.4687 82.2226 51.3169 82.2226C51.0133 81.9949 50.7856 81.5396 50.7856 81.236C50.7856 81.0083 50.8615 80.8565 51.0133 80.7048L51.0892 80.6289C51.3928 80.1735 51.8481 79.7182 52.3035 79.3387C53.2142 78.5039 54.1249 77.5932 54.3526 76.2271V76.1512C54.2767 74.1021 53.1383 72.2807 51.9999 70.8388C48.8124 66.8924 44.7143 63.8567 41.1473 61.2764C41.0714 61.2005 40.9955 61.2005 40.9197 61.2005C40.8438 61.2005 40.7679 61.2005 40.692 61.2764C39.4777 62.1112 38.3393 62.8701 37.2768 63.5531C37.2009 63.629 37.125 63.7049 37.0492 63.8567C37.0492 64.0085 37.0492 64.0844 37.125 64.2362C38.3393 65.9817 39.4777 67.7272 40.692 69.5486C43.7277 74.0263 46.8392 78.6557 50.0267 83.2092C51.3169 85.1824 53.7454 86.4726 56.3258 86.4726C56.857 86.4726 57.3123 86.3967 57.8436 86.3208C63.0802 85.3342 68.3926 84.2717 73.5533 83.2851C76.7407 82.678 80.0041 81.9949 83.1916 81.3878C83.4951 81.3119 83.7228 81.3119 84.0264 81.3119C84.9371 81.3119 85.8478 81.6155 86.7585 81.9949C87.0621 82.1467 87.4415 82.2226 87.7451 82.2985L91.7674 83.6646C94.2718 84.4994 96.928 85.4101 99.5843 86.2449ZM33.634 49.5131C33.5581 49.5131 33.5581 49.5131 33.634 49.5131C32.3438 49.6649 30.9019 50.4997 30.2948 51.714C29.9153 52.4729 29.9153 53.2318 30.3706 53.9148C31.2814 55.6604 32.4197 57.2541 33.5581 58.8478C34.2411 59.7585 34.9242 60.7451 35.5313 61.7317C35.6072 61.8835 35.759 61.9594 35.9108 61.9594C35.9867 61.9594 36.0626 61.9594 36.1384 61.8835C36.442 61.7317 36.7456 61.5041 37.0492 61.3523C38.1875 60.6692 39.3259 60.0621 40.0089 58.7719C40.0089 58.696 40.0848 58.6201 40.0848 58.5443C39.9331 56.2675 38.7188 54.4461 37.5045 52.6247L37.3527 52.397L37.0492 52.0175C36.1384 50.955 35.2277 49.7408 33.634 49.5131Z" fill="#025899"/>
<path d="M53.5184 42.7588C53.2908 42.7588 53.0631 42.7588 52.8354 42.7588C52.456 42.4553 52.456 41.924 52.5318 41.1651C52.5318 41.1651 52.5318 41.1651 52.5318 41.0892C54.4291 40.6339 56.4782 40.3303 58.6032 40.2544C58.6791 40.2544 58.6791 40.2544 58.6791 40.2544C59.3621 40.2544 59.438 41.0133 59.438 41.1651C59.438 41.6205 59.2104 42.2276 58.6032 42.2276H58.5273C57.9961 42.3035 57.3889 42.3794 56.8577 42.4553C55.7952 42.6071 54.6568 42.7588 53.5184 42.7588Z" fill="#025899"/>
<path d="M61.1822 49.6649C61.0304 49.6649 60.8027 49.6649 60.5751 49.589C60.4233 49.589 60.2715 49.589 60.1956 49.5131C60.0438 47.7676 61.6375 46.3256 63.2313 45.1873L64.142 45.6426C64.2179 46.9328 63.3072 47.9194 62.3206 48.8301C62.1688 48.9819 62.017 49.1336 61.8652 49.2854C61.7134 49.589 61.4858 49.6649 61.1822 49.6649Z" fill="#025899"/>
<path d="M69.3803 56.2676C69.1526 56.2676 68.9249 56.2676 68.6973 56.2676H68.6214C68.2419 54.5221 68.2419 52.7007 68.166 50.9552C68.166 50.8034 68.166 50.5757 68.166 50.4239C68.2419 50.4239 68.3937 50.348 68.4696 50.348C68.7731 50.1963 69.1526 50.1204 69.3803 50.1204C69.608 50.1204 69.7597 50.1963 69.8356 50.348C70.1392 50.9552 70.1392 51.7141 70.2151 52.473C70.2151 52.7766 70.2151 53.156 70.291 53.4596C70.291 53.7632 70.291 54.0668 70.291 54.2944C70.291 55.0533 70.3669 55.8123 69.9115 56.3435C69.8356 56.2676 69.608 56.2676 69.3803 56.2676Z" fill="#025899"/>
</svg>
