<svg width="86" height="86" viewBox="0 0 86 86" fill="none" xmlns="http://www.w3.org/2000/svg">
<g clip-path="url(#clip0_1128_7225)">
<path d="M43.0008 1.87798C65.7118 1.87798 84.1228 20.2889 84.1228 42.9999C84.1228 65.7109 65.7118 84.1218 43.0008 84.1218C20.2898 84.1218 1.87891 65.7109 1.87891 42.9999C1.87891 20.2889 20.2898 1.87798 43.0008 1.87798Z" fill="white"/>
<path d="M65.6924 44.5062L30.6546 64.7346C29.833 65.2042 28.757 64.9303 28.2875 64.1086C28.131 63.8543 28.0527 63.5413 28.0527 63.2478V22.7911C28.0527 21.8325 28.8353 21.0499 29.7939 21.0499C30.1069 21.0499 30.4003 21.1282 30.6546 21.2847L65.6924 41.5131C66.5141 41.9826 66.8075 43.0586 66.3184 43.8802C66.1619 44.1345 65.9467 44.3497 65.6924 44.5062Z" fill="#025899"/>
</g>
<defs>
<clipPath id="clip0_1128_7225">
<rect width="86" height="86" fill="white" transform="matrix(1 0 0 -1 0 86)"/>
</clipPath>
</defs>
</svg>
