<svg width="278" height="58" viewBox="0 0 278 58" fill="none" xmlns="http://www.w3.org/2000/svg">
<g filter="url(#filter0_d_951_15250)">
<rect x="4" width="270" height="50" rx="25" fill="url(#paint0_linear_951_15250)"/>
</g>
<path d="M49.8916 35H45.248L45.2773 31.5723H49.8916C51.0439 31.5723 52.0156 31.3135 52.8066 30.7959C53.5977 30.2686 54.1934 29.502 54.5938 28.4961C55.0039 27.4902 55.209 26.2744 55.209 24.8486V23.8086C55.209 22.7148 55.0918 21.7529 54.8574 20.9229C54.6328 20.0928 54.2959 19.3945 53.8467 18.8281C53.3975 18.2617 52.8457 17.8369 52.1914 17.5537C51.5371 17.2607 50.7852 17.1143 49.9355 17.1143H45.1602V13.6719H49.9355C51.3613 13.6719 52.665 13.916 53.8467 14.4043C55.0381 14.8828 56.0684 15.5713 56.9375 16.4697C57.8066 17.3682 58.4756 18.4424 58.9443 19.6924C59.4229 20.9326 59.6621 22.3145 59.6621 23.8379V24.8486C59.6621 26.3623 59.4229 27.7441 58.9443 28.9941C58.4756 30.2441 57.8066 31.3184 56.9375 32.2168C56.0781 33.1055 55.0479 33.7939 53.8467 34.2822C52.6553 34.7607 51.3369 35 49.8916 35ZM47.7383 13.6719V35H43.3438V13.6719H47.7383ZM51.4297 22.9443V25.5518H41.1611V22.9443H51.4297ZM71.2051 17.3193L65.4043 35H60.7314L68.6562 13.6719H71.6299L71.2051 17.3193ZM76.0244 35L70.209 17.3193L69.7402 13.6719H72.7432L80.7119 35H76.0244ZM75.7607 27.0605V30.5029H64.4961V27.0605H75.7607ZM72.8457 8.13477H75.8486C75.8486 8.97461 75.6387 9.72168 75.2188 10.376C74.8086 11.0205 74.2227 11.5283 73.4609 11.8994C72.6992 12.2607 71.8008 12.4414 70.7656 12.4414C69.1934 12.4414 67.9482 12.041 67.0303 11.2402C66.1221 10.4395 65.668 9.4043 65.668 8.13477H68.6562C68.6562 8.64258 68.8125 9.09668 69.125 9.49707C69.4473 9.89746 69.9941 10.0977 70.7656 10.0977C71.5273 10.0977 72.0645 9.89746 72.377 9.49707C72.6895 9.09668 72.8457 8.64258 72.8457 8.13477ZM68.4512 38.3545C68.4512 37.7881 68.666 37.3145 69.0957 36.9336C69.5254 36.5625 70.1016 36.377 70.8242 36.377C71.5371 36.377 72.1084 36.5625 72.5381 36.9336C72.9775 37.3145 73.1973 37.7881 73.1973 38.3545C73.1973 38.9111 72.9775 39.3799 72.5381 39.7607C72.1084 40.1416 71.5371 40.332 70.8242 40.332C70.1016 40.332 69.5254 40.1416 69.0957 39.7607C68.666 39.3799 68.4512 38.9111 68.4512 38.3545ZM90.4092 13.6719V35H86.0293V13.6719H90.4092ZM96.9717 13.6719V17.1143H79.5693V13.6719H96.9717ZM119.867 31.5723V35H109.13V31.5723H119.867ZM110.551 13.6719V35H106.156V13.6719H110.551ZM127.06 13.6719V35H122.68V13.6719H127.06ZM122.489 38.3984C122.489 37.832 122.704 37.3584 123.134 36.9775C123.563 36.6064 124.14 36.4209 124.862 36.4209C125.575 36.4209 126.146 36.6064 126.576 36.9775C127.016 37.3584 127.235 37.832 127.235 38.3984C127.235 38.9551 127.016 39.4238 126.576 39.8047C126.146 40.1855 125.575 40.376 124.862 40.376C124.14 40.376 123.563 40.1855 123.134 39.8047C122.704 39.4238 122.489 38.9551 122.489 38.3984ZM143.539 27.9248H147.919C147.831 29.3604 147.436 30.6348 146.732 31.748C146.039 32.8613 145.067 33.7305 143.817 34.3555C142.577 34.9805 141.083 35.293 139.335 35.293C137.968 35.293 136.742 35.0586 135.658 34.5898C134.574 34.1113 133.646 33.4277 132.875 32.5391C132.113 31.6504 131.532 30.5762 131.132 29.3164C130.731 28.0566 130.531 26.6455 130.531 25.083V23.6035C130.531 22.041 130.736 20.6299 131.146 19.3701C131.566 18.1006 132.162 17.0215 132.934 16.1328C133.715 15.2441 134.647 14.5605 135.731 14.082C136.815 13.6035 138.026 13.3643 139.364 13.3643C141.142 13.3643 142.641 13.6865 143.861 14.3311C145.092 14.9756 146.044 15.8643 146.718 16.9971C147.401 18.1299 147.812 19.4189 147.948 20.8643H143.554C143.505 20.0049 143.334 19.2773 143.041 18.6816C142.748 18.0762 142.304 17.6221 141.708 17.3193C141.122 17.0068 140.341 16.8506 139.364 16.8506C138.632 16.8506 137.992 16.9873 137.445 17.2607C136.898 17.5342 136.439 17.9492 136.068 18.5059C135.697 19.0625 135.419 19.7656 135.233 20.6152C135.058 21.4551 134.97 22.4414 134.97 23.5742V25.083C134.97 26.1865 135.053 27.1582 135.219 27.998C135.385 28.8281 135.639 29.5312 135.98 30.1074C136.332 30.6738 136.781 31.1035 137.328 31.3965C137.885 31.6797 138.554 31.8213 139.335 31.8213C140.253 31.8213 141.01 31.6748 141.605 31.3818C142.201 31.0889 142.655 30.6543 142.968 30.0781C143.29 29.502 143.48 28.7842 143.539 27.9248ZM165.028 22.3584V25.7861H153.896V22.3584H165.028ZM155.199 13.6719V35H150.805V13.6719H155.199ZM168.163 13.6719V35H163.783V13.6719H168.163ZM193.681 22.3584V25.7861H182.548V22.3584H193.681ZM183.852 13.6719V35H179.457V13.6719H183.852ZM196.815 13.6719V35H192.436V13.6719H196.815ZM214.95 31.5723V35H203.598V31.5723H214.95ZM205.033 13.6719V35H200.639V13.6719H205.033ZM213.471 22.3584V25.6982H203.598V22.3584H213.471ZM214.936 13.6719V17.1143H203.598V13.6719H214.936ZM205.707 38.2959C205.707 37.7295 205.922 37.2559 206.352 36.875C206.781 36.5039 207.357 36.3184 208.08 36.3184C208.793 36.3184 209.364 36.5039 209.794 36.875C210.233 37.2559 210.453 37.7295 210.453 38.2959C210.453 38.8525 210.233 39.3213 209.794 39.7021C209.364 40.083 208.793 40.2734 208.08 40.2734C207.357 40.2734 206.781 40.083 206.352 39.7021C205.922 39.3213 205.707 38.8525 205.707 38.2959ZM234.872 13.6719V35H230.478L221.908 20.7031V35H217.514V13.6719H221.908L230.492 27.9834V13.6719H234.872Z" fill="#025899"/>
<defs>
<filter id="filter0_d_951_15250" x="0" y="0" width="278" height="58" filterUnits="userSpaceOnUse" color-interpolation-filters="sRGB">
<feFlood flood-opacity="0" result="BackgroundImageFix"/>
<feColorMatrix in="SourceAlpha" type="matrix" values="0 0 0 0 0 0 0 0 0 0 0 0 0 0 0 0 0 0 127 0" result="hardAlpha"/>
<feOffset dy="4"/>
<feGaussianBlur stdDeviation="2"/>
<feComposite in2="hardAlpha" operator="out"/>
<feColorMatrix type="matrix" values="0 0 0 0 0 0 0 0 0 0 0 0 0 0 0 0 0 0 0.3 0"/>
<feBlend mode="normal" in2="BackgroundImageFix" result="effect1_dropShadow_951_15250"/>
<feBlend mode="normal" in="SourceGraphic" in2="effect1_dropShadow_951_15250" result="shape"/>
</filter>
<linearGradient id="paint0_linear_951_15250" x1="4" y1="50" x2="274" y2="50" gradientUnits="userSpaceOnUse">
<stop stop-color="#DFAA23"/>
<stop offset="0.479167" stop-color="#FBF08D"/>
<stop offset="1" stop-color="#DFAA23"/>
</linearGradient>
</defs>
</svg>
