<svg width="419" height="63" viewBox="0 0 419 63" fill="none" xmlns="http://www.w3.org/2000/svg">
<path d="M36.5498 43.3076C32.79 50.2087 27.1097 53.6592 19.5088 53.6592C14.1702 53.6592 9.61296 51.8118 5.83691 48.1172C2.0446 44.39 0.148438 39.8652 0.148438 34.543C0.148438 29.1556 2.02018 24.6146 5.76367 20.9199C9.49089 17.2415 14.0563 15.4023 19.46 15.4023C25.3031 15.4023 30.1696 17.5996 34.0596 21.9941C35.1338 23.1986 35.915 24.3704 36.4033 25.5098H32.2529C29.2256 21.0013 24.9368 18.7471 19.3867 18.7471C15.1712 18.7471 11.5173 20.3421 8.4248 23.5322C5.38118 26.6735 3.85938 30.36 3.85938 34.5918C3.85938 38.7585 5.41374 42.4124 8.52246 45.5537C11.6475 48.7113 15.2933 50.29 19.46 50.29C22.0479 50.29 24.4811 49.6553 26.7598 48.3857C28.8757 47.1813 30.7555 45.4886 32.3994 43.3076H36.5498ZM76.2715 34.543C76.2715 30.1973 74.709 26.4701 71.584 23.3613C68.459 20.2526 64.7236 18.6982 60.3779 18.6982C55.9834 18.6982 52.2399 20.2689 49.1475 23.4102C46.0713 26.5514 44.5332 30.3112 44.5332 34.6895C44.5332 38.9538 46.112 42.624 49.2695 45.7002C52.3945 48.7601 56.0973 50.29 60.3779 50.29C64.7074 50.29 68.4346 48.752 71.5596 45.6758C74.7008 42.5996 76.2715 38.8887 76.2715 34.543ZM73.2441 20.0898C73.5534 20.3503 73.8545 20.627 74.1475 20.9199C78.0374 24.6634 79.9824 29.1882 79.9824 34.4941C79.9824 39.8001 78.0293 44.333 74.123 48.0928C70.2819 51.8037 65.7002 53.6592 60.3779 53.6592C55.137 53.6592 50.5798 51.82 46.7061 48.1416C42.7835 44.3981 40.8223 39.9141 40.8223 34.6895C40.8223 29.3184 42.7347 24.7448 46.5596 20.9688C50.3682 17.2253 54.9743 15.3535 60.3779 15.3535C64.2028 15.3535 67.6452 16.3057 70.7051 18.21C71.0632 18.0472 71.348 17.917 71.5596 17.8193C71.8851 17.6729 72.3652 17.3636 73 16.8916C73.6348 16.4196 73.9928 15.8418 74.0742 15.1582H72.4873V10.7637H77.1016V15.3047C76.9876 16.1022 76.7842 16.7695 76.4912 17.3066C76.1982 17.8275 75.8402 18.2669 75.417 18.625C75.0101 18.9831 74.652 19.2598 74.3428 19.4551C74.0824 19.6341 73.7161 19.8457 73.2441 20.0898ZM119.655 42.7949C119.655 45.8548 118.557 48.4346 116.359 50.5342C114.195 52.6175 111.574 53.6592 108.498 53.6592C105.194 53.6592 102.484 52.6501 100.368 50.6318C98.236 48.6136 97.1455 45.9525 97.0967 42.6484H100.808C101.019 47.7428 103.583 50.29 108.498 50.29C110.565 50.29 112.315 49.5902 113.747 48.1904C115.212 46.7581 115.944 45.0085 115.944 42.9414C115.944 40.7116 115.074 38.9212 113.332 37.5703C112.632 37.0332 111.753 36.5368 110.695 36.0811C109.898 35.7555 108.897 35.4137 107.692 35.0557C106.146 34.5999 104.909 34.1686 103.981 33.7617C102.744 33.2409 101.727 32.6549 100.93 32.0039C99.0417 30.4414 98.0977 28.2035 98.0977 25.29C98.0977 22.4092 99.1149 20.0247 101.149 18.1367C103.151 16.2812 105.601 15.3535 108.498 15.3535C111.363 15.3535 113.78 16.3057 115.749 18.21C117.751 20.1468 118.752 22.5475 118.752 25.4121H115.041C115.041 23.5892 114.406 22.0186 113.137 20.7002C111.851 19.3656 110.305 18.6982 108.498 18.6982C106.626 18.6982 105.048 19.3086 103.762 20.5293C102.46 21.75 101.809 23.2881 101.809 25.1436C101.809 27.292 102.801 28.9277 104.787 30.0508C105.52 30.4577 106.472 30.8483 107.644 31.2227L110.598 32.1016C113.413 32.9479 115.586 34.2093 117.116 35.8857C118.809 37.7412 119.655 40.0443 119.655 42.7949ZM158.498 34.543C158.498 30.1973 156.936 26.4701 153.811 23.3613C150.686 20.2526 146.95 18.6982 142.604 18.6982C138.21 18.6982 134.466 20.2689 131.374 23.4102C128.298 26.5514 126.76 30.3112 126.76 34.6895C126.76 38.9538 128.339 42.624 131.496 45.7002C134.621 48.7601 138.324 50.29 142.604 50.29C146.934 50.29 150.661 48.752 153.786 45.6758C156.927 42.5996 158.498 38.8887 158.498 34.543ZM147.902 7.00391C147.902 7.7526 147.674 8.48503 147.219 9.20117C147.105 9.38021 146.918 9.60807 146.657 9.88477L146.34 10.2266L145.339 11.2031C145.144 11.431 144.956 11.6751 144.777 11.9355C144.484 12.375 144.313 13.083 144.265 14.0596H141.164V13.4004C141.164 12.5703 141.392 11.7646 141.848 10.9834C141.978 10.7555 142.198 10.4626 142.507 10.1045C142.637 9.95801 142.849 9.74642 143.142 9.46973L143.801 8.83496C144.012 8.6071 144.208 8.37923 144.387 8.15137C144.647 7.79329 144.777 7.39453 144.777 6.95508C144.777 6.27148 144.566 5.73438 144.143 5.34375C143.671 4.9043 143.174 4.68457 142.653 4.68457C141.905 4.68457 141.302 5.02637 140.847 5.70996C140.684 5.9541 140.578 6.23079 140.529 6.54004C140.497 6.71908 140.48 7.21549 140.48 8.0293H137.331V7.07715C137.331 5.75879 137.876 4.58691 138.967 3.56152C139.976 2.63379 141.221 2.16992 142.702 2.16992C144.216 2.16992 145.445 2.62565 146.389 3.53711C147.398 4.52995 147.902 5.68555 147.902 7.00391ZM155.471 20.0898C155.78 20.3503 156.081 20.627 156.374 20.9199C160.264 24.6634 162.209 29.1882 162.209 34.4941C162.209 39.8001 160.256 44.333 156.35 48.0928C152.508 51.8037 147.927 53.6592 142.604 53.6592C137.364 53.6592 132.806 51.82 128.933 48.1416C125.01 44.3981 123.049 39.9141 123.049 34.6895C123.049 29.3184 124.961 24.7448 128.786 20.9688C132.595 17.2253 137.201 15.3535 142.604 15.3535C146.429 15.3535 149.872 16.3057 152.932 18.21C153.29 18.0472 153.575 17.917 153.786 17.8193C154.112 17.6729 154.592 17.3636 155.227 16.8916C155.861 16.4196 156.219 15.8418 156.301 15.1582H154.714V10.7637H159.328V15.3047C159.214 16.1022 159.011 16.7695 158.718 17.3066C158.425 17.8275 158.067 18.2669 157.644 18.625C157.237 18.9831 156.879 19.2598 156.569 19.4551C156.309 19.6341 155.943 19.8457 155.471 20.0898ZM197.512 53H193.874L178.615 15.9883H182.717L195.754 48.4102L208.864 15.9883H212.868L197.512 53ZM245.729 53L240.358 40.5488H223.171L217.775 53H213.918L229.714 15.9883H233.864L249.758 53H245.729ZM231.813 20.2119L224.562 37.2041H238.918L231.813 20.2119ZM229.982 62.3994V56.0762H233.693V62.3994H229.982ZM236.208 12.9121L231.911 9.25L227.517 12.9121H222.976L230.227 6.66211H233.522L240.676 12.9121H236.208ZM262.844 19.3574V53H259.133V19.3574H250.637V15.9883H271.291V19.3574H262.844ZM324.05 43.3076C320.29 50.2087 314.61 53.6592 307.009 53.6592C301.67 53.6592 297.113 51.8118 293.337 48.1172C289.545 44.39 287.648 39.8652 287.648 34.543C287.648 29.1556 289.52 24.6146 293.264 20.9199C296.991 17.2415 301.556 15.4023 306.96 15.4023C312.803 15.4023 317.67 17.5996 321.56 21.9941C322.634 23.1986 323.415 24.3704 323.903 25.5098H319.753C316.726 21.0013 312.437 18.7471 306.887 18.7471C302.671 18.7471 299.017 20.3421 295.925 23.5322C292.881 26.6735 291.359 30.36 291.359 34.5918C291.359 38.7585 292.914 42.4124 296.022 45.5537C299.147 48.7113 302.793 50.29 306.96 50.29C309.548 50.29 311.981 49.6553 314.26 48.3857C316.376 47.1813 318.256 45.4886 319.899 43.3076H324.05ZM352.81 53V35.6416H333.669V53H329.958V15.9883H333.669V32.2969H352.81V15.9883H356.496V53H352.81ZM392.702 53L387.331 40.5488H370.144L364.748 53H360.891L376.687 15.9883H380.837L396.73 53H392.702ZM378.786 20.2119L371.535 37.2041H385.891L378.786 20.2119ZM384.816 8.98145L383.156 6.10059L393.117 0.631836L394.704 3.63477L384.816 8.98145ZM383.181 12.9121L378.884 9.25L374.489 12.9121H369.948L377.199 6.66211H380.495L387.648 12.9121H383.181ZM409.816 19.3574V53H406.105V19.3574H397.609V15.9883H418.264V19.3574H409.816Z" fill="#2B2B2B"/>
<path d="M36.5498 43.3076L36.9889 43.5468L37.3916 42.8076H36.5498V43.3076ZM5.83691 48.1172L5.48643 48.4738L5.48723 48.4746L5.83691 48.1172ZM5.76367 20.9199L5.41246 20.564L5.41245 20.5641L5.76367 20.9199ZM34.0596 21.9941L33.6852 22.3256L33.6864 22.3269L34.0596 21.9941ZM36.4033 25.5098V26.0098H37.1616L36.8629 25.3128L36.4033 25.5098ZM32.2529 25.5098L31.8378 25.7885L31.9864 26.0098H32.2529V25.5098ZM8.4248 23.5322L8.0658 23.1842L8.06571 23.1843L8.4248 23.5322ZM8.52246 45.5537L8.16707 45.9054L8.16708 45.9054L8.52246 45.5537ZM26.7598 48.3857L27.0031 48.8225L27.0071 48.8203L26.7598 48.3857ZM32.3994 43.3076V42.8076H32.1502L32.0001 43.0067L32.3994 43.3076ZM36.1107 43.0684C34.2653 46.4557 31.9622 48.9722 29.2101 50.644C26.4589 52.3152 23.2311 53.1592 19.5088 53.1592V54.1592C23.3874 54.1592 26.8002 53.2779 29.7293 51.4986C32.6576 49.7199 35.0745 47.0606 36.9889 43.5468L36.1107 43.0684ZM19.5088 53.1592C14.2994 53.1592 9.8681 51.362 6.18659 47.7598L5.48723 48.4746C9.35781 52.2617 14.0411 54.1592 19.5088 54.1592V53.1592ZM6.18739 47.7606C2.49082 44.1275 0.648438 39.7313 0.648438 34.543H-0.351562C-0.351562 39.9992 1.59837 44.6525 5.48643 48.4738L6.18739 47.7606ZM0.648438 34.543C0.648438 29.2857 2.46916 24.874 6.1149 21.2758L5.41245 20.5641C1.5712 24.3552 -0.351562 29.0255 -0.351562 34.543H0.648438ZM6.11489 21.2758C9.74525 17.693 14.1831 15.9023 19.46 15.9023V14.9023C13.9295 14.9023 9.23652 16.7901 5.41246 20.564L6.11489 21.2758ZM19.46 15.9023C25.1592 15.9023 29.8896 18.0377 33.6852 22.3255L34.434 21.6627C30.4496 17.1615 25.447 14.9023 19.46 14.9023V15.9023ZM33.6864 22.3269C34.7349 23.5026 35.4821 24.6295 35.9437 25.7067L36.8629 25.3128C36.348 24.1114 35.5326 22.8946 34.4327 21.6613L33.6864 22.3269ZM36.4033 25.0098H32.2529V26.0098H36.4033V25.0098ZM32.668 25.231C29.5454 20.5806 25.099 18.2471 19.3867 18.2471V19.2471C24.7747 19.2471 28.9058 21.422 31.8378 25.7885L32.668 25.231ZM19.3867 18.2471C15.028 18.2471 11.2467 19.9028 8.0658 23.1842L8.78381 23.8802C11.7878 20.7814 15.3145 19.2471 19.3867 19.2471V18.2471ZM8.06571 23.1843C4.9351 26.4154 3.35938 30.2254 3.35938 34.5918H4.35938C4.35938 30.4947 5.82727 26.9316 8.7839 23.8802L8.06571 23.1843ZM3.35938 34.5918C3.35938 38.8988 4.97193 42.6768 8.16707 45.9054L8.87785 45.202C5.85554 42.148 4.35938 38.6182 4.35938 34.5918H3.35938ZM8.16708 45.9054C11.3791 49.1509 15.1503 50.79 19.46 50.79V49.79C15.4363 49.79 11.9158 48.2716 8.87784 45.202L8.16708 45.9054ZM19.46 50.79C22.1337 50.79 24.6507 50.1332 27.0031 48.8225L26.5164 47.949C24.3116 49.1774 21.962 49.79 19.46 49.79V50.79ZM27.0071 48.8203C29.189 47.5783 31.1188 45.8373 32.7987 43.6086L32.0001 43.0067C30.3923 45.1399 28.5623 46.7844 26.5124 47.9512L27.0071 48.8203ZM32.3994 43.8076H36.5498V42.8076H32.3994V43.8076ZM49.1475 23.4102L48.7911 23.0594L48.7902 23.0603L49.1475 23.4102ZM49.2695 45.7002L49.6193 45.3429L49.6184 45.3421L49.2695 45.7002ZM71.5596 45.6758L71.2097 45.3185L71.2088 45.3195L71.5596 45.6758ZM73.2441 20.0898L73.0144 19.6457L72.3492 19.9898L72.9221 20.4723L73.2441 20.0898ZM74.1475 20.9199L73.7938 21.2735L73.8008 21.2802L74.1475 20.9199ZM74.123 48.0928L73.7763 47.7325L73.7756 47.7332L74.123 48.0928ZM46.7061 48.1416L46.3609 48.5033L46.3618 48.5042L46.7061 48.1416ZM46.5596 20.9688L46.2091 20.6122L46.2083 20.6129L46.5596 20.9688ZM70.7051 18.21L70.4409 18.6345L70.6682 18.7759L70.912 18.6651L70.7051 18.21ZM71.5596 17.8193L71.3544 17.3634L71.35 17.3654L71.5596 17.8193ZM74.0742 15.1582L74.5707 15.2173L74.6373 14.6582H74.0742V15.1582ZM72.4873 15.1582H71.9873V15.6582H72.4873V15.1582ZM72.4873 10.7637V10.2637H71.9873V10.7637H72.4873ZM77.1016 10.7637H77.6016V10.2637H77.1016V10.7637ZM77.1016 15.3047L77.5965 15.3754L77.6016 15.3402V15.3047H77.1016ZM76.4912 17.3066L76.927 17.5518L76.9302 17.5461L76.4912 17.3066ZM75.417 18.625L75.094 18.2432L75.0867 18.2496L75.417 18.625ZM74.3428 19.4551L74.0758 19.0323L74.0675 19.0375L74.0595 19.0431L74.3428 19.4551ZM76.7715 34.543C76.7715 30.0621 75.1544 26.2079 71.9366 23.0069L71.2314 23.7158C74.2635 26.7322 75.7715 30.3325 75.7715 34.543H76.7715ZM71.9366 23.0069C68.7194 19.8064 64.8579 18.1982 60.3779 18.1982V19.1982C64.5894 19.1982 68.1985 20.6988 71.2314 23.7158L71.9366 23.0069ZM60.3779 18.1982C55.849 18.1982 51.9773 19.823 48.7911 23.0594L49.5038 23.7609C52.5026 20.7148 56.1178 19.1982 60.3779 19.1982V18.1982ZM48.7902 23.0603C45.623 26.2946 44.0332 30.1798 44.0332 34.6895H45.0332C45.0332 30.4426 46.5196 26.8083 49.5047 23.76L48.7902 23.0603ZM44.0332 34.6895C44.0332 39.0937 45.6701 42.8916 48.9206 46.0583L49.6184 45.3421C46.5538 42.3564 45.0332 38.8139 45.0332 34.6895H44.0332ZM48.9197 46.0574C52.1359 49.2066 55.9634 50.79 60.3779 50.79V49.79C56.2313 49.79 52.6532 48.3136 49.6193 45.3429L48.9197 46.0574ZM60.3779 50.79C64.8405 50.79 68.6931 49.199 71.9103 46.0321L71.2088 45.3195C68.176 48.3049 64.5742 49.79 60.3779 49.79V50.79ZM71.9094 46.033C75.1455 42.864 76.7715 39.0249 76.7715 34.543H75.7715C75.7715 38.7525 74.2562 42.3352 71.2097 45.3185L71.9094 46.033ZM72.9221 20.4723C73.2201 20.7233 73.5108 20.9903 73.7939 21.2735L74.501 20.5664C74.1982 20.2636 73.8866 19.9772 73.5662 19.7074L72.9221 20.4723ZM73.8008 21.2802C77.5947 24.9313 79.4824 29.3267 79.4824 34.4941H80.4824C80.4824 29.0496 78.4802 24.3955 74.4942 20.5597L73.8008 21.2802ZM79.4824 34.4941C79.4824 39.6609 77.587 44.0647 73.7763 47.7325L74.4698 48.453C78.4715 44.6013 80.4824 39.9394 80.4824 34.4941H79.4824ZM73.7756 47.7332C70.0274 51.3544 65.5701 53.1592 60.3779 53.1592V54.1592C65.8303 54.1592 70.5364 52.253 74.4705 48.4524L73.7756 47.7332ZM60.3779 53.1592C55.2679 53.1592 50.8331 51.3711 47.0504 47.779L46.3618 48.5042C50.3264 52.2689 55.0062 54.1592 60.3779 54.1592V53.1592ZM47.0513 47.7799C43.2234 44.1267 41.3223 39.7717 41.3223 34.6895H40.3223C40.3223 40.0564 42.3437 44.6695 46.3609 48.5033L47.0513 47.7799ZM41.3223 34.6895C41.3223 29.4522 43.1811 25.0067 46.9108 21.3246L46.2083 20.6129C42.2883 24.4828 40.3223 29.1845 40.3223 34.6895H41.3223ZM46.9101 21.3253C50.6239 17.675 55.1037 15.8535 60.3779 15.8535V14.8535C54.8449 14.8535 50.1124 16.7755 46.2091 20.6122L46.9101 21.3253ZM60.3779 15.8535C64.1154 15.8535 67.4652 16.7826 70.4409 18.6345L70.9693 17.7855C67.8252 15.8288 64.2902 14.8535 60.3779 14.8535V15.8535ZM70.912 18.6651C71.2704 18.5022 71.5562 18.3716 71.7691 18.2733L71.35 17.3654C71.1397 17.4624 70.8559 17.5922 70.4982 17.7548L70.912 18.6651ZM71.7648 18.2753C72.1436 18.1048 72.6609 17.7669 73.2984 17.2928L72.7016 16.4904C72.0696 16.9604 71.6266 17.2409 71.3544 17.3634L71.7648 18.2753ZM73.2984 17.2928C74.0254 16.7522 74.4706 16.0581 74.5707 15.2173L73.5777 15.0991C73.5151 15.6255 73.2441 16.087 72.7016 16.4904L73.2984 17.2928ZM74.0742 14.6582H72.4873V15.6582H74.0742V14.6582ZM72.9873 15.1582V10.7637H71.9873V15.1582H72.9873ZM72.4873 11.2637H77.1016V10.2637H72.4873V11.2637ZM76.6016 10.7637V15.3047H77.6016V10.7637H76.6016ZM76.6066 15.234C76.4986 15.9901 76.3092 16.5962 76.0523 17.0672L76.9302 17.5461C77.2592 16.9428 77.4767 16.2144 77.5965 15.3754L76.6066 15.234ZM76.0554 17.0615C75.7893 17.5345 75.4683 17.9266 75.094 18.2433L75.74 19.0067C76.212 18.6073 76.6071 18.1204 76.927 17.5518L76.0554 17.0615ZM75.0867 18.2496C74.6911 18.5977 74.3548 18.8561 74.0758 19.0323L74.6098 19.8778C74.9492 19.6634 75.3291 19.3684 75.7473 19.0004L75.0867 18.2496ZM74.0595 19.0431C73.8239 19.205 73.4786 19.4057 73.0144 19.6457L73.4739 20.534C73.9537 20.2857 74.3408 20.0632 74.626 19.8671L74.0595 19.0431ZM116.359 50.5342L116.014 50.1727L116.013 50.1739L116.359 50.5342ZM100.368 50.6318L100.713 50.27L100.712 50.2687L100.368 50.6318ZM97.0967 42.6484V42.1484H96.5892L96.5967 42.6558L97.0967 42.6484ZM100.808 42.6484L101.307 42.6277L101.287 42.1484H100.808V42.6484ZM113.747 48.1904L114.097 48.548L114.097 48.5479L113.747 48.1904ZM113.332 37.5703L113.638 37.1752L113.636 37.1737L113.332 37.5703ZM110.695 36.0811L110.893 35.6218L110.884 35.6181L110.695 36.0811ZM107.692 35.0557L107.835 34.5764L107.834 34.5761L107.692 35.0557ZM103.981 33.7617L104.182 33.3038L104.175 33.3009L103.981 33.7617ZM100.93 32.0039L100.611 32.3891L100.614 32.3912L100.93 32.0039ZM101.149 18.1367L100.81 17.77L100.809 17.7702L101.149 18.1367ZM115.749 18.21L116.097 17.8506L116.097 17.8505L115.749 18.21ZM118.752 25.4121V25.9121H119.252V25.4121H118.752ZM115.041 25.4121H114.541V25.9121H115.041V25.4121ZM113.137 20.7002L113.497 20.3534L113.497 20.3533L113.137 20.7002ZM103.762 20.5293L104.104 20.8941L104.106 20.8919L103.762 20.5293ZM104.787 30.0508L104.541 30.486L104.544 30.4879L104.787 30.0508ZM107.644 31.2227L107.491 31.699L107.501 31.7019L107.644 31.2227ZM110.598 32.1016L110.742 31.6227L110.74 31.6223L110.598 32.1016ZM117.116 35.8857L117.486 35.5488L117.486 35.5487L117.116 35.8857ZM119.155 42.7949C119.155 45.7193 118.112 48.1681 116.014 50.1727L116.705 50.8957C119.002 48.701 120.155 45.9903 120.155 42.7949H119.155ZM116.013 50.1739C113.944 52.1652 111.448 53.1592 108.498 53.1592V54.1592C111.7 54.1592 114.446 53.0698 116.706 50.8944L116.013 50.1739ZM108.498 53.1592C105.304 53.1592 102.724 52.1878 100.713 50.27L100.023 50.9936C102.244 53.1123 105.084 54.1592 108.498 54.1592V53.1592ZM100.712 50.2687C98.6903 48.3552 97.6437 45.8288 97.5966 42.641L96.5967 42.6558C96.6473 46.0761 97.7817 48.872 100.024 50.995L100.712 50.2687ZM97.0967 43.1484H100.808V42.1484H97.0967V43.1484ZM100.308 42.6692C100.417 45.2905 101.134 47.3411 102.536 48.7343C103.942 50.1305 105.957 50.79 108.498 50.79V49.79C106.124 49.79 104.4 49.176 103.241 48.025C102.08 46.8709 101.41 45.1008 101.307 42.6277L100.308 42.6692ZM108.498 50.79C110.691 50.79 112.568 50.0423 114.097 48.548L113.398 47.8328C112.062 49.1381 110.439 49.79 108.498 49.79V50.79ZM114.097 48.5479C115.659 47.0206 116.444 45.1417 116.444 42.9414H115.444C115.444 44.8753 114.765 46.4957 113.398 47.8329L114.097 48.5479ZM116.444 42.9414C116.444 40.5592 115.504 38.6222 113.638 37.1752L113.026 37.9654C114.643 39.2203 115.444 40.864 115.444 42.9414H116.444ZM113.636 37.1737C112.896 36.6051 111.978 36.0893 110.893 35.6218L110.497 36.5403C111.528 36.9843 112.369 37.4613 113.028 37.967L113.636 37.1737ZM110.884 35.6181C110.066 35.2843 109.049 34.9372 107.835 34.5764L107.55 35.5349C108.745 35.8902 109.729 36.2268 110.506 36.544L110.884 35.6181ZM107.834 34.5761C106.297 34.1233 105.083 33.6988 104.182 33.3038L103.781 34.2196C104.736 34.6384 105.995 35.0766 107.551 35.5353L107.834 34.5761ZM104.175 33.3009C102.97 32.7933 101.997 32.2299 101.246 31.6166L100.614 32.3912C101.457 33.08 102.519 33.6885 103.787 34.2225L104.175 33.3009ZM101.248 31.6187C99.4972 30.1694 98.5977 28.0856 98.5977 25.29H97.5977C97.5977 28.3213 98.5861 30.7134 100.611 32.3891L101.248 31.6187ZM98.5977 25.29C98.5977 22.5423 99.5613 20.2927 101.49 18.5032L100.809 17.7702C98.6686 19.7568 97.5977 22.2761 97.5977 25.29H98.5977ZM101.489 18.5034C103.393 16.7392 105.718 15.8535 108.498 15.8535V14.8535C105.483 14.8535 102.91 15.8233 100.81 17.77L101.489 18.5034ZM108.498 15.8535C111.239 15.8535 113.53 16.7597 115.401 18.5694L116.097 17.8505C114.029 15.8516 111.486 14.8535 108.498 14.8535V15.8535ZM115.401 18.5693C117.303 20.409 118.252 22.6787 118.252 25.4121H119.252C119.252 22.4164 118.199 19.8846 116.097 17.8506L115.401 18.5693ZM118.752 24.9121H115.041V25.9121H118.752V24.9121ZM115.541 25.4121C115.541 23.4593 114.856 21.7645 113.497 20.3534L112.777 21.047C113.957 22.2726 114.541 23.7191 114.541 25.4121H115.541ZM113.497 20.3533C112.119 18.9237 110.444 18.1982 108.498 18.1982V19.1982C110.165 19.1982 111.582 19.8074 112.777 21.0471L113.497 20.3533ZM108.498 18.1982C106.506 18.1982 104.802 18.8525 103.417 20.1667L104.106 20.8919C105.293 19.7647 106.747 19.1982 108.498 19.1982V18.1982ZM103.42 20.1645C102.012 21.4839 101.309 23.156 101.309 25.1436H102.309C102.309 23.4201 102.907 22.0161 104.104 20.8941L103.42 20.1645ZM101.309 25.1436C101.309 27.4855 102.41 29.281 104.541 30.486L105.033 29.6156C103.193 28.5745 102.309 27.0985 102.309 25.1436H101.309ZM104.544 30.4879C105.316 30.9163 106.301 31.3188 107.491 31.6989L107.796 30.7464C106.642 30.3779 105.724 29.999 105.03 29.6137L104.544 30.4879ZM107.501 31.7019L110.455 32.5808L110.74 31.6223L107.786 30.7434L107.501 31.7019ZM110.454 32.5804C113.208 33.4083 115.293 34.6301 116.747 36.2228L117.486 35.5487C115.879 33.7885 113.619 32.4876 110.742 31.6227L110.454 32.5804ZM116.747 36.2227C118.347 37.977 119.155 40.1561 119.155 42.7949H120.155C120.155 39.9325 119.271 37.5054 117.486 35.5488L116.747 36.2227ZM131.374 23.4102L131.018 23.0594L131.017 23.0603L131.374 23.4102ZM131.496 45.7002L131.846 45.3429L131.845 45.3421L131.496 45.7002ZM153.786 45.6758L153.436 45.3185L153.435 45.3195L153.786 45.6758ZM147.219 9.20117L147.641 9.46961L147.219 9.20117ZM146.657 9.88477L146.293 9.54208L146.291 9.54454L146.657 9.88477ZM146.34 10.2266L146.689 10.5845L146.698 10.5758L146.706 10.5668L146.34 10.2266ZM145.339 11.2031L144.99 10.8452L144.974 10.8608L144.959 10.8777L145.339 11.2031ZM144.777 11.9355L144.365 11.6523L144.361 11.6582L144.777 11.9355ZM144.265 14.0596V14.5596H144.74L144.764 14.0845L144.265 14.0596ZM141.164 14.0596H140.664V14.5596H141.164V14.0596ZM141.848 10.9834L142.28 11.2353L142.282 11.2315L141.848 10.9834ZM142.507 10.1045L142.133 9.77228L142.128 9.77768L142.507 10.1045ZM143.142 9.46973L143.485 9.83325L143.488 9.82989L143.142 9.46973ZM143.801 8.83496L144.148 9.19512L144.158 9.18543L144.167 9.17519L143.801 8.83496ZM144.387 8.15137L144.78 8.46028L144.786 8.45297L144.791 8.44545L144.387 8.15137ZM144.143 5.34375L143.802 5.7097L143.803 5.71115L144.143 5.34375ZM140.847 5.70996L140.431 5.43261L140.847 5.70996ZM140.529 6.54004L141.021 6.62951L141.023 6.61802L140.529 6.54004ZM140.48 8.0293V8.5293H140.98V8.0293H140.48ZM137.331 8.0293H136.831V8.5293H137.331V8.0293ZM138.967 3.56152L138.628 3.19342L138.624 3.19726L138.967 3.56152ZM146.389 3.53711L146.739 3.18068L146.736 3.17741L146.389 3.53711ZM155.471 20.0898L155.241 19.6457L154.576 19.9898L155.149 20.4723L155.471 20.0898ZM156.374 20.9199L156.02 21.2735L156.027 21.2802L156.374 20.9199ZM156.35 48.0928L156.003 47.7325L156.002 47.7332L156.35 48.0928ZM128.933 48.1416L128.587 48.5033L128.588 48.5042L128.933 48.1416ZM128.786 20.9688L128.436 20.6122L128.435 20.6129L128.786 20.9688ZM152.932 18.21L152.667 18.6345L152.895 18.7759L153.139 18.6651L152.932 18.21ZM153.786 17.8193L153.581 17.3634L153.577 17.3654L153.786 17.8193ZM156.301 15.1582L156.797 15.2173L156.864 14.6582H156.301V15.1582ZM154.714 15.1582H154.214V15.6582H154.714V15.1582ZM154.714 10.7637V10.2637H154.214V10.7637H154.714ZM159.328 10.7637H159.828V10.2637H159.328V10.7637ZM159.328 15.3047L159.823 15.3754L159.828 15.3402V15.3047H159.328ZM158.718 17.3066L159.154 17.5518L159.157 17.5461L158.718 17.3066ZM157.644 18.625L157.321 18.2432L157.313 18.2496L157.644 18.625ZM156.569 19.4551L156.302 19.0323L156.294 19.0375L156.286 19.0431L156.569 19.4551ZM158.998 34.543C158.998 30.0621 157.381 26.2079 154.163 23.0069L153.458 23.7158C156.49 26.7322 157.998 30.3325 157.998 34.543H158.998ZM154.163 23.0069C150.946 19.8064 147.084 18.1982 142.604 18.1982V19.1982C146.816 19.1982 150.425 20.6988 153.458 23.7158L154.163 23.0069ZM142.604 18.1982C138.076 18.1982 134.204 19.823 131.018 23.0594L131.73 23.7609C134.729 20.7148 138.344 19.1982 142.604 19.1982V18.1982ZM131.017 23.0603C127.85 26.2946 126.26 30.1798 126.26 34.6895H127.26C127.26 30.4426 128.746 26.8083 131.731 23.76L131.017 23.0603ZM126.26 34.6895C126.26 39.0937 127.897 42.8916 131.147 46.0583L131.845 45.3421C128.78 42.3564 127.26 38.8139 127.26 34.6895H126.26ZM131.146 46.0574C134.362 49.2066 138.19 50.79 142.604 50.79V49.79C138.458 49.79 134.88 48.3136 131.846 45.3429L131.146 46.0574ZM142.604 50.79C147.067 50.79 150.92 49.199 154.137 46.0321L153.435 45.3195C150.403 48.3049 146.801 49.79 142.604 49.79V50.79ZM154.136 46.033C157.372 42.864 158.998 39.0249 158.998 34.543H157.998C157.998 38.7525 156.483 42.3352 153.436 45.3185L154.136 46.033ZM147.402 7.00391C147.402 7.64524 147.209 8.28579 146.797 8.93273L147.641 9.46961C148.14 8.68427 148.402 7.85997 148.402 7.00391H147.402ZM146.797 8.93273C146.708 9.07229 146.546 9.27338 146.293 9.54208L147.021 10.2274C147.289 9.94277 147.502 9.68813 147.641 9.46961L146.797 8.93273ZM146.291 9.54454L145.973 9.88634L146.706 10.5668L147.024 10.225L146.291 9.54454ZM145.991 9.86867L144.99 10.8452L145.688 11.561L146.689 10.5845L145.991 9.86867ZM144.959 10.8777C144.752 11.1197 144.554 11.378 144.365 11.6523L145.189 12.2188C145.359 11.9722 145.535 11.7422 145.718 11.5285L144.959 10.8777ZM144.361 11.6582C143.992 12.2129 143.815 13.033 143.765 14.0346L144.764 14.0845C144.812 13.133 144.977 12.5371 145.193 12.2129L144.361 11.6582ZM144.265 13.5596H141.164V14.5596H144.265V13.5596ZM141.664 14.0596V13.4004H140.664V14.0596H141.664ZM141.664 13.4004C141.664 12.6667 141.864 11.9472 142.28 11.2353L141.416 10.7315C140.92 11.5821 140.664 12.474 140.664 13.4004H141.664ZM142.282 11.2315C142.388 11.0454 142.583 10.7811 142.885 10.4313L142.128 9.77768C141.812 10.1441 141.568 10.4657 141.414 10.7353L142.282 11.2315ZM142.881 10.4367C142.996 10.3073 143.194 10.108 143.485 9.83323L142.798 9.10622C142.503 9.3848 142.279 9.60872 142.133 9.77231L142.881 10.4367ZM143.488 9.82989L144.148 9.19512L143.454 8.4748L142.795 9.10957L143.488 9.82989ZM144.167 9.17519C144.387 8.93798 144.592 8.69969 144.78 8.46028L143.994 7.84246C143.824 8.05877 143.637 8.27621 143.434 8.49474L144.167 9.17519ZM144.791 8.44545C145.113 8.00261 145.277 7.50105 145.277 6.95508H144.277C144.277 7.28801 144.181 7.58398 143.982 7.85728L144.791 8.44545ZM145.277 6.95508C145.277 6.16032 145.027 5.4793 144.482 4.97635L143.803 5.71115C144.105 5.98945 144.277 6.38265 144.277 6.95508H145.277ZM144.483 4.9778C143.942 4.47371 143.329 4.18457 142.653 4.18457V5.18457C143.019 5.18457 143.399 5.33489 143.802 5.7097L144.483 4.9778ZM142.653 4.18457C141.719 4.18457 140.968 4.6259 140.431 5.43261L141.263 5.98731C141.636 5.42683 142.09 5.18457 142.653 5.18457V4.18457ZM140.431 5.43261C140.225 5.74078 140.095 6.08638 140.035 6.46206L141.023 6.61802C141.062 6.37521 141.143 6.16743 141.263 5.98731L140.431 5.43261ZM140.037 6.4506C140.014 6.58149 140.001 6.78563 139.993 7.03025C139.985 7.28624 139.98 7.6199 139.98 8.0293H140.98C140.98 7.62489 140.985 7.30344 140.992 7.06302C141.001 6.81122 141.012 6.67762 141.021 6.62948L140.037 6.4506ZM140.48 7.5293H137.331V8.5293H140.48V7.5293ZM137.831 8.0293V7.07715H136.831V8.0293H137.831ZM137.831 7.07715C137.831 5.91601 138.304 4.87074 139.309 3.92578L138.624 3.19726C137.448 4.30308 136.831 5.60157 136.831 7.07715H137.831ZM139.305 3.92961C140.214 3.09387 141.335 2.66992 142.702 2.66992V1.66992C141.107 1.66992 139.738 2.17371 138.628 3.19344L139.305 3.92961ZM142.702 2.66992C144.108 2.66992 145.205 3.08922 146.041 3.89681L146.736 3.17741C145.684 2.16209 144.324 1.66992 142.702 1.66992V2.66992ZM146.038 3.89353C146.959 4.80006 147.402 5.83015 147.402 7.00391H148.402C148.402 5.54095 147.836 4.25983 146.739 3.18069L146.038 3.89353ZM155.149 20.4723C155.447 20.7233 155.737 20.9903 156.02 21.2735L156.728 20.5664C156.425 20.2636 156.113 19.9772 155.793 19.7074L155.149 20.4723ZM156.027 21.2802C159.821 24.9313 161.709 29.3267 161.709 34.4941H162.709C162.709 29.0496 160.707 24.3955 156.721 20.5597L156.027 21.2802ZM161.709 34.4941C161.709 39.6609 159.814 44.0647 156.003 47.7325L156.696 48.453C160.698 44.6013 162.709 39.9394 162.709 34.4941H161.709ZM156.002 47.7332C152.254 51.3544 147.797 53.1592 142.604 53.1592V54.1592C148.057 54.1592 152.763 52.253 156.697 48.4524L156.002 47.7332ZM142.604 53.1592C137.494 53.1592 133.06 51.3711 129.277 47.779L128.588 48.5042C132.553 52.2689 137.233 54.1592 142.604 54.1592V53.1592ZM129.278 47.7799C125.45 44.1267 123.549 39.7717 123.549 34.6895H122.549C122.549 40.0564 124.57 44.6695 128.587 48.5033L129.278 47.7799ZM123.549 34.6895C123.549 29.4522 125.408 25.0067 129.137 21.3246L128.435 20.6129C124.515 24.4828 122.549 29.1845 122.549 34.6895H123.549ZM129.137 21.3253C132.85 17.675 137.33 15.8535 142.604 15.8535V14.8535C137.071 14.8535 132.339 16.7755 128.436 20.6122L129.137 21.3253ZM142.604 15.8535C146.342 15.8535 149.692 16.7826 152.667 18.6345L153.196 17.7855C150.052 15.8288 146.517 14.8535 142.604 14.8535V15.8535ZM153.139 18.6651C153.497 18.5022 153.783 18.3716 153.996 18.2733L153.577 17.3654C153.366 17.4624 153.082 17.5922 152.725 17.7548L153.139 18.6651ZM153.991 18.2753C154.37 18.1048 154.887 17.7669 155.525 17.2928L154.928 16.4904C154.296 16.9604 153.853 17.2409 153.581 17.3634L153.991 18.2753ZM155.525 17.2928C156.252 16.7522 156.697 16.0581 156.797 15.2173L155.804 15.0991C155.742 15.6255 155.471 16.087 154.928 16.4904L155.525 17.2928ZM156.301 14.6582H154.714V15.6582H156.301V14.6582ZM155.214 15.1582V10.7637H154.214V15.1582H155.214ZM154.714 11.2637H159.328V10.2637H154.714V11.2637ZM158.828 10.7637V15.3047H159.828V10.7637H158.828ZM158.833 15.234C158.725 15.9901 158.536 16.5962 158.279 17.0672L159.157 17.5461C159.486 16.9428 159.703 16.2144 159.823 15.3754L158.833 15.234ZM158.282 17.0615C158.016 17.5345 157.695 17.9266 157.321 18.2433L157.967 19.0067C158.439 18.6073 158.834 18.1204 159.154 17.5518L158.282 17.0615ZM157.313 18.2496C156.918 18.5977 156.581 18.8561 156.302 19.0323L156.836 19.8778C157.176 19.6634 157.556 19.3684 157.974 19.0004L157.313 18.2496ZM156.286 19.0431C156.05 19.205 155.705 19.4057 155.241 19.6457L155.7 20.534C156.18 20.2857 156.567 20.0632 156.853 19.8671L156.286 19.0431ZM197.512 53V53.5H197.846L197.974 53.1916L197.512 53ZM193.874 53L193.412 53.1906L193.539 53.5H193.874V53ZM178.615 15.9883V15.4883H177.868L178.153 16.1789L178.615 15.9883ZM182.717 15.9883L183.181 15.8017L183.055 15.4883H182.717V15.9883ZM195.754 48.4102L195.29 48.5967L195.753 49.7471L196.217 48.5976L195.754 48.4102ZM208.864 15.9883V15.4883H208.527L208.401 15.8008L208.864 15.9883ZM212.868 15.9883L213.33 16.1799L213.617 15.4883H212.868V15.9883ZM197.512 52.5H193.874V53.5H197.512V52.5ZM194.336 52.8094L179.077 15.7977L178.153 16.1789L193.412 53.1906L194.336 52.8094ZM178.615 16.4883H182.717V15.4883H178.615V16.4883ZM182.253 16.1748L195.29 48.5967L196.218 48.2236L183.181 15.8017L182.253 16.1748ZM196.217 48.5976L209.328 16.1757L208.401 15.8008L195.29 48.2227L196.217 48.5976ZM208.864 16.4883H212.868V15.4883H208.864V16.4883ZM212.406 15.7967L197.05 52.8084L197.974 53.1916L213.33 16.1799L212.406 15.7967ZM245.729 53L245.27 53.198L245.401 53.5H245.729V53ZM240.358 40.5488L240.818 40.3508L240.687 40.0488H240.358V40.5488ZM223.171 40.5488V40.0488H222.843L222.712 40.35L223.171 40.5488ZM217.775 53V53.5H218.104L218.234 53.1988L217.775 53ZM213.918 53L213.458 52.8037L213.161 53.5H213.918V53ZM229.714 15.9883V15.4883H229.384L229.254 15.792L229.714 15.9883ZM233.864 15.9883L234.324 15.791L234.194 15.4883H233.864V15.9883ZM249.758 53V53.5H250.517L250.217 52.8027L249.758 53ZM231.813 20.2119L232.275 20.019L231.818 18.927L231.354 20.0157L231.813 20.2119ZM224.562 37.2041L224.103 37.0079L223.806 37.7041H224.562V37.2041ZM238.918 37.2041V37.7041H239.669L239.379 37.0112L238.918 37.2041ZM229.982 62.3994H229.482V62.8994H229.982V62.3994ZM229.982 56.0762V55.5762H229.482V56.0762H229.982ZM233.693 56.0762H234.193V55.5762H233.693V56.0762ZM233.693 62.3994V62.8994H234.193V62.3994H233.693ZM236.208 12.9121L235.884 13.2927L236.024 13.4121H236.208V12.9121ZM231.911 9.25L232.235 8.86946L231.915 8.59613L231.591 8.86589L231.911 9.25ZM227.517 12.9121V13.4121H227.698L227.837 13.2962L227.517 12.9121ZM222.976 12.9121L222.649 12.5334L221.63 13.4121H222.976V12.9121ZM230.227 6.66211V6.16211H230.041L229.9 6.28338L230.227 6.66211ZM233.522 6.66211L233.851 6.28558L233.71 6.16211H233.522V6.66211ZM240.676 12.9121V13.4121H242.008L241.005 12.5356L240.676 12.9121ZM246.189 52.802L240.818 40.3508L239.899 40.7469L245.27 53.198L246.189 52.802ZM240.358 40.0488H223.171V41.0488H240.358V40.0488ZM222.712 40.35L217.317 52.8012L218.234 53.1988L223.63 40.7476L222.712 40.35ZM217.775 52.5H213.918V53.5H217.775V52.5ZM214.378 53.1963L230.174 16.1845L229.254 15.792L213.458 52.8037L214.378 53.1963ZM229.714 16.4883H233.864V15.4883H229.714V16.4883ZM233.405 16.1856L249.298 53.1973L250.217 52.8027L234.324 15.791L233.405 16.1856ZM249.758 52.5H245.729V53.5H249.758V52.5ZM231.354 20.0157L224.103 37.0079L225.022 37.4003L232.273 20.4082L231.354 20.0157ZM224.562 37.7041H238.918V36.7041H224.562V37.7041ZM239.379 37.0112L232.275 20.019L231.352 20.4048L238.457 37.397L239.379 37.0112ZM230.482 62.3994V56.0762H229.482V62.3994H230.482ZM229.982 56.5762H233.693V55.5762H229.982V56.5762ZM233.193 56.0762V62.3994H234.193V56.0762H233.193ZM233.693 61.8994H229.982V62.8994H233.693V61.8994ZM236.532 12.5316L232.235 8.86946L231.587 9.63054L235.884 13.2927L236.532 12.5316ZM231.591 8.86589L227.197 12.528L227.837 13.2962L232.231 9.63411L231.591 8.86589ZM227.517 12.4121H222.976V13.4121H227.517V12.4121ZM223.302 13.2908L230.553 7.04084L229.9 6.28338L222.649 12.5334L223.302 13.2908ZM230.227 7.16211H233.522V6.16211H230.227V7.16211ZM233.193 7.03864L240.347 13.2886L241.005 12.5356L233.851 6.28558L233.193 7.03864ZM240.676 12.4121H236.208V13.4121H240.676V12.4121ZM262.844 19.3574V18.8574H262.344V19.3574H262.844ZM262.844 53V53.5H263.344V53H262.844ZM259.133 53H258.633V53.5H259.133V53ZM259.133 19.3574H259.633V18.8574H259.133V19.3574ZM250.637 19.3574H250.137V19.8574H250.637V19.3574ZM250.637 15.9883V15.4883H250.137V15.9883H250.637ZM271.291 15.9883H271.791V15.4883H271.291V15.9883ZM271.291 19.3574V19.8574H271.791V19.3574H271.291ZM262.344 19.3574V53H263.344V19.3574H262.344ZM262.844 52.5H259.133V53.5H262.844V52.5ZM259.633 53V19.3574H258.633V53H259.633ZM259.133 18.8574H250.637V19.8574H259.133V18.8574ZM251.137 19.3574V15.9883H250.137V19.3574H251.137ZM250.637 16.4883H271.291V15.4883H250.637V16.4883ZM270.791 15.9883V19.3574H271.791V15.9883H270.791ZM271.291 18.8574H262.844V19.8574H271.291V18.8574ZM324.05 43.3076L324.489 43.5468L324.892 42.8076H324.05V43.3076ZM293.337 48.1172L292.986 48.4738L292.987 48.4746L293.337 48.1172ZM293.264 20.9199L292.912 20.564V20.5641L293.264 20.9199ZM321.56 21.9941L321.185 22.3256L321.186 22.3269L321.56 21.9941ZM323.903 25.5098V26.0098H324.662L324.363 25.3128L323.903 25.5098ZM319.753 25.5098L319.338 25.7885L319.486 26.0098H319.753V25.5098ZM295.925 23.5322L295.566 23.1842L295.566 23.1843L295.925 23.5322ZM296.022 45.5537L295.667 45.9054V45.9054L296.022 45.5537ZM314.26 48.3857L314.503 48.8225L314.507 48.8203L314.26 48.3857ZM319.899 43.3076V42.8076H319.65L319.5 43.0067L319.899 43.3076ZM323.611 43.0684C321.765 46.4557 319.462 48.9722 316.71 50.644C313.959 52.3152 310.731 53.1592 307.009 53.1592V54.1592C310.887 54.1592 314.3 53.2779 317.229 51.4986C320.158 49.7199 322.575 47.0606 324.489 43.5468L323.611 43.0684ZM307.009 53.1592C301.799 53.1592 297.368 51.362 293.687 47.7598L292.987 48.4746C296.858 52.2617 301.541 54.1592 307.009 54.1592V53.1592ZM293.687 47.7606C289.991 44.1275 288.148 39.7313 288.148 34.543H287.148C287.148 39.9992 289.098 44.6525 292.986 48.4738L293.687 47.7606ZM288.148 34.543C288.148 29.2857 289.969 24.874 293.615 21.2758L292.912 20.5641C289.071 24.3552 287.148 29.0255 287.148 34.543H288.148ZM293.615 21.2758C297.245 17.693 301.683 15.9023 306.96 15.9023V14.9023C301.43 14.9023 296.737 16.7901 292.912 20.564L293.615 21.2758ZM306.96 15.9023C312.659 15.9023 317.39 18.0377 321.185 22.3255L321.934 21.6627C317.95 17.1615 312.947 14.9023 306.96 14.9023V15.9023ZM321.186 22.3269C322.235 23.5026 322.982 24.6295 323.444 25.7067L324.363 25.3128C323.848 24.1114 323.033 22.8946 321.933 21.6613L321.186 22.3269ZM323.903 25.0098H319.753V26.0098H323.903V25.0098ZM320.168 25.231C317.045 20.5806 312.599 18.2471 306.887 18.2471V19.2471C312.275 19.2471 316.406 21.422 319.338 25.7885L320.168 25.231ZM306.887 18.2471C302.528 18.2471 298.747 19.9028 295.566 23.1842L296.284 23.8802C299.288 20.7814 302.814 19.2471 306.887 19.2471V18.2471ZM295.566 23.1843C292.435 26.4154 290.859 30.2254 290.859 34.5918H291.859C291.859 30.4947 293.327 26.9316 296.284 23.8802L295.566 23.1843ZM290.859 34.5918C290.859 38.8988 292.472 42.6768 295.667 45.9054L296.378 45.202C293.356 42.148 291.859 38.6182 291.859 34.5918H290.859ZM295.667 45.9054C298.879 49.1509 302.65 50.79 306.96 50.79V49.79C302.936 49.79 299.416 48.2716 296.378 45.202L295.667 45.9054ZM306.96 50.79C309.634 50.79 312.151 50.1332 314.503 48.8225L314.016 47.949C311.812 49.1774 309.462 49.79 306.96 49.79V50.79ZM314.507 48.8203C316.689 47.5783 318.619 45.8373 320.299 43.6086L319.5 43.0067C317.892 45.1399 316.062 46.7844 314.012 47.9512L314.507 48.8203ZM319.899 43.8076H324.05V42.8076H319.899V43.8076ZM352.81 53H352.31V53.5H352.81V53ZM352.81 35.6416H353.31V35.1416H352.81V35.6416ZM333.669 35.6416V35.1416H333.169V35.6416H333.669ZM333.669 53V53.5H334.169V53H333.669ZM329.958 53H329.458V53.5H329.958V53ZM329.958 15.9883V15.4883H329.458V15.9883H329.958ZM333.669 15.9883H334.169V15.4883H333.669V15.9883ZM333.669 32.2969H333.169V32.7969H333.669V32.2969ZM352.81 32.2969V32.7969H353.31V32.2969H352.81ZM352.81 15.9883V15.4883H352.31V15.9883H352.81ZM356.496 15.9883H356.996V15.4883H356.496V15.9883ZM356.496 53V53.5H356.996V53H356.496ZM353.31 53V35.6416H352.31V53H353.31ZM352.81 35.1416H333.669V36.1416H352.81V35.1416ZM333.169 35.6416V53H334.169V35.6416H333.169ZM333.669 52.5H329.958V53.5H333.669V52.5ZM330.458 53V15.9883H329.458V53H330.458ZM329.958 16.4883H333.669V15.4883H329.958V16.4883ZM333.169 15.9883V32.2969H334.169V15.9883H333.169ZM333.669 32.7969H352.81V31.7969H333.669V32.7969ZM353.31 32.2969V15.9883H352.31V32.2969H353.31ZM352.81 16.4883H356.496V15.4883H352.81V16.4883ZM355.996 15.9883V53H356.996V15.9883H355.996ZM356.496 52.5H352.81V53.5H356.496V52.5ZM392.702 53L392.243 53.198L392.373 53.5H392.702V53ZM387.331 40.5488L387.79 40.3508L387.66 40.0488H387.331V40.5488ZM370.144 40.5488V40.0488H369.815L369.685 40.35L370.144 40.5488ZM364.748 53V53.5H365.076L365.207 53.1988L364.748 53ZM360.891 53L360.431 52.8037L360.134 53.5H360.891V53ZM376.687 15.9883V15.4883H376.356L376.227 15.792L376.687 15.9883ZM380.837 15.9883L381.296 15.791L381.166 15.4883H380.837V15.9883ZM396.73 53V53.5H397.489L397.19 52.8027L396.73 53ZM378.786 20.2119L379.247 20.019L378.791 18.927L378.326 20.0157L378.786 20.2119ZM371.535 37.2041L371.075 37.0079L370.778 37.7041H371.535V37.2041ZM385.891 37.2041V37.7041H386.642L386.352 37.0112L385.891 37.2041ZM384.816 8.98145L384.383 9.23109L384.626 9.65273L385.054 9.42126L384.816 8.98145ZM383.156 6.10059L382.916 5.6623L382.468 5.90796L382.723 6.35024L383.156 6.10059ZM393.117 0.631836L393.559 0.398222L393.322 -0.0509489L392.877 0.193547L393.117 0.631836ZM394.704 3.63477L394.942 4.07458L395.378 3.83902L395.146 3.40115L394.704 3.63477ZM383.181 12.9121L382.856 13.2927L382.996 13.4121H383.181V12.9121ZM378.884 9.25L379.208 8.86946L378.887 8.59613L378.564 8.86589L378.884 9.25ZM374.489 12.9121V13.4121H374.67L374.809 13.2962L374.489 12.9121ZM369.948 12.9121L369.622 12.5334L368.602 13.4121H369.948V12.9121ZM377.199 6.66211V6.16211H377.013L376.873 6.28338L377.199 6.66211ZM380.495 6.66211L380.824 6.28558L380.683 6.16211H380.495V6.66211ZM387.648 12.9121V13.4121H388.981L387.977 12.5356L387.648 12.9121ZM393.161 52.802L387.79 40.3508L386.872 40.7469L392.243 53.198L393.161 52.802ZM387.331 40.0488H370.144V41.0488H387.331V40.0488ZM369.685 40.35L364.289 52.8012L365.207 53.1988L370.602 40.7476L369.685 40.35ZM364.748 52.5H360.891V53.5H364.748V52.5ZM361.35 53.1963L377.146 16.1845L376.227 15.792L360.431 52.8037L361.35 53.1963ZM376.687 16.4883H380.837V15.4883H376.687V16.4883ZM380.377 16.1856L396.271 53.1973L397.19 52.8027L381.296 15.791L380.377 16.1856ZM396.73 52.5H392.702V53.5H396.73V52.5ZM378.326 20.0157L371.075 37.0079L371.995 37.4003L379.246 20.4082L378.326 20.0157ZM371.535 37.7041H385.891V36.7041H371.535V37.7041ZM386.352 37.0112L379.247 20.019L378.325 20.4048L385.429 37.397L386.352 37.0112ZM385.25 8.7318L383.589 5.85094L382.723 6.35024L384.383 9.23109L385.25 8.7318ZM383.397 6.53888L393.358 1.07013L392.877 0.193547L382.916 5.6623L383.397 6.53888ZM392.675 0.865449L394.262 3.86838L395.146 3.40115L393.559 0.398222L392.675 0.865449ZM394.466 3.19495L384.579 8.54163L385.054 9.42126L394.942 4.07458L394.466 3.19495ZM383.505 12.5316L379.208 8.86946L378.559 9.63054L382.856 13.2927L383.505 12.5316ZM378.564 8.86589L374.169 12.528L374.809 13.2962L379.204 9.63411L378.564 8.86589ZM374.489 12.4121H369.948V13.4121H374.489V12.4121ZM370.275 13.2908L377.526 7.04084L376.873 6.28338L369.622 12.5334L370.275 13.2908ZM377.199 7.16211H380.495V6.16211H377.199V7.16211ZM380.166 7.03864L387.319 13.2886L387.977 12.5356L380.824 6.28558L380.166 7.03864ZM387.648 12.4121H383.181V13.4121H387.648V12.4121ZM409.816 19.3574V18.8574H409.316V19.3574H409.816ZM409.816 53V53.5H410.316V53H409.816ZM406.105 53H405.605V53.5H406.105V53ZM406.105 19.3574H406.605V18.8574H406.105V19.3574ZM397.609 19.3574H397.109V19.8574H397.609V19.3574ZM397.609 15.9883V15.4883H397.109V15.9883H397.609ZM418.264 15.9883H418.764V15.4883H418.264V15.9883ZM418.264 19.3574V19.8574H418.764V19.3574H418.264ZM409.316 19.3574V53H410.316V19.3574H409.316ZM409.816 52.5H406.105V53.5H409.816V52.5ZM406.605 53V19.3574H405.605V53H406.605ZM406.105 18.8574H397.609V19.8574H406.105V18.8574ZM398.109 19.3574V15.9883H397.109V19.3574H398.109ZM397.609 16.4883H418.264V15.4883H397.609V16.4883ZM417.764 15.9883V19.3574H418.764V15.9883H417.764ZM418.264 18.8574H409.816V19.8574H418.264V18.8574Z" fill="#2B2B2B"/>
</svg>
