<svg width="264" height="74" viewBox="0 0 264 74" fill="none" xmlns="http://www.w3.org/2000/svg">
<path d="M25.8828 59V41.2461H11.3516V59H0.0136719V14.5859H11.3516V31.2852H25.8828V14.5859H37.2207V59H25.8828ZM45.248 59V14.5859H56.5859V59H45.248ZM64.6426 59V14.5859H89.3105V24.5469H75.5117V31.4609H88.9004V41.4219H75.5117V49.0391H89.3105V59H64.6426ZM72.2305 73.3848V64.332H81.752V73.3848H72.2305ZM79.584 10.6895L76.8301 7.23242L74.0762 10.6895H64.3496L73.6953 0.728516H80.1992L89.1934 10.6895H79.584ZM123.939 59L107.035 31.9883L106.889 32.0469L107.211 59H96.3418V14.5859H106.127L123.295 42.5059L123.412 42.3887L122.914 14.5859H133.783V59H123.939ZM200.58 36.6758C200.58 43.4336 198.676 48.8242 194.867 52.8477C190.961 56.9492 185.648 59 178.93 59H162.172V41.2461H158.158V31.2852H162.172V14.5859H177.113C179.281 14.5859 181.186 14.7031 182.826 14.9375C184.721 15.1719 186.42 15.5723 187.924 16.1387C191.283 17.4082 194.145 19.6543 196.508 22.877C199.223 26.6465 200.58 31.2461 200.58 36.6758ZM189.242 36.8516C189.242 33.1211 188.383 30.1914 186.664 28.0625C184.809 25.7188 182.064 24.5469 178.432 24.5469H173.51V31.2852H179.984V41.2461H173.51V49.0391H178.373C182.084 49.0391 184.867 47.9062 186.723 45.6406C188.402 43.5703 189.242 40.6406 189.242 36.8516ZM235.355 59L233.188 52.584H217.777L215.434 59H203.246L221.059 14.5859H229.994L247.66 59H235.355ZM225.629 28.4141H225.453L220.883 43.5898H230.199L225.629 28.4141ZM220.678 73.3848V64.332H230.229V73.3848H220.678ZM252.201 59V14.5859H263.539V59H252.201Z" fill="url(#paint0_linear_615_5601)"/>
<defs>
<linearGradient id="paint0_linear_615_5601" x1="-4" y1="61" x2="268" y2="61" gradientUnits="userSpaceOnUse">
<stop stop-color="#DFAA23"/>
<stop offset="0.479167" stop-color="#FBF08D"/>
<stop offset="1" stop-color="#DFAA23"/>
</linearGradient>
</defs>
</svg>
