<svg width="134" height="134" viewBox="0 0 134 134" fill="none" xmlns="http://www.w3.org/2000/svg">
<circle cx="67" cy="67" r="66.5" fill="white" stroke="#025899"/>
<path d="M79.7041 68.0742C79.195 68.0742 78.6012 68.0742 78.0921 67.9894C77.5831 67.9894 76.9892 67.9045 76.5651 67.9045C76.056 67.9045 75.6318 67.9045 75.2925 67.9894H70.4567H53.4043C53.2346 67.9894 52.9801 67.9894 52.7256 67.9894C52.5559 67.9894 52.3014 67.9894 52.1317 67.9894C51.453 67.9894 51.2833 67.8197 51.1985 67.7348C50.0107 65.9532 48.314 65.6987 46.8718 65.6987C46.4476 65.6987 46.1082 65.6987 45.684 65.6987C45.3447 65.6987 45.0054 65.6987 44.666 65.6987H44.3266C42.036 65.6987 39.7454 65.3594 37.5396 65.02C35.249 64.6807 32.8735 64.3413 30.498 64.3413C29.9042 64.3413 29.3103 64.3413 28.7164 64.4262C28.6316 64.4262 28.5468 64.4262 28.5468 64.4262C28.0378 64.4262 27.6984 64.2565 27.359 64.002C26.9348 63.5778 26.6803 62.8991 26.7652 62.3052C27.1045 58.6572 26.5106 55.094 25.9168 51.7005C25.5774 49.9189 25.3229 48.1373 25.0684 46.2708C24.5594 41.5199 26.9348 39.399 30.7526 37.5325C37.1154 34.4784 44.2418 32.6119 53.1498 31.6787C57.6462 31.2545 62.0578 31 66.3845 31C75.8863 31 85.0489 32.1029 93.7872 34.3935C98.623 35.6661 102.95 37.787 106.852 39.908C107.87 40.5019 108.294 41.0957 108.21 42.1138C108.21 43.1318 108.21 44.2347 108.294 45.2528C108.379 47.2889 108.549 49.2402 107.87 51.0218C106.852 53.8214 106.767 56.5362 106.598 59.251C106.513 60.3539 106.513 61.4568 106.428 62.4749C106.343 63.7475 105.41 64.511 104.053 64.511C103.968 64.511 103.883 64.511 103.798 64.511C103.289 64.511 102.865 64.511 102.356 64.511C99.8955 64.511 97.4352 64.8503 95.0598 65.1897C92.7691 65.529 90.3088 65.8684 87.9334 65.8684C87.1698 65.8684 86.4911 65.8684 85.8972 65.7836C85.7276 65.7836 85.473 65.7836 85.2185 65.7836C84.455 65.7836 83.946 65.9532 83.6915 66.2926C82.7582 67.8197 81.1463 68.0742 79.7041 68.0742ZM77.3286 50.5976C76.6499 50.5976 75.9712 50.6824 75.2077 50.8521C69.778 52.2095 68.0813 54.5001 68.0813 60.2691V61.5417C68.0813 64.7655 68.0812 65.7836 70.7112 65.7836C71.0506 65.7836 71.3899 65.7836 71.7293 65.7836C72.2383 65.7836 72.8322 65.7836 73.5109 65.7836H75.3773C78.0921 65.7836 79.4496 65.6139 80.2979 64.8503C81.316 63.9171 81.316 62.3052 81.2311 59.0814C81.2311 58.6572 81.2311 58.233 81.2311 57.724C81.2311 56.7059 81.2311 55.7727 81.2311 54.7546C81.2311 51.3611 79.1102 50.5976 77.3286 50.5976ZM52.2165 58.1481C52.1317 58.233 52.0469 58.4027 52.0469 58.4875V59.1662C52.0469 59.6752 52.0469 60.1843 52.0469 60.6933C52.0469 63.0688 52.0469 64.2565 52.8104 64.9352C53.574 65.6139 54.9314 65.6139 57.5613 65.6139H58.4946C61.5487 65.6139 63.3303 65.529 64.3484 64.6807C65.4513 63.7475 65.3665 61.9659 65.2816 58.5723C65.1119 54.4153 62.3971 51.4459 57.731 50.5976C57.1371 50.5127 56.6281 50.4279 56.2039 50.4279C54.7617 50.4279 52.3863 50.9369 52.3014 54.3304C52.3014 55.2637 52.3014 56.1969 52.3014 57.1301C52.2166 57.5543 52.2165 57.8936 52.2165 58.1481ZM43.6479 63.4929C44.4963 63.4929 45.2598 63.4929 45.8537 63.5778C46.2779 63.5778 46.6172 63.5778 46.9566 63.5778C47.6353 63.5778 48.2292 63.4929 48.6533 63.1536C49.2472 62.6446 49.2472 61.7113 49.2472 59.5056V58.1481C49.2472 57.6391 49.2472 57.1301 49.2472 56.6211C49.2472 53.6517 47.296 51.4459 44.0721 50.5976C43.5631 50.4279 43.0541 50.4279 42.6299 50.4279C41.7815 50.4279 40.2544 50.7672 40.1695 52.8034C40.0847 53.9911 39.9999 55.1788 39.9999 56.0272V56.8756C39.9999 57.5543 39.9999 58.0633 39.9999 58.4875C39.9999 59.4207 39.9999 60.0994 39.915 60.7781C39.8302 61.7113 39.9999 62.39 40.4241 62.8142C41.018 63.4081 42.036 63.4929 42.7147 63.4929C42.7995 63.4929 43.4783 63.4929 43.6479 63.4929ZM90.6481 50.5127C90.2239 50.5127 89.6301 50.5976 89.0362 50.7672C87.5092 51.1066 86.4062 52.0398 85.5579 52.8882C84.0308 54.4153 84.0308 56.112 84.1157 57.8088C84.1157 58.5723 84.2005 59.251 84.0308 59.9297C83.7763 61.2023 83.946 62.1355 84.5398 62.7294C85.1337 63.3233 85.9821 63.5778 87.4243 63.5778C87.594 63.5778 87.8485 63.5778 88.103 63.5778H88.5272C93.0236 63.3233 93.2781 63.1536 93.2781 58.8268V57.2998C93.2781 56.8756 93.2781 56.5362 93.2781 56.112C93.2781 55.2637 93.2781 54.3304 93.2781 53.4821C93.2781 51.4459 92.3449 50.5127 90.6481 50.5127ZM32.0251 51.1066C31.8554 51.1066 31.6858 51.1066 31.5161 51.1066C29.2255 51.4459 29.3103 52.973 29.3952 53.9063C29.3952 54.2456 29.48 54.585 29.3952 54.9243C29.3103 55.3485 29.3103 55.6878 29.3103 56.112C29.3103 56.2817 29.3103 56.3666 29.3103 56.5362V57.2149C29.3103 57.724 29.3103 58.233 29.3103 58.8268C29.3951 60.863 31.5161 62.5597 33.9764 62.5597C34.8248 62.5597 35.6731 62.39 36.3518 61.9659C36.9457 61.6265 37.2851 61.1175 37.2851 60.4388C37.2851 59.9297 37.2851 59.3359 37.2851 58.8268C37.2851 57.4694 37.2851 56.0272 37.1154 54.6698C36.8609 52.8034 34.0612 51.1066 32.0251 51.1066ZM101.423 51.1066C100.15 51.1066 98.9623 51.6156 97.8594 52.6337C96.502 53.9063 96.502 55.4333 96.5868 56.7907C96.5868 57.3846 96.5868 57.8936 96.502 58.4027C96.2475 59.7601 96.5019 60.6933 97.0958 61.372C97.6897 61.9659 98.7078 62.3052 100.235 62.3052C100.32 62.3052 100.489 62.3052 100.659 62.3052C101.762 62.3052 103.034 62.1355 103.798 61.372C104.307 60.7781 104.477 60.0146 104.222 58.8268C104.137 58.4027 104.137 57.9785 104.222 57.5543C104.222 57.2998 104.222 57.1301 104.222 56.8756C104.222 56.7907 104.222 56.7907 104.222 56.7059C104.222 56.5362 104.222 56.3666 104.222 56.1969C104.222 55.6878 104.222 55.094 104.222 54.585C104.222 54.3304 104.222 54.0759 104.222 53.8214C104.307 52.973 104.477 51.7853 102.78 51.3611C102.271 51.1914 101.847 51.1066 101.423 51.1066ZM56.6281 48.4766C59.3429 48.4766 62.3123 49.4947 64.6029 51.2763C65.4513 51.955 66.0451 52.2943 66.8087 52.2943C67.6571 52.2943 68.3358 51.7853 68.9296 51.1914C70.8809 49.4098 73.5109 48.4766 76.1409 48.4766C78.0921 48.4766 80.1283 48.9856 81.825 50.0037C82.4189 50.3431 82.9279 50.5127 83.5218 50.5127C84.455 50.5127 85.1337 50.0885 85.8124 49.5795L85.982 49.4947C87.5091 48.5615 88.7817 48.0524 90.0543 48.0524C91.3269 48.0524 92.5994 48.4766 94.0417 49.4098C94.7204 49.834 95.3991 50.0885 96.0778 50.0885C96.6717 50.0885 97.1807 49.9189 97.7745 49.5795C99.0471 48.9008 100.235 48.5615 101.338 48.5615C101.932 48.5615 102.61 48.6463 103.204 48.816C103.544 48.9008 103.798 48.9856 104.053 48.9856C104.562 48.9856 105.325 48.7311 105.665 47.7131C106.683 44.4044 105.41 41.6896 102.101 39.908C101.083 39.399 99.9803 38.8899 98.7077 38.4657C89.3756 34.9025 79.5344 33.1209 69.269 33.1209C68.3358 33.1209 67.4025 33.1209 66.4693 33.2058C65.6209 33.2058 64.7726 33.2058 63.8394 33.2058C59.4278 33.2058 54.2527 33.3755 49.1624 34.3087C42.3754 35.5812 35.758 37.1083 30.0739 40.7564C28.2074 41.9441 27.1045 46.3557 28.2922 48.0524C28.4619 48.3069 29.0558 48.9008 29.5648 48.9008C29.5648 48.9008 29.6496 48.9008 29.7345 48.9008C30.2435 48.816 30.8374 48.7311 31.3464 48.7311C32.9583 48.7311 34.5703 49.1553 36.6064 50.0885C36.7761 50.1734 37.0305 50.2582 37.2002 50.2582C37.7941 50.2582 38.388 49.9189 38.8122 49.6644C40.0847 48.6463 41.3573 48.2221 42.7996 48.2221C44.2418 48.2221 45.8537 48.7311 47.6353 49.834C48.2292 50.1734 48.9079 50.5976 49.6714 50.5976C50.1804 50.5976 50.6895 50.4279 51.1137 50.0885C52.8953 48.9856 54.6769 48.4766 56.6281 48.4766Z" fill="#025899"/>
<path d="M64.9443 102.518C53.1519 102.518 43.7349 100.737 35.2511 96.8342C31.094 94.9678 29.5669 92.8468 29.6518 88.9443C29.6518 85.1266 30.5001 81.3937 31.3485 77.8305C31.6879 76.5579 31.9424 75.2854 32.1969 73.928C32.4514 72.8251 33.1301 71.5525 35.1662 71.5525C35.3359 71.5525 35.4208 71.5525 35.5904 71.5525C36.1843 71.6373 36.6933 71.6373 37.2872 71.6373H38.8991C40.511 71.6373 42.2078 71.7222 43.8197 72.5705C44.3287 72.8251 45.0074 72.9099 45.4316 72.9099C45.6861 72.9099 45.9407 72.9099 46.1952 72.9099C46.4497 72.9099 46.6194 72.9099 46.8739 72.9099H54.8487C61.1267 72.9099 67.4046 72.9099 73.6826 72.9099C77.7549 72.9099 81.8271 72.9099 85.8993 72.9099C87.5113 72.9099 89.0384 72.5705 90.4806 72.2312C91.9229 71.8918 93.4499 71.5525 94.977 71.5525C95.2315 71.5525 95.486 71.5525 95.6557 71.5525C99.3886 71.807 99.9825 72.2312 100.576 75.2005C101.594 80.1211 102.528 84.9569 102.443 89.9623C102.443 91.8288 101.849 93.1013 100.407 94.1194C93.6196 99.1248 85.3903 100.822 78.9426 101.755C75.8036 102.179 72.6646 102.264 69.5256 102.264C68.4227 102.264 67.4047 102.264 66.3018 102.349C65.9624 102.518 65.4534 102.518 64.9443 102.518ZM33.9785 86.8233C33.3846 86.8233 32.9604 87.0778 32.6211 87.502C32.1121 88.2656 32.1969 89.7927 32.5362 91.0652C32.7907 91.9136 33.215 92.9317 33.8937 93.271L34.742 93.6952C37.4569 95.1374 40.3413 96.6645 43.5652 97.5129C52.1338 99.8884 60.7873 100.313 68.9317 100.397C69.9498 100.313 70.9678 100.228 71.9859 100.143C74.3613 99.9732 76.7368 99.8035 79.1123 99.4642C86.3235 98.4461 92.2622 96.41 97.4373 93.3559C99.3886 92.1681 100.152 90.7259 99.9824 88.6049C99.8127 87.1627 98.8796 86.993 98.5402 86.993C98.4554 86.993 98.2857 86.993 98.116 87.0778C97.4373 87.2475 96.6738 87.3324 95.9103 87.3324C94.3832 87.3324 92.8561 86.993 91.4138 86.7385C91.2441 86.7385 91.1593 86.7385 90.9896 86.7385C90.3957 86.7385 89.8019 86.993 89.5474 87.502C88.5293 89.0291 87.3416 89.7927 85.6448 89.7927C84.2874 89.7927 82.7603 89.2836 81.4029 88.8594C80.8091 88.6898 80.3849 88.5201 79.8759 88.5201C79.282 88.5201 78.7729 88.7746 78.2639 89.1988C76.8217 90.4714 75.1249 91.1501 73.1736 91.1501C71.8162 91.1501 70.374 90.8955 68.6772 90.3017C67.8289 90.0472 67.235 89.8775 66.5563 89.8775C65.9624 89.8775 65.2837 89.9623 64.5202 90.3017C62.8234 90.8955 61.3812 91.1501 59.9389 91.1501C57.9028 91.1501 56.1212 90.4714 54.5941 89.114C53.9154 88.5201 53.3215 88.2656 52.6428 88.2656C51.9641 88.2656 51.3703 88.5201 50.9461 88.7746C49.7583 89.3685 48.3161 89.9623 47.1284 89.9623C46.5345 89.9623 46.1103 89.7927 45.6861 89.5381C43.65 87.9262 41.3594 87.1627 38.5598 87.1627C37.7114 87.1627 36.6933 87.2475 35.6752 87.4172C35.5056 87.4172 35.2511 87.3324 34.9966 87.2475C34.742 87.1627 34.4875 87.0778 34.233 86.993C34.233 86.8233 34.0633 86.8233 33.9785 86.8233ZM61.2963 75.0308C60.4479 75.0308 59.5147 75.1157 58.2422 75.2005H58.0725C56.2061 75.2854 55.3577 76.1337 55.3577 77.7457C55.3577 79.1031 55.3576 80.4605 55.4425 81.8179C55.4425 83.0056 55.4425 84.1085 55.4425 85.2962C55.4425 85.8053 55.4425 87.1627 57.0544 87.8414C58.2422 88.3504 59.345 88.5201 60.5328 88.5201C61.466 88.5201 62.3992 88.3504 63.2476 88.0111C64.9443 87.3324 64.9443 85.8901 64.9443 84.7872C64.9443 84.5327 64.9443 84.2782 64.9443 84.0237C64.9443 83.5146 64.9443 82.9208 64.9443 82.4117C64.9443 82.1572 64.9443 81.9876 64.9443 81.7331C65.0292 78.2547 65.0292 76.6428 64.0111 75.7944C63.4173 75.1157 62.3992 75.0308 61.2963 75.0308ZM70.2891 75.2005C69.2711 75.2005 68.5924 75.3702 68.1682 75.7944C67.744 76.2186 67.4895 76.8124 67.5744 77.6608C67.5744 78.6789 67.5744 79.6969 67.5744 80.7998C67.5744 81.8179 67.5744 82.9208 67.5744 83.9388C67.6592 87.3324 68.9317 88.4352 72.7494 88.4352C76.5672 88.4352 77.2459 87.7565 77.3307 83.9388C77.3307 83.345 77.3307 82.7511 77.3307 82.2421V81.4785C77.3307 80.3756 77.3307 79.4424 77.3307 78.7637C77.4156 77.2366 77.4155 76.4731 76.8217 75.8792C76.2278 75.2854 75.1249 75.2854 73.3433 75.2854L70.2891 75.2005ZM44.4135 81.9027C44.4135 82.6663 44.4135 83.345 44.4135 84.1085C44.3287 85.0417 44.5833 85.8053 45.0923 86.2295C45.6013 86.7385 46.3648 86.993 47.4677 86.993C47.6374 86.993 47.8919 86.993 48.0616 86.993C51.3703 86.7385 52.558 85.6356 52.6428 82.7511C52.6428 82.1572 52.6428 81.4785 52.6428 80.8847V79.5273C52.7277 75.6247 52.4732 75.3702 48.3161 75.2854H47.7222C46.3648 75.2854 45.5165 75.5399 44.9226 76.1337C44.4136 76.6428 44.1591 77.4911 44.3287 78.594C44.4136 79.1031 44.4136 79.6969 44.3287 80.206C44.3287 80.4605 44.3287 80.715 44.3287 80.9695C44.3287 81.0543 44.3287 81.1392 44.3287 81.1392C44.4136 81.3089 44.4135 81.6482 44.4135 81.9027ZM84.6268 75.1157C84.2026 75.1157 83.6936 75.1157 83.0997 75.1157H82.93C82.1665 75.1157 81.2333 75.2005 80.5546 75.7944C80.1304 76.2186 79.8758 76.8124 79.9607 77.6608C79.9607 78.594 79.9607 79.5273 79.9607 80.5453C79.9607 81.3089 79.9607 82.1572 79.9607 82.9208C80.0455 86.2295 82.1665 86.9082 85.3055 86.9082C86.3235 86.9082 87.0871 86.6536 87.5961 86.2295C88.2748 85.6356 88.2748 84.7024 88.19 83.854C88.19 83.5995 88.19 83.2601 88.19 83.0056C88.2748 82.4966 88.2748 81.9876 88.19 81.4785C88.19 81.224 88.19 80.9695 88.19 80.715V79.6969C88.19 76.1337 88.19 75.1157 84.6268 75.1157ZM34.742 80.206C34.742 81.0543 34.742 81.8179 34.742 82.6663C34.742 83.5146 34.9966 84.1085 35.4207 84.5327C35.8449 84.872 36.4388 85.1266 37.1175 85.1266C37.372 85.1266 37.6265 85.1266 37.9659 85.0417C39.9172 84.7872 42.0381 84.1085 41.8684 81.3089C41.6987 79.6121 41.7836 78.0002 41.8684 76.6428C41.9532 74.6067 40.511 74.1825 39.2384 74.0976C38.5597 74.0128 38.0507 74.0128 37.6265 74.0128C34.9965 74.0128 34.8269 75.3702 34.742 77.4912C34.742 77.9153 34.742 78.2547 34.742 78.6789V79.2727C34.742 79.3576 34.742 79.4424 34.8269 79.5273L34.742 80.206ZM93.7044 73.8431C92.6863 73.8431 91.9228 74.0976 91.4138 74.5218C90.9048 75.0308 90.6503 75.7944 90.8199 76.8973C90.9048 77.8305 90.9048 78.8486 90.9048 79.7818C90.9048 80.4605 90.9048 81.1392 90.9048 81.9027C90.9896 84.7024 93.6196 84.872 95.4861 84.9569C95.5709 84.9569 95.8253 84.9569 95.8253 84.9569C96.5889 84.9569 97.0979 84.7872 97.4373 84.4479C98.0311 83.9388 97.9463 83.1753 97.9463 82.4966C97.9463 82.2421 97.9463 82.0724 97.9463 81.9027C97.9463 81.3937 97.9463 80.8847 97.9463 80.2908V79.7818C97.9463 79.6969 98.0312 79.6969 98.0312 79.6121C98.0312 79.3576 98.0312 79.0182 98.0312 78.7637C98.0312 78.1699 97.9464 77.576 98.116 76.9821C98.2857 75.9641 98.116 75.2854 97.6918 74.7763C97.0131 74.0128 95.9102 74.0128 94.8073 73.928H94.2983C93.959 73.8431 93.7892 73.8431 93.7044 73.8431Z" fill="#025899"/>
</svg>
