<svg width="134" height="134" viewBox="0 0 134 134" fill="none" xmlns="http://www.w3.org/2000/svg">
<circle cx="67" cy="67" r="66.5" fill="white" stroke="#025899"/>
<path d="M113.889 40.2885C112.517 38.8125 110.706 38 108.788 38H24.3229C22.4041 38 20.5928 38.8125 19.2218 40.2885C17.6587 41.9699 16.8571 44.314 17.021 46.7202L18.2427 64.4257C18.3286 65.6808 18.6748 66.8528 19.2218 67.8806C18.7688 71.2129 18.5672 75.2594 18.7672 80.1725C18.7776 80.4409 18.8925 80.6948 19.0876 80.8786C19.2892 81.0729 21.2507 82.8083 27.6579 84.3141C27.6868 84.3205 27.7197 84.327 27.7502 84.331C27.9374 84.3576 30.1952 84.6631 32.9181 84.6631C35.4859 84.6631 38.4674 84.3907 40.5035 83.3508C39.7525 88.1132 39.514 93.0988 39.514 97.4983C39.514 97.8329 39.6746 98.144 39.9461 98.3383C40.0778 98.4334 43.277 100.658 52.8593 101.533C52.8898 101.535 52.9203 101.537 52.9532 101.537C53.3316 101.537 61.199 101.508 65.6359 99.3572L72.9258 116.401C73.0921 116.791 73.4704 117.026 73.8696 117.026C74.0053 117.026 74.1426 116.999 74.2744 116.941C74.7965 116.716 75.0374 116.11 74.8133 115.586L67.3837 98.2141C67.5628 98.0328 67.6656 97.7853 67.6736 97.5274C67.676 97.4613 67.6881 96.947 67.6825 96.0933L72.3603 103.912L76.7828 116.341C76.933 116.764 77.3298 117.026 77.7515 117.026C77.8671 117.026 77.9836 117.005 78.0968 116.964C78.6318 116.772 78.9113 116.182 78.7201 115.645L77.7539 112.933L78.8125 114.702C79.1041 115.189 79.7354 115.348 80.2229 115.055C80.7081 114.762 80.8663 114.126 80.5747 113.639L74.2254 103.018L69.1877 88.8709C69.0021 88.363 68.6407 87.9423 68.1732 87.6867L67.3057 87.2055L69.0559 87.9326L83.7948 116.469C84.0558 116.975 84.6767 117.172 85.1803 116.911C85.6839 116.648 85.8815 116.025 85.6205 115.52L70.9395 87.0862C70.9346 87.0773 70.9306 87.0693 70.9266 87.0612L70.8383 86.9024C70.6222 86.5099 70.2744 86.2027 69.8696 86.0375L66.8736 84.7953C66.8037 84.3101 66.7323 83.8361 66.656 83.3694C66.6801 83.3533 66.7033 83.3387 66.7274 83.3218C68.0993 84.0199 71.6977 85.4595 78.9619 86.1221C78.9932 86.1246 79.0245 86.127 79.0551 86.127C79.4743 86.127 88.9739 86.0915 92.9714 83.2235C95.0003 84.1988 97.8959 84.4568 100.398 84.4568C103.118 84.4568 105.379 84.1521 105.566 84.1247C105.596 84.1206 105.628 84.115 105.658 84.1086C112.063 82.602 114.027 80.8665 114.228 80.6722C114.423 80.4893 114.537 80.2353 114.55 79.9669C114.753 74.9749 114.539 70.8768 114.072 67.5154C114.513 66.5787 114.792 65.5341 114.868 64.4265L116.089 46.721C116.254 44.3148 115.452 41.9699 113.889 40.2885ZM28.0795 82.2941C23.5864 81.2317 21.5141 80.0741 20.8025 79.601C20.6732 75.9631 20.772 72.8452 21.0266 70.173C21.1173 69.2114 21.2306 68.3078 21.3599 67.4574C23.0049 56.6212 27.3968 54.6794 27.5077 54.6343C27.5141 54.6302 27.5205 54.6278 27.5261 54.6262C29.7181 53.7589 31.5422 53.8749 33.1052 54.9785C35.8971 56.9493 37.8899 62.0881 38.877 69.849C38.8931 69.9764 38.9076 70.1045 38.9236 70.2343C38.9919 70.8002 39.0538 71.3596 39.1068 71.9126C39.4481 75.369 39.5204 78.491 39.5268 80.3442C39.5204 80.7464 39.5164 81.147 39.5164 81.5412C36.5574 83.0284 30.3847 82.61 28.0795 82.2941ZM65.1098 71.9126C65.3692 74.2583 65.5001 76.4153 65.5644 78.1323C64.9435 75.7632 64.1909 73.6867 63.3146 71.9126C62.9484 71.1718 62.5604 70.4842 62.1492 69.849C61.5709 68.947 60.946 68.1506 60.2777 67.463C58.2151 65.3382 55.7516 64.2605 52.9557 64.2588C52.6223 64.2588 50.0561 64.329 47.2746 67.0261C46.4312 67.8427 45.6746 68.7922 44.9999 69.849C44.5806 70.4971 44.1943 71.1879 43.836 71.9126C42.9421 73.7198 42.22 75.7423 41.6441 77.8905C41.7228 75.7302 41.8585 73.7408 42.0457 71.9126C42.1196 71.2008 42.1999 70.5132 42.2883 69.849C43.5445 60.2881 46.24 55.5483 48.6007 53.2002C50.8601 50.9529 52.7934 50.9118 52.9243 50.9118H52.9532C55.2054 50.9118 57.1195 51.7557 58.8038 53.4888C62.3154 57.1081 64.0263 63.8316 64.8552 69.849C64.9515 70.5487 65.0359 71.2379 65.1098 71.9126ZM65.5805 93.9943C65.6262 95.3735 65.6278 96.4238 65.6238 96.9929C65.3877 97.1622 65.1202 97.3186 64.8279 97.4653C61.6311 99.0791 55.448 99.4668 52.999 99.4732C45.9991 98.8292 42.6722 97.4572 41.5726 96.9002C41.5951 91.8397 41.9236 87.6158 42.4521 84.0916C42.5597 83.3734 42.6762 82.6818 42.7999 82.0216C43.6529 77.4528 44.8666 74.2115 46.1581 71.9126C46.6039 71.1178 47.0585 70.435 47.5131 69.849C47.8786 69.3766 48.2424 68.9655 48.6007 68.6109C50.8601 66.3635 52.7934 66.3224 52.9243 66.3224H52.9532C55.2054 66.3224 57.1195 67.1664 58.8038 68.9019C59.0889 69.1969 59.3644 69.5121 59.6279 69.849C60.1211 70.4761 60.5741 71.1678 60.9893 71.9126C62.6239 74.8402 63.6873 78.5692 64.3716 82.2691C64.472 82.8035 64.5652 83.3379 64.6471 83.8708L62.3998 82.9381L57.3187 80.831C56.6175 80.54 55.8408 80.8367 55.5139 81.5243C55.1846 82.211 55.4392 83.0058 56.1034 83.3734L56.9669 83.8498L60.0271 85.5401L65.223 88.4106C65.2246 88.4251 65.2246 88.4412 65.2271 88.4573C65.3668 89.9123 65.4592 91.2746 65.5186 92.4773C65.5459 93.019 65.566 93.526 65.5805 93.9943ZM68.8278 93.9927L67.5523 91.859C67.5194 91.2956 67.4825 90.7015 67.4351 90.0824L68.8278 93.9927ZM91.7273 81.5823C88.8919 83.5943 81.7731 84.0562 79.1 84.0634C72.1129 83.421 68.7861 82.049 67.6825 81.492C67.6841 81.2728 67.6865 80.9987 67.6825 80.6771V80.6682C67.7194 77.406 67.8857 74.5001 68.1491 71.9126C68.223 71.2008 68.3033 70.5132 68.3917 69.849C69.6463 60.2889 72.3419 55.5483 74.7025 53.2002C76.9619 50.9529 78.8952 50.9118 79.0286 50.9118H79.0551C81.3089 50.9118 83.2237 51.7557 84.9048 53.4888C88.4172 57.1089 90.1281 63.8316 90.9586 69.849C91.055 70.5487 91.1393 71.2379 91.2132 71.9126C91.7112 76.446 91.7353 80.2764 91.7273 81.5823ZM112.513 79.393C111.792 79.8734 109.717 81.0293 105.236 82.0877C102.93 82.4037 96.7489 82.8269 93.7915 81.3308C93.773 79.946 93.7754 76.2049 94.1867 71.9126C94.2461 71.3016 94.312 70.6801 94.3883 70.0529C94.3963 69.9852 94.4043 69.9167 94.4132 69.849C95.3915 61.972 97.3947 56.7639 100.212 54.7721C101.772 53.6686 103.598 53.5549 105.79 54.4198C105.8 54.4239 105.812 54.4279 105.823 54.4319C105.839 54.4384 107.575 55.1276 109.297 58.3632C110.628 60.8604 111.454 63.9364 111.942 67.1543C112.085 68.0885 112.199 69.0381 112.287 69.9868C112.596 73.2563 112.615 76.5387 112.513 79.393ZM106.536 52.4965C103.693 51.3761 101.167 51.5744 99.0268 53.0866C95.4445 55.6169 93.6084 61.5883 92.6734 67.4493C91.4598 60.28 89.3457 55.109 86.3795 52.0508C84.3193 49.9276 81.8558 48.8482 79.0575 48.8482C78.7257 48.8498 76.1579 48.9183 73.3756 51.6155C69.6849 55.1937 67.6736 61.2747 66.6295 67.7919C65.4222 60.4453 63.2897 55.1566 60.2777 52.0508C58.2151 49.9276 55.7516 48.8482 52.9557 48.8482C52.6223 48.8498 50.0561 48.9183 47.2746 51.6155C43.6634 55.1155 41.6586 61.0128 40.5959 67.3687C39.6481 61.6012 37.8136 55.7813 34.2891 53.2929C32.1486 51.7807 29.6241 51.5824 26.7799 52.7029C26.3526 52.8657 22.4209 54.577 20.1985 62.907L19.0732 46.5783C18.9479 44.7396 19.5487 42.9606 20.7246 41.6959C21.7029 40.6439 22.9824 40.0636 24.3229 40.0636H108.788C110.129 40.0636 111.407 40.6439 112.387 41.6959C113.562 42.9606 114.163 44.7396 114.037 46.5783L112.966 62.1477C110.721 54.2933 106.954 52.6553 106.536 52.4965Z" fill="#025899"/>
</svg>
