<svg width="24" height="20" viewBox="0 0 24 20" fill="none" xmlns="http://www.w3.org/2000/svg">
<path d="M6.3616 0.66275L11.4621 7.46289L16.6271 0.66275H21.2972L13.6787 9.87918L21.5339 19.3372H16.9284L11.5482 12.33L6.16791 19.3372H1.54089L9.37454 9.87918L1.77762 0.66275H6.3616Z" fill="#025899"/>
<path fill-rule="evenodd" clip-rule="evenodd" d="M6.82903 0L11.4667 6.18306L16.163 0H22.8366L14.6711 9.87832L23.0774 20H16.4669L11.5483 13.594L6.62969 20H0L8.3833 9.87831L0.240817 0H6.82903ZM9.37467 9.87919L1.54103 19.3372H6.16804L11.5483 12.33L16.9285 19.3372H21.534L13.6789 9.87919L21.2973 0.662755H16.6272L11.4622 7.46289L6.36173 0.662755H1.77776L9.37467 9.87919Z" fill="#025899"/>
</svg>
