<svg width="18" height="17" viewBox="0 0 18 17" fill="none" xmlns="http://www.w3.org/2000/svg">
<path d="M17.3484 6.22999C17.2073 5.79575 16.8329 5.48117 16.3818 5.41528L11.8132 4.75126L9.76996 0.614591C9.36674 -0.203602 8.02822 -0.203602 7.625 0.614591L5.58172 4.75126L1.02403 5.41528C0.573086 5.48099 0.198677 5.79685 0.0586413 6.22999C-0.0824961 6.66423 0.0358831 7.13921 0.362573 7.45618L3.66673 10.6682L2.888 15.2141C2.81146 15.6627 2.99573 16.1173 3.36408 16.3853C3.73372 16.6521 4.22174 16.6868 4.62496 16.475L8.69702 14.3277L12.7812 16.475C12.9559 16.5672 13.1473 16.6127 13.3375 16.6127C13.5851 16.6127 13.8327 16.5361 14.0434 16.3855C14.4119 16.1162 14.596 15.6629 14.5194 15.2143L13.7407 10.6684L17.0449 7.45636C17.3712 7.14031 17.4896 6.66313 17.3484 6.22999Z" fill="#025899"/>
</svg>
