<svg width="16" height="18" viewBox="0 0 16 18" fill="none" xmlns="http://www.w3.org/2000/svg">
<path d="M7.992 0.663574C3.576 0.663574 0 4.32669 0 8.84017C0 13.3537 3.576 17.0168 7.992 17.0168C12.416 17.0168 16 13.3537 16 8.84017C16 4.32669 12.416 0.663574 7.992 0.663574ZM8 15.3815C4.464 15.3815 1.6 12.4542 1.6 8.84017C1.6 5.22612 4.464 2.29889 8 2.29889C11.536 2.29889 14.4 5.22612 14.4 8.84017C14.4 12.4542 11.536 15.3815 8 15.3815ZM8.4 4.75187H7.2V9.65784L11.4 12.2335L12 11.2277L8.4 9.04459V4.75187Z" fill="#025899"/>
</svg>
