<svg width="69" height="22" viewBox="0 0 69 22" fill="none" xmlns="http://www.w3.org/2000/svg">
<path d="M27.7139 0.481201L24.2139 21.3315H29.8138L33.2139 0.481201H27.7139Z" fill="#025899"/>
<path d="M19.614 0.48112L14.214 14.688L13.614 12.5416C12.514 9.98641 9.51406 6.20473 5.91406 3.85396L10.9141 21.2292H16.814L25.614 0.378906L19.614 0.48112Z" fill="#025899"/>
<path d="M11.4136 1.91231C11.1136 0.685823 10.1136 0.277012 9.01355 0.174805H0.413574L0.313477 0.583628C7.01348 2.21895 11.4135 6.20503 13.3135 11.111L11.4136 1.91231Z" fill="#025899"/>
<path d="M44.514 4.46742C46.314 4.46742 47.614 4.87627 48.714 5.2851L49.214 5.4895L50.014 0.992371C48.914 0.583541 47.214 0.0725098 45.014 0.0725098C39.514 0.0725098 35.614 2.9343 35.614 6.92039C35.614 9.88441 38.414 11.6219 40.514 12.5418C42.714 13.5639 43.4141 14.1771 43.4141 15.097C43.4141 16.5279 41.714 17.1411 40.114 17.1411C37.914 17.1411 36.7141 16.8345 34.9141 16.0169L34.214 15.7102L33.4141 20.4118C34.7141 21.025 37.114 21.5361 39.614 21.5361C45.414 21.5361 49.214 18.7765 49.314 14.3816C49.314 12.0308 47.814 10.1911 44.614 8.76015C42.714 7.84028 41.514 7.12483 41.514 6.20496C41.314 5.3873 42.314 4.46742 44.514 4.46742Z" fill="#025899"/>
<path d="M64.2139 0.481201H59.9139C58.6139 0.481201 57.6139 0.890044 57.0139 2.21874L48.7139 21.3315H54.5139C54.5139 21.3315 55.5139 18.7763 55.7139 18.1631C56.3139 18.1631 62.0138 18.1631 62.8138 18.1631C63.0138 18.8785 63.5139 21.3315 63.5139 21.3315H68.7139L64.2139 0.481201ZM57.3138 13.8704C57.8138 12.6439 59.5139 8.04455 59.5139 8.04455C59.5139 8.14676 60.0139 6.81807 60.2139 6.10261L60.6139 7.94234C60.6139 7.94234 61.7139 12.9505 61.9139 13.9726H57.3138V13.8704Z" fill="#025899"/>
</svg>
