<svg width="36" height="36" viewBox="0 0 36 36" fill="none" xmlns="http://www.w3.org/2000/svg">
<path d="M18 0.00299711C8.29413 -0.174328 0.264706 7.53932 0 17.2922C0 22.2573 2.20588 26.9564 6 30.1483V35.2907C6 35.734 6.35295 36 6.70589 36C6.88236 36 6.97059 36 7.14706 35.9113L11.2941 33.2515C13.4118 34.0494 15.7059 34.4927 18 34.4927C27.7059 34.6701 35.7353 26.9564 36 17.2035C35.7353 7.53931 27.7059 -0.174328 18 0.00299711ZM29.8235 13.3024L20.8235 22.346C20.5588 22.612 20.1177 22.612 19.7647 22.346L14.9118 18.1788L7.14706 22.4346C6.88236 22.6119 6.52942 22.5233 6.26471 22.346C6.00001 22.08 6.00001 21.548 6.26471 21.282L15.2647 12.2384C15.5294 11.9724 15.9706 11.9724 16.3235 12.2384L21.1765 16.4056L28.9412 12.1498C29.2941 11.9725 29.6471 12.0611 29.9118 12.3271C30.0882 12.6817 30 13.0364 29.8235 13.3024Z" fill="white"/>
</svg>
