<svg width="36" height="36" viewBox="0 0 36 36" fill="none" xmlns="http://www.w3.org/2000/svg">
<path d="M27.3699 23.8147C26.1937 22.6536 24.7254 22.6536 23.5567 23.8147C22.6652 24.6987 21.7738 25.5827 20.8973 26.4816C20.6575 26.7288 20.4553 26.7813 20.1631 26.6165C19.5862 26.3018 18.972 26.0471 18.4176 25.7025C15.833 24.0769 13.668 21.9869 11.7502 19.6346C10.7988 18.466 9.95225 17.2149 9.36043 15.8066C9.24057 15.5219 9.26304 15.3346 9.49527 15.1024C10.3868 14.2409 11.2558 13.3569 12.1323 12.473C13.3534 11.2444 13.3534 9.80608 12.1248 8.57002C11.4281 7.86584 10.7314 7.17665 10.0347 6.47247C9.31548 5.75331 8.60379 5.02666 7.87712 4.31499C6.70097 3.16882 5.23264 3.16882 4.06398 4.32248C3.165 5.20645 2.30349 6.11289 1.38953 6.98187C0.543 7.78344 0.115987 8.76479 0.0260899 9.91096C-0.116248 11.7763 0.340731 13.5367 0.984995 15.2522C2.30349 18.8031 4.3112 21.9569 6.74591 24.8485C10.0347 28.759 13.9602 31.8528 18.5524 34.0852C20.6201 35.0891 22.7626 35.8607 25.0925 35.988C26.6956 36.0779 28.089 35.6734 29.2053 34.4223C29.9694 33.5683 30.8309 32.7892 31.64 31.9727C32.8386 30.7591 32.8461 29.2908 31.655 28.0922C30.2316 26.6614 28.8007 25.2381 27.3699 23.8147Z" fill="white"/>
<path d="M25.939 17.8442L28.7033 17.3722C28.2688 14.8327 27.0702 12.5329 25.2497 10.705C23.3244 8.77974 20.8897 7.56615 18.2078 7.19159L17.8182 9.97085C19.8934 10.263 21.7812 11.1994 23.272 12.6902C24.6804 14.0985 25.6018 15.8814 25.939 17.8442Z" fill="white"/>
<path d="M30.2616 5.8282C27.0702 2.63692 23.0323 0.621774 18.5749 0L18.1854 2.77926C22.036 3.31863 25.527 5.06409 28.2838 7.81338C30.8983 10.4278 32.6139 13.7315 33.2357 17.3647L36 16.8928C35.2733 12.6827 33.2881 8.86216 30.2616 5.8282Z" fill="white"/>
</svg>
