<svg width="50" height="50" viewBox="0 0 50 50" fill="none" xmlns="http://www.w3.org/2000/svg">
<circle cx="25" cy="25" r="25" fill="url(#paint0_linear_104_114)"/>
<path d="M27.007 11.9242C25.7492 12.575 24.2453 12.575 22.9875 11.9242C17.5516 9.10782 11.0273 13.0781 11.0273 19.2031C11.0273 23.0586 14.2266 39 19.2195 39C20.975 39 22.5664 37.2117 24.0977 33.5313C24.4258 32.7383 25.5633 32.7383 25.8914 33.5313C27.4227 37.2117 29.0141 39 30.7695 39C35.7188 39 38.9617 23.1844 38.9617 19.2031C38.9727 13.0781 32.4484 9.10235 27.007 11.9242ZM30.775 37.5398C29.7359 37.5398 28.4508 35.8773 27.2422 32.9734C26.4109 30.9773 23.5836 30.9773 22.7523 32.9734C21.5437 35.8773 20.2586 37.5398 19.2195 37.5398C16.0258 37.5398 12.4875 23.7313 12.4875 19.2031C12.4875 14.1609 17.8578 10.907 22.3203 13.2203C23.9992 14.0898 26.0063 14.0898 27.6852 13.2203C32.1367 10.907 37.5125 14.1555 37.5125 19.2031C37.5125 23.7148 33.9742 37.5398 30.775 37.5398Z" fill="#025899"/>
<defs>
<linearGradient id="paint0_linear_104_114" x1="0" y1="50" x2="50" y2="50" gradientUnits="userSpaceOnUse">
<stop stop-color="#DFAA23"/>
<stop offset="0.479167" stop-color="#FBF08D"/>
<stop offset="1" stop-color="#DFAA23"/>
</linearGradient>
</defs>
</svg>
