<svg width="54" height="36" viewBox="0 0 54 36" fill="none" xmlns="http://www.w3.org/2000/svg">
<path d="M14.413 15.5114C13.413 15.5114 12.6129 15.818 12.6129 15.818L12.413 17.0445C12.413 17.0445 13.0129 16.7379 14.0129 16.7379C14.5129 16.7379 14.913 16.8401 14.913 17.2489C14.913 17.5555 14.913 17.6577 14.913 17.6577C14.913 17.6577 14.5129 17.6577 14.3129 17.6577C13.0129 17.6577 11.7129 18.1688 11.7129 19.8041C11.7129 21.1328 12.6129 21.4394 13.1129 21.4394C14.1129 21.4394 14.6129 20.7239 14.6129 20.7239V21.3372H15.913L16.5129 17.2489C16.4129 15.5114 14.913 15.5114 14.413 15.5114ZM13.7129 20.2129C13.3129 20.2129 13.1129 19.9063 13.1129 19.7019C13.1129 19.293 13.313 18.782 14.413 18.782C14.613 18.782 14.7129 18.782 14.7129 18.782C14.8129 19.0886 14.6129 20.2129 13.7129 20.2129Z" fill="#025899"/>
<path d="M19.0133 16.8401C19.2133 16.8401 20.0133 16.9423 20.0133 16.9423L20.2133 15.6136C20.2133 15.6136 19.7133 15.5114 18.9133 15.5114C17.8133 15.5114 16.7133 15.9202 16.7133 17.4533C16.7133 19.1908 18.5133 18.9864 18.5133 19.7019C18.5133 20.2129 18.0133 20.2129 17.6133 20.2129C16.9133 20.2129 16.3132 20.0085 16.3132 20.0085L16.1133 21.3372C16.1133 21.3372 16.5133 21.5416 17.7133 21.5416C18.0133 21.5416 19.9133 21.6438 19.9133 19.7019C19.9133 17.8621 18.2133 18.2709 18.2133 17.4533C18.2133 16.9423 18.5133 16.8401 19.0133 16.8401Z" fill="#025899"/>
<path d="M22.1129 17.0446H22.913L23.1129 15.6137H22.413L22.5129 14.796H21.1129C21.1129 14.796 20.2129 19.702 20.2129 20.213C20.2129 21.1329 20.713 21.4395 21.413 21.4395C21.913 21.4395 22.3129 21.2351 22.5129 21.2351L22.7129 20.0086C22.6129 20.0086 22.5129 20.0086 22.3129 20.0086C21.8129 20.0086 21.7129 19.702 21.8129 19.4975L22.1129 17.0446Z" fill="#025899"/>
<path d="M28.1136 8.97021H25.5137C25.2137 9.48125 24.8137 9.99229 24.5137 10.5033H29.1136C28.9136 9.89008 28.5136 9.37904 28.1136 8.97021Z" fill="#025899"/>
<path d="M48.314 25.63C48.214 25.5278 48.214 25.5278 48.214 25.5278H48.314V25.4256C48.314 25.4256 48.314 25.4256 48.314 25.3234C48.314 25.2212 48.314 25.3234 48.214 25.3234H48.114H47.9141V25.8344H48.014V25.63C48.014 25.63 48.014 25.63 48.114 25.63C48.214 25.63 48.214 25.63 48.314 25.63ZM48.114 25.5278L48.014 25.4256H48.114H48.214C48.214 25.4256 48.214 25.4256 48.114 25.5278C48.214 25.5278 48.214 25.5278 48.114 25.5278Z" fill="#025899"/>
<path d="M30.0133 11.832H23.8132C23.4132 12.5475 23.1133 13.1607 23.1133 13.3651H30.6133C30.4133 12.8541 30.2133 12.3431 30.0133 11.832Z" fill="#025899"/>
<path d="M10.0129 14.2849L8.51294 18.5776V14.2849H6.4129L5.21289 21.3372H6.61292L7.51294 16.0224L7.61292 21.3372H8.61292L10.5129 16.0224L9.61292 21.3372H11.1129L12.3129 14.2849H10.0129Z" fill="#025899"/>
<path d="M37.913 15.5114C36.913 15.5114 36.1129 15.818 36.1129 15.818L35.913 17.0445C35.913 17.0445 36.5129 16.7379 37.5129 16.7379C38.0129 16.7379 38.413 16.8401 38.413 17.2489C38.413 17.5555 38.413 17.6577 38.413 17.6577C38.413 17.6577 38.0129 17.6577 37.8129 17.6577C36.5129 17.6577 35.2129 18.1688 35.2129 19.8041C35.2129 21.1328 36.1129 21.4394 36.6129 21.4394C37.6129 21.4394 38.1129 20.7239 38.1129 20.7239V21.3372H39.413L40.0129 17.2489C39.9129 15.5114 38.413 15.5114 37.913 15.5114ZM37.2129 20.2129C36.7129 20.2129 36.6129 19.9063 36.6129 19.7019C36.6129 19.293 36.813 18.782 37.913 18.782C38.113 18.782 38.2129 18.782 38.2129 18.782C38.2129 19.0886 38.1129 20.2129 37.2129 20.2129Z" fill="#025899"/>
<path d="M48.314 20.724C48.314 20.6218 48.214 20.6217 48.114 20.5195C48.014 20.5195 48.0141 20.4174 47.9141 20.4174C47.8141 20.4174 47.814 20.4173 47.714 20.5195C47.614 20.5195 47.614 20.6218 47.514 20.724C47.514 20.8262 47.4141 20.8262 47.4141 20.9284C47.4141 21.0306 47.414 21.0306 47.514 21.1328C47.514 21.235 47.614 21.235 47.714 21.3372C47.814 21.3372 47.8141 21.4394 47.9141 21.4394C48.0141 21.4394 48.114 21.4394 48.114 21.3372C48.214 21.3372 48.214 21.235 48.314 21.1328C48.314 21.0306 48.4141 21.0306 48.4141 20.9284C48.4141 20.8262 48.414 20.724 48.314 20.724ZM48.314 21.1328C48.314 21.235 48.214 21.235 48.214 21.235C48.114 21.235 48.114 21.235 48.014 21.235C47.914 21.235 47.914 21.235 47.814 21.235C47.714 21.235 47.714 21.1328 47.714 21.1328C47.714 21.0306 47.714 21.0306 47.714 20.9284C47.714 20.8262 47.714 20.8262 47.814 20.724C47.814 20.6218 47.9141 20.6218 47.9141 20.6218C48.0141 20.6218 48.014 20.6218 48.114 20.6218C48.214 20.6218 48.214 20.6218 48.314 20.6218C48.414 20.6218 48.4141 20.724 48.4141 20.724C48.4141 20.8262 48.514 20.8262 48.514 20.9284C48.514 21.0306 48.314 21.0306 48.314 21.1328Z" fill="#025899"/>
<path d="M48.1129 21.0307C48.0129 20.9285 48.0129 20.9285 48.0129 20.9285H48.1129V20.8263C48.1129 20.8263 48.1129 20.8263 48.1129 20.7241C48.1129 20.7241 48.1129 20.7241 48.0129 20.7241C47.9129 20.7241 47.913 20.7241 47.913 20.7241H47.7129V21.2352H47.8129V21.0307C47.8129 21.0307 47.813 21.0307 47.913 21.0307C48.013 21.0307 48.0129 21.0307 48.1129 21.0307ZM47.913 20.9285L47.8129 20.8263H47.913H48.0129C48.1129 20.8263 48.013 20.8263 47.913 20.9285C48.013 20.9285 48.013 20.9285 47.913 20.9285Z" fill="#025899"/>
<path d="M42.8132 15.5114C42.2132 15.5114 41.7133 16.4312 41.7133 16.4312L41.8132 15.6136H40.5133L39.6133 21.3372H41.1133C41.5133 18.8842 41.6133 16.9423 42.6133 17.2489C42.8133 16.329 42.9133 15.9202 43.1133 15.5114C43.1133 15.6136 43.0132 15.5114 42.8132 15.5114Z" fill="#025899"/>
<path d="M46.514 14.285L46.214 16.2269C46.214 16.2269 45.714 15.4093 44.814 15.4093C43.514 15.4093 42.4141 17.0446 42.4141 18.8843C42.4141 20.1108 43.014 21.2351 44.214 21.2351C45.114 21.2351 45.514 20.6218 45.514 20.6218L45.4141 21.1329H46.814L47.9141 14.0806L46.514 14.285ZM44.714 20.0086C44.214 20.0086 43.9141 19.5998 43.9141 18.8843C43.9141 17.76 44.414 16.9424 45.014 16.9424C45.514 16.9424 45.814 17.3512 45.814 18.1689C45.914 18.9865 45.514 20.0086 44.714 20.0086Z" fill="#025899"/>
<path d="M51.9135 0.282471H1.71344C0.91344 0.282471 0.313477 0.89571 0.313477 1.71337V34.0109C0.313477 34.8286 0.91344 35.4418 1.71344 35.4418H51.9135C52.7135 35.4418 53.3134 34.8286 53.3134 34.0109V1.71337C53.3134 0.89571 52.7135 0.282471 51.9135 0.282471ZM48.5135 25.7321C48.5135 25.8343 48.4134 25.8344 48.3134 25.9366C48.2134 25.9366 48.2135 26.0388 48.1135 26.0388C48.0135 26.0388 47.9135 26.0388 47.9135 25.9366C47.8135 25.9366 47.8134 25.8343 47.7134 25.7321C47.7134 25.6299 47.6135 25.6299 47.6135 25.5277C47.6135 25.4255 47.6134 25.4255 47.7134 25.3233C47.7134 25.2211 47.8135 25.2211 47.9135 25.1189C48.0135 25.1189 48.0135 25.0167 48.1135 25.0167C48.2135 25.0167 48.2134 25.0167 48.3134 25.1189C48.4134 25.1189 48.4135 25.2211 48.5135 25.3233C48.5135 25.4255 48.6135 25.4255 48.6135 25.5277C48.6135 25.6299 48.6135 25.6299 48.5135 25.7321ZM49.5135 17.76C49.5135 25.4255 43.4135 31.6602 35.9135 31.6602C32.4135 31.6602 29.2134 30.3315 26.8134 28.0829C24.4134 30.3315 21.2134 31.6602 17.7134 31.6602C10.2134 31.6602 4.11346 25.4255 4.11346 17.76C4.11346 10.0944 10.1135 3.96194 17.6135 3.85973H17.7134C21.2134 3.85973 24.4134 5.18843 26.8134 7.437C29.2134 5.18843 32.4135 3.85973 35.9135 3.85973C43.4135 3.85973 49.5135 10.0944 49.5135 17.76Z" fill="#025899"/>
<path d="M25.4141 26.5498C25.8141 27.0608 26.314 27.5719 26.814 28.0829C27.314 27.5719 27.814 27.163 28.214 26.5498H25.4141Z" fill="#025899"/>
<path d="M27.314 18.9864C27.314 18.9864 27.514 18.0665 27.514 17.6577C27.514 16.6356 27.0141 15.5114 25.4141 15.5114C23.9141 15.5114 22.9141 17.1467 22.9141 18.8842C22.9141 20.9284 24.2141 21.4394 25.4141 21.4394C26.5141 21.4394 26.9141 21.235 26.9141 21.235L27.214 19.8041C27.214 19.8041 26.414 20.2129 25.714 20.2129C24.114 20.2129 24.4141 18.9864 24.4141 18.9864H27.314ZM25.4141 16.7379C26.2141 16.7379 26.114 17.6577 26.114 17.7599H24.514C24.414 17.6577 24.6141 16.7379 25.4141 16.7379Z" fill="#025899"/>
<path d="M34.0133 15.6137C34.7133 15.6137 35.3132 16.0225 35.3132 16.0225L35.5133 14.4894C35.5133 14.4894 34.6133 14.0806 33.9133 14.0806C32.2133 14.0806 30.6133 15.5115 30.6133 18.3733C30.6133 20.213 31.5133 21.4395 33.2133 21.4395C33.7133 21.4395 34.5133 21.2351 34.5133 21.2351L34.8132 19.5998C34.8132 19.5998 34.1133 20.0086 33.6133 20.0086C32.6133 20.0086 32.2133 19.191 32.2133 18.3733C32.2133 16.6358 33.1133 15.6137 34.0133 15.6137Z" fill="#025899"/>
<path d="M23.6133 23.688C23.8133 24.199 24.1133 24.7101 24.4133 25.2211H29.2133C29.5133 24.7101 29.8133 24.199 30.0133 23.688H23.6133Z" fill="#025899"/>
<path d="M30.7136 15.5114C30.1136 15.5114 29.6136 16.4312 29.6136 16.4312L29.7136 15.6136H28.4137L27.5137 21.3372H29.0137C29.4137 18.8842 29.5137 16.9423 30.5137 17.2489C30.7137 16.329 30.8137 15.9202 31.0137 15.5114C30.9137 15.6136 30.8136 15.5114 30.7136 15.5114Z" fill="#025899"/>
</svg>
