<svg width="21" height="16" viewBox="0 0 28 21" fill="none" xmlns="http://www.w3.org/2000/svg">
<path d="M5.91074 12.9951C5.41074 15.8951 4.51074 17.9951 3.81073 19.1951C3.51074 19.6951 4.11074 20.2951 4.61074 19.9951C10.4107 16.5951 13.0107 11.6951 13.3107 7.69508C13.6107 4.29507 11.2107 0.795077 7.71073 0.0950767C4.21073 -0.504923 0.810738 1.79507 0.110738 5.29507C-0.589262 8.99507 2.11074 12.5951 5.91074 12.9951Z" fill="#025899"/>
<path d="M20.4105 12.9951C19.9105 15.8951 19.0105 17.9951 18.3105 19.1951C18.0105 19.6951 18.6105 20.2951 19.1105 19.9951C24.9105 16.5951 27.5105 11.6951 27.8105 7.69508C28.1105 4.29507 25.7105 0.795077 22.2105 0.0950767C18.7105 -0.504923 15.3105 1.79507 14.6105 5.29507C14.0105 8.99507 16.6105 12.5951 20.4105 12.9951Z" fill="#025899"/>
</svg>
