<svg width="13" height="20" viewBox="0 0 13 20" fill="none" xmlns="http://www.w3.org/2000/svg">
<path d="M6.5 5.05981C7.11568 5.05981 7.70615 5.3021 8.1415 5.73337C8.57685 6.16464 8.82143 6.74957 8.82143 7.35948C8.82143 7.66148 8.76138 7.96052 8.64472 8.23953C8.52806 8.51854 8.35706 8.77205 8.1415 8.98559C7.92593 9.19914 7.67002 9.36853 7.38837 9.4841C7.10672 9.59967 6.80485 9.65915 6.5 9.65915C5.88432 9.65915 5.29385 9.41687 4.8585 8.98559C4.42315 8.55432 4.17857 7.96939 4.17857 7.35948C4.17857 6.74957 4.42315 6.16464 4.8585 5.73337C5.29385 5.3021 5.88432 5.05981 6.5 5.05981ZM6.5 0.92041C8.22391 0.92041 9.87721 1.59881 11.0962 2.80637C12.3152 4.01393 13 5.65173 13 7.35948C13 12.1888 6.5 19.3178 6.5 19.3178C6.5 19.3178 0 12.1888 0 7.35948C0 5.65173 0.684819 4.01393 1.90381 2.80637C3.12279 1.59881 4.77609 0.92041 6.5 0.92041ZM6.5 2.76015C5.26864 2.76015 4.08771 3.24472 3.217 4.10726C2.3463 4.9698 1.85714 6.13966 1.85714 7.35948C1.85714 8.27935 1.85714 10.1191 6.5 16.2914C11.1429 10.1191 11.1429 8.27935 11.1429 7.35948C11.1429 6.13966 10.6537 4.9698 9.783 4.10726C8.91229 3.24472 7.73136 2.76015 6.5 2.76015Z" fill="#025899"/>
</svg>
