<svg width="28" height="21" viewBox="0 0 28 21" fill="none" xmlns="http://www.w3.org/2000/svg">
<path d="M22.0249 7.08043C22.5249 4.18043 23.4249 2.08043 24.1249 0.880425C24.4249 0.380425 23.8249 -0.219574 23.3249 0.0804258C17.5249 3.48043 14.9249 8.38043 14.6249 12.3804C14.3249 15.7804 16.7249 19.2804 20.2249 19.9804C23.7249 20.5804 27.1249 18.2804 27.8249 14.7804C28.4249 11.0804 25.8249 7.48043 22.0249 7.08043Z" fill="#025899"/>
<path d="M7.42528 7.08043C7.92528 4.18043 8.82528 2.08043 9.52528 0.880425C9.82528 0.380425 9.22528 -0.219574 8.72528 0.0804258C2.92528 3.48043 0.325281 8.38043 0.0252814 12.3804C-0.274719 15.7804 2.12528 19.2804 5.62528 19.9804C9.12528 20.5804 12.5253 18.2804 13.2253 14.7804C13.9253 11.0804 11.3253 7.48043 7.42528 7.08043Z" fill="#025899"/>
</svg>
