<svg width="61" height="70" viewBox="0 0 61 70" fill="none" xmlns="http://www.w3.org/2000/svg">
<path d="M36.5932 37.2078H36.6495H36.7959H41.0306H41.9316C42.2132 37.2078 42.506 37.2192 42.7876 37.2306C52.0566 37.6878 59.4223 45.5844 59.4223 55.2638V58.9549C59.4223 64.4974 54.9849 69 49.5226 69H34.4533H32.5275H31.0183H29.8357H28.473H26.4007H11.4779C6.01555 69 1.57812 64.4974 1.57812 58.9549V55.2638C1.57812 45.5844 8.9438 37.6878 18.2128 37.2306C18.4944 37.2192 18.7872 37.2078 19.0688 37.2078H19.8234H24.2045H24.4072" stroke="white" stroke-width="2" stroke-miterlimit="10" stroke-linecap="round" stroke-linejoin="round"/>
<path d="M24.5391 33.6753V33.8768V37.3126V37.3238C24.5505 40.6812 27.3043 43.3896 30.7209 43.3896C32.4235 43.3896 33.966 42.7181 35.0859 41.6101C35.7829 40.9275 36.3199 40.0769 36.6285 39.1256L36.6399 39.092C36.7656 38.6668 36.8456 38.2303 36.8798 37.7714C36.8913 37.6259 36.9027 37.4693 36.9027 37.3238V37.3126V33.8768V33.6753" stroke="white" stroke-width="2" stroke-miterlimit="10" stroke-linecap="round" stroke-linejoin="round"/>
<path d="M14.3828 50.013V46.9119C14.3828 43.2294 15.8353 39.8775 18.1985 37.4149C19.8584 35.6819 21.9795 34.3822 24.3542 33.7323C24.4234 33.7095 24.481 33.6867 24.5387 33.6753" stroke="white" stroke-width="2" stroke-miterlimit="10" stroke-linecap="round" stroke-linejoin="round"/>
<path d="M36.9023 33.6753C36.9686 33.6867 37.0238 33.7095 37.079 33.7323C39.353 34.3935 41.3842 35.6817 42.9738 37.4145C45.2257 39.8769 46.6166 43.2285 46.6166 46.9107V53.5455" stroke="white" stroke-width="2" stroke-miterlimit="10" stroke-linecap="round" stroke-linejoin="round"/>
<path d="M18.2021 19.1039C17.4622 19.6966 16.9913 20.9505 17.0361 22.364C17.1146 24.3246 18.1685 25.8862 19.3905 25.8292C19.738 25.8179 20.0519 25.6811 20.3322 25.4417C20.691 29.1463 22.1484 31.9277 24.2561 33.6831C24.3122 33.7401 24.3682 33.7857 24.4355 33.8313C26.1284 35.1878 28.2249 35.8831 30.5007 35.8831C32.7766 35.8831 34.8731 35.1878 36.566 33.8313C36.6332 33.7857 36.6893 33.7401 36.7453 33.6831C38.853 31.9277 40.3105 29.1463 40.6692 25.4417C40.9495 25.6811 41.2634 25.8179 41.611 25.8292C42.833 25.8862 43.8868 24.3246 43.9653 22.364C44.0102 20.9505 43.5393 19.6966 42.8106 19.1039" stroke="white" stroke-width="2" stroke-miterlimit="10" stroke-linecap="round" stroke-linejoin="round"/>
<path d="M15.2676 49.8927L19.859 37.2078H24.226L26.6171 50.8069L29.839 69H28.4807H26.4151L20.0836 49.4584L17.3444 50.4412C17.3444 50.4412 17.3444 50.4412 17.3332 50.4412" stroke="white" stroke-width="2" stroke-miterlimit="10" stroke-linecap="round" stroke-linejoin="round"/>
<path d="M46.177 50.2698L40.8567 48.3613L34.566 69H31.1641L34.3652 50.8069L36.741 37.2078H41.0798L46.177 50.2698Z" stroke="white" stroke-width="2" stroke-miterlimit="10" stroke-linecap="round" stroke-linejoin="round"/>
<path d="M42.9601 19.8275C42.6552 20.5543 41.5937 20.3158 41.5937 19.5323C41.5937 16.0575 39.4481 12.9233 36.2184 11.8332C32.6048 10.6068 28.3588 10.5727 24.8355 12.049C21.9445 13.2754 20.149 16.2619 20.149 19.4641V20.1341C20.149 20.9176 19.1214 21.1561 18.7826 20.4521C17.9469 18.6806 17.4727 16.682 17.4727 14.5699C17.4727 7.06387 23.4126 1 30.7189 1C38.0478 1 43.9652 7.07522 43.9652 14.5699C43.9877 16.4208 43.6264 18.2037 42.9601 19.8275Z" stroke="white" stroke-width="2" stroke-miterlimit="10" stroke-linecap="round" stroke-linejoin="round"/>
<path d="M7.31641 63.2597V57.3548C7.31641 53.3022 10.5771 50.013 14.5965 50.013C16.6118 50.013 18.4346 50.8325 19.748 52.1684C21.0727 53.4931 21.8878 55.3341 21.8878 57.3548V63.2597" stroke="white" stroke-width="2" stroke-miterlimit="10" stroke-linecap="round" stroke-linejoin="round"/>
<path d="M10.4073 60.3477V62.1863C10.4073 62.7687 9.9494 63.2597 9.35412 63.2597H7.31641V59.2857H9.35412C9.9494 59.2857 10.4073 59.7653 10.4073 60.3477Z" stroke="white" stroke-width="2" stroke-miterlimit="10" stroke-linecap="round" stroke-linejoin="round"/>
<path d="M18.7988 60.3477V62.1863C18.7988 62.7687 19.2567 63.2597 19.852 63.2597H21.8897V59.2857H19.852C19.2682 59.2857 18.7988 59.7653 18.7988 60.3477Z" stroke="white" stroke-width="2" stroke-miterlimit="10" stroke-linecap="round" stroke-linejoin="round"/>
<path d="M46.6187 62.3766C49.0574 62.3766 51.0343 60.3997 51.0343 57.961C51.0343 55.5224 49.0574 53.5455 46.6187 53.5455C44.18 53.5455 42.2031 55.5224 42.2031 57.961C42.2031 60.3997 44.18 62.3766 46.6187 62.3766Z" stroke="white" stroke-width="2" stroke-miterlimit="10" stroke-linecap="round" stroke-linejoin="round"/>
</svg>
