<svg width="59" height="59" viewBox="0 0 59 59" fill="none" xmlns="http://www.w3.org/2000/svg">
<path d="M53.2333 45.8756C54.3987 44.2731 55.0304 42.3446 55.0387 40.3631C55.0512 40.1026 54.9598 39.8477 54.7844 39.6546C54.609 39.4616 54.3641 39.3461 54.1035 39.3336C53.5631 39.3134 53.1057 39.7289 53.074 40.2687C53.0814 41.8391 52.5977 43.3725 51.6905 44.6543C49.772 47.0772 46.1318 47.2002 45.4208 47.2002C44.8777 47.2002 44.4375 47.6404 44.4375 48.1835C44.4375 48.7266 44.8777 49.1668 45.4208 49.1668C46.2901 49.1668 50.7514 49.0085 53.2333 45.8756Z" fill="white"/>
<path d="M33.4334 33.4336C33.4334 32.8906 32.9932 32.4503 32.4501 32.4503C31.907 32.4503 31.4668 32.8906 31.4668 33.4336C31.4668 35.6059 33.2278 37.3669 35.4001 37.3669V38.3502C35.4001 38.8933 35.8403 39.3336 36.3834 39.3336C36.9265 39.3336 37.3667 38.8933 37.3667 38.3502V37.3669C39.539 37.3669 41.3 35.6059 41.3 33.4336C41.3 31.2613 39.539 29.5004 37.3667 29.5004V25.5671C38.4529 25.5671 39.3334 26.4476 39.3334 27.5337C39.3334 28.0768 39.7736 28.517 40.3167 28.517C40.8598 28.517 41.3 28.0768 41.3 27.5337C41.3 25.3614 39.539 23.6004 37.3667 23.6004V22.6171C37.3667 22.074 36.9265 21.6338 36.3834 21.6338C35.8403 21.6338 35.4001 22.074 35.4001 22.6171V23.6004C33.2278 23.6004 31.4668 25.3614 31.4668 27.5337C31.4668 29.706 33.2278 31.467 35.4001 31.467V35.4003C34.3139 35.4003 33.4334 34.5198 33.4334 33.4336ZM33.4334 27.5337C33.4334 26.4476 34.3139 25.5671 35.4001 25.5671V29.5004C34.3139 29.5004 33.4334 28.6199 33.4334 27.5337ZM37.3667 31.467C38.4529 31.467 39.3334 32.3475 39.3334 33.4336C39.3334 34.5198 38.4529 35.4003 37.3667 35.4003V31.467Z" fill="white"/>
<path d="M58.1772 33.2085C55.7543 22.9121 50.3677 16.9463 46.4777 13.8302C51.3559 14.1979 52.9263 16.2275 52.9725 16.2885C53.2806 16.7282 53.8844 16.8396 54.3291 16.5386C54.7737 16.2376 54.8947 15.6356 54.6009 15.1862C54.5301 15.08 53.1642 13.1291 49.1926 12.2362C50.2082 11.4013 50.8089 10.165 50.8377 8.85062C50.7062 6.67153 49.1892 4.8237 47.0775 4.27031C47.1641 3.56002 47.2081 2.84518 47.2092 2.12962C47.2082 1.4704 46.8769 0.855562 46.327 0.492086C45.777 0.12861 45.0815 0.0648533 44.4746 0.322279C43.9782 0.547042 43.5171 0.842843 43.1058 1.20039C42.6233 1.69629 41.959 1.97339 41.267 1.96738C40.5762 1.97224 39.9132 1.69526 39.4312 1.20039C37.6982 -0.400128 35.0262 -0.400128 33.2933 1.20039C32.8106 1.69737 32.1453 1.97462 31.4525 1.96738C30.7618 1.97312 30.0988 1.69598 29.6176 1.20039C29.2074 0.84361 28.7477 0.548166 28.2528 0.323263C27.6463 0.067562 26.9521 0.13219 26.4033 0.49545C25.8545 0.85871 25.5237 1.47244 25.5221 2.13061C25.5221 4.57711 26.0059 8.94109 29.0689 11.8714C27.4592 12.8502 25.9558 13.9941 24.583 15.2845V7.8673C24.583 5.62533 21.4118 3.93402 17.2081 3.93402C13.0044 3.93402 9.83321 5.62533 9.83321 7.8673V17.7743C6.3847 18.1184 3.93328 19.6672 3.93328 21.6338V46.6446C1.55758 47.2827 0 48.5768 0 50.1501V55.0667C0 57.3087 3.17121 59 7.37491 59C11.1341 59 14.0615 57.646 14.6387 55.755C16.3361 56.6538 18.2384 57.0944 20.1581 57.0334C24.3618 57.0334 27.533 55.342 27.533 53.1001V40.3169C27.533 38.0749 24.3618 36.3836 20.1581 36.3836C19.6655 36.3833 19.1732 36.4079 18.6831 36.4574V21.6338C18.6831 19.4803 15.7558 17.8401 11.7999 17.7133V10.5901C13.4727 11.4404 15.3324 11.8566 17.2081 11.8006C19.0838 11.8566 20.9435 11.4404 22.6164 10.5901V17.2964C21.9684 18.0211 21.3174 18.8107 20.6753 19.6858C20.3813 20.1237 20.485 20.7156 20.9105 21.0273C21.336 21.339 21.9316 21.2595 22.2604 20.8471C22.892 19.9921 23.5688 19.1715 24.288 18.3888C24.2959 18.38 24.3028 18.3711 24.3106 18.3633C26.1877 16.2771 28.392 14.5106 30.837 13.133C31.319 13.3655 31.8289 13.535 32.3542 13.6374L29.8192 16.0033C29.4222 16.3742 29.4011 16.9967 29.772 17.3937C30.1429 17.7907 30.7654 17.8118 31.1624 17.4409L35.0957 13.7721H35.4094V16.7221C35.4094 17.2652 35.8496 17.7054 36.3927 17.7054C36.9358 17.7054 37.376 17.2652 37.376 16.7221V13.7672H37.6897L41.623 17.436C41.8798 17.6759 42.2451 17.7607 42.5813 17.6582C42.9175 17.5558 43.1735 17.2818 43.2529 16.9394C43.3323 16.597 43.223 16.2383 42.9662 15.9984L40.4145 13.6227C40.9366 13.5193 41.4433 13.3491 41.9219 13.1163C44.5208 14.5224 53.0639 20.0782 56.2637 33.6588C57.6551 39.5706 57.1536 44.0929 54.7739 47.0969C51.7296 50.9368 46.4472 51.1334 45.4196 51.1334H31.4663C30.9232 51.1334 30.483 51.5737 30.483 52.1168C30.483 52.6598 30.9232 53.1001 31.4663 53.1001H45.4196C47.0912 53.1001 52.7994 52.7549 56.3148 48.3182C59.0858 44.8185 59.7132 39.7348 58.1772 33.2085ZM7.37491 48.1835C10.6268 48.1835 12.7832 49.3635 12.7832 50.1501C12.7832 50.9368 10.6268 52.1168 7.37491 52.1168C4.12307 52.1168 1.96664 50.9368 1.96664 50.1501C1.96664 49.3635 4.12307 48.1835 7.37491 48.1835ZM7.37491 57.0334C4.12307 57.0334 1.96664 55.8534 1.96664 55.0667V52.8729C3.6395 53.7232 5.49921 54.1394 7.37491 54.0834C9.25061 54.1394 11.1103 53.7232 12.7832 52.8729V55.0667C12.7832 55.8534 10.6268 57.0334 7.37491 57.0334ZM20.1581 55.0667C16.9062 55.0667 14.7498 53.8867 14.7498 53.1001V43.0397C16.4227 43.89 18.2824 44.3062 20.1581 44.2502C22.0338 44.3062 23.8935 43.89 25.5663 43.0397V53.1001C25.5663 53.8867 23.4099 55.0667 20.1581 55.0667ZM25.5663 40.3169C25.5663 41.1036 23.4099 42.2835 20.1581 42.2835C16.9062 42.2835 14.7498 41.1036 14.7498 40.3169C14.7498 39.5302 16.9062 38.3503 20.1581 38.3503C23.4099 38.3503 25.5663 39.5302 25.5663 40.3169ZM12.7832 40.3169V47.4273C11.1103 46.577 9.25061 46.1608 7.37491 46.2168C6.88232 46.2165 6.39003 46.2411 5.89993 46.2906V24.3566C7.57278 25.2069 9.43249 25.6231 11.3082 25.5671C13.1839 25.6231 15.0436 25.2069 16.7165 24.3566V36.8114C14.3408 37.4495 12.7832 38.7436 12.7832 40.3169ZM16.7165 21.6338C16.7165 22.4205 14.56 23.6004 11.3082 23.6004C8.05635 23.6004 5.89993 22.4205 5.89993 21.6338C5.89993 20.8471 8.05635 19.6672 11.3082 19.6672C14.56 19.6672 16.7165 20.8471 16.7165 21.6338ZM17.2081 9.83394C13.9563 9.83394 11.7999 8.65396 11.7999 7.8673C11.7999 7.08065 13.9563 5.90066 17.2081 5.90066C20.46 5.90066 22.6164 7.08065 22.6164 7.8673C22.6164 8.65396 20.46 9.83394 17.2081 9.83394ZM48.8711 8.85062C48.8711 10.4623 47.1257 11.7849 44.9378 11.8006C44.5718 11.7983 44.2072 11.7564 43.8502 11.6757C45.2774 10.1531 46.2694 8.27507 46.7225 6.23794C47.9061 6.58669 48.7575 7.62192 48.8711 8.85062ZM28.3865 2.73437C29.2169 3.5125 30.3145 3.94196 31.4525 3.93402C32.5912 3.94257 33.6896 3.51306 34.5205 2.73437C35.0065 2.24363 35.6686 1.96754 36.3593 1.96754C37.05 1.96754 37.712 2.24363 38.1981 2.73437C39.029 3.51364 40.1279 3.94322 41.267 3.93402C42.4061 3.94282 43.5049 3.5133 44.336 2.73437C44.6085 2.49353 44.9117 2.28985 45.2377 2.12864C45.2377 3.95467 44.8984 8.46909 41.7302 10.9441C41.0174 11.4794 40.1533 11.7751 39.262 11.7888C40.1133 10.3267 40.787 8.76826 41.269 7.14653C41.3632 6.80787 41.2695 6.4447 41.0233 6.19384C40.7771 5.94297 40.4157 5.84251 40.0753 5.93031C39.735 6.0181 39.4673 6.28081 39.3732 6.61947C38.8285 8.46788 37.9913 10.2171 36.8932 11.8006H35.8824C34.7865 10.2157 33.9491 8.46689 33.4014 6.61947C33.2556 6.09622 32.7132 5.79024 32.19 5.93606C31.6667 6.08187 31.3608 6.62426 31.5066 7.14751C31.989 8.77064 32.6634 10.3304 33.5155 11.7937C32.6064 11.789 31.7229 11.4915 30.9962 10.9451C27.828 8.47106 27.4887 3.95663 27.4887 2.13651C27.8146 2.29263 28.1168 2.49389 28.3865 2.73437Z" fill="white"/>
<path d="M53.2333 45.8756C54.3987 44.2731 55.0304 42.3445 55.0387 40.3631C55.0512 40.1025 54.9598 39.8477 54.7844 39.6546C54.609 39.4615 54.3641 39.346 54.1035 39.3336C53.5635 39.3144 53.1067 39.7293 53.074 40.2687C53.0814 41.8391 52.5977 43.3725 51.6905 44.6543C49.772 47.0772 46.1318 47.2001 45.4208 47.2001C44.8777 47.2001 44.4375 47.6404 44.4375 48.1834C44.4375 48.7265 44.8777 49.1668 45.4208 49.1668C46.2901 49.1668 50.7514 49.0084 53.2333 45.8756Z" fill="white"/>
</svg>
