<svg width="53" height="53" viewBox="0 0 53 53" fill="none" xmlns="http://www.w3.org/2000/svg">
<path d="M39.5801 23.584C40.7127 23.584 41.6309 22.6658 41.6309 21.5332C41.6309 20.4006 40.7127 19.4824 39.5801 19.4824C38.4475 19.4824 37.5293 20.4006 37.5293 21.5332C37.5293 22.6658 38.4475 23.584 39.5801 23.584Z" fill="white"/>
<path d="M44.2969 4.10156H41.6309V2.05078C41.6309 0.918135 40.7127 0 39.5801 0C38.4474 0 37.5293 0.918135 37.5293 2.05078V4.10156H28.1982V2.05078C28.1982 0.918135 27.2801 0 26.1475 0C25.0148 0 24.0967 0.918135 24.0967 2.05078V4.10156H14.8682V2.05078C14.8682 0.918135 13.95 0 12.8174 0C11.6847 0 10.7666 0.918135 10.7666 2.05078V4.10156H8.20312C3.67992 4.10156 0 7.78148 0 12.3047V44.2969C0 48.8201 3.67992 52.5 8.20312 52.5H23.8916C25.0242 52.5 25.9424 51.5819 25.9424 50.4492C25.9424 49.3166 25.0242 48.3984 23.8916 48.3984H8.20312C5.94152 48.3984 4.10156 46.5585 4.10156 44.2969V12.3047C4.10156 10.0431 5.94152 8.20312 8.20312 8.20312H10.7666V10.2539C10.7666 11.3866 11.6847 12.3047 12.8174 12.3047C13.95 12.3047 14.8682 11.3866 14.8682 10.2539V8.20312H24.0967V10.2539C24.0967 11.3866 25.0148 12.3047 26.1475 12.3047C27.2801 12.3047 28.1982 11.3866 28.1982 10.2539V8.20312H37.5293V10.2539C37.5293 11.3866 38.4474 12.3047 39.5801 12.3047C40.7127 12.3047 41.6309 11.3866 41.6309 10.2539V8.20312H44.2969C46.5585 8.20312 48.3984 10.0431 48.3984 12.3047V23.9941C48.3984 25.1268 49.3166 26.0449 50.4492 26.0449C51.5819 26.0449 52.5 25.1268 52.5 23.9941V12.3047C52.5 7.78148 48.8201 4.10156 44.2969 4.10156Z" fill="white"/>
<path d="M40.0928 27.6855C33.2514 27.6855 27.6855 33.2514 27.6855 40.0928C27.6855 46.9342 33.2514 52.5 40.0928 52.5C46.9342 52.5 52.5 46.9342 52.5 40.0928C52.5 33.2514 46.9342 27.6855 40.0928 27.6855ZM40.0928 48.3984C35.5131 48.3984 31.7871 44.6726 31.7871 40.0928C31.7871 35.513 35.5131 31.7871 40.0928 31.7871C44.6725 31.7871 48.3984 35.513 48.3984 40.0928C48.3984 44.6726 44.6725 48.3984 40.0928 48.3984Z" fill="white"/>
<path d="M43.0674 38.042H42.1445V35.8887C42.1445 34.756 41.2264 33.8379 40.0938 33.8379C38.9611 33.8379 38.043 34.756 38.043 35.8887V40.0928C38.043 41.2254 38.9611 42.1436 40.0938 42.1436H43.0674C44.2 42.1436 45.1182 41.2254 45.1182 40.0928C45.1182 38.9601 44.2 38.042 43.0674 38.042Z" fill="white"/>
<path d="M30.6602 23.584C31.7928 23.584 32.7109 22.6658 32.7109 21.5332C32.7109 20.4006 31.7928 19.4824 30.6602 19.4824C29.5275 19.4824 28.6094 20.4006 28.6094 21.5332C28.6094 22.6658 29.5275 23.584 30.6602 23.584Z" fill="white"/>
<path d="M21.7383 32.5049C22.8709 32.5049 23.7891 31.5867 23.7891 30.4541C23.7891 29.3215 22.8709 28.4033 21.7383 28.4033C20.6057 28.4033 19.6875 29.3215 19.6875 30.4541C19.6875 31.5867 20.6057 32.5049 21.7383 32.5049Z" fill="white"/>
<path d="M12.8164 23.584C13.949 23.584 14.8672 22.6658 14.8672 21.5332C14.8672 20.4006 13.949 19.4824 12.8164 19.4824C11.6838 19.4824 10.7656 20.4006 10.7656 21.5332C10.7656 22.6658 11.6838 23.584 12.8164 23.584Z" fill="white"/>
<path d="M12.8164 32.5049C13.949 32.5049 14.8672 31.5867 14.8672 30.4541C14.8672 29.3215 13.949 28.4033 12.8164 28.4033C11.6838 28.4033 10.7656 29.3215 10.7656 30.4541C10.7656 31.5867 11.6838 32.5049 12.8164 32.5049Z" fill="white"/>
<path d="M12.8164 41.4258C13.949 41.4258 14.8672 40.5076 14.8672 39.375C14.8672 38.2424 13.949 37.3242 12.8164 37.3242C11.6838 37.3242 10.7656 38.2424 10.7656 39.375C10.7656 40.5076 11.6838 41.4258 12.8164 41.4258Z" fill="white"/>
<path d="M21.7383 41.4258C22.8709 41.4258 23.7891 40.5076 23.7891 39.375C23.7891 38.2424 22.8709 37.3242 21.7383 37.3242C20.6057 37.3242 19.6875 38.2424 19.6875 39.375C19.6875 40.5076 20.6057 41.4258 21.7383 41.4258Z" fill="white"/>
<path d="M21.7383 23.584C22.8709 23.584 23.7891 22.6658 23.7891 21.5332C23.7891 20.4006 22.8709 19.4824 21.7383 19.4824C20.6057 19.4824 19.6875 20.4006 19.6875 21.5332C19.6875 22.6658 20.6057 23.584 21.7383 23.584Z" fill="white"/>
</svg>
