<svg width="76" height="43" viewBox="0 0 76 43" fill="none" xmlns="http://www.w3.org/2000/svg">
<path d="M24.5372 8.32926C23.8083 8.99736 23.0188 9.72619 22.2899 10.3943C20.5893 11.9127 21.0145 14.5243 23.1402 15.3747C25.1445 16.1035 27.0273 15.982 28.7887 14.6458C29.5175 14.0992 30.2464 13.6133 30.9145 13.0059C32.7365 11.3661 34.8623 11.1839 37.1095 11.5483C38.5065 11.7912 39.8427 12.2771 41.0574 13.0667C46.9488 17.0753 52.8402 21.0231 58.7316 25.0317C59.5212 25.5783 60.25 26.1857 60.9181 26.8538C61.7077 27.5826 61.9506 28.4937 61.5862 29.5262C61.2218 30.5587 60.6144 31.409 59.4605 31.4697C58.7316 31.5305 58.0028 31.2268 57.3954 31.1053C57.942 32.4415 57.8206 33.7777 56.7273 34.9924C55.3911 36.5108 53.7513 36.2072 51.9899 35.5998C52.3543 37.0575 51.9899 38.2722 50.7752 39.0618C49.6212 39.9121 48.285 39.6691 47.0095 39.3654C47.0095 39.4262 46.9488 39.4869 47.0095 39.5476C47.4954 41.1268 46.3414 42.6452 44.5801 42.8881C44.0942 42.9489 43.5476 42.9489 43.0617 42.8274C41.1789 42.4022 39.539 41.309 37.9599 40.2157C38.2028 39.7299 38.5672 39.3047 38.6887 38.7581C38.8709 38.0292 39.1138 37.3004 39.0531 36.5108C38.9924 35.5391 37.9599 34.8102 36.9881 35.2354C36.1378 35.5391 35.4089 36.0857 34.7408 36.5108C34.8016 36.3286 34.9838 35.9642 35.166 35.5998C35.6519 34.5065 36.0163 33.4133 36.0163 32.1986C35.9556 30.3765 34.5586 29.4047 32.9188 30.3157C32.1899 30.6802 31.6433 31.3483 31.0967 31.8949C30.9145 32.0771 30.7323 32.32 30.6108 32.5022C30.7323 31.8342 30.8537 31.1661 30.9145 30.498C30.9752 28.6151 29.3961 27.5219 27.6954 28.3115C26.9059 28.6759 26.2378 29.2832 25.5697 29.9513C25.6304 29.5869 25.7519 29.2832 25.8126 28.9188C26.177 26.9145 24.4764 25.5176 22.5329 26.1857C21.5004 26.5501 20.7715 27.3397 20.0427 28.19C19.8605 28.3722 19.739 28.6151 19.5568 28.7973C18.5243 28.0078 17.5525 27.2182 16.5807 26.3679C16.3985 26.2464 16.2163 26.0642 16.0341 25.9427C15.1838 25.2746 14.3335 24.4851 13.3617 23.9992C12.4507 23.5133 11.3574 23.2704 10.2642 22.9059C10.3856 22.0556 10.4464 21.0231 10.6286 20.1121C11.6004 15.1317 13.7261 10.7587 17.2488 7.0538C17.3096 6.99306 17.431 6.93233 17.4918 6.81085C17.8562 6.32496 18.2813 6.26423 18.8887 6.44644C19.9212 6.75012 21.0752 6.93233 22.1077 7.17527C22.958 7.35748 23.8083 7.66116 24.5372 8.32926Z" fill="#025899"/>
<path d="M60.0679 24.4851C57.0918 22.5415 54.1764 20.5372 51.2004 18.5937C47.8599 16.3465 44.5194 14.0992 41.1182 11.9127C38.628 10.3336 35.8949 9.84768 33.101 10.6373C32.1292 10.8802 31.2182 11.5483 30.3679 12.0949C29.5783 12.5808 28.8495 13.2489 28.1206 13.7955C26.9059 14.6458 25.509 14.9495 24.0513 14.5851C22.7151 14.2814 22.047 13.2489 22.3507 11.9734C22.4114 11.6698 22.5936 11.3053 22.8366 11.1231C24.9016 9.30106 27.0274 7.47897 29.0924 5.59615C29.9427 4.80658 30.9145 4.44216 32.1292 4.44216C34.3765 4.44216 36.563 4.44216 38.8102 4.19922C40.6323 3.95627 42.2722 4.25996 43.9728 4.98879C46.8274 6.26425 49.7427 7.41824 52.658 8.57222C53.3261 8.87591 54.1157 8.93664 54.9053 8.99738C55.9378 9.05811 56.8488 8.81517 57.6991 8.14707C58.185 7.72192 58.6709 7.3575 59.1568 6.93235C62.7402 8.69369 66.4452 16.9538 65.8378 21.6912C63.5298 21.8734 61.5863 22.7845 60.0679 24.4851Z" fill="#025899"/>
<path d="M16.2166 4.32067C10.9325 10.1513 7.83497 16.8323 7.8957 24.8495C7.77423 24.7888 7.65276 24.7888 7.53128 24.728C5.16257 23.5133 2.79386 22.2986 0.425151 21.0839C0.182207 20.9624 0 20.9016 0 20.5372C0.485889 15.071 1.70061 9.78693 4.55521 5.04951C5.7092 3.16669 7.16687 1.52681 8.98895 0.190616C9.29263 -0.0523284 9.47484 -0.0523275 9.83926 0.129881C11.8436 1.46608 13.9086 2.80227 15.9129 4.13847C16.0951 4.1992 16.1558 4.25994 16.2166 4.32067Z" fill="#025899"/>
<path d="M59.8862 4.44215C60.3721 4.07773 60.858 3.77405 61.3439 3.47037C62.8623 2.43786 64.4414 1.40534 65.9598 0.312089C66.385 0.00840839 66.6279 0.0691446 66.9924 0.312089C70.1506 2.80227 72.3979 5.89982 73.977 9.54399C75.4347 12.9452 75.9813 16.5286 75.9813 20.1728C75.9813 20.598 75.8598 20.9016 75.4347 21.0839C73.1267 22.1164 70.8795 23.2096 68.5715 24.3029C68.3893 24.3636 68.2678 24.4243 67.9641 24.5458C67.9641 23.3311 68.0249 22.2378 67.9641 21.1446C67.7212 17.1967 66.9316 13.3704 65.0488 9.84767C63.8948 7.66117 62.2549 5.83908 60.1292 4.50288C60.0077 4.56362 59.947 4.56362 59.8862 4.44215Z" fill="#025899"/>
<path d="M35.2876 32.6845C35.0446 33.5955 34.8017 34.4458 34.498 35.3569C33.9514 36.8145 33.1618 38.2115 32.0078 39.3047C31.4612 39.7906 30.8538 40.155 30.0643 39.8513C29.2747 39.5477 29.0317 38.8796 29.0317 38.09C29.0317 36.8753 29.4569 35.7213 30.0643 34.7495C30.7324 33.717 31.5219 32.7452 32.2508 31.7734C32.3722 31.5912 32.6759 31.4697 32.8581 31.3483C33.4047 31.0446 33.9514 30.8016 34.5587 31.1661C35.1054 31.5305 35.1054 32.0771 35.2876 32.6845Z" fill="#025899"/>
<path d="M24.1729 34.628C24.5373 32.8667 25.2661 30.9231 26.9667 29.4655C27.0882 29.344 27.2097 29.2832 27.3311 29.2225C28.6066 28.4937 30.0035 29.2225 29.9428 30.7409C29.8213 32.9882 28.971 34.9317 27.3311 36.4501C27.0275 36.7538 26.5416 36.936 26.1164 36.9967C24.9017 37.2397 24.1729 36.4501 24.1729 34.628Z" fill="#025899"/>
<path d="M24.8411 29.344C24.7803 30.4372 24.173 31.5912 23.1405 32.563C22.8368 32.8059 22.4116 33.0489 22.0472 33.1704C20.7717 33.5348 19.6785 32.6845 19.7392 31.3483C19.8607 29.6477 20.5895 28.3722 21.9865 27.4612C22.6546 27.036 23.3227 26.9753 23.9908 27.3397C24.6589 27.6434 24.8411 28.3115 24.8411 29.344Z" fill="#025899"/>
<path d="M33.8306 40.5194C34.0735 38.8188 34.8631 37.3611 36.26 36.2679C36.3207 36.2071 36.4422 36.1464 36.503 36.1464C36.9888 35.9035 37.5355 35.782 38.0214 36.0857C38.5073 36.3893 38.4465 36.9967 38.3858 37.4219C38.0214 39.0617 37.2925 40.4587 36.0778 41.6127C35.5919 42.0378 35.0453 42.1593 34.4379 41.8556C33.8913 41.6734 33.8913 41.1268 33.8306 40.5194Z" fill="#025899"/>
</svg>
