<svg width="78" height="77" viewBox="0 0 78 77" fill="none" xmlns="http://www.w3.org/2000/svg">
<path d="M55.2846 45.6994L51.1489 50.3226L53.609 52.5233L57.7447 47.9L55.2846 45.6994Z" fill="#025899"/>
<path d="M58.0149 47.0903L52.8169 52.9012L54.1742 54.1153L59.3722 48.3044L58.0149 47.0903Z" fill="#025899"/>
<path d="M84.2191 69.2633C85.5849 70.4584 85.6987 72.5641 84.5605 73.873L82.3979 76.2632C81.2028 77.5722 79.1541 77.686 77.7882 76.434L53.9428 55.0926C52.577 53.8975 53.829 53.0439 55.0241 51.7349L57.1867 49.3447C58.3818 48.0358 59.0078 46.6699 60.3737 47.922L84.2191 69.2633Z" fill="#025899"/>
<path d="M8.07376 10.1905C-3.02373 22.597 -1.99934 41.7188 10.464 52.8163C22.8704 63.9137 41.9922 62.8894 53.0897 50.426C64.1872 38.0196 63.1628 18.8978 50.6995 7.8003C38.2931 -3.35409 19.1712 -2.2728 8.07376 10.1905ZM49.2198 46.9545C40.0004 57.2553 24.2363 58.1089 13.9355 48.9464C3.63477 39.7269 2.78111 23.9628 11.9437 13.6621C21.1631 3.36131 36.9272 2.50766 47.228 11.6702C57.5287 20.8896 58.4393 36.6538 49.2198 46.9545Z" fill="#025899"/>
<path d="M20.1953 29.3693C20.7074 30.1091 20.8782 30.9627 20.5936 31.8164C20.2522 33.0684 19.7969 34.9465 19.7969 36.483C19.7969 36.6538 19.6261 41.3773 21.8456 43.7675C22.1302 44.0521 22.5286 44.2228 22.9269 44.2228C23.0408 44.2228 23.1546 44.2228 23.2684 44.1659C23.7806 44.0521 24.179 43.6537 24.3497 43.1415C25.4879 38.9871 27.5367 34.7757 29.244 34.7757C30.9513 34.7757 32.9431 38.9871 34.1383 43.1415C34.309 43.6537 34.7073 44.0521 35.2195 44.1659C35.7317 44.2797 36.3008 44.109 36.6423 43.7675C38.8618 41.3773 38.6911 36.7107 38.6911 36.5399C38.6911 34.9465 38.2358 33.0684 37.8943 31.8164C37.6667 31.0197 37.8374 30.1091 38.2927 29.3693C38.4065 29.2554 38.4634 29.0847 38.5772 28.9709C39.8293 27.0359 40.4553 24.7595 40.4553 22.3693V21.2311C40.4553 17.3043 36.3577 16.223 34.1952 16.223C31.8618 16.223 30.1545 17.3612 29.3009 18.158C28.3903 17.3612 26.7399 16.223 24.4066 16.223C22.244 16.223 18.1465 17.2474 18.1465 21.2311V22.3693C18.1465 24.7595 18.7725 27.0929 20.0245 29.0278C20.0245 29.0847 20.1383 29.1985 20.1953 29.3693Z" fill="#025899"/>
</svg>
