<svg width="275" height="36" viewBox="0 0 275 36" fill="none" xmlns="http://www.w3.org/2000/svg">
<path d="M0.514648 5.6416C0.514648 5.36491 0.730469 5.22656 1.16211 5.22656C1.51628 5.22656 2.04753 5.25977 2.75586 5.32617C3.47526 5.38151 4.01758 5.40918 4.38281 5.40918C5.46745 5.40918 6.49674 5.35938 7.4707 5.25977C7.69206 5.23763 7.7972 5.22656 7.78613 5.22656C8.1071 5.22656 8.26758 5.35384 8.26758 5.6084C8.26758 5.84082 8.04622 6.03451 7.60352 6.18945C7.05013 6.38867 6.7015 6.56022 6.55762 6.7041C6.14811 7.12467 5.94336 8.08203 5.94336 9.57617V18.4912C5.94336 20.8708 6.08171 22.5752 6.3584 23.6045C6.84538 25.4085 7.87467 26.6758 9.44629 27.4062C10.4424 27.8822 11.5879 28.1201 12.8828 28.1201C16.8672 28.1201 19.2357 26.471 19.9883 23.1729C20.1986 22.221 20.3037 20.6771 20.3037 18.541V9.55957C20.3037 8.12077 19.9606 7.15234 19.2744 6.6543C19.0973 6.52148 18.6768 6.37207 18.0127 6.20605C17.4925 6.08431 17.2324 5.91829 17.2324 5.70801C17.2324 5.38704 17.4704 5.22656 17.9463 5.22656C18.2562 5.22656 18.7155 5.25977 19.3242 5.32617C19.9329 5.38151 20.3923 5.40918 20.7021 5.40918C21.4769 5.40918 22.2682 5.36491 23.0762 5.27637C23.375 5.24316 23.5355 5.22656 23.5576 5.22656C23.8564 5.22656 24.0059 5.35384 24.0059 5.6084C24.0059 5.86296 23.8066 6.07878 23.4082 6.25586C22.8548 6.51042 22.5228 6.69303 22.4121 6.80371C21.9583 7.23535 21.7314 8.20931 21.7314 9.72559V17.2627C21.7314 20.1182 21.5931 22.138 21.3164 23.3223C20.8294 25.3366 19.7669 26.8971 18.1289 28.0039C16.6016 29.0332 14.7643 29.5479 12.6172 29.5479C7.72526 29.5479 4.77572 27.6719 3.76855 23.9199C3.45866 22.7689 3.30371 20.9261 3.30371 18.3916V9.72559C3.30371 8.19824 2.98828 7.18001 2.35742 6.6709C2.18034 6.52702 1.85384 6.38867 1.37793 6.25586C0.913086 6.11198 0.669596 6.02344 0.647461 5.99023C0.558919 5.90169 0.514648 5.78548 0.514648 5.6416ZM25.9648 5.20996C25.9648 6.22819 25.6383 7.22428 24.9854 8.19824C24.3545 9.11686 23.5742 9.8252 22.6445 10.3232C22.3457 10.4782 22.1022 10.5557 21.9141 10.5557C21.6706 10.5557 21.5488 10.4727 21.5488 10.3066C21.5488 10.2402 21.7425 10.0465 22.1299 9.72559C22.6058 9.31608 22.9655 8.92871 23.209 8.56348C23.5964 7.98796 23.79 7.3737 23.79 6.7207C23.79 6.13411 23.5742 5.55859 23.1426 4.99414C22.7109 4.42969 22.4951 4.11979 22.4951 4.06445C22.4951 3.88737 22.5671 3.74902 22.7109 3.64941C23.7956 2.88574 24.3822 2.50391 24.4707 2.50391C24.9355 2.50391 25.3174 2.85254 25.6162 3.5498C25.8486 4.11426 25.9648 4.66764 25.9648 5.20996ZM26.8447 21.9609C26.8447 19.8249 27.5863 18.0098 29.0693 16.5156C30.5524 15.0215 32.362 14.2744 34.498 14.2744C36.6562 14.2744 38.4049 14.9827 39.7441 16.3994C41.0501 17.7829 41.7031 19.5592 41.7031 21.7285C41.7031 23.9089 40.9782 25.7516 39.5283 27.2568C38.0785 28.762 36.2689 29.5146 34.0996 29.5146C31.9414 29.5146 30.1872 28.7897 28.8369 27.3398C27.5088 25.9232 26.8447 24.1302 26.8447 21.9609ZM29.2354 21.0479C29.2354 22.9736 29.6283 24.6559 30.4141 26.0947C31.388 27.8545 32.7604 28.7344 34.5312 28.7344C36.1914 28.7344 37.431 28.098 38.25 26.8252C38.9473 25.7627 39.2959 24.3571 39.2959 22.6084C39.2959 20.3838 38.7979 18.5576 37.8018 17.1299C36.8057 15.7021 35.5716 14.9883 34.0996 14.9883C32.4727 14.9883 31.2275 15.6136 30.3643 16.8643C29.6117 17.96 29.2354 19.3545 29.2354 21.0479ZM43.2305 14.1748C43.2305 15.193 42.904 16.1891 42.251 17.1631C41.6201 18.0817 40.8398 18.79 39.9102 19.2881C39.6113 19.443 39.3678 19.5205 39.1797 19.5205C38.9362 19.5205 38.8145 19.4375 38.8145 19.2715C38.8145 19.2051 39.0081 19.0114 39.3955 18.6904C39.8714 18.2809 40.2311 17.8936 40.4746 17.5283C40.862 16.9528 41.0557 16.3385 41.0557 15.6855C41.0557 15.099 40.8398 14.5234 40.4082 13.959C39.9766 13.3945 39.7607 13.0846 39.7607 13.0293C39.7607 12.8522 39.8327 12.7139 39.9766 12.6143C41.0612 11.8506 41.6478 11.4688 41.7363 11.4688C42.2012 11.4688 42.583 11.8174 42.8818 12.5146C43.1143 13.0791 43.2305 13.6325 43.2305 14.1748ZM46.418 18.0098C46.418 17.2572 46.2077 16.7646 45.7871 16.5322C45.5879 16.4326 45.195 16.3662 44.6084 16.333C44.1878 16.3109 43.9775 16.1836 43.9775 15.9512C43.9775 15.7409 44.3206 15.5472 45.0068 15.3701C45.5492 15.2262 45.9753 15.0879 46.2852 14.9551C46.6615 14.7669 47.0433 14.5788 47.4307 14.3906C47.9951 14.1139 48.3382 13.9756 48.46 13.9756C48.6924 13.9756 48.8086 14.2467 48.8086 14.7891V16.7979C50.3359 15.182 51.7969 14.374 53.1914 14.374C54.099 14.374 54.9069 14.6396 55.6152 15.1709C56.3346 15.7021 56.8604 16.3994 57.1924 17.2627C58.3102 16.2334 59.0407 15.597 59.3838 15.3535C60.3024 14.7005 61.1934 14.374 62.0566 14.374C62.7539 14.374 63.418 14.5511 64.0488 14.9053C65.1667 15.5361 65.9027 16.571 66.2568 18.0098C66.4561 18.8288 66.5557 20.1458 66.5557 21.9609V25.2646C66.5557 26.2054 66.6221 26.8307 66.7549 27.1406C66.9984 27.7272 67.502 28.0648 68.2656 28.1533C68.9408 28.2308 69.2783 28.4134 69.2783 28.7012C69.2783 28.9668 69.0957 29.0996 68.7305 29.0996C68.3984 29.0996 67.9004 29.0719 67.2363 29.0166C66.5723 28.9613 66.0742 28.9336 65.7422 28.9336C65.4323 28.9336 64.973 28.9613 64.3643 29.0166C63.7666 29.0719 63.3294 29.0996 63.0527 29.0996C62.776 29.0996 62.6377 28.9779 62.6377 28.7344C62.6377 28.5684 62.7871 28.3802 63.0859 28.1699C63.4512 27.9043 63.6615 27.7327 63.7168 27.6553C64.0378 27.2126 64.1982 26.4434 64.1982 25.3477V21.2139C64.1982 19.6312 64.0378 18.4525 63.7168 17.6777C63.2409 16.4714 62.3389 15.8682 61.0107 15.8682C59.9593 15.8682 59.1403 16.1836 58.5537 16.8145C57.9671 17.4342 57.6738 18.2754 57.6738 19.3379V25.3809C57.6738 26.7311 57.9616 27.5889 58.5371 27.9541C58.6035 27.9984 58.93 28.0814 59.5166 28.2031C59.9482 28.2917 60.1641 28.4577 60.1641 28.7012C60.1641 28.9668 59.9925 29.0996 59.6494 29.0996C59.3395 29.0996 58.8691 29.0719 58.2383 29.0166C57.6185 28.9613 57.1481 28.9336 56.8271 28.9336C56.5283 28.9336 56.0801 28.9613 55.4824 29.0166C54.8848 29.0719 54.4365 29.0996 54.1377 29.0996C53.8721 29.0996 53.7393 28.9779 53.7393 28.7344C53.7393 28.5684 53.8887 28.3802 54.1875 28.1699C54.5527 27.8932 54.763 27.7161 54.8184 27.6387C55.1393 27.196 55.2998 26.4323 55.2998 25.3477V21.2139C55.2998 19.6201 55.1449 18.4359 54.835 17.6611C54.348 16.4658 53.4349 15.8682 52.0957 15.8682C51.0443 15.8682 50.2308 16.1836 49.6553 16.8145C49.0908 17.4342 48.8086 18.2754 48.8086 19.3379V25.3809C48.8086 26.7975 49.124 27.6663 49.7549 27.9873C49.766 27.9984 50.0703 28.0648 50.668 28.1865C51.0553 28.264 51.249 28.4355 51.249 28.7012C51.249 28.9668 51.0885 29.0996 50.7676 29.0996C50.4577 29.0996 49.9873 29.0719 49.3564 29.0166C48.7367 28.9613 48.2663 28.9336 47.9453 28.9336C47.6243 28.9336 47.1484 28.9613 46.5176 29.0166C45.8978 29.0719 45.4329 29.0996 45.123 29.0996C44.8353 29.0996 44.6914 28.9779 44.6914 28.7344C44.6914 28.5794 44.8464 28.3913 45.1562 28.1699C45.5658 27.8711 45.7926 27.694 45.8369 27.6387C46.2243 27.1738 46.418 26.4102 46.418 25.3477V18.0098ZM80.916 18.0098C80.916 17.2572 80.7057 16.7646 80.2852 16.5322C80.0859 16.4326 79.693 16.3662 79.1064 16.333C78.6859 16.3109 78.4756 16.1836 78.4756 15.9512C78.4756 15.7409 78.8187 15.5472 79.5049 15.3701C80.0472 15.2262 80.4733 15.0879 80.7832 14.9551C81.1595 14.7669 81.5413 14.5788 81.9287 14.3906C82.4932 14.1139 82.8363 13.9756 82.958 13.9756C83.1904 13.9756 83.3066 14.2467 83.3066 14.7891V16.7979C84.834 15.182 86.2949 14.374 87.6895 14.374C88.597 14.374 89.4049 14.6396 90.1133 15.1709C90.8327 15.7021 91.3584 16.3994 91.6904 17.2627C92.8083 16.2334 93.5387 15.597 93.8818 15.3535C94.8005 14.7005 95.6914 14.374 96.5547 14.374C97.252 14.374 97.916 14.5511 98.5469 14.9053C99.6647 15.5361 100.401 16.571 100.755 18.0098C100.954 18.8288 101.054 20.1458 101.054 21.9609V25.2646C101.054 26.2054 101.12 26.8307 101.253 27.1406C101.496 27.7272 102 28.0648 102.764 28.1533C103.439 28.2308 103.776 28.4134 103.776 28.7012C103.776 28.9668 103.594 29.0996 103.229 29.0996C102.896 29.0996 102.398 29.0719 101.734 29.0166C101.07 28.9613 100.572 28.9336 100.24 28.9336C99.9303 28.9336 99.471 28.9613 98.8623 29.0166C98.2646 29.0719 97.8275 29.0996 97.5508 29.0996C97.2741 29.0996 97.1357 28.9779 97.1357 28.7344C97.1357 28.5684 97.2852 28.3802 97.584 28.1699C97.9492 27.9043 98.1595 27.7327 98.2148 27.6553C98.5358 27.2126 98.6963 26.4434 98.6963 25.3477V21.2139C98.6963 19.6312 98.5358 18.4525 98.2148 17.6777C97.7389 16.4714 96.8369 15.8682 95.5088 15.8682C94.4574 15.8682 93.6383 16.1836 93.0518 16.8145C92.4652 17.4342 92.1719 18.2754 92.1719 19.3379V25.3809C92.1719 26.7311 92.4596 27.5889 93.0352 27.9541C93.1016 27.9984 93.4281 28.0814 94.0146 28.2031C94.4463 28.2917 94.6621 28.4577 94.6621 28.7012C94.6621 28.9668 94.4906 29.0996 94.1475 29.0996C93.8376 29.0996 93.3672 29.0719 92.7363 29.0166C92.1165 28.9613 91.6462 28.9336 91.3252 28.9336C91.0264 28.9336 90.5781 28.9613 89.9805 29.0166C89.3828 29.0719 88.9346 29.0996 88.6357 29.0996C88.3701 29.0996 88.2373 28.9779 88.2373 28.7344C88.2373 28.5684 88.3867 28.3802 88.6855 28.1699C89.0508 27.8932 89.2611 27.7161 89.3164 27.6387C89.6374 27.196 89.7979 26.4323 89.7979 25.3477V21.2139C89.7979 19.6201 89.6429 18.4359 89.333 17.6611C88.846 16.4658 87.9329 15.8682 86.5938 15.8682C85.5423 15.8682 84.7288 16.1836 84.1533 16.8145C83.5889 17.4342 83.3066 18.2754 83.3066 19.3379V25.3809C83.3066 26.7975 83.6221 27.6663 84.2529 27.9873C84.264 27.9984 84.5684 28.0648 85.166 28.1865C85.5534 28.264 85.7471 28.4355 85.7471 28.7012C85.7471 28.9668 85.5866 29.0996 85.2656 29.0996C84.9557 29.0996 84.4854 29.0719 83.8545 29.0166C83.2347 28.9613 82.7643 28.9336 82.4434 28.9336C82.1224 28.9336 81.6465 28.9613 81.0156 29.0166C80.3958 29.0719 79.931 29.0996 79.6211 29.0996C79.3333 29.0996 79.1895 28.9779 79.1895 28.7344C79.1895 28.5794 79.3444 28.3913 79.6543 28.1699C80.0638 27.8711 80.2907 27.694 80.335 27.6387C80.7223 27.1738 80.916 26.4102 80.916 25.3477V18.0098ZM114.086 21.5957C112.204 21.9831 110.865 22.3649 110.068 22.7412C108.508 23.4717 107.728 24.4788 107.728 25.7627C107.728 27.4671 108.569 28.3193 110.251 28.3193C111.247 28.3193 112.11 28.0703 112.841 27.5723C113.671 27.0078 114.086 26.2497 114.086 25.2979V21.5957ZM114.302 27.3398C112.808 28.7233 110.993 29.415 108.856 29.415C106.654 29.415 105.553 28.3249 105.553 26.1445C105.553 24.7832 106.173 23.7096 107.412 22.9238C108.663 22.127 110.887 21.4297 114.086 20.832V18.4912C114.086 16.3662 112.863 15.3037 110.417 15.3037C108.58 15.3037 107.661 15.9346 107.661 17.1963C107.661 17.3844 107.7 17.6667 107.777 18.043C107.866 18.4193 107.91 18.696 107.91 18.873C107.91 19.2272 107.645 19.4043 107.113 19.4043C106.704 19.4043 106.35 19.2992 106.051 19.0889C105.697 18.8564 105.52 18.5465 105.52 18.1592C105.52 17.1963 106.051 16.3219 107.113 15.5361C108.187 14.7393 109.449 14.3408 110.898 14.3408C112.891 14.3408 114.302 14.7061 115.132 15.4365C116.006 16.2223 116.443 17.5947 116.443 19.5537V25.7959C116.443 26.5596 116.488 27.0632 116.576 27.3066C116.753 27.7826 117.146 28.0205 117.755 28.0205C117.832 28.0205 117.943 28.015 118.087 28.0039C118.242 27.9928 118.358 27.9873 118.436 27.9873C118.646 27.9873 118.751 28.109 118.751 28.3525C118.751 28.8949 118.092 29.166 116.775 29.166C115.569 29.166 114.744 28.5573 114.302 27.3398ZM106.499 12.7471L110.351 6.96973H112.31L116.161 12.7471H115.198L111.33 9.24414L107.462 12.7471H106.499ZM115.132 6.27246H114.02L108.541 2.86914C107.855 2.4375 107.512 1.98372 107.512 1.50781C107.512 0.722005 107.921 0.329102 108.74 0.329102C109.172 0.329102 109.703 0.655599 110.334 1.30859L115.132 6.27246ZM122.287 18.0098C122.287 17.2572 122.077 16.7646 121.656 16.5322C121.457 16.4326 121.064 16.3662 120.478 16.333C120.057 16.3109 119.847 16.1836 119.847 15.9512C119.847 15.7409 120.19 15.5472 120.876 15.3701C121.418 15.2262 121.844 15.0879 122.154 14.9551C122.531 14.7669 122.912 14.5788 123.3 14.3906C123.864 14.1139 124.207 13.9756 124.329 13.9756C124.562 13.9756 124.678 14.2467 124.678 14.7891V16.7979C126.205 15.182 127.666 14.374 129.061 14.374C129.968 14.374 130.776 14.6396 131.484 15.1709C132.204 15.7021 132.729 16.3994 133.062 17.2627C134.179 16.2334 134.91 15.597 135.253 15.3535C136.172 14.7005 137.062 14.374 137.926 14.374C138.623 14.374 139.287 14.5511 139.918 14.9053C141.036 15.5361 141.772 16.571 142.126 18.0098C142.325 18.8288 142.425 20.1458 142.425 21.9609V25.2646C142.425 26.2054 142.491 26.8307 142.624 27.1406C142.868 27.7272 143.371 28.0648 144.135 28.1533C144.81 28.2308 145.147 28.4134 145.147 28.7012C145.147 28.9668 144.965 29.0996 144.6 29.0996C144.268 29.0996 143.77 29.0719 143.105 29.0166C142.441 28.9613 141.943 28.9336 141.611 28.9336C141.301 28.9336 140.842 28.9613 140.233 29.0166C139.636 29.0719 139.199 29.0996 138.922 29.0996C138.645 29.0996 138.507 28.9779 138.507 28.7344C138.507 28.5684 138.656 28.3802 138.955 28.1699C139.32 27.9043 139.531 27.7327 139.586 27.6553C139.907 27.2126 140.067 26.4434 140.067 25.3477V21.2139C140.067 19.6312 139.907 18.4525 139.586 17.6777C139.11 16.4714 138.208 15.8682 136.88 15.8682C135.828 15.8682 135.009 16.1836 134.423 16.8145C133.836 17.4342 133.543 18.2754 133.543 19.3379V25.3809C133.543 26.7311 133.831 27.5889 134.406 27.9541C134.473 27.9984 134.799 28.0814 135.386 28.2031C135.817 28.2917 136.033 28.4577 136.033 28.7012C136.033 28.9668 135.862 29.0996 135.519 29.0996C135.209 29.0996 134.738 29.0719 134.107 29.0166C133.488 28.9613 133.017 28.9336 132.696 28.9336C132.397 28.9336 131.949 28.9613 131.352 29.0166C130.754 29.0719 130.306 29.0996 130.007 29.0996C129.741 29.0996 129.608 28.9779 129.608 28.7344C129.608 28.5684 129.758 28.3802 130.057 28.1699C130.422 27.8932 130.632 27.7161 130.688 27.6387C131.008 27.196 131.169 26.4323 131.169 25.3477V21.2139C131.169 19.6201 131.014 18.4359 130.704 17.6611C130.217 16.4658 129.304 15.8682 127.965 15.8682C126.913 15.8682 126.1 16.1836 125.524 16.8145C124.96 17.4342 124.678 18.2754 124.678 19.3379V25.3809C124.678 26.7975 124.993 27.6663 125.624 27.9873C125.635 27.9984 125.939 28.0648 126.537 28.1865C126.924 28.264 127.118 28.4355 127.118 28.7012C127.118 28.9668 126.958 29.0996 126.637 29.0996C126.327 29.0996 125.856 29.0719 125.226 29.0166C124.606 28.9613 124.135 28.9336 123.814 28.9336C123.493 28.9336 123.018 28.9613 122.387 29.0166C121.767 29.0719 121.302 29.0996 120.992 29.0996C120.704 29.0996 120.561 28.9779 120.561 28.7344C120.561 28.5794 120.715 28.3913 121.025 28.1699C121.435 27.8711 121.662 27.694 121.706 27.6387C122.093 27.1738 122.287 26.4102 122.287 25.3477V18.0098ZM156.885 17.9766C156.885 17.2682 156.669 16.7979 156.237 16.5654C156.049 16.4658 155.656 16.3883 155.059 16.333C154.627 16.2998 154.411 16.1725 154.411 15.9512C154.411 15.752 154.682 15.5804 155.225 15.4365C156.176 15.182 157.106 14.8223 158.014 14.3574C158.501 14.1029 158.805 13.9756 158.927 13.9756C159.159 13.9756 159.275 14.2467 159.275 14.7891V17.0303C160.758 15.2594 161.904 14.374 162.712 14.374C163.155 14.374 163.614 14.529 164.09 14.8389C164.621 15.193 164.887 15.5749 164.887 15.9844C164.887 16.2279 164.748 16.5212 164.472 16.8643C164.206 17.2074 163.957 17.3789 163.725 17.3789C163.669 17.3789 163.387 17.2406 162.878 16.9639C162.369 16.6872 161.915 16.5488 161.517 16.5488C160.897 16.5488 160.36 16.8255 159.906 17.3789C159.464 17.9212 159.242 18.5078 159.242 19.1387V24.8662C159.242 25.7184 159.286 26.3105 159.375 26.6426C159.53 27.2624 159.879 27.7106 160.421 27.9873C160.498 28.0205 160.869 28.0869 161.533 28.1865C161.998 28.2529 162.23 28.4245 162.23 28.7012C162.23 28.9668 162.037 29.0996 161.649 29.0996C161.295 29.0996 160.758 29.0719 160.039 29.0166C159.331 28.9613 158.794 28.9336 158.429 28.9336C158.108 28.9336 157.621 28.9613 156.968 29.0166C156.326 29.0719 155.844 29.0996 155.523 29.0996C155.258 29.0996 155.125 28.9779 155.125 28.7344C155.125 28.5794 155.285 28.3913 155.606 28.1699C156.005 27.8932 156.232 27.7161 156.287 27.6387C156.686 27.1406 156.885 26.3659 156.885 25.3145V17.9766ZM175.379 21.5957C173.497 21.9831 172.158 22.3649 171.361 22.7412C169.801 23.4717 169.021 24.4788 169.021 25.7627C169.021 27.4671 169.862 28.3193 171.544 28.3193C172.54 28.3193 173.403 28.0703 174.134 27.5723C174.964 27.0078 175.379 26.2497 175.379 25.2979V21.5957ZM175.595 27.3398C174.101 28.7233 172.285 29.415 170.149 29.415C167.947 29.415 166.846 28.3249 166.846 26.1445C166.846 24.7832 167.465 23.7096 168.705 22.9238C169.956 22.127 172.18 21.4297 175.379 20.832V18.4912C175.379 16.3662 174.156 15.3037 171.71 15.3037C169.873 15.3037 168.954 15.9346 168.954 17.1963C168.954 17.3844 168.993 17.6667 169.07 18.043C169.159 18.4193 169.203 18.696 169.203 18.873C169.203 19.2272 168.938 19.4043 168.406 19.4043C167.997 19.4043 167.643 19.2992 167.344 19.0889C166.99 18.8564 166.812 18.5465 166.812 18.1592C166.812 17.1963 167.344 16.3219 168.406 15.5361C169.48 14.7393 170.742 14.3408 172.191 14.3408C174.184 14.3408 175.595 14.7061 176.425 15.4365C177.299 16.2223 177.736 17.5947 177.736 19.5537V25.7959C177.736 26.5596 177.781 27.0632 177.869 27.3066C178.046 27.7826 178.439 28.0205 179.048 28.0205C179.125 28.0205 179.236 28.015 179.38 28.0039C179.535 27.9928 179.651 27.9873 179.729 27.9873C179.939 27.9873 180.044 28.109 180.044 28.3525C180.044 28.8949 179.385 29.166 178.068 29.166C176.862 29.166 176.037 28.5573 175.595 27.3398ZM167.759 7.61719H168.605C168.971 9.17773 170.31 9.95801 172.623 9.95801C174.925 9.95801 176.253 9.17773 176.607 7.61719H177.454C177 10.6055 175.39 12.0996 172.623 12.0996C169.856 12.0996 168.235 10.6055 167.759 7.61719ZM183.58 18.0596C183.58 17.2848 183.37 16.7812 182.949 16.5488C182.75 16.4271 182.357 16.3551 181.771 16.333C181.35 16.3109 181.14 16.1836 181.14 15.9512C181.14 15.7962 181.189 15.68 181.289 15.6025C181.588 15.5472 181.975 15.4587 182.451 15.3369C182.617 15.2816 183.193 15.0381 184.178 14.6064C185.096 14.208 185.567 14.0088 185.589 14.0088C185.843 14.0088 185.971 14.2689 185.971 14.7891V16.7979C187.742 15.182 189.407 14.374 190.968 14.374C191.765 14.374 192.517 14.5511 193.226 14.9053C194.476 15.5251 195.301 16.5322 195.699 17.9268C195.943 18.7679 196.064 20.1126 196.064 21.9609V25.2646C196.064 26.2054 196.136 26.8307 196.28 27.1406C196.535 27.7272 197.033 28.0648 197.774 28.1533C198.427 28.2308 198.754 28.4134 198.754 28.7012C198.754 28.9668 198.582 29.0996 198.239 29.0996C197.907 29.0996 197.404 29.0719 196.729 29.0166C196.064 28.9613 195.561 28.9336 195.218 28.9336C194.919 28.9336 194.471 28.9613 193.873 29.0166C193.275 29.0719 192.827 29.0996 192.528 29.0996C192.274 29.0996 192.146 28.9779 192.146 28.7344C192.146 28.5794 192.29 28.3913 192.578 28.1699C192.954 27.8711 193.165 27.694 193.209 27.6387C193.53 27.2292 193.69 26.4655 193.69 25.3477V21.2139C193.69 19.5316 193.475 18.292 193.043 17.4951C192.467 16.4105 191.422 15.8682 189.905 15.8682C187.282 15.8682 185.971 17.0247 185.971 19.3379V25.3809C185.971 26.0781 186.021 26.5817 186.12 26.8916C186.264 27.3675 186.585 27.7327 187.083 27.9873C187.16 28.0205 187.531 28.0869 188.195 28.1865C188.66 28.2529 188.893 28.4245 188.893 28.7012C188.893 28.9668 188.71 29.0996 188.345 29.0996C187.991 29.0996 187.454 29.0719 186.734 29.0166C186.026 28.9613 185.495 28.9336 185.141 28.9336C184.82 28.9336 184.338 28.9613 183.696 29.0166C183.065 29.0719 182.595 29.0996 182.285 29.0996C181.997 29.0996 181.854 28.9779 181.854 28.7344C181.854 28.5794 182.008 28.3913 182.318 28.1699C182.728 27.8711 182.955 27.694 182.999 27.6387C183.386 27.1738 183.58 26.4102 183.58 25.3477V18.0596ZM202.971 29.5146C201.952 29.891 201.443 30.7376 201.443 32.0547C201.443 33.8477 202.821 34.7441 205.577 34.7441C206.983 34.7441 208.173 34.5449 209.146 34.1465C210.508 33.5931 211.188 32.7188 211.188 31.5234C211.188 30.9922 211.045 30.6048 210.757 30.3613C210.48 30.1289 209.943 29.9906 209.146 29.9463C208.117 29.9131 207.082 29.8799 206.042 29.8467C204.825 29.8024 203.801 29.6917 202.971 29.5146ZM202.938 18.8066C202.938 21.9941 204.066 23.5879 206.324 23.5879C208.505 23.5879 209.595 22.2985 209.595 19.7197C209.595 18.4469 209.357 17.3734 208.881 16.499C208.283 15.4255 207.398 14.8887 206.225 14.8887C205.129 14.8887 204.293 15.2816 203.718 16.0674C203.198 16.7646 202.938 17.6777 202.938 18.8066ZM202.19 29.0996C201.371 28.7012 200.962 27.9873 200.962 26.958C200.962 25.8955 201.56 24.8109 202.755 23.7041C201.349 22.7744 200.646 21.3577 200.646 19.4541C200.646 17.9268 201.172 16.6595 202.224 15.6523C203.275 14.6452 204.564 14.1416 206.092 14.1416C207.132 14.1416 208.145 14.3685 209.13 14.8223C210.115 15.276 210.668 15.5029 210.79 15.5029C211.211 15.5029 211.609 15.3369 211.985 15.0049C212.362 14.6729 212.572 14.2965 212.616 13.876C212.66 13.7764 212.705 13.6768 212.749 13.5771C212.793 13.4775 212.876 13.4277 212.998 13.4277C213.286 13.4277 213.43 13.6546 213.43 14.1084C213.43 15.7132 212.788 16.8145 211.504 17.4121C211.747 17.9434 211.869 18.5078 211.869 19.1055C211.869 20.7878 211.294 22.1104 210.143 23.0732C209.069 23.9697 207.674 24.418 205.959 24.418C205.549 24.418 205.096 24.3792 204.598 24.3018C204.1 24.2132 203.84 24.1689 203.817 24.1689C203.408 24.1689 203.054 24.3737 202.755 24.7832C202.467 25.1816 202.323 25.5911 202.323 26.0117C202.323 26.6315 202.661 27.0632 203.336 27.3066C203.967 27.5501 205.76 27.6719 208.715 27.6719C210.032 27.6719 210.995 27.8545 211.604 28.2197C212.4 28.6956 212.799 29.5423 212.799 30.7598C212.799 32.5085 211.98 33.7979 210.342 34.6279C209.08 35.2699 207.481 35.5908 205.544 35.5908C204.105 35.5908 202.871 35.3695 201.842 34.9268C200.436 34.318 199.733 33.3939 199.733 32.1543C199.733 30.8815 200.552 29.8633 202.19 29.0996ZM225.35 18.0098C225.35 17.2572 225.139 16.7646 224.719 16.5322C224.52 16.4326 224.127 16.3662 223.54 16.333C223.119 16.3109 222.909 16.1836 222.909 15.9512C222.909 15.7409 223.252 15.5472 223.938 15.3701C224.481 15.2262 224.907 15.0879 225.217 14.9551C225.593 14.7669 225.975 14.5788 226.362 14.3906C226.927 14.1139 227.27 13.9756 227.392 13.9756C227.624 13.9756 227.74 14.2467 227.74 14.7891V16.7979C229.268 15.182 230.729 14.374 232.123 14.374C233.031 14.374 233.839 14.6396 234.547 15.1709C235.266 15.7021 235.792 16.3994 236.124 17.2627C237.242 16.2334 237.972 15.597 238.315 15.3535C239.234 14.7005 240.125 14.374 240.988 14.374C241.686 14.374 242.35 14.5511 242.98 14.9053C244.098 15.5361 244.834 16.571 245.188 18.0098C245.388 18.8288 245.487 20.1458 245.487 21.9609V25.2646C245.487 26.2054 245.554 26.8307 245.687 27.1406C245.93 27.7272 246.434 28.0648 247.197 28.1533C247.872 28.2308 248.21 28.4134 248.21 28.7012C248.21 28.9668 248.027 29.0996 247.662 29.0996C247.33 29.0996 246.832 29.0719 246.168 29.0166C245.504 28.9613 245.006 28.9336 244.674 28.9336C244.364 28.9336 243.905 28.9613 243.296 29.0166C242.698 29.0719 242.261 29.0996 241.984 29.0996C241.708 29.0996 241.569 28.9779 241.569 28.7344C241.569 28.5684 241.719 28.3802 242.018 28.1699C242.383 27.9043 242.593 27.7327 242.648 27.6553C242.969 27.2126 243.13 26.4434 243.13 25.3477V21.2139C243.13 19.6312 242.969 18.4525 242.648 17.6777C242.173 16.4714 241.271 15.8682 239.942 15.8682C238.891 15.8682 238.072 16.1836 237.485 16.8145C236.899 17.4342 236.605 18.2754 236.605 19.3379V25.3809C236.605 26.7311 236.893 27.5889 237.469 27.9541C237.535 27.9984 237.862 28.0814 238.448 28.2031C238.88 28.2917 239.096 28.4577 239.096 28.7012C239.096 28.9668 238.924 29.0996 238.581 29.0996C238.271 29.0996 237.801 29.0719 237.17 29.0166C236.55 28.9613 236.08 28.9336 235.759 28.9336C235.46 28.9336 235.012 28.9613 234.414 29.0166C233.816 29.0719 233.368 29.0996 233.069 29.0996C232.804 29.0996 232.671 28.9779 232.671 28.7344C232.671 28.5684 232.82 28.3802 233.119 28.1699C233.484 27.8932 233.695 27.7161 233.75 27.6387C234.071 27.196 234.231 26.4323 234.231 25.3477V21.2139C234.231 19.6201 234.076 18.4359 233.767 17.6611C233.28 16.4658 232.367 15.8682 231.027 15.8682C229.976 15.8682 229.162 16.1836 228.587 16.8145C228.022 17.4342 227.74 18.2754 227.74 19.3379V25.3809C227.74 26.7975 228.056 27.6663 228.687 27.9873C228.698 27.9984 229.002 28.0648 229.6 28.1865C229.987 28.264 230.181 28.4355 230.181 28.7012C230.181 28.9668 230.02 29.0996 229.699 29.0996C229.389 29.0996 228.919 29.0719 228.288 29.0166C227.668 28.9613 227.198 28.9336 226.877 28.9336C226.556 28.9336 226.08 28.9613 225.449 29.0166C224.829 29.0719 224.365 29.0996 224.055 29.0996C223.767 29.0996 223.623 28.9779 223.623 28.7344C223.623 28.5794 223.778 28.3913 224.088 28.1699C224.497 27.8711 224.724 27.694 224.769 27.6387C225.156 27.1738 225.35 26.4102 225.35 25.3477V18.0098ZM249.339 21.9609C249.339 19.8249 250.08 18.0098 251.563 16.5156C253.047 15.0215 254.856 14.2744 256.992 14.2744C259.15 14.2744 260.899 14.9827 262.238 16.3994C263.544 17.7829 264.197 19.5592 264.197 21.7285C264.197 23.9089 263.472 25.7516 262.022 27.2568C260.573 28.762 258.763 29.5146 256.594 29.5146C254.436 29.5146 252.681 28.7897 251.331 27.3398C250.003 25.9232 249.339 24.1302 249.339 21.9609ZM251.729 21.0479C251.729 22.9736 252.122 24.6559 252.908 26.0947C253.882 27.8545 255.255 28.7344 257.025 28.7344C258.686 28.7344 259.925 28.098 260.744 26.8252C261.441 25.7627 261.79 24.3571 261.79 22.6084C261.79 20.3838 261.292 18.5576 260.296 17.1299C259.3 15.7021 258.066 14.9883 256.594 14.9883C254.967 14.9883 253.722 15.6136 252.858 16.8643C252.106 17.96 251.729 19.3545 251.729 21.0479ZM265.725 14.1748C265.725 15.193 265.398 16.1891 264.745 17.1631C264.114 18.0817 263.334 18.79 262.404 19.2881C262.105 19.443 261.862 19.5205 261.674 19.5205C261.43 19.5205 261.309 19.4375 261.309 19.2715C261.309 19.2051 261.502 19.0114 261.89 18.6904C262.366 18.2809 262.725 17.8936 262.969 17.5283C263.356 16.9528 263.55 16.3385 263.55 15.6855C263.55 15.099 263.334 14.5234 262.902 13.959C262.471 13.3945 262.255 13.0846 262.255 13.0293C262.255 12.8522 262.327 12.7139 262.471 12.6143C263.555 11.8506 264.142 11.4688 264.23 11.4688C264.695 11.4688 265.077 11.8174 265.376 12.5146C265.608 13.0791 265.725 13.6325 265.725 14.1748ZM253.871 12.7471L258.669 7.7832C259.3 7.13021 259.831 6.80371 260.263 6.80371C261.082 6.80371 261.491 7.18555 261.491 7.94922C261.491 8.44727 261.148 8.91211 260.462 9.34375L254.983 12.7471H253.871ZM268.812 9.21094C268.812 8.92318 268.995 8.54688 269.36 8.08203C269.726 7.60612 270.041 7.36816 270.307 7.36816C270.55 7.36816 270.854 7.59505 271.22 8.04883C271.585 8.49154 271.768 8.8457 271.768 9.11133C271.768 9.39909 271.585 9.76432 271.22 10.207C270.854 10.6497 270.528 10.8711 270.24 10.8711C269.93 10.8711 269.615 10.6774 269.294 10.29C268.973 9.8916 268.812 9.5319 268.812 9.21094ZM268.979 18.9893C268.979 17.9046 268.879 17.2074 268.68 16.8975C268.492 16.5876 268.071 16.4105 267.418 16.3662C266.854 16.333 266.571 16.2057 266.571 15.9844C266.571 15.7298 266.848 15.5472 267.401 15.4365C267.955 15.3148 268.469 15.1543 268.945 14.9551C269.322 14.7669 269.698 14.5788 270.074 14.3906C270.639 14.1139 270.987 13.9756 271.12 13.9756C271.375 13.9756 271.502 14.1582 271.502 14.5234C271.502 15.0658 271.485 15.8848 271.452 16.9805C271.419 18.0651 271.402 18.8786 271.402 19.4209V25.4473C271.402 26.7533 271.784 27.5999 272.548 27.9873C272.625 28.0316 272.996 28.098 273.66 28.1865C274.125 28.2529 274.357 28.4245 274.357 28.7012C274.357 28.9668 274.164 29.0996 273.776 29.0996C273.422 29.0996 272.885 29.0719 272.166 29.0166C271.458 28.9613 270.921 28.9336 270.556 28.9336C270.235 28.9336 269.748 28.9613 269.095 29.0166C268.453 29.0719 267.971 29.0996 267.65 29.0996C267.385 29.0996 267.252 28.9779 267.252 28.7344C267.252 28.5684 267.407 28.3747 267.717 28.1533C268.126 27.8766 268.359 27.7051 268.414 27.6387C268.79 27.1849 268.979 26.4102 268.979 25.3145V18.9893Z" fill="#025899"/>
</svg>
