<svg width="22" height="27" viewBox="0 0 22 27" fill="none" xmlns="http://www.w3.org/2000/svg">
<path d="M14.964 0.208672C14.8367 0.0782776 14.6621 0 14.4812 0H3.6488C1.64994 0 0 1.59789 0 3.54124V23.4586C0 25.4021 1.64994 27 3.6488 27H18.3512C20.3501 27 22 25.4021 22 23.4586V7.64339C22 7.47386 21.9195 7.31092 21.8055 7.18691L14.964 0.208672ZM15.1585 2.30219L19.7397 6.97824H16.7616C15.8763 6.97824 15.1585 6.28693 15.1585 5.42608V2.30219ZM18.3512 25.6957H3.6488C2.39461 25.6957 1.34147 24.6848 1.34147 23.4586V3.54124C1.34147 2.32175 2.38783 1.30435 3.6488 1.30435H13.8171V5.42608C13.8171 7.01079 15.1318 8.28259 16.7616 8.28259H20.6585V23.4586C20.6585 24.6848 19.6122 25.6957 18.3512 25.6957Z" fill="white"/>
<path d="M16.5201 21.1957H5.47987C5.11103 21.1957 4.80914 21.489 4.80914 21.8479C4.80914 22.2065 5.11103 22.5001 5.47987 22.5001H16.5269C16.8957 22.5001 17.1976 22.2065 17.1976 21.8479C17.1976 21.489 16.8957 21.1957 16.5201 21.1957Z" fill="white"/>
<path d="M10.5104 18.8544C10.6379 18.9848 10.8123 19.0631 11 19.0631C11.1879 19.0631 11.3623 18.9848 11.4896 18.8544L15.4202 14.7522C15.675 14.4912 15.6549 14.0739 15.3867 13.8327C15.1183 13.5849 14.6891 13.6042 14.441 13.8652L11.6707 16.7543V9.63268C11.6707 9.27383 11.3688 8.9805 11 8.9805C10.6312 8.9805 10.3293 9.27383 10.3293 9.63268V16.7543L7.56581 13.8652C7.31095 13.6044 6.88829 13.5849 6.62008 13.8327C6.35187 14.0805 6.33175 14.4914 6.58661 14.7522L10.5104 18.8544Z" fill="white"/>
</svg>
