<svg width="733" height="122" viewBox="0 0 733 122" fill="none" xmlns="http://www.w3.org/2000/svg">
<path d="M24.8311 83.8281V108H19.8506L10.1387 91.7969V108H5.1582V83.8281H10.1387L19.8672 100.048V83.8281H24.8311ZM45.2842 93.6729V97.5576H32.667V93.6729H45.2842ZM34.1445 83.8281V108H29.1641V83.8281H34.1445ZM48.8369 83.8281V108H43.873V83.8281H48.8369ZM63.2969 87.9619L56.7227 108H51.4268L60.4082 83.8281H63.7783L63.2969 87.9619ZM68.7588 108L62.168 87.9619L61.6367 83.8281H65.04L74.0713 108H68.7588ZM68.46 99.002V102.903H55.6934V99.002H68.46ZM64.1602 77.3535L69.1738 81.9688V82.168H65.3721L62.7656 79.7441L60.1924 82.168H56.457V81.9189L61.3877 77.3535H64.1602ZM60.1758 111.802C60.1758 111.16 60.4193 110.623 60.9062 110.191C61.3932 109.771 62.0462 109.561 62.8652 109.561C63.6732 109.561 64.3206 109.771 64.8076 110.191C65.3057 110.623 65.5547 111.16 65.5547 111.802C65.5547 112.433 65.3057 112.964 64.8076 113.396C64.3206 113.827 63.6732 114.043 62.8652 114.043C62.0462 114.043 61.3932 113.827 60.9062 113.396C60.4193 112.964 60.1758 112.433 60.1758 111.802ZM85.7256 99.3838H79.5664V95.499H85.7256C86.6774 95.499 87.4521 95.3441 88.0498 95.0342C88.6475 94.7132 89.0846 94.2705 89.3613 93.7061C89.638 93.1416 89.7764 92.5052 89.7764 91.7969C89.7764 91.0775 89.638 90.4079 89.3613 89.7881C89.0846 89.1683 88.6475 88.6702 88.0498 88.2939C87.4521 87.9176 86.6774 87.7295 85.7256 87.7295H81.293V108H76.3125V83.8281H85.7256C87.6182 83.8281 89.2396 84.1712 90.5898 84.8574C91.9512 85.5326 92.9915 86.4678 93.7109 87.6631C94.4303 88.8584 94.79 90.2253 94.79 91.7637C94.79 93.3242 94.4303 94.6745 93.7109 95.8145C92.9915 96.9544 91.9512 97.8343 90.5898 98.4541C89.2396 99.0739 87.6182 99.3838 85.7256 99.3838ZM111.674 83.8281V108H106.693V83.8281H111.674ZM126.15 83.8281L116.571 95.7646L111.043 101.708L110.146 96.9932L113.882 91.8799L120.041 83.8281H126.15ZM120.489 108L113.367 96.8271L117.053 93.7393L126.383 108H120.489ZM144.429 93.6729V97.5576H131.812V93.6729H144.429ZM133.289 83.8281V108H128.309V83.8281H133.289ZM147.981 83.8281V108H143.018V83.8281H147.981ZM162.441 87.9619L155.867 108H150.571L159.553 83.8281H162.923L162.441 87.9619ZM167.903 108L161.312 87.9619L160.781 83.8281H164.185L173.216 108H167.903ZM167.604 99.002V102.903H154.838V99.002H167.604ZM163.271 78.7314L167.903 82.5996H164.5L161.877 80.292L159.254 82.5996H155.834L160.482 78.7314H163.271ZM168.933 80.4746H166.409L166.177 78.5654C166.642 78.5433 167.012 78.499 167.289 78.4326C167.577 78.3662 167.787 78.2721 167.92 78.1504C168.064 78.0176 168.136 77.8516 168.136 77.6523C168.136 77.3867 168.047 77.1875 167.87 77.0547C167.693 76.9108 167.45 76.8112 167.14 76.7559C166.841 76.6895 166.492 76.6562 166.094 76.6562L166.21 74.8135C167.007 74.8135 167.704 74.8743 168.302 74.9961C168.899 75.1178 169.403 75.3005 169.812 75.5439C170.222 75.7764 170.526 76.0586 170.726 76.3906C170.936 76.7227 171.041 77.099 171.041 77.5195C171.041 78.1725 170.82 78.6595 170.377 78.9805C169.945 79.2904 169.464 79.484 168.933 79.5615V80.4746ZM188.506 83.8281H193.47V99.7988C193.47 101.658 193.071 103.224 192.274 104.497C191.489 105.77 190.398 106.727 189.004 107.369C187.62 108.011 186.027 108.332 184.223 108.332C182.419 108.332 180.814 108.011 179.408 107.369C178.014 106.727 176.918 105.77 176.121 104.497C175.335 103.224 174.942 101.658 174.942 99.7988V83.8281H179.923V99.7988C179.923 100.883 180.094 101.769 180.438 102.455C180.781 103.141 181.273 103.645 181.915 103.966C182.568 104.287 183.337 104.447 184.223 104.447C185.13 104.447 185.899 104.287 186.53 103.966C187.172 103.645 187.659 103.141 187.991 102.455C188.334 101.769 188.506 100.883 188.506 99.7988V83.8281ZM215.948 83.8281V108H210.984V83.8281H215.948ZM223.386 83.8281V87.7295H203.663V83.8281H223.386ZM247.79 82.4834H250.944C250.944 84.1104 250.734 85.4993 250.313 86.6504C249.893 87.7904 249.168 88.6647 248.139 89.2734C247.12 89.8711 245.709 90.1699 243.905 90.1699V87.5967C245.078 87.5967 245.942 87.3975 246.495 86.999C247.049 86.5895 247.403 86.0029 247.558 85.2393C247.713 84.4756 247.79 83.557 247.79 82.4834ZM239.572 83.8281H244.536V99.7988C244.536 101.658 244.138 103.224 243.341 104.497C242.555 105.77 241.465 106.727 240.07 107.369C238.687 108.011 237.093 108.332 235.289 108.332C233.485 108.332 231.88 108.011 230.475 107.369C229.08 106.727 227.984 105.77 227.188 104.497C226.402 103.224 226.009 101.658 226.009 99.7988V83.8281H230.989V99.7988C230.989 100.883 231.161 101.769 231.504 102.455C231.847 103.141 232.34 103.645 232.981 103.966C233.634 104.287 234.404 104.447 235.289 104.447C236.197 104.447 236.966 104.287 237.597 103.966C238.239 103.645 238.726 103.141 239.058 102.455C239.401 101.769 239.572 100.883 239.572 99.7988V83.8281ZM235.04 77.1543L238.311 82.2676H234.393L229.844 77.1543H235.04ZM272.941 99.9814H277.905C277.806 101.608 277.357 103.053 276.561 104.314C275.775 105.576 274.674 106.561 273.257 107.27C271.851 107.978 270.158 108.332 268.177 108.332C266.627 108.332 265.238 108.066 264.01 107.535C262.781 106.993 261.73 106.218 260.855 105.211C259.992 104.204 259.334 102.986 258.88 101.559C258.426 100.131 258.199 98.5316 258.199 96.7607V95.084C258.199 93.3132 258.432 91.7139 258.896 90.2861C259.372 88.8473 260.048 87.6243 260.922 86.6172C261.807 85.61 262.864 84.8353 264.093 84.293C265.321 83.7507 266.694 83.4795 268.21 83.4795C270.224 83.4795 271.923 83.8447 273.307 84.5752C274.701 85.3057 275.78 86.3128 276.544 87.5967C277.319 88.8805 277.784 90.3415 277.938 91.9795H272.958C272.903 91.0055 272.709 90.181 272.377 89.5059C272.045 88.8197 271.541 88.305 270.866 87.9619C270.202 87.6077 269.317 87.4307 268.21 87.4307C267.38 87.4307 266.655 87.5856 266.035 87.8955C265.415 88.2054 264.895 88.6758 264.475 89.3066C264.054 89.9375 263.739 90.7344 263.528 91.6973C263.329 92.6491 263.229 93.7669 263.229 95.0508V96.7607C263.229 98.0114 263.324 99.1126 263.512 100.064C263.7 101.005 263.988 101.802 264.375 102.455C264.773 103.097 265.283 103.584 265.902 103.916C266.533 104.237 267.291 104.397 268.177 104.397C269.217 104.397 270.075 104.231 270.75 103.899C271.425 103.567 271.94 103.075 272.294 102.422C272.659 101.769 272.875 100.955 272.941 99.9814ZM297.296 93.6729V97.5576H284.679V93.6729H297.296ZM286.156 83.8281V108H281.176V83.8281H286.156ZM300.849 83.8281V108H295.885V83.8281H300.849ZM315.309 87.9619L308.734 108H303.438L312.42 83.8281H315.79L315.309 87.9619ZM320.771 108L314.18 87.9619L313.648 83.8281H317.052L326.083 108H320.771ZM320.472 99.002V102.903H307.705V99.002H320.472ZM316.172 77.3535L321.186 81.9688V82.168H317.384L314.777 79.7441L312.204 82.168H308.469V81.9189L313.399 77.3535H316.172ZM341.373 83.8281H346.337V99.7988C346.337 101.658 345.938 103.224 345.142 104.497C344.356 105.77 343.266 106.727 341.871 107.369C340.488 108.011 338.894 108.332 337.09 108.332C335.286 108.332 333.681 108.011 332.275 107.369C330.881 106.727 329.785 105.77 328.988 104.497C328.202 103.224 327.81 101.658 327.81 99.7988V83.8281H332.79V99.7988C332.79 100.883 332.962 101.769 333.305 102.455C333.648 103.141 334.14 103.645 334.782 103.966C335.435 104.287 336.204 104.447 337.09 104.447C337.997 104.447 338.767 104.287 339.397 103.966C340.039 103.645 340.526 103.141 340.858 102.455C341.201 101.769 341.373 100.883 341.373 99.7988V83.8281ZM368.732 87.9619L362.158 108H356.862L365.844 83.8281H369.214L368.732 87.9619ZM374.194 108L367.604 87.9619L367.072 83.8281H370.476L379.507 108H374.194ZM373.896 99.002V102.903H361.129V99.002H373.896ZM369.596 77.3535L374.609 81.9688V82.168H370.808L368.201 79.7441L365.628 82.168H361.893V81.9189L366.823 77.3535H369.596ZM394.797 83.8281H399.761V99.7988C399.761 101.658 399.362 103.224 398.565 104.497C397.78 105.77 396.689 106.727 395.295 107.369C393.911 108.011 392.318 108.332 390.514 108.332C388.71 108.332 387.105 108.011 385.699 107.369C384.305 106.727 383.209 105.77 382.412 104.497C381.626 103.224 381.233 101.658 381.233 99.7988V83.8281H386.214V99.7988C386.214 100.883 386.385 101.769 386.729 102.455C387.072 103.141 387.564 103.645 388.206 103.966C388.859 104.287 389.628 104.447 390.514 104.447C391.421 104.447 392.19 104.287 392.821 103.966C393.463 103.645 393.95 103.141 394.282 102.455C394.625 101.769 394.797 100.883 394.797 99.7988V83.8281Z" fill="#2B2B2B"/>
<path d="M17.9258 29.1406V59H8.09961V29.1406H0.507812V20.5078H25.4668V29.1406H17.9258ZM47.8359 59L38.9492 46.584H38.8477V59H29.4277V20.5078H41.5898C42.8763 20.5078 43.9089 20.5332 44.6875 20.584C45.8385 20.6348 46.8711 20.7448 47.7852 20.9141C50.0872 21.3034 51.9746 22.0905 53.4473 23.2754C56.6126 25.8145 58.1953 29.3184 58.1953 33.7871C58.1953 36.8509 57.3574 39.4831 55.6816 41.6836C53.9382 44.0195 51.5853 45.4245 48.623 45.8984L59.0586 59H47.8359ZM48.7754 34.3457C48.7754 32.5684 48.1406 31.2311 46.8711 30.334C45.7708 29.5384 44.2897 29.1406 42.4277 29.1406H38.8477V39.8555H42.3262C46.6257 39.8555 48.7754 38.0189 48.7754 34.3457ZM86.3281 59L84.4492 53.4395H71.0938L69.0625 59H58.5L73.9375 20.5078H81.6816L96.9922 59H86.3281ZM77.8984 32.4922H77.7461L73.7852 45.6445H81.8594L77.8984 32.4922ZM124.846 59L110.195 35.5898L110.068 35.6406L110.348 59H100.928V20.5078H109.408L124.287 44.7051L124.389 44.6035L123.957 20.5078H133.377V59H124.846ZM179.689 39.1445C179.689 45.0521 177.743 49.9694 173.85 53.8965C169.939 57.8236 165.039 59.7871 159.148 59.7871C153.461 59.7871 148.637 57.849 144.676 53.9727C140.698 50.0625 138.709 45.2721 138.709 39.6016C138.709 33.9141 140.732 29.166 144.777 25.3574C148.738 21.6504 153.579 19.7969 159.301 19.7969C163.566 19.7969 167.519 21.041 171.158 23.5293C174.933 26.1022 177.396 29.3945 178.547 33.4062H167.527C165.665 30.0885 162.839 28.4297 159.047 28.4297C155.966 28.4297 153.427 29.5299 151.43 31.7305C149.5 33.8633 148.535 36.487 148.535 39.6016C148.535 42.8516 149.475 45.5599 151.354 47.7266C153.334 50.0117 155.915 51.1543 159.098 51.1543C161.315 51.1543 163.228 50.6549 164.836 49.6562C166.562 48.5729 167.714 47.0072 168.289 44.959H156.812V37.1133H179.639C179.656 37.418 179.673 37.7565 179.689 38.1289V39.1445ZM215.262 29.1406V59H205.436V29.1406H197.844V20.5078H222.803V29.1406H215.262ZM249.184 59V43.6133H236.59V59H226.764V20.5078H236.59V34.9805H249.184V20.5078H259.01V59H249.184ZM265.967 59V20.5078H275.793V59H265.967ZM282.775 59V20.5078H304.154V29.1406H292.195V35.1328H303.799V43.7656H292.195V50.3672H304.154V59H282.775ZM302.809 12.7637L300.371 7.66016L312.838 0.957031L315.605 7.10156L302.809 12.7637ZM295.725 17.1309L293.338 14.1348L290.951 17.1309H282.521L290.621 8.49805H296.258L304.053 17.1309H295.725ZM324.695 29.1406V59H314.869V29.1406H307.277V20.5078H332.236V29.1406H324.695ZM380.58 47.2949C380.58 50.8835 379.404 53.6764 377.051 55.6738C375.273 57.1973 373.301 58.1706 371.135 58.5938C370.238 58.7799 369.188 58.8984 367.986 58.9492C367.495 58.9661 366.928 58.9831 366.285 59H352.244V20.5078H364.102C365.591 20.5078 366.725 20.5332 367.504 20.584C368.74 20.6517 369.823 20.7956 370.754 21.0156C373.056 21.5404 374.943 22.6237 376.416 24.2656C377.939 25.9414 378.701 28.0573 378.701 30.6133C378.701 34.1003 377.212 36.6816 374.232 38.3574C378.464 39.8132 380.58 42.7923 380.58 47.2949ZM369.307 32.0605C369.307 30.9434 368.917 30.1562 368.139 29.6992C367.529 29.3268 366.632 29.1406 365.447 29.1406H361.664V35.1328H365.396C368.003 35.1328 369.307 34.1087 369.307 32.0605ZM371.16 46.6855C371.16 45.416 370.686 44.5104 369.738 43.9688C368.993 43.5625 367.944 43.3594 366.59 43.3594H361.664V50.3672H366.539C367.927 50.3672 369.002 50.1133 369.764 49.6055C370.695 48.9792 371.16 48.0059 371.16 46.6855ZM385.912 59V20.5078H395.738V59H385.912ZM386.699 71.4668V63.6211H394.951V71.4668H386.699Z" fill="#025899"/>
<path d="M433.953 108V38.2734H419.422V19.1719H456.629V108H433.953ZM551.316 75.9492C551.316 82.8633 549.871 88.8984 546.98 94.0547C543.855 99.5234 539.266 103.645 533.211 106.418C528.68 108.605 523.797 109.699 518.562 109.699C513.953 109.699 509.441 108.781 505.027 106.945C491.746 101.359 485.105 91.0273 485.105 75.9492V51.2227C485.105 35.8711 491.785 25.5195 505.145 20.168C509.676 18.4102 514.148 17.5312 518.562 17.5312C523.133 17.5312 527.664 18.4883 532.156 20.4023C544.93 25.9883 551.316 36.2617 551.316 51.2227V75.9492ZM528.641 50.6367C528.641 46.6914 527.938 43.625 526.531 41.4375C524.773 38.7812 522 37.4531 518.211 37.4531C514.617 37.4531 511.902 38.8008 510.066 41.4961C508.543 43.8008 507.781 46.8477 507.781 50.6367V76.5352C507.781 80.3633 508.543 83.4297 510.066 85.7344C511.863 88.4297 514.578 89.7773 518.211 89.7773C522 89.7773 524.773 88.4492 526.531 85.793C527.938 83.5664 528.641 80.4805 528.641 76.5352V50.6367ZM625.496 75.9492C625.496 82.8633 624.051 88.8984 621.16 94.0547C618.035 99.5234 613.445 103.645 607.391 106.418C602.859 108.605 597.977 109.699 592.742 109.699C588.133 109.699 583.621 108.781 579.207 106.945C565.926 101.359 559.285 91.0273 559.285 75.9492V51.2227C559.285 35.8711 565.965 25.5195 579.324 20.168C583.855 18.4102 588.328 17.5312 592.742 17.5312C597.312 17.5312 601.844 18.4883 606.336 20.4023C619.109 25.9883 625.496 36.2617 625.496 51.2227V75.9492ZM602.82 50.6367C602.82 46.6914 602.117 43.625 600.711 41.4375C598.953 38.7812 596.18 37.4531 592.391 37.4531C588.797 37.4531 586.082 38.8008 584.246 41.4961C582.723 43.8008 581.961 46.8477 581.961 50.6367V76.5352C581.961 80.3633 582.723 83.4297 584.246 85.7344C586.043 88.4297 588.758 89.7773 592.391 89.7773C596.18 89.7773 598.953 88.4492 600.711 85.793C602.117 83.5664 602.82 80.4805 602.82 76.5352V50.6367ZM728.152 88.0781C728.152 94.0156 726.023 99.1133 721.766 103.371C717.547 107.668 712.469 109.816 706.531 109.816C700.516 109.816 695.398 107.688 691.18 103.43C686.922 99.2109 684.793 94.0938 684.793 88.0781C684.793 82.0625 686.922 76.9453 691.18 72.7266C695.398 68.4688 700.516 66.3398 706.531 66.3398C712.508 66.3398 717.605 68.4883 721.824 72.7852C726.043 77.0039 728.152 82.1016 728.152 88.0781ZM669.207 108H655.438L692.117 19.1719H706.062L669.207 108ZM677 39.0938C677 45.0703 674.891 50.168 670.672 54.3867C666.453 58.6055 661.375 60.7148 655.438 60.7148C649.5 60.7148 644.402 58.6055 640.145 54.3867C635.926 50.168 633.816 45.0703 633.816 39.0938C633.816 33.1562 635.926 28.0586 640.145 23.8008C644.363 19.543 649.461 17.4141 655.438 17.4141C661.414 17.4141 666.512 19.5234 670.73 23.7422C674.91 28 677 33.1172 677 39.0938ZM714.793 88.0781C714.793 82.4922 712.039 79.6992 706.531 79.6992C700.945 79.6992 698.152 82.4922 698.152 88.0781C698.152 93.6641 700.945 96.457 706.531 96.457C712.039 96.457 714.793 93.6641 714.793 88.0781ZM663.699 38.9766C663.699 33.4688 660.945 30.7148 655.438 30.7148C649.891 30.7148 647.117 33.5078 647.117 39.0938C647.117 44.6406 649.891 47.4141 655.438 47.4141C660.945 47.4141 663.699 44.6016 663.699 38.9766Z" fill="url(#paint0_linear_951_15251)"/>
<defs>
<linearGradient id="paint0_linear_951_15251" x1="733" y1="52" x2="407" y2="52" gradientUnits="userSpaceOnUse">
<stop stop-color="#FF1F1F"/>
<stop offset="0.5" stop-color="#FF6969" stop-opacity="0.932292"/>
<stop offset="1" stop-color="#FF1F1F"/>
</linearGradient>
</defs>
</svg>
