<svg width="56" height="55" viewBox="0 0 56 55" fill="none" xmlns="http://www.w3.org/2000/svg">
<path d="M1.60624 54.3268H31.3217C32.2587 54.3268 32.928 53.6126 32.928 52.7685V51.0804C32.928 49.3274 31.4556 47.899 29.6486 47.899V46.0161C29.6486 43.4839 27.5069 41.4712 24.9637 41.4712H7.96429C5.35414 41.4712 3.27941 43.5489 3.27941 46.0161V47.899C1.47239 47.899 0 49.3274 0 51.0804V52.7685C0 53.6126 0.736196 54.3268 1.60624 54.3268Z" fill="#025899"/>
<path d="M20.5458 35.0434C21.6166 36.4718 23.6913 36.7315 25.1637 35.6926C26.6361 34.6538 26.9038 32.641 25.833 31.2126L15.8609 18.5518C14.7901 17.1234 12.7154 16.8637 11.243 17.9025C9.77057 18.9414 9.50287 20.9541 10.5737 22.3825L20.5458 35.0434Z" fill="#025899"/>
<path d="M44.1048 17.8376C45.1756 19.266 47.2504 19.5257 48.7228 18.4869C50.1951 17.4481 50.4628 15.4353 49.392 14.0069L39.5538 1.28115C38.483 -0.147255 36.4082 -0.406965 34.9358 0.631873C33.4634 1.67071 33.1957 3.68346 34.2666 5.11186L44.1048 17.8376Z" fill="#025899"/>
<path d="M36.8764 27.0573C39.2858 25.3043 41.0928 23.0967 42.2306 20.7593L30.7192 5.9559C28.109 6.41039 25.432 7.44923 23.0226 9.2672C20.6132 11.0202 18.8062 13.2278 17.6685 15.5652L29.1799 30.3686C31.79 29.9141 34.4671 28.8753 36.8764 27.0573Z" fill="#025899"/>
<path d="M41.2941 27.5118C40.5579 28.2909 39.7547 29.0051 38.8178 29.6544C37.9477 30.3037 37.0107 30.8231 36.0068 31.3425L38.1485 34.0695L43.3688 30.2388L41.2941 27.5118Z" fill="#025899"/>
<path d="M45.4434 32.771L40.2231 36.6017L50.0614 49.3274C51.1322 50.7558 53.2069 51.0156 54.6793 49.9767C56.1517 48.9379 56.4194 46.9251 55.3486 45.4967L45.4434 32.771Z" fill="#025899"/>
</svg>
