<svg width="428" height="209" viewBox="0 0 428 209" fill="none" xmlns="http://www.w3.org/2000/svg">
<path d="M335.226 36.6828C330.565 33.4643 324.219 35.0808 321.405 39.9958L285.575 102.567C282.99 107.082 284.33 112.792 288.378 116.062C313.018 135.964 329.69 165.548 332.481 199.008C332.94 204.512 337.373 209 342.896 209H417.779C423.388 209 427.923 204.38 427.538 198.785C422.914 131.445 387.44 72.7407 335.226 36.6828Z" fill="#025899"/>
<path d="M262.425 100.757C267.363 102.929 273.269 101.299 275.98 96.6356L311.793 35.0315C314.638 30.1366 312.865 23.8369 307.755 21.398C279.307 7.82016 247.555 0 213.882 0C180.186 0 148.413 7.63976 120.124 21.3693C115.063 23.8257 113.332 30.086 116.16 34.9497L152.02 96.6356C154.731 101.299 160.637 102.929 165.578 100.763C180.407 94.2618 196.77 90.6712 214.118 90.6712C231.461 90.6712 247.655 94.2595 262.425 100.757Z" fill="#025899"/>
<path d="M139.622 116.062C143.67 112.792 145.01 107.082 142.425 102.567L106.595 39.9958C103.781 35.0808 97.4346 33.4643 92.7741 36.6828C40.5601 72.7407 5.08582 131.445 0.461621 198.785C0.0774078 204.38 4.61239 209 10.2207 209H85.1038C90.6267 209 95.0598 204.512 95.5189 199.008C98.3099 165.548 114.982 135.964 139.622 116.062Z" fill="#025899"/>
<path d="M182.315 36.2031V49H179.688V36.2031H182.315ZM186.253 36.2031V38.2686H175.812V36.2031H186.253ZM192.01 38.3916L188.529 49H185.726L190.48 36.2031H192.265L192.01 38.3916ZM194.901 49L191.412 38.3916L191.131 36.2031H192.933L197.714 49H194.901ZM194.743 44.2363V46.3018H187.984V44.2363H194.743ZM192.467 32.7754L195.121 35.2188V35.3242H193.108L191.729 34.041L190.366 35.3242H188.389V35.1924L190.999 32.7754H192.467ZM190.357 51.0127C190.357 50.6729 190.486 50.3887 190.744 50.1602C191.002 49.9375 191.348 49.8262 191.781 49.8262C192.209 49.8262 192.552 49.9375 192.81 50.1602C193.073 50.3887 193.205 50.6729 193.205 51.0127C193.205 51.3467 193.073 51.6279 192.81 51.8564C192.552 52.085 192.209 52.1992 191.781 52.1992C191.348 52.1992 191.002 52.085 190.744 51.8564C190.486 51.6279 190.357 51.3467 190.357 51.0127ZM209.315 36.2031V49H206.679L201.537 40.4219V49H198.9V36.2031H201.537L206.688 44.79V36.2031H209.315ZM221.339 36.2031V49H218.711V36.2031H221.339ZM225.276 36.2031V38.2686H214.835V36.2031H225.276ZM231.033 38.3916L227.553 49H224.749L229.504 36.2031H231.288L231.033 38.3916ZM233.925 49L230.436 38.3916L230.154 36.2031H231.956L236.737 49H233.925ZM233.767 44.2363V46.3018H227.008V44.2363H233.767ZM231.49 32.7754L234.145 35.2188V35.3242H232.132L230.752 34.041L229.39 35.3242H227.412V35.1924L230.022 32.7754H231.49ZM239.128 36.2031H241.36L244.647 45.5986L247.935 36.2031H250.167L245.544 49H243.751L239.128 36.2031ZM237.924 36.2031H240.147L240.552 45.3613V49H237.924V36.2031ZM249.147 36.2031H251.38V49H248.743V45.3613L249.147 36.2031Z" fill="white"/>
<path d="M42.6099 165.498L43.9257 163.224C44.6449 163.701 45.188 164.289 45.555 164.988C45.9249 165.683 46.0844 166.449 46.0335 167.286C45.9856 168.118 45.699 168.988 45.1739 169.895C44.7632 170.606 44.2733 171.172 43.7042 171.594C43.13 172.013 42.4963 172.29 41.803 172.423C41.1126 172.552 40.3801 172.531 39.6055 172.361C38.8309 172.19 38.0379 171.87 37.2264 171.401L36.4579 170.956C35.6464 170.487 34.9751 169.957 34.444 169.365C33.9108 168.766 33.5293 168.132 33.2995 167.464C33.0726 166.792 32.9977 166.102 33.0748 165.395C33.1519 164.688 33.3914 163.988 33.7933 163.293C34.3273 162.37 34.945 161.688 35.6464 161.247C36.3508 160.802 37.0984 160.574 37.8892 160.565C38.6829 160.55 39.4756 160.724 40.2674 161.087L38.9472 163.37C38.4862 163.137 38.057 163.007 37.6596 162.98C37.2571 162.951 36.8878 163.045 36.5516 163.264C36.2133 163.474 35.8974 163.833 35.6041 164.34C35.384 164.72 35.2629 165.094 35.2406 165.46C35.2184 165.826 35.2961 166.189 35.4737 166.549C35.6513 166.909 35.9329 167.265 36.3184 167.616C36.7018 167.96 37.1877 168.302 37.7761 168.642L38.5597 169.096C39.1328 169.427 39.6625 169.676 40.1485 169.842C40.6295 170.005 41.071 170.084 41.4729 170.08C41.8727 170.067 42.2308 169.963 42.5473 169.767C42.8616 169.563 43.1361 169.258 43.3708 168.853C43.6465 168.376 43.7978 167.939 43.8246 167.541C43.8514 167.144 43.7621 166.777 43.5567 166.442C43.3543 166.102 43.0387 165.787 42.6099 165.498ZM46.1743 152.665L47.9546 153.695L44.6103 159.477L42.83 158.447L46.1743 152.665ZM38.71 155.161L49.7874 161.568L48.4673 163.85L37.3899 157.443L38.71 155.161ZM42.6044 148.428L53.6818 154.835L52.3661 157.109L41.2887 150.702L42.6044 148.428ZM48.3316 142.897L55.7721 151.221L54.3683 153.648L45.6715 143.125L46.5648 141.58L48.3316 142.897ZM58.9624 145.705L48.0324 143.414L45.9972 142.562L46.8993 141.002L60.3705 143.27L58.9624 145.705ZM54.7596 143.457L56.5475 144.491L53.1635 150.342L51.3756 149.307L54.7596 143.457ZM44.0816 144.469L43.5618 141.295L44.2659 140.078L47.2807 138.938L46.3478 140.551L44.6975 141.14L45.0101 142.864L44.0816 144.469ZM45.9172 138.891L44.5923 136.459L45.5912 134.732L46.6388 137.643L45.9172 138.891ZM52.2062 131.827L63.2837 138.234L61.9679 140.509L50.8905 134.101L52.2062 131.827ZM54.1776 128.418L55.9655 129.452L50.7378 138.491L48.9499 137.457L54.1776 128.418ZM70.3527 121.904L72.133 122.934L68.9074 128.511L67.1271 127.481L70.3527 121.904ZM58.2569 121.365L69.3343 127.773L68.0141 130.055L56.9367 123.648L58.2569 121.365ZM66.9124 104.979L67.7485 103.533C68.4941 103.964 69.0749 104.429 69.4909 104.927C69.9018 105.422 70.1104 105.986 70.1165 106.619C70.1205 107.244 69.8834 107.97 69.4052 108.796L68.226 108.114C68.5369 107.577 68.6745 107.128 68.6385 106.769C68.5976 106.407 68.4226 106.089 68.1137 105.816C67.8048 105.542 67.4044 105.263 66.9124 104.979ZM65.3504 109.101L66.6661 106.826L73.9852 111.06C74.8373 111.552 75.4494 112.15 75.8214 112.853C76.1964 113.55 76.3462 114.304 76.2707 115.113C76.1982 115.917 75.9229 116.732 75.4447 117.559C74.9665 118.386 74.394 119.036 73.7273 119.51C73.0634 119.979 72.3343 120.228 71.5398 120.255C70.7482 120.278 69.9264 120.043 69.0742 119.55L61.7552 115.317L63.0754 113.035L70.3944 117.268C70.8914 117.555 71.3427 117.711 71.7481 117.736C72.1535 117.761 72.5148 117.668 72.8321 117.459C73.1522 117.245 73.4297 116.935 73.6644 116.529C73.9049 116.114 74.0353 115.718 74.0554 115.344C74.0785 114.965 73.9768 114.608 73.7503 114.274C73.5268 113.935 73.1665 113.622 72.6694 113.334L65.3504 109.101ZM72.4323 94.8909L73.2816 93.4225C73.9917 93.8332 74.5366 94.2838 74.9163 94.7741C75.299 95.2595 75.5019 95.7863 75.5251 96.3548C75.5483 96.9233 75.3707 97.5346 74.9922 98.1889L73.813 97.5069C74.0212 97.1467 74.0964 96.8179 74.0383 96.5204C73.9803 96.2228 73.811 95.9421 73.5304 95.6783C73.2498 95.4144 72.8837 95.152 72.4323 94.8909ZM78.7625 98.0953L79.2875 98.3989C80.1294 98.8859 80.8192 99.4371 81.3567 100.053C81.8971 100.663 82.2814 101.315 82.5096 102.009C82.7357 102.695 82.8058 103.399 82.7199 104.121C82.6369 104.838 82.3945 105.543 81.9926 106.238C81.6728 106.791 81.2935 107.266 80.8546 107.662C80.4136 108.049 79.928 108.351 79.3978 108.565C78.8654 108.772 78.2979 108.887 77.6953 108.911C77.0927 108.934 76.4659 108.86 75.8149 108.686C75.1668 108.508 74.5055 108.223 73.8309 107.833L73.3059 107.529C72.4589 107.039 71.7692 106.488 71.2367 105.876C70.7022 105.255 70.3193 104.6 70.0882 103.912C69.8599 103.218 69.7873 102.513 69.8703 101.796C69.9562 101.074 70.2001 100.365 70.602 99.6704C70.9218 99.1175 71.3022 98.6471 71.7432 98.2591C72.182 97.8632 72.6676 97.5619 73.2 97.3554C73.7302 97.1409 74.2952 97.0243 74.8948 97.0056C75.4975 96.9819 76.1228 97.0593 76.7709 97.2378C77.419 97.4164 78.0828 97.7022 78.7625 98.0953ZM77.9541 100.704L77.4139 100.392C76.9473 100.122 76.5033 99.9124 76.0818 99.7634C75.6632 99.6093 75.2698 99.5171 74.9015 99.4868C74.5361 99.4515 74.1998 99.477 73.8927 99.5633C73.5834 99.6417 73.3047 99.7783 73.0566 99.9732C72.8114 100.163 72.5993 100.413 72.4203 100.722C72.1974 101.108 72.078 101.495 72.0621 101.886C72.0412 102.273 72.1228 102.658 72.3068 103.042C72.4938 103.421 72.7797 103.793 73.1644 104.158C73.5491 104.523 74.0357 104.875 74.624 105.215L75.1642 105.528C75.6309 105.798 76.0734 106.01 76.492 106.164C76.9135 106.313 77.3094 106.406 77.6799 106.445C78.0482 106.475 78.387 106.451 78.6963 106.373C79.0085 106.289 79.2887 106.15 79.5368 105.955C79.7879 105.755 80.0029 105.5 80.1818 105.191C80.4048 104.805 80.5227 104.42 80.5356 104.035C80.5515 103.645 80.4659 103.26 80.2789 102.881C80.0898 102.494 79.8014 102.121 79.4138 101.762C79.024 101.394 78.5374 101.042 77.9541 100.704ZM82.823 108.577C82.5288 108.407 82.3474 108.153 82.2787 107.815C82.215 107.48 82.2917 107.125 82.5088 106.75C82.723 106.38 82.9909 106.139 83.3128 106.027C83.6426 105.913 83.9546 105.941 84.2488 106.112C84.5379 106.279 84.7153 106.534 84.7811 106.876C84.8499 107.214 84.7772 107.568 84.563 107.938C84.3459 108.314 84.0739 108.556 83.747 108.664C83.4201 108.773 83.1121 108.744 82.823 108.577ZM79.7883 84.1389L90.8657 90.546L89.5456 92.8284L79.5458 92.9843L86.9713 97.2792L85.6512 99.5616L74.5738 93.1545L75.8939 90.8721L85.9057 90.713L78.4726 86.4138L79.7883 84.1389ZM91.3026 76.4317L95.6925 78.9708C95.8007 79.2635 95.8724 79.6604 95.9076 80.1613C95.9377 80.6593 95.8747 81.2422 95.7186 81.91C95.5624 82.5778 95.2512 83.315 94.7847 84.1214C94.3711 84.8366 93.8774 85.4209 93.3038 85.8743C92.7251 86.3248 92.0843 86.6311 91.3814 86.7931C90.6814 86.95 89.9357 86.9519 89.1444 86.7988C88.3479 86.6428 87.5236 86.3183 86.6715 85.8254L85.9792 85.425C85.1271 84.9321 84.4319 84.3845 83.8936 83.7821C83.3582 83.1746 82.9811 82.5335 82.7622 81.8586C82.5434 81.1837 82.479 80.4933 82.5692 79.7874C82.6594 79.0814 82.9054 78.381 83.3073 77.6861C83.8647 76.7224 84.4796 76.0221 85.152 75.5852C85.8193 75.1454 86.5232 74.923 87.2638 74.9182C88.0023 74.9053 88.7486 75.0662 89.5027 75.4008L88.2222 77.6148C87.8146 77.4535 87.4258 77.3708 87.0559 77.3667C86.686 77.3626 86.3373 77.4621 86.01 77.6654C85.6855 77.8635 85.3898 78.1934 85.1228 78.655C84.9028 79.0354 84.7849 79.4207 84.769 79.8109C84.751 80.1931 84.833 80.5721 85.0149 80.9481C85.1968 81.3241 85.4776 81.6929 85.8573 82.0547C86.2369 82.4164 86.7184 82.766 87.3017 83.1033L88.0093 83.5126C88.5875 83.847 89.132 84.0875 89.6429 84.2341C90.1487 84.3777 90.6169 84.4285 91.0473 84.3864C91.4757 84.3363 91.8598 84.193 92.1997 83.9564C92.5396 83.7198 92.8343 83.3859 93.0836 82.9548C93.2919 82.5947 93.4346 82.2778 93.5116 82.0042C93.5915 81.7256 93.6309 81.4878 93.6298 81.2908C93.6265 81.0858 93.6077 80.9193 93.5735 80.7912L91.6106 79.6559L90.4049 81.7405L88.7768 80.7988L91.3026 76.4317Z" fill="white"/>
<path d="M359.986 113.179L361.147 115.537L353.56 119.27C352.677 119.705 351.84 119.882 351.049 119.801C350.261 119.725 349.551 119.431 348.921 118.919C348.292 118.411 347.767 117.729 347.346 116.873C346.924 116.016 346.701 115.178 346.677 114.361C346.656 113.548 346.855 112.804 347.273 112.128C347.694 111.457 348.346 110.904 349.229 110.47L356.816 106.736L357.98 109.102L350.394 112.835C349.879 113.089 349.498 113.377 349.252 113.701C349.007 114.024 348.882 114.376 348.88 114.756C348.88 115.141 348.984 115.544 349.191 115.964C349.403 116.395 349.659 116.723 349.959 116.948C350.261 117.178 350.614 117.291 351.018 117.289C351.424 117.291 351.885 117.166 352.4 116.912L359.986 113.179ZM362.881 119.062L358.825 124.036L365.241 123.856L366.51 126.435L357.349 126.251L353.169 128.308L351.989 125.911L356.169 123.854L361.608 116.475L362.881 119.062ZM371.322 136.214L359.84 141.864L358.68 139.506L370.162 133.856L371.322 136.214ZM373.061 139.746L371.208 140.658L366.597 131.29L368.45 130.378L373.061 139.746ZM374.962 143.61L363.481 149.261L362.32 146.903L373.802 141.253L374.962 143.61ZM374.527 141.013L377.716 141.364L378.931 143.832L375.435 142.859L374.527 141.013ZM380.652 155.171L369.17 160.822L368.006 158.456L373.432 150.055L365.735 153.843L364.571 151.477L376.053 145.826L377.217 148.192L371.787 156.605L379.491 152.813L380.652 155.171Z" fill="white"/>
<path fill-rule="evenodd" clip-rule="evenodd" d="M323.995 209H104.004C104.541 148.709 153.582 100 214 100C274.418 100 323.459 148.709 323.995 209Z" fill="url(#paint0_linear_215_2111)"/>
<path d="M158.747 172.136H154.729L154.708 169.923H158.081C158.675 169.923 159.162 169.848 159.542 169.697C159.922 169.54 160.204 169.314 160.391 169.021C160.584 168.72 160.681 168.354 160.681 167.925C160.681 167.438 160.588 167.044 160.401 166.743C160.222 166.442 159.939 166.224 159.553 166.088C159.173 165.952 158.683 165.884 158.081 165.884H155.847V179H152.624V163.359H158.081C158.991 163.359 159.803 163.445 160.52 163.617C161.243 163.789 161.855 164.05 162.356 164.401C162.858 164.752 163.241 165.196 163.506 165.733C163.771 166.263 163.903 166.894 163.903 167.624C163.903 168.269 163.757 168.863 163.463 169.407C163.176 169.951 162.722 170.396 162.099 170.739C161.483 171.083 160.677 171.273 159.682 171.309L158.747 172.136ZM158.607 179H153.849L155.105 176.486H158.607C159.173 176.486 159.635 176.397 159.993 176.218C160.351 176.032 160.616 175.781 160.788 175.466C160.96 175.151 161.046 174.789 161.046 174.381C161.046 173.923 160.967 173.525 160.81 173.188C160.659 172.852 160.416 172.594 160.079 172.415C159.743 172.229 159.299 172.136 158.747 172.136H155.643L155.664 169.923H159.531L160.272 170.793C161.225 170.779 161.991 170.947 162.571 171.298C163.159 171.642 163.585 172.089 163.85 172.641C164.122 173.192 164.258 173.783 164.258 174.413C164.258 175.416 164.039 176.261 163.603 176.948C163.166 177.629 162.525 178.141 161.68 178.484C160.842 178.828 159.818 179 158.607 179ZM177.17 176.486V179H168.845V176.486H177.17ZM169.897 163.359V179H166.675V163.359H169.897ZM176.085 169.729V172.179H168.845V169.729H176.085ZM177.159 163.359V165.884H168.845V163.359H177.159ZM173.002 159.127L176.246 162.113V162.242H173.786L172.1 160.674L170.435 162.242H168.018V162.081L171.208 159.127H173.002ZM170.392 181.417C170.392 181.002 170.549 180.654 170.864 180.375C171.179 180.103 171.602 179.967 172.132 179.967C172.655 179.967 173.074 180.103 173.389 180.375C173.711 180.654 173.872 181.002 173.872 181.417C173.872 181.825 173.711 182.169 173.389 182.448C173.074 182.728 172.655 182.867 172.132 182.867C171.602 182.867 171.179 182.728 170.864 182.448C170.549 182.169 170.392 181.825 170.392 181.417ZM191.779 163.359V179H188.557L182.272 168.516V179H179.05V163.359H182.272L188.567 173.854V163.359H191.779ZM205.014 169.729V172.243H196.85V169.729H205.014ZM197.806 163.359V179H194.583V163.359H197.806ZM207.312 163.359V179H204.101V163.359H207.312ZM228.324 163.359V179H225.102L218.817 168.516V179H215.595V163.359H218.817L225.112 173.854V163.359H228.324ZM241.559 169.729V172.243H233.395V169.729H241.559ZM234.351 163.359V179H231.128V163.359H234.351ZM243.857 163.359V179H240.646V163.359H243.857ZM253.214 166.034L248.96 179H245.533L251.345 163.359H253.525L253.214 166.034ZM256.748 179L252.483 166.034L252.14 163.359H254.342L260.186 179H256.748ZM256.555 173.178V175.702H248.294V173.178H256.555ZM253.772 159.17L257.017 162.156V162.285H254.557L252.87 160.717L251.205 162.285H248.788V162.124L251.979 159.17H253.772ZM274.365 163.359V179H271.143L264.858 168.516V179H261.636V163.359H264.858L271.153 173.854V163.359H274.365Z" fill="#025899"/>
<defs>
<linearGradient id="paint0_linear_215_2111" x1="104.004" y1="209" x2="323.996" y2="209" gradientUnits="userSpaceOnUse">
<stop stop-color="#DFAA23"/>
<stop offset="0.479167" stop-color="#FBF08D"/>
<stop offset="1" stop-color="#DFAA23"/>
</linearGradient>
</defs>
</svg>
