<svg width="225" height="57" viewBox="0 0 225 57" fill="none" xmlns="http://www.w3.org/2000/svg">
<path d="M225 0.300049H0V56.6001H225V0.300049Z" fill="white"/>
<path fill-rule="evenodd" clip-rule="evenodd" d="M37.6328 21.1001C38.1333 21.2001 38.5336 21.1001 39.0341 21.1001C40.8357 21.1001 42.6373 21.1001 44.4389 21.1001C45.3397 21.1001 46.2405 21.3001 46.9411 21.8001C48.8428 22.8001 50.3441 24.3001 51.8455 25.8001C53.0465 27.0001 54.2476 28.3001 55.4487 29.5001C55.6488 29.7001 55.7489 29.9001 55.7489 30.2001C55.7489 32.7001 55.7489 35.1001 55.7489 37.6001C55.7489 38.1001 55.5487 38.0001 55.2485 37.9001C54.0474 37.5001 53.0465 36.7001 52.0456 35.9001C50.0438 34.1001 48.2423 32.1001 46.3406 30.2001C43.438 27.2001 40.7356 24.1001 37.7329 21.2001C37.6328 21.2001 37.6328 21.2001 37.6328 21.1001Z" fill="#EA2127"/>
<path fill-rule="evenodd" clip-rule="evenodd" d="M64.6537 7.40015C64.5537 7.60015 64.6537 7.80014 64.6537 8.00014C64.6537 10.9001 64.6537 13.7001 64.6537 16.6001C64.6537 18.8001 63.9531 20.8001 62.4518 22.4001C60.6502 24.3001 58.8486 26.2001 57.047 28.2001C56.8468 28.1001 56.9469 27.9001 56.9469 27.8001C56.9469 23.9001 56.9469 20.0001 56.9469 16.1001C56.9469 15.7001 57.1471 15.5001 57.4474 15.2001C59.8495 12.6001 62.2516 10.1001 64.6537 7.50014C64.6537 7.40014 64.6537 7.40015 64.6537 7.40015Z" fill="#EA2128"/>
<path fill-rule="evenodd" clip-rule="evenodd" d="M173.955 31.6C173.354 32.1 172.754 32.6 171.953 32.7C171.953 31.2 171.953 29.8 171.953 28.3C173.154 27 174.355 25.8 175.556 24.5C175.857 24.2 176.157 24 176.457 23.7C177.358 23 178.259 22.6 179.36 22.7C180.361 22.8 181.462 22.7 182.563 22.7V22.8C181.562 23.7 180.661 24.7 179.66 25.7C178.559 26.8 177.458 27.9 176.357 29.1C175.556 29.9 174.756 30.7 173.955 31.6Z" fill="#EA2127"/>
<path fill-rule="evenodd" clip-rule="evenodd" d="M47.5415 45.0002C47.5415 44.8002 47.5415 44.6002 47.4414 44.4002C47.2413 43.7002 46.7408 43.3002 46.1403 43.3002C45.5397 43.3002 45.1394 43.7002 44.9392 44.4002C44.8391 44.8002 44.8391 45.3002 44.9392 45.7002C45.1394 46.4002 45.5397 46.8002 46.2404 46.8002C46.8409 46.8002 47.3414 46.3002 47.4414 45.6002C47.5415 45.5002 47.5415 45.3002 47.5415 45.0002ZM45.2395 49.4002C44.9392 49.1002 44.4388 49.0002 44.3387 48.5002C44.3387 48.3002 44.1385 48.0002 44.3387 47.9002C44.5389 47.8002 44.8391 47.8002 45.0393 48.1002C45.4396 48.7002 46.0402 48.9002 46.7408 48.6002C47.3413 48.4002 47.5415 47.9002 47.4414 47.1002C46.0402 47.7002 45.1394 47.6002 44.5388 46.7002C43.8382 45.7002 43.9383 44.1002 44.739 43.2002C45.4396 42.5002 46.4405 42.4002 47.5415 43.1002C47.5415 42.6002 47.8418 42.7002 48.142 42.7002C48.5424 42.7002 48.3422 43.0002 48.3422 43.2002C48.3422 44.4002 48.3422 45.6002 48.3422 46.9002C48.3422 48.0002 48.042 48.9002 46.941 49.3002C46.4406 49.4002 45.84 49.4002 45.2395 49.4002Z" fill="#ED2830"/>
<path fill-rule="evenodd" clip-rule="evenodd" d="M80.3742 45.1001C80.3742 45.3001 80.3742 45.5001 80.4743 45.8001C80.5744 46.4001 81.0748 46.8001 81.6753 46.9001C82.2759 46.9001 82.7763 46.5001 82.9765 45.9001C83.0766 45.5001 83.0766 45.0001 82.9765 44.6001C82.7763 43.9001 82.2759 43.5001 81.6753 43.5001C81.0748 43.5001 80.5744 44.0001 80.4743 44.6001C80.3742 44.7001 80.3742 44.9001 80.3742 45.1001ZM80.6744 49.4001C80.3742 49.1001 79.8737 49.0001 79.7736 48.5001C79.6736 48.3001 79.5735 48.0001 79.7736 47.9001C79.9738 47.8001 80.3742 47.8001 80.4743 48.1001C80.9747 48.7001 81.4752 48.9001 82.1758 48.6001C82.6762 48.4001 82.9765 48.0001 82.9765 47.2001C82.9765 47.1001 82.9765 47.1001 82.9765 46.9001C82.6762 47.1001 82.3759 47.3001 82.0757 47.4001C81.275 47.6001 80.3742 47.3001 79.9738 46.6001C79.3733 45.7001 79.3733 44.4001 79.9738 43.5001C80.6745 42.5001 81.8755 42.4001 83.0766 43.2001C83.0766 42.7001 83.3768 42.8001 83.6771 42.8001C84.0775 42.8001 83.8773 43.1001 83.8773 43.3001C83.8773 44.5001 83.8773 45.7001 83.8773 47.0001C83.8773 48.1001 83.577 49.0001 82.4761 49.5001C81.7754 49.4001 81.1749 49.4001 80.6744 49.4001Z" fill="#ED252E"/>
<path fill-rule="evenodd" clip-rule="evenodd" d="M178.86 45.0002C178.86 45.3002 178.86 45.5002 178.96 45.7002C179.06 46.4002 179.561 46.8002 180.161 46.8002C180.762 46.8002 181.262 46.4002 181.463 45.7002C181.563 45.2002 181.563 44.8002 181.463 44.3002C181.262 43.7002 180.762 43.3002 180.261 43.3002C179.661 43.3002 179.261 43.7002 179.06 44.3002C178.86 44.6002 178.86 44.8002 178.86 45.0002ZM179.261 49.4002C178.96 49.1002 178.36 49.0002 178.26 48.5002C178.26 48.3002 178.06 48.1002 178.26 48.0002C178.46 47.9002 178.86 47.9002 178.96 48.1002C179.561 48.8002 180.061 48.9002 180.762 48.6002C181.262 48.4002 181.463 47.9002 181.362 47.0002C180.562 47.6002 179.761 47.7002 178.86 47.1002C178.06 46.6002 177.759 45.4002 178.06 44.3002C178.46 42.7002 180.061 42.1002 181.463 43.2002C181.362 42.8002 181.663 42.7002 181.963 42.7002C182.363 42.7002 182.263 43.0002 182.263 43.2002C182.263 44.5002 182.263 45.7002 182.263 47.0002C182.263 48.1002 181.963 48.9002 180.862 49.3002C180.362 49.4002 179.761 49.4002 179.261 49.4002Z" fill="#ED252E"/>
<path fill-rule="evenodd" clip-rule="evenodd" d="M122.107 21.6003C122.107 22.2003 122.107 22.7002 122.107 23.3002C122.107 24.4002 122.107 24.4003 123.208 24.4003C124.409 24.4003 125.61 24.5002 126.811 24.3002C128.313 24.1002 129.213 22.8002 129.113 21.3002C129.013 19.9002 128.112 19.1003 126.611 18.9003C125.31 18.8003 124.009 18.8002 122.608 18.8002C122.207 18.8002 122.107 18.9002 122.107 19.3002C122.107 20.1002 122.107 20.9003 122.107 21.6003ZM122.207 30.8002C122.207 31.8002 122.207 32.8002 122.207 33.8002C122.207 34.0002 122.107 34.2003 122.507 34.2003C124.309 34.2003 126.111 34.2003 127.812 34.1003C129.314 34.0002 130.715 32.3003 130.214 30.4003C129.814 28.7003 128.513 28.0002 127.011 27.6003C125.51 27.2003 123.909 27.4003 122.407 27.4003C122.107 27.4003 122.107 27.6002 122.107 27.8002C122.207 28.9002 122.207 29.9002 122.207 30.8002ZM130.114 25.7003C132.216 26.6003 133.517 28.1003 134.018 30.1003C135.019 33.9002 133.017 36.9002 129.013 37.5002C128.112 37.6002 127.212 37.7003 126.311 37.7003C123.909 37.7003 121.406 37.7003 119.004 37.7003C118.604 37.7003 118.504 37.6003 118.504 37.2003C118.504 30.1003 118.504 23.1002 118.504 16.0002C118.504 15.6002 118.604 15.5002 119.004 15.5002C121.707 15.5002 124.409 15.5002 127.112 15.5002C128.213 15.5002 129.213 15.8002 130.214 16.3002C132.216 17.4002 133.017 19.2003 132.817 21.4003C132.616 23.4003 131.816 24.8003 130.114 25.7003Z" fill="#008447"/>
<path fill-rule="evenodd" clip-rule="evenodd" d="M104.691 22.4003C104.691 23.4003 104.691 24.5002 104.691 25.5002C104.691 25.7002 104.691 25.9003 104.991 25.9003C106.393 25.9003 107.794 26.0002 109.195 25.8002C111.197 25.5002 112.298 24.2002 112.298 22.3002C112.198 20.4002 110.997 19.2003 108.995 19.1003C107.694 19.0003 106.393 19.1002 105.091 19.0002C104.691 19.0002 104.691 19.1003 104.691 19.4003C104.691 20.4003 104.691 21.4003 104.691 22.4003ZM100.688 26.6003C100.688 23.1003 100.688 19.6003 100.688 16.1003C100.688 15.6003 100.788 15.5002 101.288 15.5002C104.191 15.5002 107.093 15.5003 110.096 15.6003C113.599 15.7003 115.801 17.9003 116.001 21.4003C116.101 23.1003 115.901 24.6003 115.1 26.1003C114.099 27.9003 112.498 28.8003 110.396 29.1003C108.695 29.3003 106.993 29.3002 105.292 29.3002C104.891 29.3002 104.791 29.4002 104.791 29.8002C104.791 32.3002 104.791 34.7003 104.791 37.2003C104.791 37.6003 104.691 37.7003 104.291 37.7003C103.29 37.7003 102.289 37.7003 101.188 37.7003C100.788 37.7003 100.688 37.6003 100.688 37.2003C100.688 33.7003 100.688 30.1003 100.688 26.6003Z" fill="#0D8547"/>
<path fill-rule="evenodd" clip-rule="evenodd" d="M89.4792 33.7003C90.6803 30.7003 91.6812 27.8003 92.4819 24.7003C93.1825 21.9003 93.783 19.0003 94.0833 16.1003C94.0833 15.7003 94.2834 15.5002 94.6838 15.5002C95.6847 15.5002 96.6856 15.5002 97.7866 15.5002C98.0868 15.5002 98.1869 15.6003 98.0868 15.9003C97.186 22.1003 95.6847 28.1003 93.1825 33.9003C92.682 35.0003 92.1816 36.2002 91.581 37.3002C91.4809 37.6002 91.2808 37.7003 90.9805 37.7003C89.8796 37.7003 88.8786 37.7003 87.7777 37.7003C87.3773 37.7003 87.2772 37.6002 87.077 37.3002C84.9752 33.2002 83.3738 28.9003 82.2728 24.4003C81.5722 21.6003 81.0717 18.8002 80.5713 16.0002C80.4712 15.6002 80.5713 15.6003 80.9716 15.6003C81.9725 15.6003 82.9734 15.6003 83.9743 15.6003C84.4747 15.6003 84.5748 15.8003 84.6749 16.2003C84.9752 18.6003 85.4756 21.0003 85.9761 23.4003C86.7768 26.7003 87.7777 30.0003 89.1789 33.2003C89.279 33.3003 89.3791 33.4003 89.4792 33.7003Z" fill="#008347"/>
<path fill-rule="evenodd" clip-rule="evenodd" d="M152.535 29.9001C152.535 27.5001 152.535 25.1001 152.535 22.8001C152.535 22.4001 152.635 22.3001 153.035 22.3001C153.736 22.3001 154.436 22.3001 155.137 22.3001C155.838 22.3001 155.938 22.4001 156.038 23.1001C156.038 23.2001 156.038 23.4001 156.038 23.5001C156.038 23.9001 156.138 23.9001 156.438 23.7001C157.839 22.8001 159.341 22.1001 161.042 22.0001C163.945 21.9001 165.346 23.1001 165.346 26.0001C165.346 29.8001 165.346 33.5001 165.346 37.3001C165.346 37.6001 165.246 37.7001 164.946 37.7001C163.845 37.7001 162.844 37.7001 161.743 37.7001C161.342 37.7001 161.242 37.6001 161.242 37.2001C161.242 33.7001 161.242 30.2001 161.242 26.7001C161.242 25.3001 160.542 24.7001 159.141 25.0001C158.24 25.2001 157.439 25.6001 156.538 26.1001C156.238 26.3001 156.238 26.5001 156.238 26.8001C156.238 30.3001 156.238 33.7001 156.238 37.2001C156.238 37.6001 156.138 37.8001 155.637 37.8001C154.737 37.8001 153.736 37.8001 152.835 37.8001C152.435 37.8001 152.234 37.7001 152.234 37.2001C152.535 34.7001 152.535 32.3001 152.535 29.9001Z" fill="#008447"/>
<path fill-rule="evenodd" clip-rule="evenodd" d="M145.83 31.9001C145.83 31.5001 145.83 31.1001 145.83 30.6001C145.83 30.2001 145.73 30.1001 145.329 30.1001C144.829 30.1001 144.428 30.1001 143.928 30.1001C141.526 30.1001 140.425 31.1001 140.725 33.2001C140.725 33.3001 140.725 33.5001 140.725 33.6001C140.925 34.9001 141.826 35.5001 143.027 35.2001C143.728 35.0001 144.328 34.7001 144.829 34.3001C145.429 33.9001 145.83 33.5001 145.63 32.7001C145.73 32.4001 145.83 32.2001 145.83 31.9001ZM145.93 35.9001C145.029 36.7001 144.028 37.4001 142.827 37.7001C141.926 38.0001 140.925 38.1001 139.924 37.9001C138.423 37.6001 137.422 36.7001 137.022 35.2001C136.722 33.9001 136.622 32.7001 137.022 31.4001C137.622 29.6001 139.024 28.8001 140.825 28.3001C142.226 27.9001 143.728 27.8001 145.229 27.8001C145.63 27.8001 145.73 27.7001 145.63 27.3001C145.63 27.2001 145.63 27.2001 145.63 27.1001C145.63 25.3001 144.729 24.5001 142.927 24.6001C141.526 24.7001 140.125 25.0001 138.823 25.6001C138.523 25.7001 138.423 25.7001 138.323 25.4001C138.123 24.9001 137.823 24.3001 137.622 23.8001C137.422 23.4001 137.422 23.1001 138.023 22.9001C140.125 22.2001 142.327 21.7001 144.629 21.8001C145.429 21.8001 146.13 21.9001 146.931 22.1001C148.532 22.6001 149.233 23.8001 149.533 25.3001C149.633 25.8001 149.633 26.3001 149.633 26.8001C149.633 29.3001 149.633 31.8001 149.633 34.3001C149.633 35.2001 149.633 36.2001 149.733 37.1001C149.833 37.4001 149.733 37.5001 149.333 37.5001C148.532 37.5001 147.831 37.5001 147.031 37.5001C146.731 37.5001 146.53 37.4001 146.43 37.1001C146.23 36.9001 146.13 36.4001 145.93 35.9001Z" fill="#008447"/>
<path fill-rule="evenodd" clip-rule="evenodd" d="M75.0646 21.2002C74.0637 22.3002 73.0628 23.2002 72.162 24.2002C68.8591 27.7002 65.5561 31.3002 62.1531 34.6002C61.1522 35.5002 60.1513 36.4002 59.0503 37.2002C58.5499 37.5002 58.1495 37.8002 57.549 37.9002C56.9485 38.1002 56.9485 38.1002 56.9485 37.5002C56.9485 35.8002 56.9485 34.0002 56.9485 32.3002C56.9485 32.1002 56.9485 31.9002 56.9485 31.8002C56.7483 30.5002 57.1486 29.6002 58.1495 28.7002C60.0512 26.9002 61.6526 24.9002 63.6544 23.3002C64.1549 22.9002 64.6553 22.6002 65.1558 22.3002C66.2567 21.6002 67.3577 21.2002 68.6589 21.3002C70.5606 21.4002 72.5624 21.3002 74.4641 21.3002C74.5641 21.2002 74.7643 21.2002 75.0646 21.2002Z" fill="#EA2127"/>
<path fill-rule="evenodd" clip-rule="evenodd" d="M47.8398 7.40015C48.7406 8.30015 49.5414 9.10014 50.3421 10.0001C52.0436 11.7001 53.645 13.5001 55.3465 15.2001C55.5467 15.4001 55.6468 15.6001 55.6468 15.9001C55.6468 19.9001 55.6468 23.9001 55.6468 27.8001C55.6468 27.9001 55.6468 27.9001 55.6468 28.1001C55.0462 27.5001 54.4457 26.9001 53.8452 26.3001C52.4439 24.8001 51.0427 23.4001 49.6414 21.8001C48.4404 20.5001 47.8398 18.9001 47.8398 17.1001C47.8398 14.0001 47.8398 10.8001 47.8398 7.70014C47.8398 7.70014 47.8398 7.60015 47.8398 7.40015Z" fill="#EA2128"/>
<path fill-rule="evenodd" clip-rule="evenodd" d="M171.952 28.3001C171.952 29.8001 171.952 31.2001 171.952 32.7001C171.952 34.2001 171.952 35.8001 171.952 37.3001C171.952 37.7001 171.852 37.8001 171.451 37.7001C170.45 37.7001 169.45 37.7001 168.449 37.7001C167.948 37.7001 167.948 37.5001 167.948 37.1001C167.948 30.3001 167.948 23.6001 167.948 16.8001C167.948 16.4001 167.748 15.8001 168.048 15.6001C168.248 15.4001 168.849 15.5001 169.249 15.5001C169.95 15.5001 170.751 15.5001 171.451 15.5001C171.852 15.5001 171.952 15.6001 171.952 16.0001C171.952 19.9001 171.952 23.7001 171.952 27.6001C171.952 27.9001 171.952 28.1001 171.952 28.3001Z" fill="#008346"/>
<path fill-rule="evenodd" clip-rule="evenodd" d="M173.953 31.6001C174.654 30.7001 175.454 29.8001 176.455 29.1001C178.357 31.9001 180.159 34.8001 182.16 37.7001C180.659 37.7001 179.258 37.7001 177.756 37.7001C177.456 37.7001 177.456 37.5001 177.356 37.3001C176.155 35.4001 174.954 33.6001 173.953 31.6001Z" fill="#008447"/>
<path fill-rule="evenodd" clip-rule="evenodd" d="M107.197 42.5002C107.197 44.1002 107.197 45.6002 107.197 47.0002C107.197 47.4002 107.097 47.5002 106.696 47.5002C106.296 47.5002 106.296 47.3002 106.296 47.0002C106.296 45.2002 106.296 43.3002 106.296 41.5002C106.296 41.3002 106.096 41.0002 106.496 41.0002C106.797 41.0002 107.197 40.8002 107.397 41.2002C108.098 42.2002 108.698 43.1002 109.399 44.1002C109.799 44.7002 110.2 45.3002 110.7 45.8002C110.7 45.1002 110.7 44.4002 110.7 43.8002C110.7 43.0002 110.7 42.2002 110.7 41.4002C110.7 41.1002 110.8 41.0002 111.1 41.0002C111.401 41.0002 111.601 41.1002 111.601 41.4002C111.601 43.2002 111.601 45.1002 111.601 46.9002C111.601 47.1002 111.801 47.4002 111.401 47.5002C111.1 47.5002 110.7 47.6002 110.4 47.2002C109.499 45.8002 108.498 44.4002 107.497 43.0002C107.497 42.9002 107.397 42.8002 107.197 42.5002Z" fill="#ED2830"/>
<path fill-rule="evenodd" clip-rule="evenodd" d="M42.1372 45.8001C42.1372 44.3001 42.1372 42.9001 42.1372 41.4001C42.1372 41.0001 42.2373 40.9001 42.6377 40.9001C43.038 40.9001 43.038 41.1001 43.038 41.4001C43.038 43.2001 43.038 45.1001 43.038 46.9001C43.038 47.1001 43.1381 47.4001 42.8379 47.4001C42.5376 47.4001 42.1373 47.6001 41.9371 47.2001C41.4366 46.4001 40.9362 45.7001 40.4357 45.0001C39.8352 44.2001 39.3347 43.4001 38.6341 42.6001C38.6341 43.2001 38.6341 43.8001 38.6341 44.4001C38.6341 45.3001 38.6341 46.2001 38.6341 47.1001C38.6341 47.5001 38.534 47.5001 38.1337 47.6001C37.7333 47.6001 37.7333 47.5001 37.7333 47.1001C37.7333 45.3001 37.7333 43.4001 37.7333 41.6001C37.7333 41.4001 37.5332 41.1001 37.8334 41.1001C38.1337 41.1001 38.534 40.9001 38.8343 41.3001C39.5349 42.4001 40.3356 43.5001 41.1363 44.7001C41.4366 45.1001 41.7369 45.5001 42.0371 45.9001C42.0371 45.8001 42.0371 45.8001 42.1372 45.8001Z" fill="#ED2830"/>
<path fill-rule="evenodd" clip-rule="evenodd" d="M62.7578 44.3002C62.7578 43.4002 62.7578 42.4002 62.7578 41.5002C62.7578 41.2002 62.7578 41.0002 63.2583 41.0002C63.6586 41.0002 63.7587 41.1002 63.7587 41.5002C63.7587 42.1002 63.7587 42.7003 63.7587 43.2003C63.7587 43.5003 63.7587 43.7003 64.1591 43.7003C65.0599 43.7003 65.9607 43.7003 66.8615 43.7003C67.1617 43.7003 67.2618 43.6002 67.2618 43.3002C67.2618 42.7002 67.2618 42.0003 67.2618 41.4003C67.2618 41.0003 67.462 41.0002 67.7623 41.0002C68.0625 41.0002 68.2627 41.0003 68.2627 41.4003C68.2627 43.3003 68.2627 45.3003 68.2627 47.2003C68.2627 47.6003 68.0625 47.6003 67.7623 47.6003C67.462 47.6003 67.2618 47.6003 67.2618 47.2003C67.2618 46.5003 67.2618 45.7002 67.2618 45.0002C67.2618 44.7002 67.2618 44.5003 66.8615 44.6003C65.9607 44.6003 65.0599 44.6003 64.1591 44.6003C63.8588 44.6003 63.7587 44.7002 63.7587 45.0002C63.7587 45.7002 63.7587 46.4003 63.7587 47.1003C63.7587 47.4003 63.7587 47.7003 63.2583 47.7003C62.7578 47.7003 62.7578 47.5003 62.7578 47.1003C62.7578 46.1003 62.7578 45.2002 62.7578 44.3002Z" fill="#ED3036"/>
<path fill-rule="evenodd" clip-rule="evenodd" d="M118.904 43.3C119.605 42.6 120.506 42.3 121.106 42.8C121.707 43.3 122.007 43 122.507 42.8C123.608 42.2 124.709 42.9 124.709 44.1C124.709 45.1 124.709 46.1 124.709 47C124.709 47.3 124.609 47.4001 124.309 47.4001C124.009 47.4001 123.808 47.4 123.808 47C123.808 46.1 123.808 45.3001 123.808 44.4001C123.808 43.6001 123.608 43.3 123.008 43.3C122.407 43.3 121.807 43.7 121.807 44.5C121.807 45.3 121.807 46.2 121.807 47C121.807 47.4 121.707 47.5 121.306 47.5C121.006 47.5 120.906 47.4 120.906 47.1C120.906 46.2 120.906 45.3001 120.906 44.4001C120.906 43.7001 120.606 43.4 120.105 43.3C119.505 43.3 119.004 43.7 118.904 44.3C118.804 45.2 118.904 46.1 118.804 47C118.804 47.3 118.804 47.5 118.404 47.5C118.003 47.5 118.003 47.3 118.003 47C118.003 45.7 118.003 44.5001 118.003 43.2001C118.003 43.0001 117.903 42.7001 118.304 42.7001C118.804 42.8001 119.004 42.8 118.904 43.3Z" fill="#ED2830"/>
<path fill-rule="evenodd" clip-rule="evenodd" d="M167.548 45.1001C167.548 45.5001 167.548 45.8001 167.748 46.2001C168.148 47.1001 169.349 47.2001 169.95 46.5001C170.45 45.9001 170.45 44.6001 169.95 43.9001C169.75 43.6001 169.349 43.4001 168.949 43.4001C168.148 43.3001 167.548 44.0001 167.548 45.1001ZM171.251 44.5001C171.551 44.4001 171.651 44.2001 171.751 43.9001C171.751 43.8001 171.851 43.7001 171.651 43.6001C171.051 43.5001 171.351 43.0001 171.351 42.8001C171.451 42.5001 171.751 42.7001 172.052 42.7001C172.152 42.7001 172.252 42.8001 172.252 42.9001C172.452 43.6001 172.152 44.4001 171.551 44.8001C171.351 45.0001 171.251 45.1001 171.251 45.4001C171.051 47.1001 169.85 48.0001 168.248 47.6001C168.048 47.5001 167.848 47.5001 167.748 47.4001C166.847 46.9001 166.547 45.6001 166.847 44.4001C167.147 43.4001 167.848 42.8001 168.949 42.8001C170.15 42.8001 170.851 43.3001 171.251 44.5001C171.151 44.4001 171.151 44.4001 171.251 44.5001Z" fill="#ED2830"/>
<path fill-rule="evenodd" clip-rule="evenodd" d="M163.843 46.9001C163.343 47.4001 162.843 47.6001 162.242 47.6001C161.241 47.5001 160.741 47.0001 160.641 46.0001C160.641 45.0001 160.641 44.1001 160.641 43.1001C160.641 42.8001 160.741 42.7001 161.041 42.7001C161.341 42.7001 161.541 42.7001 161.541 43.1001C161.541 44.0001 161.541 44.8001 161.541 45.7001C161.541 46.5001 161.842 46.8001 162.442 46.8001C163.143 46.8001 163.643 46.4001 163.743 45.7001C163.843 44.9001 163.743 44.0001 163.743 43.1001C163.743 42.8001 163.743 42.6001 164.244 42.6001C164.644 42.6001 164.644 42.8001 164.644 43.1001C164.644 43.5001 164.644 44.0001 164.644 44.4001C164.644 44.5001 164.644 44.7001 164.744 44.7001C165.145 44.7001 165.345 44.5001 165.545 44.2001C165.645 44.0001 165.845 43.7001 165.445 43.6001C165.045 43.5001 165.245 43.1001 165.245 42.8001C165.345 42.5001 165.645 42.7001 165.845 42.6001C166.246 42.6001 166.146 42.8001 166.146 43.0001C166.246 44.0001 166.045 44.8001 164.944 45.0001C164.744 45.0001 164.744 45.2001 164.744 45.4001C164.744 45.9001 164.744 46.3001 164.744 46.8001C164.744 47.0001 164.844 47.3001 164.444 47.3001C163.944 47.5001 163.843 47.4001 163.843 46.9001Z" fill="#ED2D31"/>
<path fill-rule="evenodd" clip-rule="evenodd" d="M52.6463 45.2002C52.0457 45.3002 51.4452 45.4002 50.8447 45.6002C50.5444 45.7002 50.3442 45.9002 50.3442 46.3002C50.3442 46.7002 50.5444 46.9002 50.9448 47.0002C51.9457 47.2002 52.7464 46.4002 52.6463 45.2002ZM53.7473 47.5002C52.9465 47.6002 52.9465 47.6002 52.7464 47.0002C52.0457 47.5002 51.3451 47.8002 50.4443 47.6002C49.7437 47.4002 49.3433 47.0002 49.3433 46.4002C49.2433 45.8002 49.6436 45.2002 50.3442 45.0002C50.9448 44.8002 51.6454 44.8002 52.2459 44.6002C52.4461 44.5002 52.7464 44.6002 52.7464 44.3002C52.7464 44.0002 52.6463 43.7002 52.4461 43.5002C51.8456 43.1002 50.8447 43.3002 50.4443 44.0002C50.2442 44.4002 49.9439 44.2002 49.7437 44.1002C49.4434 44.0002 49.6436 43.8002 49.7437 43.6002C49.8438 43.2002 50.144 43.0002 50.5444 42.8002C51.245 42.5002 52.0457 42.5002 52.7464 42.7002C53.3469 42.9002 53.6472 43.2002 53.7473 43.9002C53.7473 44.6002 53.7473 45.4002 53.7473 46.1002C53.5471 46.6002 53.6472 47.1002 53.7473 47.5002Z" fill="#ED252E"/>
<path fill-rule="evenodd" clip-rule="evenodd" d="M114.403 47C115.303 47 115.904 46.5 116.004 45.8C116.104 45.3 116.004 45.2 115.504 45.3C115.103 45.4 114.703 45.4 114.403 45.5C114.002 45.6 113.602 45.7 113.602 46.3C113.702 46.8 114.102 46.9 114.403 47ZM116.104 47C115.303 47.6 114.603 47.8 113.702 47.6C113.101 47.4 112.701 47 112.601 46.4C112.501 45.8 112.801 45.3 113.402 45C114.002 44.7 114.703 44.8 115.404 44.6C115.604 44.5 116.004 44.6 116.004 44.2C116.004 43.9 115.904 43.6 115.504 43.4C114.803 43.1 114.002 43.3 113.702 44C113.502 44.4 113.202 44.1 112.901 44.1C112.601 44 112.901 43.8 112.901 43.7C113.001 43.3 113.302 43 113.702 42.9C114.403 42.6 115.203 42.6 115.904 42.8C116.605 43 116.805 43.3 116.805 44C116.805 44.8 116.805 45.7 116.805 46.5C116.805 46.6 116.905 46.7 116.805 46.8C116.705 47 117.205 47.3 116.805 47.4C116.605 47.6 116.104 47.6 116.104 47Z" fill="#ED252E"/>
<path fill-rule="evenodd" clip-rule="evenodd" d="M70.8634 47.0001C71.8642 47.0001 72.4648 46.4001 72.4648 45.6001C72.4648 45.4001 72.4648 45.3001 72.1645 45.3001C71.7641 45.4001 71.2637 45.5001 70.8634 45.6001C70.2628 45.7001 69.9625 46.0001 70.0626 46.4001C70.1627 46.9001 70.5631 46.9001 70.8634 47.0001ZM73.5657 47.5001C73.1654 47.5001 72.5648 47.8001 72.5648 47.0001C71.8642 47.5001 71.0635 47.8001 70.1627 47.6001C69.5622 47.4001 69.1618 47.0001 69.0617 46.5001C68.9616 45.9001 69.2619 45.4001 69.9626 45.1001C70.5631 44.8001 71.2637 44.9001 71.8642 44.7001C72.0644 44.6001 72.4648 44.8001 72.4648 44.3001C72.4648 43.9001 72.2646 43.6001 71.8642 43.5001C71.1636 43.2001 70.463 43.5001 70.1627 44.1001C69.9625 44.5001 69.6623 44.2001 69.4621 44.2001C69.1618 44.1001 69.362 43.9001 69.362 43.8001C69.4621 43.4001 69.7624 43.2001 70.0626 43.0001C70.8633 42.6001 71.7641 42.6001 72.5648 42.9001C72.9652 43.1001 73.2655 43.4001 73.2655 43.9001C73.2655 44.3001 73.2655 44.7001 73.2655 45.2001C73.3656 45.9001 73.2655 46.7001 73.5657 47.5001Z" fill="#ED252E"/>
<path fill-rule="evenodd" clip-rule="evenodd" d="M87.0742 41.0002C87.975 40.9002 87.975 40.9003 88.2753 41.8003C88.8758 43.4003 89.4764 45.0003 90.0769 46.6003C90.6774 45.1003 91.1779 43.7003 91.7784 42.3003C91.8785 42.1003 91.8785 41.9003 91.9786 41.7003C92.2789 40.9003 92.2789 40.9002 93.1797 41.0002C93.0796 41.3002 92.9795 41.6003 92.7793 41.9003C92.0787 43.6003 91.3781 45.3003 90.6774 47.0002C90.5773 47.3003 90.3772 47.4003 90.0769 47.4003C89.6765 47.4003 89.5765 47.3003 89.3763 47.0002C88.6757 45.1002 87.8749 43.3003 87.1743 41.4003C87.1743 41.3003 87.0742 41.2002 87.0742 41.0002Z" fill="#ED252E"/>
<path fill-rule="evenodd" clip-rule="evenodd" d="M97.6847 44.7002C97.9849 44.7002 98.3853 44.7002 98.6855 44.7002C98.9858 44.7002 98.9858 44.6002 98.9858 44.3002C98.8857 43.8002 98.3853 43.4002 97.8848 43.3002C97.2843 43.3002 96.6838 43.6002 96.4836 44.1002C96.2834 44.5002 96.3835 44.6002 96.7839 44.6002C97.1842 44.7002 97.4845 44.7002 97.6847 44.7002ZM98.1851 45.4002C97.6847 45.4002 97.1842 45.4002 96.6838 45.4002C96.3835 45.4002 96.3835 45.5002 96.3835 45.8002C96.4836 46.4002 96.884 46.9002 97.4845 47.0002C98.085 47.1002 98.5855 47.0002 98.9858 46.4002C99.2861 46.0002 99.5864 46.2002 99.8866 46.2002C99.9867 46.2002 99.9867 46.4002 99.8866 46.5002C99.7865 46.9002 99.4863 47.2002 99.186 47.4002C97.7847 48.4002 95.8831 47.6002 95.4827 45.9002C95.0824 43.9002 96.3835 42.5002 98.2852 42.9002C99.2861 43.1002 100.187 44.3002 99.9867 45.3002C99.9867 45.5002 99.7865 45.5002 99.6864 45.5002C99.186 45.4002 98.6855 45.4002 98.1851 45.4002Z" fill="#ED252E"/>
<path fill-rule="evenodd" clip-rule="evenodd" d="M135.019 43.2002C135.62 42.7002 136.321 42.5002 137.021 42.7002C137.722 42.9002 138.022 43.3002 138.122 43.9002C138.222 45.0002 138.122 46.0002 138.222 47.1002C138.222 47.5002 138.022 47.4002 137.722 47.4002C137.422 47.4002 137.322 47.4002 137.322 47.0002C137.322 46.1002 137.322 45.3002 137.322 44.4002C137.322 43.6002 137.021 43.2002 136.421 43.2002C135.72 43.2002 135.12 43.6002 135.12 44.4002C135.12 45.2002 135.12 46.1002 135.12 46.9002C135.12 47.3002 134.919 47.3002 134.619 47.3002C134.219 47.3002 134.219 47.1002 134.219 46.8002C134.219 44.9002 134.219 43.0002 134.219 41.1002C134.219 40.8002 134.319 40.7002 134.619 40.7002C135.019 40.7002 135.12 40.8002 135.12 41.2002C135.019 42.0002 135.019 42.6002 135.019 43.2002Z" fill="#ED2D31"/>
<path fill-rule="evenodd" clip-rule="evenodd" d="M156.939 46.6003C157.539 44.9003 158.24 43.3003 158.84 41.7003C159.141 40.9003 159.141 40.9002 160.041 41.0002C159.741 41.7002 159.541 42.3002 159.241 43.0002C158.74 44.3002 158.14 45.7002 157.639 47.0002C157.539 47.3003 157.339 47.5002 156.939 47.5002C156.538 47.5002 156.438 47.3003 156.238 47.0002C155.437 45.0002 154.637 43.0003 153.836 41.1003C154.737 40.9003 154.737 40.9003 155.037 41.7003C155.738 43.3003 156.338 44.9003 156.939 46.6003Z" fill="#ED252E"/>
<path fill-rule="evenodd" clip-rule="evenodd" d="M147.432 43.2003C148.033 42.7003 148.533 42.6003 149.234 42.7003C150.034 42.8003 150.535 43.2003 150.535 44.1003C150.635 45.2003 150.535 46.2002 150.535 47.3002C150.535 47.7002 150.235 47.6003 150.134 47.6003C149.934 47.6003 149.734 47.7002 149.734 47.3002C149.734 46.4002 149.734 45.5003 149.734 44.6003C149.734 43.9003 149.434 43.5003 148.833 43.4003C148.233 43.3003 147.632 43.7003 147.532 44.4003C147.332 45.3003 147.432 46.2003 147.432 47.1003C147.432 47.4003 147.432 47.6003 146.932 47.6003C146.531 47.6003 146.531 47.4003 146.531 47.1003C146.531 45.2003 146.531 43.4002 146.531 41.5002C146.531 41.2002 146.531 41.0002 146.932 41.0002C147.332 41.0002 147.332 41.2002 147.332 41.5002C147.432 42.0002 147.432 42.6003 147.432 43.2003Z" fill="#ED2830"/>
<path fill-rule="evenodd" clip-rule="evenodd" d="M55.5501 43.4002C55.9505 42.9002 56.3508 42.8002 56.8513 42.7002C58.0523 42.6002 58.753 43.2002 58.753 44.4002C58.753 45.3002 58.753 46.3002 58.753 47.2002C58.753 47.6002 58.5528 47.6002 58.2525 47.6002C57.9523 47.6002 57.8522 47.5002 57.8522 47.2002C57.8522 46.3002 57.8522 45.5002 57.8522 44.6002C57.8522 43.9002 57.5519 43.5002 56.9514 43.5002C56.3508 43.5002 55.7503 43.8002 55.6502 44.4002C55.45 45.3002 55.6502 46.2002 55.5501 47.1002C55.5501 47.4002 55.5501 47.6002 55.1498 47.6002C54.7494 47.6002 54.7494 47.4002 54.7494 47.1002C54.7494 45.8002 54.7494 44.6002 54.7494 43.3002C54.7494 43.1002 54.6493 42.8002 55.0497 42.8002C55.45 42.8002 55.6502 42.8002 55.5501 43.4002Z" fill="#ED2D31"/>
<path fill-rule="evenodd" clip-rule="evenodd" d="M142.229 43.3001C142.929 42.7001 143.53 42.5001 144.331 42.7001C145.031 42.9001 145.432 43.3001 145.432 44.0001C145.432 45.0001 145.432 46.1001 145.432 47.1001C145.432 47.5001 145.232 47.4001 145.031 47.4001C144.731 47.4001 144.631 47.4001 144.631 47.0001C144.631 46.1001 144.631 45.3001 144.631 44.4001C144.631 43.7001 144.331 43.3001 143.73 43.3001C143.03 43.2001 142.429 43.7001 142.429 44.3001C142.329 45.2001 142.429 46.0001 142.429 46.9001C142.429 47.2001 142.429 47.4001 142.029 47.4001C141.628 47.4001 141.628 47.3001 141.628 46.9001C141.628 45.6001 141.628 44.4001 141.628 43.1001C141.628 42.9001 141.528 42.6001 141.929 42.6001C142.129 42.8001 142.229 42.9001 142.229 43.3001Z" fill="#ED2830"/>
<path fill-rule="evenodd" clip-rule="evenodd" d="M173.855 43.4002C174.556 42.7002 175.257 42.6002 175.957 42.8002C176.558 42.9002 176.958 43.4002 177.058 44.0002C177.058 45.1002 177.058 46.2002 177.058 47.3002C177.058 47.7002 176.858 47.6002 176.658 47.6002C176.458 47.6002 176.258 47.6002 176.258 47.3002C176.258 46.4002 176.258 45.5002 176.258 44.6002C176.258 44.2002 176.157 43.8002 175.657 43.6002C175.157 43.4002 174.756 43.6002 174.356 43.9002C174.056 44.2002 173.955 44.5002 173.955 44.9002C173.955 45.7002 173.955 46.5002 173.955 47.3002C173.955 47.7002 173.855 47.7002 173.455 47.7002C173.155 47.7002 173.055 47.6002 173.055 47.3002C173.055 46.0002 173.055 44.7002 173.055 43.4002C173.055 43.2002 173.055 42.9002 173.355 42.9002C173.855 42.8002 173.955 42.9002 173.855 43.4002Z" fill="#ED2830"/>
<path fill-rule="evenodd" clip-rule="evenodd" d="M75.3641 43.4002C76.0647 42.7002 76.6653 42.6002 77.466 42.8002C78.1666 42.9002 78.5669 43.4002 78.5669 44.1002C78.5669 45.2002 78.5669 46.2002 78.5669 47.3002C78.5669 47.7002 78.3668 47.6002 78.1666 47.6002C77.9664 47.6002 77.7662 47.6002 77.7662 47.3002C77.7662 46.4002 77.7662 45.5002 77.7662 44.6002C77.7662 43.8002 77.466 43.5002 76.8654 43.5002C76.1648 43.5002 75.6643 43.9002 75.5643 44.6002C75.4642 45.5002 75.5643 46.3002 75.5643 47.2002C75.5643 47.6002 75.4642 47.6002 75.0638 47.7002C74.6635 47.7002 74.6635 47.5002 74.6635 47.2002C74.6635 45.9002 74.6635 44.7002 74.6635 43.4002C74.6635 43.2002 74.5634 42.9002 74.9637 42.9002C75.264 42.8002 75.4642 42.8002 75.3641 43.4002Z" fill="#ED2830"/>
<path fill-rule="evenodd" clip-rule="evenodd" d="M130.217 44.6001C130.217 43.8001 130.217 42.9001 130.217 42.1001C130.217 41.8001 130.117 41.7001 129.817 41.7001C129.316 41.7001 128.816 41.7001 128.315 41.7001C127.915 41.7001 128.015 41.5001 128.015 41.3001C128.015 41.1001 128.015 40.9001 128.315 40.9001C129.917 40.9001 131.518 40.9001 133.019 40.9001C133.32 40.9001 133.32 41.0001 133.32 41.3001C133.32 41.5001 133.42 41.7001 133.019 41.7001C132.619 41.7001 132.219 41.7001 131.818 41.7001C131.118 41.7001 131.118 41.7001 131.118 42.4001C131.118 43.9001 131.118 45.5001 131.118 47.0001C131.118 47.4001 131.018 47.5001 130.617 47.5001C130.217 47.5001 130.117 47.4001 130.117 47.0001C130.217 46.2001 130.217 45.4001 130.217 44.6001Z" fill="#ED252E"/>
<path fill-rule="evenodd" clip-rule="evenodd" d="M101.087 45.2002C101.087 44.8002 101.087 44.5002 101.087 44.1002C101.087 43.8002 101.187 43.4002 100.587 43.4002C100.387 43.4002 100.487 43.2002 100.387 43.1002C100.387 42.9002 100.387 42.8002 100.587 42.8002C101.087 42.8002 100.987 42.5002 100.987 42.2002C100.887 41.7002 101.087 41.5002 101.488 41.3002C101.788 41.2002 101.788 41.3002 101.788 41.5002C101.788 41.7002 101.788 41.9002 101.788 42.1002C101.788 42.5002 101.788 42.9002 102.388 42.8002C102.589 42.8002 102.589 43.0002 102.589 43.1002C102.589 43.3002 102.589 43.5002 102.288 43.4002C101.788 43.3002 101.688 43.6002 101.788 44.0002C101.788 44.7002 101.788 45.5002 101.788 46.2002C101.788 46.6002 101.888 46.8002 102.288 46.8002C102.689 46.8002 102.589 47.1002 102.689 47.3002C102.789 47.7002 102.489 47.6002 102.288 47.6002C101.288 47.7002 100.987 47.4002 100.887 46.3002C101.087 45.9002 101.087 45.6002 101.087 45.2002Z" fill="#ED2D31"/>
<path fill-rule="evenodd" clip-rule="evenodd" d="M93.6836 45.1002C93.6836 44.5002 93.6836 43.8002 93.6836 43.2002C93.6836 42.9002 93.7836 42.7002 94.0836 42.8002C94.3836 42.8002 94.5836 42.8002 94.5836 43.2002C94.5836 44.5002 94.5836 45.8002 94.5836 47.2002C94.5836 47.6002 94.3836 47.6002 94.0836 47.6002C93.7836 47.6002 93.6836 47.5002 93.6836 47.2002C93.6836 46.5002 93.6836 45.8002 93.6836 45.1002Z" fill="#ED3036"/>
<path fill-rule="evenodd" clip-rule="evenodd" d="M139.324 45.1002C139.324 44.4002 139.324 43.8002 139.324 43.1002C139.324 42.8002 139.424 42.7002 139.724 42.7002C140.024 42.7002 140.224 42.7002 140.224 43.1002C140.224 44.4002 140.224 45.8002 140.224 47.1002C140.224 47.5002 140.024 47.4002 139.724 47.5002C139.424 47.5002 139.324 47.5002 139.324 47.1002C139.324 46.5002 139.324 45.8002 139.324 45.1002Z" fill="#ED3036"/>
<path fill-rule="evenodd" clip-rule="evenodd" d="M52.947 42.2002C52.4466 42.3002 52.0462 42.4002 51.746 41.8002C51.6459 41.6002 51.4457 41.5002 51.3456 41.8002C51.0453 42.4002 50.645 42.2002 50.1445 42.2002C51.0453 40.6002 51.8461 40.4002 52.947 42.2002Z" fill="#ED252E"/>
<path fill-rule="evenodd" clip-rule="evenodd" d="M96.3828 42.2C97.2836 40.5 98.1844 40.5 99.0852 42.2C98.4847 42.4 98.4847 42.4 97.684 41.6C97.4838 42.2 96.9833 42.3 96.3828 42.2Z" fill="#ED252E"/>
<path fill-rule="evenodd" clip-rule="evenodd" d="M71.9608 42.2001C70.9599 42.4001 70.8598 41.5001 70.3594 41.1001C71.5604 40.9001 71.4604 40.8001 71.9608 42.2001Z" fill="#ED252E"/>
<path fill-rule="evenodd" clip-rule="evenodd" d="M97.7891 48.9001C97.3891 49.0001 97.2891 48.8001 97.2891 48.4001C97.2891 48.0001 97.3891 47.9001 97.7891 47.9001C98.1891 47.9001 98.2891 48.0001 98.2891 48.4001C98.2891 48.9001 98.1891 49.0001 97.7891 48.9001Z" fill="#ED3036"/>
<path fill-rule="evenodd" clip-rule="evenodd" d="M139.723 48.9001C139.323 49.0001 139.223 48.8001 139.223 48.4001C139.223 48.0001 139.423 47.9001 139.723 47.9001C140.123 47.9001 140.123 48.1001 140.223 48.4001C140.323 48.9001 140.123 49.0001 139.723 48.9001Z" fill="#ED3036"/>
<path fill-rule="evenodd" clip-rule="evenodd" d="M168.949 48.9003C168.549 49.0003 168.449 48.9002 168.449 48.5002C168.449 48.1002 168.549 48.0002 168.949 48.0002C169.349 48.0002 169.449 48.1002 169.449 48.5002C169.449 48.9002 169.249 49.0003 168.949 48.9003Z" fill="#ED2D31"/>
<path fill-rule="evenodd" clip-rule="evenodd" d="M140.225 41.5002C140.325 41.9002 140.125 42.0002 139.725 42.0002C139.225 42.0002 139.325 41.8002 139.325 41.5002C139.325 41.2002 139.325 41.0002 139.725 41.0002C140.125 41.0002 140.325 41.1002 140.225 41.5002Z" fill="#ED3036"/>
<path fill-rule="evenodd" clip-rule="evenodd" d="M94.5839 41.5002C94.6839 41.9002 94.4839 42.0002 94.0839 42.0002C93.5839 42.0002 93.6839 41.7002 93.6839 41.5002C93.6839 41.2002 93.6839 41.0002 94.0839 41.0002C94.4839 41.0002 94.5839 41.1002 94.5839 41.5002Z" fill="#ED3036"/>
</svg>
