<svg width="127" height="30" viewBox="0 0 127 30" fill="none" xmlns="http://www.w3.org/2000/svg">
<rect width="126.207" height="30" rx="15" fill="url(#paint0_linear_210_1454)"/>
<path d="M15.7422 21H13.2656L13.2812 19.1719H15.7422C16.3568 19.1719 16.875 19.0339 17.2969 18.7578C17.7188 18.4766 18.0365 18.0677 18.25 17.5312C18.4688 16.9948 18.5781 16.3464 18.5781 15.5859V15.0312C18.5781 14.4479 18.5156 13.9349 18.3906 13.4922C18.2708 13.0495 18.0911 12.6771 17.8516 12.375C17.612 12.0729 17.3177 11.8464 16.9688 11.6953C16.6198 11.5391 16.2188 11.4609 15.7656 11.4609H13.2188V9.625H15.7656C16.526 9.625 17.2214 9.75521 17.8516 10.0156C18.487 10.2708 19.0365 10.638 19.5 11.1172C19.9635 11.5964 20.3203 12.1693 20.5703 12.8359C20.8255 13.4974 20.9531 14.2344 20.9531 15.0469V15.5859C20.9531 16.3932 20.8255 17.1302 20.5703 17.7969C20.3203 18.4635 19.9635 19.0365 19.5 19.5156C19.0417 19.9896 18.4922 20.3568 17.8516 20.6172C17.2161 20.8724 16.513 21 15.7422 21ZM14.5938 9.625V21H12.25V9.625H14.5938ZM16.5625 14.5703V15.9609H11.0859V14.5703H16.5625ZM27.1094 11.5703L24.0156 21H21.5234L25.75 9.625H27.3359L27.1094 11.5703ZM29.6797 21L26.5781 11.5703L26.3281 9.625H27.9297L32.1797 21H29.6797ZM29.5391 16.7656V18.6016H23.5312V16.7656H29.5391ZM27.9844 6.67188H29.5859C29.5859 7.11979 29.474 7.51823 29.25 7.86719C29.0312 8.21094 28.7188 8.48177 28.3125 8.67969C27.9062 8.8724 27.4271 8.96875 26.875 8.96875C26.0365 8.96875 25.3724 8.75521 24.8828 8.32812C24.3984 7.90104 24.1562 7.34896 24.1562 6.67188H25.75C25.75 6.94271 25.8333 7.1849 26 7.39844C26.1719 7.61198 26.4635 7.71875 26.875 7.71875C27.2812 7.71875 27.5677 7.61198 27.7344 7.39844C27.901 7.1849 27.9844 6.94271 27.9844 6.67188ZM25.6406 22.7891C25.6406 22.487 25.7552 22.2344 25.9844 22.0312C26.2135 21.8333 26.5208 21.7344 26.9062 21.7344C27.2865 21.7344 27.5911 21.8333 27.8203 22.0312C28.0547 22.2344 28.1719 22.487 28.1719 22.7891C28.1719 23.0859 28.0547 23.3359 27.8203 23.5391C27.5911 23.7422 27.2865 23.8438 26.9062 23.8438C26.5208 23.8438 26.2135 23.7422 25.9844 23.5391C25.7552 23.3359 25.6406 23.0859 25.6406 22.7891ZM37.3516 9.625V21H35.0156V9.625H37.3516ZM40.8516 9.625V11.4609H31.5703V9.625H40.8516ZM53.0625 19.1719V21H47.3359V19.1719H53.0625ZM48.0938 9.625V21H45.75V9.625H48.0938ZM56.8984 9.625V21H54.5625V9.625H56.8984ZM54.4609 22.8125C54.4609 22.5104 54.5755 22.2578 54.8047 22.0547C55.0339 21.8568 55.3411 21.7578 55.7266 21.7578C56.1068 21.7578 56.4115 21.8568 56.6406 22.0547C56.875 22.2578 56.9922 22.5104 56.9922 22.8125C56.9922 23.1094 56.875 23.3594 56.6406 23.5625C56.4115 23.7656 56.1068 23.8672 55.7266 23.8672C55.3411 23.8672 55.0339 23.7656 54.8047 23.5625C54.5755 23.3594 54.4609 23.1094 54.4609 22.8125ZM65.6875 17.2266H68.0234C67.9766 17.9922 67.7656 18.6719 67.3906 19.2656C67.0208 19.8594 66.5026 20.3229 65.8359 20.6562C65.1745 20.9896 64.3776 21.1562 63.4453 21.1562C62.7161 21.1562 62.0625 21.0312 61.4844 20.7812C60.9062 20.526 60.4115 20.1615 60 19.6875C59.5938 19.2135 59.2839 18.6406 59.0703 17.9688C58.8568 17.2969 58.75 16.5443 58.75 15.7109V14.9219C58.75 14.0885 58.8594 13.3359 59.0781 12.6641C59.3021 11.987 59.6198 11.4115 60.0312 10.9375C60.4479 10.4635 60.9453 10.099 61.5234 9.84375C62.1016 9.58854 62.7474 9.46094 63.4609 9.46094C64.4089 9.46094 65.2083 9.63281 65.8594 9.97656C66.5156 10.3203 67.0234 10.7943 67.3828 11.3984C67.7474 12.0026 67.9661 12.6901 68.0391 13.4609H65.6953C65.6693 13.0026 65.5781 12.6146 65.4219 12.2969C65.2656 11.974 65.0286 11.7318 64.7109 11.5703C64.3984 11.4036 63.9818 11.3203 63.4609 11.3203C63.0703 11.3203 62.7292 11.3932 62.4375 11.5391C62.1458 11.6849 61.901 11.9062 61.7031 12.2031C61.5052 12.5 61.3568 12.875 61.2578 13.3281C61.1641 13.776 61.1172 14.3021 61.1172 14.9062V15.7109C61.1172 16.2995 61.1615 16.8177 61.25 17.2656C61.3385 17.7083 61.474 18.0833 61.6562 18.3906C61.8438 18.6927 62.0833 18.9219 62.375 19.0781C62.6719 19.2292 63.0286 19.3047 63.4453 19.3047C63.9349 19.3047 64.3385 19.2266 64.6562 19.0703C64.974 18.9141 65.2161 18.6823 65.3828 18.375C65.5547 18.0677 65.6562 17.6849 65.6875 17.2266ZM77.1484 14.2578V16.0859H71.2109V14.2578H77.1484ZM71.9062 9.625V21H69.5625V9.625H71.9062ZM78.8203 9.625V21H76.4844V9.625H78.8203ZM92.4297 14.2578V16.0859H86.4922V14.2578H92.4297ZM87.1875 9.625V21H84.8438V9.625H87.1875ZM94.1016 9.625V21H91.7656V9.625H94.1016ZM103.773 19.1719V21H97.7188V19.1719H103.773ZM98.4844 9.625V21H96.1406V9.625H98.4844ZM102.984 14.2578V16.0391H97.7188V14.2578H102.984ZM103.766 9.625V11.4609H97.7188V9.625H103.766ZM98.8438 22.7578C98.8438 22.4557 98.9583 22.2031 99.1875 22C99.4167 21.8021 99.724 21.7031 100.109 21.7031C100.49 21.7031 100.794 21.8021 101.023 22C101.258 22.2031 101.375 22.4557 101.375 22.7578C101.375 23.0547 101.258 23.3047 101.023 23.5078C100.794 23.7109 100.49 23.8125 100.109 23.8125C99.724 23.8125 99.4167 23.7109 99.1875 23.5078C98.9583 23.3047 98.8438 23.0547 98.8438 22.7578ZM114.398 9.625V21H112.055L107.484 13.375V21H105.141V9.625H107.484L112.062 17.2578V9.625H114.398Z" fill="#025899"/>
<defs>
<linearGradient id="paint0_linear_210_1454" x1="0" y1="30" x2="126.207" y2="30" gradientUnits="userSpaceOnUse">
<stop stop-color="#DFAA23"/>
<stop offset="0.479167" stop-color="#FBF08D"/>
<stop offset="1" stop-color="#DFAA23"/>
</linearGradient>
</defs>
</svg>
