<svg width="297" height="132" viewBox="0 0 297 132" fill="none" xmlns="http://www.w3.org/2000/svg">
<path d="M241 29.1653H149V60.1653H241V29.1653Z" fill="#025899"/>
<path d="M65.7763 58.1223C65.0952 58.1223 64.5743 57.5641 64.5743 56.8341V19.5195H57.202C56.5209 19.5195 56 18.9613 56 18.2313V7.45347C56 6.7235 56.5209 6.16528 57.202 6.16528H78.798C79.4791 6.16528 80 6.7235 80 7.45347V56.8771C80 57.6071 79.4791 58.1653 78.798 58.1653H65.7763V58.1223Z" fill="#025899"/>
<path d="M108.043 60.1653C103.588 60.1653 99.5624 59.0705 96.0931 56.881C92.6238 54.6916 89.8399 51.4511 87.9125 47.2911C85.9851 43.1748 85 38.2266 85 32.6653C85 27.104 85.9851 22.1557 87.9125 18.0395C89.8827 13.8795 92.6238 10.639 96.0931 8.44952C99.5624 6.26003 103.588 5.16528 108.043 5.16528C112.454 5.16528 116.438 6.26003 119.907 8.44952C123.376 10.639 126.16 13.8795 128.088 18.0395C130.015 22.1557 131 27.104 131 32.6653C131 38.2266 130.015 43.1748 128.088 47.2911C126.117 51.4511 123.376 54.6916 119.907 56.881C116.438 59.0705 112.454 60.1653 108.043 60.1653ZM108.043 19.4408C106.115 19.4408 104.616 20.3603 103.46 22.2871C102.218 24.389 101.575 27.8922 101.575 32.6653C101.575 37.4384 102.218 40.9416 103.46 43.0435C104.616 44.9702 106.115 45.8898 108.043 45.8898C109.927 45.8898 111.384 44.9702 112.54 43.0435C113.782 40.9416 114.425 37.4384 114.425 32.6653C114.425 27.8922 113.782 24.389 112.54 22.2871C111.426 20.3603 109.927 19.4408 108.043 19.4408Z" fill="#025899"/>
<path d="M79.8402 7.59338V58.2873H66.2473V18.6483H57.2969V7.59338H79.8402Z" fill="url(#paint0_linear_429_2875)"/>
<path d="M97.2811 56.1731C94.0607 54.103 91.5512 51.064 89.7528 47.1001C87.9543 43.1362 87.0342 38.3795 87.0342 32.9622C87.0342 27.5008 87.9543 22.7882 89.7528 18.8243C91.5512 14.8604 94.0607 11.8214 97.2811 9.75135C100.502 7.68131 104.14 6.62427 108.281 6.62427C112.38 6.62427 116.018 7.68131 119.197 9.75135C122.418 11.8214 124.927 14.8604 126.726 18.8243C128.524 22.7882 129.444 27.5449 129.444 32.9622C129.444 38.4236 128.524 43.1362 126.726 47.1001C124.927 51.064 122.418 54.103 119.197 56.1731C115.977 58.2431 112.338 59.3001 108.281 59.3001C104.182 59.2561 100.502 58.2431 97.2811 56.1731ZM113.76 44.0171C115.098 41.6828 115.768 37.9831 115.768 32.9182C115.768 27.8532 115.098 24.1535 113.76 21.8192C112.422 19.4849 110.581 18.2958 108.281 18.2958C105.939 18.2958 104.099 19.4849 102.76 21.8192C101.422 24.1535 100.753 27.8532 100.753 32.9182C100.753 37.9831 101.422 41.6828 102.76 44.0171C104.099 46.3514 105.939 47.5406 108.281 47.5406C110.581 47.5406 112.422 46.3514 113.76 44.0171Z" fill="url(#paint1_linear_429_2875)"/>
<path d="M164.43 12.1987H162.673C162.104 11.2488 161.297 10.4989 160.299 9.9489C159.302 9.39895 158.258 9.14897 157.166 9.14897C155.409 9.14897 153.843 9.84891 152.561 11.2988C151.231 12.7487 150.614 14.3985 150.614 16.2984C150.614 18.2982 151.279 19.9981 152.608 21.4479C153.938 22.8978 155.504 23.5978 157.308 23.5978C158.4 23.5978 159.397 23.2978 160.347 22.7478C161.297 22.1979 162.104 21.3979 162.768 20.448H164.525C163.86 21.8979 162.816 23.0478 161.534 23.8977C160.205 24.7977 158.828 25.1976 157.308 25.1976C154.982 25.1976 153.036 24.3477 151.421 22.5978C149.807 20.898 149 18.7482 149 16.1984C149 13.7486 149.807 11.6988 151.374 9.9489C152.988 8.24905 154.887 7.34912 157.119 7.34912C157.973 7.34912 158.78 7.44911 159.54 7.69909C160.3 7.94907 161.012 8.29904 161.676 8.799C162.246 9.19897 162.768 9.64893 163.243 10.1989C163.86 10.9488 164.24 11.5988 164.43 12.1987Z" fill="#025899"/>
<path d="M165.664 24.9476L172.5 7.74902H174.257L181.046 24.9476H179.337L177.058 19.1981H169.652L167.373 24.9476H165.664ZM170.269 17.6482H176.393L173.355 9.74886L170.269 17.6482Z" fill="#025899"/>
<path d="M182.85 24.9476V7.74902H185.271L191.016 22.3978L196.76 7.74902H199.182V24.9476H197.662V9.64887L191.728 24.9476H190.398L184.464 9.64887V24.9476H182.85Z" fill="#025899"/>
<path d="M208.393 24.9476V7.74902H209.96V17.6482L217.271 7.74902H219.265L213.046 16.1483L219.265 24.9476H217.319L212.049 17.4982L210.007 20.248V24.9476H208.393Z" fill="#025899"/>
<path d="M221.022 24.9479V7.74935H229.663V9.29922H222.589V15.4987H229.426V17.0486H222.589V23.3981H229.663V24.9479H221.022ZM221.355 6.19948L224.441 3.24973H225.818L228.904 6.19948H227.005L225.153 4.49963L223.301 6.19948H221.355ZM227.622 2.69978L231.752 0L232.512 1.34989L228.381 3.99967L227.622 2.69978Z" fill="#025899"/>
<path d="M234.648 24.9476V9.29889H231.04V7.74902H239.823V9.29889H236.215V24.9476H234.648Z" fill="#025899"/>
<path d="M176.34 37.1028L168.603 56.0855H163.584L155.888 37.1028H161.409L166.302 49.479L171.28 37.1028H176.34Z" fill="black"/>
<path d="M188.888 52.3856H181.276L179.854 56.0852H174.667L182.614 37.1025H187.633L195.621 56.0852H190.268L188.888 52.3856ZM179.31 31.465H184.203L187.633 35.605H184.12L179.31 31.465ZM187.382 48.4657L185.082 42.3877L182.781 48.4657H187.382Z" fill="black"/>
<path d="M214.15 37.1028V56.0855H209.967L202.021 45.9555V56.0855H197.043V37.1028H201.226L209.173 47.2328V37.1028H214.15Z" fill="black"/>
<path d="M229.834 46.2196H234.351V54.0594C233.305 54.8521 232.134 55.4247 230.796 55.8651C229.458 56.3056 228.119 56.4818 226.781 56.4818C224.899 56.4818 223.184 56.0413 221.678 55.2045C220.173 54.3677 219.002 53.1785 218.123 51.681C217.245 50.1836 216.827 48.4659 216.827 46.572C216.827 44.6781 217.245 42.9604 218.123 41.463C219.002 39.9655 220.173 38.7763 221.72 37.9395C223.268 37.1027 224.982 36.6622 226.906 36.6622C228.579 36.6622 230.085 36.9705 231.423 37.5431C232.762 38.1597 233.891 38.9965 234.769 40.0976L231.507 43.1807C230.294 41.7713 228.83 41.0666 227.115 41.0666C225.568 41.0666 224.313 41.5511 223.393 42.564C222.431 43.533 221.971 44.8543 221.971 46.528C221.971 47.585 222.18 48.5099 222.598 49.3467C223.017 50.1836 223.644 50.8002 224.397 51.2846C225.15 51.7251 226.07 51.9893 227.032 51.9893C227.994 51.9893 228.914 51.7691 229.792 51.3727V46.2196H229.834Z" fill="black"/>
<path d="M176.34 37.1028L168.603 56.0855H163.584L155.888 37.1028H161.409L166.302 49.479L171.28 37.1028H176.34Z" fill="url(#paint2_linear_429_2875)"/>
<path d="M188.888 52.3856H181.276L179.854 56.0852H174.667L182.614 37.1025H187.633L195.621 56.0852H190.268L188.888 52.3856ZM179.31 31.465H184.203L187.633 35.605H184.12L179.31 31.465ZM187.382 48.4657L185.082 42.3877L182.781 48.4657H187.382Z" fill="url(#paint3_linear_429_2875)"/>
<path d="M214.15 37.1028V56.0855H209.967L202.021 45.9555V56.0855H197.043V37.1028H201.226L209.173 47.2328V37.1028H214.15Z" fill="url(#paint4_linear_429_2875)"/>
<path d="M229.834 46.2196H234.351V54.0594C233.305 54.8521 232.134 55.4247 230.796 55.8651C229.458 56.3056 228.119 56.4818 226.781 56.4818C224.899 56.4818 223.184 56.0413 221.678 55.2045C220.173 54.3677 219.002 53.1785 218.123 51.681C217.245 50.1836 216.827 48.4659 216.827 46.572C216.827 44.6781 217.245 42.9604 218.123 41.463C219.002 39.9655 220.173 38.7763 221.72 37.9395C223.268 37.1027 224.982 36.6622 226.906 36.6622C228.579 36.6622 230.085 36.9705 231.423 37.5431C232.762 38.1597 233.891 38.9965 234.769 40.0976L231.507 43.1807C230.294 41.7713 228.83 41.0666 227.115 41.0666C225.568 41.0666 224.313 41.5511 223.393 42.564C222.431 43.533 221.971 44.8543 221.971 46.528C221.971 47.585 222.18 48.5099 222.598 49.3467C223.017 50.1836 223.644 50.8002 224.397 51.2846C225.15 51.7251 226.07 51.9893 227.032 51.9893C227.994 51.9893 228.914 51.7691 229.792 51.3727V46.2196H229.834Z" fill="url(#paint5_linear_429_2875)"/>
<path d="M4.48638 94.4835C3.06963 93.6878 1.98345 92.5938 1.18063 91.2013C0.377801 89.8089 0 88.2175 0 86.4769C0 84.7363 0.377801 83.1449 1.18063 81.7525C1.98345 80.36 3.06963 79.266 4.48638 78.4703C5.90313 77.6746 7.46156 77.2767 9.20889 77.2767C10.7201 77.2767 12.1368 77.5751 13.3647 78.1222C14.5925 78.6692 15.6315 79.5146 16.4343 80.6087L13.4119 83.4931C12.3257 82.1006 11.0034 81.4044 9.44501 81.4044C8.54774 81.4044 7.74491 81.6033 7.03653 82.0509C6.32816 82.4487 5.76146 83.0455 5.38366 83.8412C5.00585 84.5871 4.81695 85.4823 4.81695 86.4769C4.81695 87.4715 5.00585 88.3667 5.38366 89.1126C5.76146 89.8586 6.32816 90.4553 7.03653 90.9029C7.74491 91.3008 8.54774 91.5494 9.44501 91.5494C11.0034 91.5494 12.3257 90.8532 13.4119 89.4607L16.4343 92.3451C15.6315 93.4392 14.5925 94.2349 13.3647 94.8316C12.1368 95.3787 10.7673 95.6771 9.20889 95.6771C7.46156 95.6273 5.90313 95.2295 4.48638 94.4835Z" fill="black"/>
<path d="M20.26 93.4889C18.8905 92.0468 18.1821 90.0575 18.1821 87.4218V77.6249H22.9046V87.2726C22.9046 90.1073 23.9436 91.4997 26.0687 91.4997C28.1938 91.4997 29.2328 90.1073 29.2328 87.2726V77.6249H33.9081V87.4218C33.9081 90.0575 33.1997 92.0468 31.8302 93.4889C30.4606 94.9311 28.5244 95.6274 26.0215 95.6274C23.5658 95.6274 21.6296 94.9311 20.26 93.4889ZM25.5965 74.9892C26.0215 74.7902 26.3521 74.5416 26.4937 74.2929C26.6826 74.0443 26.7771 73.7956 26.7771 73.4972C26.7771 73.1988 26.6826 72.9502 26.4937 72.7513C26.3048 72.5524 26.0215 72.5026 25.7381 72.5026C25.2659 72.5026 24.7936 72.6518 24.3686 72.9999L23.4241 71.1102C23.8019 70.8118 24.2269 70.5631 24.6992 70.4139C25.1714 70.2647 25.6909 70.1653 26.2104 70.1653C27.1549 70.1653 27.9105 70.4139 28.4772 70.961C29.0439 71.508 29.3745 72.2042 29.3745 73.0497C29.3745 74.5416 28.5716 75.6357 27.0132 76.3816L25.5965 74.9892Z" fill="black"/>
<path d="M48.0282 91.8476H40.9444L39.6221 95.279H34.8052L42.2195 77.6246H46.8948L54.3091 95.279H49.3977L48.0282 91.8476ZM46.6587 88.1675L44.4863 82.4982L42.314 88.1675H46.6587Z" fill="black"/>
<path d="M78.5343 77.6246V95.279H74.6147L67.2003 85.8799V95.279H62.5723V77.6246H66.4919L73.9063 87.0237V77.6246H78.5343Z" fill="black"/>
<path d="M97.803 77.6246V95.279H93.0805V88.4162H86.6107V95.279H81.8882V77.6246H86.6107V84.2388H93.0805V77.6246H97.803Z" fill="black"/>
<path d="M112.396 91.8476H105.313L103.99 95.279H99.1733L106.588 77.6246H111.263L118.677 95.279H113.766L112.396 91.8476ZM111.027 88.1675L108.854 82.4982L106.682 88.1675H111.027Z" fill="black"/>
<path d="M133.411 88.8638L131.616 90.853V95.279H126.941V77.6246H131.616V84.9848L138.086 77.6246H143.328L136.48 85.4323L143.706 95.279H138.18L133.411 88.8638Z" fill="black"/>
<path d="M160.896 77.6246V95.279H156.174V88.4162H149.704V95.279H144.981V77.6246H149.704V84.2388H156.174V77.6246H160.896Z" fill="black"/>
<path d="M167.933 94.4337C166.516 93.638 165.43 92.544 164.627 91.1515C163.824 89.759 163.399 88.1677 163.399 86.4271C163.399 84.6865 163.824 83.0951 164.627 81.7027C165.43 80.3102 166.563 79.2162 167.933 78.4205C169.349 77.6248 170.955 77.2269 172.702 77.2269C174.497 77.2269 176.055 77.6248 177.472 78.4205C178.889 79.2162 179.975 80.3102 180.778 81.7027C181.581 83.0951 182.006 84.6865 182.006 86.4271C182.006 88.1677 181.581 89.759 180.778 91.1515C179.975 92.544 178.842 93.638 177.472 94.4337C176.055 95.2294 174.45 95.6273 172.702 95.6273C170.955 95.6273 169.349 95.2294 167.933 94.4337ZM175.016 90.8531C175.725 90.4553 176.244 89.8585 176.622 89.0628C177 88.3169 177.236 87.4217 177.236 86.4271C177.236 85.4325 177.047 84.5373 176.622 83.7914C176.244 83.0454 175.677 82.4486 175.016 82.0011C174.308 81.6032 173.552 81.3546 172.702 81.3546C171.852 81.3546 171.097 81.5535 170.388 82.0011C169.68 82.3989 169.16 82.9957 168.783 83.7914C168.405 84.5373 168.169 85.4325 168.169 86.4271C168.169 87.4217 168.358 88.3169 168.783 89.0628C169.16 89.8088 169.727 90.4055 170.388 90.8531C171.097 91.251 171.852 91.4996 172.702 91.4996C173.552 91.4996 174.308 91.3007 175.016 90.8531Z" fill="black"/>
<path d="M195.512 91.8476H188.428L187.106 95.279H182.289L189.703 77.6246H194.378L201.793 95.279H196.881L195.512 91.8476ZM194.095 88.1675L191.922 82.4982L189.75 88.1675H194.095Z" fill="black"/>
<path d="M210.057 77.6246H214.779V95.279H210.057V77.6246Z" fill="black"/>
<path d="M217.659 86.278H224.649V89.958H217.659V86.278Z" fill="black"/>
<path d="M227.435 77.6246H235.369C237.211 77.6246 238.816 77.9727 240.233 78.7187C241.65 79.4647 242.736 80.4593 243.539 81.802C244.342 83.1447 244.719 84.6864 244.719 86.4767C244.719 88.267 244.342 89.8086 243.539 91.1514C242.736 92.4941 241.65 93.4887 240.233 94.2347C238.816 94.9806 237.163 95.3287 235.369 95.3287H227.435V77.6246ZM235.18 91.3006C236.597 91.3006 237.777 90.853 238.627 90.0076C239.477 89.1621 239.95 87.9686 239.95 86.4767C239.95 84.9848 239.525 83.7912 238.627 82.9458C237.777 82.1004 236.597 81.6528 235.18 81.6528H232.205V91.3503H235.18V91.3006Z" fill="black"/>
<path d="M260.681 91.4497V95.3287H247.222V77.6743H260.351V81.5533H251.897V84.5371H259.359V88.2669H251.897V91.4994H260.681V91.4497Z" fill="black"/>
<path d="M279.241 77.6246V95.279H275.322L267.907 85.8799V95.279H263.279V77.6246H267.199L274.613 87.0237V77.6246H279.241Z" fill="black"/>
<path d="M286.184 81.6031H281.037V77.6246H296.054V81.6031H290.954V95.279H286.231V81.6031H286.184Z" fill="black"/>
<path d="M4.48638 94.4835C3.06963 93.6878 1.98345 92.5938 1.18063 91.2013C0.377801 89.8089 0 88.2175 0 86.4769C0 84.7363 0.377801 83.1449 1.18063 81.7525C1.98345 80.36 3.06963 79.266 4.48638 78.4703C5.90313 77.6746 7.46156 77.2767 9.20889 77.2767C10.7201 77.2767 12.1368 77.5751 13.3647 78.1222C14.5925 78.6692 15.6315 79.5146 16.4343 80.6087L13.4119 83.4931C12.3257 82.1006 11.0034 81.4044 9.44501 81.4044C8.54774 81.4044 7.74491 81.6033 7.03653 82.0509C6.32816 82.4487 5.76146 83.0455 5.38366 83.8412C5.00585 84.5871 4.81695 85.4823 4.81695 86.4769C4.81695 87.4715 5.00585 88.3667 5.38366 89.1126C5.76146 89.8586 6.32816 90.4553 7.03653 90.9029C7.74491 91.3008 8.54774 91.5494 9.44501 91.5494C11.0034 91.5494 12.3257 90.8532 13.4119 89.4607L16.4343 92.3451C15.6315 93.4392 14.5925 94.2349 13.3647 94.8316C12.1368 95.3787 10.7673 95.6771 9.20889 95.6771C7.46156 95.6273 5.90313 95.2295 4.48638 94.4835Z" fill="#025899"/>
<path d="M20.26 93.4889C18.8905 92.0468 18.1821 90.0575 18.1821 87.4218V77.6249H22.9046V87.2726C22.9046 90.1073 23.9436 91.4997 26.0687 91.4997C28.1938 91.4997 29.2328 90.1073 29.2328 87.2726V77.6249H33.9081V87.4218C33.9081 90.0575 33.1997 92.0468 31.8302 93.4889C30.4606 94.9311 28.5244 95.6274 26.0215 95.6274C23.5658 95.6274 21.6296 94.9311 20.26 93.4889ZM25.5965 74.9892C26.0215 74.7902 26.3521 74.5416 26.4937 74.2929C26.6826 74.0443 26.7771 73.7956 26.7771 73.4972C26.7771 73.1988 26.6826 72.9502 26.4937 72.7513C26.3048 72.5524 26.0215 72.5026 25.7381 72.5026C25.2659 72.5026 24.7936 72.6518 24.3686 72.9999L23.4241 71.1102C23.8019 70.8118 24.2269 70.5631 24.6992 70.4139C25.1714 70.2647 25.6909 70.1653 26.2104 70.1653C27.1549 70.1653 27.9105 70.4139 28.4772 70.961C29.0439 71.508 29.3745 72.2042 29.3745 73.0497C29.3745 74.5416 28.5716 75.6357 27.0132 76.3816L25.5965 74.9892Z" fill="#025899"/>
<path d="M48.0282 91.8476H40.9444L39.6221 95.279H34.8052L42.2195 77.6246H46.8948L54.3091 95.279H49.3977L48.0282 91.8476ZM46.6587 88.1675L44.4863 82.4982L42.314 88.1675H46.6587Z" fill="#025899"/>
<path d="M78.5343 77.6246V95.279H74.6147L67.2003 85.8799V95.279H62.5723V77.6246H66.4919L73.9063 87.0237V77.6246H78.5343Z" fill="#025899"/>
<path d="M97.803 77.6246V95.279H93.0805V88.4162H86.6107V95.279H81.8882V77.6246H86.6107V84.2388H93.0805V77.6246H97.803Z" fill="#025899"/>
<path d="M112.396 91.8476H105.313L103.99 95.279H99.1733L106.588 77.6246H111.263L118.677 95.279H113.766L112.396 91.8476ZM111.027 88.1675L108.854 82.4982L106.682 88.1675H111.027Z" fill="#025899"/>
<path d="M133.411 88.8638L131.616 90.853V95.279H126.941V77.6246H131.616V84.9848L138.086 77.6246H143.328L136.48 85.4323L143.706 95.279H138.18L133.411 88.8638Z" fill="#025899"/>
<path d="M160.896 77.6246V95.279H156.174V88.4162H149.704V95.279H144.981V77.6246H149.704V84.2388H156.174V77.6246H160.896Z" fill="#025899"/>
<path d="M167.933 94.4337C166.516 93.638 165.43 92.544 164.627 91.1515C163.824 89.759 163.399 88.1677 163.399 86.4271C163.399 84.6865 163.824 83.0951 164.627 81.7027C165.43 80.3102 166.563 79.2162 167.933 78.4205C169.349 77.6248 170.955 77.2269 172.702 77.2269C174.497 77.2269 176.055 77.6248 177.472 78.4205C178.889 79.2162 179.975 80.3102 180.778 81.7027C181.581 83.0951 182.006 84.6865 182.006 86.4271C182.006 88.1677 181.581 89.759 180.778 91.1515C179.975 92.544 178.842 93.638 177.472 94.4337C176.055 95.2294 174.45 95.6273 172.702 95.6273C170.955 95.6273 169.349 95.2294 167.933 94.4337ZM175.016 90.8531C175.725 90.4553 176.244 89.8585 176.622 89.0628C177 88.3169 177.236 87.4217 177.236 86.4271C177.236 85.4325 177.047 84.5373 176.622 83.7914C176.244 83.0454 175.677 82.4486 175.016 82.0011C174.308 81.6032 173.552 81.3546 172.702 81.3546C171.852 81.3546 171.097 81.5535 170.388 82.0011C169.68 82.3989 169.16 82.9957 168.783 83.7914C168.405 84.5373 168.169 85.4325 168.169 86.4271C168.169 87.4217 168.358 88.3169 168.783 89.0628C169.16 89.8088 169.727 90.4055 170.388 90.8531C171.097 91.251 171.852 91.4996 172.702 91.4996C173.552 91.4996 174.308 91.3007 175.016 90.8531Z" fill="#025899"/>
<path d="M195.512 91.8476H188.428L187.106 95.279H182.289L189.703 77.6246H194.378L201.793 95.279H196.881L195.512 91.8476ZM194.095 88.1675L191.922 82.4982L189.75 88.1675H194.095Z" fill="#025899"/>
<path d="M210.057 77.6246H214.779V95.279H210.057V77.6246Z" fill="#025899"/>
<path d="M217.659 86.278H224.649V89.958H217.659V86.278Z" fill="#025899"/>
<path d="M227.435 77.6246H235.369C237.211 77.6246 238.816 77.9727 240.233 78.7187C241.65 79.4647 242.736 80.4593 243.539 81.802C244.342 83.1447 244.719 84.6864 244.719 86.4767C244.719 88.267 244.342 89.8086 243.539 91.1514C242.736 92.4941 241.65 93.4887 240.233 94.2347C238.816 94.9806 237.163 95.3287 235.369 95.3287H227.435V77.6246ZM235.18 91.3006C236.597 91.3006 237.777 90.853 238.627 90.0076C239.477 89.1621 239.95 87.9686 239.95 86.4767C239.95 84.9848 239.525 83.7912 238.627 82.9458C237.777 82.1004 236.597 81.6528 235.18 81.6528H232.205V91.3503H235.18V91.3006Z" fill="#025899"/>
<path d="M260.681 91.4497V95.3287H247.222V77.6743H260.351V81.5533H251.897V84.5371H259.359V88.2669H251.897V91.4994H260.681V91.4497Z" fill="#025899"/>
<path d="M279.241 77.6246V95.279H275.322L267.907 85.8799V95.279H263.279V77.6246H267.199L274.613 87.0237V77.6246H279.241Z" fill="#025899"/>
<path d="M286.184 81.6031H281.037V77.6246H296.054V81.6031H290.954V95.279H286.231V81.6031H286.184Z" fill="#025899"/>
<path d="M72.4698 127.509L66 110.998H67.7001L73.2254 125.47L78.7508 110.998H80.4509L73.9338 127.559H72.4698V127.509Z" fill="#025899"/>
<path d="M89.943 110.7C92.2098 110.7 94.146 111.545 95.7989 113.186C97.4517 114.828 98.2546 116.817 98.2546 119.204C98.2546 121.591 97.4517 123.63 95.7989 125.321C94.146 127.012 92.2098 127.857 89.943 127.857C87.7234 127.857 85.7872 127.061 84.1343 125.42C82.4814 123.729 81.6313 121.74 81.6313 119.403C81.6313 117.016 82.4342 114.977 84.0871 113.286C85.6927 111.545 87.6762 110.7 89.943 110.7ZM89.943 112.291C88.1012 112.291 86.4955 112.988 85.1732 114.33C83.8509 115.673 83.1898 117.364 83.1898 119.303C83.1898 121.193 83.8509 122.834 85.2205 124.177C86.59 125.52 88.1484 126.216 89.943 126.216C91.7847 126.216 93.3904 125.52 94.6655 124.177C95.9405 122.834 96.6489 121.143 96.6489 119.204C96.6489 117.314 95.9878 115.673 94.6655 114.33C93.3432 112.988 91.7847 112.291 89.943 112.291ZM87.5345 108.263L91.6431 105.677L92.3987 106.97L88.2901 109.506L87.5345 108.263ZM94.9961 113.137V110.302H96.6961V113.137H94.9961Z" fill="#025899"/>
<path d="M100.805 127.509V110.998H102.364V127.559H100.805V127.509Z" fill="#025899"/>
<path d="M111.479 127.509V110.998H115.163C115.918 110.998 116.532 111.048 117.004 111.148C117.618 111.247 118.232 111.496 118.704 111.844C119.271 112.242 119.696 112.739 120.027 113.385C120.357 114.032 120.546 114.678 120.546 115.424C120.546 116.121 120.405 116.767 120.121 117.314C119.838 117.861 119.413 118.359 118.846 118.756C119.649 119.105 120.31 119.652 120.735 120.397C121.207 121.143 121.444 121.989 121.444 122.934C121.444 123.729 121.255 124.426 120.924 125.122C120.593 125.768 120.121 126.315 119.507 126.713C118.893 127.111 118.185 127.36 117.429 127.509C117.193 127.559 116.91 127.559 116.532 127.608C116.154 127.658 115.682 127.658 115.21 127.658H111.479V127.509ZM113.085 118.06H114.785H115.163C115.729 118.06 116.202 118.01 116.627 117.961C117.052 117.911 117.429 117.762 117.807 117.563C118.185 117.364 118.468 117.016 118.704 116.618C118.941 116.17 119.035 115.723 119.035 115.275C119.035 114.828 118.941 114.43 118.704 113.982C118.468 113.584 118.185 113.236 117.807 112.988C117.429 112.739 117.004 112.59 116.39 112.54C116.06 112.49 115.54 112.49 114.926 112.49H113.085V118.06ZM113.085 126.017H115.021H115.446C116.296 126.017 116.91 125.967 117.288 125.918C117.666 125.818 118.043 125.719 118.327 125.52C118.752 125.271 119.129 124.923 119.413 124.426C119.696 123.928 119.838 123.381 119.838 122.884C119.838 122.536 119.791 122.188 119.696 121.889C119.602 121.591 119.46 121.293 119.318 121.044C118.988 120.497 118.516 120.149 117.854 119.9C117.429 119.751 117.004 119.652 116.532 119.602C116.343 119.602 116.06 119.602 115.635 119.552C115.21 119.552 114.879 119.552 114.69 119.552H113.037V126.017H113.085Z" fill="#025899"/>
<path d="M123.708 127.509V110.998H132.303V112.49H125.267V118.458H132.067V119.95H125.267V126.017H132.303V127.509H123.708ZM124.039 109.507L127.109 106.672H128.478L131.548 109.507H129.659L127.817 107.865L125.975 109.507H124.039ZM127.061 131.836V129.001H128.62V131.836H127.061Z" fill="#025899"/>
<path d="M135.091 127.509V110.998H137.216L146 124.724V110.998H147.558V127.559H146L136.649 112.988V127.559H135.091V127.509Z" fill="#025899"/>
<path d="M150.817 127.509V110.998H152.376V118.259H160.546V110.998H162.104V127.559H160.546V119.801H152.376V127.559H150.817V127.509Z" fill="#025899"/>
<path d="M171.218 127.509V110.998H173.343L182.127 124.724V110.998H183.685V127.559H182.127L172.823 112.988V127.559H171.218V127.509Z" fill="#025899"/>
<path d="M186.991 127.509V110.998H188.549V118.259H196.719V110.998H198.278V127.559H196.719V119.801H188.549V127.559H186.991V127.509Z" fill="#025899"/>
<path d="M200.119 127.509L206.919 110.949H208.666L215.42 127.509H213.719L211.453 121.939H204.133L201.866 127.509H200.119ZM203.991 109.507L207.061 106.672H208.43L211.5 109.507H209.611L207.769 107.865L205.88 109.507H203.991ZM204.699 120.497H210.792L207.769 112.888L204.699 120.497Z" fill="#025899"/>
<path d="M217.215 127.509V110.998H219.34L228.124 124.724V110.998H229.682V127.559H228.124L218.773 112.988V127.559H217.215V127.509Z" fill="#025899"/>
<defs>
<linearGradient id="paint0_linear_429_2875" x1="57.2762" y1="32.916" x2="79.8282" y2="32.916" gradientUnits="userSpaceOnUse">
<stop stop-color="#DFAA23"/>
<stop offset="0.521" stop-color="#FBF08D"/>
<stop offset="1" stop-color="#DFAA23"/>
</linearGradient>
<linearGradient id="paint1_linear_429_2875" x1="87.0478" y1="32.9159" x2="129.47" y2="32.9159" gradientUnits="userSpaceOnUse">
<stop stop-color="#DFAA23"/>
<stop offset="0.521" stop-color="#FBF08D"/>
<stop offset="1" stop-color="#DFAA23"/>
</linearGradient>
<linearGradient id="paint2_linear_429_2875" x1="155.922" y1="43.964" x2="234.761" y2="43.964" gradientUnits="userSpaceOnUse">
<stop stop-color="#DFAA23"/>
<stop offset="0.521" stop-color="#FBF08D"/>
<stop offset="1" stop-color="#DFAA23"/>
</linearGradient>
<linearGradient id="paint3_linear_429_2875" x1="155.922" y1="43.9637" x2="234.761" y2="43.9637" gradientUnits="userSpaceOnUse">
<stop stop-color="#DFAA23"/>
<stop offset="0.521" stop-color="#FBF08D"/>
<stop offset="1" stop-color="#DFAA23"/>
</linearGradient>
<linearGradient id="paint4_linear_429_2875" x1="155.922" y1="43.964" x2="234.761" y2="43.964" gradientUnits="userSpaceOnUse">
<stop stop-color="#DFAA23"/>
<stop offset="0.521" stop-color="#FBF08D"/>
<stop offset="1" stop-color="#DFAA23"/>
</linearGradient>
<linearGradient id="paint5_linear_429_2875" x1="155.922" y1="43.9639" x2="234.761" y2="43.9639" gradientUnits="userSpaceOnUse">
<stop stop-color="#DFAA23"/>
<stop offset="0.521" stop-color="#FBF08D"/>
<stop offset="1" stop-color="#DFAA23"/>
</linearGradient>
</defs>
</svg>
