<svg width="144" height="37" viewBox="0 0 144 37" fill="none" xmlns="http://www.w3.org/2000/svg">
<rect y="3.8147e-06" width="144" height="34" rx="17" fill="url(#paint0_linear_331_731)"/>
<path d="M17.1494 21.8655H14.9824L14.9961 20.2659H17.1494C17.6872 20.2659 18.1406 20.1451 18.5098 19.9036C18.8789 19.6575 19.1569 19.2997 19.3438 18.8303C19.5352 18.3609 19.6309 17.7935 19.6309 17.1282V16.6428C19.6309 16.1324 19.5762 15.6835 19.4668 15.2961C19.362 14.9088 19.2048 14.5829 18.9951 14.3186C18.7855 14.0543 18.528 13.856 18.2227 13.7239C17.9173 13.5872 17.5664 13.5188 17.1699 13.5188H14.9414V11.9123H17.1699C17.8353 11.9123 18.4437 12.0263 18.9951 12.2541C19.5511 12.4775 20.0319 12.7987 20.4375 13.218C20.8431 13.6373 21.1553 14.1386 21.374 14.7219C21.5973 15.3007 21.709 15.9456 21.709 16.6565V17.1282C21.709 17.8346 21.5973 18.4794 21.374 19.0627C21.1553 19.6461 20.8431 20.1474 20.4375 20.5666C20.0365 20.9814 19.5557 21.3026 18.9951 21.5305C18.4391 21.7538 17.8239 21.8655 17.1494 21.8655ZM16.1445 11.9123V21.8655H14.0938V11.9123H16.1445ZM17.8672 16.2395V17.4563H13.0752V16.2395H17.8672ZM27.0957 13.6145L24.3887 21.8655H22.208L25.9062 11.9123H27.2939L27.0957 13.6145ZM29.3447 21.8655L26.6309 13.6145L26.4121 11.9123H27.8135L31.5322 21.8655H29.3447ZM29.2217 18.1604V19.7668H23.9648V18.1604H29.2217ZM27.8613 9.32837H29.2627C29.2627 9.72029 29.1647 10.0689 28.9688 10.3743C28.7773 10.675 28.5039 10.912 28.1484 11.0852C27.793 11.2538 27.3737 11.3381 26.8906 11.3381C26.1569 11.3381 25.5758 11.1513 25.1475 10.7776C24.7236 10.4039 24.5117 9.92081 24.5117 9.32837H25.9062C25.9062 9.56534 25.9792 9.77726 26.125 9.96411C26.2754 10.151 26.5306 10.2444 26.8906 10.2444C27.2461 10.2444 27.4967 10.151 27.6426 9.96411C27.7884 9.77726 27.8613 9.56534 27.8613 9.32837ZM25.8105 23.4309C25.8105 23.1666 25.9108 22.9456 26.1113 22.7678C26.3118 22.5946 26.5807 22.5081 26.918 22.5081C27.2507 22.5081 27.5173 22.5946 27.7178 22.7678C27.9229 22.9456 28.0254 23.1666 28.0254 23.4309C28.0254 23.6907 27.9229 23.9094 27.7178 24.0872C27.5173 24.2649 27.2507 24.3538 26.918 24.3538C26.5807 24.3538 26.3118 24.2649 26.1113 24.0872C25.9108 23.9094 25.8105 23.6907 25.8105 23.4309ZM36.0576 11.9123V21.8655H34.0137V11.9123H36.0576ZM39.1201 11.9123V13.5188H30.999V11.9123H39.1201ZM49.8047 20.2659V21.8655H44.7939V20.2659H49.8047ZM45.457 11.9123V21.8655H43.4062V11.9123H45.457ZM53.1611 11.9123V21.8655H51.1172V11.9123H53.1611ZM51.0283 23.4514C51.0283 23.1871 51.1286 22.9661 51.3291 22.7883C51.5296 22.6151 51.7985 22.5286 52.1357 22.5286C52.4684 22.5286 52.735 22.6151 52.9355 22.7883C53.1406 22.9661 53.2432 23.1871 53.2432 23.4514C53.2432 23.7112 53.1406 23.9299 52.9355 24.1077C52.735 24.2854 52.4684 24.3743 52.1357 24.3743C51.7985 24.3743 51.5296 24.2854 51.3291 24.1077C51.1286 23.9299 51.0283 23.7112 51.0283 23.4514ZM60.8516 18.5637H62.8955C62.8545 19.2336 62.6699 19.8284 62.3418 20.3479C62.0182 20.8674 61.5648 21.273 60.9814 21.5647C60.4027 21.8564 59.7054 22.0022 58.8896 22.0022C58.2516 22.0022 57.6797 21.8928 57.1738 21.6741C56.668 21.4508 56.235 21.1318 55.875 20.717C55.5195 20.3023 55.2484 19.801 55.0615 19.2131C54.8747 18.6252 54.7812 17.9667 54.7812 17.2375V16.5471C54.7812 15.8179 54.877 15.1594 55.0684 14.5715C55.2643 13.9791 55.5423 13.4755 55.9023 13.0608C56.2669 12.6461 56.7021 12.3271 57.208 12.1038C57.7139 11.8804 58.279 11.7688 58.9033 11.7688C59.7327 11.7688 60.4323 11.9192 61.002 12.22C61.5762 12.5207 62.0205 12.9355 62.335 13.4641C62.654 13.9928 62.8454 14.5943 62.9092 15.2688H60.8584C60.8356 14.8678 60.7559 14.5282 60.6191 14.2502C60.4824 13.9677 60.2751 13.7558 59.9971 13.6145C59.7236 13.4687 59.359 13.3957 58.9033 13.3957C58.5615 13.3957 58.263 13.4596 58.0078 13.5872C57.7526 13.7148 57.5384 13.9084 57.3652 14.1682C57.1921 14.428 57.0622 14.7561 56.9756 15.1526C56.8936 15.5445 56.8525 16.0048 56.8525 16.5334V17.2375C56.8525 17.7525 56.8913 18.206 56.9688 18.5979C57.0462 18.9853 57.1647 19.3134 57.3242 19.5823C57.4883 19.8466 57.6979 20.0471 57.9531 20.1838C58.2129 20.316 58.5251 20.3821 58.8896 20.3821C59.318 20.3821 59.6712 20.3137 59.9492 20.177C60.2272 20.0403 60.4391 19.8375 60.585 19.5686C60.7354 19.2997 60.8242 18.9648 60.8516 18.5637ZM70.8799 15.9661V17.5657H65.6846V15.9661H70.8799ZM66.293 11.9123V21.8655H64.2422V11.9123H66.293ZM72.3428 11.9123V21.8655H70.2988V11.9123H72.3428ZM84.251 15.9661V17.5657H79.0557V15.9661H84.251ZM79.6641 11.9123V21.8655H77.6133V11.9123H79.6641ZM85.7139 11.9123V21.8655H83.6699V11.9123H85.7139ZM94.1768 20.2659V21.8655H88.8789V20.2659H94.1768ZM89.5488 11.9123V21.8655H87.498V11.9123H89.5488ZM93.4863 15.9661V17.5247H88.8789V15.9661H93.4863ZM94.1699 11.9123V13.5188H88.8789V11.9123H94.1699ZM89.8633 23.4036C89.8633 23.1392 89.9635 22.9182 90.1641 22.7405C90.3646 22.5673 90.6335 22.4807 90.9707 22.4807C91.3034 22.4807 91.57 22.5673 91.7705 22.7405C91.9756 22.9182 92.0781 23.1392 92.0781 23.4036C92.0781 23.6633 91.9756 23.8821 91.7705 24.0598C91.57 24.2375 91.3034 24.3264 90.9707 24.3264C90.6335 24.3264 90.3646 24.2375 90.1641 24.0598C89.9635 23.8821 89.8633 23.6633 89.8633 23.4036ZM103.474 11.9123V21.8655H101.423L97.4238 15.1936V21.8655H95.373V11.9123H97.4238L101.43 18.5911V11.9123H103.474Z" fill="#025899"/>
<path d="M121 16.5875V14.5785H123V16.5875H121ZM117 16.5875V14.5785H119V16.5875H117ZM125 16.5875V14.5785H127V16.5875H125ZM121 20.6054V18.5964H123V20.6054H121ZM117 20.6054V18.5964H119V20.6054H117ZM125 20.6054V18.5964H127V20.6054H125ZM113 24.6233V6.54261H116V4.53364H118V6.54261H126V4.53364H128V6.54261H131V24.6233H113ZM115 22.6144H129V12.5695H115V22.6144Z" fill="#025899"/>
<defs>
<linearGradient id="paint0_linear_331_731" x1="0" y1="34" x2="144" y2="34" gradientUnits="userSpaceOnUse">
<stop stop-color="#DFAA23"/>
<stop offset="0.479167" stop-color="#FBF08D"/>
<stop offset="1" stop-color="#DFAA23"/>
</linearGradient>
</defs>
</svg>
