<svg width="29" height="37" viewBox="0 0 29 37" fill="none" xmlns="http://www.w3.org/2000/svg">
<rect x="1" width="28" height="4" rx="2" fill="white"/>
<rect x="1" y="8" width="28" height="4" rx="2" fill="white"/>
<rect x="1" y="16" width="28" height="4" rx="2" fill="white"/>
<path d="M1.30371 23.8906H2.54395L4.37012 29.1104L6.19629 23.8906H7.43652L4.86816 31H3.87207L1.30371 23.8906ZM0.634766 23.8906H1.87012L2.09473 28.9785V31H0.634766V23.8906ZM6.87012 23.8906H8.11035V31H6.64551V28.9785L6.87012 23.8906ZM14.165 29.8574V31H10.3809V29.8574H14.165ZM10.8594 23.8906V31H9.39453V23.8906H10.8594ZM13.6719 26.7861V27.8994H10.3809V26.7861H13.6719ZM14.1602 23.8906V25.0381H10.3809V23.8906H14.1602ZM20.8057 23.8906V31H19.3408L16.4844 26.2344V31H15.0195V23.8906H16.4844L19.3457 28.6611V23.8906H20.8057ZM26.0059 23.8906H27.4658V28.5879C27.4658 29.1348 27.3486 29.5954 27.1143 29.9697C26.8831 30.3441 26.5625 30.6257 26.1523 30.8145C25.7454 31.0033 25.2767 31.0977 24.7461 31.0977C24.2155 31.0977 23.7435 31.0033 23.3301 30.8145C22.9199 30.6257 22.5977 30.3441 22.3633 29.9697C22.1322 29.5954 22.0166 29.1348 22.0166 28.5879V23.8906H23.4814V28.5879C23.4814 28.9069 23.5319 29.1673 23.6328 29.3691C23.7337 29.571 23.8786 29.7191 24.0674 29.8135C24.2594 29.9079 24.4857 29.9551 24.7461 29.9551C25.013 29.9551 25.2393 29.9079 25.4248 29.8135C25.6136 29.7191 25.7568 29.571 25.8545 29.3691C25.9554 29.1673 26.0059 28.9069 26.0059 28.5879V23.8906Z" fill="white"/>
</svg>
