<svg width="30" height="30" viewBox="0 0 30 30" fill="none" xmlns="http://www.w3.org/2000/svg">
<g clip-path="url(#clip0_199_1002)">
<path d="M30 5H0V25.0002H30V5Z" fill="#F0F0F0"/>
<path d="M16.875 4.99976H13.125V13.1247H0V16.8747H13.125V24.9997H16.875V16.8747H30V13.1247H16.875V4.99976Z" fill="#D80027"/>
<path d="M23.0732 18.478L29.9999 22.3262V18.478H23.0732Z" fill="#0052B4"/>
<path d="M18.2607 18.478L29.9999 24.9997V23.1556L21.5804 18.478H18.2607Z" fill="#0052B4"/>
<path d="M26.873 24.9998L18.2607 20.2148V24.9998H26.873Z" fill="#0052B4"/>
<path d="M18.2607 18.478L29.9999 24.9997V23.1556L21.5804 18.478H18.2607Z" fill="#F0F0F0"/>
<path d="M18.2607 18.478L29.9999 24.9997V23.1556L21.5804 18.478H18.2607Z" fill="#D80027"/>
<path d="M5.29342 18.4778L0 21.4186V18.4778H5.29342Z" fill="#0052B4"/>
<path d="M11.7392 19.3071V24.9996H1.49365L11.7392 19.3071Z" fill="#0052B4"/>
<path d="M8.41951 18.478L0 23.1556V24.9997L11.7391 18.478H8.41951Z" fill="#D80027"/>
<path d="M6.92666 11.5215L0 7.67334V11.5215H6.92666Z" fill="#0052B4"/>
<path d="M11.7391 11.5215L0 4.99976V6.84394L8.41951 11.5215H11.7391Z" fill="#0052B4"/>
<path d="M3.12695 4.99976L11.7392 9.78476V4.99976H3.12695Z" fill="#0052B4"/>
<path d="M11.7391 11.5215L0 4.99976V6.84394L8.41951 11.5215H11.7391Z" fill="#F0F0F0"/>
<path d="M11.7391 11.5215L0 4.99976V6.84394L8.41951 11.5215H11.7391Z" fill="#D80027"/>
<path d="M24.7065 11.5216L30 8.58081V11.5216H24.7065Z" fill="#0052B4"/>
<path d="M18.2607 10.6922V4.99976H28.5063L18.2607 10.6922Z" fill="#0052B4"/>
<path d="M21.5804 11.5215L29.9999 6.84394V4.99976L18.2607 11.5215H21.5804Z" fill="#D80027"/>
</g>
<defs>
<clipPath id="clip0_199_1002">
<rect width="30" height="30" fill="white"/>
</clipPath>
</defs>
</svg>
