<svg width="34" height="34" viewBox="0 0 34 34" fill="none" xmlns="http://www.w3.org/2000/svg">
<path d="M16.9999 33C25.8365 33 33 25.8366 33 17C33 8.16345 25.8365 1 16.9999 1C8.16338 1 1 8.16345 1 17C1 25.8366 8.16338 33 16.9999 33Z" fill="#025899" stroke="#0D6799" stroke-width="0.5" stroke-miterlimit="10"/>
<path d="M17.49 15.482V15.032H18.837V21.354H18.067C17.9146 21.3543 17.7683 21.2941 17.6601 21.1867C17.552 21.0793 17.4908 20.9334 17.49 20.781C16.9277 21.1926 16.2488 21.415 15.552 21.414C14.6814 21.414 13.8464 21.0683 13.2306 20.4528C12.6148 19.8374 12.2685 19.0026 12.268 18.132C12.2685 17.2614 12.6148 16.4266 13.2306 15.8112C13.8464 15.1957 14.6814 14.85 15.552 14.85C16.2485 14.8492 16.928 15.0706 17.49 15.482ZM11.919 13V13.205C11.919 13.587 11.868 13.899 11.619 14.265L11.589 14.299C11.506 14.392 11.4254 14.4871 11.347 14.584L7.024 20.01H11.919V20.778C11.919 20.8537 11.9041 20.9287 11.8751 20.9987C11.846 21.0686 11.8035 21.1321 11.7499 21.1856C11.6963 21.2391 11.6327 21.2816 11.5627 21.3104C11.4927 21.3393 11.4177 21.3541 11.342 21.354H5V20.992C5 20.549 5.11 20.351 5.25 20.145L9.857 14.44H5.192V13H11.919ZM20.47 21.354C20.3427 21.354 20.2206 21.3034 20.1306 21.2134C20.0406 21.1234 19.99 21.0013 19.99 20.874V13H21.431V21.354H20.47ZM25.693 14.81C26.1272 14.8099 26.5571 14.8953 26.9582 15.0613C27.3594 15.2273 27.7239 15.4707 28.031 15.7776C28.3381 16.0845 28.5817 16.4489 28.748 16.8499C28.9142 17.251 28.9999 17.6808 29 18.115C29.0001 18.5491 28.9147 18.9791 28.7487 19.3802C28.5827 19.7814 28.3393 20.1459 28.0324 20.453C27.7255 20.7601 27.3611 21.0037 26.9601 21.17C26.559 21.3362 26.1292 21.4219 25.695 21.422C24.8182 21.4223 23.9772 21.0742 23.357 20.4544C22.7368 19.8346 22.3883 18.9938 22.388 18.117C22.3877 17.2402 22.7358 16.3992 23.3556 15.779C23.9754 15.1588 24.8162 14.8103 25.693 14.81ZM15.553 20.063C15.8103 20.0689 16.0663 20.0232 16.3057 19.9288C16.5452 19.8344 16.7634 19.693 16.9475 19.5131C17.1315 19.3331 17.2778 19.1182 17.3777 18.881C17.4775 18.6437 17.529 18.3889 17.529 18.1315C17.529 17.8741 17.4775 17.6193 17.3777 17.382C17.2778 17.1448 17.1315 16.9299 16.9475 16.7499C16.7634 16.57 16.5452 16.4286 16.3057 16.3342C16.0663 16.2398 15.8103 16.1941 15.553 16.2C15.0483 16.2115 14.5682 16.42 14.2154 16.781C13.8625 17.142 13.665 17.6267 13.665 18.1315C13.665 18.6363 13.8625 19.121 14.2154 19.482C14.5682 19.843 15.0483 20.0515 15.553 20.063ZM25.693 20.06C26.2088 20.06 26.7036 19.8551 27.0683 19.4903C27.4331 19.1256 27.638 18.6308 27.638 18.115C27.638 17.5992 27.4331 17.1044 27.0683 16.7397C26.7036 16.3749 26.2088 16.17 25.693 16.17C25.1772 16.17 24.6824 16.3749 24.3177 16.7397C23.9529 17.1044 23.748 17.5992 23.748 18.115C23.748 18.6308 23.9529 19.1256 24.3177 19.4903C24.6824 19.8551 25.1772 20.06 25.693 20.06Z" fill="white"/>
</svg>
