<svg width="17" height="18" viewBox="0 0 17 18" fill="none" xmlns="http://www.w3.org/2000/svg">
<path d="M13.6518 10.6687C13.3238 10.3201 12.9281 10.1337 12.5087 10.1337C12.0928 10.1337 11.6937 10.3167 11.3522 10.6652L10.2835 11.7525C10.1956 11.7041 10.1076 11.6593 10.0231 11.6144C9.90135 11.5523 9.78637 11.4936 9.6883 11.4315C8.68728 10.7826 7.77757 9.93699 6.90505 8.84288C6.48233 8.29755 6.19825 7.83851 5.99196 7.37256C6.26927 7.1137 6.52629 6.84449 6.77655 6.58563C6.87124 6.48899 6.96593 6.38889 7.06062 6.29225C7.7708 5.56745 7.7708 4.62865 7.06062 3.90385L6.13738 2.9616C6.03254 2.8546 5.92433 2.74416 5.82287 2.63371C5.61996 2.41972 5.40691 2.19883 5.18709 1.99174C4.85905 1.6604 4.46676 1.48438 4.05418 1.48438C3.64159 1.48438 3.24254 1.6604 2.90436 1.99174C2.90097 1.99519 2.90097 1.99519 2.89759 1.99864L1.74777 3.18249C1.3149 3.62428 1.06802 4.16271 1.01392 4.78742C0.932752 5.79524 1.22359 6.73404 1.44679 7.3484C1.99464 8.85669 2.81305 10.2545 4.03389 11.7525C5.51512 13.5576 7.29735 14.983 9.33321 15.9874C10.111 16.3636 11.1492 16.8088 12.3092 16.8848C12.3802 16.8882 12.4546 16.8917 12.5223 16.8917C13.3035 16.8917 13.9595 16.6052 14.4736 16.0357C14.477 16.0288 14.4837 16.0254 14.4871 16.0185C14.663 15.801 14.8659 15.6043 15.0789 15.3937C15.2243 15.2522 15.3731 15.1038 15.5186 14.9485C15.8534 14.593 16.0292 14.1788 16.0292 13.7543C16.0292 13.3263 15.85 12.9156 15.5084 12.5705L13.6518 10.6687ZM14.8625 14.3031C14.8591 14.3031 14.8591 14.3065 14.8625 14.3031C14.7306 14.448 14.5953 14.5792 14.4499 14.7242C14.2301 14.9382 14.0069 15.1625 13.7972 15.4145C13.4556 15.7872 13.0532 15.9632 12.5256 15.9632C12.4749 15.9632 12.4208 15.9632 12.3701 15.9598C11.3657 15.8942 10.4323 15.4938 9.73226 15.1521C7.81815 14.2064 6.13738 12.8638 4.74069 11.1623C3.58748 9.74371 2.81643 8.43216 2.30577 7.02396C1.99126 6.16455 1.87628 5.49497 1.92701 4.86335C1.96083 4.45953 2.11301 4.12474 2.3937 3.83827L3.5469 2.66132C3.71261 2.50255 3.88847 2.41627 4.06094 2.41627C4.274 2.41627 4.44647 2.54742 4.55469 2.65787C4.55807 2.66132 4.56145 2.66477 4.56483 2.66822C4.77112 2.86496 4.96727 3.06859 5.17356 3.28604C5.2784 3.39648 5.38662 3.50693 5.49483 3.62083L6.41807 4.56307C6.77655 4.92893 6.77655 5.26717 6.41807 5.63303C6.32 5.73312 6.22531 5.83321 6.12723 5.92985C5.84316 6.22668 5.57262 6.50279 5.2784 6.77201C5.27163 6.77891 5.26487 6.78236 5.26149 6.78926C4.97065 7.08609 5.02476 7.37601 5.08563 7.57274C5.08901 7.5831 5.0924 7.59345 5.09578 7.60381C5.33589 8.19746 5.67407 8.75659 6.18811 9.42272L6.19149 9.42618C7.12487 10.5997 8.10898 11.5143 9.19455 12.215C9.33321 12.3047 9.47524 12.3772 9.61051 12.4462C9.73226 12.5083 9.84724 12.567 9.94531 12.6291C9.95884 12.636 9.97237 12.6464 9.9859 12.6533C10.1009 12.712 10.2091 12.7396 10.3207 12.7396C10.6014 12.7396 10.7772 12.5601 10.8347 12.5014L11.9913 11.321C12.1063 11.2037 12.2889 11.0622 12.502 11.0622C12.7116 11.0622 12.8841 11.1968 12.989 11.3141C12.9923 11.3176 12.9923 11.3176 12.9957 11.321L14.8591 13.2228C15.2074 13.5748 15.2074 13.9372 14.8625 14.3031Z" fill="#025899"/>
<path d="M14.8625 14.3031C14.8591 14.3031 14.8591 14.3065 14.8625 14.3031ZM14.8625 14.3031C14.7306 14.448 14.5953 14.5792 14.4499 14.7242C14.2301 14.9382 14.0069 15.1625 13.7972 15.4145C13.4556 15.7872 13.0532 15.9632 12.5256 15.9632C12.4749 15.9632 12.4208 15.9632 12.3701 15.9598C11.3657 15.8942 10.4323 15.4938 9.73226 15.1521C7.81815 14.2064 6.13738 12.8638 4.74069 11.1623C3.58748 9.74371 2.81643 8.43216 2.30577 7.02396C1.99126 6.16455 1.87628 5.49497 1.92701 4.86335C1.96083 4.45953 2.11301 4.12474 2.3937 3.83827L3.5469 2.66132C3.71261 2.50255 3.88847 2.41627 4.06094 2.41627C4.274 2.41627 4.44647 2.54742 4.55469 2.65787C4.55807 2.66132 4.56145 2.66477 4.56483 2.66822C4.77112 2.86496 4.96727 3.06859 5.17356 3.28604C5.2784 3.39648 5.38662 3.50693 5.49483 3.62083L6.41807 4.56307C6.77655 4.92893 6.77655 5.26717 6.41807 5.63303C6.32 5.73312 6.22531 5.83321 6.12723 5.92985C5.84316 6.22668 5.57262 6.50279 5.2784 6.77201C5.27163 6.77891 5.26487 6.78236 5.26149 6.78926C4.97065 7.08609 5.02476 7.37601 5.08563 7.57274C5.08901 7.5831 5.0924 7.59345 5.09578 7.60381C5.33589 8.19746 5.67407 8.75659 6.18811 9.42272L6.19149 9.42618C7.12487 10.5997 8.10898 11.5143 9.19455 12.215C9.33321 12.3047 9.47524 12.3772 9.61051 12.4462C9.73226 12.5083 9.84724 12.567 9.94531 12.6291C9.95884 12.636 9.97237 12.6464 9.9859 12.6533C10.1009 12.712 10.2091 12.7396 10.3207 12.7396C10.6014 12.7396 10.7772 12.5601 10.8347 12.5014L11.9913 11.321C12.1063 11.2037 12.2889 11.0622 12.502 11.0622C12.7116 11.0622 12.8841 11.1968 12.989 11.3141C12.9923 11.3176 12.9923 11.3176 12.9957 11.321L14.8591 13.2228C15.2074 13.5748 15.2074 13.9372 14.8625 14.3031ZM13.6518 10.6687C13.3238 10.3201 12.9281 10.1337 12.5087 10.1337C12.0928 10.1337 11.6937 10.3167 11.3522 10.6652L10.2835 11.7525C10.1956 11.7041 10.1076 11.6593 10.0231 11.6144C9.90135 11.5523 9.78637 11.4936 9.6883 11.4315C8.68728 10.7826 7.77757 9.93699 6.90505 8.84288C6.48233 8.29755 6.19825 7.83851 5.99196 7.37256C6.26927 7.1137 6.52629 6.84449 6.77655 6.58563C6.87124 6.48899 6.96593 6.38889 7.06062 6.29225C7.7708 5.56745 7.7708 4.62865 7.06062 3.90385L6.13738 2.9616C6.03254 2.8546 5.92433 2.74416 5.82287 2.63371C5.61996 2.41972 5.40691 2.19883 5.18709 1.99174C4.85905 1.6604 4.46676 1.48438 4.05418 1.48438C3.64159 1.48438 3.24254 1.6604 2.90436 1.99174C2.90097 1.99519 2.90097 1.99519 2.89759 1.99864L1.74777 3.18249C1.3149 3.62428 1.06802 4.16271 1.01392 4.78742C0.932752 5.79524 1.22359 6.73404 1.44679 7.3484C1.99464 8.85669 2.81305 10.2545 4.03389 11.7525C5.51512 13.5576 7.29735 14.983 9.3332 15.9874C10.111 16.3636 11.1492 16.8088 12.3092 16.8848C12.3802 16.8882 12.4546 16.8917 12.5223 16.8917C13.3035 16.8917 13.9595 16.6052 14.4736 16.0357C14.477 16.0288 14.4837 16.0254 14.4871 16.0185C14.663 15.801 14.8659 15.6043 15.0789 15.3937C15.2243 15.2522 15.3731 15.1038 15.5186 14.9485C15.8534 14.593 16.0292 14.1788 16.0292 13.7543C16.0292 13.3263 15.85 12.9156 15.5084 12.5705L13.6518 10.6687Z" stroke="#025899" stroke-width="0.5"/>
<mask id="path-3-inside-1_194_933" fill="white">
<path d="M9.64777 4.42884C10.5338 4.58071 11.3387 5.00869 11.9812 5.66446C12.6238 6.32024 13.0397 7.14169 13.1919 8.04597C13.2291 8.27376 13.4219 8.43253 13.6417 8.43253C13.6688 8.43253 13.6924 8.42908 13.7195 8.42563C13.9697 8.38421 14.1355 8.14261 14.0949 7.8872C13.9123 6.79309 13.405 5.79562 12.6305 5.00524C11.8561 4.21485 10.8788 3.69713 9.80671 3.51075C9.55646 3.46934 9.32311 3.63846 9.27915 3.89041C9.23519 4.14237 9.39751 4.38742 9.64777 4.42884Z"/>
</mask>
<path d="M9.64777 4.42884C10.5338 4.58071 11.3387 5.00869 11.9812 5.66446C12.6238 6.32024 13.0397 7.14169 13.1919 8.04597C13.2291 8.27376 13.4219 8.43253 13.6417 8.43253C13.6688 8.43253 13.6924 8.42908 13.7195 8.42563C13.9697 8.38421 14.1355 8.14261 14.0949 7.8872C13.9123 6.79309 13.405 5.79562 12.6305 5.00524C11.8561 4.21485 10.8788 3.69713 9.80671 3.51075C9.55646 3.46934 9.32311 3.63846 9.27915 3.89041C9.23519 4.14237 9.39751 4.38742 9.64777 4.42884Z" fill="#025899"/>
<path d="M9.64777 4.42884L9.8167 3.4432L9.81105 3.44226L9.64777 4.42884ZM13.1919 8.04597L14.1789 7.8848L14.1781 7.88001L13.1919 8.04597ZM13.7195 8.42563L13.846 9.41759L13.8644 9.41524L13.8828 9.41221L13.7195 8.42563ZM14.0949 7.8872L15.0825 7.73027L15.0812 7.72257L14.0949 7.8872ZM9.80671 3.51075L9.97801 2.5255L9.96999 2.52417L9.80671 3.51075ZM9.47884 5.41447C10.151 5.52968 10.7669 5.85399 11.267 6.36433L12.6955 4.9646C11.9105 4.16339 10.9166 3.63173 9.8167 3.44321L9.47884 5.41447ZM11.267 6.36433C11.7654 6.87306 12.0873 7.50776 12.2058 8.21193L14.1781 7.88001C13.9922 6.77561 13.4821 5.76742 12.6955 4.9646L11.267 6.36433ZM12.205 8.20714C12.3214 8.91985 12.9331 9.43253 13.6417 9.43253V7.43253C13.9107 7.43253 14.1369 7.62768 14.1788 7.8848L12.205 8.20714ZM13.6417 9.43253C13.7468 9.43253 13.843 9.41798 13.846 9.41759L13.5929 7.43367C13.5886 7.43422 13.5841 7.43481 13.5814 7.43515C13.5783 7.43555 13.5766 7.43578 13.5752 7.43594C13.5725 7.43629 13.5746 7.436 13.5791 7.43554C13.5892 7.43451 13.6119 7.43253 13.6417 7.43253V9.43253ZM13.8828 9.41221C14.7087 9.27551 15.2039 8.49469 15.0825 7.73028L13.1073 8.04412C13.067 7.79053 13.2308 7.49291 13.5562 7.43905L13.8828 9.41221ZM15.0812 7.72257C14.8649 6.42652 14.2627 5.24218 13.3448 4.30537L11.9163 5.7051C12.5472 6.34906 12.9596 7.15966 13.1085 8.05183L15.0812 7.72257ZM13.3448 4.30537C12.4267 3.36835 11.2606 2.74852 9.978 2.52553L9.63543 4.49598C10.4969 4.64575 11.2855 5.06135 11.9163 5.7051L13.3448 4.30537ZM9.96999 2.52417C9.16382 2.39075 8.42982 2.94036 8.29403 3.71852L10.2643 4.06231C10.2164 4.33656 9.94909 4.54792 9.64343 4.49733L9.96999 2.52417ZM8.29403 3.71852C8.1616 4.4775 8.64638 5.27671 9.48449 5.41542L9.81105 3.44226C10.1486 3.49814 10.3088 3.80724 10.2643 4.06231L8.29403 3.71852Z" fill="#025899" mask="url(#path-3-inside-1_194_933)"/>
<mask id="path-5-inside-2_194_933" fill="white">
<path d="M16.9929 7.75232C16.6919 5.95066 15.86 4.31122 14.5817 3.00657C13.3033 1.70192 11.697 0.852858 9.93166 0.545678C9.68479 0.500809 9.45144 0.673382 9.40748 0.925338C9.36689 1.18075 9.5326 1.4189 9.78286 1.46377C11.3588 1.73643 12.7961 2.4992 13.9391 3.66234C15.0822 4.82894 15.8262 6.29581 16.0933 7.90418C16.1305 8.13198 16.3233 8.29075 16.5431 8.29075C16.5702 8.29075 16.5939 8.2873 16.6209 8.28385C16.8678 8.24588 17.0369 8.00428 16.9929 7.75232Z"/>
</mask>
<path d="M16.9929 7.75232C16.6919 5.95066 15.86 4.31122 14.5817 3.00657C13.3033 1.70192 11.697 0.852858 9.93166 0.545678C9.68479 0.500809 9.45144 0.673382 9.40748 0.925338C9.36689 1.18075 9.5326 1.4189 9.78286 1.46377C11.3588 1.73643 12.7961 2.4992 13.9391 3.66234C15.0822 4.82894 15.8262 6.29581 16.0933 7.90418C16.1305 8.13198 16.3233 8.29075 16.5431 8.29075C16.5702 8.29075 16.5939 8.2873 16.6209 8.28385C16.8678 8.24588 17.0369 8.00428 16.9929 7.75232Z" fill="#025899"/>
<path d="M16.9929 7.75232L16.0066 7.9171L16.0078 7.92421L16.9929 7.75232ZM9.93166 0.545678L9.75283 1.52959L9.76023 1.53087L9.93166 0.545678ZM9.40748 0.925338L8.42236 0.753446L8.42106 0.760921L8.41986 0.768416L9.40748 0.925338ZM9.78286 1.46377L9.60638 2.44809L9.61237 2.44913L9.78286 1.46377ZM13.9391 3.66234L14.6534 2.96248L14.6524 2.96142L13.9391 3.66234ZM16.0933 7.90418L17.0803 7.74301L17.0798 7.74032L16.0933 7.90418ZM16.6209 8.28385L16.7475 9.27581L16.7602 9.27418L16.7729 9.27223L16.6209 8.28385ZM17.9792 7.58755C17.6446 5.58443 16.718 3.75805 15.2959 2.3067L13.8674 3.70643C15.002 4.86438 15.7393 6.31689 16.0066 7.9171L17.9792 7.58755ZM15.2959 2.3067C13.8737 0.855129 12.0785 -0.0957876 10.1031 -0.439518L9.76023 1.53087C11.3155 1.8015 12.733 2.5487 13.8674 3.70643L15.2959 2.3067ZM10.1105 -0.438204C9.27921 -0.589286 8.5549 -0.0061304 8.42236 0.753446L10.3926 1.09723C10.348 1.35289 10.0904 1.5909 9.75284 1.52956L10.1105 -0.438204ZM8.41986 0.768416C8.29658 1.5443 8.803 2.30403 9.60638 2.44807L9.95934 0.479461C10.2622 0.533763 10.4372 0.817195 10.3951 1.08226L8.41986 0.768416ZM9.61237 2.44913C10.9763 2.68512 12.2254 3.34518 13.2259 4.36327L14.6524 2.96142C13.3668 1.65322 11.7413 0.787746 9.95334 0.478405L9.61237 2.44913ZM13.2248 4.36221C14.2242 5.38215 14.8733 6.66185 15.1069 8.06805L17.0798 7.74032C16.7791 5.92977 15.9401 4.27572 14.6534 2.96248L13.2248 4.36221ZM15.1064 8.06535C15.2228 8.77806 15.8345 9.29075 16.5431 9.29075V7.29075C16.8121 7.29075 17.0383 7.4859 17.0803 7.74302L15.1064 8.06535ZM16.5431 9.29075C16.6482 9.29075 16.7444 9.2762 16.7475 9.27581L16.4944 7.29188C16.49 7.29244 16.4855 7.29302 16.4829 7.29336C16.4797 7.29377 16.478 7.29399 16.4766 7.29416C16.4739 7.2945 16.476 7.29421 16.4805 7.29376C16.4906 7.29272 16.5133 7.29075 16.5431 7.29075V9.29075ZM16.7729 9.27223C17.5961 9.14563 18.1143 8.36141 17.978 7.58043L16.0078 7.92421C15.9595 7.64715 16.1395 7.34612 16.4689 7.29546L16.7729 9.27223Z" fill="#025899" mask="url(#path-5-inside-2_194_933)"/>
</svg>
