<svg width="36" height="36" viewBox="0 0 36 36" fill="none" xmlns="http://www.w3.org/2000/svg">
<path d="M32.9432 4.8833H29.8866V6.1325C29.8866 7.49528 28.7545 8.51737 27.5092 8.51737C26.1507 8.51737 25.1318 7.38171 25.1318 6.1325V4.8833H20.3771V6.1325C20.3771 7.38171 19.3583 8.4038 18.113 8.51737H17.9998H17.8866C16.6413 8.4038 15.6224 7.38171 15.6224 6.1325V4.8833H10.8677V6.1325C10.8677 7.49528 9.73561 8.51737 8.49033 8.51737C7.13184 8.51737 6.11298 7.38171 6.11298 6.1325V4.8833H3.05638C2.03751 4.8833 1.24506 5.67824 1.24506 6.70033V10.9022H17.8866H18.113H34.7545V6.70033C34.7545 5.67824 33.962 4.8833 32.9432 4.8833Z" fill="white"/>
<path d="M-6.10352e-05 13.4006V32.5931C-6.10352e-05 34.2965 1.35843 35.6593 3.05655 35.6593H10.8679C8.3773 32.0252 6.90561 23.9621 6.90561 21.5773C6.90561 16.694 12.1131 13.5142 16.415 15.7855C17.4339 16.3533 18.566 16.3533 19.5848 15.7855C23.8867 13.5142 29.0943 16.694 29.0943 21.5773C29.0943 23.9621 27.6226 32.0252 25.132 35.6593H32.9433C34.6414 35.6593 35.9999 34.2965 35.9999 32.5931V13.4006H-6.10352e-05Z" fill="white"/>
<path d="M19.3582 17.3754C18.4525 17.8296 17.4336 17.8296 16.6412 17.3754C12.9053 15.4448 8.49023 18.1703 8.49023 22.3722C8.49023 24.9842 10.6412 36 14.0374 36C15.2827 36 16.3016 34.7508 17.3204 32.2524C17.5468 31.6845 18.3393 31.6845 18.5657 32.2524C19.5846 34.7508 20.7167 36 21.8487 36C25.245 36 27.3959 25.0978 27.3959 22.3722C27.5091 18.1703 23.094 15.4448 19.3582 17.3754Z" fill="white"/>
<path d="M32.9434 3.63407H29.8868V2.38485C29.8868 1.02207 28.7547 0 27.5094 0C26.1509 0 25.1321 1.13564 25.1321 2.38485V3.63407H20.3774V2.38485C20.3774 1.13564 19.3585 0.113565 18.1132 0H18H17.8868C16.6415 0.113565 15.6226 1.13564 15.6226 2.38485V3.63407H10.8679V2.38485C10.8679 1.02207 9.73585 0 8.49056 0C7.13207 0 6.11322 1.13564 6.11322 2.38485V3.63407H3.05661C1.3585 3.63407 0 4.99684 0 6.70031V11.5836H36V6.70031C36 4.99684 34.6415 3.63407 32.9434 3.63407ZM26.3774 2.38485C26.3774 1.70346 26.9434 1.13565 27.6226 1.13565C28.3019 1.13565 28.8679 1.70346 28.8679 2.38485V6.01893C28.8679 6.70032 28.3019 7.26813 27.6226 7.26813C26.9434 7.26813 26.3774 6.70032 26.3774 6.01893V2.38485ZM16.8679 2.38485C16.8679 1.70346 17.3208 1.24921 18 1.13565C18.566 1.13565 19.1321 1.70346 19.1321 2.38485V6.01893C19.1321 6.70032 18.6793 7.15457 18 7.26813C17.434 7.26813 16.8679 6.70032 16.8679 6.01893V2.38485ZM7.24529 2.38485C7.24529 1.70346 7.81132 1.13565 8.49056 1.13565C9.16981 1.13565 9.73585 1.70346 9.73585 2.38485V6.01893C9.73585 6.70032 9.16981 7.26813 8.49056 7.26813C7.81132 7.26813 7.24529 6.70032 7.24529 6.01893V2.38485ZM34.7547 10.9022H18.1132H17.8868H1.24529V6.70031C1.24529 5.67823 2.03774 4.88329 3.05661 4.88329H6.11322V6.13249C6.11322 7.49526 7.24528 8.51735 8.49056 8.51735C9.84906 8.51735 10.8679 7.3817 10.8679 6.13249V4.88329H15.6226V6.13249C15.6226 7.3817 16.6415 8.40379 17.8868 8.51735H18H18.1132C19.3585 8.40379 20.3774 7.3817 20.3774 6.13249V4.88329H25.1321V6.13249C25.1321 7.49526 26.2642 8.51735 27.5094 8.51735C28.8679 8.51735 29.8868 7.3817 29.8868 6.13249V4.88329H32.9434C33.9623 4.88329 34.7547 5.67823 34.7547 6.70031V10.9022Z" fill="white"/>
</svg>
