<svg width="18" height="17" viewBox="0 0 18 17" fill="none" xmlns="http://www.w3.org/2000/svg">
<path d="M17.9106 6.23002C17.7695 5.79578 17.3951 5.4812 16.944 5.41531L12.3754 4.75147L10.3322 0.614805C9.92893 -0.203389 8.59042 -0.203389 8.18719 0.614805L6.14391 4.75147L1.58604 5.41531C1.13509 5.4812 0.760689 5.79688 0.620653 6.23002C0.479515 6.66426 0.597896 7.13924 0.924586 7.45621L4.22874 10.6682L3.45001 15.2142C3.37347 15.6627 3.55774 16.1173 3.92609 16.3853C4.29573 16.652 4.78503 16.6868 5.18697 16.4751L9.25921 14.3277L13.3434 16.4751C13.5181 16.5672 13.7095 16.6127 13.8997 16.6127C14.1473 16.6127 14.3949 16.5362 14.6056 16.3855C14.9741 16.1162 15.1582 15.6629 15.0816 15.2144L14.3029 10.6684L17.6071 7.45639C17.9334 7.14034 18.0518 6.66297 17.9106 6.23002ZM12.1803 9.39175C11.8981 9.66687 11.7676 10.0629 11.8346 10.4517L12.3106 13.2294L9.81404 11.9172C9.6406 11.825 9.44917 11.7795 9.25775 11.7795C9.06632 11.7795 8.87489 11.825 8.70146 11.9172L6.21806 13.226L6.69415 10.4518C6.76114 10.0631 6.63083 9.66595 6.34837 9.39193L4.3339 7.43363L7.1104 7.02931C7.49913 6.97314 7.83536 6.72776 8.01008 6.37501L9.25775 3.8472L10.5054 6.37501C10.6801 6.72904 11.0162 6.97314 11.4062 7.02931L14.1935 7.43492L12.1803 9.39175Z" fill="#025899"/>
</svg>
