<svg width="44" height="32" viewBox="0 0 44 32" fill="none" xmlns="http://www.w3.org/2000/svg">
<path d="M13.6139 0.611084H6.21387C2.61387 0.611084 0.213867 2.96188 0.213867 6.53914V17.1687C0.513867 18.4974 1.91392 19.5195 3.51392 19.5195C5.31392 19.5195 6.61389 18.293 6.61389 16.6577V11.3429H11.1139V16.5555C11.1139 19.5195 7.21389 20.9504 4.61389 20.9504C3.01389 20.9504 1.51394 20.4393 0.41394 19.6217H0.313843C0.313843 19.6217 0.313867 19.6217 0.213867 19.6217C0.213867 19.6217 0.213867 19.6217 0.213867 19.7239V31.4778C0.213867 31.4778 0.213843 31.58 0.313843 31.58H7.91394C10.6139 31.58 13.7139 29.127 13.7139 25.8563L13.6139 0.611084Z" fill="#025899"/>
<path d="M28.5139 0.611084H21.2139C17.6139 0.611084 15.2139 2.96187 15.2139 6.43692V12.4672V12.5694H15.3138C15.9138 12.0583 17.0139 11.4451 18.2139 11.4451H26.1139V12.876C24.2139 12.4672 22.4139 12.2628 21.6139 12.2628C19.6139 12.2628 18.0139 13.8981 18.0139 15.84C18.0139 17.782 19.6139 19.4173 21.6139 19.4173C22.6139 19.4173 24.4139 19.2129 26.1139 18.9063V20.2349H18.2139C17.1139 20.2349 16.0138 19.8261 15.3138 19.1106H15.2139C15.2139 19.1106 15.2139 19.1107 15.2139 19.2129V31.4778C15.2139 31.4778 15.2138 31.58 15.3138 31.58H22.8138C25.5138 31.58 28.6139 29.127 28.6139 25.8563L28.5139 0.611084Z" fill="#025899"/>
<path d="M32.5137 19.315L35.9137 19.4173C36.8137 19.4173 37.6136 18.5996 37.6136 17.7819C37.6136 16.8621 36.8137 16.1466 35.9137 16.1466H32.6136C32.6136 16.1466 32.5137 16.1466 32.5137 16.2488V19.315Z" fill="#025899"/>
<path d="M43.5139 0.611084H36.2139C34.3139 0.611084 32.7139 1.22434 31.7139 2.34862C31.7139 2.34862 30.2139 3.77952 30.2139 6.2325C30.2139 6.3347 30.2139 6.43693 30.2139 6.53914V8.6855V11.2407C30.2139 11.2407 30.2138 11.3429 30.3138 11.3429H39.1139C40.3139 11.3429 41.3138 12.365 41.3138 13.5914C41.3138 14.8179 40.3139 15.84 39.1139 15.84C39.1139 15.84 39.0139 15.84 39.0139 15.9422C39.0139 16.0444 39.0139 16.0444 39.1139 16.0444C40.5139 16.0444 41.5139 16.9643 41.5139 18.1908C41.5139 19.4173 40.5139 20.3372 39.1139 20.3372H30.3138C30.3138 20.3372 30.2139 20.3372 30.2139 20.4394V31.6822C30.2139 31.6822 30.2138 31.7844 30.3138 31.7844H37.8138C40.5138 31.7844 43.6139 29.3314 43.6139 26.0608L43.5139 0.611084C43.6139 0.611084 43.6139 0.611084 43.5139 0.611084Z" fill="#025899"/>
<path d="M32.6136 15.4311H35.9137C36.8137 15.4311 37.5137 14.7157 37.5137 13.7958C37.5137 12.876 36.7136 12.1605 35.8136 12.1605H32.6136C32.6136 12.1605 32.5137 12.1605 32.5137 12.2627L32.6136 15.4311C32.5136 15.4311 32.5136 15.4311 32.6136 15.4311Z" fill="#025899"/>
</svg>
