<svg width="18" height="17" viewBox="0 0 18 17" fill="none" xmlns="http://www.w3.org/2000/svg">
<path fill-rule="evenodd" clip-rule="evenodd" d="M2.84211 1.88889C2.3189 1.88889 1.89474 2.31174 1.89474 2.83333V14.1667C1.89474 14.6883 2.3189 15.1111 2.84211 15.1111H14.2105C14.7338 15.1111 15.1579 14.6883 15.1579 14.1667V8.5C15.1579 7.97838 15.5821 7.55556 16.1053 7.55556C16.6285 7.55556 17.0527 7.97838 17.0527 8.5V14.1667C17.0527 15.7315 15.7802 17 14.2105 17H2.84211C1.27246 17 0 15.7315 0 14.1667V2.83333C0 1.26853 1.27246 0 2.84211 0H12.3158C12.839 0 13.2632 0.422847 13.2632 0.944444C13.2632 1.46604 12.839 1.88889 12.3158 1.88889H2.84211ZM16.3828 1.22106C16.7527 0.852238 17.3526 0.852238 17.7225 1.22106C18.0925 1.5899 18.0925 2.18788 17.7225 2.55671L9.19621 11.0567C8.82626 11.4255 8.22639 11.4255 7.85644 11.0567L5.01432 8.22337C4.64436 7.85457 4.64436 7.25654 5.01432 6.88774C5.3843 6.5189 5.98414 6.5189 6.35411 6.88774L8.52633 9.05326L16.3828 1.22106Z" fill="#025899"/>
</svg>
