<svg width="35" height="36" viewBox="0 0 35 36" fill="none" xmlns="http://www.w3.org/2000/svg">
<path d="M17.114 35.2037C26.3372 35.2037 33.814 27.5618 33.814 18.1351C33.814 8.7083 26.3372 1.06641 17.114 1.06641C7.89086 1.06641 0.414062 8.7083 0.414062 18.1351C0.414062 27.5618 7.89086 35.2037 17.114 35.2037Z" fill="#0D6799" stroke="#0D6799" stroke-width="0.5" stroke-miterlimit="10"/>
<path d="M23.1139 22.1215H22.0139V21.5083C22.0139 21.2017 22.2139 20.9972 22.5139 20.9972H22.6139C22.9139 20.9972 23.1139 21.2017 23.1139 21.5083V22.1215ZM19.0139 20.6906C18.7139 20.6906 18.5139 20.895 18.5139 21.0994V24.1657C18.5139 24.3701 18.7139 24.5745 19.0139 24.5745C19.3139 24.5745 19.5139 24.3701 19.5139 24.1657V21.0994C19.5139 20.895 19.3139 20.6906 19.0139 20.6906ZM25.6139 18.9531V24.8811C25.6139 26.312 24.4139 27.4363 22.9139 27.4363H11.9139C10.4139 27.4363 9.21387 26.312 9.21387 24.8811V18.9531C9.21387 17.5222 10.4139 16.3979 11.9139 16.3979H22.9139C24.4139 16.3979 25.6139 17.6244 25.6139 18.9531ZM12.7139 25.5966V19.3619H14.1139V18.4421H10.5139V19.3619H11.6139V25.5966H12.7139ZM16.7139 20.2818H15.6139V23.6546C15.6139 24.1657 15.6139 24.3701 15.6139 24.4723C15.5139 24.7789 15.1139 24.9833 14.9139 24.4723C14.9139 24.3701 14.9139 24.1657 14.9139 23.6546V20.2818H13.8138V23.5524C13.8138 24.0635 13.8138 24.4723 13.8138 24.5745C13.8138 24.8811 13.8139 25.1878 14.1139 25.3922C14.6139 25.801 15.6138 25.29 15.8138 24.7789V25.4944H16.7139V20.2818ZM20.4139 24.0635V21.3039C20.4139 20.2818 19.6139 19.5663 18.6139 20.4862V18.4421H17.5139V25.5966H18.4139L18.5139 25.1877C19.6139 26.2098 20.4139 25.3922 20.4139 24.0635ZM24.0139 23.6546H23.1139V23.7568V24.2679C23.1139 24.5745 22.9139 24.7789 22.6139 24.7789H22.4139C22.1139 24.7789 21.9139 24.5745 21.9139 24.2679V23.7568V23.0414H23.9139V22.3259C23.9139 21.8149 23.9138 21.2017 23.8138 20.895C23.7138 19.873 22.3139 19.7708 21.6139 20.2818C21.4139 20.4862 21.2139 20.6906 21.1139 20.895C21.0139 21.2017 21.0139 21.6105 21.0139 22.0193V23.6546C21.1139 26.4142 24.3139 26.1076 24.0139 23.6546ZM19.6139 14.7626C19.7139 14.8648 19.7139 15.0692 19.9139 15.0692C20.0139 15.1714 20.2139 15.1714 20.4139 15.1714C20.6139 15.1714 20.7138 15.1714 20.8138 15.0692C20.9138 14.967 21.0139 14.8648 21.1139 14.6604V15.0692H22.4139V9.55001H21.4139V13.8427C21.4139 14.0471 21.2139 14.2515 21.0139 14.2515C20.8139 14.2515 20.6139 14.0471 20.6139 13.8427V9.55001H19.6139V13.2295C19.6139 13.7405 19.6139 14.0471 19.6139 14.1493C19.5139 14.456 19.5139 14.5582 19.6139 14.7626ZM15.7139 11.5942C15.7139 11.0831 15.7138 10.6743 15.8138 10.3677C15.9138 10.061 16.0138 9.85662 16.3138 9.65221C16.5138 9.44779 16.8139 9.34558 17.2139 9.34558C17.5139 9.34558 17.7139 9.4478 18.0139 9.55001C18.2139 9.65222 18.4139 9.85663 18.5139 9.95883C18.6139 10.1632 18.7139 10.3677 18.7139 10.5721C18.7139 10.7765 18.8138 11.0831 18.8138 11.4919V12.9228C18.8138 13.4339 18.8139 13.8427 18.7139 14.0471C18.7139 14.2515 18.6139 14.5582 18.5139 14.7626C18.4139 14.967 18.2139 15.1714 18.0139 15.1714C17.8139 15.2736 17.6138 15.2736 17.3138 15.2736C17.0138 15.2736 16.8139 15.2736 16.6139 15.1714C16.4139 15.0692 16.2139 14.967 16.1139 14.7626C16.0139 14.5582 15.9139 14.3538 15.9139 14.1493C15.9139 13.9449 15.8138 13.5361 15.8138 13.0251L15.7139 11.5942ZM16.7139 13.8427C16.7139 14.1493 16.9139 14.456 17.2139 14.456C17.5139 14.456 17.7139 14.2516 17.7139 13.8427V10.8787C17.7139 10.5721 17.5139 10.2655 17.2139 10.2655C16.9139 10.2655 16.7139 10.4699 16.7139 10.8787V13.8427ZM13.2139 15.2736H14.4139V11.0831L15.8138 7.50586H14.5139L13.7139 10.1632L12.9139 7.50586H11.6139L13.1139 11.1853L13.2139 15.2736Z" fill="white"/>
</svg>
