<svg width="24" height="24" viewBox="0 0 24 24" fill="none" xmlns="http://www.w3.org/2000/svg">
<path d="M15.5024 2.74588C12.0131 -0.915293 6.334 -0.915293 2.84469 2.74588C-0.643868 6.40784 -0.643868 12.3659 2.84469 16.0278C5.95202 19.2874 10.7915 19.6366 14.2786 17.0914C14.3519 17.4556 14.5199 17.8033 14.7899 18.0866L19.8715 23.4184C20.612 24.1939 21.8086 24.1939 22.5454 23.4184C23.2851 22.6422 23.2851 21.3867 22.5454 20.6128L17.4638 15.2794C17.1953 14.9985 16.8632 14.8215 16.516 14.7445C18.9433 11.0849 18.6105 6.00784 15.5024 2.74588ZM13.8981 14.3445C11.293 17.0779 7.05335 17.0779 4.44903 14.3445C1.84547 11.6111 1.84547 7.16341 4.44903 4.43003C7.05335 1.69745 11.293 1.69745 13.8981 4.43003C16.5032 7.16341 16.5032 11.6111 13.8981 14.3445Z" fill="white"/>
</svg>
