<svg width="44" height="44" viewBox="0 0 44 44" fill="none" xmlns="http://www.w3.org/2000/svg">
<g clip-path="url(#clip0_21_165)">
<path d="M22.0001 0.960873C33.6197 0.960873 43.0392 10.3804 43.0392 22C43.0392 33.6196 33.6197 43.0391 22.0001 43.0391C10.3805 43.0391 0.960938 33.6196 0.960938 22C0.960938 10.3804 10.3805 0.960873 22.0001 0.960873Z" fill="white"/>
<path d="M33.6105 22.7707L15.6842 33.1201C15.2639 33.3603 14.7134 33.2202 14.4731 32.7998C14.3931 32.6697 14.353 32.5096 14.353 32.3594V11.6606C14.353 11.1702 14.7534 10.7698 15.2438 10.7698C15.404 10.7698 15.5541 10.8098 15.6842 10.8899L33.6105 21.2393C34.0309 21.4795 34.1811 22.03 33.9308 22.4504C33.8508 22.5805 33.7407 22.6906 33.6105 22.7707Z" fill="#025899"/>
</g>
<defs>
<clipPath id="clip0_21_165">
<rect width="44" height="44" fill="white" transform="matrix(1 0 0 -1 0 44)"/>
</clipPath>
</defs>
</svg>
