<svg width="18" height="19" viewBox="0 0 18 19" fill="none" xmlns="http://www.w3.org/2000/svg">
<path d="M12.0206 2.0649C9.27458 -0.6883 4.80516 -0.6883 2.0591 2.0649C-0.686366 4.8187 -0.686366 9.29914 2.0591 12.0529C4.50454 14.5041 8.31319 14.7667 11.0575 12.8527C11.1152 13.1266 11.2474 13.3881 11.4599 13.6011L15.459 17.6107C16.0418 18.1938 16.9835 18.1938 17.5634 17.6107C18.1455 17.027 18.1455 16.0828 17.5634 15.5009L13.5642 11.4901C13.3529 11.2788 13.0916 11.1457 12.8183 11.0879C14.7286 8.33585 14.4667 4.51789 12.0206 2.0649ZM10.758 10.7871C8.70786 12.8426 5.37128 12.8426 3.3217 10.7871C1.27272 8.73155 1.27272 5.38689 3.3217 3.33139C5.37128 1.27648 8.70786 1.27648 10.758 3.33139C12.8082 5.38689 12.8082 8.73155 10.758 10.7871Z" fill="#025899"/>
</svg>
