<svg width="36" height="36" viewBox="0 0 36 36" fill="none" xmlns="http://www.w3.org/2000/svg">
<path d="M17.5654 34.6479C16.1672 34.8212 14.5068 34.3011 12.8464 33.9544C12.4094 33.8677 11.9725 33.6943 11.5355 33.521C11.0112 33.3476 10.5742 33.3476 10.1373 33.6076C8.73903 34.3011 7.42817 34.9946 6.02993 35.6881C5.85514 35.7748 5.59298 35.8615 5.4182 35.9482C5.24342 36.0348 5.24341 36.0349 5.24341 35.7748C5.24341 35.2547 5.33081 34.7345 5.4182 34.2144C5.50559 32.8274 5.68036 31.5272 5.68036 30.1402C5.68036 29.9668 5.59298 29.7934 5.50559 29.7068C3.583 27.8864 2.09737 25.8059 1.13608 23.292C0.349564 21.2982 0 19.3044 0 17.1373C0 15.6636 0.262175 14.1899 0.611735 12.8029C1.04869 11.0692 1.8352 9.42218 2.79649 7.94852C4.4569 5.5213 6.64166 3.52751 9.17597 2.14053C11.0986 1.1003 13.1959 0.406818 15.4681 0.146759C19.1385 -0.286672 22.6341 0.23344 26.0423 1.79379C27.9649 2.66065 29.6253 3.96096 31.1109 5.43462C32.1596 6.47486 32.9461 7.68844 33.7326 8.98874C34.9561 11.0692 35.6552 13.3231 35.9174 15.6636C36.1796 18.4375 35.83 21.1248 34.6939 23.6387C33.9948 25.1124 33.2957 26.586 32.247 27.7997C31.2857 29.0133 30.1496 30.0535 28.9262 30.9204C26.4792 32.7408 23.6827 33.781 20.7989 34.3011C19.6628 34.6479 18.7889 34.6479 17.5654 34.6479ZM9.17597 22.4251C9.17597 22.5118 9.17597 22.5118 9.17597 22.4251C9.87509 22.4251 10.5742 22.4251 11.2733 22.4251C11.6229 22.4251 11.9725 22.4251 12.322 22.4251C12.9338 22.3384 13.2833 21.9917 13.2833 21.4716C13.2833 20.7781 13.0211 20.3446 12.4094 20.2579C12.1472 20.1713 11.9725 20.1713 11.7103 20.1713C10.6616 20.1713 9.61292 20.1713 8.56424 20.1713C8.38946 20.1713 8.21469 20.258 8.21469 20.0846C8.1273 19.9979 8.30207 19.8245 8.38946 19.7378C9.0012 18.871 9.70032 18.0908 10.312 17.2239C11.0986 16.1837 11.9725 15.1435 12.6716 14.0166C12.8464 13.7565 12.9338 13.4964 13.0211 13.2364C13.1959 12.5429 12.8464 12.0228 12.1472 11.9361C11.8851 11.8494 11.6229 11.8494 11.2733 11.8494C9.78771 11.8494 8.30207 11.8494 6.81644 11.8494C6.46688 11.8494 6.20471 11.8494 5.85515 11.9361C5.33081 11.9361 4.98125 12.3695 4.89386 12.8896C4.80647 13.4964 5.06863 13.8432 5.59297 14.0166C5.85514 14.1032 6.11732 14.1032 6.46688 14.1032C7.42818 14.1032 8.38946 14.1032 9.35075 14.1032C9.61292 14.1032 9.61293 14.1032 9.52554 14.3633C9.43815 14.45 9.35076 14.6233 9.26337 14.71C7.86512 16.5304 6.46688 18.4375 5.06863 20.2579C4.89385 20.518 4.80646 20.7781 4.71907 21.1248C4.63168 21.6449 4.80647 22.0784 5.33081 22.3384C5.59298 22.5118 5.85514 22.5118 6.11731 22.5118C7.25339 22.4251 8.21468 22.4251 9.17597 22.4251ZM20.4493 18.6109C20.4493 17.744 20.4493 16.8772 20.4493 16.0103C20.4493 15.5769 20.2745 15.3168 19.925 15.0568C19.488 14.7967 18.9637 14.8834 18.5267 15.2302C18.4393 15.3168 18.3519 15.4902 18.1772 15.3168C17.5654 14.7967 16.8663 14.71 16.0798 14.7967C15.3807 14.7967 14.8563 15.0568 14.332 15.5769C12.5842 17.2239 12.5842 20.258 14.5068 21.8183C15.3807 22.5118 16.8663 22.6852 17.7402 22.0784C18.1772 21.8183 18.3519 21.8183 18.7889 22.0784C19.488 22.5985 20.3619 22.1651 20.4493 21.2982C20.4493 21.1248 20.4493 20.9514 20.4493 20.6914C20.4493 20.0846 20.4493 19.3044 20.4493 18.6109ZM31.1109 18.6109C31.0235 17.1372 30.4992 15.837 29.1009 15.2302C27.091 14.2766 24.7314 15.2301 23.9449 17.3106C23.7701 17.9174 23.6827 18.6109 23.7701 19.3044C23.9449 20.7781 24.9062 21.9917 26.2171 22.4251C26.654 22.5985 27.1784 22.5985 27.6153 22.5985C29.0136 22.5985 29.9748 21.905 30.5866 20.6914C30.9361 19.9979 31.1109 19.3044 31.1109 18.6109ZM20.9736 16.9639C20.9736 18.3509 20.9736 19.7378 20.9736 21.1248C20.9736 21.3849 20.9736 21.6449 21.1484 21.905C21.4106 22.2517 21.9349 22.4251 22.4593 22.3384C22.8962 22.2517 23.1584 21.905 23.2458 21.3849C23.3332 20.9514 23.2458 20.4313 23.2458 19.9979C23.2458 17.6574 23.2458 15.3168 23.2458 12.8896C23.2458 12.5429 23.071 12.2828 22.8088 12.1094C22.4593 11.8494 22.0223 11.7627 21.5854 11.9361C21.1484 12.1095 20.9736 12.4562 20.9736 12.8896C21.061 14.2766 20.9736 15.6636 20.9736 16.9639Z" fill="white"/>
<path d="M18.264 18.6976C18.264 19.2177 18.0892 19.6512 17.827 19.9979C17.3027 20.6914 15.9918 20.6047 15.5549 19.7379C15.2927 19.1311 15.2053 18.5242 15.4675 17.8308C15.6423 17.3106 15.9918 16.9639 16.6036 16.8772C17.1279 16.7905 17.5649 17.0506 17.9144 17.484C18.1766 17.9174 18.264 18.2642 18.264 18.6976Z" fill="white"/>
<path d="M28.8379 18.6109C28.8379 18.871 28.8379 19.131 28.7505 19.3044C28.6632 19.9112 28.2262 20.258 27.7019 20.3446C27.1775 20.4313 26.6532 20.2579 26.3036 19.8245C25.7793 19.131 25.7793 17.9174 26.391 17.3106C27.0027 16.6171 28.0514 16.7038 28.5758 17.484C28.7505 17.8307 28.8379 18.2642 28.8379 18.6109Z" fill="white"/>
</svg>
