<svg width="26" height="24" viewBox="0 0 26 24" fill="none" xmlns="http://www.w3.org/2000/svg">
<path d="M20.4069 14.8672C19.8778 14.3556 19.2396 14.0821 18.5632 14.0821C17.8923 14.0821 17.2486 14.3505 16.6977 14.8621L14.974 16.4577C14.8322 16.3868 14.6903 16.3209 14.554 16.2551C14.3576 16.1639 14.1721 16.0778 14.0139 15.9866C12.3993 15.0343 10.932 13.7934 9.52466 12.1877C8.84281 11.3873 8.38461 10.7136 8.05187 10.0298C8.49916 9.64993 8.91373 9.25484 9.31738 8.87494C9.47011 8.73311 9.62285 8.58622 9.77558 8.44439C10.9211 7.38068 10.9211 6.00292 9.77558 4.9392L8.28643 3.55638C8.11733 3.39935 7.94278 3.23726 7.77913 3.07517C7.45185 2.76112 7.1082 2.43695 6.75364 2.13303C6.22452 1.64676 5.59177 1.38843 4.92629 1.38843C4.2608 1.38843 3.61714 1.64676 3.07166 2.13303C3.06621 2.13809 3.06621 2.13809 3.06075 2.14316L1.20613 3.88056C0.50792 4.52891 0.109722 5.3191 0.0224456 6.23592C-0.108469 7.71499 0.360642 9.09275 0.720657 9.99437C1.60433 12.2079 2.92439 14.2594 4.89356 16.4577C7.28275 19.1069 10.1574 21.1988 13.4412 22.6728C14.6958 23.2249 16.3704 23.8784 18.2414 23.9898C18.3559 23.9949 18.4759 23.9999 18.585 23.9999C19.8451 23.9999 20.9033 23.5795 21.7324 22.7437C21.7379 22.7336 21.7488 22.7285 21.7543 22.7184C22.0379 22.3993 22.3652 22.1106 22.7088 21.8016C22.9434 21.5939 23.1834 21.3761 23.418 21.1482C23.958 20.6264 24.2416 20.0186 24.2416 19.3956C24.2416 18.7675 23.9525 18.1647 23.4016 17.6582L20.4069 14.8672ZM22.3597 20.201C22.3543 20.201 22.3543 20.206 22.3597 20.201C22.147 20.4137 21.9288 20.6062 21.6943 20.8189C21.3397 21.133 20.9797 21.4622 20.6415 21.832C20.0906 22.379 19.4414 22.6374 18.5905 22.6374C18.5087 22.6374 18.4214 22.6374 18.3396 22.6323C16.7195 22.5361 15.214 21.9485 14.0849 21.447C10.9974 20.0591 8.28643 18.0887 6.03361 15.5915C4.17353 13.5097 2.92984 11.5849 2.10617 9.51824C1.59888 8.25698 1.41341 7.27431 1.49523 6.34736C1.54978 5.75472 1.79525 5.26338 2.24799 4.84296L4.10807 3.1157C4.37535 2.88269 4.659 2.75606 4.9372 2.75606C5.28085 2.75606 5.55904 2.94854 5.73359 3.11063C5.73905 3.1157 5.7445 3.12076 5.74996 3.12583C6.0827 3.41455 6.39908 3.7134 6.73182 4.03252C6.90091 4.1946 7.07547 4.35669 7.25002 4.52385L8.73917 5.90668C9.31738 6.4436 9.31738 6.94 8.73917 7.47692C8.58099 7.62381 8.42825 7.77071 8.27006 7.91254C7.81186 8.34815 7.37548 8.75338 6.90092 9.14847C6.89001 9.1586 6.8791 9.16367 6.87364 9.1738C6.40453 9.60941 6.49181 10.0349 6.58999 10.3236C6.59545 10.3388 6.6009 10.354 6.60636 10.3692C6.99365 11.2404 7.53912 12.061 8.36825 13.0386L8.3737 13.0437C9.87922 14.7659 11.4666 16.1082 13.2175 17.1364C13.4412 17.2681 13.6703 17.3745 13.8885 17.4758C14.0849 17.567 14.2703 17.6531 14.4285 17.7443C14.4503 17.7544 14.4721 17.7696 14.494 17.7797C14.6794 17.8659 14.854 17.9064 15.034 17.9064C15.4867 17.9064 15.7704 17.643 15.8631 17.5569L17.7286 15.8245C17.9141 15.6523 18.2087 15.4446 18.5523 15.4446C18.8905 15.4446 19.1687 15.6422 19.3378 15.8144C19.3433 15.8195 19.3433 15.8195 19.3487 15.8245L22.3543 18.6155C22.9161 19.1322 22.9161 19.664 22.3597 20.201Z" fill="white"/>
<path d="M13.9484 5.70902C15.3776 5.93193 16.6758 6.56012 17.7122 7.52267C18.7486 8.48522 19.4196 9.69094 19.665 11.0183C19.725 11.3526 20.036 11.5856 20.3905 11.5856C20.4342 11.5856 20.4723 11.5806 20.516 11.5755C20.9196 11.5147 21.1869 11.1601 21.1215 10.7852C20.8269 9.17927 20.0087 7.71518 18.7595 6.55505C17.5104 5.39493 15.934 4.63502 14.2048 4.36145C13.8012 4.30066 13.4248 4.5489 13.3539 4.91872C13.2829 5.28854 13.5448 5.64823 13.9484 5.70902Z" fill="white"/>
<path d="M25.7962 10.5868C25.3107 7.94269 23.9688 5.53667 21.9069 3.62198C19.845 1.7073 17.254 0.461237 14.4066 0.0104251C14.0084 -0.0554238 13.632 0.197841 13.5611 0.567608C13.4957 0.942441 13.7629 1.29195 14.1666 1.3578C16.7085 1.75795 19.0268 2.87739 20.8705 4.58439C22.7142 6.29646 23.9143 8.44922 24.3452 10.8096C24.4052 11.144 24.7161 11.377 25.0707 11.377C25.1143 11.377 25.1525 11.3719 25.1962 11.3668C25.5944 11.3111 25.8671 10.9565 25.7962 10.5868Z" fill="white"/>
</svg>
