<svg width="34" height="34" viewBox="0 0 34 34" fill="none" xmlns="http://www.w3.org/2000/svg">
<path d="M2.91348 3.03058C0.413484 5.68798 0.913484 8.54979 0.913484 17.1352C0.913484 24.2897 -0.286565 31.4443 6.11344 33.1818C8.11344 33.6928 25.8134 33.6928 27.8134 33.1818C30.5134 32.4663 32.6135 30.32 32.9135 26.4361C32.9135 25.9251 32.9135 8.44758 32.9135 7.93654C32.6135 3.84824 30.1135 1.49747 26.9135 0.986431C26.2135 0.884223 26.0134 0.884233 22.2134 0.884233C8.61341 0.884233 5.61348 0.270978 2.91348 3.03058Z" fill="#0D6799" stroke="#0D6799" stroke-width="0.5" stroke-miterlimit="10"/>
<path d="M16.9144 5.07499C12.1144 5.07499 7.51429 4.66616 5.71429 9.2655C5.01429 11.2074 5.11432 13.6604 5.11432 17.1355C5.11432 20.2017 5.01429 23.1657 5.71429 25.0055C7.51429 29.6048 12.1144 29.196 16.9144 29.196C21.5144 29.196 26.3143 29.707 28.1143 25.0055C28.8143 23.0635 28.7143 20.6105 28.7143 17.1355C28.7143 12.4339 29.0143 9.3677 26.7143 7.11914C24.5143 4.87057 21.4144 5.07499 16.9144 5.07499ZM15.9144 7.32355C26.0144 7.32355 27.3143 6.19927 26.6143 22.1436C26.3143 27.7651 22.1143 27.1518 17.0143 27.1518C7.61434 27.1518 7.31427 26.8452 7.31427 17.2377C7.21427 7.42577 8.01436 7.32355 15.9144 7.32355ZM23.2143 9.2655C22.4143 9.2655 21.8143 9.87874 21.8143 10.6964C21.8143 11.5141 22.4143 12.1273 23.2143 12.1273C24.0143 12.1273 24.6143 11.5141 24.6143 10.6964C24.6143 9.87874 24.0143 9.2655 23.2143 9.2655ZM16.9144 11.003C13.6144 11.003 10.8143 13.7626 10.8143 17.2377C10.8143 20.6105 13.5144 23.4723 16.9144 23.4723C20.3144 23.4723 23.0143 20.7127 23.0143 17.2377C23.0143 13.7626 20.3144 11.003 16.9144 11.003ZM16.9144 13.1494C22.1144 13.1494 22.1144 21.2238 16.9144 21.2238C11.7144 21.2238 11.7144 13.1494 16.9144 13.1494Z" fill="white"/>
</svg>
