<svg width="15" height="16" viewBox="0 0 15 16" fill="none" xmlns="http://www.w3.org/2000/svg">
<path d="M0.875 7.90942C0.875 9.7808 1.58702 11.549 2.90891 12.901C4.13385 14.2562 5.86759 14.9845 7.70007 14.9845C9.53256 14.9845 11.2662 14.2562 12.4911 12.901C13.813 11.549 14.525 9.7808 14.525 7.90942C14.525 6.0399 13.8142 4.27002 12.4894 3.01818C11.2646 1.66415 9.53173 0.936523 7.70007 0.936523C5.96561 0.936523 4.23455 1.66605 2.9124 3.01647C1.58649 4.26841 0.875 6.03905 0.875 7.90942ZM3.3894 3.49972C4.56536 2.29779 6.03295 1.69756 7.70007 1.69756C9.36185 1.69756 10.8318 2.39604 12.0127 3.50166C13.1875 4.70339 13.775 6.20395 13.775 7.90942C13.775 9.61582 13.1868 11.1171 12.0107 12.3191C10.8348 13.5211 9.3672 14.1213 7.70007 14.1213C6.03295 14.1213 4.56536 13.5211 3.3894 12.3191C2.21401 11.1178 1.625 9.51466 1.625 7.90942C1.625 6.20304 2.2133 4.70177 3.3894 3.49972Z" fill="#025899" stroke="#025899" stroke-width="0.25"/>
<path d="M6.68945 4.04027L6.65268 4.00269H6.6001H6.60009H6.60009H6.60008H6.60002H6.59981H6.59965H6.59945H6.59895H6.5956H6.5829H6.53756H6.40002H6.34744L6.31067 4.04027L5.51075 4.85793L5.42371 4.9469L5.5123 5.03432L8.375 7.85942V7.85972V7.86012V7.86051V7.86091V7.86131V7.8617V7.8621V7.86249V7.86288V7.86327V7.86366V7.86404V7.86443V7.86481V7.8652V7.86558V7.86596V7.86634V7.86672V7.8671V7.86747V7.86785V7.86822V7.86859V7.86896V7.86934V7.8697V7.87007V7.87044V7.8708V7.87117V7.87153V7.8719V7.87226V7.87262V7.87298V7.87334V7.87369V7.87405V7.8744V7.87476V7.87511V7.87546V7.87581V7.87616V7.87651V7.87686V7.87721V7.87756V7.8779V7.87825V7.87859V7.87893V7.87928V7.87962V7.87996V7.8803V7.88063V7.88097V7.88131V7.88165V7.88198V7.88231V7.88265V7.88298V7.88331V7.88364V7.88398V7.88431V7.88463V7.88496V7.88529V7.88562V7.88594V7.88627V7.88659V7.88692V7.88724V7.88756V7.88789V7.88821V7.88853V7.88885V7.88917V7.88949V7.88981V7.89012V7.89044V7.89076V7.89107V7.89139V7.8917V7.89202V7.89233V7.89265V7.89296V7.89327V7.89358V7.8939V7.89421V7.89452V7.89483V7.89514V7.89545V7.89575V7.89606V7.89637V7.89668V7.89699V7.89729V7.8976V7.89791V7.89821V7.89852V7.89882V7.89913V7.89943V7.89974V7.90004V7.90034V7.90065V7.90095V7.90125V7.90156V7.90186V7.90216V7.90246V7.90276V7.90307V7.90337V7.90367V7.90397V7.90427V7.90457V7.90487V7.90517V7.90547V7.90577V7.90607V7.90637V7.90667V7.90697V7.90727V7.90757V7.90787V7.90817V7.90847V7.90877V7.90907V7.90937V7.90967V7.90997V7.91027V7.91057V7.91087V7.91116V7.91146V7.91176V7.91206V7.91236V7.91266V7.91296V7.91326V7.91356V7.91386V7.91417V7.91447V7.91477V7.91507V7.91537V7.91567V7.91597V7.91627V7.91658V7.91688V7.91718V7.91748V7.91779V7.91809V7.91839V7.9187V7.919V7.9193V7.91961V7.91991V7.92022V7.92052V7.92083V7.92114V7.92144V7.92175V7.92206V7.92236V7.92267V7.92298V7.92329V7.9236V7.92391V7.92422V7.92453V7.92484V7.92515V7.92546V7.92578V7.92609V7.9264V7.92672V7.92703V7.92735V7.92766V7.92798V7.9283V7.92861V7.92893V7.92925V7.92957V7.92989V7.93021V7.93053V7.93085V7.93117V7.9315V7.93182V7.93214V7.93247V7.93279V7.93312V7.93345V7.93377V7.9341V7.93443V7.93476V7.93509V7.93542V7.93575V7.93609V7.93642V7.93676V7.93709V7.93743V7.93776V7.9381V7.93844V7.93878V7.93912V7.93946V7.9398V7.94015V7.94049V7.94083V7.94118V7.94153V7.94187V7.94222V7.94257V7.94292V7.94327V7.94362V7.94398V7.94433V7.94469V7.94504V7.9454V7.94576V7.94612V7.94648V7.94684V7.9472V7.94757V7.94793V7.9483V7.94866V7.94903V7.9494V7.94977V7.95014V7.95052V7.95089V7.95126V7.95164V7.95202V7.9524V7.95277V7.95316V7.95354V7.95392V7.95431V7.95469V7.95508V7.95547V7.95586V7.95625V7.95664V7.95703V7.95743V7.95782V7.95822V7.95862V7.95902V7.95931L5.5123 10.7844L5.42371 10.8718L5.51075 10.9608L6.31067 11.7784L6.34744 11.816H6.40002H6.40061H6.4012H6.40178H6.40237H6.40295H6.40354H6.40413H6.40471H6.4053H6.40588H6.40647H6.40705H6.40764H6.40823H6.40881H6.4094H6.40998H6.41057H6.41115H6.41174H6.41232H6.41291H6.41349H6.41408H6.41466H6.41525H6.41583H6.41641H6.417H6.41758H6.41817H6.41875H6.41933H6.41992H6.4205H6.42108H6.42167H6.42225H6.42283H6.42342H6.424H6.42458H6.42516H6.42574H6.42633H6.42691H6.42749H6.42807H6.42865H6.42923H6.42981H6.43039H6.43097H6.43155H6.43213H6.43271H6.43329H6.43387H6.43444H6.43502H6.4356H6.43618H6.43676H6.43733H6.43791H6.43849H6.43906H6.43964H6.44021H6.44079H6.44136H6.44194H6.44251H6.44309H6.44366H6.44423H6.44481H6.44538H6.44595H6.44652H6.44709H6.44767H6.44824H6.44881H6.44938H6.44995H6.45052H6.45108H6.45165H6.45222H6.45279H6.45336H6.45392H6.45449H6.45506H6.45562H6.45619H6.45675H6.45732H6.45788H6.45844H6.45901H6.45957H6.46013H6.46069H6.46125H6.46182H6.46238H6.46294H6.46349H6.46405H6.46461H6.46517H6.46573H6.46628H6.46684H6.4674H6.46795H6.46851H6.46906H6.46961H6.47017H6.47072H6.47127H6.47182H6.47237H6.47292H6.47347H6.47402H6.47457H6.47512H6.47567H6.47621H6.47676H6.47731H6.47785H6.47839H6.47894H6.47948H6.48002H6.48057H6.48111H6.48165H6.48219H6.48273H6.48327H6.48381H6.48434H6.48488H6.48542H6.48595H6.48649H6.48702H6.48755H6.48809H6.48862H6.48915H6.48968H6.49021H6.49074H6.49127H6.4918H6.49232H6.49285H6.49338H6.4939H6.49442H6.49495H6.49547H6.49599H6.49651H6.49703H6.49755H6.49807H6.49859H6.49911H6.49962H6.50014H6.50065H6.50117H6.50168H6.50219H6.50271H6.50322H6.50373H6.50424H6.50474H6.50525H6.50576H6.50626H6.50677H6.50727H6.50778H6.50828H6.50878H6.50928H6.50978H6.51028H6.51078H6.51128H6.51177H6.51227H6.51276H6.51326H6.51375H6.51424H6.51473H6.51522H6.51571H6.5162H6.51669H6.51717H6.51766H6.51814H6.51862H6.51911H6.51959H6.52007H6.52055H6.52103H6.5215H6.52198H6.52246H6.52293H6.5234H6.52388H6.52435H6.52482H6.52529H6.52576H6.52622H6.52669H6.52716H6.52762H6.52808H6.52854H6.52901H6.52947H6.52992H6.53038H6.53084H6.5313H6.53175H6.5322H6.53266H6.53311H6.53356H6.53401H6.53446H6.5349H6.53535H6.53579H6.53624H6.53668H6.53712H6.53756H6.538H6.53844H6.53887H6.53931H6.53974H6.54018H6.54061H6.54104H6.54147H6.5419H6.54233H6.54275H6.54318H6.5436H6.54402H6.54445H6.54487H6.54529H6.5457H6.54612H6.54653H6.54695H6.54736H6.54777H6.54818H6.54859H6.549H6.54941H6.54981H6.55022H6.55062H6.55102H6.55142H6.55182H6.55222H6.55261H6.55301H6.5534H6.55379H6.55418H6.55457H6.55496H6.55535H6.55574H6.55612H6.5565H6.55688H6.55726H6.55764H6.55802H6.5584H6.55877H6.55915H6.55952H6.55989H6.56026H6.56062H6.56099H6.56136H6.56172H6.56208H6.56244H6.5628H6.56316H6.56352H6.56387H6.56423H6.56458H6.56493H6.56528H6.56563H6.56597H6.56632H6.56666H6.567H6.56734H6.56768H6.56802H6.56836H6.56869H6.56902H6.56935H6.56968H6.57001H6.57034H6.57067H6.57099H6.57131H6.57163H6.57195H6.57227H6.57259H6.5729H6.57321H6.57353H6.57384H6.57414H6.57445H6.57476H6.57506H6.57536H6.57566H6.57596H6.57626H6.57655H6.57685H6.57714H6.57743H6.57772H6.57801H6.57829H6.57858H6.57886H6.57914H6.57942H6.5797H6.57997H6.58025H6.58052H6.58079H6.58106H6.58133H6.58159H6.58186H6.58212H6.58238H6.58264H6.5829H6.58315H6.58341H6.58366H6.58391H6.58416H6.58441H6.58465H6.5849H6.58514H6.58538H6.58562H6.58585H6.58609H6.58632H6.58655H6.58678H6.58701H6.58723H6.58746H6.58768H6.5879H6.58812H6.58834H6.58855H6.58876H6.58897H6.58918H6.58939H6.5896H6.5898H6.59H6.5902H6.5904H6.5906H6.59079H6.59099H6.59118H6.59137H6.59155H6.59174H6.59192H6.5921H6.59228H6.59246H6.59263H6.59281H6.59298H6.59315H6.59332H6.59348H6.59365H6.59381H6.59397H6.59413H6.59428H6.59444H6.59459H6.59474H6.59489H6.59504H6.59518H6.59532H6.59546H6.5956H6.59574H6.59587H6.59601H6.59614H6.59626H6.59639H6.59651H6.59664H6.59676H6.59688H6.59699H6.59711H6.59722H6.59733H6.59744H6.59754H6.59765H6.59775H6.59785H6.59794H6.59804H6.59813H6.59822H6.59831H6.5984H6.59848H6.59857H6.59865H6.59873H6.5988H6.59888H6.59895H6.59902H6.59909H6.59915H6.59922H6.59928H6.59934H6.59939H6.59945H6.5995H6.59955H6.5996H6.59965H6.59969H6.59973H6.59977H6.59981H6.59984H6.59988H6.59991H6.59993H6.59996H6.59998H6.60001H6.60002H6.60004H6.60006H6.60007H6.60008H6.60009H6.6001H6.65268L6.68945 11.7785L10.2894 8.09899L10.3251 8.06255V8.01157V8.01097V8.01038V8.00978V8.00918V8.00858V8.00798V8.00738V8.00678V8.00618V8.00559V8.00499V8.00439V8.00379V8.00319V8.00259V8.002V8.0014V8.0008V8.0002V7.9996V7.999V7.99841V7.99781V7.99721V7.99661V7.99602V7.99542V7.99482V7.99423V7.99363V7.99303V7.99243V7.99184V7.99124V7.99065V7.99005V7.98945V7.98886V7.98826V7.98767V7.98707V7.98648V7.98588V7.98529V7.98469V7.9841V7.98351V7.98291V7.98232V7.98173V7.98113V7.98054V7.97995V7.97935V7.97876V7.97817V7.97758V7.97699V7.9764V7.97581V7.97522V7.97463V7.97404V7.97345V7.97286V7.97227V7.97168V7.97109V7.9705V7.96991V7.96933V7.96874V7.96815V7.96757V7.96698V7.96639V7.96581V7.96522V7.96464V7.96405V7.96347V7.96289V7.9623V7.96172V7.96114V7.96056V7.95997V7.95939V7.95881V7.95823V7.95765V7.95707V7.95649V7.95591V7.95533V7.95476V7.95418V7.9536V7.95302V7.95245V7.95187V7.9513V7.95072V7.95015V7.94957V7.949V7.94843V7.94786V7.94728V7.94671V7.94614V7.94557V7.945V7.94443V7.94386V7.94329V7.94273V7.94216V7.94159V7.94103V7.94046V7.93989V7.93933V7.93877V7.9382V7.93764V7.93708V7.93652V7.93595V7.93539V7.93483V7.93427V7.93372V7.93316V7.9326V7.93204V7.93149V7.93093V7.93038V7.92982V7.92927V7.92871V7.92816V7.92761V7.92706V7.92651V7.92596V7.92541V7.92486V7.92431V7.92377V7.92322V7.92267V7.92213V7.92159V7.92104V7.9205V7.91996V7.91941V7.91887V7.91833V7.91779V7.91726V7.91672V7.91618V7.91565V7.91511V7.91457V7.91404V7.91351V7.91298V7.91244V7.91191V7.91138V7.91085V7.91032V7.9098V7.90927V7.90874V7.90822V7.90769V7.90717V7.90665V7.90613V7.90561V7.90508V7.90457V7.90405V7.90353V7.90301V7.9025V7.90198V7.90147V7.90095V7.90044V7.89993V7.89942V7.89891V7.8984V7.89789V7.89739V7.89688V7.89637V7.89587V7.89537V7.89486V7.89436V7.89386V7.89336V7.89286V7.89237V7.89187V7.89137V7.89088V7.89039V7.88989V7.8894V7.88891V7.88842V7.88793V7.88744V7.88696V7.88647V7.88599V7.8855V7.88502V7.88454V7.88406V7.88358V7.8831V7.88262V7.88215V7.88167V7.8812V7.88072V7.88025V7.87978V7.87931V7.87884V7.87837V7.87791V7.87744V7.87698V7.87651V7.87605V7.87559V7.87513V7.87467V7.87421V7.87376V7.8733V7.87285V7.87239V7.87194V7.87149V7.87104V7.87059V7.87014V7.8697V7.86925V7.86881V7.86837V7.86792V7.86748V7.86705V7.86661V7.86617V7.86574V7.8653V7.86487V7.86444V7.86401V7.86358V7.86315V7.86272V7.8623V7.86187V7.86145V7.86103V7.86061V7.86019V7.85977V7.85935V7.85894V7.85853V7.85811V7.8577V7.85729V7.85688V7.85648V7.85607V7.85566V7.85526V7.85486V7.85446V7.85406V7.85366V7.85326V7.85287V7.85247V7.85208V7.85169V7.8513V7.85091V7.85053V7.85014V7.84976V7.84937V7.84899V7.84861V7.84823V7.84786V7.84748V7.84711V7.84673V7.84636V7.84599V7.84562V7.84526V7.84489V7.84453V7.84416V7.8438V7.84344V7.84308V7.84273V7.84237V7.84202V7.84167V7.84131V7.84097V7.84062V7.84027V7.83993V7.83958V7.83924V7.8389V7.83856V7.83823V7.83789V7.83756V7.83722V7.83689V7.83656V7.83624V7.83591V7.83558V7.83526V7.83494V7.83462V7.8343V7.83399V7.83367V7.83336V7.83305V7.83274V7.83243V7.83212V7.83181V7.83151V7.83121V7.83091V7.83061V7.83031V7.83002V7.82972V7.82943V7.82914V7.82885V7.82857V7.82828V7.828V7.82772V7.82744V7.82716V7.82688V7.82661V7.82633V7.82606V7.82579V7.82552V7.82526V7.82499V7.82473V7.82447V7.82421V7.82395V7.82369V7.82344V7.82319V7.82294V7.82269V7.82244V7.8222V7.82195V7.82171V7.82147V7.82123V7.821V7.82076V7.82053V7.8203V7.82007V7.81985V7.81962V7.8194V7.81918V7.81896V7.81874V7.81852V7.81831V7.8181V7.81789V7.81768V7.81747V7.81727V7.81707V7.81686V7.81667V7.81647V7.81627V7.81608V7.81589V7.8157V7.81551V7.81533V7.81515V7.81496V7.81478V7.81461V7.81443V7.81426V7.81409V7.81392V7.81375V7.81358V7.81342V7.81326V7.8131V7.81294V7.81279V7.81263V7.81248V7.81233V7.81218V7.81204V7.81189V7.81175V7.81161V7.81148V7.81134V7.81121V7.81108V7.81095V7.81082V7.8107V7.81057V7.81045V7.81033V7.81022V7.8101V7.80999V7.80988V7.80977V7.80967V7.80956V7.80946V7.80936V7.80926V7.80917V7.80908V7.80898V7.8089V7.80881V7.80872V7.80864V7.80856V7.80848V7.80841V7.80833V7.80826V7.80819V7.80813V7.80806V7.808V7.80794V7.80788V7.80783V7.80777V7.80772V7.80767V7.80762V7.80758V7.80754V7.8075V7.80746V7.80742V7.80739V7.80736V7.80733V7.8073V7.80728V7.80726V7.80724V7.80722V7.8072V7.80719V7.80718V7.80717V7.80717V7.80716V7.75618L10.2894 7.71974L6.68945 4.04027Z" fill="#025899" stroke="#025899" stroke-width="0.25"/>
</svg>
