<svg width="79" height="60" viewBox="0 0 79 60" fill="none" xmlns="http://www.w3.org/2000/svg">
<path d="M38.2333 37.0618C38.2333 39.2765 38.033 41.3617 37.6325 43.3172C37.1848 45.6027 36.4898 47.57 35.5473 49.2193C32.2723 54.7797 27.1831 57.5599 20.2797 57.5599C13.3763 57.5599 8.28713 54.7797 5.01214 49.2193C4.06969 47.57 3.36286 45.6027 2.89164 43.3172C2.51466 41.3617 2.32617 39.2765 2.32617 37.0618V21.4408C2.32617 17.5061 2.99766 14.2193 4.34065 11.5804C7.54495 5.26607 12.858 2.10889 20.2797 2.10889C27.7015 2.10889 33.0027 5.26607 36.1835 11.5804C37.55 14.2193 38.2333 17.5061 38.2333 21.4408V37.0618ZM32.8614 22.6424C32.8614 20.8989 32.6846 19.1436 32.3312 17.3765C31.9071 15.3267 31.3181 13.6892 30.5641 12.464C28.2552 8.78846 24.827 6.95069 20.2797 6.95069C15.7324 6.95069 12.3043 8.78846 9.99531 12.464C9.21779 13.6892 8.62877 15.3267 8.22823 17.3765C7.87481 19.1436 7.6981 20.8989 7.6981 22.6424V36.2843C7.6981 38.2869 7.82769 40.1247 8.08686 41.7975C8.41672 44.0123 8.95862 45.744 9.71258 46.9928C12.0216 50.7861 15.5439 52.6828 20.2797 52.6828C25.0155 52.6828 28.5379 50.7861 30.8469 46.9928C31.6008 45.744 32.1427 44.0123 32.4726 41.7975C32.7318 40.1247 32.8614 38.2869 32.8614 36.2843V22.6424Z" fill="url(#paint0_linear_515_5599)"/>
<path d="M76.9324 40.1012C76.9324 44.9783 75.342 49.0897 72.1613 52.4354C68.9334 55.8517 64.8927 57.5599 60.0391 57.5599C57.8243 57.5599 55.7038 57.1476 53.6776 56.323C50.1434 54.98 47.4457 52.8241 45.5843 49.8554C43.8408 47.0988 42.8984 43.7531 42.757 39.8184H48.1289C48.2467 41.397 48.4117 42.634 48.6237 43.5293C48.9065 44.778 49.3659 45.9325 50.002 46.9928C52.2875 50.7861 55.6332 52.6828 60.0391 52.6828C63.5261 52.6828 66.3417 51.4929 68.4857 49.1133C70.5355 46.8278 71.5604 43.918 71.5604 40.3839C71.5604 37.6979 70.6887 35.2829 68.9452 33.1388C67.2488 31.0183 65.0812 29.6282 62.4423 28.9685C61.5941 28.7565 60.5574 28.6151 59.3322 28.5444L56.2222 28.4384V23.738L58.0246 23.8087C60.8519 23.8087 63.1845 23.1254 65.0222 21.7588C67.0249 20.2509 68.0263 18.1422 68.0263 15.4327C68.0263 12.9823 67.2488 10.9561 65.6937 9.35392C64.1387 7.75177 62.136 6.95069 59.6857 6.95069C57.1882 6.95069 55.1973 7.94026 53.7129 9.91939C52.3464 11.6865 51.6631 13.8541 51.6631 16.4223H46.2912C46.409 12.3462 47.6695 8.97695 50.0727 6.31454C52.5702 3.51077 55.8216 2.10889 59.827 2.10889C63.7146 2.10889 66.9543 3.42831 69.546 6.06715C72.0906 8.70599 73.3629 11.9692 73.3629 15.8568C73.3629 18.0244 72.8799 19.9329 71.9139 21.5821C71.0657 23.0194 69.7227 24.4684 67.8849 25.9292C73.9166 29.1099 76.9324 33.8339 76.9324 40.1012Z" fill="url(#paint1_linear_515_5599)"/>
<path fill-rule="evenodd" clip-rule="evenodd" d="M2.89127 43.3174C2.51429 41.3618 2.3258 39.2766 2.3258 37.0619V21.4409C2.3258 17.5062 2.99729 14.2194 4.34028 11.5806C7.54459 5.26619 12.8576 2.10901 20.2794 2.10901C27.7011 2.10901 33.0023 5.26619 36.1831 11.5806C37.5496 14.2194 38.2329 17.5062 38.2329 21.4409V37.0619C38.2329 39.2766 38.0326 41.3618 37.6321 43.3174C37.1844 45.6028 36.4894 47.5701 35.5469 49.2194C32.272 54.7798 27.1828 57.56 20.2794 57.56C13.376 57.56 8.28676 54.7798 5.01177 49.2194C4.06932 47.5701 3.36249 45.6028 2.89127 43.3174ZM39.6599 43.7234C39.1783 46.1781 38.4173 48.3645 37.3425 50.2454L37.3357 50.2572L37.3288 50.2689C33.6516 56.5122 27.853 59.628 20.2794 59.628C12.7058 59.628 6.90709 56.5122 3.22988 50.2689L3.22299 50.2572L3.21625 50.2454C2.14412 48.3692 1.37148 46.1871 0.865883 43.735L0.863189 43.7219L0.860664 43.7088C0.456233 41.6108 0.257812 39.3936 0.257812 37.0619V21.4409C0.257812 17.2834 0.965774 13.6523 2.49675 10.6436C4.24981 7.18946 6.63161 4.50572 9.67185 2.6991C12.7068 0.895622 16.2716 0.0410156 20.2794 0.0410156C24.287 0.0410156 27.8497 0.895565 30.8798 2.70013C33.9126 4.50637 36.2843 7.18871 38.0247 10.6398C39.581 13.6501 40.3009 17.283 40.3009 21.4409V37.0619C40.3009 39.3977 40.09 41.62 39.6599 43.7234ZM9.99494 12.4641C9.21742 13.6893 8.6284 15.3268 8.22786 17.3766C7.87444 19.1437 7.69773 20.899 7.69773 22.6425V36.2844C7.69773 38.2871 7.82732 40.1248 8.08649 41.7977C8.41635 44.0124 8.95825 45.7441 9.71221 46.9929C12.0212 50.7862 15.5436 52.6829 20.2794 52.6829C25.0151 52.6829 28.5375 50.7862 30.8465 46.9929C31.6005 45.7441 32.1424 44.0124 32.4722 41.7977C32.7314 40.1248 32.861 38.2871 32.861 36.2844V22.6425C32.861 20.899 32.6843 19.1437 32.3309 17.3766C31.9068 15.3268 31.3177 13.6893 30.5638 12.4641C28.2548 8.78858 24.8267 6.95081 20.2794 6.95081C15.7321 6.95081 12.3039 8.78858 9.99494 12.4641ZM28.8074 13.5559C26.8983 10.5221 24.1528 9.0188 20.2794 9.0188C16.4024 9.0188 13.6554 10.5249 11.7461 13.5642L11.741 13.5722C11.1479 14.5068 10.6285 15.8743 10.2575 17.7732L10.2557 17.7822C9.9281 19.4202 9.76572 21.0397 9.76572 22.6425V36.2844C9.76572 38.1997 9.88978 39.9299 10.1301 41.4811L10.132 41.493C10.4405 43.5648 10.9237 44.997 11.4806 45.9208C13.3851 49.0475 16.2086 50.6149 20.2794 50.6149C24.35 50.6149 27.1735 49.0476 29.078 45.921C29.635 44.9972 30.1182 43.5649 30.4268 41.493L30.4286 41.481C30.6689 39.9299 30.793 38.1997 30.793 36.2844V22.6425C30.793 21.0419 30.6311 19.4247 30.3044 17.789C29.9101 15.8857 29.3895 14.5047 28.8074 13.5559ZM46.4567 14.3544C46.883 11.1927 48.0882 8.51277 50.0724 6.31466C52.5698 3.51089 55.8213 2.10901 59.8267 2.10901C63.7142 2.10901 66.9539 3.42843 69.5456 6.06727C72.0902 8.70611 73.3625 11.9693 73.3625 15.8569C73.3625 18.0245 72.8795 19.933 71.9135 21.5823C71.3462 22.5435 70.5576 23.51 69.5476 24.4818C69.0476 24.963 68.4932 25.4455 67.8846 25.9293C68.555 26.2828 69.1882 26.6555 69.7841 27.0472C74.5494 30.1793 76.932 34.5307 76.932 40.1013C76.932 44.9784 75.3416 49.0898 72.1609 52.4355C68.933 55.8519 64.8923 57.56 60.0387 57.56C57.824 57.56 55.7035 57.1477 53.6772 56.3231C50.143 54.9801 47.4453 52.8243 45.584 49.8556C44.1544 47.5952 43.2633 44.9389 42.9109 41.8865C42.8335 41.2163 42.7821 40.527 42.7566 39.8185H48.1286C48.2464 41.3971 48.4113 42.6341 48.6234 43.5294C48.9061 44.7781 49.3655 45.9326 50.0017 46.9929C52.2871 50.7862 55.6328 52.6829 60.0387 52.6829C63.5257 52.6829 66.3413 51.4931 68.4854 49.1134C70.5352 46.828 71.5601 43.9182 71.5601 40.384C71.5601 37.698 70.6883 35.283 68.9448 33.139C67.2484 31.0185 65.0808 29.6284 62.4419 28.9687C61.5937 28.7566 60.557 28.6152 59.3319 28.5446L56.2218 28.4385V23.7381L58.0242 23.8088C58.1132 23.8088 58.2018 23.8081 58.2898 23.8067C60.9979 23.7651 63.242 23.0825 65.0219 21.759C67.0246 20.251 68.0259 18.1423 68.0259 15.4328C68.0259 12.9825 67.2484 10.9562 65.6934 9.35404C64.1383 7.75189 62.1356 6.95081 59.6853 6.95081C57.1878 6.95081 55.1969 7.94038 53.7126 9.91951C52.346 11.6866 51.6627 13.8542 51.6627 16.4224H46.2908C46.3114 15.7115 46.3666 15.0222 46.4567 14.3544ZM63.7829 20.1032C65.2167 19.0216 65.9579 17.5512 65.9579 15.4328C65.9579 13.4629 65.3518 11.9713 64.2094 10.7943C63.0839 9.63468 61.6367 9.0188 59.6853 9.0188C57.8314 9.0188 56.4564 9.70773 55.3669 11.1603L55.3578 11.1725L55.3484 11.1846C54.3029 12.5366 53.7307 14.2404 53.7307 16.4224V18.4904H44.1622L44.2237 16.3626C44.3535 11.8694 45.7583 8.01032 48.5325 4.93426C51.4505 1.6611 55.2781 0.0410156 59.8267 0.0410156C64.2375 0.0410156 68.0188 1.56146 71.021 4.61821L71.0277 4.62498L71.0342 4.6318C73.9746 7.68107 75.4305 11.4696 75.4305 15.8569C75.4305 18.3417 74.8735 20.6204 73.6979 22.6274L73.6945 22.6333C73.0907 23.6564 72.3016 24.6468 71.3499 25.6088C73.4436 27.0547 75.1466 28.761 76.4132 30.745C78.1578 33.4778 79 36.6214 79 40.1013C79 45.4747 77.2287 50.1051 73.6619 53.8581C70.0295 57.7013 65.4391 59.628 60.0387 59.628C57.5683 59.628 55.1903 59.1682 52.9202 58.2477C49.0123 56.7579 45.9497 54.3303 43.834 50.9574C41.8593 47.8337 40.8417 44.116 40.69 39.8928L40.613 37.7505H50.048L50.1908 39.6646C50.3054 41.2 50.4604 42.3125 50.6357 43.0528L50.638 43.0628L50.6403 43.0727C50.8761 44.1144 51.2553 45.0623 51.774 45.9273C53.6876 49.1024 56.3631 50.6149 60.0387 50.6149C62.9968 50.6149 65.2325 49.633 66.9468 47.7316C68.6046 45.8827 69.4921 43.4901 69.4921 40.384C69.4921 38.188 68.7934 36.2306 67.3403 34.4437L67.3351 34.4373L67.33 34.4308C65.9169 32.6646 64.1407 31.525 61.9404 30.9749C61.2611 30.8051 60.3687 30.6769 59.2366 30.6105L54.1538 30.4372V21.5874L58.0635 21.7407C60.5299 21.7345 62.3865 21.1397 63.7829 20.1032Z" fill="url(#paint2_linear_515_5599)"/>
<defs>
<linearGradient id="paint0_linear_515_5599" x1="2.32617" y1="57.5599" x2="76.9324" y2="57.5599" gradientUnits="userSpaceOnUse">
<stop stop-color="#DFAA23"/>
<stop offset="0.479167" stop-color="#FBF08D"/>
<stop offset="1" stop-color="#DFAA23"/>
</linearGradient>
<linearGradient id="paint1_linear_515_5599" x1="2.32617" y1="57.5599" x2="76.9324" y2="57.5599" gradientUnits="userSpaceOnUse">
<stop stop-color="#DFAA23"/>
<stop offset="0.479167" stop-color="#FBF08D"/>
<stop offset="1" stop-color="#DFAA23"/>
</linearGradient>
<linearGradient id="paint2_linear_515_5599" x1="0.257812" y1="59.628" x2="79" y2="59.628" gradientUnits="userSpaceOnUse">
<stop stop-color="#DFAA23"/>
<stop offset="0.479167" stop-color="#FBF08D"/>
<stop offset="1" stop-color="#DFAA23"/>
</linearGradient>
</defs>
</svg>
