<svg width="17" height="17" viewBox="0 0 17 17" fill="none" xmlns="http://www.w3.org/2000/svg">
<path d="M13.6518 9.91136C13.3238 9.57029 12.9281 9.38794 12.5087 9.38794C12.0928 9.38794 11.6937 9.56692 11.3522 9.90798L10.2835 10.9717C10.1956 10.9244 10.1076 10.8805 10.0231 10.8366C9.90135 10.7758 9.78637 10.7184 9.6883 10.6577C8.68728 10.0228 7.77757 9.19546 6.90505 8.12497C6.48233 7.59142 6.19825 7.14229 5.99196 6.68641C6.26927 6.43314 6.52629 6.16974 6.77655 5.91647C6.87124 5.82192 6.96593 5.72399 7.06062 5.62944C7.7708 4.92029 7.7708 4.00177 7.06062 3.29261L6.13738 2.37072C6.03254 2.26603 5.92433 2.15797 5.82287 2.04991C5.61996 1.84054 5.40691 1.62442 5.18709 1.42181C4.85905 1.09762 4.46676 0.9254 4.05418 0.9254C3.64159 0.9254 3.24254 1.09762 2.90436 1.42181C2.90097 1.42518 2.90097 1.42518 2.89759 1.42856L1.74777 2.58684C1.3149 3.01908 1.06802 3.54588 1.01392 4.1571C0.932752 5.14316 1.22359 6.06168 1.44679 6.66277C1.99464 8.13848 2.81305 9.50613 4.03389 10.9717C5.51512 12.7378 7.29735 14.1325 9.33321 15.1152C10.111 15.4833 11.1492 15.9189 12.3092 15.9932C12.3802 15.9966 12.4546 15.9999 12.5223 15.9999C13.3035 15.9999 13.9595 15.7196 14.4736 15.1625C14.477 15.1557 14.4837 15.1523 14.4871 15.1456C14.663 14.9328 14.8659 14.7403 15.0789 14.5344C15.2243 14.3959 15.3731 14.2507 15.5186 14.0987C15.8534 13.7509 16.0292 13.3457 16.0292 12.9303C16.0292 12.5116 15.85 12.1097 15.5084 11.772L13.6518 9.91136ZM14.8625 13.4672C14.8591 13.4672 14.8591 13.4706 14.8625 13.4672C14.7306 13.6091 14.5953 13.7374 14.4499 13.8792C14.2301 14.0886 14.0069 14.3081 13.7972 14.5546C13.4556 14.9193 13.0532 15.0915 12.5256 15.0915C12.4749 15.0915 12.4208 15.0915 12.3701 15.0882C11.3657 15.024 10.4323 14.6323 9.73226 14.298C7.81815 13.3727 6.13738 12.0591 4.74069 10.3943C3.58748 9.00635 2.81643 7.72312 2.30577 6.34534C1.99126 5.50449 1.87628 4.84937 1.92701 4.2314C1.96083 3.8363 2.11301 3.50874 2.3937 3.22845L3.5469 2.07693C3.71261 1.92159 3.88847 1.83717 4.06094 1.83717C4.274 1.83717 4.44647 1.96549 4.55469 2.07355C4.55807 2.07693 4.56145 2.0803 4.56483 2.08368C4.77112 2.27616 4.96727 2.4754 5.17356 2.68815C5.2784 2.79621 5.38662 2.90427 5.49483 3.01571L6.41807 3.9376C6.77655 4.29556 6.77655 4.62649 6.41807 4.98445C6.32 5.08238 6.22531 5.18031 6.12723 5.27486C5.84316 5.56528 5.57262 5.83543 5.2784 6.09883C5.27163 6.10558 5.26487 6.10896 5.26149 6.11571C4.97065 6.40613 5.02476 6.68979 5.08563 6.88227C5.08901 6.8924 5.0924 6.90253 5.09578 6.91266C5.33589 7.49349 5.67407 8.04055 6.18811 8.6923L6.19149 8.69567C7.12487 9.84382 8.10898 10.7387 9.19455 11.4242C9.33321 11.512 9.47524 11.5829 9.61051 11.6505C9.73226 11.7113 9.84724 11.7687 9.94531 11.8294C9.95884 11.8362 9.97237 11.8463 9.9859 11.8531C10.1009 11.9105 10.2091 11.9375 10.3207 11.9375C10.6014 11.9375 10.7772 11.7619 10.8347 11.7045L11.9913 10.5496C12.1063 10.4348 12.2889 10.2963 12.502 10.2963C12.7116 10.2963 12.8841 10.428 12.989 10.5428C12.9923 10.5462 12.9923 10.5462 12.9957 10.5496L14.8591 12.4103C15.2074 12.7547 15.2074 13.1093 14.8625 13.4672Z" fill="#025899"/>
<path d="M14.8625 13.4672C14.8591 13.4672 14.8591 13.4706 14.8625 13.4672ZM14.8625 13.4672C14.7306 13.6091 14.5953 13.7374 14.4499 13.8792C14.2301 14.0886 14.0069 14.3081 13.7972 14.5546C13.4556 14.9193 13.0532 15.0915 12.5256 15.0915C12.4749 15.0915 12.4208 15.0915 12.3701 15.0882C11.3657 15.024 10.4323 14.6323 9.73226 14.298C7.81815 13.3727 6.13738 12.0591 4.74069 10.3943C3.58748 9.00635 2.81643 7.72312 2.30577 6.34534C1.99126 5.50449 1.87628 4.84937 1.92701 4.2314C1.96083 3.8363 2.11301 3.50874 2.3937 3.22845L3.5469 2.07693C3.71261 1.92159 3.88847 1.83717 4.06094 1.83717C4.274 1.83717 4.44647 1.96549 4.55469 2.07355C4.55807 2.07693 4.56145 2.0803 4.56483 2.08368C4.77112 2.27616 4.96727 2.4754 5.17356 2.68815C5.2784 2.79621 5.38662 2.90427 5.49483 3.01571L6.41807 3.9376C6.77655 4.29556 6.77655 4.62649 6.41807 4.98445C6.32 5.08238 6.22531 5.18031 6.12723 5.27486C5.84316 5.56528 5.57262 5.83543 5.2784 6.09883C5.27163 6.10558 5.26487 6.10896 5.26149 6.11571C4.97065 6.40613 5.02476 6.68979 5.08563 6.88227C5.08901 6.8924 5.0924 6.90253 5.09578 6.91266C5.33589 7.49349 5.67407 8.04055 6.18811 8.6923L6.19149 8.69567C7.12487 9.84382 8.10898 10.7387 9.19455 11.4242C9.33321 11.512 9.47524 11.5829 9.61051 11.6505C9.73226 11.7113 9.84724 11.7687 9.94531 11.8294C9.95884 11.8362 9.97237 11.8463 9.9859 11.8531C10.1009 11.9105 10.2091 11.9375 10.3207 11.9375C10.6014 11.9375 10.7772 11.7619 10.8347 11.7045L11.9913 10.5496C12.1063 10.4348 12.2889 10.2963 12.502 10.2963C12.7116 10.2963 12.8841 10.428 12.989 10.5428C12.9923 10.5462 12.9923 10.5462 12.9957 10.5496L14.8591 12.4103C15.2074 12.7547 15.2074 13.1093 14.8625 13.4672ZM13.6518 9.91136C13.3238 9.57029 12.9281 9.38794 12.5087 9.38794C12.0928 9.38794 11.6937 9.56692 11.3522 9.90798L10.2835 10.9717C10.1956 10.9244 10.1076 10.8805 10.0231 10.8366C9.90135 10.7758 9.78637 10.7184 9.6883 10.6577C8.68728 10.0228 7.77757 9.19546 6.90505 8.12497C6.48233 7.59142 6.19825 7.14229 5.99196 6.68641C6.26927 6.43314 6.52629 6.16974 6.77655 5.91647C6.87124 5.82192 6.96593 5.72399 7.06062 5.62944C7.7708 4.92029 7.7708 4.00177 7.06062 3.29261L6.13738 2.37072C6.03254 2.26603 5.92433 2.15797 5.82287 2.04991C5.61996 1.84054 5.40691 1.62442 5.18709 1.42181C4.85905 1.09762 4.46676 0.9254 4.05418 0.9254C3.64159 0.9254 3.24254 1.09762 2.90436 1.42181C2.90097 1.42518 2.90097 1.42518 2.89759 1.42856L1.74777 2.58684C1.3149 3.01908 1.06802 3.54588 1.01392 4.1571C0.932752 5.14316 1.22359 6.06168 1.44679 6.66277C1.99464 8.13848 2.81305 9.50613 4.03389 10.9717C5.51512 12.7378 7.29735 14.1325 9.3332 15.1152C10.111 15.4833 11.1492 15.9189 12.3092 15.9932C12.3802 15.9966 12.4546 15.9999 12.5223 15.9999C13.3035 15.9999 13.9595 15.7196 14.4736 15.1625C14.477 15.1557 14.4837 15.1523 14.4871 15.1456C14.663 14.9328 14.8659 14.7403 15.0789 14.5344C15.2243 14.3959 15.3731 14.2507 15.5186 14.0987C15.8534 13.7509 16.0292 13.3457 16.0292 12.9303C16.0292 12.5116 15.85 12.1097 15.5084 11.772L13.6518 9.91136Z" stroke="black" stroke-width="0.5"/>
<mask id="path-3-inside-1_122_1418" fill="white">
<path d="M9.64777 3.80622C10.5338 3.9548 11.3387 4.37354 11.9812 5.01515C12.6238 5.65676 13.0397 6.46047 13.1919 7.34522C13.2291 7.5681 13.4219 7.72343 13.6417 7.72343C13.6688 7.72343 13.6924 7.72006 13.7195 7.71668C13.9697 7.67616 14.1355 7.43977 14.0949 7.18988C13.9123 6.1194 13.405 5.14347 12.6305 4.37016C11.8561 3.59685 10.8788 3.09031 9.80671 2.90796C9.55646 2.86744 9.32311 3.0329 9.27915 3.27942C9.23519 3.52593 9.39751 3.76569 9.64777 3.80622Z"/>
</mask>
<path d="M9.64777 3.80622C10.5338 3.9548 11.3387 4.37354 11.9812 5.01515C12.6238 5.65676 13.0397 6.46047 13.1919 7.34522C13.2291 7.5681 13.4219 7.72343 13.6417 7.72343C13.6688 7.72343 13.6924 7.72006 13.7195 7.71668C13.9697 7.67616 14.1355 7.43977 14.0949 7.18988C13.9123 6.1194 13.405 5.14347 12.6305 4.37016C11.8561 3.59685 10.8788 3.09031 9.80671 2.90796C9.55646 2.86744 9.32311 3.0329 9.27915 3.27942C9.23519 3.52593 9.39751 3.76569 9.64777 3.80622Z" fill="#025899"/>
<path d="M9.64777 3.80622L9.81316 2.81997L9.80761 2.81907L9.64777 3.80622ZM13.1919 7.34522L14.1783 7.18059L14.1774 7.1757L13.1919 7.34522ZM13.7195 7.71668L13.8433 8.70898L13.8614 8.70673L13.8793 8.70382L13.7195 7.71668ZM14.0949 7.18988L15.082 7.02958L15.0806 7.02172L14.0949 7.18988ZM9.80671 2.90796L9.97441 1.92209L9.96656 1.92082L9.80671 2.90796ZM9.48238 4.79245C10.1593 4.90596 10.7761 5.22499 11.2746 5.72277L12.6878 4.30753C11.9012 3.52208 10.9083 3.00364 9.81315 2.81999L9.48238 4.79245ZM11.2746 5.72277C11.7713 6.21874 12.0894 6.83466 12.2064 7.51474L14.1774 7.1757C13.9901 6.08628 13.4762 5.09478 12.6878 4.30753L11.2746 5.72277ZM12.2056 7.50985C12.326 8.23146 12.9502 8.72343 13.6417 8.72343V6.72343C13.8936 6.72343 14.1322 6.90473 14.1783 7.18059L12.2056 7.50985ZM13.6417 8.72343C13.7451 8.72343 13.8398 8.70943 13.8433 8.70898L13.5956 6.72438C13.5913 6.72492 13.5868 6.72549 13.5842 6.72582C13.581 6.72622 13.5792 6.72644 13.5779 6.72661C13.5751 6.72696 13.577 6.72669 13.5812 6.72627C13.5909 6.72531 13.6128 6.72343 13.6417 6.72343V8.72343ZM13.8793 8.70382C14.6896 8.57262 15.2087 7.81004 15.0819 7.02958L13.1078 7.35018C13.0622 7.06951 13.2499 6.77969 13.5596 6.72954L13.8793 8.70382ZM15.0806 7.02172C14.8628 5.74472 14.2568 4.58086 13.3371 3.66254L11.9239 5.07778C12.5532 5.70609 12.9617 6.49409 13.1091 7.35805L15.0806 7.02172ZM13.3371 3.66254C12.4175 2.74424 11.2523 2.1395 9.97441 1.92212L9.63902 3.8938C10.5052 4.04113 11.2947 4.44946 11.9239 5.07778L13.3371 3.66254ZM9.96656 1.92082C9.18168 1.79372 8.4353 2.31536 8.29468 3.10385L10.2636 3.45499C10.2109 3.75045 9.93124 3.94115 9.64687 3.8951L9.96656 1.92082ZM8.29468 3.10385C8.15639 3.87929 8.66557 4.6602 9.48792 4.79336L9.80761 2.81907C10.1295 2.87119 10.314 3.17258 10.2636 3.45499L8.29468 3.10385Z" fill="black" mask="url(#path-3-inside-1_122_1418)"/>
<mask id="path-5-inside-2_122_1418" fill="white">
<path d="M16.9932 7.05794C16.6922 5.29519 15.8602 3.69116 14.5819 2.41469C13.3036 1.13822 11.6972 0.307495 9.9319 0.00695018C9.68503 -0.0369497 9.45168 0.131896 9.40772 0.37841C9.36714 0.628302 9.53285 0.861309 9.7831 0.905209C11.359 1.17198 12.7963 1.91828 13.9394 3.0563C15.0824 4.1977 15.8264 5.63288 16.0936 7.20653C16.1308 7.4294 16.3236 7.58474 16.5434 7.58474C16.5704 7.58474 16.5941 7.58136 16.6212 7.57799C16.868 7.54084 17.0371 7.30446 16.9932 7.05794Z"/>
</mask>
<path d="M16.9932 7.05794C16.6922 5.29519 15.8602 3.69116 14.5819 2.41469C13.3036 1.13822 11.6972 0.307495 9.9319 0.00695018C9.68503 -0.0369497 9.45168 0.131896 9.40772 0.37841C9.36714 0.628302 9.53285 0.861309 9.7831 0.905209C11.359 1.17198 12.7963 1.91828 13.9394 3.0563C15.0824 4.1977 15.8264 5.63288 16.0936 7.20653C16.1308 7.4294 16.3236 7.58474 16.5434 7.58474C16.5704 7.58474 16.5941 7.58136 16.6212 7.57799C16.868 7.54084 17.0371 7.30446 16.9932 7.05794Z" fill="#025899"/>
<path d="M16.9932 7.05794L16.0074 7.22626L16.0087 7.23351L16.9932 7.05794ZM9.9319 0.00695018L9.75682 0.991532L9.76407 0.992765L9.9319 0.00695018ZM9.40772 0.37841L8.42325 0.202839L8.42189 0.210466L8.42065 0.218112L9.40772 0.37841ZM9.7831 0.905209L9.61032 1.89019L9.6162 1.89118L9.7831 0.905209ZM13.9394 3.0563L14.646 2.34868L14.6449 2.34763L13.9394 3.0563ZM16.0936 7.20653L17.0799 7.04189L17.0795 7.03915L16.0936 7.20653ZM16.6212 7.57799L16.745 8.57029L16.7575 8.56873L16.7699 8.56685L16.6212 7.57799ZM17.9789 6.88963C17.6427 4.92085 16.7123 3.12882 15.2885 1.70707L13.8753 3.12231C15.0082 4.2535 15.7416 5.66954 16.0074 7.22625L17.9789 6.88963ZM15.2885 1.70707C13.8647 0.285327 12.0705 -0.643347 10.0997 -0.978865L9.76407 0.992765C11.324 1.25834 12.7425 1.9911 13.8753 3.12231L15.2885 1.70707ZM10.107 -0.977605C9.29735 -1.12158 8.56069 -0.56779 8.42325 0.202839L10.3922 0.553982C10.3427 0.831582 10.0727 1.04768 9.75683 0.991505L10.107 -0.977605ZM8.42065 0.218112C8.2921 1.00967 8.82235 1.75194 9.61032 1.89017L9.95588 -0.0797514C10.2433 -0.0293245 10.4422 0.246933 10.3948 0.538709L8.42065 0.218112ZM9.6162 1.89118C10.9848 2.12286 12.2348 2.77038 13.2338 3.76497L14.6449 2.34763C13.3578 1.06618 11.7333 0.221109 9.95001 -0.080764L9.6162 1.89118ZM13.2328 3.76392C14.2304 4.76009 14.8756 6.00704 15.1077 7.37391L17.0795 7.03915C16.7772 5.25873 15.9345 3.63531 14.646 2.34868L13.2328 3.76392ZM15.1072 7.37116C15.2277 8.09277 15.8519 8.58474 16.5434 8.58474V6.58474C16.7952 6.58474 17.0339 6.76604 17.0799 7.04189L15.1072 7.37116ZM16.5434 8.58474C16.6468 8.58474 16.7414 8.57073 16.745 8.57029L16.4973 6.58569C16.493 6.58623 16.4885 6.58679 16.4858 6.58713C16.4827 6.58753 16.4809 6.58775 16.4795 6.58792C16.4767 6.58826 16.4787 6.588 16.4829 6.58758C16.4926 6.58661 16.5145 6.58474 16.5434 6.58474V8.58474ZM16.7699 8.56685C17.5764 8.44551 18.1199 7.68014 17.9776 6.88237L16.0087 7.23351C15.9543 6.92877 16.1597 6.63617 16.4724 6.58912L16.7699 8.56685Z" fill="black" mask="url(#path-5-inside-2_122_1418)"/>
</svg>
