<svg width="13" height="18" viewBox="0 0 13 18" fill="none" xmlns="http://www.w3.org/2000/svg">
<path d="M8.18495 6.96455L8.64472 7.16104L8.18495 6.96455C8.09468 7.17576 7.96194 7.36871 7.79351 7.53196C7.62505 7.69523 7.42422 7.82555 7.20209 7.91473C6.97994 8.00391 6.74132 8.05 6.5 8.05C6.01197 8.05 5.54696 7.86195 5.20649 7.53196C4.86655 7.20248 4.67857 6.759 4.67857 6.3C4.67857 5.841 4.86655 5.39752 5.20649 5.06804C5.54696 4.73805 6.01197 4.55 6.5 4.55C6.98803 4.55 7.45304 4.73805 7.79351 5.06804C8.13345 5.39752 8.32143 5.841 8.32143 6.3C8.32143 6.52761 8.2752 6.75337 8.18495 6.96455ZM6.10361 15.3438L6.5 15.8593L6.89639 15.3438C9.22905 12.3096 10.4167 10.3137 11.0201 8.94395C11.6345 7.54927 11.6429 6.80257 11.6429 6.3C11.6429 4.96879 11.0971 3.69538 10.131 2.75899C9.16539 1.82311 7.85902 1.3 6.5 1.3C5.14098 1.3 3.8346 1.82311 2.86902 2.75899C1.9029 3.69538 1.35714 4.96879 1.35714 6.3C1.35714 6.80257 1.36552 7.54927 1.97993 8.94395C2.58335 10.3137 3.77095 12.3096 6.10361 15.3438ZM6.5 0.5C8.09625 0.5 9.6241 1.11474 10.7482 2.20426C11.8718 3.29326 12.5 4.76688 12.5 6.3C12.5 7.37688 12.1266 8.62215 11.5305 9.9117C10.9376 11.1944 10.1424 12.483 9.33964 13.6362C8.53787 14.788 7.73506 15.7955 7.13227 16.5153C6.8817 16.8146 6.66609 17.0636 6.5 17.2522C6.33392 17.0636 6.1183 16.8146 5.86773 16.5153C5.26494 15.7955 4.46213 14.788 3.66036 13.6362C2.85757 12.483 2.06237 11.1944 1.46949 9.9117C0.873426 8.62215 0.5 7.37688 0.5 6.3C0.5 4.76688 1.12822 3.29326 2.25179 2.20426C3.3759 1.11474 4.90375 0.5 6.5 0.5Z" fill="#025899" stroke="black"/>
</svg>
