<svg width="717" height="102" viewBox="0 0 717 102" fill="none" xmlns="http://www.w3.org/2000/svg">
<path d="M26.1631 17.96C23.4463 21.5485 20.1117 23.3428 16.1592 23.3428C13.3831 23.3428 11.2165 22.3822 9.65918 20.4609C8.10189 18.5228 7.61947 16.1699 8.21191 13.4023C8.80436 10.6009 10.277 8.23958 12.6299 6.31836C14.9743 4.4056 17.5514 3.44922 20.3613 3.44922C23.3997 3.44922 25.6891 4.5918 27.2295 6.87695C27.6527 7.50326 27.9277 8.11263 28.0547 8.70508H25.8965C24.8216 6.36068 22.8411 5.18848 19.9551 5.18848C17.763 5.18848 15.6852 6.0179 13.7217 7.67676C11.792 9.31022 10.5944 11.2272 10.1289 13.4277C9.67188 15.5944 10.0781 17.4945 11.3477 19.1279C12.6172 20.7699 14.3353 21.5908 16.502 21.5908C17.8477 21.5908 19.1849 21.2607 20.5137 20.6006C21.7493 19.9743 22.9131 19.0941 24.0049 17.96H26.1631ZM43.6699 15.8779C43.2383 17.9176 42.1338 19.6696 40.3564 21.1338C38.5791 22.6064 36.6706 23.3428 34.6309 23.3428C32.625 23.3428 31.0423 22.6149 29.8828 21.1592C28.7233 19.7035 28.3551 17.9769 28.7783 15.9795C29.2184 13.9144 30.3145 12.1413 32.0664 10.6602C33.8353 9.16211 35.748 8.41309 37.8047 8.41309C39.8275 8.41309 41.4186 9.14941 42.5781 10.6221C43.7376 12.0947 44.1016 13.8467 43.6699 15.8779ZM41.8672 15.8018C42.1973 14.2445 41.9391 12.8988 41.0928 11.7646C40.2295 10.6221 39.0234 10.0508 37.4746 10.0508C35.8835 10.0508 34.4193 10.6432 33.082 11.8281C31.7702 12.9792 30.945 14.3545 30.6064 15.9541C30.2679 17.5114 30.526 18.8571 31.3809 19.9912C32.2357 21.1338 33.4417 21.7051 34.999 21.7051C36.6071 21.7051 38.0798 21.1211 39.417 19.9531C40.7035 18.8105 41.5202 17.4268 41.8672 15.8018ZM40.5469 6.38184L38.7188 4.49023L36.0273 6.38184H33.6533L38.1094 3.13184H39.8232L42.8574 6.38184H40.5469ZM67.1055 18.8105C64.9303 21.832 62.2516 23.3428 59.0693 23.3428C56.9535 23.3428 55.3073 22.6318 54.1309 21.21C52.9375 19.7712 52.5651 18.0023 53.0137 15.9033C53.4538 13.8213 54.5837 12.0482 56.4033 10.584C58.2061 9.13672 60.1527 8.41309 62.2432 8.41309C63.8089 8.41309 65.1419 8.82357 66.2422 9.64453C67.3594 10.4909 68.0534 11.6335 68.3242 13.0723H66.3184C65.6921 11.0579 64.2363 10.0508 61.9512 10.0508C60.3177 10.0508 58.8154 10.6094 57.4443 11.7266C56.0563 12.8438 55.1888 14.2191 54.8418 15.8525C54.4863 17.5029 54.7572 18.891 55.6543 20.0166C56.5514 21.1423 57.8252 21.7051 59.4756 21.7051C61.82 21.7051 63.6947 20.7402 65.0996 18.8105H67.1055ZM79.5723 23L81.2354 15.1797C81.3962 14.418 81.4427 13.7155 81.375 13.0723C81.3073 12.319 81.083 11.7181 80.7021 11.2695C80.0166 10.457 79.0771 10.0508 77.8838 10.0508C76.682 10.0508 75.5605 10.457 74.5195 11.2695C73.9609 11.7096 73.4912 12.2936 73.1104 13.0215C72.7803 13.6478 72.5391 14.3206 72.3867 15.04L70.6982 23H68.8828L72.9707 3.75391H74.7861L73.3389 10.5967H73.3896C74.6338 9.14095 76.2461 8.41309 78.2266 8.41309C80.2155 8.41309 81.6331 9.04785 82.4795 10.3174C83.292 11.5361 83.4824 13.1569 83.0508 15.1797L81.3877 23H79.5723ZM95.4922 23L95.9619 20.791H95.9111C95.3356 21.6289 94.5697 22.2721 93.6133 22.7207C92.7415 23.1354 91.8105 23.3428 90.8203 23.3428C88.6875 23.3428 87.2064 22.6318 86.377 21.21C86.0384 20.6175 85.8607 19.8939 85.8438 19.0391C85.8268 18.3451 85.9157 17.541 86.1104 16.627L87.7734 8.78125H89.5889L87.9258 16.6016C87.5872 18.1927 87.6423 19.4115 88.0908 20.2578C88.6071 21.2227 89.6312 21.7051 91.1631 21.7051C92.3649 21.7051 93.4525 21.32 94.4258 20.5498C95.1198 19.9997 95.6615 19.348 96.0508 18.5947C96.3639 17.9938 96.6178 17.2279 96.8125 16.2969L98.4121 8.78125H100.228L97.2061 23H95.4922ZM93.0166 6.90234L92.4707 5.4043L98.2471 2.56055L98.7422 4.12207L93.0166 6.90234ZM100.888 24.7393H98.958L102.31 19.7246H104.239L100.888 24.7393ZM127.713 23L128.246 20.499H128.195C126.536 22.3949 124.488 23.3428 122.051 23.3428C119.91 23.3428 118.255 22.6276 117.087 21.1973C115.91 19.7669 115.551 17.9854 116.008 15.8525C116.456 13.7367 117.582 11.9635 119.385 10.5332C121.162 9.11979 123.109 8.41309 125.225 8.41309C127.704 8.41309 129.346 9.36523 130.15 11.2695H130.201L130.734 8.78125H132.562L129.541 23H127.713ZM129.338 15.9033C129.676 14.3037 129.423 12.9326 128.576 11.79C127.713 10.6305 126.481 10.0508 124.882 10.0508C123.198 10.0508 121.687 10.6094 120.35 11.7266C119.012 12.8438 118.162 14.2445 117.798 15.9287C117.451 17.5876 117.713 18.9671 118.585 20.0674C119.465 21.1592 120.739 21.7051 122.406 21.7051C124.006 21.7051 125.479 21.1338 126.824 19.9912C128.161 18.8656 128.999 17.5029 129.338 15.9033ZM143.519 23L145.182 15.1797C145.342 14.418 145.389 13.7155 145.321 13.0723C145.254 12.319 145.029 11.7181 144.648 11.2695C143.963 10.457 143.023 10.0508 141.83 10.0508C140.628 10.0508 139.507 10.457 138.466 11.2695C137.907 11.7096 137.438 12.2936 137.057 13.0215C136.727 13.6478 136.485 14.3206 136.333 15.04L134.645 23H132.829L135.851 8.78125H137.666L137.285 10.5967H137.336C138.58 9.14095 140.192 8.41309 142.173 8.41309C144.162 8.41309 145.579 9.04785 146.426 10.3174C147.238 11.5361 147.429 13.1569 146.997 15.1797L145.334 23H143.519ZM159.299 23L160.962 15.1797C161.123 14.418 161.169 13.7155 161.102 13.0723C161.034 12.319 160.81 11.7181 160.429 11.2695C159.743 10.457 158.804 10.0508 157.61 10.0508C156.409 10.0508 155.287 10.457 154.246 11.2695C153.688 11.7096 153.218 12.2936 152.837 13.0215C152.507 13.6478 152.266 14.3206 152.113 15.04L150.425 23H148.609L152.697 3.75391H154.513L153.065 10.5967H153.116C154.36 9.14095 155.973 8.41309 157.953 8.41309C159.942 8.41309 161.36 9.04785 162.206 10.3174C163.019 11.5361 163.209 13.1569 162.777 15.1797L161.114 23H159.299ZM186.746 18.8105C184.571 21.832 181.892 23.3428 178.71 23.3428C176.594 23.3428 174.948 22.6318 173.771 21.21C172.578 19.7712 172.206 18.0023 172.654 15.9033C173.094 13.8213 174.224 12.0482 176.044 10.584C177.847 9.13672 179.793 8.41309 181.884 8.41309C183.45 8.41309 184.783 8.82357 185.883 9.64453C187 10.4909 187.694 11.6335 187.965 13.0723H185.959C185.333 11.0579 183.877 10.0508 181.592 10.0508C179.958 10.0508 178.456 10.6094 177.085 11.7266C175.697 12.8438 174.829 14.2191 174.482 15.8525C174.127 17.5029 174.398 18.891 175.295 20.0166C176.192 21.1423 177.466 21.7051 179.116 21.7051C181.461 21.7051 183.335 20.7402 184.74 18.8105H186.746ZM199.213 23L200.876 15.1797C201.037 14.418 201.083 13.7155 201.016 13.0723C200.948 12.319 200.724 11.7181 200.343 11.2695C199.657 10.457 198.718 10.0508 197.524 10.0508C196.323 10.0508 195.201 10.457 194.16 11.2695C193.602 11.7096 193.132 12.2936 192.751 13.0215C192.421 13.6478 192.18 14.3206 192.027 15.04L190.339 23H188.523L192.611 3.75391H194.427L192.979 10.5967H193.03C194.274 9.14095 195.887 8.41309 197.867 8.41309C199.856 8.41309 201.274 9.04785 202.12 10.3174C202.933 11.5361 203.123 13.1569 202.691 15.1797L201.028 23H199.213ZM207.884 7.04199L208.582 3.75391H210.397L209.699 7.04199H207.884ZM204.494 23L207.516 8.78125H209.331L206.31 23H204.494ZM203.339 27.8877L204.037 24.5996H205.967L205.269 27.8877H203.339ZM236.055 23L237.807 14.7607C238.103 13.3812 238.044 12.2809 237.629 11.46C237.155 10.5205 236.258 10.0508 234.938 10.0508C233.617 10.0508 232.521 10.5205 231.649 11.46C230.888 12.2809 230.359 13.3812 230.062 14.7607L228.311 23H226.495L228.247 14.7607C228.543 13.3812 228.48 12.2809 228.057 11.46C227.591 10.5205 226.698 10.0508 225.378 10.0508C224.049 10.0508 222.949 10.5205 222.077 11.46C221.315 12.2809 220.786 13.3812 220.49 14.7607L218.738 23H216.923L219.944 8.78125H221.76L221.417 10.4189C222.543 9.08171 223.977 8.41309 225.721 8.41309C227.887 8.41309 229.288 9.32292 229.923 11.1426C231.446 9.32292 233.232 8.41309 235.28 8.41309C237.058 8.41309 238.34 9.0013 239.127 10.1777C239.88 11.2949 240.066 12.7507 239.686 14.5449L237.883 23H236.055ZM253.93 23L254.463 20.499H254.412C252.753 22.3949 250.705 23.3428 248.268 23.3428C246.126 23.3428 244.472 22.6276 243.304 21.1973C242.127 19.7669 241.768 17.9854 242.225 15.8525C242.673 13.7367 243.799 11.9635 245.602 10.5332C247.379 9.11979 249.326 8.41309 251.441 8.41309C253.921 8.41309 255.563 9.36523 256.367 11.2695H256.418L256.951 8.78125H258.779L255.758 23H253.93ZM255.555 15.9033C255.893 14.3037 255.639 12.9326 254.793 11.79C253.93 10.6305 252.698 10.0508 251.099 10.0508C249.414 10.0508 247.904 10.6094 246.566 11.7266C245.229 12.8438 244.379 14.2445 244.015 15.9287C243.668 17.5876 243.93 18.9671 244.802 20.0674C245.682 21.1592 246.956 21.7051 248.623 21.7051C250.223 21.7051 251.695 21.1338 253.041 19.9912C254.378 18.8656 255.216 17.5029 255.555 15.9033ZM256.278 4.61719L255.732 3.11914L261.509 0.275391L262.004 1.83691L256.278 4.61719ZM254.323 6.38184L252.482 4.49023L249.791 6.38184H247.43L251.898 3.13184H253.612L256.634 6.38184H254.323ZM265.203 10.4189L262.524 23H260.709L263.388 10.4189H260.392L260.734 8.78125H263.73L264.81 3.75391H266.625L265.546 8.78125H268.948L268.605 10.4189H265.203ZM283.637 10.3428C280.878 10.5628 279.215 12.0101 278.647 14.6846L276.883 23H275.067L278.089 8.78125H279.904L279.473 10.8379H279.523C280.074 9.98307 280.742 9.36523 281.529 8.98438C282.164 8.67969 283.002 8.48926 284.043 8.41309L283.637 10.3428ZM295.52 23L296.053 20.499H296.002C294.343 22.3949 292.295 23.3428 289.857 23.3428C287.716 23.3428 286.062 22.6276 284.894 21.1973C283.717 19.7669 283.357 17.9854 283.814 15.8525C284.263 13.7367 285.389 11.9635 287.191 10.5332C288.969 9.11979 290.915 8.41309 293.031 8.41309C295.511 8.41309 297.153 9.36523 297.957 11.2695H298.008L298.541 8.78125H300.369L297.348 23H295.52ZM297.145 15.9033C297.483 14.3037 297.229 12.9326 296.383 11.79C295.52 10.6305 294.288 10.0508 292.688 10.0508C291.004 10.0508 289.493 10.6094 288.156 11.7266C286.819 12.8438 285.968 14.2445 285.604 15.9287C285.257 17.5876 285.52 18.9671 286.392 20.0674C287.272 21.1592 288.546 21.7051 290.213 21.7051C291.812 21.7051 293.285 21.1338 294.631 19.9912C295.968 18.8656 296.806 17.5029 297.145 15.9033ZM298.782 4.07129C298.232 5.01074 297.479 5.70898 296.522 6.16602C295.693 6.55534 294.737 6.75 293.653 6.75C292.578 6.75 291.711 6.55534 291.051 6.16602C290.289 5.71745 289.84 5.01921 289.705 4.07129H291.394C291.808 4.86686 292.667 5.26465 293.971 5.26465C294.546 5.26465 295.092 5.17578 295.608 4.99805C296.201 4.79492 296.696 4.486 297.094 4.07129H298.782ZM311.325 23L312.988 15.1797C313.149 14.418 313.196 13.7155 313.128 13.0723C313.06 12.319 312.836 11.7181 312.455 11.2695C311.77 10.457 310.83 10.0508 309.637 10.0508C308.435 10.0508 307.313 10.457 306.272 11.2695C305.714 11.7096 305.244 12.2936 304.863 13.0215C304.533 13.6478 304.292 14.3206 304.14 15.04L302.451 23H300.636L303.657 8.78125H305.473L305.092 10.5967H305.143C306.387 9.14095 307.999 8.41309 309.979 8.41309C311.968 8.41309 313.386 9.04785 314.232 10.3174C315.045 11.5361 315.235 13.1569 314.804 15.1797L313.141 23H311.325ZM331.041 20.7656C330.923 21.3073 330.808 21.7686 330.698 22.1494C330.563 22.6403 330.415 23.0846 330.254 23.4824C329.856 24.4303 329.319 25.2555 328.642 25.958C326.94 27.71 324.871 28.5859 322.434 28.5859C320.69 28.5859 319.268 28.1374 318.168 27.2402C317.025 26.3177 316.391 25.027 316.264 23.3682H318.193C318.633 25.7549 320.153 26.9482 322.751 26.9482C324.342 26.9482 325.709 26.4616 326.852 25.4883C327.969 24.5319 328.697 23.2539 329.035 21.6543L329.302 20.3975H329.251C328.549 21.3454 327.618 22.0817 326.458 22.6064C325.383 23.0973 324.274 23.3428 323.132 23.3428C321.067 23.3428 319.467 22.6276 318.333 21.1973C317.182 19.7585 316.826 18.0107 317.267 15.9541C317.707 13.8805 318.803 12.1074 320.555 10.6348C322.315 9.15365 324.232 8.41309 326.306 8.41309C328.709 8.41309 330.334 9.38216 331.181 11.3203H331.231L331.765 8.78125H333.58L331.041 20.7656ZM330.355 15.9033C330.694 14.3206 330.444 12.9538 329.606 11.8027C328.752 10.6348 327.537 10.0508 325.963 10.0508C324.38 10.0508 322.92 10.6348 321.583 11.8027C320.263 12.9368 319.433 14.3037 319.095 15.9033C318.756 17.486 319.006 18.8402 319.844 19.9658C320.69 21.1253 321.905 21.7051 323.487 21.7051C325.045 21.7051 326.5 21.1253 327.854 19.9658C329.183 18.8317 330.017 17.4775 330.355 15.9033ZM341.21 23L345.298 3.75391H347.113L343.025 23H341.21ZM359.047 23L359.58 20.499H359.529C357.87 22.3949 355.822 23.3428 353.385 23.3428C351.243 23.3428 349.589 22.6276 348.421 21.1973C347.244 19.7669 346.885 17.9854 347.342 15.8525C347.79 13.7367 348.916 11.9635 350.719 10.5332C352.496 9.11979 354.443 8.41309 356.559 8.41309C359.038 8.41309 360.68 9.36523 361.484 11.2695H361.535L362.068 8.78125H363.896L360.875 23H359.047ZM360.672 15.9033C361.01 14.3037 360.757 12.9326 359.91 11.79C359.047 10.6305 357.815 10.0508 356.216 10.0508C354.532 10.0508 353.021 10.6094 351.684 11.7266C350.346 12.8438 349.496 14.2445 349.132 15.9287C348.785 17.5876 349.047 18.9671 349.919 20.0674C350.799 21.1592 352.073 21.7051 353.74 21.7051C355.34 21.7051 356.812 21.1338 358.158 19.9912C359.495 18.8656 360.333 17.5029 360.672 15.9033ZM359.44 6.38184L357.6 4.49023L354.908 6.38184H352.547L357.016 3.13184H358.729L361.751 6.38184H359.44ZM374.814 23L375.284 20.791H375.233C374.658 21.6289 373.892 22.2721 372.936 22.7207C372.064 23.1354 371.133 23.3428 370.143 23.3428C368.01 23.3428 366.529 22.6318 365.699 21.21C365.361 20.6175 365.183 19.8939 365.166 19.0391C365.149 18.3451 365.238 17.541 365.433 16.627L367.096 8.78125H368.911L367.248 16.6016C366.91 18.1927 366.965 19.4115 367.413 20.2578C367.929 21.2227 368.953 21.7051 370.485 21.7051C371.687 21.7051 372.775 21.32 373.748 20.5498C374.442 19.9997 374.984 19.348 375.373 18.5947C375.686 17.9938 375.94 17.2279 376.135 16.2969L377.734 8.78125H379.55L376.528 23H374.814ZM397.882 23L399.545 15.1797C399.706 14.418 399.752 13.7155 399.685 13.0723C399.617 12.319 399.393 11.7181 399.012 11.2695C398.326 10.457 397.387 10.0508 396.193 10.0508C394.992 10.0508 393.87 10.457 392.829 11.2695C392.271 11.7096 391.801 12.2936 391.42 13.0215C391.09 13.6478 390.849 14.3206 390.696 15.04L389.008 23H387.192L390.214 8.78125H392.029L391.648 10.5967H391.699C392.943 9.14095 394.556 8.41309 396.536 8.41309C398.525 8.41309 399.943 9.04785 400.789 10.3174C401.602 11.5361 401.792 13.1569 401.36 15.1797L399.697 23H397.882ZM415.693 23L416.227 20.499H416.176C414.517 22.3949 412.469 23.3428 410.031 23.3428C407.89 23.3428 406.235 22.6276 405.067 21.1973C403.891 19.7669 403.531 17.9854 403.988 15.8525C404.437 13.7367 405.562 11.9635 407.365 10.5332C409.143 9.11979 411.089 8.41309 413.205 8.41309C415.685 8.41309 417.327 9.36523 418.131 11.2695H418.182L418.715 8.78125H420.543L417.521 23H415.693ZM417.318 15.9033C417.657 14.3037 417.403 12.9326 416.557 11.79C415.693 10.6305 414.462 10.0508 412.862 10.0508C411.178 10.0508 409.667 10.6094 408.33 11.7266C406.993 12.8438 406.142 14.2445 405.778 15.9287C405.431 17.5876 405.694 18.9671 406.565 20.0674C407.446 21.1592 408.719 21.7051 410.387 21.7051C411.986 21.7051 413.459 21.1338 414.805 19.9912C416.142 18.8656 416.98 17.5029 417.318 15.9033ZM418.956 4.07129C418.406 5.01074 417.653 5.70898 416.696 6.16602C415.867 6.55534 414.91 6.75 413.827 6.75C412.752 6.75 411.885 6.55534 411.225 6.16602C410.463 5.71745 410.014 5.01921 409.879 4.07129H411.567C411.982 4.86686 412.841 5.26465 414.145 5.26465C414.72 5.26465 415.266 5.17578 415.782 4.99805C416.375 4.79492 416.87 4.486 417.268 4.07129H418.956ZM439.967 23L441.719 14.7607C442.015 13.3812 441.956 12.2809 441.541 11.46C441.067 10.5205 440.17 10.0508 438.85 10.0508C437.529 10.0508 436.433 10.5205 435.562 11.46C434.8 12.2809 434.271 13.3812 433.975 14.7607L432.223 23H430.407L432.159 14.7607C432.455 13.3812 432.392 12.2809 431.969 11.46C431.503 10.5205 430.61 10.0508 429.29 10.0508C427.961 10.0508 426.861 10.5205 425.989 11.46C425.228 12.2809 424.699 13.3812 424.402 14.7607L422.65 23H420.835L423.856 8.78125H425.672L425.329 10.4189C426.455 9.08171 427.889 8.41309 429.633 8.41309C431.799 8.41309 433.2 9.32292 433.835 11.1426C435.358 9.32292 437.144 8.41309 439.192 8.41309C440.97 8.41309 442.252 9.0013 443.039 10.1777C443.792 11.2949 443.979 12.7507 443.598 14.5449L441.795 23H439.967ZM445.438 24.7393H443.509L446.86 19.7246H448.79L445.438 24.7393ZM478.789 23L480.541 14.7607C480.837 13.3812 480.778 12.2809 480.363 11.46C479.889 10.5205 478.992 10.0508 477.672 10.0508C476.352 10.0508 475.256 10.5205 474.384 11.46C473.622 12.2809 473.093 13.3812 472.797 14.7607L471.045 23H469.229L470.981 14.7607C471.278 13.3812 471.214 12.2809 470.791 11.46C470.326 10.5205 469.433 10.0508 468.112 10.0508C466.784 10.0508 465.683 10.5205 464.812 11.46C464.05 12.2809 463.521 13.3812 463.225 14.7607L461.473 23H459.657L462.679 8.78125H464.494L464.151 10.4189C465.277 9.08171 466.712 8.41309 468.455 8.41309C470.622 8.41309 472.022 9.32292 472.657 11.1426C474.181 9.32292 475.966 8.41309 478.015 8.41309C479.792 8.41309 481.074 9.0013 481.861 10.1777C482.615 11.2949 482.801 12.7507 482.42 14.5449L480.617 23H478.789ZM496.664 23L497.197 20.499H497.146C495.488 22.3949 493.439 23.3428 491.002 23.3428C488.861 23.3428 487.206 22.6276 486.038 21.1973C484.862 19.7669 484.502 17.9854 484.959 15.8525C485.408 13.7367 486.533 11.9635 488.336 10.5332C490.113 9.11979 492.06 8.41309 494.176 8.41309C496.656 8.41309 498.298 9.36523 499.102 11.2695H499.152L499.686 8.78125H501.514L498.492 23H496.664ZM498.289 15.9033C498.628 14.3037 498.374 12.9326 497.527 11.79C496.664 10.6305 495.433 10.0508 493.833 10.0508C492.149 10.0508 490.638 10.6094 489.301 11.7266C487.964 12.8438 487.113 14.2445 486.749 15.9287C486.402 17.5876 486.664 18.9671 487.536 20.0674C488.416 21.1592 489.69 21.7051 491.357 21.7051C492.957 21.7051 494.43 21.1338 495.775 19.9912C497.113 18.8656 497.951 17.5029 498.289 15.9033ZM499.013 4.61719L498.467 3.11914L504.243 0.275391L504.738 1.83691L499.013 4.61719ZM497.058 6.38184L495.217 4.49023L492.525 6.38184H490.164L494.633 3.13184H496.347L499.368 6.38184H497.058ZM507.938 10.4189L505.259 23H503.443L506.122 10.4189H503.126L503.469 8.78125H506.465L507.544 3.75391H509.359L508.28 8.78125H511.683L511.34 10.4189H507.938ZM526.371 10.3428C523.612 10.5628 521.949 12.0101 521.382 14.6846L519.617 23H517.802L520.823 8.78125H522.639L522.207 10.8379H522.258C522.808 9.98307 523.477 9.36523 524.264 8.98438C524.898 8.67969 525.736 8.48926 526.777 8.41309L526.371 10.3428ZM538.254 23L538.787 20.499H538.736C537.077 22.3949 535.029 23.3428 532.592 23.3428C530.451 23.3428 528.796 22.6276 527.628 21.1973C526.451 19.7669 526.092 17.9854 526.549 15.8525C526.997 13.7367 528.123 11.9635 529.926 10.5332C531.703 9.11979 533.65 8.41309 535.766 8.41309C538.245 8.41309 539.887 9.36523 540.691 11.2695H540.742L541.275 8.78125H543.104L540.082 23H538.254ZM539.879 15.9033C540.217 14.3037 539.964 12.9326 539.117 11.79C538.254 10.6305 537.022 10.0508 535.423 10.0508C533.739 10.0508 532.228 10.6094 530.891 11.7266C529.553 12.8438 528.703 14.2445 528.339 15.9287C527.992 17.5876 528.254 18.9671 529.126 20.0674C530.006 21.1592 531.28 21.7051 532.947 21.7051C534.547 21.7051 536.02 21.1338 537.365 19.9912C538.702 18.8656 539.54 17.5029 539.879 15.9033ZM541.517 4.07129C540.966 5.01074 540.213 5.70898 539.257 6.16602C538.427 6.55534 537.471 6.75 536.388 6.75C535.313 6.75 534.445 6.55534 533.785 6.16602C533.023 5.71745 532.575 5.01921 532.439 4.07129H534.128C534.543 4.86686 535.402 5.26465 536.705 5.26465C537.281 5.26465 537.826 5.17578 538.343 4.99805C538.935 4.79492 539.43 4.486 539.828 4.07129H541.517ZM554.06 23L555.723 15.1797C555.883 14.418 555.93 13.7155 555.862 13.0723C555.795 12.319 555.57 11.7181 555.189 11.2695C554.504 10.457 553.564 10.0508 552.371 10.0508C551.169 10.0508 550.048 10.457 549.007 11.2695C548.448 11.7096 547.979 12.2936 547.598 13.0215C547.268 13.6478 547.026 14.3206 546.874 15.04L545.186 23H543.37L546.392 8.78125H548.207L547.826 10.5967H547.877C549.121 9.14095 550.733 8.41309 552.714 8.41309C554.703 8.41309 556.12 9.04785 556.967 10.3174C557.779 11.5361 557.97 13.1569 557.538 15.1797L555.875 23H554.06ZM573.775 20.7656C573.657 21.3073 573.543 21.7686 573.433 22.1494C573.297 22.6403 573.149 23.0846 572.988 23.4824C572.59 24.4303 572.053 25.2555 571.376 25.958C569.675 27.71 567.605 28.5859 565.168 28.5859C563.424 28.5859 562.003 28.1374 560.902 27.2402C559.76 26.3177 559.125 25.027 558.998 23.3682H560.928C561.368 25.7549 562.887 26.9482 565.485 26.9482C567.076 26.9482 568.443 26.4616 569.586 25.4883C570.703 24.5319 571.431 23.2539 571.77 21.6543L572.036 20.3975H571.985C571.283 21.3454 570.352 22.0817 569.192 22.6064C568.118 23.0973 567.009 23.3428 565.866 23.3428C563.801 23.3428 562.201 22.6276 561.067 21.1973C559.916 19.7585 559.561 18.0107 560.001 15.9541C560.441 13.8805 561.537 12.1074 563.289 10.6348C565.049 9.15365 566.966 8.41309 569.04 8.41309C571.444 8.41309 573.069 9.38216 573.915 11.3203H573.966L574.499 8.78125H576.314L573.775 20.7656ZM573.09 15.9033C573.428 14.3206 573.179 12.9538 572.341 11.8027C571.486 10.6348 570.271 10.0508 568.697 10.0508C567.115 10.0508 565.655 10.6348 564.317 11.8027C562.997 12.9368 562.168 14.3037 561.829 15.9033C561.491 17.486 561.74 18.8402 562.578 19.9658C563.424 21.1253 564.639 21.7051 566.222 21.7051C567.779 21.7051 569.235 21.1253 570.589 19.9658C571.918 18.8317 572.751 17.4775 573.09 15.9033ZM590.102 10.4189L587.423 23H585.607L588.286 10.4189H585.29L585.633 8.78125H588.629L589.708 3.75391H591.523L590.444 8.78125H593.847L593.504 10.4189H590.102ZM608.535 15.8779C608.104 17.9176 606.999 19.6696 605.222 21.1338C603.444 22.6064 601.536 23.3428 599.496 23.3428C597.49 23.3428 595.908 22.6149 594.748 21.1592C593.589 19.7035 593.22 17.9769 593.644 15.9795C594.084 13.9144 595.18 12.1413 596.932 10.6602C598.701 9.16211 600.613 8.41309 602.67 8.41309C604.693 8.41309 606.284 9.14941 607.443 10.6221C608.603 12.0947 608.967 13.8467 608.535 15.8779ZM606.732 15.8018C607.062 14.2445 606.804 12.8988 605.958 11.7646C605.095 10.6221 603.889 10.0508 602.34 10.0508C600.749 10.0508 599.285 10.6432 597.947 11.8281C596.635 12.9792 595.81 14.3545 595.472 15.9541C595.133 17.5114 595.391 18.8571 596.246 19.9912C597.101 21.1338 598.307 21.7051 599.864 21.7051C601.472 21.7051 602.945 21.1211 604.282 19.9531C605.569 18.8105 606.385 17.4268 606.732 15.8018ZM622.424 23L622.957 20.499H622.906C621.247 22.3949 619.199 23.3428 616.762 23.3428C614.62 23.3428 612.966 22.6276 611.798 21.1973C610.621 19.7669 610.262 17.9854 610.719 15.8525C611.167 13.7367 612.293 11.9635 614.096 10.5332C615.873 9.11979 617.82 8.41309 619.936 8.41309C622.415 8.41309 624.057 9.36523 624.861 11.2695H624.912L625.445 8.78125H627.273L624.252 23H622.424ZM624.049 15.9033C624.387 14.3037 624.133 12.9326 623.287 11.79C622.424 10.6305 621.192 10.0508 619.593 10.0508C617.909 10.0508 616.398 10.6094 615.061 11.7266C613.723 12.8438 612.873 14.2445 612.509 15.9287C612.162 17.5876 612.424 18.9671 613.296 20.0674C614.176 21.1592 615.45 21.7051 617.117 21.7051C618.717 21.7051 620.189 21.1338 621.535 19.9912C622.872 18.8656 623.71 17.5029 624.049 15.9033ZM622.437 6.90234L617.892 4.12207L619.047 2.56055L623.617 5.4043L622.437 6.90234ZM638.229 23L639.893 15.1797C640.053 14.418 640.1 13.7155 640.032 13.0723C639.965 12.319 639.74 11.7181 639.359 11.2695C638.674 10.457 637.734 10.0508 636.541 10.0508C635.339 10.0508 634.218 10.457 633.177 11.2695C632.618 11.7096 632.148 12.2936 631.768 13.0215C631.438 13.6478 631.196 14.3206 631.044 15.04L629.355 23H627.54L630.562 8.78125H632.377L631.996 10.5967H632.047C633.291 9.14095 634.903 8.41309 636.884 8.41309C638.873 8.41309 640.29 9.04785 641.137 10.3174C641.949 11.5361 642.14 13.1569 641.708 15.1797L640.045 23H638.229ZM661.221 23L662.884 15.1797C663.045 14.418 663.091 13.7155 663.023 13.0723C662.956 12.319 662.731 11.7181 662.351 11.2695C661.665 10.457 660.726 10.0508 659.532 10.0508C658.33 10.0508 657.209 10.457 656.168 11.2695C655.609 11.7096 655.14 12.2936 654.759 13.0215C654.429 13.6478 654.188 14.3206 654.035 15.04L652.347 23H650.531L654.619 3.75391H656.435L654.987 10.5967H655.038C656.282 9.14095 657.895 8.41309 659.875 8.41309C661.864 8.41309 663.282 9.04785 664.128 10.3174C664.94 11.5361 665.131 13.1569 664.699 15.1797L663.036 23H661.221ZM679.121 23L679.654 20.499H679.604C677.945 22.3949 675.896 23.3428 673.459 23.3428C671.318 23.3428 669.663 22.6276 668.495 21.1973C667.319 19.7669 666.959 17.9854 667.416 15.8525C667.865 13.7367 668.99 11.9635 670.793 10.5332C672.57 9.11979 674.517 8.41309 676.633 8.41309C679.113 8.41309 680.755 9.36523 681.559 11.2695H681.609L682.143 8.78125H683.971L680.949 23H679.121ZM680.746 15.9033C681.085 14.3037 680.831 12.9326 679.984 11.79C679.121 10.6305 677.89 10.0508 676.29 10.0508C674.606 10.0508 673.095 10.6094 671.758 11.7266C670.421 12.8438 669.57 14.2445 669.206 15.9287C668.859 17.5876 669.121 18.9671 669.993 20.0674C670.873 21.1592 672.147 21.7051 673.814 21.7051C675.414 21.7051 676.887 21.1338 678.232 19.9912C679.57 18.8656 680.408 17.5029 680.746 15.9033ZM679.134 6.90234L674.589 4.12207L675.744 2.56055L680.314 5.4043L679.134 6.90234ZM703.395 23L705.146 14.7607C705.443 13.3812 705.383 12.2809 704.969 11.46C704.495 10.5205 703.598 10.0508 702.277 10.0508C700.957 10.0508 699.861 10.5205 698.989 11.46C698.228 12.2809 697.699 13.3812 697.402 14.7607L695.65 23H693.835L695.587 14.7607C695.883 13.3812 695.82 12.2809 695.396 11.46C694.931 10.5205 694.038 10.0508 692.718 10.0508C691.389 10.0508 690.289 10.5205 689.417 11.46C688.655 12.2809 688.126 13.3812 687.83 14.7607L686.078 23H684.263L687.284 8.78125H689.1L688.757 10.4189C689.882 9.08171 691.317 8.41309 693.061 8.41309C695.227 8.41309 696.628 9.32292 697.263 11.1426C698.786 9.32292 700.572 8.41309 702.62 8.41309C704.397 8.41309 705.68 9.0013 706.467 10.1777C707.22 11.2949 707.406 12.7507 707.025 14.5449L705.223 23H703.395ZM5.30469 62H3.29883L0.31543 47.7812H2.27051L4.74609 59.7402L12.376 47.7812H14.3311L5.30469 62ZM25.833 62L26.3662 59.499H26.3154C24.6566 61.3949 22.6084 62.3428 20.1709 62.3428C18.0296 62.3428 16.375 61.6276 15.207 60.1973C14.0306 58.7669 13.6709 56.9854 14.1279 54.8525C14.5765 52.7367 15.7021 50.9635 17.5049 49.5332C19.2822 48.1198 21.2288 47.4131 23.3447 47.4131C25.8245 47.4131 27.4665 48.3652 28.2705 50.2695H28.3213L28.8545 47.7812H30.6826L27.6611 62H25.833ZM27.458 54.9033C27.7965 53.3037 27.5426 51.9326 26.6963 50.79C25.833 49.6305 24.6016 49.0508 23.002 49.0508C21.3177 49.0508 19.807 49.6094 18.4697 50.7266C17.1325 51.8438 16.2819 53.2445 15.918 54.9287C15.571 56.5876 15.8333 57.9671 16.7051 59.0674C17.5853 60.1592 18.859 60.7051 20.5264 60.7051C22.126 60.7051 23.5986 60.1338 24.9443 58.9912C26.2816 57.8656 27.1195 56.5029 27.458 54.9033ZM25.8457 45.9023L21.3008 43.1221L22.4561 41.5605L27.0264 44.4043L25.8457 45.9023ZM44.3174 49.4189L41.6387 62H39.8232L42.502 49.4189H39.5059L39.8486 47.7812H42.8447L43.9238 42.7539H45.7393L44.6602 47.7812H48.0625L47.7197 49.4189H44.3174ZM50.3604 46.042L51.0586 42.7539H52.874L52.1758 46.042H50.3604ZM46.9707 62L49.9922 47.7812H51.8076L48.7861 62H46.9707ZM67.6514 55.5508H54.7021C54.4736 56.9473 54.8037 58.1576 55.6924 59.1816C56.5726 60.1973 57.7152 60.7051 59.1201 60.7051C60.2373 60.7051 61.3249 60.4089 62.3828 59.8164C63.4831 59.1986 64.3337 58.3734 64.9346 57.3408H66.8643C66.0179 58.8304 64.8542 60.0365 63.373 60.959C61.8919 61.8815 60.3685 62.3428 58.8027 62.3428C56.7546 62.3428 55.1592 61.6107 54.0166 60.1465C52.8825 58.6992 52.5312 56.9515 52.9629 54.9033C53.403 52.8636 54.499 51.1074 56.251 49.6348C58.0199 48.1536 59.9199 47.4131 61.9512 47.4131C64.0163 47.4131 65.6159 48.1706 66.75 49.6855C67.8757 51.1836 68.2184 52.9652 67.7783 55.0303L67.6514 55.5508ZM66.1533 53.9131C66.2126 52.5081 65.8275 51.3486 64.998 50.4346C64.1602 49.512 63.0345 49.0508 61.6211 49.0508C60.2161 49.0508 58.8958 49.512 57.6602 50.4346C56.4414 51.3486 55.5697 52.5081 55.0449 53.9131H66.1533ZM64.7441 45.3818L62.916 43.4902L60.2246 45.3818H57.8506L62.3066 42.1318H64.0205L67.0547 45.3818H64.7441ZM79.7373 62L80.207 59.791H80.1562C79.5807 60.6289 78.8148 61.2721 77.8584 61.7207C76.9867 62.1354 76.0557 62.3428 75.0654 62.3428C72.9326 62.3428 71.4515 61.6318 70.6221 60.21C70.2835 59.6175 70.1058 58.8939 70.0889 58.0391C70.0719 57.3451 70.1608 56.541 70.3555 55.627L72.0186 47.7812H73.834L72.1709 55.6016C71.8324 57.1927 71.8874 58.4115 72.3359 59.2578C72.8522 60.2227 73.8763 60.7051 75.4082 60.7051C76.61 60.7051 77.6976 60.32 78.6709 59.5498C79.3649 58.9997 79.9066 58.348 80.2959 57.5947C80.609 56.9938 80.863 56.2279 81.0576 55.2969L82.6572 47.7812H84.4727L81.4512 62H79.7373ZM100.431 62L97.8662 56.2998L92.8896 62H90.7314L97.1299 54.7764L93.7529 47.7812H95.9365L98.5137 53.2656L103.401 47.7812H105.61L99.2627 54.7764L102.589 62H100.431ZM119.55 49.8887L116.973 62H115.259L115.729 59.791H115.678C115.102 60.6289 114.336 61.2721 113.38 61.7207C112.508 62.1354 111.577 62.3428 110.587 62.3428C108.454 62.3428 106.973 61.6318 106.144 60.21C105.805 59.6175 105.627 58.8939 105.61 58.0391C105.593 57.3451 105.682 56.541 105.877 55.627L107.54 47.7812H109.355L107.692 55.6016C107.354 57.1927 107.409 58.4115 107.857 59.2578C108.374 60.2227 109.398 60.7051 110.93 60.7051C112.132 60.7051 113.219 60.32 114.192 59.5498C114.886 58.9997 115.428 58.348 115.817 57.5947C116.131 56.9938 116.384 56.2279 116.579 55.2969L118.179 47.7812H119.994L119.905 48.2002C119.931 48.1833 119.956 48.1663 119.981 48.1494C120.337 47.904 120.574 47.6035 120.692 47.248H119.918L120.413 44.9629H122.647L122.14 47.3242C121.996 47.7389 121.822 48.0859 121.619 48.3652C121.424 48.6361 121.204 48.8646 120.959 49.0508C120.722 49.237 120.515 49.3851 120.337 49.4951C120.159 49.5967 119.901 49.7321 119.562 49.9014L119.55 49.8887ZM134.403 54.8018C134.733 53.2445 134.475 51.8988 133.629 50.7646C132.766 49.6221 131.56 49.0508 130.011 49.0508C128.42 49.0508 126.955 49.6432 125.618 50.8281C124.306 51.9792 123.481 53.3545 123.143 54.9541C122.804 56.5114 123.062 57.8571 123.917 58.9912C124.772 60.1338 125.978 60.7051 127.535 60.7051C129.143 60.7051 130.616 60.1211 131.953 58.9531C133.24 57.8105 134.056 56.4268 134.403 54.8018ZM135.229 49.7871C136.295 51.2259 136.621 52.9229 136.206 54.8779C135.774 56.9176 134.67 58.6696 132.893 60.1338C131.115 61.6064 129.207 62.3428 127.167 62.3428C125.161 62.3428 123.578 61.6149 122.419 60.1592C121.259 58.7035 120.891 56.9769 121.314 54.9795C121.755 52.9144 122.851 51.1413 124.603 49.6602C126.371 48.1621 128.284 47.4131 130.341 47.4131C131.932 47.4131 133.252 47.8659 134.302 48.7715C134.437 48.7122 134.543 48.6657 134.619 48.6318C134.797 48.5557 135.063 48.3949 135.419 48.1494C135.783 47.904 136.024 47.6035 136.143 47.248H135.368L135.851 44.9629H138.085L137.577 47.3242C137.433 47.7389 137.26 48.0859 137.057 48.3652C136.862 48.6361 136.646 48.8646 136.409 49.0508C136.172 49.237 135.965 49.3809 135.787 49.4824C135.643 49.5671 135.457 49.6686 135.229 49.7871ZM148.152 62L149.815 54.1797C149.976 53.418 150.023 52.7155 149.955 52.0723C149.887 51.319 149.663 50.7181 149.282 50.2695C148.597 49.457 147.657 49.0508 146.464 49.0508C145.262 49.0508 144.141 49.457 143.1 50.2695C142.541 50.7096 142.071 51.2936 141.69 52.0215C141.36 52.6478 141.119 53.3206 140.967 54.04L139.278 62H137.463L140.484 47.7812H142.3L141.919 49.5967H141.97C143.214 48.141 144.826 47.4131 146.807 47.4131C148.796 47.4131 150.213 48.0479 151.06 49.3174C151.872 50.5361 152.062 52.1569 151.631 54.1797L149.968 62H148.152ZM167.868 59.7656C167.75 60.3073 167.635 60.7686 167.525 61.1494C167.39 61.6403 167.242 62.0846 167.081 62.4824C166.683 63.4303 166.146 64.2555 165.469 64.958C163.768 66.71 161.698 67.5859 159.261 67.5859C157.517 67.5859 156.095 67.1374 154.995 66.2402C153.853 65.3177 153.218 64.027 153.091 62.3682H155.021C155.461 64.7549 156.98 65.9482 159.578 65.9482C161.169 65.9482 162.536 65.4616 163.679 64.4883C164.796 63.5319 165.524 62.2539 165.862 60.6543L166.129 59.3975H166.078C165.376 60.3454 164.445 61.0817 163.285 61.6064C162.21 62.0973 161.102 62.3428 159.959 62.3428C157.894 62.3428 156.294 61.6276 155.16 60.1973C154.009 58.7585 153.654 57.0107 154.094 54.9541C154.534 52.8805 155.63 51.1074 157.382 49.6348C159.142 48.1536 161.059 47.4131 163.133 47.4131C165.536 47.4131 167.161 48.3822 168.008 50.3203H168.059L168.592 47.7812H170.407L167.868 59.7656ZM167.183 54.9033C167.521 53.3206 167.271 51.9538 166.434 50.8027C165.579 49.6348 164.364 49.0508 162.79 49.0508C161.207 49.0508 159.747 49.6348 158.41 50.8027C157.09 51.9368 156.26 53.3037 155.922 54.9033C155.583 56.486 155.833 57.8402 156.671 58.9658C157.517 60.1253 158.732 60.7051 160.314 60.7051C161.872 60.7051 163.327 60.1253 164.682 58.9658C166.01 57.8317 166.844 56.4775 167.183 54.9033ZM186.949 62L183.471 56.3887L180.551 59.2959L179.979 62H178.164L182.252 42.7539H184.067L181.16 56.4648H181.211L189.691 47.7812H192.027L184.893 54.9541L189.298 62H186.949ZM201.688 62L203.352 54.1797C203.512 53.418 203.559 52.7155 203.491 52.0723C203.424 51.319 203.199 50.7181 202.818 50.2695C202.133 49.457 201.193 49.0508 200 49.0508C198.798 49.0508 197.677 49.457 196.636 50.2695C196.077 50.7096 195.607 51.2936 195.227 52.0215C194.896 52.6478 194.655 53.3206 194.503 54.04L192.814 62H190.999L195.087 42.7539H196.902L195.455 49.5967H195.506C196.75 48.141 198.362 47.4131 200.343 47.4131C202.332 47.4131 203.749 48.0479 204.596 49.3174C205.408 50.5361 205.599 52.1569 205.167 54.1797L203.504 62H201.688ZM222.737 54.8779C222.306 56.9176 221.201 58.6696 219.424 60.1338C217.646 61.6064 215.738 62.3428 213.698 62.3428C211.692 62.3428 210.11 61.6149 208.95 60.1592C207.791 58.7035 207.423 56.9769 207.846 54.9795C208.286 52.9144 209.382 51.1413 211.134 49.6602C212.903 48.1621 214.815 47.4131 216.872 47.4131C218.895 47.4131 220.486 48.1494 221.646 49.6221C222.805 51.0947 223.169 52.8467 222.737 54.8779ZM220.935 54.8018C221.265 53.2445 221.007 51.8988 220.16 50.7646C219.297 49.6221 218.091 49.0508 216.542 49.0508C214.951 49.0508 213.487 49.6432 212.149 50.8281C210.838 51.9792 210.012 53.3545 209.674 54.9541C209.335 56.5114 209.593 57.8571 210.448 58.9912C211.303 60.1338 212.509 60.7051 214.066 60.7051C215.674 60.7051 217.147 60.1211 218.484 58.9531C219.771 57.8105 220.588 56.4268 220.935 54.8018ZM219.614 45.3818L217.786 43.4902L215.095 45.3818H212.721L217.177 42.1318H218.891L221.925 45.3818H219.614ZM234.684 62L236.347 54.1797C236.507 53.418 236.554 52.7155 236.486 52.0723C236.419 51.319 236.194 50.7181 235.813 50.2695C235.128 49.457 234.188 49.0508 232.995 49.0508C231.793 49.0508 230.672 49.457 229.631 50.2695C229.072 50.7096 228.603 51.2936 228.222 52.0215C227.892 52.6478 227.65 53.3206 227.498 54.04L225.81 62H223.994L227.016 47.7812H228.831L228.45 49.5967H228.501C229.745 48.141 231.357 47.4131 233.338 47.4131C235.327 47.4131 236.744 48.0479 237.591 49.3174C238.403 50.5361 238.594 52.1569 238.162 54.1797L236.499 62H234.684ZM254.399 59.7656C254.281 60.3073 254.167 60.7686 254.057 61.1494C253.921 61.6403 253.773 62.0846 253.612 62.4824C253.215 63.4303 252.677 64.2555 252 64.958C250.299 66.71 248.229 67.5859 245.792 67.5859C244.049 67.5859 242.627 67.1374 241.526 66.2402C240.384 65.3177 239.749 64.027 239.622 62.3682H241.552C241.992 64.7549 243.511 65.9482 246.109 65.9482C247.701 65.9482 249.067 65.4616 250.21 64.4883C251.327 63.5319 252.055 62.2539 252.394 60.6543L252.66 59.3975H252.609C251.907 60.3454 250.976 61.0817 249.816 61.6064C248.742 62.0973 247.633 62.3428 246.49 62.3428C244.425 62.3428 242.826 61.6276 241.691 60.1973C240.54 58.7585 240.185 57.0107 240.625 54.9541C241.065 52.8805 242.161 51.1074 243.913 49.6348C245.674 48.1536 247.59 47.4131 249.664 47.4131C252.068 47.4131 253.693 48.3822 254.539 50.3203H254.59L255.123 47.7812H256.938L254.399 59.7656ZM253.714 54.9033C254.052 53.3206 253.803 51.9538 252.965 50.8027C252.11 49.6348 250.896 49.0508 249.321 49.0508C247.739 49.0508 246.279 49.6348 244.941 50.8027C243.621 51.9368 242.792 53.3037 242.453 54.9033C242.115 56.486 242.364 57.8402 243.202 58.9658C244.049 60.1253 245.263 60.7051 246.846 60.7051C248.403 60.7051 249.859 60.1253 251.213 58.9658C252.542 57.8317 253.375 56.4775 253.714 54.9033ZM279.536 57.8105C277.361 60.832 274.682 62.3428 271.5 62.3428C269.384 62.3428 267.738 61.6318 266.562 60.21C265.368 58.7712 264.996 57.0023 265.444 54.9033C265.884 52.8213 267.014 51.0482 268.834 49.584C270.637 48.1367 272.583 47.4131 274.674 47.4131C276.24 47.4131 277.573 47.8236 278.673 48.6445C279.79 49.4909 280.484 50.6335 280.755 52.0723H278.749C278.123 50.0579 276.667 49.0508 274.382 49.0508C272.748 49.0508 271.246 49.6094 269.875 50.7266C268.487 51.8438 267.619 53.2191 267.272 54.8525C266.917 56.5029 267.188 57.891 268.085 59.0166C268.982 60.1423 270.256 60.7051 271.906 60.7051C274.251 60.7051 276.125 59.7402 277.53 57.8105H279.536ZM297.183 54.8779C296.751 56.9176 295.646 58.6696 293.869 60.1338C292.092 61.6064 290.183 62.3428 288.144 62.3428C286.138 62.3428 284.555 61.6149 283.396 60.1592C282.236 58.7035 281.868 56.9769 282.291 54.9795C282.731 52.9144 283.827 51.1413 285.579 49.6602C287.348 48.1621 289.261 47.4131 291.317 47.4131C293.34 47.4131 294.931 48.1494 296.091 49.6221C297.25 51.0947 297.614 52.8467 297.183 54.8779ZM295.38 54.8018C295.71 53.2445 295.452 51.8988 294.605 50.7646C293.742 49.6221 292.536 49.0508 290.987 49.0508C289.396 49.0508 287.932 49.6432 286.595 50.8281C285.283 51.9792 284.458 53.3545 284.119 54.9541C283.781 56.5114 284.039 57.8571 284.894 58.9912C285.748 60.1338 286.954 60.7051 288.512 60.7051C290.12 60.7051 291.592 60.1211 292.93 58.9531C294.216 57.8105 295.033 56.4268 295.38 54.8018ZM293.679 45.9023L289.134 43.1221L290.302 41.5605L294.859 44.4043L293.679 45.9023ZM309.129 62L310.792 54.1797C310.953 53.418 310.999 52.7155 310.932 52.0723C310.864 51.319 310.64 50.7181 310.259 50.2695C309.573 49.457 308.634 49.0508 307.44 49.0508C306.239 49.0508 305.117 49.457 304.076 50.2695C303.518 50.7096 303.048 51.2936 302.667 52.0215C302.337 52.6478 302.096 53.3206 301.943 54.04L300.255 62H298.439L301.461 47.7812H303.276L302.896 49.5967H302.946C304.19 48.141 305.803 47.4131 307.783 47.4131C309.772 47.4131 311.19 48.0479 312.036 49.3174C312.849 50.5361 313.039 52.1569 312.607 54.1797L310.944 62H309.129ZM332.209 62L333.872 54.1797C334.033 53.418 334.079 52.7155 334.012 52.0723C333.944 51.319 333.72 50.7181 333.339 50.2695C332.653 49.457 331.714 49.0508 330.521 49.0508C329.319 49.0508 328.197 49.457 327.156 50.2695C326.598 50.7096 326.128 51.2936 325.747 52.0215C325.417 52.6478 325.176 53.3206 325.023 54.04L323.335 62H321.52L324.541 47.7812H326.356L325.976 49.5967H326.026C327.271 48.141 328.883 47.4131 330.863 47.4131C332.852 47.4131 334.27 48.0479 335.116 49.3174C335.929 50.5361 336.119 52.1569 335.688 54.1797L334.024 62H332.209ZM353.169 54.8779C352.737 56.9176 351.633 58.6696 349.855 60.1338C348.078 61.6064 346.17 62.3428 344.13 62.3428C342.124 62.3428 340.541 61.6149 339.382 60.1592C338.222 58.7035 337.854 56.9769 338.277 54.9795C338.717 52.9144 339.813 51.1413 341.565 49.6602C343.334 48.1621 345.247 47.4131 347.304 47.4131C349.326 47.4131 350.918 48.1494 352.077 49.6221C353.237 51.0947 353.601 52.8467 353.169 54.8779ZM351.366 54.8018C351.696 53.2445 351.438 51.8988 350.592 50.7646C349.729 49.6221 348.522 49.0508 346.974 49.0508C345.382 49.0508 343.918 49.6432 342.581 50.8281C341.269 51.9792 340.444 53.3545 340.105 54.9541C339.767 56.5114 340.025 57.8571 340.88 58.9912C341.735 60.1338 342.941 60.7051 344.498 60.7051C346.106 60.7051 347.579 60.1211 348.916 58.9531C350.202 57.8105 351.019 56.4268 351.366 54.8018ZM354.324 40.8877C353.266 41.5648 352.344 41.9033 351.557 41.9033C351.21 41.9033 350.863 41.8483 350.516 41.7383C350.287 41.6621 349.999 41.5394 349.652 41.3701L348.853 41.002C348.556 40.8919 348.277 40.8369 348.015 40.8369C347.405 40.8369 346.771 41.0951 346.11 41.6113L345.476 40.3164C346.415 39.5885 347.393 39.2246 348.408 39.2246C348.747 39.2246 349.085 39.2796 349.424 39.3896C349.644 39.4658 349.923 39.5885 350.262 39.7578C350.287 39.7663 350.321 39.7832 350.363 39.8086C350.406 39.8255 350.435 39.8424 350.452 39.8594C350.528 39.8932 350.596 39.9229 350.655 39.9482L351.049 40.126C351.337 40.236 351.612 40.291 351.874 40.291C352.145 40.291 352.45 40.2148 352.788 40.0625L353.436 39.7324L353.651 39.6182L354.324 40.8877ZM350.046 45.3818L348.218 43.4902L345.526 45.3818H343.152L347.608 42.1318H349.322L352.356 45.3818H350.046ZM357.815 46.042L358.514 42.7539H360.329L359.631 46.042H357.815ZM354.426 62L357.447 47.7812H359.263L356.241 62H354.426ZM366.842 62L370.93 42.7539H372.745L368.657 62H366.842ZM387.827 54.8779C387.396 56.9176 386.291 58.6696 384.514 60.1338C382.736 61.6064 380.828 62.3428 378.788 62.3428C376.782 62.3428 375.2 61.6149 374.04 60.1592C372.881 58.7035 372.512 56.9769 372.936 54.9795C373.376 52.9144 374.472 51.1413 376.224 49.6602C377.993 48.1621 379.905 47.4131 381.962 47.4131C383.985 47.4131 385.576 48.1494 386.735 49.6221C387.895 51.0947 388.259 52.8467 387.827 54.8779ZM386.024 54.8018C386.354 53.2445 386.096 51.8988 385.25 50.7646C384.387 49.6221 383.181 49.0508 381.632 49.0508C380.041 49.0508 378.576 49.6432 377.239 50.8281C375.927 51.9792 375.102 53.3545 374.764 54.9541C374.425 56.5114 374.683 57.8571 375.538 58.9912C376.393 60.1338 377.599 60.7051 379.156 60.7051C380.764 60.7051 382.237 60.1211 383.574 58.9531C384.861 57.8105 385.677 56.4268 386.024 54.8018ZM415.452 62L417.204 53.7607C417.5 52.3812 417.441 51.2809 417.026 50.46C416.552 49.5205 415.655 49.0508 414.335 49.0508C413.015 49.0508 411.919 49.5205 411.047 50.46C410.285 51.2809 409.756 52.3812 409.46 53.7607L407.708 62H405.893L407.645 53.7607C407.941 52.3812 407.877 51.2809 407.454 50.46C406.989 49.5205 406.096 49.0508 404.775 49.0508C403.447 49.0508 402.346 49.5205 401.475 50.46C400.713 51.2809 400.184 52.3812 399.888 53.7607L398.136 62H396.32L399.342 47.7812H401.157L400.814 49.4189C401.94 48.0817 403.375 47.4131 405.118 47.4131C407.285 47.4131 408.686 48.3229 409.32 50.1426C410.844 48.3229 412.63 47.4131 414.678 47.4131C416.455 47.4131 417.737 48.0013 418.524 49.1777C419.278 50.2949 419.464 51.7507 419.083 53.5449L417.28 62H415.452ZM433.327 62L433.86 59.499H433.81C432.151 61.3949 430.103 62.3428 427.665 62.3428C425.524 62.3428 423.869 61.6276 422.701 60.1973C421.525 58.7669 421.165 56.9854 421.622 54.8525C422.071 52.7367 423.196 50.9635 424.999 49.5332C426.776 48.1198 428.723 47.4131 430.839 47.4131C433.319 47.4131 434.961 48.3652 435.765 50.2695H435.815L436.349 47.7812H438.177L435.155 62H433.327ZM434.952 54.9033C435.291 53.3037 435.037 51.9326 434.19 50.79C433.327 49.6305 432.096 49.0508 430.496 49.0508C428.812 49.0508 427.301 49.6094 425.964 50.7266C424.627 51.8438 423.776 53.2445 423.412 54.9287C423.065 56.5876 423.327 57.9671 424.199 59.0674C425.079 60.1592 426.353 60.7051 428.021 60.7051C429.62 60.7051 431.093 60.1338 432.438 58.9912C433.776 57.8656 434.614 56.5029 434.952 54.9033ZM435.676 43.6172L435.13 42.1191L440.906 39.2754L441.401 40.8369L435.676 43.6172ZM433.721 45.3818L431.88 43.4902L429.188 45.3818H426.827L431.296 42.1318H433.01L436.031 45.3818H433.721ZM444.601 49.4189L441.922 62H440.106L442.785 49.4189H439.789L440.132 47.7812H443.128L444.207 42.7539H446.022L444.943 47.7812H448.346L448.003 49.4189H444.601ZM463.034 49.3428C460.275 49.5628 458.612 51.0101 458.045 53.6846L456.28 62H454.465L457.486 47.7812H459.302L458.87 49.8379H458.921C459.471 48.9831 460.14 48.3652 460.927 47.9844C461.562 47.6797 462.399 47.4893 463.44 47.4131L463.034 49.3428ZM474.917 62L475.45 59.499H475.399C473.741 61.3949 471.692 62.3428 469.255 62.3428C467.114 62.3428 465.459 61.6276 464.291 60.1973C463.115 58.7669 462.755 56.9854 463.212 54.8525C463.66 52.7367 464.786 50.9635 466.589 49.5332C468.366 48.1198 470.313 47.4131 472.429 47.4131C474.909 47.4131 476.55 48.3652 477.354 50.2695H477.405L477.938 47.7812H479.767L476.745 62H474.917ZM476.542 54.9033C476.881 53.3037 476.627 51.9326 475.78 50.79C474.917 49.6305 473.686 49.0508 472.086 49.0508C470.402 49.0508 468.891 49.6094 467.554 50.7266C466.216 51.8438 465.366 53.2445 465.002 54.9287C464.655 56.5876 464.917 57.9671 465.789 59.0674C466.669 60.1592 467.943 60.7051 469.61 60.7051C471.21 60.7051 472.683 60.1338 474.028 58.9912C475.366 57.8656 476.203 56.5029 476.542 54.9033ZM478.18 43.0713C477.63 44.0107 476.876 44.709 475.92 45.166C475.09 45.5553 474.134 45.75 473.051 45.75C471.976 45.75 471.108 45.5553 470.448 45.166C469.687 44.7174 469.238 44.0192 469.103 43.0713H470.791C471.206 43.8669 472.065 44.2646 473.368 44.2646C473.944 44.2646 474.49 44.1758 475.006 43.998C475.598 43.7949 476.093 43.486 476.491 43.0713H478.18ZM490.723 62L492.386 54.1797C492.547 53.418 492.593 52.7155 492.525 52.0723C492.458 51.319 492.233 50.7181 491.853 50.2695C491.167 49.457 490.228 49.0508 489.034 49.0508C487.832 49.0508 486.711 49.457 485.67 50.2695C485.111 50.7096 484.642 51.2936 484.261 52.0215C483.931 52.6478 483.689 53.3206 483.537 54.04L481.849 62H480.033L483.055 47.7812H484.87L484.489 49.5967H484.54C485.784 48.141 487.396 47.4131 489.377 47.4131C491.366 47.4131 492.784 48.0479 493.63 49.3174C494.442 50.5361 494.633 52.1569 494.201 54.1797L492.538 62H490.723ZM510.438 59.7656C510.32 60.3073 510.206 60.7686 510.096 61.1494C509.96 61.6403 509.812 62.0846 509.651 62.4824C509.254 63.4303 508.716 64.2555 508.039 64.958C506.338 66.71 504.269 67.5859 501.831 67.5859C500.088 67.5859 498.666 67.1374 497.565 66.2402C496.423 65.3177 495.788 64.027 495.661 62.3682H497.591C498.031 64.7549 499.55 65.9482 502.148 65.9482C503.74 65.9482 505.106 65.4616 506.249 64.4883C507.366 63.5319 508.094 62.2539 508.433 60.6543L508.699 59.3975H508.648C507.946 60.3454 507.015 61.0817 505.855 61.6064C504.781 62.0973 503.672 62.3428 502.529 62.3428C500.464 62.3428 498.865 61.6276 497.73 60.1973C496.579 58.7585 496.224 57.0107 496.664 54.9541C497.104 52.8805 498.2 51.1074 499.952 49.6348C501.713 48.1536 503.63 47.4131 505.703 47.4131C508.107 47.4131 509.732 48.3822 510.578 50.3203H510.629L511.162 47.7812H512.978L510.438 59.7656ZM509.753 54.9033C510.091 53.3206 509.842 51.9538 509.004 50.8027C508.149 49.6348 506.935 49.0508 505.36 49.0508C503.778 49.0508 502.318 49.6348 500.98 50.8027C499.66 51.9368 498.831 53.3037 498.492 54.9033C498.154 56.486 498.403 57.8402 499.241 58.9658C500.088 60.1253 501.302 60.7051 502.885 60.7051C504.442 60.7051 505.898 60.1253 507.252 58.9658C508.581 57.8317 509.414 56.4775 509.753 54.9033ZM513.625 63.7393H511.695L515.047 58.7246H516.977L513.625 63.7393ZM540.45 62L540.983 59.499H540.933C539.274 61.3949 537.226 62.3428 534.788 62.3428C532.647 62.3428 530.992 61.6276 529.824 60.1973C528.648 58.7669 528.288 56.9854 528.745 54.8525C529.194 52.7367 530.319 50.9635 532.122 49.5332C533.899 48.1198 535.846 47.4131 537.962 47.4131C540.442 47.4131 542.084 48.3652 542.888 50.2695H542.938L543.472 47.7812H545.3L542.278 62H540.45ZM542.075 54.9033C542.414 53.3037 542.16 51.9326 541.313 50.79C540.45 49.6305 539.219 49.0508 537.619 49.0508C535.935 49.0508 534.424 49.6094 533.087 50.7266C531.75 51.8438 530.899 53.2445 530.535 54.9287C530.188 56.5876 530.451 57.9671 531.322 59.0674C532.202 60.1592 533.476 60.7051 535.144 60.7051C536.743 60.7051 538.216 60.1338 539.562 58.9912C540.899 57.8656 541.737 56.5029 542.075 54.9033ZM543.713 43.0713C543.163 44.0107 542.41 44.709 541.453 45.166C540.624 45.5553 539.667 45.75 538.584 45.75C537.509 45.75 536.642 45.5553 535.981 45.166C535.22 44.7174 534.771 44.0192 534.636 43.0713H536.324C536.739 43.8669 537.598 44.2646 538.901 44.2646C539.477 44.2646 540.023 44.1758 540.539 43.998C541.132 43.7949 541.627 43.486 542.024 43.0713H543.713ZM556.256 62L557.919 54.1797C558.08 53.418 558.126 52.7155 558.059 52.0723C557.991 51.319 557.767 50.7181 557.386 50.2695C556.7 49.457 555.761 49.0508 554.567 49.0508C553.366 49.0508 552.244 49.457 551.203 50.2695C550.645 50.7096 550.175 51.2936 549.794 52.0215C549.464 52.6478 549.223 53.3206 549.07 54.04L547.382 62H545.566L548.588 47.7812H550.403L550.022 49.5967H550.073C551.317 48.141 552.93 47.4131 554.91 47.4131C556.899 47.4131 558.317 48.0479 559.163 49.3174C559.976 50.5361 560.166 52.1569 559.734 54.1797L558.071 62H556.256ZM579.336 62L580.999 54.1797C581.16 53.418 581.206 52.7155 581.139 52.0723C581.071 51.319 580.847 50.7181 580.466 50.2695C579.78 49.457 578.841 49.0508 577.647 49.0508C576.446 49.0508 575.324 49.457 574.283 50.2695C573.725 50.7096 573.255 51.2936 572.874 52.0215C572.544 52.6478 572.303 53.3206 572.15 54.04L570.462 62H568.646L571.668 47.7812H573.483L573.103 49.5967H573.153C574.397 48.141 576.01 47.4131 577.99 47.4131C579.979 47.4131 581.397 48.0479 582.243 49.3174C583.056 50.5361 583.246 52.1569 582.814 54.1797L581.151 62H579.336ZM595.116 62L596.779 54.1797C596.94 53.418 596.987 52.7155 596.919 52.0723C596.851 51.319 596.627 50.7181 596.246 50.2695C595.561 49.457 594.621 49.0508 593.428 49.0508C592.226 49.0508 591.104 49.457 590.063 50.2695C589.505 50.7096 589.035 51.2936 588.654 52.0215C588.324 52.6478 588.083 53.3206 587.931 54.04L586.242 62H584.427L588.515 42.7539H590.33L588.883 49.5967H588.934C590.178 48.141 591.79 47.4131 593.771 47.4131C595.759 47.4131 597.177 48.0479 598.023 49.3174C598.836 50.5361 599.026 52.1569 598.595 54.1797L596.932 62H595.116ZM613.017 62L613.55 59.499H613.499C611.84 61.3949 609.792 62.3428 607.354 62.3428C605.213 62.3428 603.559 61.6276 602.391 60.1973C601.214 58.7669 600.854 56.9854 601.312 54.8525C601.76 52.7367 602.886 50.9635 604.688 49.5332C606.466 48.1198 608.412 47.4131 610.528 47.4131C613.008 47.4131 614.65 48.3652 615.454 50.2695H615.505L616.038 47.7812H617.866L614.845 62H613.017ZM614.642 54.9033C614.98 53.3037 614.726 51.9326 613.88 50.79C613.017 49.6305 611.785 49.0508 610.186 49.0508C608.501 49.0508 606.991 49.6094 605.653 50.7266C604.316 51.8438 603.465 53.2445 603.102 54.9287C602.755 56.5876 603.017 57.9671 603.889 59.0674C604.769 60.1592 606.043 60.7051 607.71 60.7051C609.31 60.7051 610.782 60.1338 612.128 58.9912C613.465 57.8656 614.303 56.5029 614.642 54.9033ZM621.522 46.042L622.221 42.7539H624.036L623.338 46.042H621.522ZM618.133 62L621.154 47.7812H622.97L619.948 62H618.133ZM633.139 66.9893H631.247L634.865 61.5303L632.263 47.7812H634.192L636.3 59.1182L643.549 47.7812H645.466L633.139 66.9893ZM659.964 55.5508H647.015C646.786 56.9473 647.116 58.1576 648.005 59.1816C648.885 60.1973 650.028 60.7051 651.433 60.7051C652.55 60.7051 653.637 60.4089 654.695 59.8164C655.796 59.1986 656.646 58.3734 657.247 57.3408H659.177C658.33 58.8304 657.167 60.0365 655.686 60.959C654.204 61.8815 652.681 62.3428 651.115 62.3428C649.067 62.3428 647.472 61.6107 646.329 60.1465C645.195 58.6992 644.844 56.9515 645.275 54.9033C645.715 52.8636 646.812 51.1074 648.563 49.6348C650.332 48.1536 652.232 47.4131 654.264 47.4131C656.329 47.4131 657.928 48.1706 659.062 49.6855C660.188 51.1836 660.531 52.9652 660.091 55.0303L659.964 55.5508ZM658.466 53.9131C658.525 52.5081 658.14 51.3486 657.311 50.4346C656.473 49.512 655.347 49.0508 653.934 49.0508C652.529 49.0508 651.208 49.512 649.973 50.4346C648.754 51.3486 647.882 52.5081 647.357 53.9131H658.466ZM658.428 43.4775L657.895 41.9795L663.658 39.1357L664.166 40.6973L658.428 43.4775ZM657.057 45.3818L655.229 43.4902L652.537 45.3818H650.163L654.619 42.1318H656.333L659.367 45.3818H657.057ZM672.05 62L672.52 59.791H672.469C671.893 60.6289 671.127 61.2721 670.171 61.7207C669.299 62.1354 668.368 62.3428 667.378 62.3428C665.245 62.3428 663.764 61.6318 662.935 60.21C662.596 59.6175 662.418 58.8939 662.401 58.0391C662.384 57.3451 662.473 56.541 662.668 55.627L664.331 47.7812H666.146L664.483 55.6016C664.145 57.1927 664.2 58.4115 664.648 59.2578C665.165 60.2227 666.189 60.7051 667.721 60.7051C668.923 60.7051 670.01 60.32 670.983 59.5498C671.677 58.9997 672.219 58.348 672.608 57.5947C672.922 56.9938 673.175 56.2279 673.37 55.2969L674.97 47.7812H676.785L673.764 62H672.05ZM690.928 62H688.922L685.938 47.7812H687.894L690.369 59.7402L697.999 47.7812H699.954L690.928 62ZM711.456 62L711.989 59.499H711.938C710.28 61.3949 708.231 62.3428 705.794 62.3428C703.653 62.3428 701.998 61.6276 700.83 60.1973C699.654 58.7669 699.294 56.9854 699.751 54.8525C700.2 52.7367 701.325 50.9635 703.128 49.5332C704.905 48.1198 706.852 47.4131 708.968 47.4131C711.448 47.4131 713.09 48.3652 713.894 50.2695H713.944L714.478 47.7812H716.306L713.284 62H711.456ZM713.081 54.9033C713.42 53.3037 713.166 51.9326 712.319 50.79C711.456 49.6305 710.225 49.0508 708.625 49.0508C706.941 49.0508 705.43 49.6094 704.093 50.7266C702.756 51.8438 701.905 53.2445 701.541 54.9287C701.194 56.5876 701.456 57.9671 702.328 59.0674C703.208 60.1592 704.482 60.7051 706.149 60.7051C707.749 60.7051 709.222 60.1338 710.567 58.9912C711.905 57.8656 712.743 56.5029 713.081 54.9033ZM711.469 45.9023L706.924 43.1221L708.079 41.5605L712.649 44.4043L711.469 45.9023ZM268.529 97.001C267.911 99.8955 266.113 101.343 263.134 101.343C261.864 101.343 260.908 100.928 260.265 100.099C259.621 99.2692 259.435 98.2197 259.706 96.9502L259.744 96.7852H261.56C261.179 98.7318 261.822 99.7051 263.489 99.7051C265.258 99.7051 266.32 98.8545 266.676 97.1533C266.854 96.3239 266.655 95.6637 266.079 95.1729C265.851 94.9782 265.533 94.7878 265.127 94.6016L264.022 94.1318C263.557 93.9372 263.189 93.7637 262.918 93.6113C262.537 93.3913 262.237 93.1543 262.017 92.9004C261.458 92.2741 261.293 91.4277 261.521 90.3613C261.767 89.2018 262.355 88.2539 263.286 87.5176C264.2 86.7812 265.241 86.4131 266.409 86.4131C267.501 86.4131 268.343 86.7855 268.936 87.5303C269.52 88.2751 269.693 89.1934 269.456 90.2852H267.641C267.869 88.7956 267.319 88.0508 265.99 88.0508C264.551 88.0508 263.68 88.7617 263.375 90.1836C263.223 90.8945 263.447 91.4616 264.048 91.8848C264.276 92.0456 264.594 92.2106 265 92.3799L265.267 92.4941C265.334 92.5195 265.432 92.5576 265.559 92.6084L266.117 92.8369C266.566 93.0316 266.93 93.2178 267.209 93.3955C267.59 93.624 267.886 93.8822 268.098 94.1699C268.639 94.8724 268.783 95.8161 268.529 97.001ZM278.165 84.9023L277.619 83.4043L283.396 80.5605L283.891 82.1221L278.165 84.9023ZM284.932 88.8887L282.354 101H280.641L281.11 98.791H281.06C280.484 99.6289 279.718 100.272 278.762 100.721C277.89 101.135 276.959 101.343 275.969 101.343C273.836 101.343 272.355 100.632 271.525 99.21C271.187 98.6175 271.009 97.8939 270.992 97.0391C270.975 96.3451 271.064 95.541 271.259 94.627L272.922 86.7812H274.737L273.074 94.6016C272.736 96.1927 272.791 97.4115 273.239 98.2578C273.756 99.2227 274.78 99.7051 276.312 99.7051C277.513 99.7051 278.601 99.32 279.574 98.5498C280.268 97.9997 280.81 97.348 281.199 96.5947C281.512 95.9938 281.766 95.2279 281.961 94.2969L283.561 86.7812H285.376L285.287 87.2002C285.312 87.1833 285.338 87.1663 285.363 87.1494C285.719 86.904 285.956 86.6035 286.074 86.248H285.3L285.795 83.9629H288.029L287.521 86.3242C287.378 86.7389 287.204 87.0859 287.001 87.3652C286.806 87.6361 286.586 87.8646 286.341 88.0508C286.104 88.237 285.896 88.3851 285.719 88.4951C285.541 88.5967 285.283 88.7321 284.944 88.9014L284.932 88.8887ZM300.775 96.8105C298.6 99.832 295.922 101.343 292.739 101.343C290.623 101.343 288.977 100.632 287.801 99.21C286.607 97.7712 286.235 96.0023 286.684 93.9033C287.124 91.8213 288.254 90.0482 290.073 88.584C291.876 87.1367 293.823 86.4131 295.913 86.4131C297.479 86.4131 298.812 86.8236 299.912 87.6445C301.029 88.4909 301.723 89.6335 301.994 91.0723H299.988C299.362 89.0579 297.906 88.0508 295.621 88.0508C293.988 88.0508 292.485 88.6094 291.114 89.7266C289.726 90.8438 288.859 92.2191 288.512 93.8525C288.156 95.5029 288.427 96.891 289.324 98.0166C290.221 99.1423 291.495 99.7051 293.146 99.7051C295.49 99.7051 297.365 98.7402 298.77 96.8105H300.775ZM318.765 101L315.286 95.3887L312.366 98.2959L311.795 101H309.979L314.067 81.7539H315.883L312.976 95.4648H313.026L321.507 86.7812H323.843L316.708 93.9541L321.113 101H318.765ZM333.504 101L335.167 93.1797C335.328 92.418 335.374 91.7155 335.307 91.0723C335.239 90.319 335.015 89.7181 334.634 89.2695C333.948 88.457 333.009 88.0508 331.815 88.0508C330.614 88.0508 329.492 88.457 328.451 89.2695C327.893 89.7096 327.423 90.2936 327.042 91.0215C326.712 91.6478 326.471 92.3206 326.318 93.04L324.63 101H322.814L326.902 81.7539H328.718L327.271 88.5967H327.321C328.565 87.141 330.178 86.4131 332.158 86.4131C334.147 86.4131 335.565 87.0479 336.411 88.3174C337.224 89.5361 337.414 91.1569 336.982 93.1797L335.319 101H333.504ZM354.553 93.8779C354.121 95.9176 353.017 97.6696 351.239 99.1338C349.462 100.606 347.553 101.343 345.514 101.343C343.508 101.343 341.925 100.615 340.766 99.1592C339.606 97.7035 339.238 95.9769 339.661 93.9795C340.101 91.9144 341.197 90.1413 342.949 88.6602C344.718 87.1621 346.631 86.4131 348.688 86.4131C350.71 86.4131 352.301 87.1494 353.461 88.6221C354.62 90.0947 354.984 91.8467 354.553 93.8779ZM352.75 93.8018C353.08 92.2445 352.822 90.8988 351.976 89.7646C351.112 88.6221 349.906 88.0508 348.357 88.0508C346.766 88.0508 345.302 88.6432 343.965 89.8281C342.653 90.9792 341.828 92.3545 341.489 93.9541C341.151 95.5114 341.409 96.8571 342.264 97.9912C343.118 99.1338 344.325 99.7051 345.882 99.7051C347.49 99.7051 348.963 99.1211 350.3 97.9531C351.586 96.8105 352.403 95.4268 352.75 93.8018ZM352.56 81.5508C352.475 81.9401 352.276 82.321 351.963 82.6934C351.887 82.7865 351.764 82.9049 351.595 83.0488L351.392 83.2266L350.77 83.7344C350.643 83.8529 350.516 83.9798 350.389 84.1152C350.194 84.3438 350.029 84.7119 349.894 85.2197H348.281L348.357 84.877C348.442 84.4453 348.649 84.0264 348.979 83.6201C349.073 83.5016 349.216 83.3493 349.411 83.1631C349.496 83.0869 349.631 82.9769 349.817 82.833L350.224 82.5029C350.359 82.3844 350.486 82.266 350.604 82.1475C350.782 81.9613 350.896 81.7539 350.947 81.5254C351.023 81.1699 350.973 80.8906 350.795 80.6875C350.592 80.459 350.355 80.3447 350.084 80.3447C349.695 80.3447 349.348 80.5225 349.043 80.8779C348.924 81.0049 348.836 81.1488 348.776 81.3096C348.743 81.4027 348.679 81.6608 348.586 82.084H346.948L347.062 81.5889C347.206 80.9033 347.617 80.2939 348.294 79.7607C348.92 79.2783 349.618 79.0371 350.389 79.0371C351.176 79.0371 351.764 79.2741 352.153 79.748C352.568 80.2643 352.703 80.8652 352.56 81.5508ZM371.285 94.5508H358.336C358.107 95.9473 358.438 97.1576 359.326 98.1816C360.206 99.1973 361.349 99.7051 362.754 99.7051C363.871 99.7051 364.959 99.4089 366.017 98.8164C367.117 98.1986 367.967 97.3734 368.568 96.3408H370.498C369.652 97.8304 368.488 99.0365 367.007 99.959C365.526 100.882 364.002 101.343 362.437 101.343C360.388 101.343 358.793 100.611 357.65 99.1465C356.516 97.6992 356.165 95.9515 356.597 93.9033C357.037 91.8636 358.133 90.1074 359.885 88.6348C361.654 87.1536 363.554 86.4131 365.585 86.4131C367.65 86.4131 369.25 87.1706 370.384 88.6855C371.509 90.1836 371.852 91.9652 371.412 94.0303L371.285 94.5508ZM369.787 92.9131C369.846 91.5081 369.461 90.3486 368.632 89.4346C367.794 88.512 366.668 88.0508 365.255 88.0508C363.85 88.0508 362.53 88.512 361.294 89.4346C360.075 90.3486 359.203 91.5081 358.679 92.9131H369.787ZM388.843 101L385.364 95.3887L382.444 98.2959L381.873 101H380.058L384.146 81.7539H385.961L383.054 95.4648H383.104L391.585 86.7812H393.921L386.786 93.9541L391.191 101H388.843ZM408.457 94.5508H395.508C395.279 95.9473 395.609 97.1576 396.498 98.1816C397.378 99.1973 398.521 99.7051 399.926 99.7051C401.043 99.7051 402.131 99.4089 403.188 98.8164C404.289 98.1986 405.139 97.3734 405.74 96.3408H407.67C406.824 97.8304 405.66 99.0365 404.179 99.959C402.698 100.882 401.174 101.343 399.608 101.343C397.56 101.343 395.965 100.611 394.822 99.1465C393.688 97.6992 393.337 95.9515 393.769 93.9033C394.209 91.8636 395.305 90.1074 397.057 88.6348C398.826 87.1536 400.726 86.4131 402.757 86.4131C404.822 86.4131 406.422 87.1706 407.556 88.6855C408.681 90.1836 409.024 91.9652 408.584 94.0303L408.457 94.5508ZM406.959 92.9131C407.018 91.5081 406.633 90.3486 405.804 89.4346C404.966 88.512 403.84 88.0508 402.427 88.0508C401.022 88.0508 399.701 88.512 398.466 89.4346C397.247 90.3486 396.375 91.5081 395.851 92.9131H406.959ZM401.17 84.9023L400.637 83.4043L406.413 80.5605L406.921 82.1221L401.17 84.9023ZM429.049 101L430.801 92.7607C431.097 91.3812 431.038 90.2809 430.623 89.46C430.149 88.5205 429.252 88.0508 427.932 88.0508C426.611 88.0508 425.515 88.5205 424.644 89.46C423.882 90.2809 423.353 91.3812 423.057 92.7607L421.305 101H419.489L421.241 92.7607C421.537 91.3812 421.474 90.2809 421.051 89.46C420.585 88.5205 419.692 88.0508 418.372 88.0508C417.043 88.0508 415.943 88.5205 415.071 89.46C414.31 90.2809 413.781 91.3812 413.484 92.7607L411.732 101H409.917L412.938 86.7812H414.754L414.411 88.4189C415.537 87.0817 416.971 86.4131 418.715 86.4131C420.882 86.4131 422.282 87.3229 422.917 89.1426C424.44 87.3229 426.226 86.4131 428.274 86.4131C430.052 86.4131 431.334 87.0013 432.121 88.1777C432.874 89.2949 433.061 90.7507 432.68 92.5449L430.877 101H429.049ZM435.244 101L435.942 97.7246H437.872L437.174 101H435.244Z" fill="#2B2B2B"/>
</svg>
