<svg width="710" height="45" viewBox="0 0 710 45" fill="none" xmlns="http://www.w3.org/2000/svg">
<path d="M10 17.0859V44H7.03125V17.0859H0.234375V14.3906H16.7578V17.0859H10ZM39.9023 23.9609C39.9023 26.4479 39.056 28.5378 37.3633 30.2305C35.7096 31.8841 33.6263 32.7956 31.1133 32.9648L39.4727 44H35.7422L25.7031 30.6016L28.9062 30.582C30.2474 30.543 31.3021 30.3997 32.0703 30.1523C35.3255 29.1628 36.9531 27.0729 36.9531 23.8828C36.9531 21.2656 35.8724 19.3711 33.7109 18.1992C32.8646 17.7435 31.9336 17.431 30.918 17.2617C30.1628 17.1445 29.1732 17.0859 27.9492 17.0859H22.793V44H19.8242V14.3906H27.3438C28.0078 14.3906 28.6068 14.4036 29.1406 14.4297C29.8307 14.4688 30.4622 14.5208 31.0352 14.5859C32.4935 14.7682 33.6914 15.0807 34.6289 15.5234C38.1445 17.2161 39.9023 20.0286 39.9023 23.9609ZM74.375 29.1953C74.375 33.4401 72.8125 37.0664 69.6875 40.0742C66.6146 43.043 62.9492 44.5273 58.6914 44.5273C54.4987 44.5273 50.8529 43.056 47.7539 40.1133C44.6159 37.1185 43.0469 33.5312 43.0469 29.3516C43.0469 25.0547 44.5768 21.3958 47.6367 18.375C50.6836 15.3802 54.3685 13.8828 58.6914 13.8828C62.9622 13.8828 66.6341 15.3672 69.707 18.3359C72.819 21.3307 74.375 24.9505 74.375 29.1953ZM71.4062 29.2344C71.4062 25.7578 70.1562 22.776 67.6562 20.2891C65.1562 17.8021 62.168 16.5586 58.6914 16.5586C55.1758 16.5586 52.181 17.8151 49.707 20.3281C47.2461 22.8411 46.0156 25.849 46.0156 29.3516C46.0156 32.763 47.2786 35.6992 49.8047 38.1602C52.3047 40.6081 55.2669 41.832 58.6914 41.832C62.1549 41.832 65.1367 40.6016 67.6367 38.1406C70.1497 35.6797 71.4062 32.7109 71.4062 29.2344ZM63.2227 7.61328L55.293 3.33594L56.582 0.933594L64.5312 5.30859L63.2227 7.61328ZM62.2461 11.9297L58.8086 9L55.293 11.9297H51.6406L57.4414 6.92969H60.0977L65.8008 11.9297H62.2461ZM99.6875 44L82.1289 17.9648H82.0508V44H79.082V14.3906H83.0859L99.6094 38.9609H99.6875V14.3906H102.637V44H99.6875ZM138.809 30.4062C138.483 34.4297 136.803 37.7956 133.77 40.5039C130.762 43.1862 127.227 44.5273 123.164 44.5273C118.906 44.5273 115.208 43.043 112.07 40.0742C108.88 37.0534 107.285 33.4271 107.285 29.1953C107.285 24.9245 108.867 21.2917 112.031 18.2969C115.13 15.3542 118.828 13.8828 123.125 13.8828C128.008 13.8828 132.038 15.6927 135.215 19.3125C136.074 20.276 136.712 21.2656 137.129 22.2812H133.691C132.676 20.5234 131.172 19.1172 129.18 18.0625C127.266 17.0599 125.26 16.5586 123.164 16.5586C119.635 16.5586 116.608 17.7891 114.082 20.25C111.53 22.724 110.254 25.7188 110.254 29.2344C110.254 32.776 111.543 35.7708 114.121 38.2188C116.673 40.6276 119.727 41.832 123.281 41.832C125.951 41.832 128.431 41.0182 130.723 39.3906C133.092 37.7109 134.603 35.6081 135.254 33.082H118.73V30.4062H138.809ZM174.551 23.9609C174.551 26.4479 173.704 28.5378 172.012 30.2305C170.358 31.8841 168.275 32.7956 165.762 32.9648L174.121 44H170.391L160.352 30.6016L163.555 30.582C164.896 30.543 165.951 30.3997 166.719 30.1523C169.974 29.1628 171.602 27.0729 171.602 23.8828C171.602 21.2656 170.521 19.3711 168.359 18.1992C167.513 17.7435 166.582 17.431 165.566 17.2617C164.811 17.1445 163.822 17.0859 162.598 17.0859H157.441V44H154.473V14.3906H161.992C162.656 14.3906 163.255 14.4036 163.789 14.4297C164.479 14.4688 165.111 14.5208 165.684 14.5859C167.142 14.7682 168.34 15.0807 169.277 15.5234C172.793 17.2161 174.551 20.0286 174.551 23.9609ZM201.895 44L197.598 34.0391H183.848L179.531 44H176.445L189.082 14.3906H192.402L205.117 44H201.895ZM190.762 17.7695L184.961 31.3633H196.445L190.762 17.7695ZM197.773 8.39453C197.24 9.83984 196.309 10.9141 194.98 11.6172C193.835 12.2161 192.428 12.5156 190.762 12.5156C189.108 12.5156 187.708 12.2161 186.562 11.6172C185.247 10.9271 184.329 9.85286 183.809 8.39453H186.406C187.305 9.61849 188.757 10.2305 190.762 10.2305C191.647 10.2305 192.454 10.0938 193.184 9.82031C194.043 9.50781 194.701 9.03255 195.156 8.39453H197.773ZM229.18 44L211.621 17.9648H211.543V44H208.574V14.3906H212.578L229.102 38.9609H229.18V14.3906H232.129V44H229.18ZM268.301 30.4062C267.975 34.4297 266.296 37.7956 263.262 40.5039C260.254 43.1862 256.719 44.5273 252.656 44.5273C248.398 44.5273 244.701 43.043 241.562 40.0742C238.372 37.0534 236.777 33.4271 236.777 29.1953C236.777 24.9245 238.359 21.2917 241.523 18.2969C244.622 15.3542 248.32 13.8828 252.617 13.8828C257.5 13.8828 261.53 15.6927 264.707 19.3125C265.566 20.276 266.204 21.2656 266.621 22.2812H263.184C262.168 20.5234 260.664 19.1172 258.672 18.0625C256.758 17.0599 254.753 16.5586 252.656 16.5586C249.128 16.5586 246.1 17.7891 243.574 20.25C241.022 22.724 239.746 25.7188 239.746 29.2344C239.746 32.776 241.035 35.7708 243.613 38.2188C246.165 40.6276 249.219 41.832 252.773 41.832C255.443 41.832 257.923 41.0182 260.215 39.3906C262.585 37.7109 264.095 35.6081 264.746 33.082H248.223V30.4062H268.301ZM284.199 44V14.3906H287.168V44H284.199ZM320.938 44V17.6328H320.859L309.785 44H307.266L296.27 17.6328H296.191V44H293.223V14.3906H297.773L308.535 39.6055L319.336 14.3906H323.906V44H320.938ZM349.492 23.2383C349.492 26.3112 348.268 28.6875 345.82 30.3672C344.805 31.0573 343.581 31.5326 342.148 31.793C341.549 31.8971 340.892 31.9753 340.176 32.0273C339.603 32.0664 338.939 32.0859 338.184 32.0859H332.91V44H329.941V14.3906H338.184C338.939 14.3906 339.603 14.4102 340.176 14.4492C340.892 14.5013 341.549 14.5794 342.148 14.6836C343.581 14.957 344.805 15.4388 345.82 16.1289C348.268 17.7956 349.492 20.1654 349.492 23.2383ZM346.543 23.2383C346.543 20.7253 345.397 18.9284 343.105 17.8477C342.363 17.4831 341.536 17.2552 340.625 17.1641L339.355 17.0859H332.91V29.3906H339.355L340.625 29.3125C341.536 29.2214 342.363 29 343.105 28.6484C345.397 27.5547 346.543 25.7513 346.543 23.2383ZM353.887 44V14.3906H356.855V41.3242H369.082V44H353.887ZM394.316 44L390.02 34.0391H376.27L371.953 44H368.867L381.504 14.3906H384.824L397.539 44H394.316ZM383.184 17.7695L377.383 31.3633H388.867L383.184 17.7695ZM421.602 44L404.043 17.9648H403.965V44H400.996V14.3906H405L421.523 38.9609H421.602V14.3906H424.551V44H421.602ZM437.617 17.0859V44H434.648V17.0859H427.852V14.3906H444.375V17.0859H437.617ZM486.582 36.2461C483.574 41.7669 479.03 44.5273 472.949 44.5273C468.678 44.5273 465.033 43.0495 462.012 40.0938C458.978 37.112 457.461 33.4922 457.461 29.2344C457.461 24.9245 458.958 21.2917 461.953 18.3359C464.935 15.3932 468.587 13.9219 472.91 13.9219C477.585 13.9219 481.478 15.6797 484.59 19.1953C485.449 20.1589 486.074 21.0964 486.465 22.0078H483.145C480.723 18.401 477.292 16.5977 472.852 16.5977C469.479 16.5977 466.556 17.8737 464.082 20.4258C461.647 22.9388 460.43 25.888 460.43 29.2734C460.43 32.6068 461.673 35.5299 464.16 38.043C466.66 40.569 469.577 41.832 472.91 41.832C474.98 41.832 476.927 41.3242 478.75 40.3086C480.443 39.3451 481.947 37.9909 483.262 36.2461H486.582ZM511.426 32.8477C511.426 33.9544 511.348 35.0026 511.191 35.9922C510.996 37.151 510.703 38.1536 510.312 39C508.594 42.6849 505.605 44.5273 501.348 44.5273C497.09 44.5273 494.102 42.6849 492.383 39C491.992 38.1536 491.706 37.151 491.523 35.9922C491.354 35.0026 491.27 33.9544 491.27 32.8477V14.3906H494.238V32.8477C494.238 33.8112 494.303 34.7227 494.434 35.582C494.603 36.6758 494.87 37.5482 495.234 38.1992C496.562 40.6211 498.6 41.832 501.348 41.832C504.095 41.832 506.133 40.6211 507.461 38.1992C507.826 37.5482 508.092 36.6758 508.262 35.582C508.405 34.7227 508.477 33.8112 508.477 32.8477V14.3906H511.426V32.8477ZM503.711 12.7109L495.781 8.43359L497.07 6.03125L505.039 10.4062L503.711 12.7109ZM538.086 44L520.527 17.9648H520.449V44H517.48V14.3906H521.484L538.008 38.9609H538.086V14.3906H541.035V44H538.086ZM577.207 30.4062C576.882 34.4297 575.202 37.7956 572.168 40.5039C569.16 43.1862 565.625 44.5273 561.562 44.5273C557.305 44.5273 553.607 43.043 550.469 40.0742C547.279 37.0534 545.684 33.4271 545.684 29.1953C545.684 24.9245 547.266 21.2917 550.43 18.2969C553.529 15.3542 557.227 13.8828 561.523 13.8828C566.406 13.8828 570.436 15.6927 573.613 19.3125C574.473 20.276 575.111 21.2656 575.527 22.2812H572.09C571.074 20.5234 569.57 19.1172 567.578 18.0625C565.664 17.0599 563.659 16.5586 561.562 16.5586C558.034 16.5586 555.007 17.7891 552.48 20.25C549.928 22.724 548.652 25.7188 548.652 29.2344C548.652 32.776 549.941 35.7708 552.52 38.2188C555.072 40.6276 558.125 41.832 561.68 41.832C564.349 41.832 566.829 41.0182 569.121 39.3906C571.491 37.7109 573.001 35.6081 573.652 33.082H557.129V30.4062H577.207ZM600.078 17.0859V44H597.109V17.0859H590.312V14.3906H606.836V17.0859H600.078ZM610.137 44V14.3906H613.105V44H610.137ZM618.926 44V14.3906H635.117V17.0859H621.895V27.7109H634.688V30.4062H621.895V41.3242H635.117V44H618.926ZM632.031 8.98047L630.703 6.67578L638.672 2.30078L639.941 4.70312L632.031 8.98047ZM630.371 11.9297L626.934 9L623.398 11.9297H619.766L625.566 6.92969H628.203L633.926 11.9297H630.371ZM661.172 44L643.613 17.9648H643.535V44H640.566V14.3906H644.57L661.094 38.9609H661.172V14.3906H664.121V44H661.172ZM697.207 35.8359C697.207 38.2839 696.328 40.3477 694.57 42.0273C692.839 43.694 690.742 44.5273 688.281 44.5273C685.638 44.5273 683.47 43.7201 681.777 42.1055C680.072 40.4909 679.199 38.362 679.16 35.7188H682.129C682.298 39.7943 684.349 41.832 688.281 41.832C689.935 41.832 691.335 41.2721 692.48 40.1523C693.652 39.0065 694.238 37.6068 694.238 35.9531C694.238 34.1693 693.542 32.737 692.148 31.6562C691.589 31.2266 690.885 30.8294 690.039 30.4648C689.401 30.2044 688.6 29.931 687.637 29.6445C686.4 29.2799 685.41 28.9349 684.668 28.6094C683.678 28.1927 682.865 27.724 682.227 27.2031C680.716 25.9531 679.961 24.1628 679.961 21.832C679.961 19.5273 680.775 17.6198 682.402 16.1094C684.004 14.625 685.964 13.8828 688.281 13.8828C690.573 13.8828 692.507 14.6445 694.082 16.168C695.684 17.7174 696.484 19.638 696.484 21.9297H693.516C693.516 20.4714 693.008 19.2148 691.992 18.1602C690.964 17.0924 689.727 16.5586 688.281 16.5586C686.784 16.5586 685.521 17.0469 684.492 18.0234C683.451 19 682.93 20.2305 682.93 21.7148C682.93 23.4336 683.724 24.7422 685.312 25.6406C685.898 25.9661 686.66 26.2786 687.598 26.5781L689.961 27.2812C692.214 27.9583 693.952 28.9674 695.176 30.3086C696.53 31.793 697.207 33.6354 697.207 35.8359ZM701.23 44V14.3906H704.18V44H701.23ZM709.863 10.2891C708.47 11.3177 707.168 11.832 705.957 11.832C705.423 11.832 704.87 11.7474 704.297 11.5781C703.919 11.474 703.438 11.2852 702.852 11.0117L701.504 10.4648C701.009 10.2826 700.56 10.1914 700.156 10.1914C699.219 10.1914 698.327 10.5951 697.48 11.4023L696.074 9.39062C697.272 8.27083 698.659 7.71094 700.234 7.71094C700.755 7.71094 701.289 7.80208 701.836 7.98438C702.201 8.08854 702.676 8.27083 703.262 8.53125C703.288 8.55729 703.34 8.58333 703.418 8.60938C703.496 8.64844 703.555 8.67448 703.594 8.6875C703.724 8.7526 703.835 8.80469 703.926 8.84375L704.57 9.09766C705.065 9.26693 705.514 9.35156 705.918 9.35156C706.335 9.35156 706.771 9.24089 707.227 9.01953L708.125 8.51172L708.438 8.31641L709.863 10.2891Z" fill="#025899"/>
<path d="M10 17.0859V16.5859H9.5V17.0859H10ZM10 44V44.5H10.5V44H10ZM7.03125 44H6.53125V44.5H7.03125V44ZM7.03125 17.0859H7.53125V16.5859H7.03125V17.0859ZM0.234375 17.0859H-0.265625V17.5859H0.234375V17.0859ZM0.234375 14.3906V13.8906H-0.265625V14.3906H0.234375ZM16.7578 14.3906H17.2578V13.8906H16.7578V14.3906ZM16.7578 17.0859V17.5859H17.2578V17.0859H16.7578ZM9.5 17.0859V44H10.5V17.0859H9.5ZM10 43.5H7.03125V44.5H10V43.5ZM7.53125 44V17.0859H6.53125V44H7.53125ZM7.03125 16.5859H0.234375V17.5859H7.03125V16.5859ZM0.734375 17.0859V14.3906H-0.265625V17.0859H0.734375ZM0.234375 14.8906H16.7578V13.8906H0.234375V14.8906ZM16.2578 14.3906V17.0859H17.2578V14.3906H16.2578ZM16.7578 16.5859H10V17.5859H16.7578V16.5859ZM37.3633 30.2305L37.0097 29.8769L37.3633 30.2305ZM31.1133 32.9648L31.0797 32.466L30.1553 32.5282L30.7147 33.2668L31.1133 32.9648ZM39.4727 44V44.5H40.4787L39.8712 43.6981L39.4727 44ZM35.7422 44L35.342 44.2998L35.492 44.5H35.7422V44ZM25.7031 30.6016L25.7001 30.1016L24.7082 30.1076L25.303 30.9014L25.7031 30.6016ZM28.9062 30.582L28.9093 31.0822L28.9208 31.0818L28.9062 30.582ZM32.0703 30.1523L31.9249 29.6739L31.917 29.6764L32.0703 30.1523ZM33.7109 18.1992L33.9492 17.7597L33.948 17.759L33.7109 18.1992ZM30.918 17.2617L31.0002 16.7685L30.9946 16.7676L30.918 17.2617ZM22.793 17.0859V16.5859H22.293V17.0859H22.793ZM22.793 44V44.5H23.293V44H22.793ZM19.8242 44H19.3242V44.5H19.8242V44ZM19.8242 14.3906V13.8906H19.3242V14.3906H19.8242ZM29.1406 14.4297L29.1689 13.9305L29.165 13.9303L29.1406 14.4297ZM31.0352 14.5859L31.0972 14.0898L31.0916 14.0891L31.0352 14.5859ZM34.6289 15.5234L34.8458 15.0729L34.8424 15.0713L34.6289 15.5234ZM39.4023 23.9609C39.4023 26.3211 38.6047 28.282 37.0097 29.8769L37.7168 30.584C39.5073 28.7936 40.4023 26.5748 40.4023 23.9609H39.4023ZM37.0097 29.8769C35.4485 31.4381 33.4821 32.3042 31.0797 32.466L31.1469 33.4637C33.7706 33.287 35.9708 32.3301 37.7168 30.584L37.0097 29.8769ZM30.7147 33.2668L39.0741 44.3019L39.8712 43.6981L31.5118 32.6629L30.7147 33.2668ZM39.4727 43.5H35.7422V44.5H39.4727V43.5ZM36.1423 43.7002L26.1033 30.3018L25.303 30.9014L35.342 44.2998L36.1423 43.7002ZM25.7062 31.1016L28.9093 31.082L28.9032 30.082L25.7001 30.1016L25.7062 31.1016ZM28.9208 31.0818C30.2823 31.0422 31.3906 30.8965 32.2236 30.6283L31.917 29.6764C31.2135 29.903 30.2125 30.0438 28.8917 30.0822L28.9208 31.0818ZM32.2157 30.6307C33.914 30.1145 35.2338 29.2967 36.1269 28.15C37.0222 27.0004 37.4531 25.5657 37.4531 23.8828H36.4531C36.4531 25.39 36.0702 26.5953 35.3379 27.5355C34.6034 28.4787 33.4818 29.2006 31.9249 29.674L32.2157 30.6307ZM37.4531 23.8828C37.4531 22.5047 37.1682 21.2878 36.5769 20.2513C35.9847 19.2131 35.1012 18.3842 33.9492 17.7597L33.4726 18.6388C34.4821 19.1861 35.2198 19.8904 35.7083 20.7468C36.1977 21.6048 36.4531 22.6437 36.4531 23.8828H37.4531ZM33.948 17.759C33.0499 17.2754 32.0661 16.9462 31.0002 16.7685L30.8358 17.7549C31.8011 17.9158 32.6792 18.2116 33.4739 18.6395L33.948 17.759ZM30.9946 16.7676C30.2036 16.6449 29.1855 16.5859 27.9492 16.5859V17.5859C29.1608 17.5859 30.1219 17.6442 30.8413 17.7558L30.9946 16.7676ZM27.9492 16.5859H22.793V17.5859H27.9492V16.5859ZM22.293 17.0859V44H23.293V17.0859H22.293ZM22.793 43.5H19.8242V44.5H22.793V43.5ZM20.3242 44V14.3906H19.3242V44H20.3242ZM19.8242 14.8906H27.3438V13.8906H19.8242V14.8906ZM27.3438 14.8906C28.0015 14.8906 28.5922 14.9035 29.1163 14.9291L29.165 13.9303C28.6214 13.9038 28.0141 13.8906 27.3438 13.8906V14.8906ZM29.1124 14.9289C29.7948 14.9675 30.4168 15.0189 30.9787 15.0827L31.0916 14.0891C30.5077 14.0228 29.8666 13.97 29.1689 13.9305L29.1124 14.9289ZM30.9731 15.0821C32.399 15.2603 33.5411 15.5627 34.4154 15.9756L34.8424 15.0713C33.8417 14.5987 32.5879 14.2761 31.0972 14.0898L30.9731 15.0821ZM34.412 15.9739C36.0999 16.7866 37.3395 17.8545 38.16 19.1673C38.9807 20.4804 39.4023 22.0709 39.4023 23.9609H40.4023C40.4023 21.9187 39.9451 20.1368 39.008 18.6373C38.0707 17.1377 36.6735 15.953 34.8458 15.0729L34.412 15.9739ZM69.6875 40.0742L69.3408 39.714L69.3401 39.7146L69.6875 40.0742ZM47.7539 40.1133L47.4087 40.475L47.4096 40.4759L47.7539 40.1133ZM47.6367 18.375L47.2862 18.0184L47.2854 18.0192L47.6367 18.375ZM69.707 18.3359L69.3596 18.6955L69.3603 18.6962L69.707 18.3359ZM49.707 20.3281L49.3507 19.9774L49.3498 19.9783L49.707 20.3281ZM49.8047 38.1602L50.1545 37.8029L50.1536 37.802L49.8047 38.1602ZM67.6367 38.1406L67.2869 37.7834L67.286 37.7843L67.6367 38.1406ZM63.2227 7.61328L62.9853 8.05334L63.4159 8.28561L63.6575 7.86016L63.2227 7.61328ZM55.293 3.33594L54.8524 3.09953L54.6165 3.53914L55.0556 3.776L55.293 3.33594ZM56.582 0.933594L56.8231 0.495554L56.3804 0.251892L56.1415 0.697185L56.582 0.933594ZM64.5312 5.30859L64.966 5.55547L65.2162 5.11486L64.7723 4.87055L64.5312 5.30859ZM62.2461 11.9297L61.9218 12.3102L62.0619 12.4297H62.2461V11.9297ZM58.8086 9L59.1329 8.61946L58.8122 8.34613L58.4885 8.61589L58.8086 9ZM55.293 11.9297V12.4297H55.474L55.6131 12.3138L55.293 11.9297ZM51.6406 11.9297L51.3142 11.551L50.2947 12.4297H51.6406V11.9297ZM57.4414 6.92969V6.42969H57.2557L57.115 6.55096L57.4414 6.92969ZM60.0977 6.92969L60.4273 6.55372L60.2858 6.42969H60.0977V6.92969ZM65.8008 11.9297V12.4297H67.1295L66.1304 11.5537L65.8008 11.9297ZM73.875 29.1953C73.875 33.3009 72.3702 36.7981 69.3408 39.714L70.0342 40.4345C73.2548 37.3347 74.875 33.5793 74.875 29.1953H73.875ZM69.3401 39.7146C66.36 42.5937 62.8191 44.0273 58.6914 44.0273V45.0273C63.0793 45.0273 66.8691 43.4923 70.0349 40.4338L69.3401 39.7146ZM58.6914 44.0273C54.6296 44.0273 51.1062 42.6071 48.0982 39.7507L47.4096 40.4759C50.5995 43.5049 54.3678 45.0273 58.6914 45.0273V44.0273ZM48.0991 39.7516C45.0557 36.8471 43.5469 33.3889 43.5469 29.3516H42.5469C42.5469 33.6736 44.176 37.3899 47.4087 40.475L48.0991 39.7516ZM43.5469 29.3516C43.5469 25.1885 45.0232 21.6578 47.988 18.7308L47.2854 18.0192C44.1305 21.1339 42.5469 24.9209 42.5469 29.3516H43.5469ZM47.9872 18.7316C50.9393 15.8299 54.4979 14.3828 58.6914 14.3828V13.3828C54.2391 13.3828 50.4278 14.9305 47.2862 18.0184L47.9872 18.7316ZM58.6914 14.3828C62.8326 14.3828 66.3799 15.8168 69.3596 18.6955L70.0544 17.9763C66.8883 14.9176 63.0919 13.3828 58.6914 13.3828V14.3828ZM69.3603 18.6962C72.3763 21.5986 73.875 25.0891 73.875 29.1953H74.875C74.875 24.8119 73.2617 21.0629 70.0537 17.9757L69.3603 18.6962ZM71.9062 29.2344C71.9062 25.6226 70.6017 22.5139 68.0089 19.9346L67.3036 20.6435C69.7108 23.0382 70.9062 25.893 70.9062 29.2344H71.9062ZM68.0089 19.9346C65.4167 17.3559 62.3022 16.0586 58.6914 16.0586V17.0586C62.0337 17.0586 64.8958 18.2483 67.3036 20.6435L68.0089 19.9346ZM58.6914 16.0586C55.0414 16.0586 51.9183 17.3692 49.3507 19.9774L50.0633 20.6789C52.4436 18.261 55.3102 17.0586 58.6914 17.0586V16.0586ZM49.3498 19.9783C46.7978 22.5843 45.5156 25.7175 45.5156 29.3516H46.5156C46.5156 25.9804 47.6944 23.098 50.0643 20.678L49.3498 19.9783ZM45.5156 29.3516C45.5156 32.9029 46.8368 35.9668 49.4558 38.5183L50.1536 37.802C47.7205 35.4316 46.5156 32.6231 46.5156 29.3516H45.5156ZM49.4549 38.5174C52.0461 41.0546 55.133 42.332 58.6914 42.332V41.332C55.4009 41.332 52.5633 40.1615 50.1545 37.8029L49.4549 38.5174ZM58.6914 42.332C62.2881 42.332 65.3953 41.0486 67.9875 38.497L67.286 37.7843C64.8781 40.1545 62.0218 41.332 58.6914 41.332V42.332ZM67.9865 38.4979C70.5943 35.9441 71.9062 32.8471 71.9062 29.2344H70.9062C70.9062 32.5747 69.7051 35.4153 67.2869 37.7834L67.9865 38.4979ZM63.46 7.17322L55.5303 2.89588L55.0556 3.776L62.9853 8.05334L63.46 7.17322ZM55.7335 3.57235L57.0226 1.17L56.1415 0.697185L54.8524 3.09953L55.7335 3.57235ZM56.3409 1.37163L64.2902 5.74663L64.7723 4.87055L56.8231 0.495554L56.3409 1.37163ZM64.0965 5.06172L62.7879 7.3664L63.6575 7.86016L64.966 5.55547L64.0965 5.06172ZM62.5704 11.5491L59.1329 8.61946L58.4843 9.38054L61.9218 12.3102L62.5704 11.5491ZM58.4885 8.61589L54.9729 11.5456L55.6131 12.3138L59.1287 9.38411L58.4885 8.61589ZM55.293 11.4297H51.6406V12.4297H55.293V11.4297ZM51.9671 12.3084L57.7678 7.30841L57.115 6.55096L51.3142 11.551L51.9671 12.3084ZM57.4414 7.42969H60.0977V6.42969H57.4414V7.42969ZM59.768 7.30566L65.4712 12.3057L66.1304 11.5537L60.4273 6.55372L59.768 7.30566ZM65.8008 11.4297H62.2461V12.4297H65.8008V11.4297ZM99.6875 44L99.273 44.2796L99.4216 44.5H99.6875V44ZM82.1289 17.9648L82.5434 17.6853L82.3948 17.4648H82.1289V17.9648ZM82.0508 17.9648V17.4648H81.5508V17.9648H82.0508ZM82.0508 44V44.5H82.5508V44H82.0508ZM79.082 44H78.582V44.5H79.082V44ZM79.082 14.3906V13.8906H78.582V14.3906H79.082ZM83.0859 14.3906L83.5008 14.1116L83.3522 13.8906H83.0859V14.3906ZM99.6094 38.9609L99.1945 39.24L99.3431 39.4609H99.6094V38.9609ZM99.6875 38.9609V39.4609H100.188V38.9609H99.6875ZM99.6875 14.3906V13.8906H99.1875V14.3906H99.6875ZM102.637 14.3906H103.137V13.8906H102.637V14.3906ZM102.637 44V44.5H103.137V44H102.637ZM100.102 43.7204L82.5434 17.6853L81.7144 18.2444L99.273 44.2796L100.102 43.7204ZM82.1289 17.4648H82.0508V18.4648H82.1289V17.4648ZM81.5508 17.9648V44H82.5508V17.9648H81.5508ZM82.0508 43.5H79.082V44.5H82.0508V43.5ZM79.582 44V14.3906H78.582V44H79.582ZM79.082 14.8906H83.0859V13.8906H79.082V14.8906ZM82.671 14.6696L99.1945 39.24L100.024 38.6819L83.5008 14.1116L82.671 14.6696ZM99.6094 39.4609H99.6875V38.4609H99.6094V39.4609ZM100.188 38.9609V14.3906H99.1875V38.9609H100.188ZM99.6875 14.8906H102.637V13.8906H99.6875V14.8906ZM102.137 14.3906V44H103.137V14.3906H102.137ZM102.637 43.5H99.6875V44.5H102.637V43.5ZM138.809 30.4062L139.307 30.4466L139.351 29.9062H138.809V30.4062ZM133.77 40.5039L134.102 40.8771L134.103 40.8769L133.77 40.5039ZM112.07 40.0742L111.727 40.4373L111.727 40.4374L112.07 40.0742ZM112.031 18.2969L112.375 18.66L112.376 18.6595L112.031 18.2969ZM135.215 19.3125L134.839 19.6423L134.842 19.6453L135.215 19.3125ZM137.129 22.2812V22.7812H137.874L137.591 22.0915L137.129 22.2812ZM133.691 22.2812L133.258 22.5314L133.403 22.7812H133.691V22.2812ZM129.18 18.0625L129.414 17.6206L129.412 17.6196L129.18 18.0625ZM114.082 20.25L114.43 20.609L114.431 20.6081L114.082 20.25ZM114.121 38.2188L113.777 38.5813L113.778 38.5824L114.121 38.2188ZM130.723 39.3906L130.434 38.9827L130.433 38.983L130.723 39.3906ZM135.254 33.082L135.738 33.2068L135.899 32.582H135.254V33.082ZM118.73 33.082H118.23V33.582H118.73V33.082ZM118.73 30.4062V29.9062H118.23V30.4062H118.73ZM138.31 30.3659C137.995 34.2603 136.375 37.5074 133.437 40.1309L134.103 40.8769C137.231 38.0838 138.971 34.5991 139.307 30.4466L138.31 30.3659ZM133.437 40.1307C130.521 42.7306 127.105 44.0273 123.164 44.0273V45.0273C127.348 45.0273 131.002 43.6418 134.102 40.8771L133.437 40.1307ZM123.164 44.0273C119.036 44.0273 115.461 42.5933 112.414 39.711L111.727 40.4374C114.956 43.4926 118.776 45.0273 123.164 45.0273V44.0273ZM112.414 39.7112C109.319 36.7807 107.785 33.284 107.785 29.1953H106.785C106.785 33.5702 108.441 37.3261 111.727 40.4373L112.414 39.7112ZM107.785 29.1953C107.785 25.0649 109.308 21.5625 112.375 18.66L111.688 17.9337C108.426 21.0208 106.785 24.784 106.785 29.1953H107.785ZM112.376 18.6595C115.381 15.8055 118.955 14.3828 123.125 14.3828V13.3828C118.701 13.3828 114.879 14.9028 111.687 17.9343L112.376 18.6595ZM123.125 14.3828C127.866 14.3828 131.758 16.1324 134.839 19.6423L135.591 18.9827C132.317 15.253 128.149 13.3828 123.125 13.3828V14.3828ZM134.842 19.6453C135.67 20.5739 136.275 21.5161 136.666 22.471L137.591 22.0915C137.15 21.0151 136.479 19.9782 135.588 18.9797L134.842 19.6453ZM137.129 21.7812H133.691V22.7812H137.129V21.7812ZM134.124 22.0311C133.057 20.1832 131.479 18.7142 129.414 17.6206L128.946 18.5044C130.864 19.5201 132.295 20.8637 133.258 22.5314L134.124 22.0311ZM129.412 17.6196C127.428 16.5807 125.344 16.0586 123.164 16.0586V17.0586C125.177 17.0586 127.103 17.5391 128.948 18.5054L129.412 17.6196ZM123.164 16.0586C119.505 16.0586 116.353 17.3399 113.733 19.8919L114.431 20.6081C116.864 18.2382 119.766 17.0586 123.164 17.0586V16.0586ZM113.734 19.891C111.086 22.458 109.754 25.5818 109.754 29.2344H110.754C110.754 25.8557 111.974 22.99 114.43 20.609L113.734 19.891ZM109.754 29.2344C109.754 32.9137 111.1 36.0394 113.777 38.5813L114.465 37.8562C111.986 35.5022 110.754 32.6383 110.754 29.2344H109.754ZM113.778 38.5824C116.424 41.0801 119.601 42.332 123.281 42.332V41.332C119.852 41.332 116.922 40.1751 114.464 37.8551L113.778 38.5824ZM123.281 42.332C126.06 42.332 128.641 41.4826 131.012 39.7983L130.433 38.983C128.221 40.5539 125.841 41.332 123.281 41.332V42.332ZM131.012 39.7985C133.466 38.0588 135.054 35.8605 135.738 33.2068L134.77 32.9572C134.152 35.3557 132.719 37.3631 130.434 38.9827L131.012 39.7985ZM135.254 32.582H118.73V33.582H135.254V32.582ZM119.23 33.082V30.4062H118.23V33.082H119.23ZM118.73 30.9062H138.809V29.9062H118.73V30.9062ZM172.012 30.2305L171.658 29.8769L172.012 30.2305ZM165.762 32.9648L165.728 32.466L164.804 32.5282L165.363 33.2668L165.762 32.9648ZM174.121 44V44.5H175.127L174.52 43.6981L174.121 44ZM170.391 44L169.99 44.2998L170.14 44.5H170.391V44ZM160.352 30.6016L160.349 30.1016L159.357 30.1076L159.951 30.9014L160.352 30.6016ZM163.555 30.582L163.558 31.0822L163.569 31.0818L163.555 30.582ZM166.719 30.1523L166.573 29.6739L166.565 29.6764L166.719 30.1523ZM168.359 18.1992L168.598 17.7597L168.596 17.759L168.359 18.1992ZM165.566 17.2617L165.649 16.7685L165.643 16.7676L165.566 17.2617ZM157.441 17.0859V16.5859H156.941V17.0859H157.441ZM157.441 44V44.5H157.941V44H157.441ZM154.473 44H153.973V44.5H154.473V44ZM154.473 14.3906V13.8906H153.973V14.3906H154.473ZM163.789 14.4297L163.817 13.9305L163.813 13.9303L163.789 14.4297ZM165.684 14.5859L165.746 14.0898L165.74 14.0891L165.684 14.5859ZM169.277 15.5234L169.494 15.0729L169.491 15.0713L169.277 15.5234ZM174.051 23.9609C174.051 26.3211 173.253 28.282 171.658 29.8769L172.365 30.584C174.156 28.7936 175.051 26.5748 175.051 23.9609H174.051ZM171.658 29.8769C170.097 31.4381 168.13 32.3042 165.728 32.466L165.795 33.4637C168.419 33.287 170.619 32.3301 172.365 30.584L171.658 29.8769ZM165.363 33.2668L173.723 44.3019L174.52 43.6981L166.16 32.6629L165.363 33.2668ZM174.121 43.5H170.391V44.5H174.121V43.5ZM170.791 43.7002L160.752 30.3018L159.951 30.9014L169.99 44.2998L170.791 43.7002ZM160.355 31.1016L163.558 31.082L163.552 30.082L160.349 30.1016L160.355 31.1016ZM163.569 31.0818C164.931 31.0422 166.039 30.8965 166.872 30.6283L166.565 29.6764C165.862 29.903 164.861 30.0438 163.54 30.0822L163.569 31.0818ZM166.864 30.6307C168.562 30.1145 169.882 29.2967 170.775 28.15C171.671 27.0004 172.102 25.5657 172.102 23.8828H171.102C171.102 25.39 170.719 26.5953 169.986 27.5355C169.252 28.4787 168.13 29.2006 166.573 29.674L166.864 30.6307ZM172.102 23.8828C172.102 22.5047 171.817 21.2878 171.225 20.2513C170.633 19.2131 169.75 18.3842 168.598 17.7597L168.121 18.6388C169.131 19.1861 169.868 19.8904 170.357 20.7468C170.846 21.6048 171.102 22.6437 171.102 23.8828H172.102ZM168.596 17.759C167.698 17.2754 166.715 16.9462 165.649 16.7685L165.484 17.7549C166.45 17.9158 167.328 18.2116 168.122 18.6395L168.596 17.759ZM165.643 16.7676C164.852 16.6449 163.834 16.5859 162.598 16.5859V17.5859C163.809 17.5859 164.77 17.6442 165.49 17.7558L165.643 16.7676ZM162.598 16.5859H157.441V17.5859H162.598V16.5859ZM156.941 17.0859V44H157.941V17.0859H156.941ZM157.441 43.5H154.473V44.5H157.441V43.5ZM154.973 44V14.3906H153.973V44H154.973ZM154.473 14.8906H161.992V13.8906H154.473V14.8906ZM161.992 14.8906C162.65 14.8906 163.241 14.9035 163.765 14.9291L163.813 13.9303C163.27 13.9038 162.663 13.8906 161.992 13.8906V14.8906ZM163.761 14.9289C164.443 14.9675 165.065 15.0189 165.627 15.0827L165.74 14.0891C165.156 14.0228 164.515 13.97 163.817 13.9305L163.761 14.9289ZM165.622 15.0821C167.047 15.2603 168.19 15.5627 169.064 15.9756L169.491 15.0713C168.49 14.5987 167.236 14.2761 165.746 14.0898L165.622 15.0821ZM169.06 15.9739C170.748 16.7866 171.988 17.8545 172.808 19.1673C173.629 20.4804 174.051 22.0709 174.051 23.9609H175.051C175.051 21.9187 174.594 20.1368 173.656 18.6373C172.719 17.1377 171.322 15.953 169.494 15.0729L169.06 15.9739ZM201.895 44L201.435 44.198L201.566 44.5H201.895V44ZM197.598 34.0391L198.057 33.841L197.927 33.5391H197.598V34.0391ZM183.848 34.0391V33.5391H183.519L183.389 33.8403L183.848 34.0391ZM179.531 44V44.5H179.86L179.99 44.1988L179.531 44ZM176.445 44L175.985 43.8037L175.688 44.5H176.445V44ZM189.082 14.3906V13.8906H188.752L188.622 14.1944L189.082 14.3906ZM192.402 14.3906L192.862 14.1933L192.732 13.8906H192.402V14.3906ZM205.117 44V44.5H205.876L205.577 43.8027L205.117 44ZM190.762 17.7695L191.223 17.5767L190.766 16.4846L190.302 17.5733L190.762 17.7695ZM184.961 31.3633L184.501 31.167L184.204 31.8633H184.961V31.3633ZM196.445 31.3633V31.8633H197.196L196.907 31.1704L196.445 31.3633ZM197.773 8.39453L198.242 8.56778L198.491 7.89453H197.773V8.39453ZM194.98 11.6172L195.212 12.0603L195.214 12.0591L194.98 11.6172ZM186.562 11.6172L186.33 12.0599L186.331 12.0603L186.562 11.6172ZM183.809 8.39453V7.89453H183.099L183.338 8.5627L183.809 8.39453ZM186.406 8.39453L186.809 8.09866L186.659 7.89453H186.406V8.39453ZM193.184 9.82031L193.013 9.35039L193.008 9.35215L193.184 9.82031ZM195.156 8.39453V7.89453H194.899L194.749 8.10391L195.156 8.39453ZM202.354 43.802L198.057 33.841L197.139 34.2371L201.435 44.198L202.354 43.802ZM197.598 33.5391H183.848V34.5391H197.598V33.5391ZM183.389 33.8403L179.072 43.8012L179.99 44.1988L184.306 34.2379L183.389 33.8403ZM179.531 43.5H176.445V44.5H179.531V43.5ZM176.905 44.1963L189.542 14.5869L188.622 14.1944L175.985 43.8037L176.905 44.1963ZM189.082 14.8906H192.402V13.8906H189.082V14.8906ZM191.943 14.5879L204.658 44.1973L205.577 43.8027L192.862 14.1933L191.943 14.5879ZM205.117 43.5H201.895V44.5H205.117V43.5ZM190.302 17.5733L184.501 31.167L185.421 31.5595L191.222 17.9658L190.302 17.5733ZM184.961 31.8633H196.445V30.8633H184.961V31.8633ZM196.907 31.1704L191.223 17.5767L190.3 17.9624L195.984 31.5562L196.907 31.1704ZM197.304 8.22129C196.812 9.55439 195.963 10.5313 194.747 11.1753L195.214 12.0591C196.654 11.2968 197.667 10.1253 198.242 8.56778L197.304 8.22129ZM194.749 11.1741C193.692 11.7264 192.37 12.0156 190.762 12.0156V13.0156C192.486 13.0156 193.977 12.7059 195.212 12.0603L194.749 11.1741ZM190.762 12.0156C189.167 12.0156 187.851 11.7267 186.794 11.1741L186.331 12.0603C187.565 12.7056 189.049 13.0156 190.762 13.0156V12.0156ZM186.795 11.1744C185.596 10.5454 184.76 9.57203 184.279 8.22636L183.338 8.5627C183.899 10.1337 184.899 11.3088 186.33 12.0599L186.795 11.1744ZM183.809 8.89453H186.406V7.89453H183.809V8.89453ZM186.003 8.6904C187.025 10.0818 188.653 10.7305 190.762 10.7305V9.73047C188.86 9.73047 187.585 9.15514 186.809 8.09866L186.003 8.6904ZM190.762 10.7305C191.699 10.7305 192.567 10.5856 193.359 10.2885L193.008 9.35215C192.342 9.60186 191.595 9.73047 190.762 9.73047V10.7305ZM193.354 10.2902C194.293 9.94907 195.039 9.41841 195.563 8.68515L194.749 8.10391C194.362 8.64669 193.793 9.06655 193.013 9.35042L193.354 10.2902ZM195.156 8.89453H197.773V7.89453H195.156V8.89453ZM229.18 44L228.765 44.2796L228.914 44.5H229.18V44ZM211.621 17.9648L212.036 17.6853L211.887 17.4648H211.621V17.9648ZM211.543 17.9648V17.4648H211.043V17.9648H211.543ZM211.543 44V44.5H212.043V44H211.543ZM208.574 44H208.074V44.5H208.574V44ZM208.574 14.3906V13.8906H208.074V14.3906H208.574ZM212.578 14.3906L212.993 14.1116L212.844 13.8906H212.578V14.3906ZM229.102 38.9609L228.687 39.24L228.835 39.4609H229.102V38.9609ZM229.18 38.9609V39.4609H229.68V38.9609H229.18ZM229.18 14.3906V13.8906H228.68V14.3906H229.18ZM232.129 14.3906H232.629V13.8906H232.129V14.3906ZM232.129 44V44.5H232.629V44H232.129ZM229.594 43.7204L212.036 17.6853L211.207 18.2444L228.765 44.2796L229.594 43.7204ZM211.621 17.4648H211.543V18.4648H211.621V17.4648ZM211.043 17.9648V44H212.043V17.9648H211.043ZM211.543 43.5H208.574V44.5H211.543V43.5ZM209.074 44V14.3906H208.074V44H209.074ZM208.574 14.8906H212.578V13.8906H208.574V14.8906ZM212.163 14.6696L228.687 39.24L229.516 38.6819L212.993 14.1116L212.163 14.6696ZM229.102 39.4609H229.18V38.4609H229.102V39.4609ZM229.68 38.9609V14.3906H228.68V38.9609H229.68ZM229.18 14.8906H232.129V13.8906H229.18V14.8906ZM231.629 14.3906V44H232.629V14.3906H231.629ZM232.129 43.5H229.18V44.5H232.129V43.5ZM268.301 30.4062L268.799 30.4466L268.843 29.9062H268.301V30.4062ZM263.262 40.5039L263.595 40.8771L263.595 40.8769L263.262 40.5039ZM241.562 40.0742L241.219 40.4373L241.219 40.4374L241.562 40.0742ZM241.523 18.2969L241.867 18.66L241.868 18.6595L241.523 18.2969ZM264.707 19.3125L264.331 19.6423L264.334 19.6453L264.707 19.3125ZM266.621 22.2812V22.7812H267.367L267.084 22.0915L266.621 22.2812ZM263.184 22.2812L262.751 22.5314L262.895 22.7812H263.184V22.2812ZM258.672 18.0625L258.906 17.6206L258.904 17.6196L258.672 18.0625ZM243.574 20.25L243.922 20.609L243.923 20.6081L243.574 20.25ZM243.613 38.2188L243.269 38.5813L243.27 38.5824L243.613 38.2188ZM260.215 39.3906L259.926 38.9827L259.925 38.983L260.215 39.3906ZM264.746 33.082L265.23 33.2068L265.391 32.582H264.746V33.082ZM248.223 33.082H247.723V33.582H248.223V33.082ZM248.223 30.4062V29.9062H247.723V30.4062H248.223ZM267.802 30.3659C267.487 34.2603 265.868 37.5074 262.929 40.1309L263.595 40.8769C266.724 38.0838 268.463 34.5991 268.799 30.4466L267.802 30.3659ZM262.929 40.1307C260.014 42.7306 256.597 44.0273 252.656 44.0273V45.0273C256.84 45.0273 260.494 43.6418 263.595 40.8771L262.929 40.1307ZM252.656 44.0273C248.528 44.0273 244.953 42.5933 241.906 39.711L241.219 40.4374C244.448 43.4926 248.269 45.0273 252.656 45.0273V44.0273ZM241.906 39.7112C238.812 36.7807 237.277 33.284 237.277 29.1953H236.277C236.277 33.5702 237.933 37.3261 241.219 40.4373L241.906 39.7112ZM237.277 29.1953C237.277 25.0649 238.801 21.5625 241.867 18.66L241.18 17.9337C237.918 21.0208 236.277 24.784 236.277 29.1953H237.277ZM241.868 18.6595C244.873 15.8055 248.448 14.3828 252.617 14.3828V13.3828C248.193 13.3828 244.372 14.9028 241.179 17.9343L241.868 18.6595ZM252.617 14.3828C257.358 14.3828 261.251 16.1324 264.331 19.6423L265.083 18.9827C261.809 15.253 257.642 13.3828 252.617 13.3828V14.3828ZM264.334 19.6453C265.162 20.5739 265.767 21.5161 266.159 22.471L267.084 22.0915C266.642 21.0151 265.971 19.9782 265.08 18.9797L264.334 19.6453ZM266.621 21.7812H263.184V22.7812H266.621V21.7812ZM263.617 22.0311C262.549 20.1832 260.972 18.7142 258.906 17.6206L258.438 18.5044C260.357 19.5201 261.787 20.8637 262.751 22.5314L263.617 22.0311ZM258.904 17.6196C256.921 16.5807 254.836 16.0586 252.656 16.0586V17.0586C254.669 17.0586 256.595 17.5391 258.44 18.5054L258.904 17.6196ZM252.656 16.0586C248.997 16.0586 245.845 17.3399 243.225 19.8919L243.923 20.6081C246.356 18.2382 249.258 17.0586 252.656 17.0586V16.0586ZM243.226 19.891C240.578 22.458 239.246 25.5818 239.246 29.2344H240.246C240.246 25.8557 241.466 22.99 243.922 20.609L243.226 19.891ZM239.246 29.2344C239.246 32.9137 240.592 36.0394 243.269 38.5813L243.958 37.8562C241.478 35.5022 240.246 32.6383 240.246 29.2344H239.246ZM243.27 38.5824C245.916 41.0801 249.093 42.332 252.773 42.332V41.332C249.345 41.332 246.414 40.1751 243.956 37.8551L243.27 38.5824ZM252.773 42.332C255.552 42.332 258.133 41.4826 260.504 39.7983L259.925 38.983C257.713 40.5539 255.333 41.332 252.773 41.332V42.332ZM260.504 39.7985C262.959 38.0588 264.546 35.8605 265.23 33.2068L264.262 32.9572C263.644 35.3557 262.211 37.3631 259.926 38.9827L260.504 39.7985ZM264.746 32.582H248.223V33.582H264.746V32.582ZM248.723 33.082V30.4062H247.723V33.082H248.723ZM248.223 30.9062H268.301V29.9062H248.223V30.9062ZM284.199 44H283.699V44.5H284.199V44ZM284.199 14.3906V13.8906H283.699V14.3906H284.199ZM287.168 14.3906H287.668V13.8906H287.168V14.3906ZM287.168 44V44.5H287.668V44H287.168ZM284.699 44V14.3906H283.699V44H284.699ZM284.199 14.8906H287.168V13.8906H284.199V14.8906ZM286.668 14.3906V44H287.668V14.3906H286.668ZM287.168 43.5H284.199V44.5H287.168V43.5ZM320.938 44H320.438V44.5H320.938V44ZM320.938 17.6328H321.438V17.1328H320.938V17.6328ZM320.859 17.6328V17.1328H320.527L320.398 17.4392L320.859 17.6328ZM309.785 44V44.5H310.117L310.246 44.1936L309.785 44ZM307.266 44L306.804 44.1925L306.932 44.5H307.266V44ZM296.27 17.6328L296.731 17.4404L296.603 17.1328H296.27V17.6328ZM296.191 17.6328V17.1328H295.691V17.6328H296.191ZM296.191 44V44.5H296.691V44H296.191ZM293.223 44H292.723V44.5H293.223V44ZM293.223 14.3906V13.8906H292.723V14.3906H293.223ZM297.773 14.3906L298.233 14.1944L298.104 13.8906H297.773V14.3906ZM308.535 39.6055L308.075 39.8017L308.534 40.8773L308.995 39.8023L308.535 39.6055ZM319.336 14.3906V13.8906H319.006L318.876 14.1938L319.336 14.3906ZM323.906 14.3906H324.406V13.8906H323.906V14.3906ZM323.906 44V44.5H324.406V44H323.906ZM321.438 44V17.6328H320.438V44H321.438ZM320.938 17.1328H320.859V18.1328H320.938V17.1328ZM320.398 17.4392L309.324 43.8064L310.246 44.1936L321.32 17.8264L320.398 17.4392ZM309.785 43.5H307.266V44.5H309.785V43.5ZM307.727 43.8075L296.731 17.4404L295.808 17.8253L306.804 44.1925L307.727 43.8075ZM296.27 17.1328H296.191V18.1328H296.27V17.1328ZM295.691 17.6328V44H296.691V17.6328H295.691ZM296.191 43.5H293.223V44.5H296.191V43.5ZM293.723 44V14.3906H292.723V44H293.723ZM293.223 14.8906H297.773V13.8906H293.223V14.8906ZM297.314 14.5869L308.075 39.8017L308.995 39.4092L298.233 14.1944L297.314 14.5869ZM308.995 39.8023L319.796 14.5875L318.876 14.1938L308.076 39.4086L308.995 39.8023ZM319.336 14.8906H323.906V13.8906H319.336V14.8906ZM323.406 14.3906V44H324.406V14.3906H323.406ZM323.906 43.5H320.938V44.5H323.906V43.5ZM345.82 30.3672L346.101 30.7808L346.103 30.7795L345.82 30.3672ZM342.148 31.793L342.234 32.2856L342.238 32.2849L342.148 31.793ZM340.176 32.0273L340.21 32.5262L340.212 32.526L340.176 32.0273ZM332.91 32.0859V31.5859H332.41V32.0859H332.91ZM332.91 44V44.5H333.41V44H332.91ZM329.941 44H329.441V44.5H329.941V44ZM329.941 14.3906V13.8906H329.441V14.3906H329.941ZM340.176 14.4492L340.212 13.9505L340.21 13.9504L340.176 14.4492ZM342.148 14.6836L342.242 14.1924L342.234 14.191L342.148 14.6836ZM345.82 16.1289L346.102 15.7156L346.101 15.7153L345.82 16.1289ZM343.105 17.8477L342.885 18.2965L342.892 18.2999L343.105 17.8477ZM340.625 17.1641L340.675 16.6665L340.665 16.6656L340.656 16.665L340.625 17.1641ZM339.355 17.0859L339.386 16.5869L339.371 16.5859H339.355V17.0859ZM332.91 17.0859V16.5859H332.41V17.0859H332.91ZM332.91 29.3906H332.41V29.8906H332.91V29.3906ZM339.355 29.3906V29.8906H339.371L339.386 29.8897L339.355 29.3906ZM340.625 29.3125L340.656 29.8116L340.665 29.811L340.675 29.81L340.625 29.3125ZM343.105 28.6484L343.32 29.1003L343.321 29.0997L343.105 28.6484ZM348.992 23.2383C348.992 26.1533 347.844 28.3723 345.537 29.9549L346.103 30.7795C348.693 29.0027 349.992 26.4691 349.992 23.2383H348.992ZM345.539 29.9536C344.591 30.5979 343.435 31.0508 342.059 31.301L342.238 32.2849C343.726 32.0143 345.018 31.5166 346.101 30.7808L345.539 29.9536ZM342.063 31.3004C341.483 31.4012 340.842 31.4776 340.14 31.5287L340.212 32.526C340.942 32.4729 341.616 32.393 342.234 32.2856L342.063 31.3004ZM340.142 31.5285C339.583 31.5666 338.931 31.5859 338.184 31.5859V32.5859C338.947 32.5859 339.623 32.5662 340.21 32.5262L340.142 31.5285ZM338.184 31.5859H332.91V32.5859H338.184V31.5859ZM332.41 32.0859V44H333.41V32.0859H332.41ZM332.91 43.5H329.941V44.5H332.91V43.5ZM330.441 44V14.3906H329.441V44H330.441ZM329.941 14.8906H338.184V13.8906H329.941V14.8906ZM338.184 14.8906C338.931 14.8906 339.583 14.91 340.142 14.9481L340.21 13.9504C339.623 13.9103 338.947 13.8906 338.184 13.8906V14.8906ZM340.14 14.9479C340.842 14.999 341.483 15.0753 342.063 15.1762L342.234 14.191C341.616 14.0835 340.942 14.0036 340.212 13.9505L340.14 14.9479ZM342.055 15.1747C343.432 15.4377 344.59 15.8972 345.539 16.5425L346.101 15.7153C345.02 14.9804 343.729 14.4763 342.242 14.1925L342.055 15.1747ZM345.539 16.5422C347.844 18.1117 348.992 20.3234 348.992 23.2383H349.992C349.992 20.0074 348.692 17.4795 346.102 15.7156L345.539 16.5422ZM347.043 23.2383C347.043 21.9039 346.738 20.7292 346.105 19.737C345.473 18.7451 344.534 17.9683 343.319 17.3954L342.892 18.2999C343.969 18.8077 344.749 19.4698 345.262 20.2747C345.775 21.0794 346.043 22.0597 346.043 23.2383H347.043ZM343.326 17.3989C342.525 17.0053 341.639 16.763 340.675 16.6665L340.575 17.6616C341.434 17.7474 342.202 17.9608 342.885 18.2964L343.326 17.3989ZM340.656 16.665L339.386 16.5869L339.325 17.585L340.594 17.6631L340.656 16.665ZM339.355 16.5859H332.91V17.5859H339.355V16.5859ZM332.41 17.0859V29.3906H333.41V17.0859H332.41ZM332.91 29.8906H339.355V28.8906H332.91V29.8906ZM339.386 29.8897L340.656 29.8116L340.594 28.8134L339.325 28.8916L339.386 29.8897ZM340.675 29.81C341.637 29.7138 342.52 29.479 343.32 29.1003L342.891 28.1966C342.207 28.521 341.436 28.7289 340.575 28.815L340.675 29.81ZM343.321 29.0997C344.535 28.5201 345.474 27.7385 346.106 26.7437C346.738 25.7486 347.043 24.5728 347.043 23.2383H346.043C346.043 24.4168 345.775 25.3991 345.262 26.2074C344.748 27.0161 343.967 27.683 342.89 28.1972L343.321 29.0997ZM353.887 44H353.387V44.5H353.887V44ZM353.887 14.3906V13.8906H353.387V14.3906H353.887ZM356.855 14.3906H357.355V13.8906H356.855V14.3906ZM356.855 41.3242H356.355V41.8242H356.855V41.3242ZM369.082 41.3242H369.582V40.8242H369.082V41.3242ZM369.082 44V44.5H369.582V44H369.082ZM354.387 44V14.3906H353.387V44H354.387ZM353.887 14.8906H356.855V13.8906H353.887V14.8906ZM356.355 14.3906V41.3242H357.355V14.3906H356.355ZM356.855 41.8242H369.082V40.8242H356.855V41.8242ZM368.582 41.3242V44H369.582V41.3242H368.582ZM369.082 43.5H353.887V44.5H369.082V43.5ZM394.316 44L393.857 44.198L393.988 44.5H394.316V44ZM390.02 34.0391L390.479 33.841L390.348 33.5391H390.02V34.0391ZM376.27 34.0391V33.5391H375.941L375.811 33.8403L376.27 34.0391ZM371.953 44V44.5H372.281L372.412 44.1988L371.953 44ZM368.867 44L368.407 43.8037L368.11 44.5H368.867V44ZM381.504 14.3906V13.8906H381.174L381.044 14.1944L381.504 14.3906ZM384.824 14.3906L385.284 14.1933L385.154 13.8906H384.824V14.3906ZM397.539 44V44.5H398.298L397.999 43.8027L397.539 44ZM383.184 17.7695L383.645 17.5767L383.188 16.4846L382.724 17.5733L383.184 17.7695ZM377.383 31.3633L376.923 31.167L376.626 31.8633H377.383V31.3633ZM388.867 31.3633V31.8633H389.618L389.328 31.1704L388.867 31.3633ZM394.776 43.802L390.479 33.841L389.56 34.2371L393.857 44.198L394.776 43.802ZM390.02 33.5391H376.27V34.5391H390.02V33.5391ZM375.811 33.8403L371.494 43.8012L372.412 44.1988L376.728 34.2379L375.811 33.8403ZM371.953 43.5H368.867V44.5H371.953V43.5ZM369.327 44.1963L381.964 14.5869L381.044 14.1944L368.407 43.8037L369.327 44.1963ZM381.504 14.8906H384.824V13.8906H381.504V14.8906ZM384.365 14.5879L397.08 44.1973L397.999 43.8027L385.284 14.1933L384.365 14.5879ZM397.539 43.5H394.316V44.5H397.539V43.5ZM382.724 17.5733L376.923 31.167L377.843 31.5595L383.643 17.9658L382.724 17.5733ZM377.383 31.8633H388.867V30.8633H377.383V31.8633ZM389.328 31.1704L383.645 17.5767L382.722 17.9624L388.406 31.5562L389.328 31.1704ZM421.602 44L421.187 44.2796L421.336 44.5H421.602V44ZM404.043 17.9648L404.458 17.6853L404.309 17.4648H404.043V17.9648ZM403.965 17.9648V17.4648H403.465V17.9648H403.965ZM403.965 44V44.5H404.465V44H403.965ZM400.996 44H400.496V44.5H400.996V44ZM400.996 14.3906V13.8906H400.496V14.3906H400.996ZM405 14.3906L405.415 14.1116L405.266 13.8906H405V14.3906ZM421.523 38.9609L421.109 39.24L421.257 39.4609H421.523V38.9609ZM421.602 38.9609V39.4609H422.102V38.9609H421.602ZM421.602 14.3906V13.8906H421.102V14.3906H421.602ZM424.551 14.3906H425.051V13.8906H424.551V14.3906ZM424.551 44V44.5H425.051V44H424.551ZM422.016 43.7204L404.458 17.6853L403.628 18.2444L421.187 44.2796L422.016 43.7204ZM404.043 17.4648H403.965V18.4648H404.043V17.4648ZM403.465 17.9648V44H404.465V17.9648H403.465ZM403.965 43.5H400.996V44.5H403.965V43.5ZM401.496 44V14.3906H400.496V44H401.496ZM400.996 14.8906H405V13.8906H400.996V14.8906ZM404.585 14.6696L421.109 39.24L421.938 38.6819L405.415 14.1116L404.585 14.6696ZM421.523 39.4609H421.602V38.4609H421.523V39.4609ZM422.102 38.9609V14.3906H421.102V38.9609H422.102ZM421.602 14.8906H424.551V13.8906H421.602V14.8906ZM424.051 14.3906V44H425.051V14.3906H424.051ZM424.551 43.5H421.602V44.5H424.551V43.5ZM437.617 17.0859V16.5859H437.117V17.0859H437.617ZM437.617 44V44.5H438.117V44H437.617ZM434.648 44H434.148V44.5H434.648V44ZM434.648 17.0859H435.148V16.5859H434.648V17.0859ZM427.852 17.0859H427.352V17.5859H427.852V17.0859ZM427.852 14.3906V13.8906H427.352V14.3906H427.852ZM444.375 14.3906H444.875V13.8906H444.375V14.3906ZM444.375 17.0859V17.5859H444.875V17.0859H444.375ZM437.117 17.0859V44H438.117V17.0859H437.117ZM437.617 43.5H434.648V44.5H437.617V43.5ZM435.148 44V17.0859H434.148V44H435.148ZM434.648 16.5859H427.852V17.5859H434.648V16.5859ZM428.352 17.0859V14.3906H427.352V17.0859H428.352ZM427.852 14.8906H444.375V13.8906H427.852V14.8906ZM443.875 14.3906V17.0859H444.875V14.3906H443.875ZM444.375 16.5859H437.617V17.5859H444.375V16.5859ZM486.582 36.2461L487.021 36.4853L487.424 35.7461H486.582V36.2461ZM462.012 40.0938L461.661 40.4504L461.662 40.4511L462.012 40.0938ZM461.953 18.3359L461.602 17.9801V17.9801L461.953 18.3359ZM484.59 19.1953L484.215 19.5267L484.217 19.5281L484.59 19.1953ZM486.465 22.0078V22.5078H487.223L486.924 21.8109L486.465 22.0078ZM483.145 22.0078L482.729 22.2865L482.878 22.5078H483.145V22.0078ZM464.082 20.4258L463.723 20.0778L463.723 20.0779L464.082 20.4258ZM464.16 38.043L463.805 38.3947V38.3947L464.16 38.043ZM478.75 40.3086L478.993 40.7454L478.997 40.7431L478.75 40.3086ZM483.262 36.2461V35.7461H483.012L482.862 35.9451L483.262 36.2461ZM486.143 36.0069C484.673 38.7041 482.842 40.703 480.658 42.0297C478.475 43.3559 475.911 44.0273 472.949 44.0273V45.0273C476.068 45.0273 478.816 44.3186 481.178 42.8844C483.538 41.4506 485.483 39.3089 487.021 36.4853L486.143 36.0069ZM472.949 44.0273C468.808 44.0273 465.288 42.5996 462.361 39.7364L461.662 40.4511C464.777 43.4994 468.549 45.0273 472.949 45.0273V44.0273ZM462.362 39.7371C459.424 36.8495 457.961 33.3582 457.961 29.2344H456.961C456.961 33.6262 458.532 37.3745 461.661 40.4504L462.362 39.7371ZM457.961 29.2344C457.961 25.0546 459.407 21.5511 462.304 18.6918L461.602 17.9801C458.509 21.0323 456.961 24.7944 456.961 29.2344H457.961ZM462.304 18.6918C465.189 15.8447 468.714 14.4219 472.91 14.4219V13.4219C468.46 13.4219 464.681 14.9418 461.602 17.9801L462.304 18.6918ZM472.91 14.4219C477.441 14.4219 481.198 16.1178 484.215 19.5267L484.964 18.8639C481.758 15.2416 477.729 13.4219 472.91 13.4219V14.4219ZM484.217 19.5281C485.05 20.4628 485.641 21.3554 486.005 22.2048L486.924 21.8109C486.507 20.8373 485.848 19.8549 484.963 18.8625L484.217 19.5281ZM486.465 21.5078H483.145V22.5078H486.465V21.5078ZM483.56 21.7291C481.042 17.9804 477.454 16.0977 472.852 16.0977V17.0977C477.129 17.0977 480.403 18.8217 482.729 22.2865L483.56 21.7291ZM472.852 16.0977C469.336 16.0977 466.285 17.4344 463.723 20.0778L464.441 20.7738C466.827 18.313 469.622 17.0977 472.852 17.0977V16.0977ZM463.723 20.0779C461.201 22.6807 459.93 25.7534 459.93 29.2734H460.93C460.93 26.0227 462.093 23.1969 464.441 20.7737L463.723 20.0779ZM459.93 29.2734C459.93 32.7471 461.231 35.7943 463.805 38.3947L464.516 37.6913C462.115 35.2656 460.93 32.4665 460.93 29.2734H459.93ZM463.805 38.3947C466.392 41.0086 469.434 42.332 472.91 42.332V41.332C469.72 41.332 466.929 40.1294 464.516 37.6913L463.805 38.3947ZM472.91 42.332C475.066 42.332 477.097 41.8021 478.993 40.7454L478.507 39.8718C476.758 40.8463 474.895 41.332 472.91 41.332V42.332ZM478.997 40.7431C480.756 39.742 482.31 38.3396 483.661 36.547L482.862 35.9451C481.583 37.6421 480.129 38.9481 478.503 39.8741L478.997 40.7431ZM483.262 36.7461H486.582V35.7461H483.262V36.7461ZM511.191 35.9922L511.684 36.0753L511.685 36.0702L511.191 35.9922ZM510.312 39L510.766 39.2114L510.766 39.2095L510.312 39ZM492.383 39L491.929 39.2095L491.93 39.2114L492.383 39ZM491.523 35.9922L492.017 35.9145L492.016 35.9079L491.523 35.9922ZM491.27 14.3906V13.8906H490.77V14.3906H491.27ZM494.238 14.3906H494.738V13.8906H494.238V14.3906ZM494.434 35.582L493.939 35.6569L493.939 35.6585L494.434 35.582ZM495.234 38.1992L495.673 37.9588L495.671 37.9549L495.234 38.1992ZM507.461 38.1992L507.025 37.9549L507.023 37.9588L507.461 38.1992ZM508.262 35.582L507.768 35.4998L507.768 35.5056L508.262 35.582ZM508.477 14.3906V13.8906H507.977V14.3906H508.477ZM511.426 14.3906H511.926V13.8906H511.426V14.3906ZM503.711 12.7109L503.474 13.151L503.901 13.3818L504.144 12.9606L503.711 12.7109ZM495.781 8.43359L495.341 8.19718L495.105 8.6368L495.544 8.87366L495.781 8.43359ZM497.07 6.03125L497.311 5.59296L496.868 5.35001L496.63 5.79484L497.07 6.03125ZM505.039 10.4062L505.472 10.6559L505.727 10.2136L505.28 9.96796L505.039 10.4062ZM510.926 32.8477C510.926 33.931 510.849 34.9529 510.698 35.9142L511.685 36.0702C511.846 35.0523 511.926 33.9779 511.926 32.8477H510.926ZM510.698 35.9091C510.509 37.0351 510.227 37.9932 509.859 38.7905L510.766 39.2095C511.18 38.3141 511.484 37.267 511.684 36.0753L510.698 35.9091ZM509.859 38.7886C509.035 40.5569 507.918 41.8577 506.52 42.7199C505.12 43.5831 503.404 44.0273 501.348 44.0273V45.0273C503.549 45.0273 505.456 44.5504 507.045 43.5711C508.634 42.5909 509.872 41.128 510.766 39.2114L509.859 38.7886ZM501.348 44.0273C499.292 44.0273 497.575 43.5831 496.176 42.7199C494.777 41.8577 493.661 40.5569 492.836 38.7886L491.93 39.2114C492.824 41.128 494.061 42.5909 495.651 43.5711C497.239 44.5504 499.146 45.0273 501.348 45.0273V44.0273ZM492.837 38.7905C492.47 37.9952 492.194 37.039 492.017 35.9145L491.03 36.0699C491.217 37.2631 491.515 38.3121 491.929 39.2095L492.837 38.7905ZM492.016 35.9079C491.852 34.9488 491.77 33.929 491.77 32.8477H490.77C490.77 33.9798 490.856 35.0564 491.031 36.0765L492.016 35.9079ZM491.77 32.8477V14.3906H490.77V32.8477H491.77ZM491.27 14.8906H494.238V13.8906H491.27V14.8906ZM493.738 14.3906V32.8477H494.738V14.3906H493.738ZM493.738 32.8477C493.738 33.8336 493.805 34.7703 493.939 35.6569L494.928 35.5071C494.802 34.675 494.738 33.7888 494.738 32.8477H493.738ZM493.939 35.6585C494.114 36.7854 494.394 37.7217 494.798 38.4435L495.671 37.9549C495.346 37.3746 495.092 36.5661 494.928 35.5056L493.939 35.6585ZM494.796 38.4396C495.496 39.7158 496.396 40.6955 497.503 41.3537C498.611 42.0119 499.899 42.332 501.348 42.332V41.332C500.049 41.332 498.944 41.0467 498.014 40.494C497.084 39.9413 496.301 39.1045 495.673 37.9588L494.796 38.4396ZM501.348 42.332C502.797 42.332 504.084 42.0119 505.192 41.3537C506.3 40.6955 507.199 39.7158 507.899 38.4396L507.023 37.9588C506.394 39.1045 505.611 39.9413 504.681 40.494C503.751 41.0467 502.646 41.332 501.348 41.332V42.332ZM507.897 38.4435C508.301 37.7217 508.581 36.7854 508.756 35.6585L507.768 35.5056C507.603 36.5661 507.35 37.3746 507.025 37.9549L507.897 38.4435ZM508.755 35.6642C508.903 34.775 508.977 33.8359 508.977 32.8477H507.977C507.977 33.7865 507.907 34.6703 507.769 35.4998L508.755 35.6642ZM508.977 32.8477V14.3906H507.977V32.8477H508.977ZM508.477 14.8906H511.426V13.8906H508.477V14.8906ZM510.926 14.3906V32.8477H511.926V14.3906H510.926ZM503.948 12.2709L496.019 7.99353L495.544 8.87366L503.474 13.151L503.948 12.2709ZM496.222 8.67L497.511 6.26766L496.63 5.79484L495.341 8.19718L496.222 8.67ZM496.83 6.46954L504.798 10.8445L505.28 9.96796L497.311 5.59296L496.83 6.46954ZM504.606 10.1566L503.278 12.4613L504.144 12.9606L505.472 10.6559L504.606 10.1566ZM538.086 44L537.671 44.2796L537.82 44.5H538.086V44ZM520.527 17.9648L520.942 17.6853L520.793 17.4648H520.527V17.9648ZM520.449 17.9648V17.4648H519.949V17.9648H520.449ZM520.449 44V44.5H520.949V44H520.449ZM517.48 44H516.98V44.5H517.48V44ZM517.48 14.3906V13.8906H516.98V14.3906H517.48ZM521.484 14.3906L521.899 14.1116L521.751 13.8906H521.484V14.3906ZM538.008 38.9609L537.593 39.24L537.742 39.4609H538.008V38.9609ZM538.086 38.9609V39.4609H538.586V38.9609H538.086ZM538.086 14.3906V13.8906H537.586V14.3906H538.086ZM541.035 14.3906H541.535V13.8906H541.035V14.3906ZM541.035 44V44.5H541.535V44H541.035ZM538.5 43.7204L520.942 17.6853L520.113 18.2444L537.671 44.2796L538.5 43.7204ZM520.527 17.4648H520.449V18.4648H520.527V17.4648ZM519.949 17.9648V44H520.949V17.9648H519.949ZM520.449 43.5H517.48V44.5H520.449V43.5ZM517.98 44V14.3906H516.98V44H517.98ZM517.48 14.8906H521.484V13.8906H517.48V14.8906ZM521.069 14.6696L537.593 39.24L538.423 38.6819L521.899 14.1116L521.069 14.6696ZM538.008 39.4609H538.086V38.4609H538.008V39.4609ZM538.586 38.9609V14.3906H537.586V38.9609H538.586ZM538.086 14.8906H541.035V13.8906H538.086V14.8906ZM540.535 14.3906V44H541.535V14.3906H540.535ZM541.035 43.5H538.086V44.5H541.035V43.5ZM577.207 30.4062L577.705 30.4466L577.749 29.9062H577.207V30.4062ZM572.168 40.5039L572.501 40.8771L572.501 40.8769L572.168 40.5039ZM550.469 40.0742L550.125 40.4373L550.125 40.4374L550.469 40.0742ZM550.43 18.2969L550.773 18.66L550.774 18.6595L550.43 18.2969ZM573.613 19.3125L573.237 19.6423L573.24 19.6453L573.613 19.3125ZM575.527 22.2812V22.7812H576.273L575.99 22.0915L575.527 22.2812ZM572.09 22.2812L571.657 22.5314L571.801 22.7812H572.09V22.2812ZM567.578 18.0625L567.812 17.6206L567.81 17.6196L567.578 18.0625ZM552.48 20.25L552.828 20.609L552.829 20.6081L552.48 20.25ZM552.52 38.2188L552.175 38.5813L552.176 38.5824L552.52 38.2188ZM569.121 39.3906L568.832 38.9827L568.832 38.983L569.121 39.3906ZM573.652 33.082L574.137 33.2068L574.298 32.582H573.652V33.082ZM557.129 33.082H556.629V33.582H557.129V33.082ZM557.129 30.4062V29.9062H556.629V30.4062H557.129ZM576.709 30.3659C576.394 34.2603 574.774 37.5074 571.835 40.1309L572.501 40.8769C575.63 38.0838 577.369 34.5991 577.705 30.4466L576.709 30.3659ZM571.835 40.1307C568.92 42.7306 565.503 44.0273 561.562 44.0273V45.0273C565.747 45.0273 569.401 43.6418 572.501 40.8771L571.835 40.1307ZM561.562 44.0273C557.435 44.0273 553.859 42.5933 550.812 39.711L550.125 40.4374C553.354 43.4926 557.175 45.0273 561.562 45.0273V44.0273ZM550.813 39.7112C547.718 36.7807 546.184 33.284 546.184 29.1953H545.184C545.184 33.5702 546.839 37.3261 550.125 40.4373L550.813 39.7112ZM546.184 29.1953C546.184 25.0649 547.707 21.5625 550.773 18.66L550.086 17.9337C546.824 21.0208 545.184 24.784 545.184 29.1953H546.184ZM550.774 18.6595C553.779 15.8055 557.354 14.3828 561.523 14.3828V13.3828C557.099 13.3828 553.278 14.9028 550.085 17.9343L550.774 18.6595ZM561.523 14.3828C566.265 14.3828 570.157 16.1324 573.237 19.6423L573.989 18.9827C570.716 15.253 566.548 13.3828 561.523 13.3828V14.3828ZM573.24 19.6453C574.068 20.5739 574.673 21.5161 575.065 22.471L575.99 22.0915C575.548 21.0151 574.877 19.9782 573.986 18.9797L573.24 19.6453ZM575.527 21.7812H572.09V22.7812H575.527V21.7812ZM572.523 22.0311C571.455 20.1832 569.878 18.7142 567.812 17.6206L567.344 18.5044C569.263 19.5201 570.693 20.8637 571.657 22.5314L572.523 22.0311ZM567.81 17.6196C565.827 16.5807 563.742 16.0586 561.562 16.0586V17.0586C563.576 17.0586 565.501 17.5391 567.346 18.5054L567.81 17.6196ZM561.562 16.0586C557.904 16.0586 554.751 17.3399 552.132 19.8919L552.829 20.6081C555.262 18.2382 558.164 17.0586 561.562 17.0586V16.0586ZM552.132 19.891C549.484 22.458 548.152 25.5818 548.152 29.2344H549.152C549.152 25.8557 550.372 22.99 552.828 20.609L552.132 19.891ZM548.152 29.2344C548.152 32.9137 549.498 36.0394 552.175 38.5813L552.864 37.8562C550.385 35.5022 549.152 32.6383 549.152 29.2344H548.152ZM552.176 38.5824C554.823 41.0801 557.999 42.332 561.68 42.332V41.332C558.251 41.332 555.321 40.1751 552.863 37.8551L552.176 38.5824ZM561.68 42.332C564.458 42.332 567.039 41.4826 569.411 39.7983L568.832 38.983C566.62 40.5539 564.24 41.332 561.68 41.332V42.332ZM569.41 39.7985C571.865 38.0588 573.453 35.8605 574.137 33.2068L573.168 32.9572C572.55 35.3557 571.117 37.3631 568.832 38.9827L569.41 39.7985ZM573.652 32.582H557.129V33.582H573.652V32.582ZM557.629 33.082V30.4062H556.629V33.082H557.629ZM557.129 30.9062H577.207V29.9062H557.129V30.9062ZM600.078 17.0859V16.5859H599.578V17.0859H600.078ZM600.078 44V44.5H600.578V44H600.078ZM597.109 44H596.609V44.5H597.109V44ZM597.109 17.0859H597.609V16.5859H597.109V17.0859ZM590.312 17.0859H589.812V17.5859H590.312V17.0859ZM590.312 14.3906V13.8906H589.812V14.3906H590.312ZM606.836 14.3906H607.336V13.8906H606.836V14.3906ZM606.836 17.0859V17.5859H607.336V17.0859H606.836ZM599.578 17.0859V44H600.578V17.0859H599.578ZM600.078 43.5H597.109V44.5H600.078V43.5ZM597.609 44V17.0859H596.609V44H597.609ZM597.109 16.5859H590.312V17.5859H597.109V16.5859ZM590.812 17.0859V14.3906H589.812V17.0859H590.812ZM590.312 14.8906H606.836V13.8906H590.312V14.8906ZM606.336 14.3906V17.0859H607.336V14.3906H606.336ZM606.836 16.5859H600.078V17.5859H606.836V16.5859ZM610.137 44H609.637V44.5H610.137V44ZM610.137 14.3906V13.8906H609.637V14.3906H610.137ZM613.105 14.3906H613.605V13.8906H613.105V14.3906ZM613.105 44V44.5H613.605V44H613.105ZM610.637 44V14.3906H609.637V44H610.637ZM610.137 14.8906H613.105V13.8906H610.137V14.8906ZM612.605 14.3906V44H613.605V14.3906H612.605ZM613.105 43.5H610.137V44.5H613.105V43.5ZM618.926 44H618.426V44.5H618.926V44ZM618.926 14.3906V13.8906H618.426V14.3906H618.926ZM635.117 14.3906H635.617V13.8906H635.117V14.3906ZM635.117 17.0859V17.5859H635.617V17.0859H635.117ZM621.895 17.0859V16.5859H621.395V17.0859H621.895ZM621.895 27.7109H621.395V28.2109H621.895V27.7109ZM634.688 27.7109H635.188V27.2109H634.688V27.7109ZM634.688 30.4062V30.9062H635.188V30.4062H634.688ZM621.895 30.4062V29.9062H621.395V30.4062H621.895ZM621.895 41.3242H621.395V41.8242H621.895V41.3242ZM635.117 41.3242H635.617V40.8242H635.117V41.3242ZM635.117 44V44.5H635.617V44H635.117ZM632.031 8.98047L631.598 9.23012L631.841 9.65176L632.269 9.42029L632.031 8.98047ZM630.703 6.67578L630.463 6.23749L630.015 6.48315L630.27 6.92543L630.703 6.67578ZM638.672 2.30078L639.114 2.06717L638.877 1.618L638.431 1.86249L638.672 2.30078ZM639.941 4.70312L640.179 5.14294L640.615 4.90738L640.383 4.46951L639.941 4.70312ZM630.371 11.9297L630.047 12.3102L630.187 12.4297H630.371V11.9297ZM626.934 9L627.258 8.61946L626.938 8.34688L626.615 8.61502L626.934 9ZM623.398 11.9297V12.4297H623.579L623.717 12.3147L623.398 11.9297ZM619.766 11.9297L619.439 11.551L618.42 12.4297H619.766V11.9297ZM625.566 6.92969V6.42969H625.381L625.24 6.55096L625.566 6.92969ZM628.203 6.92969L628.532 6.55316L628.391 6.42969H628.203V6.92969ZM633.926 11.9297V12.4297H635.258L634.255 11.5532L633.926 11.9297ZM619.426 44V14.3906H618.426V44H619.426ZM618.926 14.8906H635.117V13.8906H618.926V14.8906ZM634.617 14.3906V17.0859H635.617V14.3906H634.617ZM635.117 16.5859H621.895V17.5859H635.117V16.5859ZM621.395 17.0859V27.7109H622.395V17.0859H621.395ZM621.895 28.2109H634.688V27.2109H621.895V28.2109ZM634.188 27.7109V30.4062H635.188V27.7109H634.188ZM634.688 29.9062H621.895V30.9062H634.688V29.9062ZM621.395 30.4062V41.3242H622.395V30.4062H621.395ZM621.895 41.8242H635.117V40.8242H621.895V41.8242ZM634.617 41.3242V44H635.617V41.3242H634.617ZM635.117 43.5H618.926V44.5H635.117V43.5ZM632.464 8.73082L631.136 6.42613L630.27 6.92543L631.598 9.23012L632.464 8.73082ZM630.944 7.11407L638.912 2.73907L638.431 1.86249L630.463 6.23749L630.944 7.11407ZM638.23 2.53439L639.499 4.93674L640.383 4.46951L639.114 2.06717L638.23 2.53439ZM639.704 4.26331L631.793 8.54065L632.269 9.42029L640.179 5.14294L639.704 4.26331ZM630.695 11.5491L627.258 8.61946L626.609 9.38054L630.047 12.3102L630.695 11.5491ZM626.615 8.61502L623.079 11.5447L623.717 12.3147L627.253 9.38498L626.615 8.61502ZM623.398 11.4297H619.766V12.4297H623.398V11.4297ZM620.092 12.3084L625.893 7.30841L625.24 6.55096L619.439 11.551L620.092 12.3084ZM625.566 7.42969H628.203V6.42969H625.566V7.42969ZM627.874 7.30621L633.597 12.3062L634.255 11.5532L628.532 6.55316L627.874 7.30621ZM633.926 11.4297H630.371V12.4297H633.926V11.4297ZM661.172 44L660.757 44.2796L660.906 44.5H661.172V44ZM643.613 17.9648L644.028 17.6853L643.879 17.4648H643.613V17.9648ZM643.535 17.9648V17.4648H643.035V17.9648H643.535ZM643.535 44V44.5H644.035V44H643.535ZM640.566 44H640.066V44.5H640.566V44ZM640.566 14.3906V13.8906H640.066V14.3906H640.566ZM644.57 14.3906L644.985 14.1116L644.837 13.8906H644.57V14.3906ZM661.094 38.9609L660.679 39.24L660.827 39.4609H661.094V38.9609ZM661.172 38.9609V39.4609H661.672V38.9609H661.172ZM661.172 14.3906V13.8906H660.672V14.3906H661.172ZM664.121 14.3906H664.621V13.8906H664.121V14.3906ZM664.121 44V44.5H664.621V44H664.121ZM661.586 43.7204L644.028 17.6853L643.199 18.2444L660.757 44.2796L661.586 43.7204ZM643.613 17.4648H643.535V18.4648H643.613V17.4648ZM643.035 17.9648V44H644.035V17.9648H643.035ZM643.535 43.5H640.566V44.5H643.535V43.5ZM641.066 44V14.3906H640.066V44H641.066ZM640.566 14.8906H644.57V13.8906H640.566V14.8906ZM644.155 14.6696L660.679 39.24L661.509 38.6819L644.985 14.1116L644.155 14.6696ZM661.094 39.4609H661.172V38.4609H661.094V39.4609ZM661.672 38.9609V14.3906H660.672V38.9609H661.672ZM661.172 14.8906H664.121V13.8906H661.172V14.8906ZM663.621 14.3906V44H664.621V14.3906H663.621ZM664.121 43.5H661.172V44.5H664.121V43.5ZM694.57 42.0273L694.225 41.6658L694.224 41.6671L694.57 42.0273ZM681.777 42.1055L682.122 41.7437L682.121 41.7423L681.777 42.1055ZM679.16 35.7188V35.2188H678.653L678.66 35.7261L679.16 35.7188ZM682.129 35.7188L682.628 35.698L682.609 35.2188H682.129V35.7188ZM692.48 40.1523L692.83 40.5099L692.83 40.5098L692.48 40.1523ZM692.148 31.6562L692.455 31.2612L692.453 31.2596L692.148 31.6562ZM690.039 30.4648L690.237 30.0056L690.228 30.0019L690.039 30.4648ZM687.637 29.6445L687.779 29.1653L687.778 29.1649L687.637 29.6445ZM684.668 28.6094L684.869 28.1514L684.862 28.1486L684.668 28.6094ZM682.227 27.2031L681.908 27.5883L681.91 27.5905L682.227 27.2031ZM682.402 16.1094L682.062 15.7427L682.062 15.7429L682.402 16.1094ZM694.082 16.168L694.43 15.8086L694.43 15.8085L694.082 16.168ZM696.484 21.9297V22.4297H696.984V21.9297H696.484ZM693.516 21.9297H693.016V22.4297H693.516V21.9297ZM691.992 18.1602L692.352 17.8133L692.352 17.8133L691.992 18.1602ZM684.492 18.0234L684.834 18.3882L684.836 18.3861L684.492 18.0234ZM685.312 25.6406L685.066 26.0759L685.07 26.0777L685.312 25.6406ZM687.598 26.5781L687.445 27.0545L687.455 27.0574L687.598 26.5781ZM689.961 27.2812L690.105 26.8024L690.104 26.802L689.961 27.2812ZM695.176 30.3086L695.545 29.9716L695.545 29.9715L695.176 30.3086ZM696.707 35.8359C696.707 38.1484 695.883 40.0812 694.225 41.6658L694.916 42.3888C696.773 40.6141 697.707 38.4193 697.707 35.8359H696.707ZM694.224 41.6671C692.587 43.2417 690.616 44.0273 688.281 44.0273V45.0273C690.868 45.0273 693.09 44.1463 694.917 42.3876L694.224 41.6671ZM688.281 44.0273C685.748 44.0273 683.71 43.2578 682.122 41.7437L681.432 42.4673C683.23 44.1823 685.528 45.0273 688.281 45.0273V44.0273ZM682.121 41.7423C680.526 40.2324 679.697 38.2383 679.66 35.7114L678.66 35.7261C678.701 38.4856 679.617 40.7493 681.434 42.4686L682.121 41.7423ZM679.16 36.2188H682.129V35.2188H679.16V36.2188ZM681.629 35.7395C681.717 37.8514 682.296 39.5199 683.442 40.6584C684.59 41.7998 686.232 42.332 688.281 42.332V41.332C686.398 41.332 685.048 40.8453 684.146 39.949C683.241 39.0497 682.71 37.6616 682.628 35.698L681.629 35.7395ZM688.281 42.332C690.061 42.332 691.587 41.7242 692.83 40.5099L692.131 39.7948C691.082 40.82 689.809 41.332 688.281 41.332V42.332ZM692.83 40.5098C694.099 39.269 694.738 37.74 694.738 35.9531H693.738C693.738 37.4736 693.206 38.744 692.131 39.7948L692.83 40.5098ZM694.738 35.9531C694.738 34.0169 693.972 32.4379 692.455 31.2612L691.842 32.0513C693.111 33.0361 693.738 34.3217 693.738 35.9531H694.738ZM692.453 31.2596C691.852 30.7984 691.11 30.3819 690.237 30.0056L689.841 30.924C690.66 31.277 691.325 31.6547 691.844 32.0529L692.453 31.2596ZM690.228 30.0019C689.57 29.7332 688.752 29.4545 687.779 29.1653L687.494 30.1238C688.448 30.4075 689.232 30.6757 689.85 30.9278L690.228 30.0019ZM687.778 29.1649C686.551 28.8033 685.584 28.4651 684.869 28.1515L684.467 29.0673C685.237 29.4047 686.248 29.7566 687.495 30.1241L687.778 29.1649ZM684.862 28.1486C683.904 27.7451 683.135 27.2989 682.543 26.8158L681.91 27.5905C682.595 28.149 683.453 28.6403 684.474 29.0702L684.862 28.1486ZM682.545 26.8179C681.172 25.6811 680.461 24.0449 680.461 21.832H679.461C679.461 24.2806 680.261 26.2251 681.908 27.5883L682.545 26.8179ZM680.461 21.832C680.461 19.6605 681.221 17.8877 682.742 16.4759L682.062 15.7429C680.328 17.3519 679.461 19.3942 679.461 21.832H680.461ZM682.742 16.4761C684.245 15.083 686.081 14.3828 688.281 14.3828V13.3828C685.846 13.3828 683.763 14.167 682.062 15.7427L682.742 16.4761ZM688.281 14.3828C690.45 14.3828 692.257 15.0986 693.734 16.5274L694.43 15.8085C692.756 14.1905 690.696 13.3828 688.281 13.3828V14.3828ZM693.734 16.5273C695.235 17.9796 695.984 19.7692 695.984 21.9297H696.984C696.984 19.5069 696.132 17.4553 694.43 15.8086L693.734 16.5273ZM696.484 21.4297H693.516V22.4297H696.484V21.4297ZM694.016 21.9297C694.016 20.3414 693.457 18.9608 692.352 17.8133L691.632 18.507C692.558 19.4689 693.016 20.6013 693.016 21.9297H694.016ZM692.352 17.8133C691.232 16.6506 689.866 16.0586 688.281 16.0586V17.0586C689.587 17.0586 690.695 17.5343 691.632 18.5071L692.352 17.8133ZM688.281 16.0586C686.664 16.0586 685.275 16.5908 684.148 17.6608L684.836 18.3861C685.767 17.503 686.904 17.0586 688.281 17.0586V16.0586ZM684.15 17.6587C683.003 18.7339 682.43 20.0984 682.43 21.7148H683.43C683.43 20.3625 683.898 19.2661 684.834 18.3882L684.15 17.6587ZM682.43 21.7148C682.43 23.6271 683.333 25.0954 685.066 26.0758L685.559 25.2054C684.115 24.389 683.43 23.2401 683.43 21.7148H682.43ZM685.07 26.0777C685.694 26.4248 686.49 26.7491 687.445 27.0544L687.75 26.1018C686.831 25.8082 686.102 25.5075 685.555 25.2035L685.07 26.0777ZM687.455 27.0574L689.818 27.7605L690.104 26.802L687.74 26.0989L687.455 27.0574ZM689.817 27.7601C692.008 28.4187 693.659 29.3883 694.806 30.6456L695.545 29.9715C694.245 28.5466 692.419 27.498 690.105 26.8024L689.817 27.7601ZM694.806 30.6456C696.068 32.0287 696.707 33.7472 696.707 35.8359H697.707C697.707 33.5236 696.992 31.5572 695.545 29.9716L694.806 30.6456ZM701.23 44H700.73V44.5H701.23V44ZM701.23 14.3906V13.8906H700.73V14.3906H701.23ZM704.18 14.3906H704.68V13.8906H704.18V14.3906ZM704.18 44V44.5H704.68V44H704.18ZM709.863 10.2891L710.16 10.6913L710.558 10.3973L710.268 9.99617L709.863 10.2891ZM704.297 11.5781L704.439 11.0985L704.43 11.0961L704.297 11.5781ZM702.852 11.0117L703.063 10.5586L703.051 10.5532L703.04 10.5484L702.852 11.0117ZM701.504 10.4648L701.692 10.0015L701.684 9.99848L701.677 9.99567L701.504 10.4648ZM697.48 11.4023L697.071 11.6888L697.404 12.166L697.826 11.7641L697.48 11.4023ZM696.074 9.39062L695.733 9.02536L695.416 9.32157L695.664 9.67709L696.074 9.39062ZM701.836 7.98438L701.678 8.45872L701.688 8.46215L701.699 8.46514L701.836 7.98438ZM703.262 8.53125L703.615 8.1777L703.55 8.11205L703.465 8.07434L703.262 8.53125ZM703.418 8.60938L703.642 8.16216L703.61 8.14627L703.576 8.13503L703.418 8.60938ZM703.594 8.6875L703.817 8.24029L703.786 8.22439L703.752 8.21316L703.594 8.6875ZM703.926 8.84375L703.729 9.30332L703.736 9.30624L703.742 9.30895L703.926 8.84375ZM704.57 9.09766L704.387 9.56286L704.398 9.56704L704.408 9.57074L704.57 9.09766ZM707.227 9.01953L707.445 9.46929L707.459 9.46248L707.473 9.45481L707.227 9.01953ZM708.125 8.51172L708.371 8.947L708.381 8.94157L708.39 8.93572L708.125 8.51172ZM708.438 8.31641L708.843 8.02351L708.569 7.64465L708.172 7.89241L708.438 8.31641ZM701.73 44V14.3906H700.73V44H701.73ZM701.23 14.8906H704.18V13.8906H701.23V14.8906ZM703.68 14.3906V44H704.68V14.3906H703.68ZM704.18 43.5H701.23V44.5H704.18V43.5ZM709.566 9.88682C708.223 10.8784 707.024 11.332 705.957 11.332V12.332C707.312 12.332 708.717 11.7571 710.16 10.6913L709.566 9.88682ZM705.957 11.332C705.476 11.332 704.971 11.2559 704.439 11.0986L704.155 12.0576C704.769 12.2389 705.37 12.332 705.957 12.332V11.332ZM704.43 11.0961C704.091 11.0026 703.638 10.8268 703.063 10.5586L702.64 11.4648C703.237 11.7435 703.748 11.9453 704.164 12.0601L704.43 11.0961ZM703.04 10.5484L701.692 10.0015L701.316 10.9282L702.664 11.475L703.04 10.5484ZM701.677 9.99567C701.143 9.7989 700.634 9.69141 700.156 9.69141V10.6914C700.486 10.6914 700.876 10.7662 701.331 10.934L701.677 9.99567ZM700.156 9.69141C699.06 9.69141 698.051 10.1676 697.135 11.0405L697.826 11.7641C698.603 11.0225 699.377 10.6914 700.156 10.6914V9.69141ZM697.89 11.1159L696.484 9.10416L695.664 9.67709L697.071 11.6888L697.89 11.1159ZM696.416 9.75589C697.525 8.71877 698.791 8.21094 700.234 8.21094V7.21094C698.526 7.21094 697.019 7.82289 695.733 9.02536L696.416 9.75589ZM700.234 8.21094C700.696 8.21094 701.177 8.29162 701.678 8.45872L701.994 7.51003C701.402 7.31255 700.814 7.21094 700.234 7.21094V8.21094ZM701.699 8.46514C702.031 8.56001 702.482 8.7317 703.059 8.98816L703.465 8.07434C702.87 7.80996 702.37 7.61707 701.973 7.50361L701.699 8.46514ZM702.908 8.8848C703.024 9.00094 703.178 9.05629 703.26 9.08372L703.576 8.13503C703.551 8.1267 703.542 8.12221 703.544 8.1231C703.545 8.12376 703.552 8.12742 703.563 8.13476C703.574 8.1418 703.593 8.1556 703.615 8.1777L702.908 8.8848ZM703.194 9.05659C703.276 9.09723 703.361 9.13691 703.436 9.16184L703.752 8.21316C703.754 8.21371 703.745 8.21095 703.724 8.2013C703.703 8.19222 703.676 8.17943 703.642 8.16216L703.194 9.05659ZM703.37 9.13471C703.505 9.20238 703.626 9.25908 703.729 9.30332L704.123 8.38418C704.044 8.3503 703.942 8.30283 703.817 8.24029L703.37 9.13471ZM703.742 9.30895L704.387 9.56286L704.754 8.63245L704.109 8.37855L703.742 9.30895ZM704.408 9.57074C704.941 9.75285 705.446 9.85156 705.918 9.85156V8.85156C705.583 8.85156 705.189 8.78101 704.732 8.62457L704.408 9.57074ZM705.918 9.85156C706.425 9.85156 706.936 9.71668 707.445 9.46929L707.008 8.56978C706.606 8.76509 706.244 8.85156 705.918 8.85156V9.85156ZM707.473 9.45481L708.371 8.947L707.879 8.07644L706.981 8.58425L707.473 9.45481ZM708.39 8.93572L708.703 8.74041L708.172 7.89241L707.86 8.08772L708.39 8.93572ZM708.032 8.6093L709.458 10.582L710.268 9.99617L708.843 8.02351L708.032 8.6093Z" fill="#025899"/>
</svg>
