<svg width="200" height="62" viewBox="0 0 200 62" fill="none" xmlns="http://www.w3.org/2000/svg">
<path d="M192.415 21.5654H187.67V14.5593H180.621V9.74186H187.67V2.6958H192.415V9.74186H199.491V14.5593H192.415V21.5654Z" fill="url(#paint0_linear_1181_7595)"/>
<path d="M80.9236 0C68.2439 0 57.9688 10.5834 57.9688 23.6626V38.3374C57.9688 51.3348 68.2439 62 80.9236 62C93.6034 62 103.795 51.3348 103.795 38.3374V23.6626C103.795 10.5834 93.5195 0 80.9236 0ZM93.925 38.3511C93.925 45.7294 88.0953 51.7439 80.9236 51.7439C73.7519 51.7439 67.8524 45.7294 67.8524 38.3511V23.6762C67.8524 16.216 73.682 10.2015 80.9236 10.2015C88.1652 10.2015 93.925 16.216 93.925 23.6762V38.3511Z" fill="url(#paint1_linear_1181_7595)"/>
<path d="M129.447 0C116.764 0 106.492 10.5804 106.492 23.6631V38.3369C106.492 51.3244 116.764 62 129.447 62C142.13 62 152.318 51.338 152.318 38.3369V23.6631C152.318 10.594 142.047 0 129.447 0ZM142.437 38.3369C142.437 45.7214 136.597 51.7324 129.447 51.7324C122.297 51.7324 116.374 45.7214 116.374 38.3369V23.6631C116.374 16.2106 122.214 10.186 129.447 10.186C136.681 10.186 142.437 16.197 142.437 23.6631V38.3369Z" fill="url(#paint2_linear_1181_7595)"/>
<path d="M189.609 38.3453C189.609 45.7315 183.769 51.7437 176.619 51.7437C169.469 51.7437 163.546 45.7315 163.546 38.3453V23.6683C163.546 16.2277 169.358 10.2155 176.577 10.1882V0C163.922 0.0272049 153.664 10.5963 153.664 23.6547V38.3317C153.664 51.3221 163.936 62 176.619 62C189.302 62 199.49 51.3357 199.49 38.3317V25.8311H189.609V38.3317V38.3453Z" fill="url(#paint3_linear_1181_7595)"/>
<circle cx="50.8828" cy="56" r="5" fill="url(#paint4_linear_1181_7595)"/>
<path d="M8.78333 27.4858C7.0319 25.7319 5.7902 24.0697 5.05826 22.4991C4.32631 20.9284 3.96034 18.9521 3.96034 16.57C3.96034 11.9628 5.41116 8.06249 8.3128 4.8689C9.82897 3.24594 11.5151 2.02871 13.3711 1.21723C15.2532 0.405742 17.3575 0 19.6841 0C24.2326 0 28.0492 1.5837 31.1338 4.75111C34.2184 7.91851 35.7607 11.7796 35.7607 16.3344C35.7607 17.5124 35.6692 18.6118 35.4862 19.6327C35.3032 20.6536 35.0157 21.609 34.6236 22.4991C33.9178 24.2267 32.6892 25.889 30.9377 27.4858C33.7348 28.9255 35.8783 30.9804 37.3684 33.6504C38.0742 34.9593 38.6101 36.3728 38.976 37.8911C39.342 39.3832 39.525 41.0061 39.525 42.76C39.525 48.0215 37.5775 52.5501 33.6825 56.3458C29.7875 60.1153 25.1737 62 19.8409 62C14.2206 62 9.50221 60.0891 5.68564 56.2673C1.89521 52.4454 0 47.7336 0 42.1317C0 38.9643 0.771156 36.0456 2.31347 33.3756C3.96034 30.5484 6.11696 28.5852 8.78333 27.4858ZM19.9193 10.4446C18.1679 10.4446 16.6779 11.0467 15.4493 12.2508C14.2206 13.4288 13.6063 14.8685 13.6063 16.57C13.6063 18.2977 14.2337 19.7767 15.4885 21.007C16.7432 22.2111 18.2202 22.8132 19.9193 22.8132C21.6185 22.8132 23.0693 22.2111 24.2718 21.007C25.5004 19.7767 26.1147 18.2977 26.1147 16.57C26.1147 14.8947 25.5004 13.4549 24.2718 12.2508C23.0693 11.0467 21.6185 10.4446 19.9193 10.4446ZM19.7625 33.297C17.2791 33.297 15.1486 34.2001 13.3711 36.0063C11.5935 37.8125 10.7047 40.0114 10.7047 42.6029C10.7047 45.0897 11.5804 47.21 13.3318 48.9639C15.1094 50.6916 17.253 51.5554 19.7625 51.5554C22.2459 51.5554 24.3764 50.6916 26.1539 48.9639C27.9577 47.2362 28.8595 45.1159 28.8595 42.6029C28.8595 39.9852 27.9838 37.7864 26.2324 36.0063C24.4809 34.2001 22.3243 33.297 19.7625 33.297Z" fill="url(#paint5_linear_1181_7595)"/>
<defs>
<linearGradient id="paint0_linear_1181_7595" x1="180.621" y1="21.5654" x2="199.491" y2="21.5654" gradientUnits="userSpaceOnUse">
<stop stop-color="#DFAA23"/>
<stop offset="0.479167" stop-color="#FBF08D"/>
<stop offset="1" stop-color="#DFAA23"/>
</linearGradient>
<linearGradient id="paint1_linear_1181_7595" x1="57.9688" y1="62" x2="103.795" y2="62" gradientUnits="userSpaceOnUse">
<stop stop-color="#DFAA23"/>
<stop offset="0.479167" stop-color="#FBF08D"/>
<stop offset="1" stop-color="#DFAA23"/>
</linearGradient>
<linearGradient id="paint2_linear_1181_7595" x1="106.492" y1="62" x2="152.318" y2="62" gradientUnits="userSpaceOnUse">
<stop stop-color="#DFAA23"/>
<stop offset="0.479167" stop-color="#FBF08D"/>
<stop offset="1" stop-color="#DFAA23"/>
</linearGradient>
<linearGradient id="paint3_linear_1181_7595" x1="153.664" y1="62" x2="199.49" y2="62" gradientUnits="userSpaceOnUse">
<stop stop-color="#DFAA23"/>
<stop offset="0.479167" stop-color="#FBF08D"/>
<stop offset="1" stop-color="#DFAA23"/>
</linearGradient>
<linearGradient id="paint4_linear_1181_7595" x1="45.8828" y1="61" x2="55.8828" y2="61" gradientUnits="userSpaceOnUse">
<stop stop-color="#DFAA23"/>
<stop offset="0.479167" stop-color="#FBF08D"/>
<stop offset="1" stop-color="#DFAA23"/>
</linearGradient>
<linearGradient id="paint5_linear_1181_7595" x1="0" y1="62" x2="39.525" y2="62" gradientUnits="userSpaceOnUse">
<stop stop-color="#DFAA23"/>
<stop offset="0.479167" stop-color="#FBF08D"/>
<stop offset="1" stop-color="#DFAA23"/>
</linearGradient>
</defs>
</svg>
