<svg width="72" height="62" viewBox="0 0 72 62" fill="none" xmlns="http://www.w3.org/2000/svg">
<path d="M63.6715 19.9636H58.7275V13.1495H51.3818V8.46407H58.7275V1.61108H63.6715V8.46407H71.0452V13.1495H63.6715V19.9636Z" fill="url(#paint0_linear_100_266)"/>
<path d="M0 11.9488H5.48206V60.261H15.9683V1.75269H0V11.9488Z" fill="url(#paint1_linear_100_266)"/>
<path d="M58.0725 38.3418C58.0725 45.7233 51.9267 51.7375 44.4005 51.7375C36.8743 51.7375 30.6356 45.7233 30.6356 38.3418V23.6582C30.6356 16.3563 36.5159 10.4617 43.8961 10.1962V0C30.7816 0.265525 20.229 10.7272 20.229 23.645V38.3285C20.229 51.3259 31.0338 62 44.3872 62C57.7406 62 68.4658 51.3259 68.4658 38.3285V25.1983H58.0592V38.3285L58.0725 38.3418Z" fill="url(#paint2_linear_100_266)"/>
<defs>
<linearGradient id="paint0_linear_100_266" x1="51.3818" y1="19.9636" x2="71.0452" y2="19.9636" gradientUnits="userSpaceOnUse">
<stop stop-color="#DFAA23"/>
<stop offset="0.479167" stop-color="#FBF08D"/>
<stop offset="1" stop-color="#DFAA23"/>
</linearGradient>
<linearGradient id="paint1_linear_100_266" x1="0" y1="60.261" x2="15.9683" y2="60.261" gradientUnits="userSpaceOnUse">
<stop stop-color="#DFAA23"/>
<stop offset="0.479167" stop-color="#FBF08D"/>
<stop offset="1" stop-color="#DFAA23"/>
</linearGradient>
<linearGradient id="paint2_linear_100_266" x1="20.229" y1="62" x2="68.4658" y2="62" gradientUnits="userSpaceOnUse">
<stop stop-color="#DFAA23"/>
<stop offset="0.479167" stop-color="#FBF08D"/>
<stop offset="1" stop-color="#DFAA23"/>
</linearGradient>
</defs>
</svg>
