<svg width="113" height="62" viewBox="0 0 113 62" fill="none" xmlns="http://www.w3.org/2000/svg">
<path d="M112.647 13.8959C112.442 13.1452 112.101 12.5036 111.664 11.9985C111.214 11.4798 110.682 11.0976 110.04 10.8383C109.426 10.5926 108.703 10.4561 107.911 10.4561C106.219 10.4561 104.95 11.0021 104.131 12.0668C103.353 13.0906 102.971 14.5921 102.971 16.5441C102.971 17.7726 103.175 18.8237 103.599 19.6836C104.022 20.5572 104.636 21.2261 105.4 21.6629C106.151 22.0861 107.01 22.3045 107.966 22.3045C109.494 22.3045 110.723 21.7994 111.623 20.8166C112.51 19.8474 112.947 18.3732 112.947 16.4349C112.947 15.4794 112.852 14.633 112.647 13.9232V13.8959ZM109.249 16.2711C109.249 17.4723 109.14 18.3459 108.908 18.8783C108.73 19.2878 108.457 19.4516 107.979 19.4516C107.502 19.4516 107.215 19.2741 107.038 18.8783C106.806 18.3596 106.683 17.4996 106.683 16.3257C106.683 15.5476 106.737 14.906 106.833 14.4283C106.915 14.0188 107.065 13.7185 107.256 13.5274C107.42 13.3636 107.652 13.2817 107.993 13.2817C108.457 13.2817 108.744 13.4455 108.921 13.8277C109.153 14.3191 109.262 15.1381 109.262 16.2711H109.249Z" fill="url(#paint0_linear_1128_7124)"/>
<path d="M97.1019 10.5515C97.989 9.56864 98.4257 8.10805 98.4257 6.16971C98.4257 5.21419 98.3302 4.38153 98.1255 3.65807C97.9208 2.92095 97.5932 2.27939 97.1565 1.76068C96.7198 1.22832 96.1739 0.818807 95.5324 0.559452C94.9183 0.313747 94.1949 0.177246 93.3897 0.177246C92.2706 0.177246 91.3289 0.422949 90.592 0.900709C89.8413 1.39212 89.2818 2.10194 88.9542 3.04381C88.6403 3.91743 88.4902 5.00943 88.4902 6.29256C88.4902 7.50743 88.695 8.55851 89.1044 9.43213C89.5275 10.3194 90.128 10.9883 90.9059 11.4251C91.6565 11.8346 92.5163 12.053 93.4444 12.053C94.9729 12.053 96.2012 11.5479 97.1019 10.5651V10.5515ZM94.3861 8.64041C94.2223 9.03627 93.9357 9.21372 93.4444 9.21372C93.1305 9.21372 92.8984 9.13182 92.7347 8.96802C92.5436 8.77692 92.4071 8.46295 92.3252 8.03979C92.2297 7.54838 92.1888 6.89318 92.1888 6.08781C92.1888 5.28245 92.2297 4.66817 92.3252 4.17676C92.4071 3.75361 92.5436 3.4533 92.7347 3.2622C92.8984 3.0984 93.1305 3.0165 93.4444 3.0165C93.9084 3.0165 94.195 3.1803 94.3724 3.56251C94.5362 3.90376 94.7136 4.59992 94.7136 6.0332C94.7136 7.24808 94.6044 8.12171 94.3724 8.65407L94.3861 8.64041Z" fill="url(#paint1_linear_1128_7124)"/>
<path d="M108.416 1.44692C108.416 1.02377 108.266 0.668875 107.993 0.395869C107.72 0.136514 107.365 0 106.942 0C106.383 0 106.055 0.245715 105.878 0.436819C105.7 0.641573 105.495 0.928235 105.277 1.29679L93.4036 20.4754C93.1579 20.844 93.0352 21.1852 93.0352 21.4855C93.0352 21.9223 93.2262 22.2909 93.5674 22.5502C93.8813 22.7823 94.2088 22.9051 94.5364 22.9051C95.1096 22.9051 95.6146 22.5502 96.0103 21.8814L107.816 2.83926C108.348 1.99294 108.416 1.65169 108.416 1.41964V1.44692Z" fill="url(#paint2_linear_1128_7124)"/>
<path fill-rule="evenodd" clip-rule="evenodd" d="M35.5574 39.9813C36.7205 38.2426 37.5938 36.8931 38.1681 35.9433C39.1 34.4505 39.8639 33.0552 40.4515 31.7598C41.9436 28.5511 42.709 25.3392 42.709 22.1359C42.709 15.9051 40.7907 10.6395 36.8953 6.45145C32.9073 2.14293 27.7676 0 21.5996 0C15.5981 0 10.5213 2.13689 6.4698 6.39811C2.47676 10.5741 0.490234 15.7373 0.490234 21.7906C0.490234 27.7884 2.43562 32.9218 6.34718 37.097L6.35094 37.101C10.3512 41.3388 15.3662 43.4661 21.296 43.4661C22.0051 43.4661 22.6952 43.4178 23.3652 43.3201L10.7867 62H20.8198L35.5574 39.9813ZM30.5014 12.1356L30.5049 12.1395C32.8833 14.7528 34.0728 17.8666 34.0728 21.5603C34.0728 25.3779 32.9069 28.5602 30.6017 31.1921C28.1955 33.923 25.2281 35.2644 21.5996 35.2644C17.9916 35.2644 15.0344 33.9445 12.6294 31.2619C10.3279 28.6564 9.16434 25.5023 9.16434 21.7138C9.16434 17.8955 10.3304 14.7437 12.6284 12.1669L12.6352 12.1591C14.9834 9.48776 17.934 8.16329 21.5996 8.16329C25.1571 8.16329 28.0931 9.4706 30.5014 12.1356ZM78.5887 39.9813C79.7517 38.2427 80.6249 36.8933 81.1993 35.9435C82.1311 34.4508 82.895 33.0555 83.4826 31.7601C84.9748 28.5513 85.7402 25.3393 85.7402 22.1359C85.7402 15.9051 83.8219 10.6395 79.9265 6.45145C75.9386 2.14293 70.7988 0 64.6309 0C58.6293 0 53.5526 2.13689 49.5011 6.39811C45.508 10.5741 43.5215 15.7373 43.5215 21.7906C43.5215 27.7884 45.4669 32.9218 49.3784 37.097L49.3822 37.101C53.3824 41.3388 58.3974 43.4661 64.3273 43.4661C65.0363 43.4661 65.7265 43.4178 66.3964 43.3201L53.8179 62H63.851L78.5887 39.9813ZM73.5326 12.1356L73.5361 12.1395C75.9146 14.7528 77.1041 17.8666 77.1041 21.5603C77.1041 25.3779 75.9382 28.5602 73.6329 31.1921C71.2267 33.923 68.2594 35.2644 64.6309 35.2644C61.0229 35.2644 58.0657 33.9446 55.6607 31.262C53.3592 28.6565 52.1956 25.5023 52.1956 21.7138C52.1956 17.8955 53.3617 14.7437 55.6596 12.1669L55.6665 12.1591C58.0146 9.48776 60.9653 8.16329 64.6309 8.16329C68.1884 8.16329 71.1244 9.4706 73.5326 12.1356Z" fill="url(#paint3_linear_1128_7124)"/>
<defs>
<linearGradient id="paint0_linear_1128_7124" x1="102.971" y1="22.3045" x2="112.947" y2="22.3045" gradientUnits="userSpaceOnUse">
<stop stop-color="#DFAA23"/>
<stop offset="0.479167" stop-color="#FBF08D"/>
<stop offset="1" stop-color="#DFAA23"/>
</linearGradient>
<linearGradient id="paint1_linear_1128_7124" x1="88.4902" y1="12.053" x2="98.4257" y2="12.053" gradientUnits="userSpaceOnUse">
<stop stop-color="#DFAA23"/>
<stop offset="0.479167" stop-color="#FBF08D"/>
<stop offset="1" stop-color="#DFAA23"/>
</linearGradient>
<linearGradient id="paint2_linear_1128_7124" x1="93.0352" y1="22.9051" x2="108.416" y2="22.9051" gradientUnits="userSpaceOnUse">
<stop stop-color="#DFAA23"/>
<stop offset="0.479167" stop-color="#FBF08D"/>
<stop offset="1" stop-color="#DFAA23"/>
</linearGradient>
<linearGradient id="paint3_linear_1128_7124" x1="0.490234" y1="62" x2="85.7402" y2="62" gradientUnits="userSpaceOnUse">
<stop stop-color="#DFAA23"/>
<stop offset="0.479167" stop-color="#FBF08D"/>
<stop offset="1" stop-color="#DFAA23"/>
</linearGradient>
</defs>
</svg>
