<svg width="24" height="19" viewBox="0 0 24 19" fill="none" xmlns="http://www.w3.org/2000/svg">
<path d="M20.646 12.3612L20.482 11.6006C20.4694 11.5301 20.4088 11.4797 20.3357 11.4797H19.8335C19.7603 11.4797 19.6998 11.5301 19.6871 11.6006L19.5231 12.3612H19.1926V12.6257C19.1926 12.6836 19.1825 12.739 19.1597 12.7944L19.1446 12.8322C19.1017 12.9128 19.1396 13.0136 19.2531 13.142L19.1269 13.3435C19.0639 13.4467 19.1875 13.5651 19.2329 13.6105C19.3137 13.6885 19.4323 13.7767 19.561 13.8573L19.8638 14.0159L19.8713 14.0185C19.9445 14.0487 20.0253 14.0764 20.0934 14.0764C20.1439 14.0764 20.1868 14.0613 20.2145 14.0185L20.3432 13.8119C20.5072 13.8522 20.6107 13.8346 20.6587 13.7565L20.8302 13.4795C20.9211 13.3334 20.969 13.1647 20.969 12.9934V12.3612H20.646ZM19.8562 11.656H20.3129L20.4643 12.3612H19.7048L19.8562 11.656ZM20.3382 13.6281L20.2726 13.6079L20.0884 13.9026C20.0682 13.9001 20.0253 13.89 19.9496 13.8598L19.6569 13.7062C19.4449 13.5752 19.3263 13.4593 19.296 13.4115L19.4222 13.21C19.4499 13.2176 19.5055 13.2352 19.5913 13.283L19.677 13.1294C19.5509 13.0589 19.46 13.0261 19.3919 13.0312C19.3465 12.9808 19.3238 12.943 19.3137 12.9229C19.3944 12.9178 19.6367 12.9858 19.9698 13.1949C20.3029 13.4014 20.4719 13.5878 20.5047 13.6633C20.477 13.6608 20.424 13.6558 20.3382 13.6281ZM20.8 12.9984C20.8 13.137 20.7621 13.273 20.6864 13.3913L20.6158 13.5047C20.5855 13.4619 20.5501 13.4266 20.53 13.4064C20.4164 13.2881 20.2499 13.1596 20.0631 13.0438C20.0051 13.0085 19.619 12.7718 19.3591 12.7491C19.3667 12.7088 19.3717 12.6685 19.3717 12.6257V12.5375H19.4878H20.6864H20.8025V12.9984H20.8Z" fill="#025899"/>
<path d="M19.9115 14.4819C19.7979 14.3635 19.6314 14.2351 19.4421 14.1192C19.3639 14.0713 18.68 13.6608 18.5286 13.9026L18.2334 14.3811C18.1854 14.4592 18.2157 14.5599 18.3242 14.6859L18.2561 14.7967C18.1804 14.8068 18.1097 14.8496 18.0719 14.91C18.0366 14.968 18.0315 15.0334 18.0593 15.0838C18.0618 15.0888 18.0643 15.0939 18.0694 15.0989L18.029 15.1644C17.9533 15.1745 17.8826 15.2173 17.8448 15.2777C17.8095 15.3357 17.8044 15.4012 17.8322 15.4515C17.8347 15.4566 17.8372 15.4616 17.8423 15.4666L17.8019 15.5321C17.7262 15.5422 17.6555 15.585 17.6177 15.6455C17.5823 15.7034 17.5773 15.7689 17.6051 15.8192C17.6076 15.8243 17.6101 15.8293 17.6152 15.8343L17.5748 15.8998C17.4991 15.9099 17.4284 15.9527 17.3906 16.0132C17.3552 16.0711 17.3502 16.1366 17.378 16.187C17.3805 16.192 17.383 16.197 17.388 16.2021L17.3477 16.2675C17.272 16.2776 17.2013 16.3204 17.1635 16.3809C17.1281 16.4388 17.1231 16.5043 17.1508 16.5547C17.1534 16.5597 17.1559 16.5647 17.1609 16.5698L17.1206 16.6353C17.0449 16.6453 16.9742 16.6881 16.9364 16.7486C16.901 16.8065 16.896 16.872 16.9237 16.9224C16.9263 16.9274 16.9288 16.9324 16.9338 16.9375L16.8935 17.003C16.8178 17.013 16.7471 17.0559 16.7093 17.1163C16.6739 17.1742 16.6689 17.2397 16.6966 17.2901C16.6992 17.2951 16.7017 17.3002 16.7067 17.3052L16.6664 17.3707C16.5907 17.3808 16.52 17.4236 16.4821 17.484C16.4468 17.5419 16.4418 17.6074 16.4695 17.6578C16.4721 17.6628 16.4746 17.6679 16.4796 17.6729L16.4392 17.7384C16.3635 17.7485 16.2929 17.7913 16.255 17.8517C16.2197 17.9097 16.2147 17.9751 16.2424 18.0255C16.25 18.0406 16.2626 18.0532 16.2752 18.0633C16.2096 18.3303 16.3206 18.6149 16.5604 18.7635C16.6638 18.8264 16.7774 18.8592 16.896 18.8592C16.9465 18.8592 16.9969 18.8541 17.0449 18.8415C17.2114 18.8012 17.3527 18.7005 17.4436 18.5544L17.4738 18.5066C17.4764 18.5066 17.4764 18.5066 17.4789 18.5066C17.5495 18.5141 17.6126 18.4663 17.6454 18.4184C17.6833 18.358 17.6883 18.2723 17.6656 18.2018L17.7035 18.1388C17.706 18.1388 17.706 18.1388 17.7085 18.1388C17.7792 18.1464 17.8423 18.0986 17.8751 18.0507C17.9129 17.9903 17.918 17.9046 17.8953 17.8341L17.9331 17.7711C17.9356 17.7711 17.9356 17.7711 17.9382 17.7711C18.0088 17.7787 18.0719 17.7308 18.1047 17.683C18.1425 17.6225 18.1476 17.5369 18.1249 17.4664L18.1627 17.4034C18.1653 17.4034 18.1653 17.4034 18.1678 17.4034C18.2384 17.411 18.3015 17.3631 18.3343 17.3153C18.3722 17.2548 18.3772 17.1692 18.3545 17.0987L18.3924 17.0357C18.3949 17.0357 18.3949 17.0357 18.3974 17.0357C18.4681 17.0433 18.5312 16.9954 18.564 16.9476C18.6018 16.8871 18.6069 16.8015 18.5841 16.731L18.622 16.668C18.6245 16.668 18.6245 16.668 18.627 16.668C18.6977 16.6756 18.7608 16.6277 18.7936 16.5798C18.8314 16.5194 18.8365 16.4338 18.8138 16.3633L18.8516 16.3003C18.8541 16.3003 18.8541 16.3003 18.8567 16.3003C18.9273 16.3078 18.9904 16.26 19.0232 16.2121C19.0611 16.1517 19.0661 16.0661 19.0434 15.9955L19.0813 15.9326C19.0838 15.9326 19.0838 15.9326 19.0863 15.9326C19.157 15.9401 19.22 15.8923 19.2528 15.8444C19.2907 15.784 19.2957 15.6983 19.273 15.6278L19.4371 15.3634C19.5001 15.381 19.5557 15.3886 19.6036 15.3886C19.6843 15.3886 19.7399 15.3634 19.7701 15.3105L20.0654 14.832C20.1259 14.706 19.9644 14.5373 19.9115 14.4819ZM19.4194 15.182C19.3866 15.1291 19.3311 15.0763 19.2781 15.0309L19.162 15.1644C19.2251 15.2198 19.2528 15.2551 19.2655 15.2727L19.0762 15.58C19.0661 15.5951 19.0636 15.6127 19.0636 15.6329C19.0409 15.5976 19.0081 15.5548 18.9677 15.5069L18.834 15.6228C18.9097 15.7084 18.9399 15.7638 18.95 15.7865L18.8491 15.9477C18.839 15.9628 18.8365 15.9804 18.8365 16.0006C18.8138 15.9653 18.781 15.9225 18.7406 15.8746L18.6069 15.9905C18.6826 16.0761 18.7128 16.1315 18.7229 16.1542L18.622 16.3154C18.6119 16.3305 18.6094 16.3481 18.6094 16.3683C18.5867 16.333 18.5539 16.2902 18.5135 16.2424L18.3797 16.3582C18.4554 16.4438 18.4857 16.4993 18.4958 16.5219L18.3949 16.6831C18.3848 16.6982 18.3823 16.7159 18.3823 16.7335C18.3596 16.6982 18.3268 16.6554 18.2864 16.6076L18.1526 16.7234C18.2283 16.809 18.2586 16.8644 18.2687 16.8871L18.1678 17.0483C18.1577 17.0634 18.1552 17.081 18.1552 17.0987C18.1325 17.0634 18.0996 17.0206 18.0593 16.9727L17.9255 17.0886C18.0012 17.1742 18.0315 17.2296 18.0416 17.2523L17.9407 17.4135C17.9306 17.4286 17.9281 17.4462 17.9281 17.4639C17.9053 17.4286 17.8725 17.3858 17.8322 17.3379L17.6984 17.4538C17.7741 17.5394 17.8044 17.5948 17.8145 17.6175L17.7136 17.7787C17.7035 17.7938 17.701 17.8114 17.701 17.8291C17.6782 17.7938 17.6454 17.751 17.6051 17.7031L17.4713 17.819C17.547 17.9046 17.5773 17.96 17.5874 17.9827L17.4865 18.1439C17.4764 18.1615 17.4713 18.1791 17.4738 18.1993C17.4486 18.164 17.4183 18.1212 17.3754 18.0734L17.2417 18.1892C17.3174 18.2749 17.3477 18.3303 17.3578 18.3529L17.2922 18.4587C17.1584 18.6778 16.8708 18.7458 16.6512 18.6098C16.4746 18.5015 16.3938 18.2925 16.4443 18.0986C16.5049 18.1237 16.631 18.1968 16.8051 18.3479L16.9212 18.2144C16.843 18.1464 16.5932 17.9374 16.4367 17.9122C16.4493 17.9071 16.4645 17.9046 16.4796 17.9046C16.5124 17.9071 16.5452 17.892 16.5629 17.8618L16.6537 17.7157C16.7093 17.7359 16.8405 17.8089 17.0272 17.9701L17.1433 17.8366C17.0676 17.7686 16.8304 17.5722 16.6739 17.5369C16.684 17.5344 16.6966 17.5319 16.7093 17.5319C16.7421 17.5344 16.7749 17.5193 16.7925 17.4891L16.8834 17.3405C16.9389 17.3606 17.0701 17.4336 17.2568 17.5948L17.3729 17.4614C17.2972 17.3959 17.0625 17.1994 16.9061 17.1642C16.9162 17.1616 16.9263 17.1591 16.9389 17.1616C16.9717 17.1642 17.0045 17.149 17.0222 17.1188L17.113 16.9702C17.1685 16.9904 17.2997 17.0634 17.4865 17.2246L17.6025 17.0911C17.5268 17.0256 17.2947 16.8292 17.1357 16.7939C17.1458 16.7914 17.1559 16.7889 17.1685 16.7914C17.2013 16.7939 17.2341 16.7788 17.2518 16.7486L17.3426 16.6C17.3981 16.6201 17.5294 16.6932 17.7161 16.8544L17.8322 16.7209C17.7565 16.6554 17.5218 16.459 17.3653 16.4237C17.3754 16.4212 17.3855 16.4187 17.3981 16.4212C17.4309 16.4237 17.4637 16.4086 17.4814 16.3784L17.5723 16.2298C17.6278 16.2499 17.759 16.323 17.9457 16.4841L18.0618 16.3507C17.9861 16.2852 17.7514 16.0887 17.595 16.0535C17.6051 16.0509 17.6152 16.0484 17.6278 16.0509C17.6606 16.0535 17.6934 16.0384 17.711 16.0081L17.8019 15.8595C17.8574 15.8797 17.9886 15.9527 18.1753 16.1139L18.2914 15.9804C18.2157 15.9149 17.9836 15.7185 17.8246 15.6832C17.8347 15.6807 17.8448 15.6782 17.8549 15.6807C17.8877 15.6832 17.9205 15.6681 17.9382 15.6379L18.029 15.4893C18.0845 15.5095 18.2157 15.5825 18.4025 15.7437L18.5185 15.6102C18.4428 15.5447 18.2082 15.3483 18.0517 15.313C18.0618 15.3105 18.0719 15.308 18.0845 15.3105C18.1173 15.313 18.1501 15.2979 18.1678 15.2677L18.2586 15.1191C18.3141 15.1392 18.4454 15.2123 18.6321 15.3734L18.7482 15.24C18.6725 15.1745 18.4378 14.978 18.2813 14.9428C18.2914 14.9403 18.3015 14.9377 18.3141 14.9403C18.3469 14.9428 18.3797 14.9277 18.3974 14.8974L18.4883 14.7514C18.5463 14.7589 18.7027 14.8118 18.9172 14.9428L19.0106 14.7917C18.8718 14.706 18.6598 14.5902 18.5084 14.5751C18.4504 14.5146 18.4226 14.4693 18.41 14.4466C18.4126 14.4466 18.4151 14.4466 18.4151 14.4466C18.4176 14.4466 18.4226 14.4466 18.4252 14.4466C18.4277 14.4466 18.4277 14.4466 18.4302 14.4466C18.4756 14.4491 18.5463 14.4668 18.6422 14.502H18.6447C18.6573 14.5071 18.6699 14.5121 18.6826 14.5171C18.6851 14.5171 18.6876 14.5197 18.6901 14.5197C18.7027 14.5247 18.7154 14.5297 18.728 14.5348C18.733 14.5373 18.7355 14.5398 18.7406 14.5398C18.7532 14.5448 18.7633 14.5499 18.7759 14.5549C18.781 14.5574 18.7885 14.5599 18.7936 14.5625C18.8037 14.5675 18.8163 14.5725 18.8264 14.5776C18.834 14.5826 18.8415 14.5851 18.8516 14.5902C18.8617 14.5952 18.8718 14.6002 18.8819 14.6053C18.892 14.6103 18.9021 14.6154 18.9122 14.6204C18.9223 14.6254 18.9298 14.6305 18.9399 14.6355C18.9526 14.6431 18.9652 14.6506 18.9778 14.6582C18.9854 14.6632 18.9929 14.6657 19.0005 14.6708C19.0207 14.6834 19.0434 14.696 19.0661 14.7085C19.0888 14.7211 19.109 14.7362 19.1292 14.7488C19.1368 14.7539 19.1418 14.7589 19.1494 14.7614C19.162 14.769 19.1771 14.7791 19.1898 14.7866C19.1973 14.7917 19.2049 14.7967 19.2125 14.8017C19.2226 14.8093 19.2352 14.8168 19.2453 14.8244C19.2528 14.8294 19.2604 14.8345 19.268 14.8395C19.2781 14.8471 19.2882 14.8546 19.2983 14.8622C19.3058 14.8672 19.3109 14.8723 19.3185 14.8773C19.3285 14.8848 19.3361 14.8924 19.3462 14.8974C19.3538 14.9025 19.3588 14.9075 19.3664 14.9125C19.374 14.9201 19.3815 14.9251 19.3891 14.9327C19.3942 14.9377 19.4017 14.9428 19.4068 14.9478C19.4143 14.9554 19.4219 14.9604 19.4295 14.968C19.4345 14.973 19.4396 14.978 19.4446 14.9831C19.4522 14.9881 19.4572 14.9957 19.4648 15.0007C19.4699 15.0057 19.4749 15.0108 19.4774 15.0133C19.4825 15.0183 19.49 15.0259 19.4951 15.0309C19.5001 15.036 19.5027 15.0385 19.5077 15.0435C19.5128 15.0486 19.5178 15.0561 19.5228 15.0611C19.5254 15.0637 19.5304 15.0687 19.5329 15.0712C19.538 15.0788 19.543 15.0838 19.5481 15.0888C19.5506 15.0914 19.5531 15.0939 19.5531 15.0964C19.5607 15.104 19.5657 15.1115 19.5708 15.1191C19.5733 15.1216 19.5733 15.1241 19.5758 15.1241C19.5784 15.1291 19.5834 15.1342 19.5859 15.1392C19.5885 15.1417 19.5885 15.1443 19.591 15.1468C19.5935 15.1493 19.596 15.1543 19.5986 15.1569C19.6011 15.1594 19.6011 15.1619 19.6011 15.1644C19.6011 15.1669 19.6036 15.1694 19.6036 15.172C19.5607 15.2148 19.5077 15.2097 19.4194 15.182ZM19.6995 15.0611C19.697 15.0586 19.697 15.0561 19.6944 15.0536C19.6919 15.0511 19.6919 15.0486 19.6894 15.046C19.6843 15.0385 19.6768 15.0309 19.6717 15.0234C19.6717 15.0234 19.6717 15.0234 19.6692 15.0208C19.6616 15.0133 19.6541 15.0032 19.6465 14.9957C19.644 14.9931 19.644 14.9906 19.6415 14.9906C19.6339 14.9831 19.6288 14.9755 19.6213 14.9705C19.6187 14.968 19.6187 14.968 19.6162 14.9654C19.6086 14.9579 19.6011 14.9478 19.591 14.9403C19.5885 14.9377 19.5885 14.9377 19.5859 14.9352C19.5784 14.9277 19.5708 14.9226 19.5657 14.9151C19.5632 14.9125 19.5607 14.91 19.5607 14.91C19.5531 14.9025 19.543 14.8949 19.5329 14.8848L19.5304 14.8823C19.5229 14.8748 19.5153 14.8672 19.5052 14.8622C19.5027 14.8597 19.5001 14.8571 19.4976 14.8571C19.49 14.8496 19.48 14.842 19.4699 14.8345C19.4598 14.8269 19.4522 14.8194 19.4421 14.8118C19.4396 14.8093 19.4371 14.8093 19.4345 14.8068C19.427 14.7992 19.4194 14.7942 19.4118 14.7891C19.4093 14.7891 19.4093 14.7866 19.4068 14.7866C19.3967 14.7791 19.3891 14.7715 19.379 14.7665C19.3765 14.764 19.3765 14.764 19.374 14.7614C19.3664 14.7564 19.3588 14.7488 19.3513 14.7438C19.3487 14.7413 19.3487 14.7413 19.3462 14.7388C19.3361 14.7312 19.3285 14.7262 19.321 14.7186C19.321 14.7186 19.321 14.7186 19.3185 14.7186C19.3109 14.7136 19.3033 14.706 19.2957 14.701C19.2932 14.701 19.2932 14.6985 19.2907 14.6985C19.273 14.6859 19.2579 14.6758 19.2428 14.6657C19.2402 14.6657 19.2402 14.6632 19.2377 14.6632C19.2301 14.6582 19.2251 14.6531 19.2175 14.6506C19.2175 14.6506 19.2175 14.6506 19.215 14.6506C19.2074 14.6456 19.2024 14.6431 19.1948 14.638C19.1948 14.638 19.1923 14.638 19.1923 14.6355C19.1872 14.633 19.1822 14.628 19.1771 14.6254C19.1771 14.6254 19.1771 14.6254 19.1746 14.6254C19.1696 14.6229 19.1645 14.6179 19.1595 14.6154C19.1544 14.6128 19.1519 14.6103 19.1494 14.6078C19.1494 14.6078 19.1494 14.6078 19.1469 14.6078C19.1443 14.6053 19.1418 14.6053 19.1393 14.6028C19.1368 14.6028 19.1342 14.6002 19.1317 14.5977L19.1292 14.5952C19.1267 14.5952 19.1242 14.5927 19.1216 14.5902C19.1191 14.5902 19.1191 14.5877 19.1166 14.5877C19.1141 14.5851 19.109 14.5826 19.104 14.5801C19.1014 14.5776 19.0989 14.5776 19.0964 14.5751C19.0939 14.5725 19.0913 14.5725 19.0888 14.57C19.0863 14.5675 19.0838 14.5675 19.0813 14.565C19.0762 14.5625 19.0712 14.5599 19.0661 14.5549C19.0636 14.5524 19.0611 14.5524 19.0585 14.5499C19.0535 14.5474 19.051 14.5448 19.0459 14.5423C19.0434 14.5398 19.0384 14.5398 19.0358 14.5373C19.0308 14.5348 19.0257 14.5322 19.0232 14.5297C19.0182 14.5272 19.0131 14.5247 19.0081 14.5222C19.003 14.5197 18.998 14.5171 18.9929 14.5146C18.9879 14.5121 18.9854 14.5096 18.9803 14.5071C18.9753 14.5045 18.9702 14.502 18.9652 14.4995C18.9601 14.497 18.9576 14.4945 18.9526 14.4919C18.945 14.4869 18.9374 14.4844 18.9298 14.4794C18.9248 14.4768 18.9223 14.4743 18.9172 14.4718C18.9122 14.4693 18.9071 14.4668 18.9021 14.4642C18.897 14.4617 18.892 14.4592 18.8895 14.4567C18.8819 14.4516 18.8718 14.4491 18.8642 14.4441C18.8592 14.4416 18.8567 14.4391 18.8516 14.4391C18.8466 14.4365 18.839 14.434 18.834 14.4315C18.8289 14.429 18.8239 14.4265 18.8188 14.4239C18.8112 14.4214 18.8037 14.4164 18.7961 14.4139C18.7911 14.4114 18.7835 14.4088 18.7784 14.4063C18.7709 14.4038 18.7633 14.4013 18.7583 14.3962C18.7532 14.3937 18.7482 14.3912 18.7431 14.3912C18.7355 14.3887 18.7305 14.3862 18.7229 14.3836C18.7179 14.3811 18.7154 14.3811 18.7103 14.3786C18.7002 14.3736 18.6901 14.3711 18.68 14.366C18.675 14.3635 18.6725 14.3635 18.6674 14.361C18.6598 14.3585 18.6548 14.3559 18.6472 14.3534C18.6422 14.3509 18.6397 14.3509 18.6346 14.3484C18.6245 14.3459 18.6144 14.3408 18.6043 14.3383C18.6018 14.3383 18.5968 14.3358 18.5942 14.3358C18.5867 14.3333 18.5791 14.3308 18.5715 14.3308C18.5665 14.3308 18.564 14.3282 18.5589 14.3282C18.5488 14.3257 18.5387 14.3232 18.5286 14.3207C18.5261 14.3207 18.5236 14.3207 18.5211 14.3182C18.5135 14.3156 18.5059 14.3156 18.4983 14.3131C18.4958 14.3131 18.4908 14.3106 18.4883 14.3106C18.4857 14.3106 18.4832 14.3106 18.4807 14.3106L18.6725 14.0008C18.733 13.9832 18.9854 14.0436 19.3462 14.2678C19.7071 14.4894 19.8761 14.6884 19.8887 14.7488L19.6995 15.0611Z" fill="#025899"/>
<path d="M11.4436 14.5673V13.8293H9.66211V14.5673H9.90183V14.6403C9.84379 14.6706 9.80342 14.7335 9.80342 14.804C9.80342 14.8746 9.84379 14.935 9.90183 14.9677V15.0735C9.84379 15.1037 9.80342 15.1667 9.80342 15.2372C9.80342 15.3078 9.84379 15.3682 9.90183 15.4009V15.5067C9.84379 15.5369 9.80342 15.5999 9.80342 15.6704C9.80342 15.7409 9.84379 15.8014 9.90183 15.8341V15.9399C9.84379 15.9701 9.80342 16.0331 9.80342 16.1036C9.80342 16.1741 9.84379 16.2346 9.90183 16.2673V16.3731C9.84379 16.4033 9.80342 16.4663 9.80342 16.5368C9.80342 16.6073 9.84379 16.6678 9.90183 16.7005V16.8063C9.84379 16.8365 9.80342 16.8995 9.80342 16.97C9.80342 17.0405 9.84379 17.101 9.90183 17.1337V17.2395C9.84379 17.2697 9.80342 17.3327 9.80342 17.4032C9.80342 17.4737 9.84379 17.5342 9.90183 17.5669V17.6727C9.84379 17.7029 9.80342 17.7659 9.80342 17.8364C9.80342 17.9069 9.84379 17.9674 9.90183 18.0001V18.1059C9.84379 18.1361 9.80342 18.1991 9.80342 18.2696C9.80342 18.3502 9.85389 18.4182 9.92707 18.4434C10.0053 18.7154 10.2551 18.9093 10.5428 18.9093C10.8961 18.9093 11.1862 18.6222 11.1862 18.2671V18.184C11.2443 18.1537 11.2847 18.0908 11.2847 18.0203C11.2847 17.9497 11.2443 17.8893 11.1862 17.8566V17.7508C11.2443 17.7205 11.2847 17.6576 11.2847 17.5871C11.2847 17.5165 11.2443 17.4561 11.1862 17.4234V17.3176C11.2443 17.2874 11.2847 17.2244 11.2847 17.1539C11.2847 17.0833 11.2443 17.0229 11.1862 16.9902V16.8844C11.2443 16.8542 11.2847 16.7912 11.2847 16.7207C11.2847 16.6502 11.2443 16.5897 11.1862 16.557V16.4512C11.2443 16.421 11.2847 16.358 11.2847 16.2875C11.2847 16.217 11.2443 16.1565 11.1862 16.1238V16.018C11.2443 15.9878 11.2847 15.9248 11.2847 15.8543C11.2847 15.7838 11.2443 15.7233 11.1862 15.6906V15.5848C11.2443 15.5546 11.2847 15.4916 11.2847 15.4211C11.2847 15.3506 11.2443 15.2901 11.1862 15.2574V15.1516C11.2443 15.1214 11.2847 15.0584 11.2847 14.9879C11.2847 14.9174 11.2443 14.8569 11.1862 14.8242V14.5623H11.4436V14.5673ZM9.83875 14.0031H11.267V14.3885H11.0979H9.99015H9.83875V14.0031ZM11.0979 14.9803C11.103 14.9803 11.108 14.9854 11.108 14.9904C11.108 14.9954 11.1055 14.998 11.103 14.998L10.8532 14.9552L10.8229 15.1289L11.0096 15.1617V15.3254C11.0096 15.3732 11.05 15.4135 11.0979 15.4135C11.103 15.4135 11.108 15.4186 11.108 15.4236C11.108 15.4286 11.1055 15.4312 11.103 15.4312L10.8532 15.3883L10.8229 15.5621L11.0096 15.5949V15.7586C11.0096 15.8064 11.05 15.8467 11.0979 15.8467C11.103 15.8467 11.108 15.8518 11.108 15.8568C11.108 15.8618 11.1055 15.8644 11.103 15.8644L10.8532 15.8215L10.8229 15.9953L11.0096 16.0281V16.1918C11.0096 16.2396 11.05 16.2799 11.0979 16.2799C11.103 16.2799 11.108 16.285 11.108 16.29C11.108 16.295 11.1055 16.2976 11.103 16.2976L10.8532 16.2547L10.8229 16.4285L11.0096 16.4613V16.625C11.0096 16.6728 11.05 16.7131 11.0979 16.7131C11.103 16.7131 11.108 16.7182 11.108 16.7232C11.108 16.7282 11.1055 16.7307 11.103 16.7307L10.8532 16.6879L10.8229 16.8617L11.0096 16.8945V17.0582C11.0096 17.106 11.05 17.1463 11.0979 17.1463C11.103 17.1463 11.108 17.1514 11.108 17.1564C11.108 17.1614 11.1055 17.1639 11.103 17.1639L10.8532 17.1211L10.8229 17.2949L11.0096 17.3277V17.4914C11.0096 17.5392 11.05 17.5795 11.0979 17.5795C11.103 17.5795 11.108 17.5845 11.108 17.5896C11.108 17.5946 11.1055 17.5971 11.103 17.5971L10.8532 17.5543L10.8229 17.7281L11.0096 17.7608V17.9246C11.0096 17.9724 11.05 18.0127 11.0979 18.0127C11.103 18.0127 11.108 18.0177 11.108 18.0228C11.108 18.0278 11.1055 18.0303 11.103 18.0303L10.8532 17.9875L10.8229 18.1613L11.0096 18.194V18.2671C11.0096 18.524 10.8002 18.733 10.5428 18.733C10.3636 18.733 10.2046 18.6323 10.1289 18.4786L10.5428 18.5492L10.5731 18.3754L10.028 18.2822C10.0204 18.2797 10.0129 18.2797 10.0053 18.2772L9.99268 18.2746V18.2772H9.99015C9.98511 18.2772 9.98258 18.2721 9.98258 18.2671C9.98258 18.262 9.98763 18.257 9.99268 18.257C10.0179 18.257 10.0406 18.2469 10.0558 18.2293C10.0709 18.2117 10.081 18.1915 10.081 18.1689V18.0354L10.5478 18.1134L10.5781 17.9397L9.9952 17.8414V17.844C9.99015 17.844 9.98763 17.8414 9.98511 17.8364C9.98511 17.8364 9.98511 17.8364 9.98511 17.8339C9.98511 17.8339 9.98511 17.8339 9.98511 17.8314C9.98511 17.8263 9.99015 17.8238 9.9952 17.8238C10.0431 17.8238 10.0835 17.7835 10.0835 17.7357V17.6022L10.5503 17.6803L10.5806 17.5065L9.99772 17.4082C9.99268 17.4082 9.98763 17.4032 9.98763 17.3982C9.98763 17.3931 9.99268 17.3881 9.99772 17.3881C10.0457 17.3881 10.086 17.3478 10.086 17.2999V17.1665L10.5529 17.2445L10.5832 17.0708L10.0002 16.9725C9.9952 16.9725 9.99015 16.9675 9.99015 16.9625C9.99015 16.9574 9.9952 16.9524 10.0002 16.9524C10.0482 16.9524 10.0886 16.9121 10.0886 16.8642V16.7307L10.5554 16.8088L10.5857 16.635L10.0028 16.5368C9.99772 16.5368 9.99268 16.5318 9.99268 16.5267C9.99268 16.5217 9.99772 16.5167 10.0028 16.5167C10.0507 16.5167 10.0911 16.4764 10.0911 16.4285V16.295L10.5579 16.3731L10.5882 16.1993L10.0053 16.1011C10.0002 16.1011 9.9952 16.0961 9.9952 16.091C9.9952 16.086 10.0002 16.081 10.0053 16.081C10.0532 16.081 10.0936 16.0407 10.0936 15.9928V15.8593L10.5604 15.9374L10.5907 15.7636L10.0078 15.6654C10.0028 15.6654 9.99772 15.6604 9.99772 15.6553C9.99772 15.6503 10.0028 15.6452 10.0078 15.6452C10.0558 15.6452 10.0961 15.6049 10.0961 15.5571V15.4236L10.563 15.5017L10.5932 15.3279L10.0103 15.2297C10.0053 15.2297 10.0002 15.2246 10.0002 15.2196C10.0002 15.2146 10.0053 15.2095 10.0103 15.2095C10.0583 15.2095 10.0987 15.1692 10.0987 15.1214V15.0055L10.5655 15.0836L10.5958 14.9098L10.0129 14.8116C10.0078 14.8116 10.0028 14.8066 10.0028 14.8015C10.0028 14.7965 10.0078 14.7914 10.0129 14.7914C10.0608 14.7914 10.1012 14.7511 10.1012 14.7033V14.5648H11.0323V14.8922C11.0096 14.9426 11.0475 14.9803 11.0979 14.9803Z" fill="#025899"/>
<path d="M8.19056 17.8919L8.16028 17.844L8.1628 17.8415C8.20065 17.7811 8.18803 17.703 8.15775 17.6526C8.1199 17.5922 8.04672 17.5493 7.97102 17.5393L7.93065 17.4763L7.93317 17.4738C7.97102 17.4133 7.9584 17.3353 7.92812 17.2849C7.89027 17.2244 7.81709 17.1816 7.74139 17.1716L7.70102 17.1086L7.70354 17.1061C7.74139 17.0456 7.72877 16.9676 7.69849 16.9172C7.66064 16.8567 7.58746 16.8139 7.51176 16.8038L7.47139 16.7409L7.47391 16.7384C7.51176 16.6779 7.49915 16.5998 7.46886 16.5495C7.43101 16.489 7.35783 16.4462 7.28213 16.4361L7.24176 16.3732L7.24428 16.3707C7.28213 16.3102 7.26951 16.2321 7.23923 16.1818C7.20138 16.1213 7.1282 16.0785 7.0525 16.0684L7.01213 16.0055L7.01465 16.0029C7.0525 15.9425 7.03988 15.8644 7.0096 15.814C6.97175 15.7536 6.89857 15.7108 6.82287 15.7007L6.7825 15.6377L6.78502 15.6352C6.82287 15.5748 6.81025 15.4967 6.77997 15.4463C6.74212 15.3859 6.66894 15.3431 6.59324 15.333L6.55287 15.27L6.55539 15.2675C6.59324 15.2071 6.58062 15.129 6.55034 15.0786C6.51249 15.0182 6.43931 14.9754 6.36361 14.9653L6.19959 14.7008C6.31819 14.5674 6.35352 14.4616 6.30305 14.381L6.00529 13.9024C5.85388 13.6607 5.17256 14.0762 5.09434 14.1241C5.01611 14.1719 4.34236 14.6001 4.49377 14.8419L4.79153 15.3204C4.82433 15.3708 4.87733 15.396 4.95807 15.396C5.00097 15.396 5.04892 15.3884 5.10695 15.3733L5.17509 15.4841C5.14985 15.5572 5.15742 15.6403 5.19527 15.7007C5.2306 15.7586 5.28864 15.7914 5.34668 15.7889C5.35173 15.7889 5.3593 15.7889 5.36434 15.7863L5.40472 15.8518C5.37948 15.9249 5.38705 16.008 5.42491 16.0684C5.46023 16.1263 5.51827 16.1591 5.57631 16.1566C5.58136 16.1566 5.58893 16.1566 5.59397 16.1541L5.63435 16.2195C5.60911 16.2926 5.61668 16.3757 5.65453 16.4361C5.68986 16.4941 5.7479 16.5268 5.80594 16.5243C5.81099 16.5243 5.81856 16.5243 5.8236 16.5218L5.86398 16.5872C5.83874 16.6603 5.84631 16.7434 5.88416 16.8038C5.91949 16.8618 5.97753 16.8945 6.03557 16.892C6.04061 16.892 6.04819 16.892 6.05323 16.8895L6.09361 16.955C6.06837 17.028 6.07594 17.1111 6.11379 17.1716C6.14912 17.2295 6.20716 17.2622 6.2652 17.2597C6.27025 17.2597 6.27782 17.2597 6.28286 17.2572L6.32324 17.3227C6.298 17.3957 6.30557 17.4788 6.34342 17.5393C6.37875 17.5972 6.43679 17.6299 6.49483 17.6274C6.49988 17.6274 6.50745 17.6274 6.51249 17.6249L6.55287 17.6904C6.52763 17.7634 6.5352 17.8465 6.57305 17.907C6.60838 17.9649 6.66642 17.9977 6.72446 17.9951C6.72951 17.9951 6.73708 17.9951 6.74212 17.9926L6.7825 18.0581C6.75726 18.1311 6.76483 18.2143 6.80268 18.2747C6.83801 18.3326 6.89605 18.3654 6.95409 18.3628C6.95914 18.3628 6.96671 18.3628 6.97175 18.3603L7.01213 18.4258C6.98689 18.4988 6.99446 18.582 7.03231 18.6424C7.06764 18.7003 7.12568 18.7331 7.18372 18.7306C7.20138 18.7306 7.21652 18.7255 7.23419 18.718C7.35279 18.8187 7.50167 18.8716 7.65055 18.8716C7.76662 18.8716 7.88523 18.8389 7.98869 18.7759C8.28645 18.587 8.37981 18.1916 8.19056 17.8919ZM5.19023 14.2727C5.55107 14.0485 5.80342 13.9881 5.86398 14.0032L6.05576 14.3105C6.04819 14.313 6.04062 14.313 6.03305 14.3155C6.03052 14.3155 6.03052 14.3155 6.028 14.3155C6.02043 14.318 6.01538 14.318 6.01033 14.3205C6.00781 14.3205 6.00529 14.3205 6.00529 14.323C5.99772 14.3256 5.99267 14.3256 5.98762 14.3281H5.9851C5.97753 14.3306 5.97248 14.3306 5.96491 14.3331C5.96239 14.3331 5.96239 14.3331 5.95987 14.3356C5.95482 14.3382 5.94977 14.3382 5.94725 14.3407C5.94473 14.3407 5.94473 14.3407 5.9422 14.3407C5.93716 14.3432 5.93211 14.3432 5.92959 14.3457C5.77314 14.3961 5.58388 14.4868 5.39715 14.6026C5.38958 14.6076 5.37191 14.6177 5.3492 14.6328C5.18013 14.7411 5.03125 14.8595 4.92779 14.9678C4.90761 14.988 4.8748 15.0232 4.842 15.066L4.65022 14.7588C4.66284 14.6958 4.82938 14.4968 5.19023 14.2727ZM7.8928 18.6248C7.71868 18.7331 7.4941 18.7129 7.34269 18.5794C7.39316 18.5366 7.51429 18.456 7.72877 18.3679L7.66064 18.2042C7.57737 18.2369 7.35279 18.3351 7.22914 18.4434L7.21905 18.4258L7.19129 18.4812C7.18624 18.4888 7.1812 18.4938 7.17615 18.5014C7.17615 18.4888 7.1812 18.4737 7.18877 18.4611L7.21652 18.4157L7.09792 18.2243C7.14082 18.184 7.26447 18.0984 7.49157 18.0052L7.42344 17.8415C7.34269 17.8742 7.12568 17.9674 6.99951 18.0732L6.98942 18.0581L6.96418 18.106C6.95661 18.1135 6.95156 18.1211 6.94399 18.1286C6.94652 18.1185 6.94904 18.106 6.95661 18.0959L6.98437 18.0505L6.86325 17.8566C6.90614 17.8163 7.02979 17.7307 7.2569 17.6375L7.18877 17.4738C7.10802 17.5065 6.891 17.5997 6.76483 17.7055L6.75474 17.6904L6.73203 17.7332C6.72446 17.7408 6.71689 17.7483 6.70932 17.7584C6.71184 17.7483 6.71436 17.7382 6.72194 17.7282L6.74969 17.6828L6.62857 17.4889C6.67147 17.4486 6.79511 17.363 7.02222 17.2698L6.95409 17.1061C6.87334 17.1388 6.65633 17.232 6.53016 17.3378L6.52006 17.3227L6.49735 17.3655C6.48978 17.373 6.48221 17.3806 6.47464 17.3907C6.47716 17.3806 6.47969 17.3705 6.48726 17.3605L6.51502 17.3151L6.39389 17.1212C6.43679 17.0809 6.56044 16.9953 6.78754 16.9021L6.71941 16.7384C6.63866 16.7711 6.42165 16.8643 6.29548 16.9701L6.28539 16.955L6.26267 16.9978C6.2551 17.0053 6.24754 17.0129 6.23996 17.023C6.24249 17.0129 6.24501 17.0028 6.25258 16.9927L6.28034 16.9474L6.15922 16.7535C6.20211 16.7132 6.32576 16.6275 6.55287 16.5344L6.48474 16.3707C6.40399 16.4034 6.18697 16.4966 6.0608 16.6024L6.05071 16.5872L6.028 16.6301C6.02043 16.6376 6.01286 16.6452 6.00529 16.6553C6.00781 16.6452 6.01034 16.6351 6.01791 16.625L6.04566 16.5797L5.92454 16.3858C5.96744 16.3455 6.09108 16.2598 6.31819 16.1666L6.25006 16.0029C6.16931 16.0357 5.9523 16.1289 5.82613 16.2346L5.81603 16.2195L5.79332 16.2624C5.78575 16.2699 5.77818 16.2775 5.77061 16.2875C5.77313 16.2775 5.77566 16.2674 5.78323 16.2573L5.81099 16.212L5.68986 16.0181C5.73276 15.9778 5.85641 15.8921 6.08351 15.7989L6.01538 15.6352C5.93463 15.668 5.71762 15.7612 5.59145 15.8669L5.58135 15.8518L5.55865 15.8946C5.55108 15.9022 5.5435 15.9098 5.53593 15.9198C5.53846 15.9098 5.54098 15.8997 5.54855 15.8896L5.57631 15.8443L5.45518 15.6503C5.49808 15.61 5.62173 15.5244 5.84884 15.4312L5.7807 15.2675C5.69996 15.3003 5.48294 15.3934 5.35677 15.4992L5.34668 15.4841L5.32397 15.5269C5.3164 15.5345 5.30883 15.542 5.30126 15.5521C5.30378 15.542 5.3063 15.532 5.31387 15.5219L5.34163 15.4766L5.22051 15.2826C5.25331 15.2348 5.37191 15.1189 5.58388 14.9854L5.49051 14.8368C5.35173 14.9225 5.15238 15.061 5.07415 15.1869C4.9934 15.2121 4.94041 15.2171 4.91518 15.2171C4.91518 15.2171 4.91518 15.2146 4.9177 15.2146C4.9177 15.2121 4.92022 15.2096 4.92022 15.2071C4.92275 15.2046 4.92275 15.1995 4.92527 15.197C4.92779 15.1945 4.92779 15.192 4.93032 15.1894C4.93284 15.1844 4.93536 15.1819 4.93789 15.1768C4.94041 15.1743 4.94293 15.1718 4.94293 15.1693C4.94546 15.1643 4.9505 15.1592 4.95303 15.1542C4.95555 15.1517 4.95807 15.1491 4.9606 15.1441C4.96564 15.1391 4.97069 15.134 4.97321 15.1265C4.97574 15.124 4.97826 15.1214 4.98078 15.1164C4.98583 15.1088 4.9934 15.1013 5.00097 15.0937C5.00349 15.0912 5.0035 15.0912 5.00602 15.0887C5.01611 15.0786 5.02368 15.0685 5.0363 15.0585C5.03882 15.056 5.04387 15.0509 5.04639 15.0484C5.05396 15.0408 5.06153 15.0333 5.0691 15.0257C5.07415 15.0207 5.0792 15.0182 5.08425 15.0131C5.09182 15.0056 5.09938 15.0005 5.10695 14.993C5.112 14.988 5.11957 14.9829 5.12462 14.9779C5.13219 14.9703 5.13976 14.9653 5.14985 14.9577C5.1549 14.9527 5.16247 14.9477 5.17004 14.9426C5.17761 14.9351 5.1877 14.9275 5.19527 14.9225C5.20284 14.9174 5.21041 14.9124 5.21546 14.9048C5.22555 14.8973 5.23565 14.8897 5.24574 14.8822C5.25331 14.8771 5.26088 14.8721 5.26845 14.8645C5.27855 14.857 5.29116 14.8494 5.30126 14.8419C5.30883 14.8368 5.3164 14.8318 5.32397 14.8268C5.33659 14.8192 5.3492 14.8091 5.36182 14.8016C5.36939 14.7965 5.37444 14.7915 5.38201 14.7865C5.40219 14.7739 5.4249 14.7588 5.44509 14.7462C5.4678 14.7336 5.48799 14.7185 5.5107 14.7059C5.51827 14.7008 5.52584 14.6983 5.53341 14.6933C5.54603 14.6857 5.56117 14.6782 5.57379 14.6706C5.58136 14.6656 5.59145 14.6605 5.59902 14.658C5.61164 14.6505 5.62173 14.6454 5.63435 14.6404C5.64192 14.6354 5.65201 14.6328 5.65958 14.6278C5.66968 14.6228 5.67977 14.6177 5.69239 14.6127C5.69996 14.6076 5.71005 14.6051 5.71762 14.6001C5.72771 14.5951 5.73781 14.59 5.7479 14.585C5.75547 14.5825 5.76304 14.5774 5.77061 14.5749C5.7807 14.5699 5.7908 14.5674 5.79837 14.5623C5.80594 14.5598 5.81351 14.5573 5.82108 14.5522C5.83117 14.5472 5.83874 14.5447 5.84884 14.5422C5.85388 14.5396 5.86145 14.5371 5.8665 14.5346C5.87659 14.5296 5.88669 14.5271 5.89678 14.5245C5.90183 14.522 5.90687 14.522 5.9094 14.5195C5.92201 14.5145 5.93716 14.5094 5.94977 14.5069C5.9523 14.5069 5.95482 14.5069 5.95734 14.5044C5.96744 14.5019 5.97753 14.4993 5.98762 14.4968C5.99267 14.4968 5.99519 14.4943 5.99772 14.4943C6.00529 14.4918 6.01286 14.4918 6.02043 14.4893C6.02295 14.4893 6.028 14.4868 6.03052 14.4868C6.03809 14.4842 6.04314 14.4842 6.04819 14.4842C6.05071 14.4842 6.05576 14.4842 6.05828 14.4817C6.06333 14.4817 6.06837 14.4792 6.07342 14.4792C6.07594 14.4792 6.07847 14.4792 6.08099 14.4792C6.08604 14.4792 6.08856 14.4792 6.09361 14.4792C6.09613 14.4792 6.09865 14.4792 6.10118 14.4792C6.1037 14.4792 6.1037 14.4792 6.1037 14.4792C6.09108 14.5044 6.06333 14.5497 5.99772 14.6152C5.93463 14.6202 5.86398 14.6454 5.79837 14.6731L5.8665 14.8368C5.94473 14.8041 5.98762 14.794 6.01033 14.7915L6.22482 15.134C6.18697 15.1391 6.14155 15.1491 6.08856 15.1617L6.13398 15.333C6.24501 15.3053 6.3081 15.3003 6.33333 15.3028L6.45698 15.5017C6.41913 15.5068 6.37371 15.5169 6.32071 15.5294L6.36614 15.7007C6.47717 15.673 6.54025 15.668 6.56548 15.6705L6.68408 15.8594L6.68913 15.8669C6.65128 15.872 6.60586 15.882 6.55287 15.8946L6.59829 16.0659C6.70932 16.0382 6.7724 16.0332 6.79764 16.0357L6.92128 16.2346C6.88343 16.2397 6.83801 16.2498 6.78502 16.2624L6.83044 16.4336C6.94147 16.4059 7.00456 16.4009 7.02979 16.4034L7.14839 16.5948L7.15344 16.6024C7.11559 16.6074 7.07017 16.6175 7.01717 16.6301L7.06259 16.8013C7.17362 16.7736 7.23671 16.7686 7.26194 16.7711L7.38559 16.9701C7.34774 16.9751 7.30232 16.9852 7.24933 16.9978L7.29475 17.169C7.40578 17.1413 7.46886 17.1363 7.4941 17.1388L7.61774 17.3378C7.57989 17.3428 7.53447 17.3529 7.48148 17.3655L7.5269 17.5368C7.63793 17.509 7.70102 17.504 7.72625 17.5065L7.8499 17.7055C7.81205 17.7105 7.76663 17.7206 7.71363 17.7332L7.75906 17.9045C7.87009 17.8768 7.93317 17.8717 7.9584 17.8742L8.02401 17.98C8.17794 18.2017 8.10981 18.4888 7.8928 18.6248Z" fill="#025899"/>
<path d="M14.8772 14.5673V13.8293H13.0957V14.5673H13.3354V14.6403C13.2774 14.6706 13.237 14.7335 13.237 14.804C13.237 14.8746 13.2774 14.935 13.3354 14.9677V15.0735C13.2774 15.1037 13.237 15.1667 13.237 15.2372C13.237 15.3078 13.2774 15.3682 13.3354 15.4009V15.5067C13.2774 15.5369 13.237 15.5999 13.237 15.6704C13.237 15.7409 13.2774 15.8014 13.3354 15.8341V15.9399C13.2774 15.9701 13.237 16.0331 13.237 16.1036C13.237 16.1741 13.2774 16.2346 13.3354 16.2673V16.3731C13.2774 16.4033 13.237 16.4663 13.237 16.5368C13.237 16.6073 13.2774 16.6678 13.3354 16.7005V16.8063C13.2774 16.8365 13.237 16.8995 13.237 16.97C13.237 17.0405 13.2774 17.101 13.3354 17.1337V17.2395C13.2774 17.2697 13.237 17.3327 13.237 17.4032C13.237 17.4737 13.2774 17.5342 13.3354 17.5669V17.6727C13.2774 17.7029 13.237 17.7659 13.237 17.8364C13.237 17.9069 13.2774 17.9674 13.3354 18.0001V18.1059C13.2774 18.1361 13.237 18.1991 13.237 18.2696C13.237 18.3502 13.2875 18.4182 13.3607 18.4434C13.4389 18.7154 13.6887 18.9093 13.9764 18.9093C14.3296 18.9093 14.6198 18.6222 14.6198 18.2671V18.184C14.6779 18.1537 14.7183 18.0908 14.7183 18.0203C14.7183 17.9497 14.6779 17.8893 14.6198 17.8566V17.7508C14.6779 17.7205 14.7183 17.6576 14.7183 17.5871C14.7183 17.5165 14.6779 17.4561 14.6198 17.4234V17.3176C14.6779 17.2874 14.7183 17.2244 14.7183 17.1539C14.7183 17.0833 14.6779 17.0229 14.6198 16.9902V16.8844C14.6779 16.8542 14.7183 16.7912 14.7183 16.7207C14.7183 16.6502 14.6779 16.5897 14.6198 16.557V16.4512C14.6779 16.421 14.7183 16.358 14.7183 16.2875C14.7183 16.217 14.6779 16.1565 14.6198 16.1238V16.018C14.6779 15.9878 14.7183 15.9248 14.7183 15.8543C14.7183 15.7838 14.6779 15.7233 14.6198 15.6906V15.5848C14.6779 15.5546 14.7183 15.4916 14.7183 15.4211C14.7183 15.3506 14.6779 15.2901 14.6198 15.2574V15.1516C14.6779 15.1214 14.7183 15.0584 14.7183 14.9879C14.7183 14.9174 14.6779 14.8569 14.6198 14.8242V14.5623H14.8772V14.5673ZM13.2723 14.0031H14.7006V14.3885H14.5315H13.4237H13.2723V14.0031ZM14.5315 14.9803C14.5366 14.9803 14.5416 14.9854 14.5416 14.9904C14.5416 14.9954 14.5391 14.998 14.5366 14.998L14.2867 14.9552L14.2565 15.1289L14.4432 15.1617V15.3254C14.4432 15.3732 14.4836 15.4135 14.5315 15.4135C14.5366 15.4135 14.5416 15.4186 14.5416 15.4236C14.5416 15.4286 14.5391 15.4312 14.5366 15.4312L14.2867 15.3883L14.2565 15.5621L14.4432 15.5949V15.7586C14.4432 15.8064 14.4836 15.8467 14.5315 15.8467C14.5366 15.8467 14.5416 15.8518 14.5416 15.8568C14.5416 15.8618 14.5391 15.8644 14.5366 15.8644L14.2867 15.8215L14.2565 15.9953L14.4432 16.0281V16.1918C14.4432 16.2396 14.4836 16.2799 14.5315 16.2799C14.5366 16.2799 14.5416 16.285 14.5416 16.29C14.5416 16.295 14.5391 16.2976 14.5366 16.2976L14.2867 16.2547L14.2565 16.4285L14.4432 16.4613V16.625C14.4432 16.6728 14.4836 16.7131 14.5315 16.7131C14.5366 16.7131 14.5416 16.7182 14.5416 16.7232C14.5416 16.7282 14.5391 16.7307 14.5366 16.7307L14.2867 16.6879L14.2565 16.8617L14.4432 16.8945V17.0582C14.4432 17.106 14.4836 17.1463 14.5315 17.1463C14.5366 17.1463 14.5416 17.1514 14.5416 17.1564C14.5416 17.1614 14.5391 17.1639 14.5366 17.1639L14.2867 17.1211L14.2565 17.2949L14.4432 17.3277V17.4914C14.4432 17.5392 14.4836 17.5795 14.5315 17.5795C14.5366 17.5795 14.5416 17.5845 14.5416 17.5896C14.5416 17.5946 14.5391 17.5971 14.5366 17.5971L14.2867 17.5543L14.2565 17.7281L14.4432 17.7608V17.9246C14.4432 17.9724 14.4836 18.0127 14.5315 18.0127C14.5366 18.0127 14.5416 18.0177 14.5416 18.0228C14.5416 18.0278 14.5391 18.0303 14.5366 18.0303L14.2867 17.9875L14.2565 18.1613L14.4432 18.194V18.2671C14.4432 18.524 14.2338 18.733 13.9764 18.733C13.7972 18.733 13.6382 18.6323 13.5625 18.4786L13.9764 18.5492L14.0067 18.3754L13.4591 18.2822C13.4515 18.2797 13.4439 18.2797 13.4364 18.2772L13.4237 18.2746V18.2772H13.4212C13.4162 18.2772 13.4137 18.2721 13.4137 18.2671C13.4137 18.262 13.4187 18.257 13.4237 18.257C13.449 18.257 13.4717 18.2469 13.4868 18.2293C13.502 18.2117 13.5121 18.189 13.5121 18.1663V18.0329L13.9789 18.1109L14.0092 17.9371L13.4263 17.8389V17.8414C13.4212 17.8414 13.4187 17.8389 13.4162 17.8339V17.8314V17.8288C13.4162 17.8238 13.4212 17.8213 13.4263 17.8213C13.4742 17.8213 13.5146 17.781 13.5146 17.7331V17.5997L13.9814 17.6777L14.0117 17.504L13.4288 17.4057C13.4237 17.4057 13.4187 17.4007 13.4187 17.3957C13.4187 17.3906 13.4237 17.3856 13.4288 17.3856C13.4767 17.3856 13.5171 17.3453 13.5171 17.2974V17.1639L13.9839 17.242L14.0142 17.0682L13.4313 16.97C13.4263 16.97 13.4212 16.965 13.4212 16.9599C13.4212 16.9549 13.4263 16.9499 13.4313 16.9499C13.4793 16.9499 13.5196 16.9096 13.5196 16.8617V16.7282L13.9865 16.8063L14.0167 16.6325L13.4338 16.5343C13.4288 16.5343 13.4237 16.5293 13.4237 16.5242C13.4237 16.5192 13.4288 16.5142 13.4338 16.5142C13.4818 16.5142 13.5222 16.4739 13.5222 16.426V16.2925L13.989 16.3706L14.0193 16.1968L13.4364 16.0986C13.4313 16.0986 13.4263 16.0935 13.4263 16.0885C13.4263 16.0835 13.4313 16.0784 13.4364 16.0784C13.4843 16.0784 13.5247 16.0381 13.5247 15.9903V15.8568L13.9915 15.9349L14.0218 15.7611L13.4389 15.6629C13.4338 15.6629 13.4288 15.6578 13.4288 15.6528C13.4288 15.6478 13.4338 15.6427 13.4389 15.6427C13.4868 15.6427 13.5272 15.6024 13.5272 15.5546V15.4211L13.994 15.4992L14.0243 15.3254L13.4414 15.2272C13.4364 15.2272 13.4313 15.2221 13.4313 15.2171C13.4313 15.212 13.4364 15.207 13.4414 15.207C13.4894 15.207 13.5297 15.1667 13.5297 15.1189V15.0055L13.9966 15.0836L14.0268 14.9098L13.4439 14.8116C13.4389 14.8116 13.4338 14.8066 13.4338 14.8015C13.4338 14.7965 13.4389 14.7914 13.4439 14.7914C13.4919 14.7914 13.5323 14.7511 13.5323 14.7033V14.5648H14.4634V14.8922C14.4432 14.9426 14.4836 14.9803 14.5315 14.9803Z" fill="#025899"/>
<path d="M11.4432 12.3612H11.1127L10.9486 11.6006C10.936 11.5301 10.8755 11.4797 10.8023 11.4797H10.3001C10.2269 11.4797 10.1664 11.5301 10.1538 11.6006L9.98975 12.3612H9.65918V13.0488H9.97208V13.5475H11.1278V13.0488H11.4407V12.3612H11.4432ZM10.3228 11.656H10.7796L10.931 12.3612H10.1714L10.3228 11.656ZM10.9537 13.3712H10.1512V13.0488H10.9537V13.3712ZM11.2666 12.8725H11.1303H9.97461H9.83834V12.5375H9.95442H11.153H11.2691V12.8725H11.2666Z" fill="#025899"/>
<path d="M5.40727 13.3435L5.2811 13.142C5.39718 13.0136 5.43251 12.9103 5.38961 12.8322L5.37447 12.7944C5.35428 12.7415 5.34166 12.6836 5.34166 12.6257V12.3612H5.0111L4.84708 11.6006C4.83446 11.5301 4.7739 11.4797 4.70072 11.4797H4.19856C4.12538 11.4797 4.06482 11.5301 4.0522 11.6006L3.88818 12.3612H3.55762V12.9984C3.55762 13.1697 3.60556 13.3384 3.6964 13.4845L3.868 13.7616C3.91594 13.8396 4.0194 13.8573 4.18342 13.817L4.31211 14.0235C4.33987 14.0663 4.38277 14.0814 4.43324 14.0814C4.50137 14.0814 4.58464 14.0537 4.6553 14.0235L4.96063 13.8648L4.96568 13.8623C5.09689 13.7817 5.21297 13.6936 5.29372 13.6155C5.34924 13.5651 5.47288 13.4467 5.40727 13.3435ZM4.22632 11.656H4.68306L4.83446 12.3612H4.07492L4.22632 11.656ZM4.00931 13.4064C3.98912 13.4266 3.95632 13.4619 3.92351 13.5047L3.85285 13.3913C3.77968 13.273 3.7393 13.137 3.7393 12.9984V12.5375H3.85538H5.054H5.17007V12.6257C5.17007 12.6685 5.17512 12.7088 5.18269 12.7491C4.92278 12.7718 4.53418 13.0085 4.47866 13.0438C4.28688 13.1596 4.12034 13.2881 4.00931 13.4064ZM4.88241 13.7062L4.58969 13.8598C4.51399 13.89 4.47109 13.9001 4.4509 13.9026L4.33987 13.7263C4.35501 13.7036 4.39286 13.6583 4.47109 13.5928L4.35754 13.4568C4.27679 13.5223 4.22127 13.5802 4.18847 13.6306C4.10772 13.6558 4.05725 13.6608 4.03202 13.6608C4.06482 13.5853 4.23137 13.4014 4.56698 13.1924C4.90007 12.9858 5.14232 12.9178 5.22307 12.9204C5.21045 12.9481 5.18017 12.9959 5.10699 13.069L5.05652 13.1193L5.23821 13.4115C5.21045 13.4593 5.09185 13.5752 4.88241 13.7062Z" fill="#025899"/>
<path d="M14.8772 12.3612H14.5467L14.3826 11.6006C14.37 11.5301 14.3095 11.4797 14.2363 11.4797H13.7341C13.6609 11.4797 13.6004 11.5301 13.5878 11.6006L13.4263 12.3612H13.0957V13.0488H13.4086V13.5475H14.5643V13.0488H14.8772V12.3612ZM13.7594 11.656H14.2161L14.3675 12.3612H13.608L13.7594 11.656ZM14.3877 13.3712H13.5852V13.0488H14.3877V13.3712ZM14.7006 12.8725H14.5643H13.4086H13.2723V12.5375H13.3884H14.587H14.7031V12.8725H14.7006Z" fill="#025899"/>
<path d="M0.602639 16.8242L0.524414 16.6656C1.03414 16.4162 1.30162 15.6909 1.53882 15.0512C1.55649 15.0058 1.57163 14.9605 1.58929 14.9177C1.85425 14.2049 2.39173 13.7289 2.92165 13.7289C3.1967 13.7289 3.61306 13.9178 3.88811 14.0437C3.93101 14.0639 3.96634 14.079 3.99915 14.0941C4.53663 14.3283 5.0514 14.074 5.32898 13.938C5.39206 13.9052 5.44506 13.88 5.48291 13.8674C5.86142 13.744 6.21974 13.6282 6.83041 13.6282H8.04164C8.95007 13.6282 9.73989 13.8246 9.7727 13.8322L9.7298 14.0034C9.72223 14.0009 8.92736 13.8045 8.04164 13.8045H6.83041C6.2475 13.8045 5.91946 13.9103 5.53842 14.0362C5.51067 14.0437 5.46272 14.0689 5.40721 14.0966C5.12711 14.2352 4.54168 14.5248 3.92849 14.2553C3.89568 14.2402 3.85783 14.2226 3.81494 14.2049C3.57016 14.0941 3.15885 13.9077 2.92165 13.9077C2.46239 13.9077 1.99304 14.3409 1.75331 14.9832C1.73817 15.026 1.72051 15.0713 1.70285 15.1167C1.45555 15.7816 1.17545 16.5422 0.602639 16.8242Z" fill="#025899"/>
<path d="M11.4025 13.9884L11.3066 13.8423C11.3193 13.8348 11.6423 13.6257 12.263 13.6257C12.8838 13.6257 13.2068 13.8323 13.2194 13.8423L13.1235 13.9884C13.121 13.9859 12.8283 13.802 12.2655 13.802C11.6978 13.802 11.4051 13.9884 11.4025 13.9884Z" fill="#025899"/>
<path d="M23.921 16.8239C23.3482 16.5418 23.0681 15.7837 22.8208 15.1113C22.8032 15.0659 22.788 15.0206 22.7704 14.9778C22.5306 14.3356 22.0613 13.9024 21.602 13.9024C21.3648 13.9024 20.9535 14.0887 20.7087 14.1996C20.6658 14.2197 20.628 14.2373 20.5952 14.2499C19.982 14.5194 19.3966 14.2298 19.1165 14.0913C19.061 14.0636 19.013 14.0409 18.9853 14.0308C18.6042 13.9074 18.2762 13.7991 17.6933 13.7991H16.482C15.5963 13.7991 14.8014 13.9956 14.7939 13.9981L14.751 13.8268C14.7838 13.8193 15.5736 13.6228 16.482 13.6228H17.6933C18.3039 13.6228 18.6597 13.7387 19.0408 13.8621C19.0786 13.8747 19.1316 13.8998 19.1947 13.9326C19.4723 14.0686 19.987 14.323 20.5245 14.0887C20.5573 14.0736 20.5952 14.0585 20.6356 14.0384C20.9106 13.9124 21.327 13.7235 21.602 13.7235C22.1345 13.7235 22.6694 14.2021 22.9344 14.9123C22.952 14.9551 22.9672 15.0005 22.9849 15.0458C23.2221 15.6855 23.4895 16.4109 23.9993 16.6602L23.921 16.8239Z" fill="#025899"/>
<path d="M11.13 0.0305176H9.9541V0.604754H10.2645V4.09047H10.8196V0.604754H11.13V0.0305176ZM10.643 2.50628V2.72036L10.4411 2.6851V2.47102L10.643 2.50628ZM10.4411 2.29472V2.08064L10.643 2.1159V2.32998L10.4411 2.29472ZM10.643 1.93708L10.4411 1.90182V1.68774L10.643 1.723V1.93708ZM10.4411 3.25682L10.643 3.29208V3.50616L10.4411 3.4709V3.25682ZM10.4411 3.078V2.86644L10.643 2.9017V3.11578L10.4411 3.078ZM10.643 1.54418L10.4411 1.50892V1.29484L10.643 1.3301V1.54418ZM10.4411 3.91417V3.64971L10.643 3.68497V3.91417H10.4411ZM10.643 1.15128L10.4411 1.11602V0.602235H10.643V1.15128ZM10.9534 0.428453H10.8196H10.2645H10.1307V0.206818H10.9534V0.428453Z" fill="#025899"/>
<path d="M5.04114 0.0305176H3.86523V0.604754H4.17561V4.09047H4.73076V0.604754H5.04114V0.0305176ZM4.55413 2.50628V2.72036L4.35225 2.6851V2.47102L4.55413 2.50628ZM4.35225 2.29472V2.08064L4.55413 2.1159V2.32998L4.35225 2.29472ZM4.55413 1.93708L4.35225 1.90182V1.68774L4.55413 1.723V1.93708ZM4.35225 3.25682L4.55413 3.29208V3.50616L4.35225 3.4709V3.25682ZM4.35225 3.078V2.86644L4.55413 2.9017V3.11578L4.35225 3.078ZM4.55413 1.54418L4.35225 1.50892V1.29484L4.55413 1.3301V1.54418ZM4.35225 3.91417V3.64971L4.55413 3.68497V3.91417H4.35225ZM4.55413 1.15128L4.35225 1.11602V0.602235H4.55413V1.15128ZM4.8645 0.428453H4.73076H4.17561H4.04187V0.206818H4.8645V0.428453Z" fill="#025899"/>
<path d="M14.5743 0.0305176H13.3984V0.604754H13.7088V4.09047H14.264V0.604754H14.5743V0.0305176ZM14.0873 2.50628V2.72036L13.8855 2.6851V2.47102L14.0873 2.50628ZM13.8855 2.29472V2.08064L14.0873 2.1159V2.32998L13.8855 2.29472ZM14.0873 1.93708L13.8855 1.90182V1.68774L14.0873 1.723V1.93708ZM13.8855 3.25682L14.0873 3.29208V3.50616L13.8855 3.4709V3.25682ZM13.8855 3.078V2.86644L14.0873 2.9017V3.11578L13.8855 3.078ZM14.0873 1.54418L13.8855 1.50892V1.29484L14.0873 1.3301V1.54418ZM13.8855 3.91417V3.64971L14.0873 3.68497V3.91417H13.8855ZM14.0873 1.15128L13.8855 1.11602V0.602235H14.0873V1.15128ZM14.3977 0.428453H14.264H13.7088H13.5751V0.206818H14.3977V0.428453Z" fill="#025899"/>
<path d="M20.674 0.0305176H19.498V0.604754H19.8084V4.09047H20.3636V0.604754H20.674V0.0305176ZM20.1869 2.50628V2.72036L19.9851 2.6851V2.47102L20.1869 2.50628ZM19.9851 2.29472V2.08064L20.1869 2.1159V2.32998L19.9851 2.29472ZM20.1869 1.93708L19.9851 1.90182V1.68774L20.1869 1.723V1.93708ZM19.9851 3.25682L20.1869 3.29208V3.50616L19.9851 3.4709V3.25682ZM19.9851 3.078V2.86644L20.1869 2.9017V3.11578L19.9851 3.078ZM20.1869 1.54418L19.9851 1.50892V1.29484L20.1869 1.3301V1.54418ZM19.9851 3.91417V3.64971L20.1869 3.68497V3.91417H19.9851ZM20.1869 1.15128L19.9851 1.11602V0.602235H20.1869V1.15128ZM20.4973 0.428453H20.3636H19.8084H19.6747V0.206818H20.4973V0.428453Z" fill="#025899"/>
<path d="M22.6847 7.86043C22.6822 7.85791 22.6797 7.85539 22.6772 7.85287C22.6772 7.82265 22.6797 7.78991 22.6822 7.75717C22.6898 7.5985 22.6999 7.3819 22.6772 6.95626C22.662 6.65907 22.5813 5.65919 22.2129 5.2814C21.9529 5.01444 21.7511 5.1051 21.5366 5.20081C21.4306 5.24866 21.3145 5.30155 21.1606 5.33429C21.1505 5.3217 21.1404 5.30911 21.1303 5.29652C20.878 4.99429 20.3279 5.0774 19.7853 5.17059C19.5557 4.98169 19.2302 5.01947 18.7835 5.07488C18.6649 5.08999 18.5337 5.1051 18.3899 5.1177C18.3445 5.12273 18.299 5.12525 18.2536 5.12777C18.1426 4.94392 17.9937 4.83813 17.8373 4.83813C17.537 4.83813 17.1988 4.99429 16.8708 5.14792C16.8607 5.15296 16.8531 5.15548 16.843 5.16051C16.7926 5.06229 16.6992 4.99932 16.5655 4.96658C16.4115 4.9288 16.2046 4.93132 15.917 4.93384C15.8412 4.93384 15.763 4.93636 15.6772 4.93636C15.5914 4.93636 15.5107 4.93636 15.4375 4.93384C15.0464 4.93132 14.789 4.9288 14.63 5.02955C14.4206 4.90614 14.0749 4.91621 13.7367 4.92628C13.6484 4.9288 13.5651 4.93132 13.4844 4.93132C13.4036 4.93132 13.3204 4.9288 13.232 4.92628C12.851 4.91369 12.4574 4.90362 12.2656 5.08496C12.0713 4.90362 11.6776 4.91621 11.2991 4.92628C11.2108 4.9288 11.125 4.93132 11.0468 4.93132C10.9686 4.93132 10.8828 4.9288 10.7944 4.92628C10.4563 4.91621 10.1106 4.90614 9.90115 5.02955C9.74218 4.92629 9.48479 4.9288 9.09366 4.93384C9.01796 4.93384 8.93721 4.93636 8.85394 4.93636C8.76814 4.93636 8.68992 4.93636 8.61421 4.93384C8.32655 4.93132 8.11963 4.9288 7.9657 4.96658C7.82944 4.99932 7.73859 5.06229 7.68812 5.16051C7.67803 5.15548 7.67046 5.15296 7.66037 5.14792C7.33232 4.99681 6.99419 4.83813 6.6939 4.83813C6.53493 4.83813 6.38605 4.9414 6.27754 5.12777C6.23212 5.12525 6.1867 5.12273 6.14128 5.1177C5.99997 5.1051 5.86623 5.08747 5.74763 5.07488C5.30098 5.02199 4.97546 4.98169 4.74583 5.17059C4.2033 5.0774 3.6532 4.99429 3.40086 5.29652C3.39076 5.30911 3.38067 5.3217 3.37058 5.33429C3.21665 5.30155 3.10057 5.24866 2.99459 5.20081C2.7801 5.1051 2.57823 5.01192 2.31832 5.2814C1.9499 5.66171 1.86915 6.65907 1.85401 6.95626C1.8313 7.3819 1.84139 7.5985 1.84896 7.75717C1.85149 7.79243 1.85149 7.82265 1.85401 7.85287C1.85149 7.85539 1.84896 7.85791 1.84644 7.86043C1.78335 7.93347 1.71775 8.09969 1.85653 8.71423C2.03822 9.50758 3.12581 10.4772 3.55226 10.7165C3.6103 10.7492 3.67591 10.7669 3.74404 10.7669H5.34893C5.4751 10.7669 5.58108 10.6762 5.60127 10.5528C5.63155 10.379 5.74763 9.81233 6.01006 9.57054C6.19427 9.59321 6.3482 9.64106 6.4996 9.6864C6.71661 9.75188 6.9412 9.81736 7.23896 9.81736C7.5771 9.81736 7.93794 9.73173 8.25589 9.65869C8.37449 9.63099 8.48552 9.6058 8.58646 9.58565C9.02805 9.79973 9.43685 10.2304 9.50245 10.5603C9.52769 10.6787 9.63367 10.7669 9.75479 10.7669H11.3445C11.4707 10.7669 11.5817 10.6712 11.5994 10.5478C11.6398 10.2581 11.7861 9.58314 12.2681 9.58314C12.7501 9.58314 12.8964 10.2581 12.9368 10.5478C12.9545 10.6737 13.063 10.7669 13.1917 10.7669H14.7814C14.9025 10.7669 15.0085 10.6812 15.0338 10.5603C15.1019 10.2304 15.5082 9.79973 15.9498 9.58565C16.0507 9.6058 16.1617 9.63099 16.2803 9.65869C16.5983 9.73425 16.9566 9.81736 17.2973 9.81736C17.5975 9.81736 17.8196 9.74936 18.0366 9.6864C18.188 9.64106 18.3445 9.59573 18.5262 9.57054C18.7911 9.81233 18.9072 10.379 18.9349 10.5528C18.9551 10.6762 19.0636 10.7669 19.1873 10.7669H20.7922C20.8603 10.7669 20.9259 10.7492 20.984 10.7165C21.4079 10.4772 22.498 9.50506 22.6797 8.71423C22.8134 8.09969 22.7478 7.93095 22.6847 7.86043ZM20.7871 10.5377H19.1822C19.1671 10.5377 19.1545 10.5276 19.152 10.5125C19.1065 10.243 18.998 9.7947 18.7684 9.50758C18.9223 9.48995 18.9804 9.4975 18.9829 9.4975L18.998 9.41187L19.0157 9.32624C18.8466 9.31617 18.5892 9.33632 18.5892 9.33632L18.5438 9.34135C18.3192 9.36402 18.1376 9.41943 17.9634 9.4698C17.754 9.53276 17.5546 9.59321 17.2897 9.59321C16.9768 9.59321 16.6311 9.51262 16.3257 9.43958C16.303 9.43454 16.2828 9.4295 16.2601 9.42447C16.3232 9.39928 16.3964 9.37409 16.4822 9.34135L16.4216 9.17513C16.1365 9.25572 15.9144 9.35143 15.9144 9.35143L15.8816 9.36654C15.4325 9.57306 14.9 10.044 14.8041 10.5175C14.8016 10.5326 14.789 10.5427 14.7764 10.5427H13.1866C13.1715 10.5427 13.1589 10.5326 13.1563 10.5175C13.1084 10.17 12.9217 9.35898 12.2631 9.35898C11.6045 9.35898 11.4177 10.17 11.3698 10.5175C11.3673 10.5326 11.3546 10.5427 11.3395 10.5427H9.74975C9.73461 10.5427 9.72451 10.5326 9.72199 10.5175C9.6261 10.0466 9.09619 9.57306 8.6445 9.36654L8.61169 9.35143C8.61169 9.35143 8.40477 9.26831 8.10449 9.17513L8.04393 9.34135C8.12972 9.37157 8.2029 9.39928 8.26598 9.42447C8.24327 9.4295 8.22309 9.43454 8.20038 9.43958C7.89504 9.51262 7.54934 9.59321 7.23644 9.59321C6.97148 9.59321 6.77213 9.53276 6.56269 9.4698C6.38857 9.41691 6.20941 9.36402 5.9823 9.34135L5.93688 9.33632C5.93688 9.33632 5.52809 9.3212 5.51043 9.32624L5.54323 9.50002C5.54323 9.50002 5.60127 9.49247 5.75772 9.5101C5.52809 9.79721 5.41958 10.2455 5.37416 10.515C5.37164 10.5301 5.35902 10.5402 5.34388 10.5402H3.73899C3.71124 10.5402 3.68348 10.5326 3.65825 10.52C3.25198 10.2909 2.23 9.35143 2.07355 8.66386C2.00289 8.35407 1.9928 8.18533 1.99784 8.09718C2.00541 8.09969 2.01551 8.09969 2.02812 8.09969C2.09626 8.09969 2.22747 8.05184 2.46215 7.78739C2.57318 7.66146 2.74982 7.54057 2.93908 7.45494C2.9416 7.48516 2.94412 7.5179 2.94665 7.54561C2.95169 7.58842 2.95674 7.63124 2.95926 7.67153C2.99207 7.99391 3.0173 8.22562 3.18132 8.28859C3.20656 8.29866 3.22927 8.30118 3.25702 8.30118C3.3731 8.30118 3.51693 8.21303 3.7289 8.01406C3.94087 7.81761 4.13265 7.67405 4.31181 7.57583C4.35723 7.95613 4.45816 8.3037 4.63985 8.40948C4.70041 8.44474 4.77864 8.46237 4.872 8.46237C5.12434 8.46237 5.47762 8.3314 5.82333 8.02917C5.9066 7.95613 5.9823 7.88561 6.05044 7.82517C6.1009 7.77983 6.14632 7.73702 6.19175 7.69672C6.21698 7.85287 6.24474 8.00147 6.28006 8.13747C6.43147 8.73689 6.74689 8.78223 6.84026 8.78223C7.05223 8.78223 7.31466 8.42459 7.61495 7.72191C7.71588 7.48516 7.79158 7.31138 7.85215 7.19301C8.01112 7.93347 8.30636 8.62104 8.84889 8.62104C9.30563 8.62104 9.63619 8.1551 9.83807 7.23582C9.85068 7.30634 9.8633 7.37434 9.87592 7.43983C10.0626 8.29866 10.4765 8.77215 11.0417 8.77215C11.607 8.77215 12.0208 8.29866 12.2075 7.43983C12.2277 7.34412 12.2454 7.23834 12.2605 7.13004C12.2757 7.23834 12.2933 7.34412 12.3135 7.43983C12.5003 8.29866 12.9141 8.77215 13.4793 8.77215C14.0446 8.77215 14.4584 8.29866 14.6452 7.43983C14.6603 7.37434 14.6729 7.30634 14.683 7.23582C14.8849 8.1551 15.2154 8.62104 15.6722 8.62104C16.2147 8.62104 16.51 7.93347 16.6715 7.19301C16.732 7.30886 16.8052 7.48012 16.9087 7.72191C17.2115 8.42459 17.4714 8.78223 17.6833 8.78223C17.7767 8.78223 18.0921 8.73689 18.2435 8.13747C18.2789 8.00147 18.3066 7.85287 18.3319 7.69672C18.3773 7.73702 18.4227 7.77983 18.4732 7.82517C18.5413 7.88561 18.617 7.95613 18.7003 8.02917C19.046 8.3314 19.4018 8.46237 19.6516 8.46237C19.745 8.46237 19.8257 8.44474 19.8837 8.40948C20.0654 8.30622 20.1664 7.95613 20.2118 7.57583C20.391 7.67405 20.5853 7.81761 20.7947 8.01406C21.0067 8.21051 21.1505 8.30118 21.2666 8.30118C21.2918 8.30118 21.317 8.29614 21.3423 8.28859C21.5063 8.22814 21.529 7.99391 21.5643 7.67153C21.5694 7.63124 21.5719 7.58842 21.577 7.54561C21.5795 7.5179 21.582 7.48516 21.5845 7.45494C21.7738 7.54057 21.9504 7.66146 22.0614 7.78739C22.2986 8.05184 22.4273 8.09969 22.4955 8.09969C22.5081 8.09969 22.5157 8.09718 22.5258 8.09718C22.5308 8.18533 22.5207 8.35407 22.4501 8.66386C22.2936 9.35143 21.2716 10.2909 20.8654 10.52C20.8426 10.5301 20.8149 10.5377 20.7871 10.5377ZM2.0685 7.74457C2.06093 7.59094 2.05084 7.3819 2.07355 6.96633C2.1013 6.4198 2.22495 5.69193 2.47477 5.43756C2.62365 5.28392 2.68673 5.31163 2.89365 5.40733C2.99459 5.45267 3.11571 5.50808 3.27469 5.54586C3.08039 5.97653 2.93908 6.72959 2.93403 7.26353C2.69683 7.35923 2.46972 7.51035 2.32841 7.66902C2.20729 7.80502 2.12401 7.8705 2.07607 7.90073C2.07102 7.85035 2.07102 7.79998 2.0685 7.74457ZM4.7635 5.48037L4.86191 5.36452C4.872 5.35444 4.87705 5.34941 4.87957 5.34689C5.03602 5.21592 5.30351 5.24866 5.7123 5.29652C5.8309 5.31163 5.96716 5.32674 6.111 5.33933C6.13875 5.34185 6.16651 5.34437 6.19427 5.34689C6.15137 5.47282 6.11857 5.62645 6.10343 5.80779C6.0681 6.2435 6.08072 6.89581 6.15642 7.48768C6.08324 7.54812 6.01006 7.61613 5.92426 7.6942C5.85361 7.75717 5.78295 7.82517 5.70221 7.89569C5.26818 8.27599 4.85939 8.33644 4.7206 8.25585C4.58938 8.18029 4.45312 7.71435 4.45312 7.06708C4.45564 6.55329 4.60705 5.81282 4.7635 5.48037ZM7.86476 5.33178C7.88495 5.17059 8.02374 5.15548 8.60664 5.16051C8.68235 5.16051 8.76309 5.16303 8.84889 5.16303C8.93469 5.16303 9.01544 5.16303 9.09114 5.16051C9.41161 5.15799 9.65386 5.15548 9.76236 5.2134C9.7447 5.25622 9.73461 5.30407 9.73461 5.35696C9.73461 5.62393 9.73461 6.11505 9.76993 6.60366C9.67657 7.29375 9.4318 8.44222 8.85142 8.44222C8.07673 8.44222 7.86476 6.44751 7.84205 5.54334L7.86476 5.33178ZM16.6588 5.33178H16.6841C16.6866 5.34689 16.6866 5.362 16.6866 5.37963C16.6866 6.1755 16.4999 8.44474 15.6747 8.44474C15.0943 8.44474 14.8496 7.29627 14.7562 6.60618C14.7915 6.11505 14.7915 5.62645 14.7915 5.35948C14.7915 5.30659 14.7814 5.25874 14.7638 5.21592C14.8697 5.15799 15.112 5.15799 15.435 5.16303C15.5107 5.16303 15.5914 5.16555 15.6772 5.16555C15.763 5.16555 15.8438 5.16555 15.9195 5.16303C16.4999 5.15799 16.6386 5.17311 16.6588 5.33178ZM19.6617 5.36704L19.7601 5.48289C19.9166 5.81534 20.068 6.55329 20.068 7.06708C20.068 7.71687 19.9317 8.18029 19.8005 8.25585C19.6617 8.33392 19.2529 8.27599 18.8189 7.89569C18.7381 7.82517 18.6649 7.75969 18.5968 7.6942C18.5135 7.61613 18.4378 7.54812 18.3647 7.48768C18.4404 6.89581 18.453 6.24602 18.4177 5.80779C18.4025 5.62645 18.3722 5.47282 18.3268 5.34689C18.3546 5.34437 18.3823 5.34185 18.4101 5.33933C18.5539 5.32674 18.6902 5.30911 18.8088 5.29652C19.2176 5.24866 19.4876 5.21592 19.6415 5.34689C19.6465 5.34941 19.6516 5.35444 19.6617 5.36704ZM22.0488 5.43756C22.2986 5.69445 22.4198 6.42232 22.4501 6.96633C22.4728 7.3819 22.4627 7.59094 22.4551 7.74457C22.4526 7.79998 22.4501 7.85035 22.4501 7.90073C22.3996 7.8705 22.3163 7.80502 22.1977 7.66902C22.0564 7.51035 21.8293 7.35923 21.5921 7.26353C21.5845 6.72959 21.4457 5.97401 21.2514 5.54586C21.4079 5.50808 21.529 5.45267 21.6325 5.40733C21.8369 5.31163 21.8999 5.28392 22.0488 5.43756ZM21.4028 7.52546C21.3978 7.56827 21.3927 7.61109 21.3902 7.6539C21.37 7.85287 21.3448 8.09969 21.2817 8.12236C21.2691 8.1274 21.1884 8.13999 20.9158 7.88561C20.6685 7.6539 20.4439 7.49272 20.2295 7.38694C20.237 7.27864 20.2421 7.17034 20.2421 7.06708C20.2421 6.58603 20.1033 5.77505 19.9039 5.37963C20.3405 5.30659 20.7947 5.24866 20.9537 5.44008C20.9688 5.46022 20.9865 5.48541 21.0067 5.51563L21.047 5.58363L21.0697 5.5786C21.2943 6.03698 21.4584 7.03937 21.4028 7.52546ZM18.241 5.82542C18.289 6.41728 18.2461 7.41464 18.0745 8.09466C17.9786 8.47244 17.812 8.60593 17.6859 8.60593C17.6152 8.60593 17.3957 8.40696 17.0727 7.6539C16.9036 7.25849 16.8178 7.05952 16.7219 6.94115C16.8481 6.22335 16.8607 5.52319 16.8632 5.39978C16.8986 5.38467 16.9314 5.36956 16.9667 5.35193C17.272 5.21088 17.5849 5.06481 17.8373 5.06481C17.9231 5.06481 18.0164 5.15044 18.0871 5.294L18.1199 5.35948H18.1451C18.188 5.47534 18.2233 5.62897 18.241 5.82542ZM12.3741 5.35948C12.3741 5.31163 12.3867 5.27889 12.4145 5.2537C12.5381 5.13533 12.9166 5.1454 13.222 5.15548C13.3128 5.15799 13.3986 5.16051 13.4819 5.16051C13.5651 5.16051 13.6509 5.15799 13.7393 5.15548C14.0522 5.1454 14.4433 5.13533 14.5543 5.26378L14.6098 5.32674C14.6124 5.33681 14.6124 5.34941 14.6124 5.362C14.6124 5.7826 14.6124 6.76988 14.4736 7.40457C14.3752 7.85035 14.1178 8.59837 13.4793 8.59837C12.8409 8.59837 12.5835 7.85035 12.4851 7.40457C12.3463 6.76988 12.3463 5.7826 12.3463 5.362H12.3741V5.35948ZM12.0334 7.40457C11.935 7.85035 11.6776 8.59837 11.0392 8.59837C10.4008 8.59837 10.1434 7.85035 10.045 7.40457C9.9062 6.76988 9.9062 5.7826 9.9062 5.362C9.9062 5.34941 9.9062 5.33933 9.90872 5.32674L9.96424 5.26378C10.0753 5.13533 10.4664 5.14792 10.7793 5.15548C10.8701 5.15799 10.9559 5.16051 11.0392 5.16051C11.1225 5.16051 11.2083 5.15799 11.2991 5.15548C11.6045 5.1454 11.983 5.13533 12.1066 5.2537C12.1344 5.2814 12.147 5.31415 12.147 5.35948H12.1722C12.1722 5.7826 12.1722 6.76737 12.0334 7.40457ZM6.40371 5.35948L6.43652 5.294C6.50717 5.15044 6.60054 5.06481 6.68633 5.06481C6.93615 5.06481 7.25158 5.21088 7.55691 5.35193C7.58719 5.36452 7.61495 5.37963 7.64523 5.39222L7.66542 5.58615C7.67551 5.86823 7.70579 6.39965 7.80168 6.93863C7.70579 7.05448 7.61999 7.25597 7.45093 7.65139C7.12793 8.40444 6.90839 8.60341 6.83774 8.60341C6.71409 8.60341 6.54502 8.46992 6.44913 8.09214C6.27754 7.41212 6.23464 6.41476 6.28259 5.8229C6.29773 5.62897 6.33306 5.47534 6.37848 5.35696L6.40371 5.35948ZM3.47404 5.58363L3.51441 5.51563C3.53208 5.48541 3.54974 5.45771 3.5674 5.44008C3.72638 5.24866 4.18059 5.30659 4.61714 5.37963C4.41779 5.77505 4.279 6.58603 4.279 7.06708C4.279 7.17034 4.28153 7.27864 4.29162 7.38694C4.07713 7.49272 3.85255 7.65642 3.60525 7.88561C3.33273 8.13999 3.2545 8.1274 3.23936 8.12236C3.1788 8.09969 3.15356 7.85287 3.13085 7.6539C3.12581 7.61361 3.12328 7.57079 3.11824 7.52546C3.06525 7.03937 3.22674 6.03698 3.45133 5.58112L3.47404 5.58363Z" fill="#025899"/>
<g opacity="0.75">
<path d="M4.56695 11.3564H4.33984V11.1297H4.56695V11.3564ZM4.56695 10.9031H4.33984V10.6764H4.56695V10.9031ZM4.56695 10.4497H4.33984V10.2231H4.56695V10.4497ZM4.56695 9.99639H4.33984V9.76972H4.56695V9.99639ZM4.56695 9.54305H4.33984V9.31637H4.56695V9.54305ZM4.56695 9.0897H4.33984V8.86303H4.56695V9.0897ZM4.56695 8.63636H4.33984V8.40969H4.56695V8.63636ZM4.56695 8.18301H4.33984V7.95634H4.56695V8.18301ZM4.56695 7.72967H4.33984V7.503H4.56695V7.72967ZM4.56695 7.27632H4.33984V7.04965H4.56695V7.27632ZM4.56695 6.82298H4.33984V6.59631H4.56695V6.82298ZM4.56695 6.36964H4.33984V6.14297H4.56695V6.36964ZM4.56695 5.91629H4.33984V5.68962H4.56695V5.91629ZM4.56695 5.46295H4.33984V5.23628H4.56695V5.46295ZM4.56695 5.00961H4.33984V4.78293H4.56695V5.00961ZM4.56695 4.55626H4.33984V4.32959H4.56695V4.55626Z" fill="#025899"/>
<path d="M20.1998 11.3567H19.9727V11.13H20.1998V11.3567ZM20.1998 10.9033H19.9727V10.6766H20.1998V10.9033ZM20.1998 10.45H19.9727V10.2233H20.1998V10.45ZM20.1998 9.99663H19.9727V9.76996H20.1998V9.99663ZM20.1998 9.54329H19.9727V9.31662H20.1998V9.54329ZM20.1998 9.08994H19.9727V8.86327H20.1998V9.08994ZM20.1998 8.6366H19.9727V8.40993H20.1998V8.6366ZM20.1998 8.18326H19.9727V7.95659H20.1998V8.18326ZM20.1998 7.72991H19.9727V7.50324H20.1998V7.72991ZM20.1998 7.27657H19.9727V7.0499H20.1998V7.27657ZM20.1998 6.82323H19.9727V6.59655H20.1998V6.82323ZM20.1998 6.36988H19.9727V6.14321H20.1998V6.36988ZM20.1998 5.91654H19.9727V5.68987H20.1998V5.91654ZM20.1998 5.46319H19.9727V5.23652H20.1998V5.46319ZM20.1998 5.00985H19.9727V4.78318H20.1998V5.00985ZM20.1998 4.55651H19.9727V4.32983H20.1998V4.55651Z" fill="#025899"/>
<path d="M14.1002 11.3567H13.873V11.13H14.1002V11.3567ZM14.1002 10.9033H13.873V10.6766H14.1002V10.9033ZM14.1002 10.45H13.873V10.2233H14.1002V10.45ZM14.1002 9.99663H13.873V9.76996H14.1002V9.99663ZM14.1002 9.54329H13.873V9.31662H14.1002V9.54329ZM14.1002 9.08994H13.873V8.86327H14.1002V9.08994ZM14.1002 8.6366H13.873V8.40993H14.1002V8.6366ZM14.1002 8.18326H13.873V7.95659H14.1002V8.18326ZM14.1002 7.72991H13.873V7.50324H14.1002V7.72991ZM14.1002 7.27657H13.873V7.0499H14.1002V7.27657ZM14.1002 6.82323H13.873V6.59655H14.1002V6.82323ZM14.1002 6.36988H13.873V6.14321H14.1002V6.36988ZM14.1002 5.91654H13.873V5.68987H14.1002V5.91654ZM14.1002 5.46319H13.873V5.23652H14.1002V5.46319ZM14.1002 5.00985H13.873V4.78318H14.1002V5.00985ZM14.1002 4.55651H13.873V4.32983H14.1002V4.55651Z" fill="#025899"/>
<path d="M10.6558 11.3567H10.4287V11.13H10.6558V11.3567ZM10.6558 10.9033H10.4287V10.6766H10.6558V10.9033ZM10.6558 10.45H10.4287V10.2233H10.6558V10.45ZM10.6558 9.99663H10.4287V9.76996H10.6558V9.99663ZM10.6558 9.54329H10.4287V9.31662H10.6558V9.54329ZM10.6558 9.08994H10.4287V8.86327H10.6558V9.08994ZM10.6558 8.6366H10.4287V8.40993H10.6558V8.6366ZM10.6558 8.18326H10.4287V7.95659H10.6558V8.18326ZM10.6558 7.72991H10.4287V7.50324H10.6558V7.72991ZM10.6558 7.27657H10.4287V7.0499H10.6558V7.27657ZM10.6558 6.82323H10.4287V6.59655H10.6558V6.82323ZM10.6558 6.36988H10.4287V6.14321H10.6558V6.36988ZM10.6558 5.91654H10.4287V5.68987H10.6558V5.91654ZM10.6558 5.46319H10.4287V5.23652H10.6558V5.46319ZM10.6558 5.00985H10.4287V4.78318H10.6558V5.00985ZM10.6558 4.55651H10.4287V4.32983H10.6558V4.55651Z" fill="#025899"/>
</g>
</svg>
