<svg width="13" height="18" viewBox="0 0 13 18" fill="none" xmlns="http://www.w3.org/2000/svg">
<path fill-rule="evenodd" clip-rule="evenodd" d="M1.28188 6.21172L1.28188 6.21172C1.42548 6.39064 1.53618 6.62868 1.62347 6.8523C1.71444 7.08536 1.79648 7.34701 1.86965 7.60075C1.93595 7.83066 1.99291 8.04451 2.04375 8.23544C2.11195 8.49152 2.16916 8.70637 2.22323 8.8634C2.28094 9.0209 2.38518 9.15716 2.52215 9.25407C2.65956 9.35129 2.82334 9.40426 2.99162 9.40594H9.99709C10.1654 9.40426 10.3292 9.35129 10.4666 9.25407C10.6035 9.15717 10.7078 9.02091 10.7655 8.86341C10.8195 8.70637 10.8768 8.49153 10.945 8.23544C10.9958 8.04451 11.0528 7.83066 11.1191 7.60075C11.1922 7.34701 11.2743 7.08536 11.3652 6.8523C11.4525 6.62868 11.5632 6.39064 11.7068 6.21172L11.7081 6.2101C12.7936 4.86913 12.6792 3.21351 11.8725 2.0174C11.341 1.22934 10.5245 0.662152 9.56921 0.529929C9.65854 0.554646 9.74308 0.594514 9.8191 0.647892C9.90632 0.70913 9.98063 0.786947 10.0378 0.8769C10.0949 0.96685 10.1338 1.06718 10.1522 1.17216C10.1705 1.27714 10.1681 1.38471 10.1449 1.48872C10.1217 1.59273 10.0782 1.69116 10.017 1.77838C9.95573 1.8656 9.87791 1.93991 9.78796 1.99705L9.77729 2.00383L9.76629 2.01006C8.77187 2.57339 7.65256 2.8796 6.50986 2.90091L6.50054 2.90108L6.49122 2.90091C5.34852 2.8796 4.22921 2.57339 3.23479 2.01006L3.19489 1.98746L3.15977 1.95798C3.01319 1.83493 2.91495 1.66392 2.8825 1.4753C2.85005 1.28669 2.88549 1.09268 2.98252 0.927719C3.07956 0.762759 3.23191 0.637521 3.41253 0.574242C3.59316 0.510964 3.79036 0.51374 3.96913 0.582076L3.99215 0.590878L4.0142 0.601903C4.94631 1.06796 5.72875 1.28229 6.48817 1.28229C7.24288 1.28229 8.02035 1.0706 8.94487 0.610515C9.02765 0.562378 9.11838 0.52923 9.21288 0.512691C9.23571 0.508695 9.25867 0.505685 9.28168 0.503661C8.87372 0.485352 8.44428 0.545885 8.00387 0.700644C6.88898 1.09798 6.12751 0.998065 5.44345 0.821782C5.31844 0.789566 5.20071 0.756731 5.08718 0.725069C4.5929 0.587214 4.17835 0.471595 3.58938 0.526101M9.18574 1.04912C7.23062 2.02668 5.74572 2.02668 3.79059 1.04912C3.72226 1.023 3.64689 1.02194 3.57785 1.04612C3.50881 1.07031 3.45058 1.11818 3.41349 1.18123C3.3764 1.24428 3.36286 1.31844 3.37526 1.39053C3.38766 1.46262 3.42521 1.52799 3.48124 1.57502C4.40325 2.09733 5.44105 2.38123 6.50054 2.401C7.56003 2.38123 8.59783 2.09733 9.51984 1.57502C9.55437 1.55308 9.58424 1.52456 9.60775 1.49108C9.63126 1.45759 9.64794 1.41981 9.65685 1.37988C9.66575 1.33995 9.66671 1.29866 9.65965 1.25836C9.6526 1.21806 9.63768 1.17955 9.61574 1.14502C9.5938 1.11048 9.56528 1.08061 9.5318 1.05711C9.49831 1.0336 9.46053 1.01691 9.4206 1.00801C9.38067 0.999105 9.33938 0.998151 9.29908 1.0052C9.25878 1.01226 9.22027 1.02718 9.18574 1.04912ZM1.75195 9.03047C1.6931 8.86036 1.6266 8.61155 1.55229 8.33349C1.37658 7.67605 1.15718 6.85515 0.891942 6.52469C-1.11577 4.04986 0.480501 0.312852 3.54311 0.0282462C4.23118 -0.0354638 4.74238 0.108134 5.24511 0.249353C5.96293 0.45099 6.66347 0.647776 7.83695 0.229327M1.28188 6.21172L1.28024 6.20969L1.28188 6.21172ZM1.28024 6.20969C-0.48006 4.03983 0.93139 0.773237 3.58921 0.526117L1.28024 6.20969Z" fill="#025899"/>
<path fill-rule="evenodd" clip-rule="evenodd" d="M7.73838 17.0795H5.27901C5.26654 17.0556 5.25416 17.0319 5.24189 17.0084C5.14645 16.8257 5.05705 16.6545 4.97368 16.4908C4.87896 16.3049 4.79203 16.1288 4.71289 15.9565L8.11579 16.3587L7.73838 17.0795ZM5.72386 16.5795L5.57279 16.5616C5.57588 16.5676 5.57898 16.5735 5.58209 16.5795H5.72386Z" fill="#025899"/>
<path fill-rule="evenodd" clip-rule="evenodd" d="M9.88837 11.453C9.97042 11.4588 10.0514 11.4317 10.1135 11.3777C10.1755 11.3238 10.2136 11.2474 10.2194 11.1653C10.2251 11.0833 10.198 11.0023 10.1441 10.9402C10.0901 10.8782 10.0137 10.8401 9.93168 10.8343L9.51405 10.7972L9.57592 9.90625H3.42595L3.44761 10.2465L3.13825 10.2156C3.07109 10.2096 3.00422 10.2256 2.94748 10.2605C2.93491 10.2683 2.92283 10.2769 2.91135 10.2865C2.84811 10.3393 2.80844 10.4151 2.80106 10.4971C2.79367 10.5792 2.81918 10.6608 2.87198 10.724C2.92477 10.7873 3.00052 10.8269 3.08257 10.8343L9.88837 11.453ZM3.95914 10.4119L9.00773 10.8709L9.04 10.4063H3.95878L3.95914 10.4119Z" fill="#025899"/>
<path fill-rule="evenodd" clip-rule="evenodd" d="M3.06987 12.3381L9.87567 12.9568C9.95772 12.9642 10.0393 12.9387 10.1026 12.8859C10.1658 12.8331 10.2055 12.7574 10.2129 12.6753C10.2203 12.5933 10.1947 12.5117 10.142 12.4484C10.0892 12.3852 10.0134 12.3455 9.93136 12.3381L9.40855 12.2917L9.4302 11.9824L3.53391 11.4534L3.55556 11.7627L3.12556 11.7194C3.10065 11.7172 3.07578 11.718 3.05146 11.7216C2.99565 11.73 2.9427 11.7536 2.89866 11.7903C2.83542 11.8431 2.79574 11.9189 2.78836 12.0009C2.78098 12.083 2.80649 12.1646 2.85928 12.2278C2.91208 12.2911 2.98783 12.3307 3.06987 12.3381Z" fill="#025899"/>
<path fill-rule="evenodd" clip-rule="evenodd" d="M3.61661 13.2349L3.66027 13.2398L3.64171 12.9583L9.33693 13.4749L9.31527 13.8028L9.62463 13.8337L9.61251 13.9549M3.23059 13.2681C3.22345 13.273 3.21649 13.2782 3.20973 13.2838C3.14591 13.336 3.10545 13.4114 3.09725 13.4934C3.08904 13.5755 3.11377 13.6574 3.16598 13.7212C3.21819 13.7851 3.29362 13.8255 3.37567 13.8337L9.56276 14.4524C9.6448 14.4606 9.72675 14.4359 9.79056 14.3837C9.85438 14.3315 9.89484 14.2561 9.90305 14.174C9.91125 14.092 9.88653 14.01 9.83431 13.9462C9.7821 13.8824 9.70667 13.8419 9.62463 13.8337M3.61661 13.2349L3.43754 13.215L3.61661 13.2349ZM3.43754 13.215C3.36418 13.2077 3.2909 13.2267 3.23059 13.2681L3.43754 13.215Z" fill="#025899"/>
<path fill-rule="evenodd" clip-rule="evenodd" d="M8.88307 14.955L8.70364 15.2984L9.013 15.3355C9.08443 15.3441 9.15035 15.3771 9.1999 15.4283C9.20726 15.4359 9.21427 15.444 9.22087 15.4524C9.27193 15.5174 9.29508 15.5999 9.28523 15.682C9.27539 15.764 9.23335 15.8388 9.16837 15.8899C9.1034 15.9409 9.0208 15.9641 8.93876 15.9542L3.67973 15.3355C3.59768 15.3257 3.52291 15.2836 3.47185 15.2187C3.4208 15.1537 3.39765 15.0711 3.40749 14.989C3.4144 14.9315 3.43715 14.8775 3.47255 14.8328C3.48761 14.8138 3.50496 14.7964 3.52435 14.7812C3.58933 14.7301 3.67193 14.707 3.75397 14.7168L3.99527 14.7632L3.84368 14.4539L8.88307 14.955Z" fill="#025899"/>
</svg>
