<svg width="68" height="68" viewBox="0 0 68 68" fill="none" xmlns="http://www.w3.org/2000/svg">
<circle cx="34" cy="34" r="34" fill="url(#paint0_linear_1124_6927)"/>
<path d="M53 23.5351V22.815C53 22.2975 53.1084 21.8268 53.3251 21.4028C53.5418 20.9788 53.8608 20.6391 54.2822 20.3834C54.7035 20.1278 55.2212 20 55.8352 20C56.4673 20 56.994 20.1278 57.4153 20.3834C57.8427 20.6391 58.1618 20.9788 58.3725 21.4028C58.5892 21.8268 58.6975 22.2975 58.6975 22.815V23.5351C58.6975 24.0401 58.5892 24.5046 58.3725 24.9285C58.1618 25.3525 57.8457 25.6923 57.4244 25.9479C57.003 26.2035 56.4823 26.3313 55.8623 26.3313C55.2363 26.3313 54.7096 26.2035 54.2822 25.9479C53.8608 25.6923 53.5418 25.3525 53.3251 24.9285C53.1084 24.5046 53 24.0401 53 23.5351ZM54.7246 22.815V23.5351C54.7246 23.7533 54.7637 23.9621 54.842 24.1617C54.9263 24.3549 55.0527 24.5139 55.2212 24.6386C55.3958 24.7571 55.6065 24.8163 55.8533 24.8163C56.1121 24.8163 56.3228 24.7571 56.4853 24.6386C56.6479 24.5139 56.7682 24.3549 56.8465 24.1617C56.9248 23.9621 56.9639 23.7533 56.9639 23.5351V22.815C56.9639 22.5843 56.9217 22.3723 56.8375 22.179C56.7592 21.9795 56.6358 21.8205 56.4673 21.7021C56.3047 21.5774 56.0941 21.515 55.8352 21.515C55.5944 21.515 55.3898 21.5774 55.2212 21.7021C55.0527 21.8205 54.9263 21.9795 54.842 22.179C54.7637 22.3723 54.7246 22.5843 54.7246 22.815ZM59.2844 31.1944V30.4743C59.2844 29.963 59.3928 29.4954 59.6095 29.0715C59.8322 28.6475 60.1543 28.3077 60.5756 28.0521C61.003 27.7965 61.5267 27.6687 62.1467 27.6687C62.7728 27.6687 63.2965 27.7965 63.7178 28.0521C64.1392 28.3077 64.4582 28.6475 64.6749 29.0715C64.8916 29.4954 65 29.963 65 30.4743V31.1944C65 31.7056 64.8916 32.1732 64.6749 32.5972C64.4643 33.0212 64.1482 33.3609 63.7269 33.6166C63.3055 33.8722 62.7848 34 62.1648 34C61.5388 34 61.012 33.8722 60.5847 33.6166C60.1573 33.3609 59.8322 33.0212 59.6095 32.5972C59.3928 32.1732 59.2844 31.7056 59.2844 31.1944ZM61.0181 30.4743V31.1944C61.0181 31.4188 61.0662 31.6308 61.1625 31.8303C61.2588 32.0298 61.3913 32.1888 61.5598 32.3073C61.7344 32.4257 61.936 32.485 62.1648 32.485C62.4537 32.485 62.6795 32.4257 62.842 32.3073C63.0045 32.1888 63.1159 32.0298 63.1761 31.8303C63.2423 31.6308 63.2754 31.4188 63.2754 31.1944V30.4743C63.2754 30.2498 63.2333 30.041 63.149 29.8477C63.0647 29.6482 62.9383 29.4892 62.7698 29.3707C62.6072 29.246 62.3995 29.1837 62.1467 29.1837C61.8939 29.1837 61.6832 29.246 61.5147 29.3707C61.3521 29.4892 61.2287 29.6482 61.1445 29.8477C61.0602 30.041 61.0181 30.2498 61.0181 30.4743ZM62.7878 22.1416L56.3679 32.7842L55.1038 32.0922L61.5237 21.4496L62.7878 22.1416Z" fill="white"/>
<path d="M7 32H16V37H7V32Z" fill="white"/>
<path d="M32.357 40.4085V44.166H15.4911V40.9596L23.4668 32.5261C24.2683 31.6465 24.9005 30.8727 25.3634 30.2047C25.8262 29.5256 26.1593 28.9188 26.3625 28.3844C26.577 27.8389 26.6842 27.3212 26.6842 26.8313C26.6842 26.0965 26.56 25.4675 26.3117 24.9442C26.0633 24.4098 25.6964 23.9979 25.211 23.7084C24.7368 23.4189 24.1498 23.2742 23.4499 23.2742C22.7048 23.2742 22.0613 23.4523 21.5195 23.8086C20.9889 24.1649 20.5825 24.6603 20.3002 25.2949C20.0293 25.9295 19.8938 26.6476 19.8938 27.4492H15C15 26.0019 15.35 24.677 16.0499 23.4746C16.7498 22.2611 17.7376 21.298 19.0133 20.5855C20.2889 19.8618 21.8017 19.5 23.5515 19.5C25.2787 19.5 26.735 19.7783 27.9204 20.335C29.117 20.8805 30.0201 21.671 30.6297 22.7064C31.2506 23.7307 31.5611 24.9554 31.5611 26.3804C31.5611 27.182 31.4313 27.9669 31.1716 28.7351C30.912 29.4922 30.5394 30.2493 30.054 31.0063C29.5799 31.7523 29.0041 32.5094 28.3268 33.2776C27.6494 34.0458 26.8987 34.8418 26.0746 35.6657L21.7904 40.4085H32.357Z" fill="white"/>
<path d="M52 29.8707V34.0792C52 35.905 51.8024 37.4804 51.4073 38.8053C51.0122 40.119 50.4421 41.199 49.697 42.0451C48.9632 42.8801 48.0883 43.498 47.0723 43.8988C46.0563 44.2996 44.9274 44.5 43.6856 44.5C42.6921 44.5 41.7664 44.3775 40.9085 44.1326C40.0505 43.8765 39.2772 43.4813 38.5886 42.9469C37.9112 42.4125 37.3242 41.7389 36.8275 40.9262C36.342 40.1023 35.9695 39.1226 35.7098 37.987C35.4502 36.8514 35.3204 35.5488 35.3204 34.0792V29.8707C35.3204 28.0449 35.5179 26.4806 35.913 25.178C36.3195 23.8643 36.8896 22.7899 37.6233 21.9549C38.3684 21.1199 39.249 20.5076 40.265 20.1179C41.281 19.7171 42.4099 19.5167 43.6517 19.5167C44.6452 19.5167 45.5652 19.6447 46.4119 19.9008C47.2699 20.1457 48.0432 20.5298 48.7318 21.0531C49.4204 21.5764 50.0075 22.2499 50.4929 23.0738C50.9783 23.8866 51.3509 24.8607 51.6105 25.9963C51.8702 27.1208 52 28.4123 52 29.8707ZM47.1062 34.7138V29.2194C47.1062 28.3399 47.0554 27.5717 46.9538 26.9148C46.8635 26.258 46.7223 25.7013 46.5304 25.2448C46.3385 24.7772 46.1014 24.3987 45.8192 24.1092C45.537 23.8198 45.2153 23.6082 44.854 23.4746C44.4928 23.341 44.092 23.2742 43.6517 23.2742C43.0986 23.2742 42.6075 23.38 42.1785 23.5915C41.7608 23.8031 41.4052 24.1426 41.1117 24.6102C40.8182 25.0667 40.5924 25.679 40.4343 26.4472C40.2876 27.2043 40.2142 28.1284 40.2142 29.2194V34.7138C40.2142 35.5933 40.2593 36.3671 40.3497 37.0351C40.4513 37.7031 40.598 38.2764 40.7899 38.7552C40.9931 39.2228 41.2302 39.6069 41.5011 39.9075C41.7834 40.1969 42.1051 40.4085 42.4664 40.5421C42.8389 40.6757 43.2453 40.7425 43.6856 40.7425C44.2275 40.7425 44.7072 40.6367 45.1249 40.4252C45.5539 40.2025 45.9152 39.8574 46.2087 39.3898C46.5135 38.911 46.7393 38.2876 46.886 37.5194C47.0328 36.7512 47.1062 35.816 47.1062 34.7138Z" fill="white"/>
<defs>
<linearGradient id="paint0_linear_1124_6927" x1="68" y1="34" x2="0" y2="34" gradientUnits="userSpaceOnUse">
<stop stop-color="#FF1F1F"/>
<stop offset="0.5" stop-color="#FF6969" stop-opacity="0.932292"/>
<stop offset="1" stop-color="#FF1F1F"/>
</linearGradient>
</defs>
</svg>
