<svg width="68" height="68" viewBox="0 0 68 68" fill="none" xmlns="http://www.w3.org/2000/svg">
<circle cx="34" cy="34" r="34" fill="url(#paint0_linear_749_5806)"/>
<path d="M24.2745 20V44.6619H19.6072V25.6119L14 27.4713V23.6342L23.7722 20H24.2745Z" fill="white"/>
<path d="M36.348 33.455L32.6206 32.5254L33.9657 20.0507H47.2221V23.9892H37.8065L37.2231 29.449C37.5364 29.2574 38.0118 29.0545 38.6492 28.8404C39.2866 28.6151 39.9997 28.5024 40.7884 28.5024C41.9336 28.5024 42.9492 28.6883 43.8351 29.0602C44.721 29.432 45.4719 29.973 46.0877 30.6829C46.7143 31.3928 47.1897 32.2605 47.5138 33.286C47.8379 34.3115 48 35.4722 48 36.7681C48 37.8612 47.8379 38.9035 47.5138 39.8952C47.1897 40.8756 46.6981 41.7546 46.0391 42.5321C45.38 43.2984 44.5535 43.9013 43.5596 44.3408C42.5656 44.7803 41.388 45 40.0267 45C39.0111 45 38.028 44.8422 37.0772 44.5267C36.1373 44.2112 35.2892 43.7435 34.5329 43.1237C33.7874 42.5039 33.1878 41.7546 32.734 40.8756C32.2911 39.9853 32.0588 38.9712 32.0372 37.833H36.6721C36.7369 38.5317 36.9098 39.1346 37.1907 39.6416C37.4824 40.1375 37.8659 40.5206 38.3413 40.7911C38.8167 41.0615 39.3731 41.1968 40.0105 41.1968C40.6047 41.1968 41.1125 41.0784 41.5338 40.8418C41.9552 40.6051 42.2955 40.2783 42.5548 39.8614C42.8141 39.4332 43.0032 38.9373 43.122 38.3739C43.2517 37.7992 43.3165 37.1794 43.3165 36.5145C43.3165 35.8497 43.2409 35.2468 43.0896 34.7059C42.9384 34.165 42.7061 33.6973 42.3928 33.3029C42.0794 32.9085 41.6797 32.6042 41.1935 32.3901C40.7181 32.176 40.1617 32.069 39.5243 32.069C38.66 32.069 37.9902 32.2098 37.5148 32.4915C37.0502 32.7733 36.6613 33.0944 36.348 33.455Z" fill="white"/>
<path d="M50 23.5351V22.815C50 22.2975 50.1084 21.8268 50.3251 21.4028C50.5418 20.9788 50.8608 20.6391 51.2822 20.3834C51.7035 20.1278 52.2212 20 52.8352 20C53.4673 20 53.994 20.1278 54.4153 20.3834C54.8427 20.6391 55.1618 20.9788 55.3725 21.4028C55.5892 21.8268 55.6975 22.2975 55.6975 22.815V23.5351C55.6975 24.0401 55.5892 24.5046 55.3725 24.9285C55.1618 25.3525 54.8457 25.6923 54.4244 25.9479C54.003 26.2035 53.4823 26.3313 52.8623 26.3313C52.2363 26.3313 51.7096 26.2035 51.2822 25.9479C50.8608 25.6923 50.5418 25.3525 50.3251 24.9285C50.1084 24.5046 50 24.0401 50 23.5351ZM51.7246 22.815V23.5351C51.7246 23.7533 51.7637 23.9621 51.842 24.1617C51.9263 24.3549 52.0527 24.5139 52.2212 24.6386C52.3958 24.7571 52.6065 24.8163 52.8533 24.8163C53.1121 24.8163 53.3228 24.7571 53.4853 24.6386C53.6479 24.5139 53.7682 24.3549 53.8465 24.1617C53.9248 23.9621 53.9639 23.7533 53.9639 23.5351V22.815C53.9639 22.5843 53.9217 22.3723 53.8375 22.179C53.7592 21.9795 53.6358 21.8205 53.4673 21.7021C53.3047 21.5774 53.0941 21.515 52.8352 21.515C52.5944 21.515 52.3898 21.5774 52.2212 21.7021C52.0527 21.8205 51.9263 21.9795 51.842 22.179C51.7637 22.3723 51.7246 22.5843 51.7246 22.815ZM56.2844 31.1944V30.4743C56.2844 29.963 56.3928 29.4954 56.6095 29.0715C56.8322 28.6475 57.1543 28.3077 57.5756 28.0521C58.003 27.7965 58.5267 27.6687 59.1467 27.6687C59.7728 27.6687 60.2965 27.7965 60.7178 28.0521C61.1392 28.3077 61.4582 28.6475 61.6749 29.0715C61.8916 29.4954 62 29.963 62 30.4743V31.1944C62 31.7056 61.8916 32.1732 61.6749 32.5972C61.4643 33.0212 61.1482 33.3609 60.7269 33.6166C60.3055 33.8722 59.7848 34 59.1648 34C58.5388 34 58.012 33.8722 57.5847 33.6166C57.1573 33.3609 56.8322 33.0212 56.6095 32.5972C56.3928 32.1732 56.2844 31.7056 56.2844 31.1944ZM58.0181 30.4743V31.1944C58.0181 31.4188 58.0662 31.6308 58.1625 31.8303C58.2588 32.0298 58.3913 32.1888 58.5598 32.3073C58.7344 32.4257 58.936 32.485 59.1648 32.485C59.4537 32.485 59.6795 32.4257 59.842 32.3073C60.0045 32.1888 60.1159 32.0298 60.1761 31.8303C60.2423 31.6308 60.2754 31.4188 60.2754 31.1944V30.4743C60.2754 30.2498 60.2333 30.041 60.149 29.8477C60.0647 29.6482 59.9383 29.4892 59.7698 29.3707C59.6072 29.246 59.3995 29.1837 59.1467 29.1837C58.8939 29.1837 58.6832 29.246 58.5147 29.3707C58.3521 29.4892 58.2287 29.6482 58.1445 29.8477C58.0602 30.041 58.0181 30.2498 58.0181 30.4743ZM59.7878 22.1416L53.3679 32.7842L52.1038 32.0922L58.5237 21.4496L59.7878 22.1416Z" fill="white"/>
<path d="M7 32H16V37H7V32Z" fill="white"/>
<defs>
<linearGradient id="paint0_linear_749_5806" x1="68" y1="34" x2="0" y2="34" gradientUnits="userSpaceOnUse">
<stop stop-color="#FF1F1F"/>
<stop offset="0.5" stop-color="#FF6969" stop-opacity="0.932292"/>
<stop offset="1" stop-color="#FF1F1F"/>
</linearGradient>
</defs>
</svg>
