<svg width="68" height="68" viewBox="0 0 68 68" fill="none" xmlns="http://www.w3.org/2000/svg">
<circle cx="34" cy="34" r="34" fill="url(#paint0_linear_990_7693)"/>
<path d="M50 23.5351V22.815C50 22.2975 50.1084 21.8268 50.3251 21.4028C50.5418 20.9788 50.8608 20.6391 51.2822 20.3834C51.7035 20.1278 52.2212 20 52.8352 20C53.4673 20 53.994 20.1278 54.4153 20.3834C54.8427 20.6391 55.1618 20.9788 55.3725 21.4028C55.5892 21.8268 55.6975 22.2975 55.6975 22.815V23.5351C55.6975 24.0401 55.5892 24.5046 55.3725 24.9285C55.1618 25.3525 54.8457 25.6923 54.4244 25.9479C54.003 26.2035 53.4823 26.3313 52.8623 26.3313C52.2363 26.3313 51.7096 26.2035 51.2822 25.9479C50.8608 25.6923 50.5418 25.3525 50.3251 24.9285C50.1084 24.5046 50 24.0401 50 23.5351ZM51.7246 22.815V23.5351C51.7246 23.7533 51.7637 23.9621 51.842 24.1617C51.9263 24.3549 52.0527 24.5139 52.2212 24.6386C52.3958 24.7571 52.6065 24.8163 52.8533 24.8163C53.1121 24.8163 53.3228 24.7571 53.4853 24.6386C53.6479 24.5139 53.7682 24.3549 53.8465 24.1617C53.9248 23.9621 53.9639 23.7533 53.9639 23.5351V22.815C53.9639 22.5843 53.9217 22.3723 53.8375 22.179C53.7592 21.9795 53.6358 21.8205 53.4673 21.7021C53.3047 21.5774 53.0941 21.515 52.8352 21.515C52.5944 21.515 52.3898 21.5774 52.2212 21.7021C52.0527 21.8205 51.9263 21.9795 51.842 22.179C51.7637 22.3723 51.7246 22.5843 51.7246 22.815ZM56.2844 31.1944V30.4743C56.2844 29.963 56.3928 29.4954 56.6095 29.0715C56.8322 28.6475 57.1543 28.3077 57.5756 28.0521C58.003 27.7965 58.5267 27.6687 59.1467 27.6687C59.7728 27.6687 60.2965 27.7965 60.7178 28.0521C61.1392 28.3077 61.4582 28.6475 61.6749 29.0715C61.8916 29.4954 62 29.963 62 30.4743V31.1944C62 31.7056 61.8916 32.1732 61.6749 32.5972C61.4643 33.0212 61.1482 33.3609 60.7269 33.6166C60.3055 33.8722 59.7848 34 59.1648 34C58.5388 34 58.012 33.8722 57.5847 33.6166C57.1573 33.3609 56.8322 33.0212 56.6095 32.5972C56.3928 32.1732 56.2844 31.7056 56.2844 31.1944ZM58.0181 30.4743V31.1944C58.0181 31.4188 58.0662 31.6308 58.1625 31.8303C58.2588 32.0298 58.3913 32.1888 58.5598 32.3073C58.7344 32.4257 58.936 32.485 59.1648 32.485C59.4537 32.485 59.6795 32.4257 59.842 32.3073C60.0045 32.1888 60.1159 32.0298 60.1761 31.8303C60.2423 31.6308 60.2754 31.4188 60.2754 31.1944V30.4743C60.2754 30.2498 60.2333 30.041 60.149 29.8477C60.0647 29.6482 59.9383 29.4892 59.7698 29.3707C59.6072 29.246 59.3995 29.1837 59.1467 29.1837C58.8939 29.1837 58.6832 29.246 58.5147 29.3707C58.3521 29.4892 58.2287 29.6482 58.1445 29.8477C58.0602 30.041 58.0181 30.2498 58.0181 30.4743ZM59.7878 22.1416L53.3679 32.7842L52.1038 32.0922L58.5237 21.4496L59.7878 22.1416Z" fill="white"/>
<path d="M7 32H16V37H7V32Z" fill="white"/>
<path d="M24.931 21.2955V46.6524H19.9655V27.0655L14 28.9773V25.0321L24.3966 21.2955H24.931Z" fill="white"/>
<path d="M50 31.7754V36.1551C50 38.0553 49.7989 39.6947 49.3965 41.0735C48.9943 42.4407 48.4138 43.5646 47.6552 44.4452C46.908 45.3142 46.0172 45.9572 44.9828 46.3743C43.9483 46.7914 42.7988 47 41.5345 47C40.523 47 39.5805 46.8725 38.7069 46.6176C37.8333 46.3512 37.046 45.9398 36.3448 45.3837C35.6552 44.8275 35.0575 44.1266 34.5517 43.2807C34.0575 42.4234 33.6782 41.4037 33.4138 40.2219C33.1494 39.0401 33.0172 37.6845 33.0172 36.1551V31.7754C33.0172 29.8752 33.2184 28.2473 33.6207 26.8917C34.0345 25.5245 34.6149 24.4064 35.3621 23.5374C36.1207 22.6684 37.0172 22.0312 38.0517 21.6257C39.0862 21.2086 40.2356 21 41.5 21C42.5115 21 43.4483 21.1332 44.3103 21.3997C45.1839 21.6546 45.9713 22.0544 46.6724 22.5989C47.3736 23.1435 47.9713 23.8445 48.4655 24.7019C48.9598 25.5477 49.3391 26.5615 49.6034 27.7433C49.8678 28.9135 50 30.2576 50 31.7754ZM45.0172 36.8155V31.0976C45.0172 30.1823 44.9655 29.3828 44.8621 28.6992C44.7701 28.0156 44.6264 27.4363 44.431 26.9612C44.2356 26.4746 43.9943 26.0807 43.7069 25.7794C43.4195 25.4782 43.092 25.258 42.7241 25.119C42.3563 24.9799 41.9483 24.9104 41.5 24.9104C40.9368 24.9104 40.4368 25.0205 40 25.2406C39.5747 25.4608 39.2126 25.8142 38.9138 26.3008C38.6149 26.7758 38.3851 27.4131 38.2241 28.2126C38.0747 29.0004 38 29.9621 38 31.0976V36.8155C38 37.7308 38.046 38.5361 38.1379 39.2313C38.2414 39.9265 38.3908 40.5232 38.5862 41.0214C38.7931 41.508 39.0345 41.9078 39.3103 42.2206C39.5977 42.5218 39.9253 42.742 40.2931 42.881C40.6724 43.0201 41.0862 43.0896 41.5345 43.0896C42.0862 43.0896 42.5747 42.9795 43 42.7594C43.4368 42.5276 43.8046 42.1684 44.1034 41.6818C44.4138 41.1836 44.6437 40.5348 44.7931 39.7353C44.9425 38.9358 45.0172 37.9626 45.0172 36.8155Z" fill="white"/>
<defs>
<linearGradient id="paint0_linear_990_7693" x1="68" y1="34" x2="0" y2="34" gradientUnits="userSpaceOnUse">
<stop stop-color="#FF1F1F"/>
<stop offset="0.5" stop-color="#FF6969" stop-opacity="0.932292"/>
<stop offset="1" stop-color="#FF1F1F"/>
</linearGradient>
</defs>
</svg>
